<?xml version="1.0" encoding="UTF-8" standalone="no"?>
<!DOCTYPE svg PUBLIC "-//W3C//DTD SVG 1.1//EN"
 "http://www.w3.org/Graphics/SVG/1.1/DTD/svg11.dtd">
<!-- Generated by graphviz version 2.47.0 (20210316.0004)
 -->
<!-- Title: dependencies Pages: 1 -->
<svg width="708pt" height="284pt"
 viewBox="0.00 0.00 708.00 284.00" xmlns="http://www.w3.org/2000/svg" xmlns:xlink="http://www.w3.org/1999/xlink">
<g id="graph0" class="graph" transform="scale(1 1) rotate(0) translate(4 280)">
<title>dependencies</title>
<polygon fill="white" stroke="transparent" points="-4,4 -4,-280 704,-280 704,4 -4,4"/>
<text text-anchor="start" x="329.01" y="-42.4" font-family="Times-12" font-weight="bold" font-size="14.00">Legend</text>
<polygon fill="#ffffb3" stroke="transparent" points="116,-10 116,-30 136,-30 136,-10 116,-10"/>
<text text-anchor="start" x="139.63" y="-15.4" font-family="Times-12" font-size="14.00"> &#160;Declarations</text>
<polygon fill="#8dd3c7" stroke="transparent" points="229,-10 229,-30 249,-30 249,-10 229,-10"/>
<text text-anchor="start" x="252.73" y="-15.4" font-family="Times-12" font-size="14.00"> &#160;Module</text>
<polygon fill="#80b1d3" stroke="transparent" points="315,-10 315,-30 335,-30 335,-10 315,-10"/>
<text text-anchor="start" x="338.78" y="-15.4" font-family="Times-12" font-size="14.00"> &#160;Bootstrap</text>
<polygon fill="#fdb462" stroke="transparent" points="412,-10 412,-30 432,-30 432,-10 412,-10"/>
<text text-anchor="start" x="435.67" y="-15.4" font-family="Times-12" font-size="14.00"> &#160;Providers</text>
<polygon fill="#fb8072" stroke="transparent" points="508,-10 508,-30 528,-30 528,-10 508,-10"/>
<text text-anchor="start" x="531.73" y="-15.4" font-family="Times-12" font-size="14.00"> &#160;Exports</text>
<g id="clust1" class="cluster">
<title>cluster_SideMenuAdminImpersonateComponentModule</title>
<polygon fill="none" stroke="black" stroke-dasharray="1,5" points="8,-70 8,-268 692,-268 692,-70 8,-70"/>
</g>
<g id="clust2" class="cluster">
<title>cluster_SideMenuAdminImpersonateComponentModule_declarations</title>
<polygon fill="none" stroke="black" points="16,-78 16,-130 684,-130 684,-78 16,-78"/>
</g>
<g id="clust7" class="cluster">
<title>cluster_SideMenuAdminImpersonateComponentModule_exports</title>
<polygon fill="none" stroke="black" points="133,-208 133,-260 574,-260 574,-208 133,-208"/>
</g>
<!-- AdminImpersonateComponent -->
<g id="node1" class="node">
<title>AdminImpersonateComponent</title>
<polygon fill="#ffffb3" stroke="black" points="675.91,-122 486.09,-122 486.09,-86 675.91,-86 675.91,-122"/>
<text text-anchor="middle" x="581" y="-99.8" font-family="Times,serif" font-size="14.00">AdminImpersonateComponent</text>
</g>
<!-- SideMenuAdminImpersonateComponentModule -->
<g id="node4" class="node">
<title>SideMenuAdminImpersonateComponentModule</title>
<polygon fill="#8dd3c7" stroke="black" points="506.01,-187 503.01,-191 482.01,-191 479.01,-187 215.99,-187 215.99,-151 506.01,-151 506.01,-187"/>
<text text-anchor="middle" x="361" y="-164.8" font-family="Times,serif" font-size="14.00">SideMenuAdminImpersonateComponentModule</text>
</g>
<!-- AdminImpersonateComponent&#45;&gt;SideMenuAdminImpersonateComponentModule -->
<g id="edge1" class="edge">
<title>AdminImpersonateComponent&#45;&gt;SideMenuAdminImpersonateComponentModule</title>
<path fill="none" stroke="black" d="M496.27,-122.11C496.27,-122.11 496.27,-140.99 496.27,-140.99"/>
<polygon fill="black" stroke="black" points="492.77,-140.99 496.27,-150.99 499.77,-140.99 492.77,-140.99"/>
</g>
<!-- AdminImpersonateItemComponent -->
<g id="node2" class="node">
<title>AdminImpersonateItemComponent</title>
<polygon fill="#ffffb3" stroke="black" points="468.57,-122 253.43,-122 253.43,-86 468.57,-86 468.57,-122"/>
<text text-anchor="middle" x="361" y="-99.8" font-family="Times,serif" font-size="14.00">AdminImpersonateItemComponent</text>
</g>
<!-- AdminImpersonateItemComponent&#45;&gt;SideMenuAdminImpersonateComponentModule -->
<g id="edge2" class="edge">
<title>AdminImpersonateItemComponent&#45;&gt;SideMenuAdminImpersonateComponentModule</title>
<path fill="none" stroke="black" d="M361,-122.11C361,-122.11 361,-140.99 361,-140.99"/>
<polygon fill="black" stroke="black" points="357.5,-140.99 361,-150.99 364.5,-140.99 357.5,-140.99"/>
</g>
<!-- AdminImpersonateListComponent -->
<g id="node3" class="node">
<title>AdminImpersonateListComponent</title>
<polygon fill="#ffffb3" stroke="black" points="235.69,-122 24.31,-122 24.31,-86 235.69,-86 235.69,-122"/>
<text text-anchor="middle" x="130" y="-99.8" font-family="Times,serif" font-size="14.00">AdminImpersonateListComponent</text>
</g>
<!-- AdminImpersonateListComponent&#45;&gt;SideMenuAdminImpersonateComponentModule -->
<g id="edge3" class="edge">
<title>AdminImpersonateListComponent&#45;&gt;SideMenuAdminImpersonateComponentModule</title>
<path fill="none" stroke="black" d="M225.67,-122.11C225.67,-122.11 225.67,-140.99 225.67,-140.99"/>
<polygon fill="black" stroke="black" points="222.17,-140.99 225.67,-150.99 229.17,-140.99 222.17,-140.99"/>
</g>
<!-- AdminImpersonateComponent  -->
<g id="node5" class="node">
<title>AdminImpersonateComponent </title>
<polygon fill="#fb8072" stroke="black" points="566.41,-252 373.59,-252 373.59,-216 566.41,-216 566.41,-252"/>
<text text-anchor="middle" x="470" y="-229.8" font-family="Times,serif" font-size="14.00">AdminImpersonateComponent </text>
</g>
<!-- SideMenuAdminImpersonateComponentModule&#45;&gt;AdminImpersonateComponent  -->
<g id="edge4" class="edge">
<title>SideMenuAdminImpersonateComponentModule&#45;&gt;AdminImpersonateComponent </title>
<path fill="none" stroke="black" stroke-dasharray="5,2" d="M439.9,-187.11C439.9,-187.11 439.9,-205.99 439.9,-205.99"/>
<polygon fill="black" stroke="black" points="436.4,-205.99 439.9,-215.99 443.4,-205.99 436.4,-205.99"/>
</g>
<!-- AdminImpersonateListComponent  -->
<g id="node6" class="node">
<title>AdminImpersonateListComponent </title>
<polygon fill="#fb8072" stroke="black" points="355.19,-252 140.81,-252 140.81,-216 355.19,-216 355.19,-252"/>
<text text-anchor="middle" x="248" y="-229.8" font-family="Times,serif" font-size="14.00">AdminImpersonateListComponent </text>
</g>
<!-- SideMenuAdminImpersonateComponentModule&#45;&gt;AdminImpersonateListComponent  -->
<g id="edge5" class="edge">
<title>SideMenuAdminImpersonateComponentModule&#45;&gt;AdminImpersonateListComponent </title>
<path fill="none" stroke="black" stroke-dasharray="5,2" d="M285.55,-187.11C285.55,-187.11 285.55,-205.99 285.55,-205.99"/>
<polygon fill="black" stroke="black" points="282.05,-205.99 285.55,-215.99 289.05,-205.99 282.05,-205.99"/>
</g>
</g>
</svg>
