<?xml version="1.0" encoding="UTF-8" standalone="no"?>
<!DOCTYPE svg PUBLIC "-//W3C//DTD SVG 1.1//EN"
 "http://www.w3.org/Graphics/SVG/1.1/DTD/svg11.dtd">
<!-- Generated by graphviz version 2.47.0 (20210316.0004)
 -->
<!-- Title: dependencies Pages: 1 -->
<svg width="708pt" height="396pt"
 viewBox="0.00 0.00 708.00 395.59" xmlns="http://www.w3.org/2000/svg" xmlns:xlink="http://www.w3.org/1999/xlink">
<g id="graph0" class="graph" transform="scale(1 1) rotate(0) translate(4 391.59)">
<title>dependencies</title>
<polygon fill="white" stroke="transparent" points="-4,4 -4,-391.59 704,-391.59 704,4 -4,4"/>
<text text-anchor="start" x="329.01" y="-42.4" font-family="Times-12" font-weight="bold" font-size="14.00">Legend</text>
<polygon fill="#ffffb3" stroke="transparent" points="116,-10 116,-30 136,-30 136,-10 116,-10"/>
<text text-anchor="start" x="139.63" y="-15.4" font-family="Times-12" font-size="14.00"> &#160;Declarations</text>
<polygon fill="#8dd3c7" stroke="transparent" points="229,-10 229,-30 249,-30 249,-10 229,-10"/>
<text text-anchor="start" x="252.73" y="-15.4" font-family="Times-12" font-size="14.00"> &#160;Module</text>
<polygon fill="#80b1d3" stroke="transparent" points="315,-10 315,-30 335,-30 335,-10 315,-10"/>
<text text-anchor="start" x="338.78" y="-15.4" font-family="Times-12" font-size="14.00"> &#160;Bootstrap</text>
<polygon fill="#fdb462" stroke="transparent" points="412,-10 412,-30 432,-30 432,-10 412,-10"/>
<text text-anchor="start" x="435.67" y="-15.4" font-family="Times-12" font-size="14.00"> &#160;Providers</text>
<polygon fill="#fb8072" stroke="transparent" points="508,-10 508,-30 528,-30 528,-10 508,-10"/>
<text text-anchor="start" x="531.73" y="-15.4" font-family="Times-12" font-size="14.00"> &#160;Exports</text>
<g id="clust1" class="cluster">
<title>cluster_SideMenuAdminImpersonateComponentModule</title>
<polygon fill="none" stroke="black" stroke-dasharray="1,5" points="8,-70 8,-379.59 692,-379.59 692,-70 8,-70"/>
</g>
<g id="clust7" class="cluster">
<title>cluster_SideMenuAdminImpersonateComponentModule_exports</title>
<polygon fill="none" stroke="black" points="257,-319.59 257,-371.59 465,-371.59 465,-319.59 257,-319.59"/>
</g>
<g id="clust2" class="cluster">
<title>cluster_SideMenuAdminImpersonateComponentModule_declarations</title>
<polygon fill="none" stroke="black" points="16,-189.59 16,-241.59 684,-241.59 684,-189.59 16,-189.59"/>
</g>
<g id="clust3" class="cluster">
<title>cluster_SideMenuAdminImpersonateComponentModule_AdminImpersonateComponent_providers</title>
<polygon fill="none" stroke="black" points="96,-78 96,-176.59 684,-176.59 684,-78 96,-78"/>
</g>
<!-- AdminImpersonateComponent -->
<g id="node1" class="node">
<title>AdminImpersonateComponent</title>
<polygon fill="#ffffb3" stroke="black" points="675.91,-233.59 486.09,-233.59 486.09,-197.59 675.91,-197.59 675.91,-233.59"/>
<text text-anchor="middle" x="581" y="-211.39" font-family="Times,serif" font-size="14.00">AdminImpersonateComponent</text>
</g>
<!-- SideMenuAdminImpersonateComponentModule -->
<g id="node4" class="node">
<title>SideMenuAdminImpersonateComponentModule</title>
<polygon fill="#8dd3c7" stroke="black" points="506.01,-298.59 503.01,-302.59 482.01,-302.59 479.01,-298.59 215.99,-298.59 215.99,-262.59 506.01,-262.59 506.01,-298.59"/>
<text text-anchor="middle" x="361" y="-276.39" font-family="Times,serif" font-size="14.00">SideMenuAdminImpersonateComponentModule</text>
</g>
<!-- AdminImpersonateComponent&#45;&gt;SideMenuAdminImpersonateComponentModule -->
<g id="edge1" class="edge">
<title>AdminImpersonateComponent&#45;&gt;SideMenuAdminImpersonateComponentModule</title>
<path fill="none" stroke="black" d="M496.27,-233.7C496.27,-233.7 496.27,-252.58 496.27,-252.58"/>
<polygon fill="black" stroke="black" points="492.77,-252.58 496.27,-262.58 499.77,-252.58 492.77,-252.58"/>
</g>
<!-- AdminImpersonateItemComponent -->
<g id="node2" class="node">
<title>AdminImpersonateItemComponent</title>
<polygon fill="#ffffb3" stroke="black" points="468.57,-233.59 253.43,-233.59 253.43,-197.59 468.57,-197.59 468.57,-233.59"/>
<text text-anchor="middle" x="361" y="-211.39" font-family="Times,serif" font-size="14.00">AdminImpersonateItemComponent</text>
</g>
<!-- AdminImpersonateItemComponent&#45;&gt;SideMenuAdminImpersonateComponentModule -->
<g id="edge3" class="edge">
<title>AdminImpersonateItemComponent&#45;&gt;SideMenuAdminImpersonateComponentModule</title>
<path fill="none" stroke="black" d="M361,-233.7C361,-233.7 361,-252.58 361,-252.58"/>
<polygon fill="black" stroke="black" points="357.5,-252.58 361,-262.58 364.5,-252.58 357.5,-252.58"/>
</g>
<!-- AdminImpersonateListComponent -->
<g id="node3" class="node">
<title>AdminImpersonateListComponent</title>
<polygon fill="#ffffb3" stroke="black" points="235.69,-233.59 24.31,-233.59 24.31,-197.59 235.69,-197.59 235.69,-233.59"/>
<text text-anchor="middle" x="130" y="-211.39" font-family="Times,serif" font-size="14.00">AdminImpersonateListComponent</text>
</g>
<!-- AdminImpersonateListComponent&#45;&gt;SideMenuAdminImpersonateComponentModule -->
<g id="edge4" class="edge">
<title>AdminImpersonateListComponent&#45;&gt;SideMenuAdminImpersonateComponentModule</title>
<path fill="none" stroke="black" d="M225.67,-233.7C225.67,-233.7 225.67,-252.58 225.67,-252.58"/>
<polygon fill="black" stroke="black" points="222.17,-252.58 225.67,-262.58 229.17,-252.58 222.17,-252.58"/>
</g>
<!-- AdminImpersonateComponent  -->
<g id="node6" class="node">
<title>AdminImpersonateComponent </title>
<polygon fill="#fb8072" stroke="black" points="457.41,-363.59 264.59,-363.59 264.59,-327.59 457.41,-327.59 457.41,-363.59"/>
<text text-anchor="middle" x="361" y="-341.39" font-family="Times,serif" font-size="14.00">AdminImpersonateComponent </text>
</g>
<!-- SideMenuAdminImpersonateComponentModule&#45;&gt;AdminImpersonateComponent  -->
<g id="edge5" class="edge">
<title>SideMenuAdminImpersonateComponentModule&#45;&gt;AdminImpersonateComponent </title>
<path fill="none" stroke="black" stroke-dasharray="5,2" d="M361,-298.7C361,-298.7 361,-317.58 361,-317.58"/>
<polygon fill="black" stroke="black" points="357.5,-317.58 361,-327.58 364.5,-317.58 357.5,-317.58"/>
</g>
<!-- {
 &#160;&#160;&#160;provide: UserListService, useClass: ImpersonationUserListService
} -->
<g id="node5" class="node">
<title>{
 &#160;&#160;&#160;provide: UserListService, useClass: ImpersonationUserListService
}</title>
<ellipse fill="#fdb462" stroke="black" cx="390" cy="-127.3" rx="286.43" ry="41.09"/>
<text text-anchor="middle" x="390" y="-139.9" font-family="Times,serif" font-size="14.00">{</text>
<text text-anchor="middle" x="390" y="-123.1" font-family="Times,serif" font-size="14.00"> &#160;&#160;&#160;provide: UserListService, useClass: ImpersonationUserListService</text>
<text text-anchor="middle" x="390" y="-106.3" font-family="Times,serif" font-size="14.00">}</text>
</g>
<!-- {
 &#160;&#160;&#160;provide: UserListService, useClass: ImpersonationUserListService
}&#45;&gt;AdminImpersonateComponent -->
<g id="edge2" class="edge">
<title>{
 &#160;&#160;&#160;provide: UserListService, useClass: ImpersonationUserListService
}&#45;&gt;AdminImpersonateComponent</title>
<path fill="none" stroke="black" d="M581,-158.18C581,-158.18 581,-187.47 581,-187.47"/>
<polygon fill="black" stroke="black" points="577.5,-187.47 581,-197.47 584.5,-187.47 577.5,-187.47"/>
</g>
</g>
</svg>
