<?xml version="1.0" encoding="UTF-8" standalone="no"?>
<!DOCTYPE svg PUBLIC "-//W3C//DTD SVG 1.1//EN"
 "http://www.w3.org/Graphics/SVG/1.1/DTD/svg11.dtd">
<!-- Generated by graphviz version 2.47.0 (20210316.0004)
 -->
<!-- Title: dependencies Pages: 1 -->
<svg width="2175pt" height="284pt"
 viewBox="0.00 0.00 2175.00 284.00" xmlns="http://www.w3.org/2000/svg" xmlns:xlink="http://www.w3.org/1999/xlink">
<g id="graph0" class="graph" transform="scale(1 1) rotate(0) translate(4 280)">
<title>dependencies</title>
<polygon fill="white" stroke="transparent" points="-4,4 -4,-280 2171,-280 2171,4 -4,4"/>
<text text-anchor="start" x="1062.51" y="-42.4" font-family="Times-12" font-weight="bold" font-size="14.00">Legend</text>
<polygon fill="#ffffb3" stroke="transparent" points="849.5,-10 849.5,-30 869.5,-30 869.5,-10 849.5,-10"/>
<text text-anchor="start" x="873.13" y="-15.4" font-family="Times-12" font-size="14.00"> &#160;Declarations</text>
<polygon fill="#8dd3c7" stroke="transparent" points="962.5,-10 962.5,-30 982.5,-30 982.5,-10 962.5,-10"/>
<text text-anchor="start" x="986.23" y="-15.4" font-family="Times-12" font-size="14.00"> &#160;Module</text>
<polygon fill="#80b1d3" stroke="transparent" points="1048.5,-10 1048.5,-30 1068.5,-30 1068.5,-10 1048.5,-10"/>
<text text-anchor="start" x="1072.28" y="-15.4" font-family="Times-12" font-size="14.00"> &#160;Bootstrap</text>
<polygon fill="#fdb462" stroke="transparent" points="1145.5,-10 1145.5,-30 1165.5,-30 1165.5,-10 1145.5,-10"/>
<text text-anchor="start" x="1169.17" y="-15.4" font-family="Times-12" font-size="14.00"> &#160;Providers</text>
<polygon fill="#fb8072" stroke="transparent" points="1241.5,-10 1241.5,-30 1261.5,-30 1261.5,-10 1241.5,-10"/>
<text text-anchor="start" x="1265.23" y="-15.4" font-family="Times-12" font-size="14.00"> &#160;Exports</text>
<g id="clust1" class="cluster">
<title>cluster_DialogComponentsModule</title>
<polygon fill="none" stroke="black" stroke-dasharray="1,5" points="8,-70 8,-268 2159,-268 2159,-70 8,-70"/>
</g>
<g id="clust14" class="cluster">
<title>cluster_DialogComponentsModule_exports</title>
<polygon fill="none" stroke="black" points="16,-208 16,-260 2151,-260 2151,-208 16,-208"/>
</g>
<g id="clust2" class="cluster">
<title>cluster_DialogComponentsModule_declarations</title>
<polygon fill="none" stroke="black" points="36,-78 36,-130 2137,-130 2137,-78 36,-78"/>
</g>
<!-- AdminImpersonateDialogComponent -->
<g id="node1" class="node">
<title>AdminImpersonateDialogComponent</title>
<polygon fill="#ffffb3" stroke="black" points="2128.51,-122 1901.49,-122 1901.49,-86 2128.51,-86 2128.51,-122"/>
<text text-anchor="middle" x="2015" y="-99.8" font-family="Times,serif" font-size="14.00">AdminImpersonateDialogComponent</text>
</g>
<!-- DialogComponentsModule -->
<g id="node11" class="node">
<title>DialogComponentsModule</title>
<polygon fill="#8dd3c7" stroke="black" points="1048.43,-187 1045.43,-191 1024.43,-191 1021.43,-187 879.57,-187 879.57,-151 1048.43,-151 1048.43,-187"/>
<text text-anchor="middle" x="964" y="-164.8" font-family="Times,serif" font-size="14.00">DialogComponentsModule</text>
</g>
<!-- AdminImpersonateDialogComponent&#45;&gt;DialogComponentsModule -->
<g id="edge1" class="edge">
<title>AdminImpersonateDialogComponent&#45;&gt;DialogComponentsModule</title>
<path fill="none" stroke="black" d="M1906.37,-122.11C1906.37,-141.34 1906.37,-169 1906.37,-169 1906.37,-169 1058.46,-169 1058.46,-169"/>
<polygon fill="black" stroke="black" points="1058.46,-165.5 1048.46,-169 1058.46,-172.5 1058.46,-165.5"/>
</g>
<!-- FilterSelectorDialogComponent -->
<g id="node2" class="node">
<title>FilterSelectorDialogComponent</title>
<polygon fill="#ffffb3" stroke="black" points="1882.63,-122 1687.37,-122 1687.37,-86 1882.63,-86 1882.63,-122"/>
<text text-anchor="middle" x="1785" y="-99.8" font-family="Times,serif" font-size="14.00">FilterSelectorDialogComponent</text>
</g>
<!-- FilterSelectorDialogComponent&#45;&gt;DialogComponentsModule -->
<g id="edge2" class="edge">
<title>FilterSelectorDialogComponent&#45;&gt;DialogComponentsModule</title>
<path fill="none" stroke="black" d="M1690.81,-122.27C1690.81,-140.56 1690.81,-166 1690.81,-166 1690.81,-166 1058.44,-166 1058.44,-166"/>
<polygon fill="black" stroke="black" points="1058.44,-162.5 1048.44,-166 1058.44,-169.5 1058.44,-162.5"/>
</g>
<!-- ImportNetDialogComponent -->
<g id="node3" class="node">
<title>ImportNetDialogComponent</title>
<polygon fill="#ffffb3" stroke="black" points="1668.75,-122 1491.25,-122 1491.25,-86 1668.75,-86 1668.75,-122"/>
<text text-anchor="middle" x="1580" y="-99.8" font-family="Times,serif" font-size="14.00">ImportNetDialogComponent</text>
</g>
<!-- ImportNetDialogComponent&#45;&gt;DialogComponentsModule -->
<g id="edge3" class="edge">
<title>ImportNetDialogComponent&#45;&gt;DialogComponentsModule</title>
<path fill="none" stroke="black" d="M1611.04,-122.03C1611.04,-139.06 1611.04,-162 1611.04,-162 1611.04,-162 1058.26,-162 1058.26,-162"/>
<polygon fill="black" stroke="black" points="1058.26,-158.5 1048.26,-162 1058.26,-165.5 1058.26,-158.5"/>
</g>
<!-- LoadFilterDialogComponent -->
<g id="node4" class="node">
<title>LoadFilterDialogComponent</title>
<polygon fill="#ffffb3" stroke="black" points="1473.03,-122 1294.97,-122 1294.97,-86 1473.03,-86 1473.03,-122"/>
<text text-anchor="middle" x="1384" y="-99.8" font-family="Times,serif" font-size="14.00">LoadFilterDialogComponent</text>
</g>
<!-- LoadFilterDialogComponent&#45;&gt;DialogComponentsModule -->
<g id="edge4" class="edge">
<title>LoadFilterDialogComponent&#45;&gt;DialogComponentsModule</title>
<path fill="none" stroke="black" d="M1413.84,-122.01C1413.84,-138.05 1413.84,-159 1413.84,-159 1413.84,-159 1058.35,-159 1058.35,-159"/>
<polygon fill="black" stroke="black" points="1058.35,-155.5 1048.35,-159 1058.35,-162.5 1058.35,-155.5"/>
</g>
<!-- MultiUserAssignDialogComponent -->
<g id="node5" class="node">
<title>MultiUserAssignDialogComponent</title>
<polygon fill="#ffffb3" stroke="black" points="1276.86,-122 1061.14,-122 1061.14,-86 1276.86,-86 1276.86,-122"/>
<text text-anchor="middle" x="1169" y="-99.8" font-family="Times,serif" font-size="14.00">MultiUserAssignDialogComponent</text>
</g>
<!-- MultiUserAssignDialogComponent&#45;&gt;DialogComponentsModule -->
<g id="edge5" class="edge">
<title>MultiUserAssignDialogComponent&#45;&gt;DialogComponentsModule</title>
<path fill="none" stroke="black" d="M1168.88,-122.12C1168.88,-136.78 1168.88,-155 1168.88,-155 1168.88,-155 1058.22,-155 1058.22,-155"/>
<polygon fill="black" stroke="black" points="1058.22,-151.5 1048.22,-155 1058.22,-158.5 1058.22,-151.5"/>
</g>
<!-- NewCaseDialogComponent -->
<g id="node6" class="node">
<title>NewCaseDialogComponent</title>
<polygon fill="#ffffb3" stroke="black" points="1043.57,-122 870.43,-122 870.43,-86 1043.57,-86 1043.57,-122"/>
<text text-anchor="middle" x="957" y="-99.8" font-family="Times,serif" font-size="14.00">NewCaseDialogComponent</text>
</g>
<!-- NewCaseDialogComponent&#45;&gt;DialogComponentsModule -->
<g id="edge6" class="edge">
<title>NewCaseDialogComponent&#45;&gt;DialogComponentsModule</title>
<path fill="none" stroke="black" d="M961.66,-122.11C961.66,-122.11 961.66,-140.99 961.66,-140.99"/>
<polygon fill="black" stroke="black" points="958.16,-140.99 961.66,-150.99 965.16,-140.99 958.16,-140.99"/>
</g>
<!-- SaveFilterDialogComponent -->
<g id="node7" class="node">
<title>SaveFilterDialogComponent</title>
<polygon fill="#ffffb3" stroke="black" points="852.48,-122 675.52,-122 675.52,-86 852.48,-86 852.48,-122"/>
<text text-anchor="middle" x="764" y="-99.8" font-family="Times,serif" font-size="14.00">SaveFilterDialogComponent</text>
</g>
<!-- SaveFilterDialogComponent&#45;&gt;DialogComponentsModule -->
<g id="edge7" class="edge">
<title>SaveFilterDialogComponent&#45;&gt;DialogComponentsModule</title>
<path fill="none" stroke="black" d="M848.36,-122.12C848.36,-136.78 848.36,-155 848.36,-155 848.36,-155 869.66,-155 869.66,-155"/>
<polygon fill="black" stroke="black" points="869.66,-158.5 879.66,-155 869.66,-151.5 869.66,-158.5"/>
</g>
<!-- TaskViewDialogComponent -->
<g id="node8" class="node">
<title>TaskViewDialogComponent</title>
<polygon fill="#ffffb3" stroke="black" points="657.47,-122 480.53,-122 480.53,-86 657.47,-86 657.47,-122"/>
<text text-anchor="middle" x="569" y="-99.8" font-family="Times,serif" font-size="14.00">TaskViewDialogComponent</text>
</g>
<!-- TaskViewDialogComponent&#45;&gt;DialogComponentsModule -->
<g id="edge8" class="edge">
<title>TaskViewDialogComponent&#45;&gt;DialogComponentsModule</title>
<path fill="none" stroke="black" d="M651.86,-122.01C651.86,-138.05 651.86,-159 651.86,-159 651.86,-159 869.53,-159 869.53,-159"/>
<polygon fill="black" stroke="black" points="869.53,-162.5 879.53,-159 869.53,-155.5 869.53,-162.5"/>
</g>
<!-- UserAssignDialogComponent -->
<g id="node9" class="node">
<title>UserAssignDialogComponent</title>
<polygon fill="#ffffb3" stroke="black" points="462.25,-122 277.75,-122 277.75,-86 462.25,-86 462.25,-122"/>
<text text-anchor="middle" x="370" y="-99.8" font-family="Times,serif" font-size="14.00">UserAssignDialogComponent</text>
</g>
<!-- UserAssignDialogComponent&#45;&gt;DialogComponentsModule -->
<g id="edge9" class="edge">
<title>UserAssignDialogComponent&#45;&gt;DialogComponentsModule</title>
<path fill="none" stroke="black" d="M455.25,-122.02C455.25,-139.37 455.25,-163 455.25,-163 455.25,-163 869.7,-163 869.7,-163"/>
<polygon fill="black" stroke="black" points="869.7,-166.5 879.7,-163 869.7,-159.5 869.7,-166.5"/>
</g>
<!-- UserImpersonateDialogComponent -->
<g id="node10" class="node">
<title>UserImpersonateDialogComponent</title>
<polygon fill="#ffffb3" stroke="black" points="259.55,-122 44.45,-122 44.45,-86 259.55,-86 259.55,-122"/>
<text text-anchor="middle" x="152" y="-99.8" font-family="Times,serif" font-size="14.00">UserImpersonateDialogComponent</text>
</g>
<!-- UserImpersonateDialogComponent&#45;&gt;DialogComponentsModule -->
<g id="edge10" class="edge">
<title>UserImpersonateDialogComponent&#45;&gt;DialogComponentsModule</title>
<path fill="none" stroke="black" d="M250.9,-122.22C250.9,-140.83 250.9,-167 250.9,-167 250.9,-167 869.75,-167 869.75,-167"/>
<polygon fill="black" stroke="black" points="869.75,-170.5 879.75,-167 869.75,-163.5 869.75,-170.5"/>
</g>
<!-- AdminImpersonateDialogComponent  -->
<g id="node12" class="node">
<title>AdminImpersonateDialogComponent </title>
<polygon fill="#fb8072" stroke="black" points="2142.51,-252 1911.49,-252 1911.49,-216 2142.51,-216 2142.51,-252"/>
<text text-anchor="middle" x="2027" y="-229.8" font-family="Times,serif" font-size="14.00">AdminImpersonateDialogComponent </text>
</g>
<!-- DialogComponentsModule&#45;&gt;AdminImpersonateDialogComponent  -->
<g id="edge11" class="edge">
<title>DialogComponentsModule&#45;&gt;AdminImpersonateDialogComponent </title>
<path fill="none" stroke="black" stroke-dasharray="5,2" d="M1048.64,-173C1299.26,-173 2020.12,-173 2020.12,-173 2020.12,-173 2020.12,-205.7 2020.12,-205.7"/>
<polygon fill="black" stroke="black" points="2016.63,-205.7 2020.12,-215.7 2023.63,-205.7 2016.63,-205.7"/>
</g>
<!-- FilterSelectorDialogComponent  -->
<g id="node13" class="node">
<title>FilterSelectorDialogComponent </title>
<polygon fill="#fb8072" stroke="black" points="1893.63,-252 1694.37,-252 1694.37,-216 1893.63,-216 1893.63,-252"/>
<text text-anchor="middle" x="1794" y="-229.8" font-family="Times,serif" font-size="14.00">FilterSelectorDialogComponent </text>
</g>
<!-- DialogComponentsModule&#45;&gt;FilterSelectorDialogComponent  -->
<g id="edge12" class="edge">
<title>DialogComponentsModule&#45;&gt;FilterSelectorDialogComponent </title>
<path fill="none" stroke="black" stroke-dasharray="5,2" d="M1048.37,-177C1258.54,-177 1788.62,-177 1788.62,-177 1788.62,-177 1788.62,-205.96 1788.62,-205.96"/>
<polygon fill="black" stroke="black" points="1785.13,-205.96 1788.62,-215.96 1792.13,-205.96 1785.13,-205.96"/>
</g>
<!-- ImportNetDialogComponent  -->
<g id="node14" class="node">
<title>ImportNetDialogComponent </title>
<polygon fill="#fb8072" stroke="black" points="1676.75,-252 1495.25,-252 1495.25,-216 1676.75,-216 1676.75,-252"/>
<text text-anchor="middle" x="1586" y="-229.8" font-family="Times,serif" font-size="14.00">ImportNetDialogComponent </text>
</g>
<!-- DialogComponentsModule&#45;&gt;ImportNetDialogComponent  -->
<g id="edge13" class="edge">
<title>DialogComponentsModule&#45;&gt;ImportNetDialogComponent </title>
<path fill="none" stroke="black" stroke-dasharray="5,2" d="M1048.42,-180C1211.34,-180 1553.21,-180 1553.21,-180 1553.21,-180 1553.21,-205.72 1553.21,-205.72"/>
<polygon fill="black" stroke="black" points="1549.71,-205.72 1553.21,-215.72 1556.71,-205.72 1549.71,-205.72"/>
</g>
<!-- LoadFilterDialogComponent  -->
<g id="node15" class="node">
<title>LoadFilterDialogComponent </title>
<polygon fill="#fb8072" stroke="black" points="1477.03,-252 1294.97,-252 1294.97,-216 1477.03,-216 1477.03,-252"/>
<text text-anchor="middle" x="1386" y="-229.8" font-family="Times,serif" font-size="14.00">LoadFilterDialogComponent </text>
</g>
<!-- DialogComponentsModule&#45;&gt;LoadFilterDialogComponent  -->
<g id="edge14" class="edge">
<title>DialogComponentsModule&#45;&gt;LoadFilterDialogComponent </title>
<path fill="none" stroke="black" stroke-dasharray="5,2" d="M1048.23,-184C1163,-184 1354.41,-184 1354.41,-184 1354.41,-184 1354.41,-205.95 1354.41,-205.95"/>
<polygon fill="black" stroke="black" points="1350.91,-205.95 1354.41,-215.95 1357.91,-205.95 1350.91,-205.95"/>
</g>
<!-- MultiUserAssignDialogComponent  -->
<g id="node16" class="node">
<title>MultiUserAssignDialogComponent </title>
<polygon fill="#fb8072" stroke="black" points="1276.86,-252 1057.14,-252 1057.14,-216 1276.86,-216 1276.86,-252"/>
<text text-anchor="middle" x="1167" y="-229.8" font-family="Times,serif" font-size="14.00">MultiUserAssignDialogComponent </text>
</g>
<!-- DialogComponentsModule&#45;&gt;MultiUserAssignDialogComponent  -->
<g id="edge15" class="edge">
<title>DialogComponentsModule&#45;&gt;MultiUserAssignDialogComponent </title>
<path fill="none" stroke="black" stroke-dasharray="5,2" d="M1043.75,-187.11C1043.75,-206.34 1043.75,-234 1043.75,-234 1043.75,-234 1046.94,-234 1046.94,-234"/>
<polygon fill="black" stroke="black" points="1046.94,-237.5 1056.94,-234 1046.94,-230.5 1046.94,-237.5"/>
</g>
<!-- NewCaseDialogComponent  -->
<g id="node17" class="node">
<title>NewCaseDialogComponent </title>
<polygon fill="#fb8072" stroke="black" points="1039.07,-252 862.93,-252 862.93,-216 1039.07,-216 1039.07,-252"/>
<text text-anchor="middle" x="951" y="-229.8" font-family="Times,serif" font-size="14.00">NewCaseDialogComponent </text>
</g>
<!-- DialogComponentsModule&#45;&gt;NewCaseDialogComponent  -->
<g id="edge16" class="edge">
<title>DialogComponentsModule&#45;&gt;NewCaseDialogComponent </title>
<path fill="none" stroke="black" stroke-dasharray="5,2" d="M959.54,-187.11C959.54,-187.11 959.54,-205.99 959.54,-205.99"/>
<polygon fill="black" stroke="black" points="956.04,-205.99 959.54,-215.99 963.04,-205.99 956.04,-205.99"/>
</g>
<!-- SaveFilterDialogComponent  -->
<g id="node18" class="node">
<title>SaveFilterDialogComponent </title>
<polygon fill="#fb8072" stroke="black" points="844.48,-252 663.52,-252 663.52,-216 844.48,-216 844.48,-252"/>
<text text-anchor="middle" x="754" y="-229.8" font-family="Times,serif" font-size="14.00">SaveFilterDialogComponent </text>
</g>
<!-- DialogComponentsModule&#45;&gt;SaveFilterDialogComponent  -->
<g id="edge17" class="edge">
<title>DialogComponentsModule&#45;&gt;SaveFilterDialogComponent </title>
<path fill="none" stroke="black" stroke-dasharray="5,2" d="M879.5,-183C823.35,-183 759.88,-183 759.88,-183 759.88,-183 759.88,-205.88 759.88,-205.88"/>
<polygon fill="black" stroke="black" points="756.38,-205.88 759.88,-215.88 763.38,-205.88 756.38,-205.88"/>
</g>
<!-- TaskViewDialogComponent  -->
<g id="node19" class="node">
<title>TaskViewDialogComponent </title>
<polygon fill="#fb8072" stroke="black" points="646.47,-252 465.53,-252 465.53,-216 646.47,-216 646.47,-252"/>
<text text-anchor="middle" x="556" y="-229.8" font-family="Times,serif" font-size="14.00">TaskViewDialogComponent </text>
</g>
<!-- DialogComponentsModule&#45;&gt;TaskViewDialogComponent  -->
<g id="edge18" class="edge">
<title>DialogComponentsModule&#45;&gt;TaskViewDialogComponent </title>
<path fill="none" stroke="black" stroke-dasharray="5,2" d="M879.53,-179C761.99,-179 563.38,-179 563.38,-179 563.38,-179 563.38,-205.99 563.38,-205.99"/>
<polygon fill="black" stroke="black" points="559.88,-205.99 563.38,-215.99 566.88,-205.99 559.88,-205.99"/>
</g>
<!-- UserAssignDialogComponent  -->
<g id="node20" class="node">
<title>UserAssignDialogComponent </title>
<polygon fill="#fb8072" stroke="black" points="448.25,-252 259.75,-252 259.75,-216 448.25,-216 448.25,-252"/>
<text text-anchor="middle" x="354" y="-229.8" font-family="Times,serif" font-size="14.00">UserAssignDialogComponent </text>
</g>
<!-- DialogComponentsModule&#45;&gt;UserAssignDialogComponent  -->
<g id="edge19" class="edge">
<title>DialogComponentsModule&#45;&gt;UserAssignDialogComponent </title>
<path fill="none" stroke="black" stroke-dasharray="5,2" d="M879.78,-175C714.35,-175 362.88,-175 362.88,-175 362.88,-175 362.88,-205.98 362.88,-205.98"/>
<polygon fill="black" stroke="black" points="359.38,-205.98 362.88,-215.98 366.38,-205.98 359.38,-205.98"/>
</g>
<!-- UserImpersonateDialogComponent  -->
<g id="node21" class="node">
<title>UserImpersonateDialogComponent </title>
<polygon fill="#fb8072" stroke="black" points="242.05,-252 23.95,-252 23.95,-216 242.05,-216 242.05,-252"/>
<text text-anchor="middle" x="133" y="-229.8" font-family="Times,serif" font-size="14.00">UserImpersonateDialogComponent </text>
</g>
<!-- DialogComponentsModule&#45;&gt;UserImpersonateDialogComponent  -->
<g id="edge20" class="edge">
<title>DialogComponentsModule&#45;&gt;UserImpersonateDialogComponent </title>
<path fill="none" stroke="black" stroke-dasharray="5,2" d="M879.65,-171C670.24,-171 143.38,-171 143.38,-171 143.38,-171 143.38,-205.78 143.38,-205.78"/>
<polygon fill="black" stroke="black" points="139.88,-205.78 143.38,-215.78 146.88,-205.78 139.88,-205.78"/>
</g>
</g>
</svg>
