<?xml version="1.0" encoding="UTF-8"?>
<!DOCTYPE svg PUBLIC "-//W3C//DTD SVG 1.1//EN" "http://www.w3.org/Graphics/SVG/1.1/DTD/svg11.dtd">
<svg xmlns="http://www.w3.org/2000/svg" xmlns:xlink="http://www.w3.org/1999/xlink" version="1.1" width="362px" height="361px" viewBox="-0.5 -0.5 362 361" style="background-color: rgb(255, 255, 255);"><defs/><g><rect x="80" y="160" width="40" height="40" fill="#d2d2d2" stroke="#d2d2d2" pointer-events="all"/><rect x="40" y="200" width="40" height="40" fill="#eeeeee" stroke="none" pointer-events="all"/><rect x="0" y="160" width="40" height="40" fill="#eeeeee" stroke="#eeeeee" pointer-events="all"/><rect x="0" y="240" width="40" height="40" fill="#eeeeee" stroke="#eeeeee" pointer-events="all"/><rect x="0" y="200" width="40" height="40" fill="#5c35b0" stroke="#5c35b0" pointer-events="all"/><rect x="160" y="40" width="40" height="40" fill="#eeeeee" stroke="none" pointer-events="all"/><rect x="160" y="0" width="40" height="40" fill="#2297f4" stroke="#2297f4" pointer-events="all"/><rect x="120" y="80" width="40" height="40" fill="#5c35b0" stroke="none" pointer-events="all"/><rect x="80" y="120" width="40" height="40" fill="#eeeeee" stroke="none" pointer-events="all"/><rect x="80" y="80" width="40" height="40" fill="#eeeeee" stroke="none" pointer-events="all"/><rect x="0" y="80" width="80" height="80" fill="#2297f4" stroke="#2297f4" pointer-events="all"/><rect x="80" y="0" width="80" height="80" fill="#d2d2d2" stroke="#d2d2d2" pointer-events="all"/><rect x="200" y="40" width="40" height="40" fill="#eeeeee" stroke="none" pointer-events="all"/><rect x="240" y="0" width="40" height="40" fill="#eeeeee" stroke="none" pointer-events="all"/><rect x="320" y="0" width="40" height="40" fill="#eeeeee" stroke="none" pointer-events="all"/><rect x="120" y="120" width="40" height="40" fill="#eeeeee" stroke="none" pointer-events="all"/><rect x="40" y="240" width="40" height="40" fill="#eeeeee" stroke="none" pointer-events="all"/><rect x="80" y="240" width="40" height="40" fill="#eeeeee" stroke="none" pointer-events="all"/><rect x="0" y="320" width="40" height="40" fill="#eeeeee" stroke="#eeeeee" pointer-events="all"/><rect x="0" y="0" width="80" height="80" fill="#13b0d4" stroke="#13b0d4" pointer-events="all"/></g></svg>