<?xml version="1.0" encoding="UTF-8" standalone="no"?>
<!DOCTYPE svg PUBLIC "-//W3C//DTD SVG 1.1//EN"
 "http://www.w3.org/Graphics/SVG/1.1/DTD/svg11.dtd">
<!-- Generated by graphviz version 5.0.0 (20220707.1540)
 -->
<!-- Title: dependencies Pages: 1 -->
<svg width="600pt" height="247pt"
 viewBox="0.00 0.00 600.00 246.80" xmlns="http://www.w3.org/2000/svg" xmlns:xlink="http://www.w3.org/1999/xlink">
<g id="graph0" class="graph" transform="scale(1 1) rotate(0) translate(4 242.8)">
<title>dependencies</title>
<polygon fill="white" stroke="transparent" points="-4,4 -4,-242.8 596,-242.8 596,4 -4,4"/>
<text text-anchor="middle" x="296" y="-8.2" font-family="sans-serif" font-size="14.00">dependencies</text>
<g id="clust1" class="cluster">
<title>cluster_CaseViewComponentModule</title>
<polygon fill="none" stroke="black" stroke-dasharray="1,5" points="8,-32.8 8,-230.8 584,-230.8 584,-32.8 8,-32.8"/>
</g>
<g id="clust2" class="cluster">
<title>cluster_CaseViewComponentModule_declarations</title>
<polygon fill="none" stroke="black" points="20,-40.8 20,-92.8 570,-92.8 570,-40.8 20,-40.8"/>
</g>
<g id="clust7" class="cluster">
<title>cluster_CaseViewComponentModule_exports</title>
<polygon fill="none" stroke="black" points="16,-170.8 16,-222.8 576,-222.8 576,-170.8 16,-170.8"/>
</g>
<!-- CaseListComponent -->
<g id="node1" class="node">
<title>CaseListComponent</title>
<polygon fill="#ffffb3" stroke="black" points="562.32,-84.8 431.68,-84.8 431.68,-48.8 562.32,-48.8 562.32,-84.8"/>
<text text-anchor="middle" x="497" y="-62.6" font-family="Times,serif" font-size="14.00">CaseListComponent</text>
</g>
<!-- CaseViewComponentModule -->
<g id="node4" class="node">
<title>CaseViewComponentModule</title>
<polygon fill="#8dd3c7" stroke="black" points="413.42,-149.8 410.42,-153.8 389.42,-153.8 386.42,-149.8 230.58,-149.8 230.58,-113.8 413.42,-113.8 413.42,-149.8"/>
<text text-anchor="middle" x="322" y="-127.6" font-family="Times,serif" font-size="14.00">CaseViewComponentModule</text>
</g>
<!-- CaseListComponent&#45;&gt;CaseViewComponentModule -->
<g id="edge1" class="edge">
<title>CaseListComponent&#45;&gt;CaseViewComponentModule</title>
<path fill="none" stroke="black" d="M519.47,-84.82C519.47,-102.17 519.47,-125.8 519.47,-125.8 519.47,-125.8 423.22,-125.8 423.22,-125.8"/>
<polygon fill="black" stroke="black" points="423.22,-122.3 413.22,-125.8 423.22,-129.3 423.22,-122.3"/>
</g>
<!-- CaseListPaginatorComponent -->
<g id="node2" class="node">
<title>CaseListPaginatorComponent</title>
<polygon fill="#ffffb3" stroke="black" points="413.98,-84.8 230.02,-84.8 230.02,-48.8 413.98,-48.8 413.98,-84.8"/>
<text text-anchor="middle" x="322" y="-62.6" font-family="Times,serif" font-size="14.00">CaseListPaginatorComponent</text>
</g>
<!-- CaseListPaginatorComponent&#45;&gt;CaseViewComponentModule -->
<g id="edge2" class="edge">
<title>CaseListPaginatorComponent&#45;&gt;CaseViewComponentModule</title>
<path fill="none" stroke="black" d="M322,-84.91C322,-84.91 322,-103.79 322,-103.79"/>
<polygon fill="black" stroke="black" points="318.5,-103.79 322,-113.79 325.5,-103.79 318.5,-103.79"/>
</g>
<!-- CreateCaseButtonComponent -->
<g id="node3" class="node">
<title>CreateCaseButtonComponent</title>
<polygon fill="#ffffb3" stroke="black" points="211.69,-84.8 28.31,-84.8 28.31,-48.8 211.69,-48.8 211.69,-84.8"/>
<text text-anchor="middle" x="120" y="-62.6" font-family="Times,serif" font-size="14.00">CreateCaseButtonComponent</text>
</g>
<!-- CreateCaseButtonComponent&#45;&gt;CaseViewComponentModule -->
<g id="edge3" class="edge">
<title>CreateCaseButtonComponent&#45;&gt;CaseViewComponentModule</title>
<path fill="none" stroke="black" d="M149.7,-84.82C149.7,-102.17 149.7,-125.8 149.7,-125.8 149.7,-125.8 220.55,-125.8 220.55,-125.8"/>
<polygon fill="black" stroke="black" points="220.55,-129.3 230.55,-125.8 220.55,-122.3 220.55,-129.3"/>
</g>
<!-- CaseListComponent  -->
<g id="node5" class="node">
<title>CaseListComponent </title>
<polygon fill="#fb8072" stroke="black" points="567.82,-214.8 434.18,-214.8 434.18,-178.8 567.82,-178.8 567.82,-214.8"/>
<text text-anchor="middle" x="501" y="-192.6" font-family="Times,serif" font-size="14.00">CaseListComponent </text>
</g>
<!-- CaseViewComponentModule&#45;&gt;CaseListComponent  -->
<g id="edge4" class="edge">
<title>CaseViewComponentModule&#45;&gt;CaseListComponent </title>
<path fill="none" stroke="black" stroke-dasharray="5,2" d="M413.38,-137.8C446.89,-137.8 476.78,-137.8 476.78,-137.8 476.78,-137.8 476.78,-168.78 476.78,-168.78"/>
<polygon fill="black" stroke="black" points="473.28,-168.78 476.78,-178.78 480.28,-168.78 473.28,-168.78"/>
</g>
<!-- CaseListPaginatorComponent  -->
<g id="node6" class="node">
<title>CaseListPaginatorComponent </title>
<polygon fill="#fb8072" stroke="black" points="415.98,-214.8 228.02,-214.8 228.02,-178.8 415.98,-178.8 415.98,-214.8"/>
<text text-anchor="middle" x="322" y="-192.6" font-family="Times,serif" font-size="14.00">CaseListPaginatorComponent </text>
</g>
<!-- CaseViewComponentModule&#45;&gt;CaseListPaginatorComponent  -->
<g id="edge5" class="edge">
<title>CaseViewComponentModule&#45;&gt;CaseListPaginatorComponent </title>
<path fill="none" stroke="black" stroke-dasharray="5,2" d="M322,-149.91C322,-149.91 322,-168.79 322,-168.79"/>
<polygon fill="black" stroke="black" points="318.5,-168.79 322,-178.79 325.5,-168.79 318.5,-168.79"/>
</g>
<!-- CreateCaseButtonComponent  -->
<g id="node7" class="node">
<title>CreateCaseButtonComponent </title>
<polygon fill="#fb8072" stroke="black" points="210.19,-214.8 23.81,-214.8 23.81,-178.8 210.19,-178.8 210.19,-214.8"/>
<text text-anchor="middle" x="117" y="-192.6" font-family="Times,serif" font-size="14.00">CreateCaseButtonComponent </text>
</g>
<!-- CaseViewComponentModule&#45;&gt;CreateCaseButtonComponent  -->
<g id="edge6" class="edge">
<title>CaseViewComponentModule&#45;&gt;CreateCaseButtonComponent </title>
<path fill="none" stroke="black" stroke-dasharray="5,2" d="M230.6,-137.8C165.34,-137.8 89.05,-137.8 89.05,-137.8 89.05,-137.8 89.05,-168.78 89.05,-168.78"/>
<polygon fill="black" stroke="black" points="85.55,-168.78 89.05,-178.78 92.55,-168.78 85.55,-168.78"/>
</g>
</g>
</svg>
