<?xml version="1.0" encoding="UTF-8" standalone="no"?>
<!DOCTYPE svg PUBLIC "-//W3C//DTD SVG 1.1//EN"
 "http://www.w3.org/Graphics/SVG/1.1/DTD/svg11.dtd">
<!-- Generated by graphviz version 3.0.0 (20220226.1711)
 -->
<!-- Title: dependencies Pages: 1 -->
<svg width="396pt" height="247pt"
 viewBox="0.00 0.00 396.00 246.80" xmlns="http://www.w3.org/2000/svg" xmlns:xlink="http://www.w3.org/1999/xlink">
<g id="graph0" class="graph" transform="scale(1 1) rotate(0) translate(4 242.8)">
<title>dependencies</title>
<polygon fill="white" stroke="transparent" points="-4,4 -4,-242.8 392,-242.8 392,4 -4,4"/>
<text text-anchor="middle" x="194" y="-8.2" font-family="sans-serif" font-size="14.00">dependencies</text>
<g id="clust1" class="cluster">
<title>cluster_CaseViewComponentModule</title>
<polygon fill="none" stroke="black" stroke-dasharray="1,5" points="8,-32.8 8,-230.8 380,-230.8 380,-32.8 8,-32.8"/>
</g>
<g id="clust6" class="cluster">
<title>cluster_CaseViewComponentModule_exports</title>
<polygon fill="none" stroke="black" points="16,-170.8 16,-222.8 372,-222.8 372,-170.8 16,-170.8"/>
</g>
<g id="clust2" class="cluster">
<title>cluster_CaseViewComponentModule_declarations</title>
<polygon fill="none" stroke="black" points="20,-40.8 20,-92.8 368,-92.8 368,-40.8 20,-40.8"/>
</g>
<!-- CaseListComponent -->
<g id="node1" class="node">
<title>CaseListComponent</title>
<polygon fill="#ffffb3" stroke="black" points="360.32,-84.8 229.68,-84.8 229.68,-48.8 360.32,-48.8 360.32,-84.8"/>
<text text-anchor="middle" x="295" y="-62.6" font-family="Times,serif" font-size="14.00">CaseListComponent</text>
</g>
<!-- CaseViewComponentModule -->
<g id="node3" class="node">
<title>CaseViewComponentModule</title>
<polygon fill="#8dd3c7" stroke="black" points="212.42,-149.8 209.42,-153.8 188.42,-153.8 185.42,-149.8 29.58,-149.8 29.58,-113.8 212.42,-113.8 212.42,-149.8"/>
<text text-anchor="middle" x="121" y="-127.6" font-family="Times,serif" font-size="14.00">CaseViewComponentModule</text>
</g>
<!-- CaseListComponent&#45;&gt;CaseViewComponentModule -->
<g id="edge1" class="edge">
<title>CaseListComponent&#45;&gt;CaseViewComponentModule</title>
<path fill="none" stroke="black" d="M316.8,-84.82C316.8,-102.17 316.8,-125.8 316.8,-125.8 316.8,-125.8 222.31,-125.8 222.31,-125.8"/>
<polygon fill="black" stroke="black" points="222.31,-122.3 212.31,-125.8 222.31,-129.3 222.31,-122.3"/>
</g>
<!-- CaseListPaginatorComponent -->
<g id="node2" class="node">
<title>CaseListPaginatorComponent</title>
<polygon fill="#ffffb3" stroke="black" points="211.98,-84.8 28.02,-84.8 28.02,-48.8 211.98,-48.8 211.98,-84.8"/>
<text text-anchor="middle" x="120" y="-62.6" font-family="Times,serif" font-size="14.00">CaseListPaginatorComponent</text>
</g>
<!-- CaseListPaginatorComponent&#45;&gt;CaseViewComponentModule -->
<g id="edge2" class="edge">
<title>CaseListPaginatorComponent&#45;&gt;CaseViewComponentModule</title>
<path fill="none" stroke="black" d="M120.89,-84.91C120.89,-84.91 120.89,-103.79 120.89,-103.79"/>
<polygon fill="black" stroke="black" points="117.39,-103.79 120.89,-113.79 124.39,-103.79 117.39,-103.79"/>
</g>
<!-- CaseListComponent  -->
<g id="node4" class="node">
<title>CaseListComponent </title>
<polygon fill="#fb8072" stroke="black" points="363.82,-214.8 230.18,-214.8 230.18,-178.8 363.82,-178.8 363.82,-214.8"/>
<text text-anchor="middle" x="297" y="-192.6" font-family="Times,serif" font-size="14.00">CaseListComponent </text>
</g>
<!-- CaseViewComponentModule&#45;&gt;CaseListComponent  -->
<g id="edge3" class="edge">
<title>CaseViewComponentModule&#45;&gt;CaseListComponent </title>
<path fill="none" stroke="black" stroke-dasharray="5,2" d="M212.32,-137.8C244.79,-137.8 273.45,-137.8 273.45,-137.8 273.45,-137.8 273.45,-168.78 273.45,-168.78"/>
<polygon fill="black" stroke="black" points="269.95,-168.78 273.45,-178.78 276.95,-168.78 269.95,-168.78"/>
</g>
<!-- CaseListPaginatorComponent  -->
<g id="node5" class="node">
<title>CaseListPaginatorComponent </title>
<polygon fill="#fb8072" stroke="black" points="211.98,-214.8 24.02,-214.8 24.02,-178.8 211.98,-178.8 211.98,-214.8"/>
<text text-anchor="middle" x="118" y="-192.6" font-family="Times,serif" font-size="14.00">CaseListPaginatorComponent </text>
</g>
<!-- CaseViewComponentModule&#45;&gt;CaseListPaginatorComponent  -->
<g id="edge4" class="edge">
<title>CaseViewComponentModule&#45;&gt;CaseListPaginatorComponent </title>
<path fill="none" stroke="black" stroke-dasharray="5,2" d="M120.76,-149.91C120.76,-149.91 120.76,-168.79 120.76,-168.79"/>
<polygon fill="black" stroke="black" points="117.26,-168.79 120.76,-178.79 124.26,-168.79 117.26,-168.79"/>
</g>
</g>
</svg>
