<?xml version="1.0" encoding="UTF-8" standalone="no"?>
<!DOCTYPE svg PUBLIC "-//W3C//DTD SVG 1.1//EN"
 "http://www.w3.org/Graphics/SVG/1.1/DTD/svg11.dtd">
<!-- Generated by graphviz version 3.0.0 (20220226.1711)
 -->
<!-- Title: dependencies Pages: 1 -->
<svg width="280pt" height="247pt"
 viewBox="0.00 0.00 280.00 246.80" xmlns="http://www.w3.org/2000/svg" xmlns:xlink="http://www.w3.org/1999/xlink">
<g id="graph0" class="graph" transform="scale(1 1) rotate(0) translate(4 242.8)">
<title>dependencies</title>
<polygon fill="white" stroke="transparent" points="-4,4 -4,-242.8 276,-242.8 276,4 -4,4"/>
<text text-anchor="middle" x="136" y="-8.2" font-family="sans-serif" font-size="14.00">dependencies</text>
<g id="clust1" class="cluster">
<title>cluster_SideMenuImportNetComponentModule</title>
<polygon fill="none" stroke="black" stroke-dasharray="1,5" points="8,-32.8 8,-230.8 264,-230.8 264,-32.8 8,-32.8"/>
</g>
<g id="clust2" class="cluster">
<title>cluster_SideMenuImportNetComponentModule_declarations</title>
<polygon fill="none" stroke="black" points="58,-40.8 58,-92.8 214,-92.8 214,-40.8 58,-40.8"/>
</g>
<g id="clust5" class="cluster">
<title>cluster_SideMenuImportNetComponentModule_exports</title>
<polygon fill="none" stroke="black" points="56,-170.8 56,-222.8 216,-222.8 216,-170.8 56,-170.8"/>
</g>
<!-- ImportNetComponent -->
<g id="node1" class="node">
<title>ImportNetComponent</title>
<polygon fill="#ffffb3" stroke="black" points="205.65,-84.8 66.35,-84.8 66.35,-48.8 205.65,-48.8 205.65,-84.8"/>
<text text-anchor="middle" x="136" y="-62.6" font-family="Times,serif" font-size="14.00">ImportNetComponent</text>
</g>
<!-- SideMenuImportNetComponentModule -->
<g id="node2" class="node">
<title>SideMenuImportNetComponentModule</title>
<polygon fill="#8dd3c7" stroke="black" points="256.25,-149.8 253.25,-153.8 232.25,-153.8 229.25,-149.8 15.75,-149.8 15.75,-113.8 256.25,-113.8 256.25,-149.8"/>
<text text-anchor="middle" x="136" y="-127.6" font-family="Times,serif" font-size="14.00">SideMenuImportNetComponentModule</text>
</g>
<!-- ImportNetComponent&#45;&gt;SideMenuImportNetComponentModule -->
<g id="edge1" class="edge">
<title>ImportNetComponent&#45;&gt;SideMenuImportNetComponentModule</title>
<path fill="none" stroke="black" d="M136,-84.91C136,-84.91 136,-103.79 136,-103.79"/>
<polygon fill="black" stroke="black" points="132.5,-103.79 136,-113.79 139.5,-103.79 132.5,-103.79"/>
</g>
<!-- ImportNetComponent  -->
<g id="node3" class="node">
<title>ImportNetComponent </title>
<polygon fill="#fb8072" stroke="black" points="207.65,-214.8 64.35,-214.8 64.35,-178.8 207.65,-178.8 207.65,-214.8"/>
<text text-anchor="middle" x="136" y="-192.6" font-family="Times,serif" font-size="14.00">ImportNetComponent </text>
</g>
<!-- SideMenuImportNetComponentModule&#45;&gt;ImportNetComponent  -->
<g id="edge2" class="edge">
<title>SideMenuImportNetComponentModule&#45;&gt;ImportNetComponent </title>
<path fill="none" stroke="black" stroke-dasharray="5,2" d="M136,-149.91C136,-149.91 136,-168.79 136,-168.79"/>
<polygon fill="black" stroke="black" points="132.5,-168.79 136,-178.79 139.5,-168.79 132.5,-168.79"/>
</g>
</g>
</svg>
