<?xml version="1.0" encoding="UTF-8" standalone="no"?>
<!DOCTYPE svg PUBLIC "-//W3C//DTD SVG 1.1//EN"
 "http://www.w3.org/Graphics/SVG/1.1/DTD/svg11.dtd">
<!-- Generated by graphviz version 3.0.0 (20220226.1711)
 -->
<!-- Title: dependencies Pages: 1 -->
<svg width="496pt" height="247pt"
 viewBox="0.00 0.00 496.00 246.80" xmlns="http://www.w3.org/2000/svg" xmlns:xlink="http://www.w3.org/1999/xlink">
<g id="graph0" class="graph" transform="scale(1 1) rotate(0) translate(4 242.8)">
<title>dependencies</title>
<polygon fill="white" stroke="transparent" points="-4,4 -4,-242.8 492,-242.8 492,4 -4,4"/>
<text text-anchor="middle" x="244" y="-8.2" font-family="sans-serif" font-size="14.00">dependencies</text>
<g id="clust1" class="cluster">
<title>cluster_PromptDialogModule</title>
<polygon fill="none" stroke="black" stroke-dasharray="1,5" points="8,-32.8 8,-230.8 480,-230.8 480,-32.8 8,-32.8"/>
</g>
<g id="clust4" class="cluster">
<title>cluster_PromptDialogModule_imports</title>
<polygon fill="none" stroke="black" points="200,-40.8 200,-92.8 472,-92.8 472,-40.8 200,-40.8"/>
</g>
<g id="clust5" class="cluster">
<title>cluster_PromptDialogModule_exports</title>
<polygon fill="none" stroke="black" points="184,-170.8 184,-222.8 364,-222.8 364,-170.8 184,-170.8"/>
</g>
<g id="clust2" class="cluster">
<title>cluster_PromptDialogModule_declarations</title>
<polygon fill="none" stroke="black" points="16,-40.8 16,-92.8 192,-92.8 192,-40.8 16,-40.8"/>
</g>
<!-- PromptDialogComponent -->
<g id="node1" class="node">
<title>PromptDialogComponent</title>
<polygon fill="#ffffb3" stroke="black" points="184.16,-84.8 23.84,-84.8 23.84,-48.8 184.16,-48.8 184.16,-84.8"/>
<text text-anchor="middle" x="104" y="-62.6" font-family="Times,serif" font-size="14.00">PromptDialogComponent</text>
</g>
<!-- PromptDialogModule -->
<g id="node2" class="node">
<title>PromptDialogModule</title>
<polygon fill="#8dd3c7" stroke="black" points="343.38,-149.8 340.38,-153.8 319.38,-153.8 316.38,-149.8 204.62,-149.8 204.62,-113.8 343.38,-113.8 343.38,-149.8"/>
<text text-anchor="middle" x="274" y="-127.6" font-family="Times,serif" font-size="14.00">PromptDialogModule</text>
</g>
<!-- PromptDialogComponent&#45;&gt;PromptDialogModule -->
<g id="edge1" class="edge">
<title>PromptDialogComponent&#45;&gt;PromptDialogModule</title>
<path fill="none" stroke="black" d="M104,-84.91C104,-104.14 104,-131.8 104,-131.8 104,-131.8 194.36,-131.8 194.36,-131.8"/>
<polygon fill="black" stroke="black" points="194.36,-135.3 204.36,-131.8 194.36,-128.3 194.36,-135.3"/>
</g>
<!-- PromptDialogComponent  -->
<g id="node5" class="node">
<title>PromptDialogComponent </title>
<polygon fill="#fb8072" stroke="black" points="356.16,-214.8 191.84,-214.8 191.84,-178.8 356.16,-178.8 356.16,-214.8"/>
<text text-anchor="middle" x="274" y="-192.6" font-family="Times,serif" font-size="14.00">PromptDialogComponent </text>
</g>
<!-- PromptDialogModule&#45;&gt;PromptDialogComponent  -->
<g id="edge4" class="edge">
<title>PromptDialogModule&#45;&gt;PromptDialogComponent </title>
<path fill="none" stroke="black" stroke-dasharray="5,2" d="M274,-149.91C274,-149.91 274,-168.79 274,-168.79"/>
<polygon fill="black" stroke="black" points="270.5,-168.79 274,-178.79 277.5,-168.79 270.5,-168.79"/>
</g>
<!-- MaterialModule -->
<g id="node3" class="node">
<title>MaterialModule</title>
<polygon fill="#8dd3c7" stroke="black" points="464.47,-84.8 461.47,-88.8 440.47,-88.8 437.47,-84.8 357.53,-84.8 357.53,-48.8 464.47,-48.8 464.47,-84.8"/>
<text text-anchor="middle" x="411" y="-62.6" font-family="Times,serif" font-size="14.00">MaterialModule</text>
</g>
<!-- MaterialModule&#45;&gt;PromptDialogModule -->
<g id="edge2" class="edge">
<title>MaterialModule&#45;&gt;PromptDialogModule</title>
<path fill="none" stroke="black" d="M411,-84.91C411,-104.14 411,-131.8 411,-131.8 411,-131.8 353.7,-131.8 353.7,-131.8"/>
<polygon fill="black" stroke="black" points="353.7,-128.3 343.7,-131.8 353.7,-135.3 353.7,-128.3"/>
</g>
<!-- TranslateLibModule -->
<g id="node4" class="node">
<title>TranslateLibModule</title>
<polygon fill="#8dd3c7" stroke="black" points="339.58,-84.8 336.58,-88.8 315.58,-88.8 312.58,-84.8 208.42,-84.8 208.42,-48.8 339.58,-48.8 339.58,-84.8"/>
<text text-anchor="middle" x="274" y="-62.6" font-family="Times,serif" font-size="14.00">TranslateLibModule</text>
</g>
<!-- TranslateLibModule&#45;&gt;PromptDialogModule -->
<g id="edge3" class="edge">
<title>TranslateLibModule&#45;&gt;PromptDialogModule</title>
<path fill="none" stroke="black" d="M274,-84.91C274,-84.91 274,-103.79 274,-103.79"/>
<polygon fill="black" stroke="black" points="270.5,-103.79 274,-113.79 277.5,-103.79 270.5,-103.79"/>
</g>
</g>
</svg>
