<?xml version="1.0" encoding="UTF-8" standalone="no"?>
<!DOCTYPE svg PUBLIC "-//W3C//DTD SVG 1.1//EN"
 "http://www.w3.org/Graphics/SVG/1.1/DTD/svg11.dtd">
<!-- Generated by graphviz version 2.47.3 (20210619.1520)
 -->
<!-- Title: dependencies Pages: 1 -->
<svg width="496pt" height="247pt"
 viewBox="0.00 0.00 496.00 246.80" xmlns="http://www.w3.org/2000/svg" xmlns:xlink="http://www.w3.org/1999/xlink">
<g id="graph0" class="graph" transform="scale(1 1) rotate(0) translate(4 242.8)">
<title>dependencies</title>
<polygon fill="white" stroke="transparent" points="-4,4 -4,-242.8 492,-242.8 492,4 -4,4"/>
<text text-anchor="middle" x="244" y="-8.2" font-family="sans-serif" font-size="14.00">dependencies</text>
<g id="clust1" class="cluster">
<title>cluster_PromptDialogModule</title>
<polygon fill="none" stroke="black" stroke-dasharray="1,5" points="8,-32.8 8,-230.8 480,-230.8 480,-32.8 8,-32.8"/>
</g>
<g id="clust2" class="cluster">
<title>cluster_PromptDialogModule_declarations</title>
<polygon fill="none" stroke="black" points="296,-40.8 296,-92.8 472,-92.8 472,-40.8 296,-40.8"/>
</g>
<g id="clust4" class="cluster">
<title>cluster_PromptDialogModule_imports</title>
<polygon fill="none" stroke="black" points="16,-40.8 16,-92.8 288,-92.8 288,-40.8 16,-40.8"/>
</g>
<g id="clust5" class="cluster">
<title>cluster_PromptDialogModule_exports</title>
<polygon fill="none" stroke="black" points="137,-170.8 137,-222.8 317,-222.8 317,-170.8 137,-170.8"/>
</g>
<!-- PromptDialogComponent -->
<g id="node1" class="node">
<title>PromptDialogComponent</title>
<polygon fill="#ffffb3" stroke="black" points="464.16,-84.8 303.84,-84.8 303.84,-48.8 464.16,-48.8 464.16,-84.8"/>
<text text-anchor="middle" x="384" y="-62.6" font-family="Times,serif" font-size="14.00">PromptDialogComponent</text>
</g>
<!-- PromptDialogModule -->
<g id="node2" class="node">
<title>PromptDialogModule</title>
<polygon fill="#8dd3c7" stroke="black" points="296.38,-149.8 293.38,-153.8 272.38,-153.8 269.38,-149.8 157.62,-149.8 157.62,-113.8 296.38,-113.8 296.38,-149.8"/>
<text text-anchor="middle" x="227" y="-127.6" font-family="Times,serif" font-size="14.00">PromptDialogModule</text>
</g>
<!-- PromptDialogComponent&#45;&gt;PromptDialogModule -->
<g id="edge1" class="edge">
<title>PromptDialogComponent&#45;&gt;PromptDialogModule</title>
<path fill="none" stroke="black" d="M303.81,-66.8C294.62,-66.8 288.46,-66.8 288.46,-66.8 288.46,-66.8 288.46,-103.69 288.46,-103.69"/>
<polygon fill="black" stroke="black" points="284.96,-103.69 288.46,-113.69 291.96,-103.69 284.96,-103.69"/>
</g>
<!-- PromptDialogComponent  -->
<g id="node5" class="node">
<title>PromptDialogComponent </title>
<polygon fill="#fb8072" stroke="black" points="309.16,-214.8 144.84,-214.8 144.84,-178.8 309.16,-178.8 309.16,-214.8"/>
<text text-anchor="middle" x="227" y="-192.6" font-family="Times,serif" font-size="14.00">PromptDialogComponent </text>
</g>
<!-- PromptDialogModule&#45;&gt;PromptDialogComponent  -->
<g id="edge4" class="edge">
<title>PromptDialogModule&#45;&gt;PromptDialogComponent </title>
<path fill="none" stroke="black" stroke-dasharray="5,2" d="M227,-149.91C227,-149.91 227,-168.79 227,-168.79"/>
<polygon fill="black" stroke="black" points="223.5,-168.79 227,-178.79 230.5,-168.79 223.5,-168.79"/>
</g>
<!-- MaterialModule -->
<g id="node3" class="node">
<title>MaterialModule</title>
<polygon fill="#8dd3c7" stroke="black" points="280.47,-84.8 277.47,-88.8 256.47,-88.8 253.47,-84.8 173.53,-84.8 173.53,-48.8 280.47,-48.8 280.47,-84.8"/>
<text text-anchor="middle" x="227" y="-62.6" font-family="Times,serif" font-size="14.00">MaterialModule</text>
</g>
<!-- MaterialModule&#45;&gt;PromptDialogModule -->
<g id="edge2" class="edge">
<title>MaterialModule&#45;&gt;PromptDialogModule</title>
<path fill="none" stroke="black" d="M227,-84.91C227,-84.91 227,-103.79 227,-103.79"/>
<polygon fill="black" stroke="black" points="223.5,-103.79 227,-113.79 230.5,-103.79 223.5,-103.79"/>
</g>
<!-- TranslateLibModule -->
<g id="node4" class="node">
<title>TranslateLibModule</title>
<polygon fill="#8dd3c7" stroke="black" points="155.58,-84.8 152.58,-88.8 131.58,-88.8 128.58,-84.8 24.42,-84.8 24.42,-48.8 155.58,-48.8 155.58,-84.8"/>
<text text-anchor="middle" x="90" y="-62.6" font-family="Times,serif" font-size="14.00">TranslateLibModule</text>
</g>
<!-- TranslateLibModule&#45;&gt;PromptDialogModule -->
<g id="edge3" class="edge">
<title>TranslateLibModule&#45;&gt;PromptDialogModule</title>
<path fill="none" stroke="black" d="M150.23,-84.91C150.23,-104.14 150.23,-131.8 150.23,-131.8 150.23,-131.8 150.97,-131.8 150.97,-131.8"/>
<polygon fill="black" stroke="black" points="147.59,-135.3 157.59,-131.8 147.59,-128.3 147.59,-135.3"/>
</g>
</g>
</svg>
