<?xml version="1.0" encoding="UTF-8" standalone="no"?>
<!DOCTYPE svg PUBLIC "-//W3C//DTD SVG 1.1//EN"
 "http://www.w3.org/Graphics/SVG/1.1/DTD/svg11.dtd">
<!-- Generated by graphviz version 2.47.0 (20210316.0004)
 -->
<!-- Title: dependencies Pages: 1 -->
<svg width="504pt" height="284pt"
 viewBox="0.00 0.00 504.00 284.00" xmlns="http://www.w3.org/2000/svg" xmlns:xlink="http://www.w3.org/1999/xlink">
<g id="graph0" class="graph" transform="scale(1 1) rotate(0) translate(4 280)">
<title>dependencies</title>
<polygon fill="white" stroke="transparent" points="-4,4 -4,-280 500,-280 500,4 -4,4"/>
<text text-anchor="start" x="227.01" y="-42.4" font-family="Times-12" font-weight="bold" font-size="14.00">Legend</text>
<polygon fill="#ffffb3" stroke="transparent" points="14,-10 14,-30 34,-30 34,-10 14,-10"/>
<text text-anchor="start" x="37.63" y="-15.4" font-family="Times-12" font-size="14.00"> &#160;Declarations</text>
<polygon fill="#8dd3c7" stroke="transparent" points="127,-10 127,-30 147,-30 147,-10 127,-10"/>
<text text-anchor="start" x="150.73" y="-15.4" font-family="Times-12" font-size="14.00"> &#160;Module</text>
<polygon fill="#80b1d3" stroke="transparent" points="213,-10 213,-30 233,-30 233,-10 213,-10"/>
<text text-anchor="start" x="236.78" y="-15.4" font-family="Times-12" font-size="14.00"> &#160;Bootstrap</text>
<polygon fill="#fdb462" stroke="transparent" points="310,-10 310,-30 330,-30 330,-10 310,-10"/>
<text text-anchor="start" x="333.67" y="-15.4" font-family="Times-12" font-size="14.00"> &#160;Providers</text>
<polygon fill="#fb8072" stroke="transparent" points="406,-10 406,-30 426,-30 426,-10 406,-10"/>
<text text-anchor="start" x="429.73" y="-15.4" font-family="Times-12" font-size="14.00"> &#160;Exports</text>
<g id="clust1" class="cluster">
<title>cluster_PromptDialogModule</title>
<polygon fill="none" stroke="black" stroke-dasharray="1,5" points="12,-70 12,-268 484,-268 484,-70 12,-70"/>
</g>
<g id="clust2" class="cluster">
<title>cluster_PromptDialogModule_declarations</title>
<polygon fill="none" stroke="black" points="300,-78 300,-130 476,-130 476,-78 300,-78"/>
</g>
<g id="clust5" class="cluster">
<title>cluster_PromptDialogModule_exports</title>
<polygon fill="none" stroke="black" points="141,-208 141,-260 321,-260 321,-208 141,-208"/>
</g>
<g id="clust4" class="cluster">
<title>cluster_PromptDialogModule_imports</title>
<polygon fill="none" stroke="black" points="20,-78 20,-130 292,-130 292,-78 20,-78"/>
</g>
<!-- PromptDialogComponent -->
<g id="node1" class="node">
<title>PromptDialogComponent</title>
<polygon fill="#ffffb3" stroke="black" points="468.16,-122 307.84,-122 307.84,-86 468.16,-86 468.16,-122"/>
<text text-anchor="middle" x="388" y="-99.8" font-family="Times,serif" font-size="14.00">PromptDialogComponent</text>
</g>
<!-- PromptDialogModule -->
<g id="node2" class="node">
<title>PromptDialogModule</title>
<polygon fill="#8dd3c7" stroke="black" points="300.38,-187 297.38,-191 276.38,-191 273.38,-187 161.62,-187 161.62,-151 300.38,-151 300.38,-187"/>
<text text-anchor="middle" x="231" y="-164.8" font-family="Times,serif" font-size="14.00">PromptDialogModule</text>
</g>
<!-- PromptDialogComponent&#45;&gt;PromptDialogModule -->
<g id="edge1" class="edge">
<title>PromptDialogComponent&#45;&gt;PromptDialogModule</title>
<path fill="none" stroke="black" d="M307.81,-104C298.62,-104 292.46,-104 292.46,-104 292.46,-104 292.46,-140.89 292.46,-140.89"/>
<polygon fill="black" stroke="black" points="288.96,-140.89 292.46,-150.89 295.96,-140.89 288.96,-140.89"/>
</g>
<!-- PromptDialogComponent  -->
<g id="node5" class="node">
<title>PromptDialogComponent </title>
<polygon fill="#fb8072" stroke="black" points="313.16,-252 148.84,-252 148.84,-216 313.16,-216 313.16,-252"/>
<text text-anchor="middle" x="231" y="-229.8" font-family="Times,serif" font-size="14.00">PromptDialogComponent </text>
</g>
<!-- PromptDialogModule&#45;&gt;PromptDialogComponent  -->
<g id="edge4" class="edge">
<title>PromptDialogModule&#45;&gt;PromptDialogComponent </title>
<path fill="none" stroke="black" stroke-dasharray="5,2" d="M231,-187.11C231,-187.11 231,-205.99 231,-205.99"/>
<polygon fill="black" stroke="black" points="227.5,-205.99 231,-215.99 234.5,-205.99 227.5,-205.99"/>
</g>
<!-- MaterialModule -->
<g id="node3" class="node">
<title>MaterialModule</title>
<polygon fill="#8dd3c7" stroke="black" points="284.47,-122 281.47,-126 260.47,-126 257.47,-122 177.53,-122 177.53,-86 284.47,-86 284.47,-122"/>
<text text-anchor="middle" x="231" y="-99.8" font-family="Times,serif" font-size="14.00">MaterialModule</text>
</g>
<!-- MaterialModule&#45;&gt;PromptDialogModule -->
<g id="edge2" class="edge">
<title>MaterialModule&#45;&gt;PromptDialogModule</title>
<path fill="none" stroke="black" d="M231,-122.11C231,-122.11 231,-140.99 231,-140.99"/>
<polygon fill="black" stroke="black" points="227.5,-140.99 231,-150.99 234.5,-140.99 227.5,-140.99"/>
</g>
<!-- TranslateLibModule -->
<g id="node4" class="node">
<title>TranslateLibModule</title>
<polygon fill="#8dd3c7" stroke="black" points="159.58,-122 156.58,-126 135.58,-126 132.58,-122 28.42,-122 28.42,-86 159.58,-86 159.58,-122"/>
<text text-anchor="middle" x="94" y="-99.8" font-family="Times,serif" font-size="14.00">TranslateLibModule</text>
</g>
<!-- TranslateLibModule&#45;&gt;PromptDialogModule -->
<g id="edge3" class="edge">
<title>TranslateLibModule&#45;&gt;PromptDialogModule</title>
<path fill="none" stroke="black" d="M154.23,-122.11C154.23,-141.34 154.23,-169 154.23,-169 154.23,-169 154.97,-169 154.97,-169"/>
<polygon fill="black" stroke="black" points="151.59,-172.5 161.59,-169 151.59,-165.5 151.59,-172.5"/>
</g>
</g>
</svg>
