<?xml version="1.0" encoding="UTF-8" standalone="no"?>
<!DOCTYPE svg PUBLIC "-//W3C//DTD SVG 1.1//EN"
 "http://www.w3.org/Graphics/SVG/1.1/DTD/svg11.dtd">
<!-- Generated by graphviz version 2.47.0 (20210316.0004)
 -->
<!-- Title: dependencies Pages: 1 -->
<svg width="775pt" height="284pt"
 viewBox="0.00 0.00 775.00 284.00" xmlns="http://www.w3.org/2000/svg" xmlns:xlink="http://www.w3.org/1999/xlink">
<g id="graph0" class="graph" transform="scale(1 1) rotate(0) translate(4 280)">
<title>dependencies</title>
<polygon fill="white" stroke="transparent" points="-4,4 -4,-280 771,-280 771,4 -4,4"/>
<text text-anchor="start" x="362.51" y="-42.4" font-family="Times-12" font-weight="bold" font-size="14.00">Legend</text>
<polygon fill="#ffffb3" stroke="transparent" points="149.5,-10 149.5,-30 169.5,-30 169.5,-10 149.5,-10"/>
<text text-anchor="start" x="173.13" y="-15.4" font-family="Times-12" font-size="14.00"> &#160;Declarations</text>
<polygon fill="#8dd3c7" stroke="transparent" points="262.5,-10 262.5,-30 282.5,-30 282.5,-10 262.5,-10"/>
<text text-anchor="start" x="286.23" y="-15.4" font-family="Times-12" font-size="14.00"> &#160;Module</text>
<polygon fill="#80b1d3" stroke="transparent" points="348.5,-10 348.5,-30 368.5,-30 368.5,-10 348.5,-10"/>
<text text-anchor="start" x="372.28" y="-15.4" font-family="Times-12" font-size="14.00"> &#160;Bootstrap</text>
<polygon fill="#fdb462" stroke="transparent" points="445.5,-10 445.5,-30 465.5,-30 465.5,-10 445.5,-10"/>
<text text-anchor="start" x="469.17" y="-15.4" font-family="Times-12" font-size="14.00"> &#160;Providers</text>
<polygon fill="#fb8072" stroke="transparent" points="541.5,-10 541.5,-30 561.5,-30 561.5,-10 541.5,-10"/>
<text text-anchor="start" x="565.23" y="-15.4" font-family="Times-12" font-size="14.00"> &#160;Exports</text>
<g id="clust1" class="cluster">
<title>cluster_FilterFieldContentModule</title>
<polygon fill="none" stroke="black" stroke-dasharray="1,5" points="8,-70 8,-268 759,-268 759,-70 8,-70"/>
</g>
<g id="clust7" class="cluster">
<title>cluster_FilterFieldContentModule_exports</title>
<polygon fill="none" stroke="black" points="16,-208 16,-260 751,-260 751,-208 16,-208"/>
</g>
<g id="clust2" class="cluster">
<title>cluster_FilterFieldContentModule_declarations</title>
<polygon fill="none" stroke="black" points="21,-78 21,-130 745,-130 745,-78 21,-78"/>
</g>
<!-- FilterFieldTabViewComponent -->
<g id="node1" class="node">
<title>FilterFieldTabViewComponent</title>
<polygon fill="#ffffb3" stroke="black" points="737.03,-122 544.97,-122 544.97,-86 737.03,-86 737.03,-122"/>
<text text-anchor="middle" x="641" y="-99.8" font-family="Times,serif" font-size="14.00">FilterFieldTabViewComponent</text>
</g>
<!-- FilterFieldContentModule -->
<g id="node4" class="node">
<title>FilterFieldContentModule</title>
<polygon fill="#8dd3c7" stroke="black" points="488.49,-187 485.49,-191 464.49,-191 461.49,-187 325.51,-187 325.51,-151 488.49,-151 488.49,-187"/>
<text text-anchor="middle" x="407" y="-164.8" font-family="Times,serif" font-size="14.00">FilterFieldContentModule</text>
</g>
<!-- FilterFieldTabViewComponent&#45;&gt;FilterFieldContentModule -->
<g id="edge1" class="edge">
<title>FilterFieldTabViewComponent&#45;&gt;FilterFieldContentModule</title>
<path fill="none" stroke="black" d="M673.84,-122.02C673.84,-139.37 673.84,-163 673.84,-163 673.84,-163 498.51,-163 498.51,-163"/>
<polygon fill="black" stroke="black" points="498.51,-159.5 488.51,-163 498.51,-166.5 498.51,-159.5"/>
</g>
<!-- FilterFieldTabbedCaseViewComponent -->
<g id="node2" class="node">
<title>FilterFieldTabbedCaseViewComponent</title>
<polygon fill="#ffffb3" stroke="black" points="526.95,-122 287.05,-122 287.05,-86 526.95,-86 526.95,-122"/>
<text text-anchor="middle" x="407" y="-99.8" font-family="Times,serif" font-size="14.00">FilterFieldTabbedCaseViewComponent</text>
</g>
<!-- FilterFieldTabbedCaseViewComponent&#45;&gt;FilterFieldContentModule -->
<g id="edge2" class="edge">
<title>FilterFieldTabbedCaseViewComponent&#45;&gt;FilterFieldContentModule</title>
<path fill="none" stroke="black" d="M407,-122.11C407,-122.11 407,-140.99 407,-140.99"/>
<polygon fill="black" stroke="black" points="403.5,-140.99 407,-150.99 410.5,-140.99 403.5,-140.99"/>
</g>
<!-- FilterFieldTabbedTaskViewComponent -->
<g id="node3" class="node">
<title>FilterFieldTabbedTaskViewComponent</title>
<polygon fill="#ffffb3" stroke="black" points="268.95,-122 29.05,-122 29.05,-86 268.95,-86 268.95,-122"/>
<text text-anchor="middle" x="149" y="-99.8" font-family="Times,serif" font-size="14.00">FilterFieldTabbedTaskViewComponent</text>
</g>
<!-- FilterFieldTabbedTaskViewComponent&#45;&gt;FilterFieldContentModule -->
<g id="edge3" class="edge">
<title>FilterFieldTabbedTaskViewComponent&#45;&gt;FilterFieldContentModule</title>
<path fill="none" stroke="black" d="M188.16,-122.02C188.16,-139.37 188.16,-163 188.16,-163 188.16,-163 315.2,-163 315.2,-163"/>
<polygon fill="black" stroke="black" points="315.2,-166.5 325.2,-163 315.2,-159.5 315.2,-166.5"/>
</g>
<!-- FilterFieldTabViewComponent  -->
<g id="node5" class="node">
<title>FilterFieldTabViewComponent </title>
<polygon fill="#fb8072" stroke="black" points="743.03,-252 546.97,-252 546.97,-216 743.03,-216 743.03,-252"/>
<text text-anchor="middle" x="645" y="-229.8" font-family="Times,serif" font-size="14.00">FilterFieldTabViewComponent </text>
</g>
<!-- FilterFieldContentModule&#45;&gt;FilterFieldTabViewComponent  -->
<g id="edge4" class="edge">
<title>FilterFieldContentModule&#45;&gt;FilterFieldTabViewComponent </title>
<path fill="none" stroke="black" stroke-dasharray="5,2" d="M488.56,-175C545.15,-175 610.41,-175 610.41,-175 610.41,-175 610.41,-205.98 610.41,-205.98"/>
<polygon fill="black" stroke="black" points="606.91,-205.98 610.41,-215.98 613.91,-205.98 606.91,-205.98"/>
</g>
<!-- FilterFieldTabbedCaseViewComponent  -->
<g id="node6" class="node">
<title>FilterFieldTabbedCaseViewComponent </title>
<polygon fill="#fb8072" stroke="black" points="528.95,-252 285.05,-252 285.05,-216 528.95,-216 528.95,-252"/>
<text text-anchor="middle" x="407" y="-229.8" font-family="Times,serif" font-size="14.00">FilterFieldTabbedCaseViewComponent </text>
</g>
<!-- FilterFieldContentModule&#45;&gt;FilterFieldTabbedCaseViewComponent  -->
<g id="edge5" class="edge">
<title>FilterFieldContentModule&#45;&gt;FilterFieldTabbedCaseViewComponent </title>
<path fill="none" stroke="black" stroke-dasharray="5,2" d="M407,-187.11C407,-187.11 407,-205.99 407,-205.99"/>
<polygon fill="black" stroke="black" points="403.5,-205.99 407,-215.99 410.5,-205.99 403.5,-205.99"/>
</g>
<!-- FilterFieldTabbedTaskViewComponent  -->
<g id="node7" class="node">
<title>FilterFieldTabbedTaskViewComponent </title>
<polygon fill="#fb8072" stroke="black" points="267.95,-252 24.05,-252 24.05,-216 267.95,-216 267.95,-252"/>
<text text-anchor="middle" x="146" y="-229.8" font-family="Times,serif" font-size="14.00">FilterFieldTabbedTaskViewComponent </text>
</g>
<!-- FilterFieldContentModule&#45;&gt;FilterFieldTabbedTaskViewComponent  -->
<g id="edge6" class="edge">
<title>FilterFieldContentModule&#45;&gt;FilterFieldTabbedTaskViewComponent </title>
<path fill="none" stroke="black" stroke-dasharray="5,2" d="M325.46,-175C237.11,-175 108.59,-175 108.59,-175 108.59,-175 108.59,-205.98 108.59,-205.98"/>
<polygon fill="black" stroke="black" points="105.09,-205.98 108.59,-215.98 112.09,-205.98 105.09,-205.98"/>
</g>
</g>
</svg>
