<?xml version="1.0" encoding="UTF-8" standalone="no"?>
<!DOCTYPE svg PUBLIC "-//W3C//DTD SVG 1.1//EN"
 "http://www.w3.org/Graphics/SVG/1.1/DTD/svg11.dtd">
<!-- Generated by graphviz version 3.0.0 (20220226.1711)
 -->
<!-- Title: dependencies Pages: 1 -->
<svg width="352pt" height="247pt"
 viewBox="0.00 0.00 352.00 246.80" xmlns="http://www.w3.org/2000/svg" xmlns:xlink="http://www.w3.org/1999/xlink">
<g id="graph0" class="graph" transform="scale(1 1) rotate(0) translate(4 242.8)">
<title>dependencies</title>
<polygon fill="white" stroke="transparent" points="-4,4 -4,-242.8 348,-242.8 348,4 -4,4"/>
<text text-anchor="middle" x="172" y="-8.2" font-family="sans-serif" font-size="14.00">dependencies</text>
<g id="clust1" class="cluster">
<title>cluster_ConfirmDialogModule</title>
<polygon fill="none" stroke="black" stroke-dasharray="1,5" points="8,-32.8 8,-230.8 336,-230.8 336,-32.8 8,-32.8"/>
</g>
<g id="clust4" class="cluster">
<title>cluster_ConfirmDialogModule_imports</title>
<polygon fill="none" stroke="black" points="206,-40.8 206,-92.8 328,-92.8 328,-40.8 206,-40.8"/>
</g>
<g id="clust5" class="cluster">
<title>cluster_ConfirmDialogModule_exports</title>
<polygon fill="none" stroke="black" points="79,-170.8 79,-222.8 265,-222.8 265,-170.8 79,-170.8"/>
</g>
<g id="clust2" class="cluster">
<title>cluster_ConfirmDialogModule_declarations</title>
<polygon fill="none" stroke="black" points="16,-40.8 16,-92.8 198,-92.8 198,-40.8 16,-40.8"/>
</g>
<!-- ConfirmDialogComponent -->
<g id="node1" class="node">
<title>ConfirmDialogComponent</title>
<polygon fill="#ffffb3" stroke="black" points="190.38,-84.8 23.62,-84.8 23.62,-48.8 190.38,-48.8 190.38,-84.8"/>
<text text-anchor="middle" x="107" y="-62.6" font-family="Times,serif" font-size="14.00">ConfirmDialogComponent</text>
</g>
<!-- ConfirmDialogModule -->
<g id="node2" class="node">
<title>ConfirmDialogModule</title>
<polygon fill="#8dd3c7" stroke="black" points="244.6,-149.8 241.6,-153.8 220.6,-153.8 217.6,-149.8 99.4,-149.8 99.4,-113.8 244.6,-113.8 244.6,-149.8"/>
<text text-anchor="middle" x="172" y="-127.6" font-family="Times,serif" font-size="14.00">ConfirmDialogModule</text>
</g>
<!-- ConfirmDialogComponent&#45;&gt;ConfirmDialogModule -->
<g id="edge1" class="edge">
<title>ConfirmDialogComponent&#45;&gt;ConfirmDialogModule</title>
<path fill="none" stroke="black" d="M144.94,-84.91C144.94,-84.91 144.94,-103.79 144.94,-103.79"/>
<polygon fill="black" stroke="black" points="141.44,-103.79 144.94,-113.79 148.44,-103.79 141.44,-103.79"/>
</g>
<!-- ConfirmDialogComponent  -->
<g id="node4" class="node">
<title>ConfirmDialogComponent </title>
<polygon fill="#fb8072" stroke="black" points="257.38,-214.8 86.62,-214.8 86.62,-178.8 257.38,-178.8 257.38,-214.8"/>
<text text-anchor="middle" x="172" y="-192.6" font-family="Times,serif" font-size="14.00">ConfirmDialogComponent </text>
</g>
<!-- ConfirmDialogModule&#45;&gt;ConfirmDialogComponent  -->
<g id="edge3" class="edge">
<title>ConfirmDialogModule&#45;&gt;ConfirmDialogComponent </title>
<path fill="none" stroke="black" stroke-dasharray="5,2" d="M172,-149.91C172,-149.91 172,-168.79 172,-168.79"/>
<polygon fill="black" stroke="black" points="168.5,-168.79 172,-178.79 175.5,-168.79 168.5,-168.79"/>
</g>
<!-- MaterialModule -->
<g id="node3" class="node">
<title>MaterialModule</title>
<polygon fill="#8dd3c7" stroke="black" points="320.47,-84.8 317.47,-88.8 296.47,-88.8 293.47,-84.8 213.53,-84.8 213.53,-48.8 320.47,-48.8 320.47,-84.8"/>
<text text-anchor="middle" x="267" y="-62.6" font-family="Times,serif" font-size="14.00">MaterialModule</text>
</g>
<!-- MaterialModule&#45;&gt;ConfirmDialogModule -->
<g id="edge2" class="edge">
<title>MaterialModule&#45;&gt;ConfirmDialogModule</title>
<path fill="none" stroke="black" d="M229.03,-84.91C229.03,-84.91 229.03,-103.79 229.03,-103.79"/>
<polygon fill="black" stroke="black" points="225.53,-103.79 229.03,-113.79 232.53,-103.79 225.53,-103.79"/>
</g>
</g>
</svg>
