<?xml version="1.0" encoding="UTF-8" standalone="no"?>
<!DOCTYPE svg PUBLIC "-//W3C//DTD SVG 1.1//EN"
 "http://www.w3.org/Graphics/SVG/1.1/DTD/svg11.dtd">
<!-- Generated by graphviz version 2.47.0 (20210316.0004)
 -->
<!-- Title: dependencies Pages: 1 -->
<svg width="504pt" height="284pt"
 viewBox="0.00 0.00 504.00 284.00" xmlns="http://www.w3.org/2000/svg" xmlns:xlink="http://www.w3.org/1999/xlink">
<g id="graph0" class="graph" transform="scale(1 1) rotate(0) translate(4 280)">
<title>dependencies</title>
<polygon fill="white" stroke="transparent" points="-4,4 -4,-280 500,-280 500,4 -4,4"/>
<text text-anchor="start" x="227.01" y="-42.4" font-family="Times-12" font-weight="bold" font-size="14.00">Legend</text>
<polygon fill="#ffffb3" stroke="transparent" points="14,-10 14,-30 34,-30 34,-10 14,-10"/>
<text text-anchor="start" x="37.63" y="-15.4" font-family="Times-12" font-size="14.00"> &#160;Declarations</text>
<polygon fill="#8dd3c7" stroke="transparent" points="127,-10 127,-30 147,-30 147,-10 127,-10"/>
<text text-anchor="start" x="150.73" y="-15.4" font-family="Times-12" font-size="14.00"> &#160;Module</text>
<polygon fill="#80b1d3" stroke="transparent" points="213,-10 213,-30 233,-30 233,-10 213,-10"/>
<text text-anchor="start" x="236.78" y="-15.4" font-family="Times-12" font-size="14.00"> &#160;Bootstrap</text>
<polygon fill="#fdb462" stroke="transparent" points="310,-10 310,-30 330,-30 330,-10 310,-10"/>
<text text-anchor="start" x="333.67" y="-15.4" font-family="Times-12" font-size="14.00"> &#160;Providers</text>
<polygon fill="#fb8072" stroke="transparent" points="406,-10 406,-30 426,-30 426,-10 406,-10"/>
<text text-anchor="start" x="429.73" y="-15.4" font-family="Times-12" font-size="14.00"> &#160;Exports</text>
<g id="clust1" class="cluster">
<title>cluster_ConfirmDialogModule</title>
<polygon fill="none" stroke="black" stroke-dasharray="1,5" points="84,-70 84,-268 412,-268 412,-70 84,-70"/>
</g>
<g id="clust5" class="cluster">
<title>cluster_ConfirmDialogModule_exports</title>
<polygon fill="none" stroke="black" points="155,-208 155,-260 341,-260 341,-208 155,-208"/>
</g>
<g id="clust4" class="cluster">
<title>cluster_ConfirmDialogModule_imports</title>
<polygon fill="none" stroke="black" points="282,-78 282,-130 404,-130 404,-78 282,-78"/>
</g>
<g id="clust2" class="cluster">
<title>cluster_ConfirmDialogModule_declarations</title>
<polygon fill="none" stroke="black" points="92,-78 92,-130 274,-130 274,-78 92,-78"/>
</g>
<!-- ConfirmDialogComponent -->
<g id="node1" class="node">
<title>ConfirmDialogComponent</title>
<polygon fill="#ffffb3" stroke="black" points="266.37,-122 99.63,-122 99.63,-86 266.37,-86 266.37,-122"/>
<text text-anchor="middle" x="183" y="-99.8" font-family="Times,serif" font-size="14.00">ConfirmDialogComponent</text>
</g>
<!-- ConfirmDialogModule -->
<g id="node2" class="node">
<title>ConfirmDialogModule</title>
<polygon fill="#8dd3c7" stroke="black" points="320.59,-187 317.59,-191 296.59,-191 293.59,-187 175.41,-187 175.41,-151 320.59,-151 320.59,-187"/>
<text text-anchor="middle" x="248" y="-164.8" font-family="Times,serif" font-size="14.00">ConfirmDialogModule</text>
</g>
<!-- ConfirmDialogComponent&#45;&gt;ConfirmDialogModule -->
<g id="edge1" class="edge">
<title>ConfirmDialogComponent&#45;&gt;ConfirmDialogModule</title>
<path fill="none" stroke="black" d="M220.95,-122.11C220.95,-122.11 220.95,-140.99 220.95,-140.99"/>
<polygon fill="black" stroke="black" points="217.45,-140.99 220.95,-150.99 224.45,-140.99 217.45,-140.99"/>
</g>
<!-- ConfirmDialogComponent  -->
<g id="node4" class="node">
<title>ConfirmDialogComponent </title>
<polygon fill="#fb8072" stroke="black" points="333.37,-252 162.63,-252 162.63,-216 333.37,-216 333.37,-252"/>
<text text-anchor="middle" x="248" y="-229.8" font-family="Times,serif" font-size="14.00">ConfirmDialogComponent </text>
</g>
<!-- ConfirmDialogModule&#45;&gt;ConfirmDialogComponent  -->
<g id="edge3" class="edge">
<title>ConfirmDialogModule&#45;&gt;ConfirmDialogComponent </title>
<path fill="none" stroke="black" stroke-dasharray="5,2" d="M248,-187.11C248,-187.11 248,-205.99 248,-205.99"/>
<polygon fill="black" stroke="black" points="244.5,-205.99 248,-215.99 251.5,-205.99 244.5,-205.99"/>
</g>
<!-- MaterialModule -->
<g id="node3" class="node">
<title>MaterialModule</title>
<polygon fill="#8dd3c7" stroke="black" points="396.47,-122 393.47,-126 372.47,-126 369.47,-122 289.53,-122 289.53,-86 396.47,-86 396.47,-122"/>
<text text-anchor="middle" x="343" y="-99.8" font-family="Times,serif" font-size="14.00">MaterialModule</text>
</g>
<!-- MaterialModule&#45;&gt;ConfirmDialogModule -->
<g id="edge2" class="edge">
<title>MaterialModule&#45;&gt;ConfirmDialogModule</title>
<path fill="none" stroke="black" d="M305.03,-122.11C305.03,-122.11 305.03,-140.99 305.03,-140.99"/>
<polygon fill="black" stroke="black" points="301.53,-140.99 305.03,-150.99 308.53,-140.99 301.53,-140.99"/>
</g>
</g>
</svg>
