<?xml version="1.0" encoding="UTF-8" standalone="no"?>
<!DOCTYPE svg PUBLIC "-//W3C//DTD SVG 1.1//EN"
 "http://www.w3.org/Graphics/SVG/1.1/DTD/svg11.dtd">
<!-- Generated by graphviz version 3.0.0 (20220226.1711)
 -->
<!-- Title: dependencies Pages: 1 -->
<svg width="388pt" height="247pt"
 viewBox="0.00 0.00 388.00 246.80" xmlns="http://www.w3.org/2000/svg" xmlns:xlink="http://www.w3.org/1999/xlink">
<g id="graph0" class="graph" transform="scale(1 1) rotate(0) translate(4 242.8)">
<title>dependencies</title>
<polygon fill="white" stroke="transparent" points="-4,4 -4,-242.8 384,-242.8 384,4 -4,4"/>
<text text-anchor="middle" x="190" y="-8.2" font-family="sans-serif" font-size="14.00">dependencies</text>
<g id="clust1" class="cluster">
<title>cluster_RegistrationFormComponentModule</title>
<polygon fill="none" stroke="black" stroke-dasharray="1,5" points="8,-32.8 8,-230.8 372,-230.8 372,-32.8 8,-32.8"/>
</g>
<g id="clust4" class="cluster">
<title>cluster_RegistrationFormComponentModule_imports</title>
<polygon fill="none" stroke="black" points="220,-40.8 220,-92.8 364,-92.8 364,-40.8 220,-40.8"/>
</g>
<g id="clust5" class="cluster">
<title>cluster_RegistrationFormComponentModule_exports</title>
<polygon fill="none" stroke="black" points="90,-170.8 90,-222.8 290,-222.8 290,-170.8 90,-170.8"/>
</g>
<g id="clust2" class="cluster">
<title>cluster_RegistrationFormComponentModule_declarations</title>
<polygon fill="none" stroke="black" points="16,-40.8 16,-92.8 212,-92.8 212,-40.8 16,-40.8"/>
</g>
<!-- RegistrationFormComponent -->
<g id="node1" class="node">
<title>RegistrationFormComponent</title>
<polygon fill="#ffffb3" stroke="black" points="204.1,-84.8 23.9,-84.8 23.9,-48.8 204.1,-48.8 204.1,-84.8"/>
<text text-anchor="middle" x="114" y="-62.6" font-family="Times,serif" font-size="14.00">RegistrationFormComponent</text>
</g>
<!-- RegistrationFormComponentModule -->
<g id="node2" class="node">
<title>RegistrationFormComponentModule</title>
<polygon fill="#8dd3c7" stroke="black" points="301.66,-149.8 298.66,-153.8 277.66,-153.8 274.66,-149.8 78.34,-149.8 78.34,-113.8 301.66,-113.8 301.66,-149.8"/>
<text text-anchor="middle" x="190" y="-127.6" font-family="Times,serif" font-size="14.00">RegistrationFormComponentModule</text>
</g>
<!-- RegistrationFormComponent&#45;&gt;RegistrationFormComponentModule -->
<g id="edge1" class="edge">
<title>RegistrationFormComponent&#45;&gt;RegistrationFormComponentModule</title>
<path fill="none" stroke="black" d="M141.11,-84.91C141.11,-84.91 141.11,-103.79 141.11,-103.79"/>
<polygon fill="black" stroke="black" points="137.61,-103.79 141.11,-113.79 144.61,-103.79 137.61,-103.79"/>
</g>
<!-- RegistrationFormComponent  -->
<g id="node4" class="node">
<title>RegistrationFormComponent </title>
<polygon fill="#fb8072" stroke="black" points="281.6,-214.8 98.4,-214.8 98.4,-178.8 281.6,-178.8 281.6,-214.8"/>
<text text-anchor="middle" x="190" y="-192.6" font-family="Times,serif" font-size="14.00">RegistrationFormComponent </text>
</g>
<!-- RegistrationFormComponentModule&#45;&gt;RegistrationFormComponent  -->
<g id="edge3" class="edge">
<title>RegistrationFormComponentModule&#45;&gt;RegistrationFormComponent </title>
<path fill="none" stroke="black" stroke-dasharray="5,2" d="M190,-149.91C190,-149.91 190,-168.79 190,-168.79"/>
<polygon fill="black" stroke="black" points="186.5,-168.79 190,-178.79 193.5,-168.79 186.5,-168.79"/>
</g>
<!-- LegalNoticeModule -->
<g id="node3" class="node">
<title>LegalNoticeModule</title>
<polygon fill="#8dd3c7" stroke="black" points="356.24,-84.8 353.24,-88.8 332.24,-88.8 329.24,-84.8 227.76,-84.8 227.76,-48.8 356.24,-48.8 356.24,-84.8"/>
<text text-anchor="middle" x="292" y="-62.6" font-family="Times,serif" font-size="14.00">LegalNoticeModule</text>
</g>
<!-- LegalNoticeModule&#45;&gt;RegistrationFormComponentModule -->
<g id="edge2" class="edge">
<title>LegalNoticeModule&#45;&gt;RegistrationFormComponentModule</title>
<path fill="none" stroke="black" d="M264.73,-84.91C264.73,-84.91 264.73,-103.79 264.73,-103.79"/>
<polygon fill="black" stroke="black" points="261.23,-103.79 264.73,-113.79 268.23,-103.79 261.23,-103.79"/>
</g>
</g>
</svg>
