<?xml version="1.0" encoding="UTF-8" standalone="no"?>
<!DOCTYPE svg PUBLIC "-//W3C//DTD SVG 1.1//EN"
 "http://www.w3.org/Graphics/SVG/1.1/DTD/svg11.dtd">
<!-- Generated by graphviz version 2.47.0 (20210316.0004)
 -->
<!-- Title: dependencies Pages: 1 -->
<svg width="504pt" height="284pt"
 viewBox="0.00 0.00 504.00 284.00" xmlns="http://www.w3.org/2000/svg" xmlns:xlink="http://www.w3.org/1999/xlink">
<g id="graph0" class="graph" transform="scale(1 1) rotate(0) translate(4 280)">
<title>dependencies</title>
<polygon fill="white" stroke="transparent" points="-4,4 -4,-280 500,-280 500,4 -4,4"/>
<text text-anchor="start" x="227.01" y="-42.4" font-family="Times-12" font-weight="bold" font-size="14.00">Legend</text>
<polygon fill="#ffffb3" stroke="transparent" points="14,-10 14,-30 34,-30 34,-10 14,-10"/>
<text text-anchor="start" x="37.63" y="-15.4" font-family="Times-12" font-size="14.00"> &#160;Declarations</text>
<polygon fill="#8dd3c7" stroke="transparent" points="127,-10 127,-30 147,-30 147,-10 127,-10"/>
<text text-anchor="start" x="150.73" y="-15.4" font-family="Times-12" font-size="14.00"> &#160;Module</text>
<polygon fill="#80b1d3" stroke="transparent" points="213,-10 213,-30 233,-30 233,-10 213,-10"/>
<text text-anchor="start" x="236.78" y="-15.4" font-family="Times-12" font-size="14.00"> &#160;Bootstrap</text>
<polygon fill="#fdb462" stroke="transparent" points="310,-10 310,-30 330,-30 330,-10 310,-10"/>
<text text-anchor="start" x="333.67" y="-15.4" font-family="Times-12" font-size="14.00"> &#160;Providers</text>
<polygon fill="#fb8072" stroke="transparent" points="406,-10 406,-30 426,-30 426,-10 406,-10"/>
<text text-anchor="start" x="429.73" y="-15.4" font-family="Times-12" font-size="14.00"> &#160;Exports</text>
<g id="clust1" class="cluster">
<title>cluster_RegistrationFormComponentModule</title>
<polygon fill="none" stroke="black" stroke-dasharray="1,5" points="66,-70 66,-268 430,-268 430,-70 66,-70"/>
</g>
<g id="clust5" class="cluster">
<title>cluster_RegistrationFormComponentModule_exports</title>
<polygon fill="none" stroke="black" points="148,-208 148,-260 348,-260 348,-208 148,-208"/>
</g>
<g id="clust2" class="cluster">
<title>cluster_RegistrationFormComponentModule_declarations</title>
<polygon fill="none" stroke="black" points="226,-78 226,-130 422,-130 422,-78 226,-78"/>
</g>
<g id="clust4" class="cluster">
<title>cluster_RegistrationFormComponentModule_imports</title>
<polygon fill="none" stroke="black" points="74,-78 74,-130 218,-130 218,-78 74,-78"/>
</g>
<!-- RegistrationFormComponent -->
<g id="node1" class="node">
<title>RegistrationFormComponent</title>
<polygon fill="#ffffb3" stroke="black" points="414.1,-122 233.9,-122 233.9,-86 414.1,-86 414.1,-122"/>
<text text-anchor="middle" x="324" y="-99.8" font-family="Times,serif" font-size="14.00">RegistrationFormComponent</text>
</g>
<!-- RegistrationFormComponentModule -->
<g id="node2" class="node">
<title>RegistrationFormComponentModule</title>
<polygon fill="#8dd3c7" stroke="black" points="359.65,-187 356.65,-191 335.65,-191 332.65,-187 136.35,-187 136.35,-151 359.65,-151 359.65,-187"/>
<text text-anchor="middle" x="248" y="-164.8" font-family="Times,serif" font-size="14.00">RegistrationFormComponentModule</text>
</g>
<!-- RegistrationFormComponent&#45;&gt;RegistrationFormComponentModule -->
<g id="edge1" class="edge">
<title>RegistrationFormComponent&#45;&gt;RegistrationFormComponentModule</title>
<path fill="none" stroke="black" d="M296.89,-122.11C296.89,-122.11 296.89,-140.99 296.89,-140.99"/>
<polygon fill="black" stroke="black" points="293.39,-140.99 296.89,-150.99 300.39,-140.99 293.39,-140.99"/>
</g>
<!-- RegistrationFormComponent  -->
<g id="node4" class="node">
<title>RegistrationFormComponent </title>
<polygon fill="#fb8072" stroke="black" points="339.6,-252 156.4,-252 156.4,-216 339.6,-216 339.6,-252"/>
<text text-anchor="middle" x="248" y="-229.8" font-family="Times,serif" font-size="14.00">RegistrationFormComponent </text>
</g>
<!-- RegistrationFormComponentModule&#45;&gt;RegistrationFormComponent  -->
<g id="edge3" class="edge">
<title>RegistrationFormComponentModule&#45;&gt;RegistrationFormComponent </title>
<path fill="none" stroke="black" stroke-dasharray="5,2" d="M248,-187.11C248,-187.11 248,-205.99 248,-205.99"/>
<polygon fill="black" stroke="black" points="244.5,-205.99 248,-215.99 251.5,-205.99 244.5,-205.99"/>
</g>
<!-- LegalNoticeModule -->
<g id="node3" class="node">
<title>LegalNoticeModule</title>
<polygon fill="#8dd3c7" stroke="black" points="210.24,-122 207.24,-126 186.24,-126 183.24,-122 81.76,-122 81.76,-86 210.24,-86 210.24,-122"/>
<text text-anchor="middle" x="146" y="-99.8" font-family="Times,serif" font-size="14.00">LegalNoticeModule</text>
</g>
<!-- LegalNoticeModule&#45;&gt;RegistrationFormComponentModule -->
<g id="edge2" class="edge">
<title>LegalNoticeModule&#45;&gt;RegistrationFormComponentModule</title>
<path fill="none" stroke="black" d="M173.27,-122.11C173.27,-122.11 173.27,-140.99 173.27,-140.99"/>
<polygon fill="black" stroke="black" points="169.77,-140.99 173.27,-150.99 176.77,-140.99 169.77,-140.99"/>
</g>
</g>
</svg>
