<?xml version="1.0" encoding="UTF-8" standalone="no"?>
<!DOCTYPE svg PUBLIC "-//W3C//DTD SVG 1.1//EN"
 "http://www.w3.org/Graphics/SVG/1.1/DTD/svg11.dtd">
<!-- Generated by graphviz version 2.47.0 (20210316.0004)
 -->
<!-- Title: dependencies Pages: 1 -->
<svg width="504pt" height="284pt"
 viewBox="0.00 0.00 504.00 284.00" xmlns="http://www.w3.org/2000/svg" xmlns:xlink="http://www.w3.org/1999/xlink">
<g id="graph0" class="graph" transform="scale(1 1) rotate(0) translate(4 280)">
<title>dependencies</title>
<polygon fill="white" stroke="transparent" points="-4,4 -4,-280 500,-280 500,4 -4,4"/>
<text text-anchor="start" x="227.01" y="-42.4" font-family="Times-12" font-weight="bold" font-size="14.00">Legend</text>
<polygon fill="#ffffb3" stroke="transparent" points="14,-10 14,-30 34,-30 34,-10 14,-10"/>
<text text-anchor="start" x="37.63" y="-15.4" font-family="Times-12" font-size="14.00"> &#160;Declarations</text>
<polygon fill="#8dd3c7" stroke="transparent" points="127,-10 127,-30 147,-30 147,-10 127,-10"/>
<text text-anchor="start" x="150.73" y="-15.4" font-family="Times-12" font-size="14.00"> &#160;Module</text>
<polygon fill="#80b1d3" stroke="transparent" points="213,-10 213,-30 233,-30 233,-10 213,-10"/>
<text text-anchor="start" x="236.78" y="-15.4" font-family="Times-12" font-size="14.00"> &#160;Bootstrap</text>
<polygon fill="#fdb462" stroke="transparent" points="310,-10 310,-30 330,-30 330,-10 310,-10"/>
<text text-anchor="start" x="333.67" y="-15.4" font-family="Times-12" font-size="14.00"> &#160;Providers</text>
<polygon fill="#fb8072" stroke="transparent" points="406,-10 406,-30 426,-30 426,-10 406,-10"/>
<text text-anchor="start" x="429.73" y="-15.4" font-family="Times-12" font-size="14.00"> &#160;Exports</text>
<g id="clust1" class="cluster">
<title>cluster_UtilityModule</title>
<polygon fill="none" stroke="black" stroke-dasharray="1,5" points="9,-70 9,-268 487,-268 487,-70 9,-70"/>
</g>
<g id="clust8" class="cluster">
<title>cluster_UtilityModule_exports</title>
<polygon fill="none" stroke="black" points="17,-208 17,-260 479,-260 479,-208 17,-208"/>
</g>
<g id="clust2" class="cluster">
<title>cluster_UtilityModule_declarations</title>
<polygon fill="none" stroke="black" points="26,-78 26,-130 473,-130 473,-78 26,-78"/>
</g>
<!-- ContainsPipe -->
<g id="node1" class="node">
<title>ContainsPipe</title>
<polygon fill="#ffffb3" stroke="black" points="465.17,-122 374.83,-122 374.83,-86 465.17,-86 465.17,-122"/>
<text text-anchor="middle" x="420" y="-99.8" font-family="Times,serif" font-size="14.00">ContainsPipe</text>
</g>
<!-- UtilityModule -->
<g id="node5" class="node">
<title>UtilityModule</title>
<polygon fill="#8dd3c7" stroke="black" points="245.11,-187 242.11,-191 221.11,-191 218.11,-187 148.89,-187 148.89,-151 245.11,-151 245.11,-187"/>
<text text-anchor="middle" x="197" y="-164.8" font-family="Times,serif" font-size="14.00">UtilityModule</text>
</g>
<!-- ContainsPipe&#45;&gt;UtilityModule -->
<g id="edge1" class="edge">
<title>ContainsPipe&#45;&gt;UtilityModule</title>
<path fill="none" stroke="black" d="M435.86,-122.27C435.86,-140.56 435.86,-166 435.86,-166 435.86,-166 255.34,-166 255.34,-166"/>
<polygon fill="black" stroke="black" points="255.34,-162.5 245.34,-166 255.34,-169.5 255.34,-162.5"/>
</g>
<!-- IsEmptyPipe -->
<g id="node2" class="node">
<title>IsEmptyPipe</title>
<polygon fill="#ffffb3" stroke="black" points="357.33,-122 268.67,-122 268.67,-86 357.33,-86 357.33,-122"/>
<text text-anchor="middle" x="313" y="-99.8" font-family="Times,serif" font-size="14.00">IsEmptyPipe</text>
</g>
<!-- IsEmptyPipe&#45;&gt;UtilityModule -->
<g id="edge2" class="edge">
<title>IsEmptyPipe&#45;&gt;UtilityModule</title>
<path fill="none" stroke="black" d="M327.72,-122.01C327.72,-138.05 327.72,-159 327.72,-159 327.72,-159 255.3,-159 255.3,-159"/>
<polygon fill="black" stroke="black" points="255.3,-155.5 245.3,-159 255.3,-162.5 255.3,-155.5"/>
</g>
<!-- IsNonEmptyPipe -->
<g id="node3" class="node">
<title>IsNonEmptyPipe</title>
<polygon fill="#ffffb3" stroke="black" points="251.43,-122 138.57,-122 138.57,-86 251.43,-86 251.43,-122"/>
<text text-anchor="middle" x="195" y="-99.8" font-family="Times,serif" font-size="14.00">IsNonEmptyPipe</text>
</g>
<!-- IsNonEmptyPipe&#45;&gt;UtilityModule -->
<g id="edge3" class="edge">
<title>IsNonEmptyPipe&#45;&gt;UtilityModule</title>
<path fill="none" stroke="black" d="M197,-122.11C197,-122.11 197,-140.99 197,-140.99"/>
<polygon fill="black" stroke="black" points="193.5,-140.99 197,-150.99 200.5,-140.99 193.5,-140.99"/>
</g>
<!-- LetDirective -->
<g id="node4" class="node">
<title>LetDirective</title>
<polygon fill="#ffffb3" stroke="black" points="120.24,-122 33.76,-122 33.76,-86 120.24,-86 120.24,-122"/>
<text text-anchor="middle" x="77" y="-99.8" font-family="Times,serif" font-size="14.00">LetDirective</text>
</g>
<!-- LetDirective&#45;&gt;UtilityModule -->
<g id="edge4" class="edge">
<title>LetDirective&#45;&gt;UtilityModule</title>
<path fill="none" stroke="black" d="M87.96,-122.02C87.96,-139.37 87.96,-163 87.96,-163 87.96,-163 138.85,-163 138.85,-163"/>
<polygon fill="black" stroke="black" points="138.85,-166.5 148.85,-163 138.85,-159.5 138.85,-166.5"/>
</g>
<!-- ContainsPipe  -->
<g id="node6" class="node">
<title>ContainsPipe </title>
<polygon fill="#fb8072" stroke="black" points="471.16,-252 376.84,-252 376.84,-216 471.16,-216 471.16,-252"/>
<text text-anchor="middle" x="424" y="-229.8" font-family="Times,serif" font-size="14.00">ContainsPipe </text>
</g>
<!-- UtilityModule&#45;&gt;ContainsPipe  -->
<g id="edge5" class="edge">
<title>UtilityModule&#45;&gt;ContainsPipe </title>
<path fill="none" stroke="black" stroke-dasharray="5,2" d="M245.3,-173C307.14,-173 406.39,-173 406.39,-173 406.39,-173 406.39,-205.7 406.39,-205.7"/>
<polygon fill="black" stroke="black" points="402.89,-205.7 406.39,-215.7 409.89,-205.7 402.89,-205.7"/>
</g>
<!-- IsEmptyPipe  -->
<g id="node7" class="node">
<title>IsEmptyPipe </title>
<polygon fill="#fb8072" stroke="black" points="358.83,-252 267.17,-252 267.17,-216 358.83,-216 358.83,-252"/>
<text text-anchor="middle" x="313" y="-229.8" font-family="Times,serif" font-size="14.00">IsEmptyPipe </text>
</g>
<!-- UtilityModule&#45;&gt;IsEmptyPipe  -->
<g id="edge6" class="edge">
<title>UtilityModule&#45;&gt;IsEmptyPipe </title>
<path fill="none" stroke="black" stroke-dasharray="5,2" d="M245.27,-180C271.35,-180 298.28,-180 298.28,-180 298.28,-180 298.28,-205.72 298.28,-205.72"/>
<polygon fill="black" stroke="black" points="294.78,-205.72 298.28,-215.72 301.78,-205.72 294.78,-205.72"/>
</g>
<!-- IsNonEmptyPipe  -->
<g id="node8" class="node">
<title>IsNonEmptyPipe </title>
<polygon fill="#fb8072" stroke="black" points="248.93,-252 133.07,-252 133.07,-216 248.93,-216 248.93,-252"/>
<text text-anchor="middle" x="191" y="-229.8" font-family="Times,serif" font-size="14.00">IsNonEmptyPipe </text>
</g>
<!-- UtilityModule&#45;&gt;IsNonEmptyPipe  -->
<g id="edge7" class="edge">
<title>UtilityModule&#45;&gt;IsNonEmptyPipe </title>
<path fill="none" stroke="black" stroke-dasharray="5,2" d="M197,-187.11C197,-187.11 197,-205.99 197,-205.99"/>
<polygon fill="black" stroke="black" points="193.5,-205.99 197,-215.99 200.5,-205.99 193.5,-205.99"/>
</g>
<!-- LetDirective  -->
<g id="node9" class="node">
<title>LetDirective </title>
<polygon fill="#fb8072" stroke="black" points="115.24,-252 24.76,-252 24.76,-216 115.24,-216 115.24,-252"/>
<text text-anchor="middle" x="70" y="-229.8" font-family="Times,serif" font-size="14.00">LetDirective </text>
</g>
<!-- UtilityModule&#45;&gt;LetDirective  -->
<g id="edge8" class="edge">
<title>UtilityModule&#45;&gt;LetDirective </title>
<path fill="none" stroke="black" stroke-dasharray="5,2" d="M148.6,-175C109.45,-175 60.79,-175 60.79,-175 60.79,-175 60.79,-205.98 60.79,-205.98"/>
<polygon fill="black" stroke="black" points="57.29,-205.98 60.79,-215.98 64.29,-205.98 57.29,-205.98"/>
</g>
</g>
</svg>
