<?xml version="1.0" encoding="UTF-8" standalone="no"?>
<!DOCTYPE svg PUBLIC "-//W3C//DTD SVG 1.1//EN"
 "http://www.w3.org/Graphics/SVG/1.1/DTD/svg11.dtd">
<!-- Generated by graphviz version 5.0.0 (20220707.1540)
 -->
<!-- Title: dependencies Pages: 1 -->
<svg width="612pt" height="174pt"
 viewBox="0.00 0.00 612.00 173.80" xmlns="http://www.w3.org/2000/svg" xmlns:xlink="http://www.w3.org/1999/xlink">
<g id="graph0" class="graph" transform="scale(1 1) rotate(0) translate(4 169.8)">
<title>dependencies</title>
<polygon fill="white" stroke="transparent" points="-4,4 -4,-169.8 608,-169.8 608,4 -4,4"/>
<text text-anchor="middle" x="302" y="-8.2" font-family="sans-serif" font-size="14.00">dependencies</text>
<g id="clust1" class="cluster">
<title>cluster_AuthenticationModule</title>
<polygon fill="none" stroke="black" stroke-dasharray="1,5" points="8,-32.8 8,-157.8 596,-157.8 596,-32.8 8,-32.8"/>
</g>
<g id="clust6" class="cluster">
<title>cluster_AuthenticationModule_providers</title>
<polygon fill="none" stroke="black" points="16,-40.8 16,-92.8 588,-92.8 588,-40.8 16,-40.8"/>
</g>
<!-- AnonymousAuthenticationInterceptor -->
<g id="node1" class="node">
<title>AnonymousAuthenticationInterceptor</title>
<ellipse fill="#fdb462" stroke="black" cx="422" cy="-66.8" rx="158" ry="18"/>
<text text-anchor="middle" x="422" y="-62.6" font-family="Times,serif" font-size="14.00">AnonymousAuthenticationInterceptor</text>
</g>
<!-- AuthenticationModule -->
<g id="node3" class="node">
<title>AuthenticationModule</title>
<polygon fill="#8dd3c7" stroke="black" points="349.25,-149.8 346.25,-153.8 325.25,-153.8 322.25,-149.8 206.75,-149.8 206.75,-113.8 349.25,-113.8 349.25,-149.8"/>
<text text-anchor="middle" x="278" y="-127.6" font-family="Times,serif" font-size="14.00">AuthenticationModule</text>
</g>
<!-- AnonymousAuthenticationInterceptor&#45;&gt;AuthenticationModule -->
<g id="edge1" class="edge">
<title>AnonymousAuthenticationInterceptor&#45;&gt;AuthenticationModule</title>
<path fill="none" stroke="black" d="M306.69,-79.33C306.69,-79.33 306.69,-103.65 306.69,-103.65"/>
<polygon fill="black" stroke="black" points="303.19,-103.65 306.69,-113.65 310.19,-103.65 303.19,-103.65"/>
</g>
<!-- AuthenticationInterceptor -->
<g id="node2" class="node">
<title>AuthenticationInterceptor</title>
<ellipse fill="#fdb462" stroke="black" cx="135" cy="-66.8" rx="110.57" ry="18"/>
<text text-anchor="middle" x="135" y="-62.6" font-family="Times,serif" font-size="14.00">AuthenticationInterceptor</text>
</g>
<!-- AuthenticationInterceptor&#45;&gt;AuthenticationModule -->
<g id="edge2" class="edge">
<title>AuthenticationInterceptor&#45;&gt;AuthenticationModule</title>
<path fill="none" stroke="black" d="M226.2,-77.24C226.2,-77.24 226.2,-103.77 226.2,-103.77"/>
<polygon fill="black" stroke="black" points="222.7,-103.77 226.2,-113.77 229.7,-103.77 222.7,-103.77"/>
</g>
</g>
</svg>
