<?xml version="1.0" encoding="UTF-8" standalone="no"?>
<!DOCTYPE svg PUBLIC "-//W3C//DTD SVG 1.1//EN"
 "http://www.w3.org/Graphics/SVG/1.1/DTD/svg11.dtd">
<!-- Generated by graphviz version 2.47.0 (20210316.0004)
 -->
<!-- Title: dependencies Pages: 1 -->
<svg width="612pt" height="211pt"
 viewBox="0.00 0.00 612.00 211.00" xmlns="http://www.w3.org/2000/svg" xmlns:xlink="http://www.w3.org/1999/xlink">
<g id="graph0" class="graph" transform="scale(1 1) rotate(0) translate(4 207)">
<title>dependencies</title>
<polygon fill="white" stroke="transparent" points="-4,4 -4,-207 608,-207 608,4 -4,4"/>
<text text-anchor="start" x="281.01" y="-42.4" font-family="Times-12" font-weight="bold" font-size="14.00">Legend</text>
<polygon fill="#ffffb3" stroke="transparent" points="68,-10 68,-30 88,-30 88,-10 68,-10"/>
<text text-anchor="start" x="91.63" y="-15.4" font-family="Times-12" font-size="14.00"> &#160;Declarations</text>
<polygon fill="#8dd3c7" stroke="transparent" points="181,-10 181,-30 201,-30 201,-10 181,-10"/>
<text text-anchor="start" x="204.73" y="-15.4" font-family="Times-12" font-size="14.00"> &#160;Module</text>
<polygon fill="#80b1d3" stroke="transparent" points="267,-10 267,-30 287,-30 287,-10 267,-10"/>
<text text-anchor="start" x="290.78" y="-15.4" font-family="Times-12" font-size="14.00"> &#160;Bootstrap</text>
<polygon fill="#fdb462" stroke="transparent" points="364,-10 364,-30 384,-30 384,-10 364,-10"/>
<text text-anchor="start" x="387.67" y="-15.4" font-family="Times-12" font-size="14.00"> &#160;Providers</text>
<polygon fill="#fb8072" stroke="transparent" points="460,-10 460,-30 480,-30 480,-10 460,-10"/>
<text text-anchor="start" x="483.73" y="-15.4" font-family="Times-12" font-size="14.00"> &#160;Exports</text>
<g id="clust1" class="cluster">
<title>cluster_AuthenticationModule</title>
<polygon fill="none" stroke="black" stroke-dasharray="1,5" points="8,-70 8,-195 596,-195 596,-70 8,-70"/>
</g>
<g id="clust6" class="cluster">
<title>cluster_AuthenticationModule_providers</title>
<polygon fill="none" stroke="black" points="16,-78 16,-130 588,-130 588,-78 16,-78"/>
</g>
<!-- AnonymousAuthenticationInterceptor -->
<g id="node1" class="node">
<title>AnonymousAuthenticationInterceptor</title>
<ellipse fill="#fdb462" stroke="black" cx="422" cy="-104" rx="157.99" ry="18"/>
<text text-anchor="middle" x="422" y="-99.8" font-family="Times,serif" font-size="14.00">AnonymousAuthenticationInterceptor</text>
</g>
<!-- AuthenticationModule -->
<g id="node3" class="node">
<title>AuthenticationModule</title>
<polygon fill="#8dd3c7" stroke="black" points="349.25,-187 346.25,-191 325.25,-191 322.25,-187 206.75,-187 206.75,-151 349.25,-151 349.25,-187"/>
<text text-anchor="middle" x="278" y="-164.8" font-family="Times,serif" font-size="14.00">AuthenticationModule</text>
</g>
<!-- AnonymousAuthenticationInterceptor&#45;&gt;AuthenticationModule -->
<g id="edge1" class="edge">
<title>AnonymousAuthenticationInterceptor&#45;&gt;AuthenticationModule</title>
<path fill="none" stroke="black" d="M306.69,-116.53C306.69,-116.53 306.69,-140.85 306.69,-140.85"/>
<polygon fill="black" stroke="black" points="303.19,-140.85 306.69,-150.85 310.19,-140.85 303.19,-140.85"/>
</g>
<!-- AuthenticationInterceptor -->
<g id="node2" class="node">
<title>AuthenticationInterceptor</title>
<ellipse fill="#fdb462" stroke="black" cx="135" cy="-104" rx="110.57" ry="18"/>
<text text-anchor="middle" x="135" y="-99.8" font-family="Times,serif" font-size="14.00">AuthenticationInterceptor</text>
</g>
<!-- AuthenticationInterceptor&#45;&gt;AuthenticationModule -->
<g id="edge2" class="edge">
<title>AuthenticationInterceptor&#45;&gt;AuthenticationModule</title>
<path fill="none" stroke="black" d="M226.2,-114.44C226.2,-114.44 226.2,-140.97 226.2,-140.97"/>
<polygon fill="black" stroke="black" points="222.7,-140.97 226.2,-150.97 229.7,-140.97 222.7,-140.97"/>
</g>
</g>
</svg>
