<?xml version="1.0" encoding="UTF-8" standalone="no"?>
<!DOCTYPE svg PUBLIC "-//W3C//DTD SVG 1.1//EN"
 "http://www.w3.org/Graphics/SVG/1.1/DTD/svg11.dtd">
<!-- Generated by graphviz version 5.0.0 (20220707.1540)
 -->
<!-- Title: dependencies Pages: 1 -->
<svg width="7478pt" height="247pt"
 viewBox="0.00 0.00 7478.00 246.80" xmlns="http://www.w3.org/2000/svg" xmlns:xlink="http://www.w3.org/1999/xlink">
<g id="graph0" class="graph" transform="scale(1 1) rotate(0) translate(4 242.8)">
<title>dependencies</title>
<polygon fill="white" stroke="transparent" points="-4,4 -4,-242.8 7474,-242.8 7474,4 -4,4"/>
<text text-anchor="middle" x="3735" y="-8.2" font-family="sans-serif" font-size="14.00">dependencies</text>
<g id="clust1" class="cluster">
<title>cluster_DataFieldsComponentModule</title>
<polygon fill="none" stroke="black" stroke-dasharray="1,5" points="8,-32.8 8,-230.8 7462,-230.8 7462,-32.8 8,-32.8"/>
</g>
<g id="clust2" class="cluster">
<title>cluster_DataFieldsComponentModule_declarations</title>
<polygon fill="none" stroke="black" points="16,-40.8 16,-92.8 7454,-92.8 7454,-40.8 16,-40.8"/>
</g>
<g id="clust41" class="cluster">
<title>cluster_DataFieldsComponentModule_exports</title>
<polygon fill="none" stroke="black" points="2246,-170.8 2246,-222.8 4872,-222.8 4872,-170.8 2246,-170.8"/>
</g>
<!-- BooleanFieldComponent -->
<g id="node1" class="node">
<title>BooleanFieldComponent</title>
<polygon fill="#ffffb3" stroke="black" points="7446.27,-84.8 7289.73,-84.8 7289.73,-48.8 7446.27,-48.8 7446.27,-84.8"/>
<text text-anchor="middle" x="7368" y="-62.6" font-family="Times,serif" font-size="14.00">BooleanFieldComponent</text>
</g>
<!-- DataFieldsComponentModule -->
<g id="node38" class="node">
<title>DataFieldsComponentModule</title>
<polygon fill="#8dd3c7" stroke="black" points="3616.54,-149.8 3613.54,-153.8 3592.54,-153.8 3589.54,-149.8 3431.46,-149.8 3431.46,-113.8 3616.54,-113.8 3616.54,-149.8"/>
<text text-anchor="middle" x="3524" y="-127.6" font-family="Times,serif" font-size="14.00">DataFieldsComponentModule</text>
</g>
<!-- BooleanFieldComponent&#45;&gt;DataFieldsComponentModule -->
<g id="edge1" class="edge">
<title>BooleanFieldComponent&#45;&gt;DataFieldsComponentModule</title>
<path fill="none" stroke="black" d="M7368,-84.84C7368,-106.46 7368,-139.8 7368,-139.8 7368,-139.8 3626.64,-139.8 3626.64,-139.8"/>
<polygon fill="black" stroke="black" points="3626.64,-136.3 3616.64,-139.8 3626.64,-143.3 3626.64,-136.3"/>
</g>
<!-- ButtonFieldComponent -->
<g id="node2" class="node">
<title>ButtonFieldComponent</title>
<polygon fill="#ffffb3" stroke="black" points="7272.23,-84.8 7123.77,-84.8 7123.77,-48.8 7272.23,-48.8 7272.23,-84.8"/>
<text text-anchor="middle" x="7198" y="-62.6" font-family="Times,serif" font-size="14.00">ButtonFieldComponent</text>
</g>
<!-- ButtonFieldComponent&#45;&gt;DataFieldsComponentModule -->
<g id="edge2" class="edge">
<title>ButtonFieldComponent&#45;&gt;DataFieldsComponentModule</title>
<path fill="none" stroke="black" d="M7198,-84.97C7198,-106.3 7198,-138.8 7198,-138.8 7198,-138.8 3626.66,-138.8 3626.66,-138.8"/>
<polygon fill="black" stroke="black" points="3626.66,-135.3 3616.66,-138.8 3626.66,-142.3 3626.66,-135.3"/>
</g>
<!-- DataFieldTemplateComponent -->
<g id="node3" class="node">
<title>DataFieldTemplateComponent</title>
<polygon fill="#ffffb3" stroke="black" points="7105.9,-84.8 6916.1,-84.8 6916.1,-48.8 7105.9,-48.8 7105.9,-84.8"/>
<text text-anchor="middle" x="7011" y="-62.6" font-family="Times,serif" font-size="14.00">DataFieldTemplateComponent</text>
</g>
<!-- DataFieldTemplateComponent&#45;&gt;DataFieldsComponentModule -->
<g id="edge3" class="edge">
<title>DataFieldTemplateComponent&#45;&gt;DataFieldsComponentModule</title>
<path fill="none" stroke="black" d="M7011,-85.08C7011,-106.12 7011,-137.8 7011,-137.8 7011,-137.8 3626.82,-137.8 3626.82,-137.8"/>
<polygon fill="black" stroke="black" points="3626.82,-134.3 3616.82,-137.8 3626.82,-141.3 3626.82,-134.3"/>
</g>
<!-- DateFieldComponent -->
<g id="node4" class="node">
<title>DateFieldComponent</title>
<polygon fill="#ffffb3" stroke="black" points="6898.04,-84.8 6761.96,-84.8 6761.96,-48.8 6898.04,-48.8 6898.04,-84.8"/>
<text text-anchor="middle" x="6830" y="-62.6" font-family="Times,serif" font-size="14.00">DateFieldComponent</text>
</g>
<!-- DateFieldComponent&#45;&gt;DataFieldsComponentModule -->
<g id="edge4" class="edge">
<title>DateFieldComponent&#45;&gt;DataFieldsComponentModule</title>
<path fill="none" stroke="black" d="M6830,-84.93C6830,-105.37 6830,-135.8 6830,-135.8 6830,-135.8 3626.74,-135.8 3626.74,-135.8"/>
<polygon fill="black" stroke="black" points="3626.74,-132.3 3616.74,-135.8 3626.74,-139.3 3626.74,-132.3"/>
</g>
<!-- DateTimeFieldComponent -->
<g id="node5" class="node">
<title>DateTimeFieldComponent</title>
<polygon fill="#ffffb3" stroke="black" points="6744.08,-84.8 6577.92,-84.8 6577.92,-48.8 6744.08,-48.8 6744.08,-84.8"/>
<text text-anchor="middle" x="6661" y="-62.6" font-family="Times,serif" font-size="14.00">DateTimeFieldComponent</text>
</g>
<!-- DateTimeFieldComponent&#45;&gt;DataFieldsComponentModule -->
<g id="edge5" class="edge">
<title>DateTimeFieldComponent&#45;&gt;DataFieldsComponentModule</title>
<path fill="none" stroke="black" d="M6661,-85.02C6661,-105.17 6661,-134.8 6661,-134.8 6661,-134.8 3626.61,-134.8 3626.61,-134.8"/>
<polygon fill="black" stroke="black" points="3626.61,-131.3 3616.61,-134.8 3626.61,-138.3 3626.61,-131.3"/>
</g>
<!-- EasymdeWrapperComponent -->
<g id="node6" class="node">
<title>EasymdeWrapperComponent</title>
<polygon fill="#ffffb3" stroke="black" points="6559.61,-84.8 6378.39,-84.8 6378.39,-48.8 6559.61,-48.8 6559.61,-84.8"/>
<text text-anchor="middle" x="6469" y="-62.6" font-family="Times,serif" font-size="14.00">EasymdeWrapperComponent</text>
</g>
<!-- EasymdeWrapperComponent&#45;&gt;DataFieldsComponentModule -->
<g id="edge6" class="edge">
<title>EasymdeWrapperComponent&#45;&gt;DataFieldsComponentModule</title>
<path fill="none" stroke="black" d="M6469,-84.83C6469,-104.38 6469,-132.8 6469,-132.8 6469,-132.8 3626.59,-132.8 3626.59,-132.8"/>
<polygon fill="black" stroke="black" points="3626.59,-129.3 3616.59,-132.8 3626.59,-136.3 3626.59,-129.3"/>
</g>
<!-- EnumerationAutocompleteDynamicFieldComponent -->
<g id="node7" class="node">
<title>EnumerationAutocompleteDynamicFieldComponent</title>
<polygon fill="#ffffb3" stroke="black" points="6360.55,-84.8 6047.45,-84.8 6047.45,-48.8 6360.55,-48.8 6360.55,-84.8"/>
<text text-anchor="middle" x="6204" y="-62.6" font-family="Times,serif" font-size="14.00">EnumerationAutocompleteDynamicFieldComponent</text>
</g>
<!-- EnumerationAutocompleteDynamicFieldComponent&#45;&gt;DataFieldsComponentModule -->
<g id="edge7" class="edge">
<title>EnumerationAutocompleteDynamicFieldComponent&#45;&gt;DataFieldsComponentModule</title>
<path fill="none" stroke="black" d="M6204,-84.91C6204,-104.14 6204,-131.8 6204,-131.8 6204,-131.8 3626.64,-131.8 3626.64,-131.8"/>
<polygon fill="black" stroke="black" points="3626.64,-128.3 3616.64,-131.8 3626.64,-135.3 3626.64,-128.3"/>
</g>
<!-- EnumerationAutocompleteSelectFieldComponent -->
<g id="node8" class="node">
<title>EnumerationAutocompleteSelectFieldComponent</title>
<polygon fill="#ffffb3" stroke="black" points="6029.94,-84.8 5734.06,-84.8 5734.06,-48.8 6029.94,-48.8 6029.94,-84.8"/>
<text text-anchor="middle" x="5882" y="-62.6" font-family="Times,serif" font-size="14.00">EnumerationAutocompleteSelectFieldComponent</text>
</g>
<!-- EnumerationAutocompleteSelectFieldComponent&#45;&gt;DataFieldsComponentModule -->
<g id="edge8" class="edge">
<title>EnumerationAutocompleteSelectFieldComponent&#45;&gt;DataFieldsComponentModule</title>
<path fill="none" stroke="black" d="M5882,-85.02C5882,-103.63 5882,-129.8 5882,-129.8 5882,-129.8 3626.8,-129.8 3626.8,-129.8"/>
<polygon fill="black" stroke="black" points="3626.8,-126.3 3616.8,-129.8 3626.8,-133.3 3626.8,-126.3"/>
</g>
<!-- EnumerationFieldComponent -->
<g id="node9" class="node">
<title>EnumerationFieldComponent</title>
<polygon fill="#ffffb3" stroke="black" points="5716.42,-84.8 5533.58,-84.8 5533.58,-48.8 5716.42,-48.8 5716.42,-84.8"/>
<text text-anchor="middle" x="5625" y="-62.6" font-family="Times,serif" font-size="14.00">EnumerationFieldComponent</text>
</g>
<!-- EnumerationFieldComponent&#45;&gt;DataFieldsComponentModule -->
<g id="edge9" class="edge">
<title>EnumerationFieldComponent&#45;&gt;DataFieldsComponentModule</title>
<path fill="none" stroke="black" d="M5625,-85.07C5625,-103.36 5625,-128.8 5625,-128.8 5625,-128.8 3626.65,-128.8 3626.65,-128.8"/>
<polygon fill="black" stroke="black" points="3626.65,-125.3 3616.65,-128.8 3626.65,-132.3 3626.65,-125.3"/>
</g>
<!-- EnumerationIconFieldComponent -->
<g id="node10" class="node">
<title>EnumerationIconFieldComponent</title>
<polygon fill="#ffffb3" stroke="black" points="5515.8,-84.8 5308.2,-84.8 5308.2,-48.8 5515.8,-48.8 5515.8,-84.8"/>
<text text-anchor="middle" x="5412" y="-62.6" font-family="Times,serif" font-size="14.00">EnumerationIconFieldComponent</text>
</g>
<!-- EnumerationIconFieldComponent&#45;&gt;DataFieldsComponentModule -->
<g id="edge10" class="edge">
<title>EnumerationIconFieldComponent&#45;&gt;DataFieldsComponentModule</title>
<path fill="none" stroke="black" d="M5412,-84.8C5412,-102.48 5412,-126.8 5412,-126.8 5412,-126.8 3626.66,-126.8 3626.66,-126.8"/>
<polygon fill="black" stroke="black" points="3626.66,-123.3 3616.66,-126.8 3626.66,-130.3 3626.66,-123.3"/>
</g>
<!-- EnumerationListFieldComponent -->
<g id="node11" class="node">
<title>EnumerationListFieldComponent</title>
<polygon fill="#ffffb3" stroke="black" points="5290.2,-84.8 5085.8,-84.8 5085.8,-48.8 5290.2,-48.8 5290.2,-84.8"/>
<text text-anchor="middle" x="5188" y="-62.6" font-family="Times,serif" font-size="14.00">EnumerationListFieldComponent</text>
</g>
<!-- EnumerationListFieldComponent&#45;&gt;DataFieldsComponentModule -->
<g id="edge11" class="edge">
<title>EnumerationListFieldComponent&#45;&gt;DataFieldsComponentModule</title>
<path fill="none" stroke="black" d="M5188,-84.82C5188,-102.17 5188,-125.8 5188,-125.8 5188,-125.8 3626.73,-125.8 3626.73,-125.8"/>
<polygon fill="black" stroke="black" points="3626.73,-122.3 3616.73,-125.8 3626.73,-129.3 3626.73,-122.3"/>
</g>
<!-- EnumerationSelectFieldComponent -->
<g id="node12" class="node">
<title>EnumerationSelectFieldComponent</title>
<polygon fill="#ffffb3" stroke="black" points="5068.13,-84.8 4851.87,-84.8 4851.87,-48.8 5068.13,-48.8 5068.13,-84.8"/>
<text text-anchor="middle" x="4960" y="-62.6" font-family="Times,serif" font-size="14.00">EnumerationSelectFieldComponent</text>
</g>
<!-- EnumerationSelectFieldComponent&#45;&gt;DataFieldsComponentModule -->
<g id="edge12" class="edge">
<title>EnumerationSelectFieldComponent&#45;&gt;DataFieldsComponentModule</title>
<path fill="none" stroke="black" d="M4857.91,-84.83C4857.91,-101.86 4857.91,-124.8 4857.91,-124.8 4857.91,-124.8 3626.74,-124.8 3626.74,-124.8"/>
<polygon fill="black" stroke="black" points="3626.74,-121.3 3616.74,-124.8 3626.74,-128.3 3626.74,-121.3"/>
</g>
<!-- EnumerationStepperFieldComponent -->
<g id="node13" class="node">
<title>EnumerationStepperFieldComponent</title>
<polygon fill="#ffffb3" stroke="black" points="4833.69,-84.8 4608.31,-84.8 4608.31,-48.8 4833.69,-48.8 4833.69,-84.8"/>
<text text-anchor="middle" x="4721" y="-62.6" font-family="Times,serif" font-size="14.00">EnumerationStepperFieldComponent</text>
</g>
<!-- EnumerationStepperFieldComponent&#45;&gt;DataFieldsComponentModule -->
<g id="edge13" class="edge">
<title>EnumerationStepperFieldComponent&#45;&gt;DataFieldsComponentModule</title>
<path fill="none" stroke="black" d="M4647.14,-84.83C4647.14,-101.2 4647.14,-122.8 4647.14,-122.8 4647.14,-122.8 3626.87,-122.8 3626.87,-122.8"/>
<polygon fill="black" stroke="black" points="3626.87,-119.3 3616.87,-122.8 3626.87,-126.3 3626.87,-119.3"/>
</g>
<!-- FileFieldComponent -->
<g id="node14" class="node">
<title>FileFieldComponent</title>
<polygon fill="#ffffb3" stroke="black" points="4589.89,-84.8 4458.11,-84.8 4458.11,-48.8 4589.89,-48.8 4589.89,-84.8"/>
<text text-anchor="middle" x="4524" y="-62.6" font-family="Times,serif" font-size="14.00">FileFieldComponent</text>
</g>
<!-- FileFieldComponent&#45;&gt;DataFieldsComponentModule -->
<g id="edge14" class="edge">
<title>FileFieldComponent&#45;&gt;DataFieldsComponentModule</title>
<path fill="none" stroke="black" d="M4487.25,-84.81C4487.25,-100.85 4487.25,-121.8 4487.25,-121.8 4487.25,-121.8 3626.8,-121.8 3626.8,-121.8"/>
<polygon fill="black" stroke="black" points="3626.8,-118.3 3616.8,-121.8 3626.8,-125.3 3626.8,-118.3"/>
</g>
<!-- FileListFieldComponent -->
<g id="node15" class="node">
<title>FileListFieldComponent</title>
<polygon fill="#ffffb3" stroke="black" points="4439.67,-84.8 4286.33,-84.8 4286.33,-48.8 4439.67,-48.8 4439.67,-84.8"/>
<text text-anchor="middle" x="4363" y="-62.6" font-family="Times,serif" font-size="14.00">FileListFieldComponent</text>
</g>
<!-- FileListFieldComponent&#45;&gt;DataFieldsComponentModule -->
<g id="edge15" class="edge">
<title>FileListFieldComponent&#45;&gt;DataFieldsComponentModule</title>
<path fill="none" stroke="black" d="M4296.09,-85.04C4296.09,-100.37 4296.09,-119.8 4296.09,-119.8 4296.09,-119.8 3626.75,-119.8 3626.75,-119.8"/>
<polygon fill="black" stroke="black" points="3626.75,-116.3 3616.75,-119.8 3626.75,-123.3 3626.75,-116.3"/>
</g>
<!-- FilterFieldComponent -->
<g id="node16" class="node">
<title>FilterFieldComponent</title>
<polygon fill="#ffffb3" stroke="black" points="4268.44,-84.8 4127.56,-84.8 4127.56,-48.8 4268.44,-48.8 4268.44,-84.8"/>
<text text-anchor="middle" x="4198" y="-62.6" font-family="Times,serif" font-size="14.00">FilterFieldComponent</text>
</g>
<!-- FilterFieldComponent&#45;&gt;DataFieldsComponentModule -->
<g id="edge16" class="edge">
<title>FilterFieldComponent&#45;&gt;DataFieldsComponentModule</title>
<path fill="none" stroke="black" d="M4137.79,-84.99C4137.79,-99.98 4137.79,-118.8 4137.79,-118.8 4137.79,-118.8 3626.55,-118.8 3626.55,-118.8"/>
<polygon fill="black" stroke="black" points="3626.55,-115.3 3616.55,-118.8 3626.55,-122.3 3626.55,-115.3"/>
</g>
<!-- FilterFieldContentComponent -->
<g id="node17" class="node">
<title>FilterFieldContentComponent</title>
<polygon fill="#ffffb3" stroke="black" points="4109.27,-84.8 3924.73,-84.8 3924.73,-48.8 4109.27,-48.8 4109.27,-84.8"/>
<text text-anchor="middle" x="4017" y="-62.6" font-family="Times,serif" font-size="14.00">FilterFieldContentComponent</text>
</g>
<!-- FilterFieldContentComponent&#45;&gt;DataFieldsComponentModule -->
<g id="edge17" class="edge">
<title>FilterFieldContentComponent&#45;&gt;DataFieldsComponentModule</title>
<path fill="none" stroke="black" d="M3942.29,-84.85C3942.29,-99.17 3942.29,-116.8 3942.29,-116.8 3942.29,-116.8 3626.57,-116.8 3626.57,-116.8"/>
<polygon fill="black" stroke="black" points="3626.57,-113.3 3616.57,-116.8 3626.57,-120.3 3626.57,-113.3"/>
</g>
<!-- HtmlTextareaFieldComponent -->
<g id="node18" class="node">
<title>HtmlTextareaFieldComponent</title>
<polygon fill="#ffffb3" stroke="black" points="3906.85,-84.8 3719.15,-84.8 3719.15,-48.8 3906.85,-48.8 3906.85,-84.8"/>
<text text-anchor="middle" x="3813" y="-62.6" font-family="Times,serif" font-size="14.00">HtmlTextareaFieldComponent</text>
</g>
<!-- HtmlTextareaFieldComponent&#45;&gt;DataFieldsComponentModule -->
<g id="edge18" class="edge">
<title>HtmlTextareaFieldComponent&#45;&gt;DataFieldsComponentModule</title>
<path fill="none" stroke="black" d="M3737.39,-85.05C3737.39,-98.98 3737.39,-115.8 3737.39,-115.8 3737.39,-115.8 3626.66,-115.8 3626.66,-115.8"/>
<polygon fill="black" stroke="black" points="3626.66,-112.3 3616.66,-115.8 3626.66,-119.3 3626.66,-112.3"/>
</g>
<!-- I18nDividerFieldComponent -->
<g id="node19" class="node">
<title>I18nDividerFieldComponent</title>
<polygon fill="#ffffb3" stroke="black" points="3701.04,-84.8 3522.96,-84.8 3522.96,-48.8 3701.04,-48.8 3701.04,-84.8"/>
<text text-anchor="middle" x="3612" y="-62.6" font-family="Times,serif" font-size="14.00">I18nDividerFieldComponent</text>
</g>
<!-- I18nDividerFieldComponent&#45;&gt;DataFieldsComponentModule -->
<g id="edge19" class="edge">
<title>I18nDividerFieldComponent&#45;&gt;DataFieldsComponentModule</title>
<path fill="none" stroke="black" d="M3569.75,-84.91C3569.75,-84.91 3569.75,-103.79 3569.75,-103.79"/>
<polygon fill="black" stroke="black" points="3566.25,-103.79 3569.75,-113.79 3573.25,-103.79 3566.25,-103.79"/>
</g>
<!-- I18nFieldComponent -->
<g id="node20" class="node">
<title>I18nFieldComponent</title>
<polygon fill="#ffffb3" stroke="black" points="3504.77,-84.8 3369.23,-84.8 3369.23,-48.8 3504.77,-48.8 3504.77,-84.8"/>
<text text-anchor="middle" x="3437" y="-62.6" font-family="Times,serif" font-size="14.00">I18nFieldComponent</text>
</g>
<!-- I18nFieldComponent&#45;&gt;DataFieldsComponentModule -->
<g id="edge20" class="edge">
<title>I18nFieldComponent&#45;&gt;DataFieldsComponentModule</title>
<path fill="none" stroke="black" d="M3468.06,-84.91C3468.06,-84.91 3468.06,-103.79 3468.06,-103.79"/>
<polygon fill="black" stroke="black" points="3464.56,-103.79 3468.06,-113.79 3471.56,-103.79 3464.56,-103.79"/>
</g>
<!-- I18nTextFieldComponent -->
<g id="node21" class="node">
<title>I18nTextFieldComponent</title>
<polygon fill="#ffffb3" stroke="black" points="3350.93,-84.8 3189.07,-84.8 3189.07,-48.8 3350.93,-48.8 3350.93,-84.8"/>
<text text-anchor="middle" x="3270" y="-62.6" font-family="Times,serif" font-size="14.00">I18nTextFieldComponent</text>
</g>
<!-- I18nTextFieldComponent&#45;&gt;DataFieldsComponentModule -->
<g id="edge21" class="edge">
<title>I18nTextFieldComponent&#45;&gt;DataFieldsComponentModule</title>
<path fill="none" stroke="black" d="M3316.87,-85.05C3316.87,-98.98 3316.87,-115.8 3316.87,-115.8 3316.87,-115.8 3421.34,-115.8 3421.34,-115.8"/>
<polygon fill="black" stroke="black" points="3421.34,-119.3 3431.34,-115.8 3421.34,-112.3 3421.34,-119.3"/>
</g>
<!-- MultichoiceAutocompleteFieldComponent -->
<g id="node22" class="node">
<title>MultichoiceAutocompleteFieldComponent</title>
<polygon fill="#ffffb3" stroke="black" points="3171.57,-84.8 2914.43,-84.8 2914.43,-48.8 3171.57,-48.8 3171.57,-84.8"/>
<text text-anchor="middle" x="3043" y="-62.6" font-family="Times,serif" font-size="14.00">MultichoiceAutocompleteFieldComponent</text>
</g>
<!-- MultichoiceAutocompleteFieldComponent&#45;&gt;DataFieldsComponentModule -->
<g id="edge22" class="edge">
<title>MultichoiceAutocompleteFieldComponent&#45;&gt;DataFieldsComponentModule</title>
<path fill="none" stroke="black" d="M3148.45,-84.85C3148.45,-99.17 3148.45,-116.8 3148.45,-116.8 3148.45,-116.8 3421.17,-116.8 3421.17,-116.8"/>
<polygon fill="black" stroke="black" points="3421.17,-120.3 3431.17,-116.8 3421.17,-113.3 3421.17,-120.3"/>
</g>
<!-- MultichoiceFieldComponent -->
<g id="node23" class="node">
<title>MultichoiceFieldComponent</title>
<polygon fill="#ffffb3" stroke="black" points="2896.76,-84.8 2719.24,-84.8 2719.24,-48.8 2896.76,-48.8 2896.76,-84.8"/>
<text text-anchor="middle" x="2808" y="-62.6" font-family="Times,serif" font-size="14.00">MultichoiceFieldComponent</text>
</g>
<!-- MultichoiceFieldComponent&#45;&gt;DataFieldsComponentModule -->
<g id="edge23" class="edge">
<title>MultichoiceFieldComponent&#45;&gt;DataFieldsComponentModule</title>
<path fill="none" stroke="black" d="M2823.07,-84.99C2823.07,-99.98 2823.07,-118.8 2823.07,-118.8 2823.07,-118.8 3421.28,-118.8 3421.28,-118.8"/>
<polygon fill="black" stroke="black" points="3421.28,-122.3 3431.28,-118.8 3421.28,-115.3 3421.28,-122.3"/>
</g>
<!-- MultichoiceListFieldComponent -->
<g id="node24" class="node">
<title>MultichoiceListFieldComponent</title>
<polygon fill="#ffffb3" stroke="black" points="2700.54,-84.8 2501.46,-84.8 2501.46,-48.8 2700.54,-48.8 2700.54,-84.8"/>
<text text-anchor="middle" x="2601" y="-62.6" font-family="Times,serif" font-size="14.00">MultichoiceListFieldComponent</text>
</g>
<!-- MultichoiceListFieldComponent&#45;&gt;DataFieldsComponentModule -->
<g id="edge24" class="edge">
<title>MultichoiceListFieldComponent&#45;&gt;DataFieldsComponentModule</title>
<path fill="none" stroke="black" d="M2646.57,-85.04C2646.57,-100.37 2646.57,-119.8 2646.57,-119.8 2646.57,-119.8 3421.34,-119.8 3421.34,-119.8"/>
<polygon fill="black" stroke="black" points="3421.34,-123.3 3431.34,-119.8 3421.34,-116.3 3421.34,-123.3"/>
</g>
<!-- MultichoiceSelectFieldComponent -->
<g id="node25" class="node">
<title>MultichoiceSelectFieldComponent</title>
<polygon fill="#ffffb3" stroke="black" points="2482.97,-84.8 2271.03,-84.8 2271.03,-48.8 2482.97,-48.8 2482.97,-84.8"/>
<text text-anchor="middle" x="2377" y="-62.6" font-family="Times,serif" font-size="14.00">MultichoiceSelectFieldComponent</text>
</g>
<!-- MultichoiceSelectFieldComponent&#45;&gt;DataFieldsComponentModule -->
<g id="edge25" class="edge">
<title>MultichoiceSelectFieldComponent&#45;&gt;DataFieldsComponentModule</title>
<path fill="none" stroke="black" d="M2458.48,-84.81C2458.48,-100.85 2458.48,-121.8 2458.48,-121.8 2458.48,-121.8 3421.31,-121.8 3421.31,-121.8"/>
<polygon fill="black" stroke="black" points="3421.31,-125.3 3431.31,-121.8 3421.31,-118.3 3421.31,-125.3"/>
</g>
<!-- NumberCurrencyFieldComponent -->
<g id="node26" class="node">
<title>NumberCurrencyFieldComponent</title>
<polygon fill="#ffffb3" stroke="black" points="2253.08,-84.8 2044.92,-84.8 2044.92,-48.8 2253.08,-48.8 2253.08,-84.8"/>
<text text-anchor="middle" x="2149" y="-62.6" font-family="Times,serif" font-size="14.00">NumberCurrencyFieldComponent</text>
</g>
<!-- NumberCurrencyFieldComponent&#45;&gt;DataFieldsComponentModule -->
<g id="edge26" class="edge">
<title>NumberCurrencyFieldComponent&#45;&gt;DataFieldsComponentModule</title>
<path fill="none" stroke="black" d="M2149,-84.83C2149,-101.2 2149,-122.8 2149,-122.8 2149,-122.8 3421.38,-122.8 3421.38,-122.8"/>
<polygon fill="black" stroke="black" points="3421.38,-126.3 3431.38,-122.8 3421.38,-119.3 3421.38,-126.3"/>
</g>
<!-- NumberDefaultFieldComponent -->
<g id="node27" class="node">
<title>NumberDefaultFieldComponent</title>
<polygon fill="#ffffb3" stroke="black" points="2026.97,-84.8 1829.03,-84.8 1829.03,-48.8 2026.97,-48.8 2026.97,-84.8"/>
<text text-anchor="middle" x="1928" y="-62.6" font-family="Times,serif" font-size="14.00">NumberDefaultFieldComponent</text>
</g>
<!-- NumberDefaultFieldComponent&#45;&gt;DataFieldsComponentModule -->
<g id="edge27" class="edge">
<title>NumberDefaultFieldComponent&#45;&gt;DataFieldsComponentModule</title>
<path fill="none" stroke="black" d="M1895.01,-84.82C1895.01,-102.17 1895.01,-125.8 1895.01,-125.8 1895.01,-125.8 3421.46,-125.8 3421.46,-125.8"/>
<polygon fill="black" stroke="black" points="3421.46,-129.3 3431.46,-125.8 3421.46,-122.3 3421.46,-129.3"/>
</g>
<!-- NumberDefaultFieldComponent&#45;&gt;DataFieldsComponentModule -->
<g id="edge28" class="edge">
<title>NumberDefaultFieldComponent&#45;&gt;DataFieldsComponentModule</title>
<path fill="none" stroke="black" d="M1960.99,-84.83C1960.99,-101.86 1960.99,-124.8 1960.99,-124.8 1960.99,-124.8 3421.2,-124.8 3421.2,-124.8"/>
<polygon fill="black" stroke="black" points="3421.2,-128.3 3431.2,-124.8 3421.2,-121.3 3421.2,-128.3"/>
</g>
<!-- NumberFieldComponent -->
<g id="node28" class="node">
<title>NumberFieldComponent</title>
<polygon fill="#ffffb3" stroke="black" points="1810.99,-84.8 1655.01,-84.8 1655.01,-48.8 1810.99,-48.8 1810.99,-84.8"/>
<text text-anchor="middle" x="1733" y="-62.6" font-family="Times,serif" font-size="14.00">NumberFieldComponent</text>
</g>
<!-- NumberFieldComponent&#45;&gt;DataFieldsComponentModule -->
<g id="edge29" class="edge">
<title>NumberFieldComponent&#45;&gt;DataFieldsComponentModule</title>
<path fill="none" stroke="black" d="M1733,-84.8C1733,-102.48 1733,-126.8 1733,-126.8 1733,-126.8 3421.17,-126.8 3421.17,-126.8"/>
<polygon fill="black" stroke="black" points="3421.17,-130.3 3431.17,-126.8 3421.17,-123.3 3421.17,-130.3"/>
</g>
<!-- PasswordTextFieldComponent -->
<g id="node29" class="node">
<title>PasswordTextFieldComponent</title>
<polygon fill="#ffffb3" stroke="black" points="1636.94,-84.8 1447.06,-84.8 1447.06,-48.8 1636.94,-48.8 1636.94,-84.8"/>
<text text-anchor="middle" x="1542" y="-62.6" font-family="Times,serif" font-size="14.00">PasswordTextFieldComponent</text>
</g>
<!-- PasswordTextFieldComponent&#45;&gt;DataFieldsComponentModule -->
<g id="edge30" class="edge">
<title>PasswordTextFieldComponent&#45;&gt;DataFieldsComponentModule</title>
<path fill="none" stroke="black" d="M1542,-85.07C1542,-103.36 1542,-128.8 1542,-128.8 1542,-128.8 3421.39,-128.8 3421.39,-128.8"/>
<polygon fill="black" stroke="black" points="3421.39,-132.3 3431.39,-128.8 3421.39,-125.3 3421.39,-132.3"/>
</g>
<!-- PreviewDialogComponent -->
<g id="node30" class="node">
<title>PreviewDialogComponent</title>
<polygon fill="#ffffb3" stroke="black" points="1429.81,-84.8 1264.19,-84.8 1264.19,-48.8 1429.81,-48.8 1429.81,-84.8"/>
<text text-anchor="middle" x="1347" y="-62.6" font-family="Times,serif" font-size="14.00">PreviewDialogComponent</text>
</g>
<!-- PreviewDialogComponent&#45;&gt;DataFieldsComponentModule -->
<g id="edge31" class="edge">
<title>PreviewDialogComponent&#45;&gt;DataFieldsComponentModule</title>
<path fill="none" stroke="black" d="M1347,-85.02C1347,-103.63 1347,-129.8 1347,-129.8 1347,-129.8 3421.15,-129.8 3421.15,-129.8"/>
<polygon fill="black" stroke="black" points="3421.15,-133.3 3431.15,-129.8 3421.15,-126.3 3421.15,-133.3"/>
</g>
<!-- RequiredLabelComponent -->
<g id="node31" class="node">
<title>RequiredLabelComponent</title>
<polygon fill="#ffffb3" stroke="black" points="1246.02,-84.8 1081.98,-84.8 1081.98,-48.8 1246.02,-48.8 1246.02,-84.8"/>
<text text-anchor="middle" x="1164" y="-62.6" font-family="Times,serif" font-size="14.00">RequiredLabelComponent</text>
</g>
<!-- RequiredLabelComponent&#45;&gt;DataFieldsComponentModule -->
<g id="edge32" class="edge">
<title>RequiredLabelComponent&#45;&gt;DataFieldsComponentModule</title>
<path fill="none" stroke="black" d="M1164,-84.91C1164,-104.14 1164,-131.8 1164,-131.8 1164,-131.8 3421.12,-131.8 3421.12,-131.8"/>
<polygon fill="black" stroke="black" points="3421.12,-135.3 3431.12,-131.8 3421.12,-128.3 3421.12,-135.3"/>
</g>
<!-- RichTextareaFieldComponent -->
<g id="node32" class="node">
<title>RichTextareaFieldComponent</title>
<polygon fill="#ffffb3" stroke="black" points="1063.51,-84.8 878.49,-84.8 878.49,-48.8 1063.51,-48.8 1063.51,-84.8"/>
<text text-anchor="middle" x="971" y="-62.6" font-family="Times,serif" font-size="14.00">RichTextareaFieldComponent</text>
</g>
<!-- RichTextareaFieldComponent&#45;&gt;DataFieldsComponentModule -->
<g id="edge33" class="edge">
<title>RichTextareaFieldComponent&#45;&gt;DataFieldsComponentModule</title>
<path fill="none" stroke="black" d="M971,-84.83C971,-104.38 971,-132.8 971,-132.8 971,-132.8 3421.25,-132.8 3421.25,-132.8"/>
<polygon fill="black" stroke="black" points="3421.25,-136.3 3431.25,-132.8 3421.25,-129.3 3421.25,-136.3"/>
</g>
<!-- SimpleTextFieldComponent -->
<g id="node33" class="node">
<title>SimpleTextFieldComponent</title>
<polygon fill="#ffffb3" stroke="black" points="860.94,-84.8 685.06,-84.8 685.06,-48.8 860.94,-48.8 860.94,-84.8"/>
<text text-anchor="middle" x="773" y="-62.6" font-family="Times,serif" font-size="14.00">SimpleTextFieldComponent</text>
</g>
<!-- SimpleTextFieldComponent&#45;&gt;DataFieldsComponentModule -->
<g id="edge34" class="edge">
<title>SimpleTextFieldComponent&#45;&gt;DataFieldsComponentModule</title>
<path fill="none" stroke="black" d="M773,-85.02C773,-105.17 773,-134.8 773,-134.8 773,-134.8 3421.29,-134.8 3421.29,-134.8"/>
<polygon fill="black" stroke="black" points="3421.29,-138.3 3431.29,-134.8 3421.29,-131.3 3421.29,-138.3"/>
</g>
<!-- TextFieldComponent -->
<g id="node34" class="node">
<title>TextFieldComponent</title>
<polygon fill="#ffffb3" stroke="black" points="666.77,-84.8 531.23,-84.8 531.23,-48.8 666.77,-48.8 666.77,-84.8"/>
<text text-anchor="middle" x="599" y="-62.6" font-family="Times,serif" font-size="14.00">TextFieldComponent</text>
</g>
<!-- TextFieldComponent&#45;&gt;DataFieldsComponentModule -->
<g id="edge35" class="edge">
<title>TextFieldComponent&#45;&gt;DataFieldsComponentModule</title>
<path fill="none" stroke="black" d="M599,-84.93C599,-105.37 599,-135.8 599,-135.8 599,-135.8 3421.22,-135.8 3421.22,-135.8"/>
<polygon fill="black" stroke="black" points="3421.22,-139.3 3431.22,-135.8 3421.22,-132.3 3421.22,-139.3"/>
</g>
<!-- TextareaFieldComponent -->
<g id="node35" class="node">
<title>TextareaFieldComponent</title>
<polygon fill="#ffffb3" stroke="black" points="513.57,-84.8 354.43,-84.8 354.43,-48.8 513.57,-48.8 513.57,-84.8"/>
<text text-anchor="middle" x="434" y="-62.6" font-family="Times,serif" font-size="14.00">TextareaFieldComponent</text>
</g>
<!-- TextareaFieldComponent&#45;&gt;DataFieldsComponentModule -->
<g id="edge36" class="edge">
<title>TextareaFieldComponent&#45;&gt;DataFieldsComponentModule</title>
<path fill="none" stroke="black" d="M434,-85.08C434,-106.12 434,-137.8 434,-137.8 434,-137.8 3421.1,-137.8 3421.1,-137.8"/>
<polygon fill="black" stroke="black" points="3421.1,-141.3 3431.1,-137.8 3421.1,-134.3 3421.1,-141.3"/>
</g>
<!-- UserFieldComponent -->
<g id="node36" class="node">
<title>UserFieldComponent</title>
<polygon fill="#ffffb3" stroke="black" points="336.05,-84.8 199.95,-84.8 199.95,-48.8 336.05,-48.8 336.05,-84.8"/>
<text text-anchor="middle" x="268" y="-62.6" font-family="Times,serif" font-size="14.00">UserFieldComponent</text>
</g>
<!-- UserFieldComponent&#45;&gt;DataFieldsComponentModule -->
<g id="edge37" class="edge">
<title>UserFieldComponent&#45;&gt;DataFieldsComponentModule</title>
<path fill="none" stroke="black" d="M268,-84.97C268,-106.3 268,-138.8 268,-138.8 268,-138.8 3421.37,-138.8 3421.37,-138.8"/>
<polygon fill="black" stroke="black" points="3421.37,-142.3 3431.37,-138.8 3421.37,-135.3 3421.37,-142.3"/>
</g>
<!-- UserListFieldComponent -->
<g id="node37" class="node">
<title>UserListFieldComponent</title>
<polygon fill="#ffffb3" stroke="black" points="182.32,-84.8 23.68,-84.8 23.68,-48.8 182.32,-48.8 182.32,-84.8"/>
<text text-anchor="middle" x="103" y="-62.6" font-family="Times,serif" font-size="14.00">UserListFieldComponent</text>
</g>
<!-- UserListFieldComponent&#45;&gt;DataFieldsComponentModule -->
<g id="edge38" class="edge">
<title>UserListFieldComponent&#45;&gt;DataFieldsComponentModule</title>
<path fill="none" stroke="black" d="M103,-84.84C103,-106.46 103,-139.8 103,-139.8 103,-139.8 3421.17,-139.8 3421.17,-139.8"/>
<polygon fill="black" stroke="black" points="3421.17,-143.3 3431.17,-139.8 3421.17,-136.3 3421.17,-143.3"/>
</g>
<!-- BooleanFieldComponent  -->
<g id="node39" class="node">
<title>BooleanFieldComponent </title>
<polygon fill="#fb8072" stroke="black" points="4864.27,-214.8 4703.73,-214.8 4703.73,-178.8 4864.27,-178.8 4864.27,-214.8"/>
<text text-anchor="middle" x="4784" y="-192.6" font-family="Times,serif" font-size="14.00">BooleanFieldComponent </text>
</g>
<!-- DataFieldsComponentModule&#45;&gt;BooleanFieldComponent  -->
<g id="edge39" class="edge">
<title>DataFieldsComponentModule&#45;&gt;BooleanFieldComponent </title>
<path fill="none" stroke="black" stroke-dasharray="5,2" d="M3616.54,-141.8C3905.01,-141.8 4768.73,-141.8 4768.73,-141.8 4768.73,-141.8 4768.73,-168.79 4768.73,-168.79"/>
<polygon fill="black" stroke="black" points="4765.23,-168.79 4768.73,-178.79 4772.23,-168.79 4765.23,-168.79"/>
</g>
<!-- ButtonFieldComponent  -->
<g id="node40" class="node">
<title>ButtonFieldComponent </title>
<polygon fill="#fb8072" stroke="black" points="4685.73,-214.8 4534.27,-214.8 4534.27,-178.8 4685.73,-178.8 4685.73,-214.8"/>
<text text-anchor="middle" x="4610" y="-192.6" font-family="Times,serif" font-size="14.00">ButtonFieldComponent </text>
</g>
<!-- DataFieldsComponentModule&#45;&gt;ButtonFieldComponent  -->
<g id="edge40" class="edge">
<title>DataFieldsComponentModule&#45;&gt;ButtonFieldComponent </title>
<path fill="none" stroke="black" stroke-dasharray="5,2" d="M3616.58,-142.8C3870.99,-142.8 4562.04,-142.8 4562.04,-142.8 4562.04,-142.8 4562.04,-168.52 4562.04,-168.52"/>
<polygon fill="black" stroke="black" points="4558.54,-168.52 4562.04,-178.52 4565.54,-168.52 4558.54,-168.52"/>
</g>
<!-- DataFieldTemplateComponent  -->
<g id="node41" class="node">
<title>DataFieldTemplateComponent </title>
<polygon fill="#fb8072" stroke="black" points="4516.4,-214.8 4323.6,-214.8 4323.6,-178.8 4516.4,-178.8 4516.4,-214.8"/>
<text text-anchor="middle" x="4420" y="-192.6" font-family="Times,serif" font-size="14.00">DataFieldTemplateComponent </text>
</g>
<!-- DataFieldsComponentModule&#45;&gt;DataFieldTemplateComponent  -->
<g id="edge41" class="edge">
<title>DataFieldsComponentModule&#45;&gt;DataFieldTemplateComponent </title>
<path fill="none" stroke="black" stroke-dasharray="5,2" d="M3616.6,-144.8C3838.38,-144.8 4381.69,-144.8 4381.69,-144.8 4381.69,-144.8 4381.69,-168.61 4381.69,-168.61"/>
<polygon fill="black" stroke="black" points="4378.19,-168.61 4381.69,-178.61 4385.19,-168.61 4378.19,-168.61"/>
</g>
<!-- DateFieldComponent  -->
<g id="node42" class="node">
<title>DateFieldComponent </title>
<polygon fill="#fb8072" stroke="black" points="4306.04,-214.8 4165.96,-214.8 4165.96,-178.8 4306.04,-178.8 4306.04,-214.8"/>
<text text-anchor="middle" x="4236" y="-192.6" font-family="Times,serif" font-size="14.00">DateFieldComponent </text>
</g>
<!-- DataFieldsComponentModule&#45;&gt;DateFieldComponent  -->
<g id="edge42" class="edge">
<title>DataFieldsComponentModule&#45;&gt;DateFieldComponent </title>
<path fill="none" stroke="black" stroke-dasharray="5,2" d="M3616.76,-145.8C3805.62,-145.8 4217.1,-145.8 4217.1,-145.8 4217.1,-145.8 4217.1,-168.68 4217.1,-168.68"/>
<polygon fill="black" stroke="black" points="4213.6,-168.68 4217.1,-178.68 4220.6,-168.68 4213.6,-168.68"/>
</g>
<!-- DateTimeFieldComponent  -->
<g id="node43" class="node">
<title>DateTimeFieldComponent </title>
<polygon fill="#fb8072" stroke="black" points="4147.58,-214.8 3978.42,-214.8 3978.42,-178.8 4147.58,-178.8 4147.58,-214.8"/>
<text text-anchor="middle" x="4063" y="-192.6" font-family="Times,serif" font-size="14.00">DateTimeFieldComponent </text>
</g>
<!-- DataFieldsComponentModule&#45;&gt;DateTimeFieldComponent  -->
<g id="edge43" class="edge">
<title>DataFieldsComponentModule&#45;&gt;DateTimeFieldComponent </title>
<path fill="none" stroke="black" stroke-dasharray="5,2" d="M3616.63,-147.8C3766.07,-147.8 4043.8,-147.8 4043.8,-147.8 4043.8,-147.8 4043.8,-168.55 4043.8,-168.55"/>
<polygon fill="black" stroke="black" points="4040.3,-168.55 4043.8,-178.55 4047.3,-168.55 4040.3,-168.55"/>
</g>
<!-- EnumerationFieldComponent  -->
<g id="node44" class="node">
<title>EnumerationFieldComponent </title>
<polygon fill="#fb8072" stroke="black" points="3959.92,-214.8 3774.08,-214.8 3774.08,-178.8 3959.92,-178.8 3959.92,-214.8"/>
<text text-anchor="middle" x="3867" y="-192.6" font-family="Times,serif" font-size="14.00">EnumerationFieldComponent </text>
</g>
<!-- DataFieldsComponentModule&#45;&gt;EnumerationFieldComponent  -->
<g id="edge44" class="edge">
<title>DataFieldsComponentModule&#45;&gt;EnumerationFieldComponent </title>
<path fill="none" stroke="black" stroke-dasharray="5,2" d="M3616.82,-148.8C3710.2,-148.8 3840.48,-148.8 3840.48,-148.8 3840.48,-148.8 3840.48,-168.65 3840.48,-168.65"/>
<polygon fill="black" stroke="black" points="3836.98,-168.65 3840.48,-178.65 3843.98,-168.65 3836.98,-168.65"/>
</g>
<!-- FileFieldComponent  -->
<g id="node45" class="node">
<title>FileFieldComponent </title>
<polygon fill="#fb8072" stroke="black" points="3755.89,-214.8 3620.11,-214.8 3620.11,-178.8 3755.89,-178.8 3755.89,-214.8"/>
<text text-anchor="middle" x="3688" y="-192.6" font-family="Times,serif" font-size="14.00">FileFieldComponent </text>
</g>
<!-- DataFieldsComponentModule&#45;&gt;FileFieldComponent  -->
<g id="edge45" class="edge">
<title>DataFieldsComponentModule&#45;&gt;FileFieldComponent </title>
<path fill="none" stroke="black" stroke-dasharray="5,2" d="M3609.68,-149.91C3609.68,-169.14 3609.68,-196.8 3609.68,-196.8 3609.68,-196.8 3610.73,-196.8 3610.73,-196.8"/>
<polygon fill="black" stroke="black" points="3610.24,-200.3 3620.24,-196.8 3610.24,-193.3 3610.24,-200.3"/>
</g>
<!-- FileListFieldComponent  -->
<g id="node46" class="node">
<title>FileListFieldComponent </title>
<polygon fill="#fb8072" stroke="black" points="3602.67,-214.8 3445.33,-214.8 3445.33,-178.8 3602.67,-178.8 3602.67,-214.8"/>
<text text-anchor="middle" x="3524" y="-192.6" font-family="Times,serif" font-size="14.00">FileListFieldComponent </text>
</g>
<!-- DataFieldsComponentModule&#45;&gt;FileListFieldComponent  -->
<g id="edge46" class="edge">
<title>DataFieldsComponentModule&#45;&gt;FileListFieldComponent </title>
<path fill="none" stroke="black" stroke-dasharray="5,2" d="M3524,-149.91C3524,-149.91 3524,-168.79 3524,-168.79"/>
<polygon fill="black" stroke="black" points="3520.5,-168.79 3524,-178.79 3527.5,-168.79 3520.5,-168.79"/>
</g>
<!-- FilterFieldComponent  -->
<g id="node47" class="node">
<title>FilterFieldComponent </title>
<polygon fill="#fb8072" stroke="black" points="3426.94,-214.8 3283.06,-214.8 3283.06,-178.8 3426.94,-178.8 3426.94,-214.8"/>
<text text-anchor="middle" x="3355" y="-192.6" font-family="Times,serif" font-size="14.00">FilterFieldComponent </text>
</g>
<!-- DataFieldsComponentModule&#45;&gt;FilterFieldComponent  -->
<g id="edge47" class="edge">
<title>DataFieldsComponentModule&#45;&gt;FilterFieldComponent </title>
<path fill="none" stroke="black" stroke-dasharray="5,2" d="M3438.32,-149.91C3438.32,-169.14 3438.32,-196.8 3438.32,-196.8 3438.32,-196.8 3437.09,-196.8 3437.09,-196.8"/>
<polygon fill="black" stroke="black" points="3437.09,-193.3 3427.09,-196.8 3437.09,-200.3 3437.09,-193.3"/>
</g>
<!-- I18nFieldComponent  -->
<g id="node48" class="node">
<title>I18nFieldComponent </title>
<polygon fill="#fb8072" stroke="black" points="3264.77,-214.8 3125.23,-214.8 3125.23,-178.8 3264.77,-178.8 3264.77,-214.8"/>
<text text-anchor="middle" x="3195" y="-192.6" font-family="Times,serif" font-size="14.00">I18nFieldComponent </text>
</g>
<!-- DataFieldsComponentModule&#45;&gt;I18nFieldComponent  -->
<g id="edge48" class="edge">
<title>DataFieldsComponentModule&#45;&gt;I18nFieldComponent </title>
<path fill="none" stroke="black" stroke-dasharray="5,2" d="M3431.24,-148.8C3344.08,-148.8 3226.96,-148.8 3226.96,-148.8 3226.96,-148.8 3226.96,-168.65 3226.96,-168.65"/>
<polygon fill="black" stroke="black" points="3223.46,-168.65 3226.96,-178.65 3230.46,-168.65 3223.46,-168.65"/>
</g>
<!-- MultichoiceFieldComponent  -->
<g id="node49" class="node">
<title>MultichoiceFieldComponent </title>
<polygon fill="#fb8072" stroke="black" points="3107.76,-214.8 2926.24,-214.8 2926.24,-178.8 3107.76,-178.8 3107.76,-214.8"/>
<text text-anchor="middle" x="3017" y="-192.6" font-family="Times,serif" font-size="14.00">MultichoiceFieldComponent </text>
</g>
<!-- DataFieldsComponentModule&#45;&gt;MultichoiceFieldComponent  -->
<g id="edge49" class="edge">
<title>DataFieldsComponentModule&#45;&gt;MultichoiceFieldComponent </title>
<path fill="none" stroke="black" stroke-dasharray="5,2" d="M3431.3,-147.8C3285,-147.8 3017,-147.8 3017,-147.8 3017,-147.8 3017,-168.55 3017,-168.55"/>
<polygon fill="black" stroke="black" points="3013.5,-168.55 3017,-178.55 3020.5,-168.55 3013.5,-168.55"/>
</g>
<!-- NumberFieldComponent  -->
<g id="node50" class="node">
<title>NumberFieldComponent </title>
<polygon fill="#fb8072" stroke="black" points="2908.99,-214.8 2749.01,-214.8 2749.01,-178.8 2908.99,-178.8 2908.99,-214.8"/>
<text text-anchor="middle" x="2829" y="-192.6" font-family="Times,serif" font-size="14.00">NumberFieldComponent </text>
</g>
<!-- DataFieldsComponentModule&#45;&gt;NumberFieldComponent  -->
<g id="edge50" class="edge">
<title>DataFieldsComponentModule&#45;&gt;NumberFieldComponent </title>
<path fill="none" stroke="black" stroke-dasharray="5,2" d="M3431.34,-145.8C3258.17,-145.8 2902.81,-145.8 2902.81,-145.8 2902.81,-145.8 2902.81,-168.68 2902.81,-168.68"/>
<polygon fill="black" stroke="black" points="2899.31,-168.68 2902.81,-178.68 2906.31,-168.68 2899.31,-168.68"/>
</g>
<!-- TextFieldComponent  -->
<g id="node51" class="node">
<title>TextFieldComponent </title>
<polygon fill="#fb8072" stroke="black" points="2731.77,-214.8 2592.23,-214.8 2592.23,-178.8 2731.77,-178.8 2731.77,-214.8"/>
<text text-anchor="middle" x="2662" y="-192.6" font-family="Times,serif" font-size="14.00">TextFieldComponent </text>
</g>
<!-- DataFieldsComponentModule&#45;&gt;TextFieldComponent  -->
<g id="edge51" class="edge">
<title>DataFieldsComponentModule&#45;&gt;TextFieldComponent </title>
<path fill="none" stroke="black" stroke-dasharray="5,2" d="M3431.22,-144.8C3220.77,-144.8 2725.38,-144.8 2725.38,-144.8 2725.38,-144.8 2725.38,-168.61 2725.38,-168.61"/>
<polygon fill="black" stroke="black" points="2721.88,-168.61 2725.38,-178.61 2728.88,-168.61 2721.88,-168.61"/>
</g>
<!-- UserFieldComponent  -->
<g id="node52" class="node">
<title>UserFieldComponent </title>
<polygon fill="#fb8072" stroke="black" points="2574.04,-214.8 2433.96,-214.8 2433.96,-178.8 2574.04,-178.8 2574.04,-214.8"/>
<text text-anchor="middle" x="2504" y="-192.6" font-family="Times,serif" font-size="14.00">UserFieldComponent </text>
</g>
<!-- DataFieldsComponentModule&#45;&gt;UserFieldComponent  -->
<g id="edge52" class="edge">
<title>DataFieldsComponentModule&#45;&gt;UserFieldComponent </title>
<path fill="none" stroke="black" stroke-dasharray="5,2" d="M3431.2,-142.8C3185.66,-142.8 2537.63,-142.8 2537.63,-142.8 2537.63,-142.8 2537.63,-168.52 2537.63,-168.52"/>
<polygon fill="black" stroke="black" points="2534.13,-168.52 2537.63,-178.52 2541.13,-168.52 2534.13,-168.52"/>
</g>
<!-- UserListFieldComponent  -->
<g id="node53" class="node">
<title>UserListFieldComponent </title>
<polygon fill="#fb8072" stroke="black" points="2415.82,-214.8 2254.18,-214.8 2254.18,-178.8 2415.82,-178.8 2415.82,-214.8"/>
<text text-anchor="middle" x="2335" y="-192.6" font-family="Times,serif" font-size="14.00">UserListFieldComponent </text>
</g>
<!-- DataFieldsComponentModule&#45;&gt;UserListFieldComponent  -->
<g id="edge53" class="edge">
<title>DataFieldsComponentModule&#45;&gt;UserListFieldComponent </title>
<path fill="none" stroke="black" stroke-dasharray="5,2" d="M3431.37,-141.8C3153.07,-141.8 2343.46,-141.8 2343.46,-141.8 2343.46,-141.8 2343.46,-168.79 2343.46,-168.79"/>
<polygon fill="black" stroke="black" points="2339.96,-168.79 2343.46,-178.79 2346.96,-168.79 2339.96,-168.79"/>
</g>
</g>
</svg>
