<?xml version="1.0" encoding="UTF-8" standalone="no"?>
<!DOCTYPE svg PUBLIC "-//W3C//DTD SVG 1.1//EN"
 "http://www.w3.org/Graphics/SVG/1.1/DTD/svg11.dtd">
<!-- Generated by graphviz version 2.47.0 (20210316.0004)
 -->
<!-- Title: dependencies Pages: 1 -->
<svg width="9440pt" height="284pt"
 viewBox="0.00 0.00 9440.00 284.00" xmlns="http://www.w3.org/2000/svg" xmlns:xlink="http://www.w3.org/1999/xlink">
<g id="graph0" class="graph" transform="scale(1 1) rotate(0) translate(4 280)">
<title>dependencies</title>
<polygon fill="white" stroke="transparent" points="-4,4 -4,-280 9436,-280 9436,4 -4,4"/>
<text text-anchor="start" x="4695.01" y="-42.4" font-family="Times-12" font-weight="bold" font-size="14.00">Legend</text>
<polygon fill="#ffffb3" stroke="transparent" points="4482,-10 4482,-30 4502,-30 4502,-10 4482,-10"/>
<text text-anchor="start" x="4505.63" y="-15.4" font-family="Times-12" font-size="14.00"> &#160;Declarations</text>
<polygon fill="#8dd3c7" stroke="transparent" points="4595,-10 4595,-30 4615,-30 4615,-10 4595,-10"/>
<text text-anchor="start" x="4618.73" y="-15.4" font-family="Times-12" font-size="14.00"> &#160;Module</text>
<polygon fill="#80b1d3" stroke="transparent" points="4681,-10 4681,-30 4701,-30 4701,-10 4681,-10"/>
<text text-anchor="start" x="4704.78" y="-15.4" font-family="Times-12" font-size="14.00"> &#160;Bootstrap</text>
<polygon fill="#fdb462" stroke="transparent" points="4778,-10 4778,-30 4798,-30 4798,-10 4778,-10"/>
<text text-anchor="start" x="4801.67" y="-15.4" font-family="Times-12" font-size="14.00"> &#160;Providers</text>
<polygon fill="#fb8072" stroke="transparent" points="4874,-10 4874,-30 4894,-30 4894,-10 4874,-10"/>
<text text-anchor="start" x="4897.73" y="-15.4" font-family="Times-12" font-size="14.00"> &#160;Exports</text>
<g id="clust1" class="cluster">
<title>cluster_DataFieldsComponentModule</title>
<polygon fill="none" stroke="black" stroke-dasharray="1,5" points="8,-70 8,-268 9424,-268 9424,-70 8,-70"/>
</g>
<g id="clust2" class="cluster">
<title>cluster_DataFieldsComponentModule_declarations</title>
<polygon fill="none" stroke="black" points="16,-78 16,-130 9416,-130 9416,-78 16,-78"/>
</g>
<g id="clust49" class="cluster">
<title>cluster_DataFieldsComponentModule_exports</title>
<polygon fill="none" stroke="black" points="2962,-208 2962,-260 5767,-260 5767,-208 2962,-208"/>
</g>
<!-- BooleanFieldComponent -->
<g id="node1" class="node">
<title>BooleanFieldComponent</title>
<polygon fill="#ffffb3" stroke="black" points="9408.27,-122 9251.73,-122 9251.73,-86 9408.27,-86 9408.27,-122"/>
<text text-anchor="middle" x="9330" y="-99.8" font-family="Times,serif" font-size="14.00">BooleanFieldComponent</text>
</g>
<!-- DataFieldsComponentModule -->
<g id="node46" class="node">
<title>DataFieldsComponentModule</title>
<polygon fill="#8dd3c7" stroke="black" points="4426.53,-187 4423.53,-191 4402.53,-191 4399.53,-187 4241.47,-187 4241.47,-151 4426.53,-151 4426.53,-187"/>
<text text-anchor="middle" x="4334" y="-164.8" font-family="Times,serif" font-size="14.00">DataFieldsComponentModule</text>
</g>
<!-- BooleanFieldComponent&#45;&gt;DataFieldsComponentModule -->
<g id="edge1" class="edge">
<title>BooleanFieldComponent&#45;&gt;DataFieldsComponentModule</title>
<path fill="none" stroke="black" d="M9330,-122.29C9330,-144.21 9330,-178 9330,-178 9330,-178 4436.6,-178 4436.6,-178"/>
<polygon fill="black" stroke="black" points="4436.6,-174.5 4426.6,-178 4436.6,-181.5 4436.6,-174.5"/>
</g>
<!-- ButtonFieldComponent -->
<g id="node2" class="node">
<title>ButtonFieldComponent</title>
<polygon fill="#ffffb3" stroke="black" points="9234.23,-122 9085.77,-122 9085.77,-86 9234.23,-86 9234.23,-122"/>
<text text-anchor="middle" x="9160" y="-99.8" font-family="Times,serif" font-size="14.00">ButtonFieldComponent</text>
</g>
<!-- ButtonFieldComponent&#45;&gt;DataFieldsComponentModule -->
<g id="edge2" class="edge">
<title>ButtonFieldComponent&#45;&gt;DataFieldsComponentModule</title>
<path fill="none" stroke="black" d="M9160,-122.04C9160,-143.66 9160,-177 9160,-177 9160,-177 4436.63,-177 4436.63,-177"/>
<polygon fill="black" stroke="black" points="4436.63,-173.5 4426.63,-177 4436.63,-180.5 4436.63,-173.5"/>
</g>
<!-- DashboardBarChartTextFieldComponent -->
<g id="node3" class="node">
<title>DashboardBarChartTextFieldComponent</title>
<polygon fill="#ffffb3" stroke="black" points="9067.72,-122 8820.28,-122 8820.28,-86 9067.72,-86 9067.72,-122"/>
<text text-anchor="middle" x="8944" y="-99.8" font-family="Times,serif" font-size="14.00">DashboardBarChartTextFieldComponent</text>
</g>
<!-- DashboardBarChartTextFieldComponent&#45;&gt;DataFieldsComponentModule -->
<g id="edge3" class="edge">
<title>DashboardBarChartTextFieldComponent&#45;&gt;DataFieldsComponentModule</title>
<path fill="none" stroke="black" d="M8944,-122.28C8944,-143.32 8944,-175 8944,-175 8944,-175 4436.61,-175 4436.61,-175"/>
<polygon fill="black" stroke="black" points="4436.61,-171.5 4426.61,-175 4436.61,-178.5 4436.61,-171.5"/>
</g>
<!-- DashboardIframeTextFieldComponent -->
<g id="node4" class="node">
<title>DashboardIframeTextFieldComponent</title>
<polygon fill="#ffffb3" stroke="black" points="8801.71,-122 8568.29,-122 8568.29,-86 8801.71,-86 8801.71,-122"/>
<text text-anchor="middle" x="8685" y="-99.8" font-family="Times,serif" font-size="14.00">DashboardIframeTextFieldComponent</text>
</g>
<!-- DashboardIframeTextFieldComponent&#45;&gt;DataFieldsComponentModule -->
<g id="edge4" class="edge">
<title>DashboardIframeTextFieldComponent&#45;&gt;DataFieldsComponentModule</title>
<path fill="none" stroke="black" d="M8685,-122.03C8685,-142.77 8685,-174 8685,-174 8685,-174 4436.64,-174 4436.64,-174"/>
<polygon fill="black" stroke="black" points="4436.64,-170.5 4426.64,-174 4436.64,-177.5 4436.64,-170.5"/>
</g>
<!-- DashboardLineChartTextFieldComponent -->
<g id="node5" class="node">
<title>DashboardLineChartTextFieldComponent</title>
<polygon fill="#ffffb3" stroke="black" points="8550.67,-122 8297.33,-122 8297.33,-86 8550.67,-86 8550.67,-122"/>
<text text-anchor="middle" x="8424" y="-99.8" font-family="Times,serif" font-size="14.00">DashboardLineChartTextFieldComponent</text>
</g>
<!-- DashboardLineChartTextFieldComponent&#45;&gt;DataFieldsComponentModule -->
<g id="edge5" class="edge">
<title>DashboardLineChartTextFieldComponent&#45;&gt;DataFieldsComponentModule</title>
<path fill="none" stroke="black" d="M8424,-122.13C8424,-142.57 8424,-173 8424,-173 8424,-173 4436.62,-173 4436.62,-173"/>
<polygon fill="black" stroke="black" points="4436.62,-169.5 4426.62,-173 4436.62,-176.5 4436.62,-169.5"/>
</g>
<!-- DashboardPieChartTextFieldComponent -->
<g id="node6" class="node">
<title>DashboardPieChartTextFieldComponent</title>
<polygon fill="#ffffb3" stroke="black" points="8279.9,-122 8034.1,-122 8034.1,-86 8279.9,-86 8279.9,-122"/>
<text text-anchor="middle" x="8157" y="-99.8" font-family="Times,serif" font-size="14.00">DashboardPieChartTextFieldComponent</text>
</g>
<!-- DashboardPieChartTextFieldComponent&#45;&gt;DataFieldsComponentModule -->
<g id="edge6" class="edge">
<title>DashboardPieChartTextFieldComponent&#45;&gt;DataFieldsComponentModule</title>
<path fill="none" stroke="black" d="M8157,-122.22C8157,-142.37 8157,-172 8157,-172 8157,-172 4436.61,-172 4436.61,-172"/>
<polygon fill="black" stroke="black" points="4436.61,-168.5 4426.61,-172 4436.61,-175.5 4436.61,-168.5"/>
</g>
<!-- DashboardPortalTextFieldComponent -->
<g id="node7" class="node">
<title>DashboardPortalTextFieldComponent</title>
<polygon fill="#ffffb3" stroke="black" points="8015.85,-122 7786.15,-122 7786.15,-86 8015.85,-86 8015.85,-122"/>
<text text-anchor="middle" x="7901" y="-99.8" font-family="Times,serif" font-size="14.00">DashboardPortalTextFieldComponent</text>
</g>
<!-- DashboardPortalTextFieldComponent&#45;&gt;DataFieldsComponentModule -->
<g id="edge7" class="edge">
<title>DashboardPortalTextFieldComponent&#45;&gt;DataFieldsComponentModule</title>
<path fill="none" stroke="black" d="M7901,-122.31C7901,-142.15 7901,-171 7901,-171 7901,-171 4436.66,-171 4436.66,-171"/>
<polygon fill="black" stroke="black" points="4436.66,-167.5 4426.66,-171 4436.66,-174.5 4436.66,-167.5"/>
</g>
<!-- DataFieldTemplateComponent -->
<g id="node8" class="node">
<title>DataFieldTemplateComponent</title>
<polygon fill="#ffffb3" stroke="black" points="7767.91,-122 7578.09,-122 7578.09,-86 7767.91,-86 7767.91,-122"/>
<text text-anchor="middle" x="7673" y="-99.8" font-family="Times,serif" font-size="14.00">DataFieldTemplateComponent</text>
</g>
<!-- DataFieldTemplateComponent&#45;&gt;DataFieldsComponentModule -->
<g id="edge8" class="edge">
<title>DataFieldTemplateComponent&#45;&gt;DataFieldsComponentModule</title>
<path fill="none" stroke="black" d="M7673,-122.11C7673,-141.34 7673,-169 7673,-169 7673,-169 4436.79,-169 4436.79,-169"/>
<polygon fill="black" stroke="black" points="4436.79,-165.5 4426.79,-169 4436.79,-172.5 4436.79,-165.5"/>
</g>
<!-- DateFieldComponent -->
<g id="node9" class="node">
<title>DateFieldComponent</title>
<polygon fill="#ffffb3" stroke="black" points="7560.04,-122 7423.96,-122 7423.96,-86 7560.04,-86 7560.04,-122"/>
<text text-anchor="middle" x="7492" y="-99.8" font-family="Times,serif" font-size="14.00">DateFieldComponent</text>
</g>
<!-- DateFieldComponent&#45;&gt;DataFieldsComponentModule -->
<g id="edge9" class="edge">
<title>DateFieldComponent&#45;&gt;DataFieldsComponentModule</title>
<path fill="none" stroke="black" d="M7492,-122.17C7492,-141.09 7492,-168 7492,-168 7492,-168 4436.8,-168 4436.8,-168"/>
<polygon fill="black" stroke="black" points="4436.8,-164.5 4426.8,-168 4436.8,-171.5 4436.8,-164.5"/>
</g>
<!-- DateTimeFieldComponent -->
<g id="node10" class="node">
<title>DateTimeFieldComponent</title>
<polygon fill="#ffffb3" stroke="black" points="7406.09,-122 7239.91,-122 7239.91,-86 7406.09,-86 7406.09,-122"/>
<text text-anchor="middle" x="7323" y="-99.8" font-family="Times,serif" font-size="14.00">DateTimeFieldComponent</text>
</g>
<!-- DateTimeFieldComponent&#45;&gt;DataFieldsComponentModule -->
<g id="edge10" class="edge">
<title>DateTimeFieldComponent&#45;&gt;DataFieldsComponentModule</title>
<path fill="none" stroke="black" d="M7323,-122.22C7323,-140.83 7323,-167 7323,-167 7323,-167 4436.73,-167 4436.73,-167"/>
<polygon fill="black" stroke="black" points="4436.73,-163.5 4426.73,-167 4436.73,-170.5 4436.73,-163.5"/>
</g>
<!-- EasymdeWrapperComponent -->
<g id="node11" class="node">
<title>EasymdeWrapperComponent</title>
<polygon fill="#ffffb3" stroke="black" points="7221.61,-122 7040.39,-122 7040.39,-86 7221.61,-86 7221.61,-122"/>
<text text-anchor="middle" x="7131" y="-99.8" font-family="Times,serif" font-size="14.00">EasymdeWrapperComponent</text>
</g>
<!-- EasymdeWrapperComponent&#45;&gt;DataFieldsComponentModule -->
<g id="edge11" class="edge">
<title>EasymdeWrapperComponent&#45;&gt;DataFieldsComponentModule</title>
<path fill="none" stroke="black" d="M7131,-122.27C7131,-140.56 7131,-166 7131,-166 7131,-166 4436.66,-166 4436.66,-166"/>
<polygon fill="black" stroke="black" points="4436.66,-162.5 4426.66,-166 4436.66,-169.5 4436.66,-162.5"/>
</g>
<!-- EnumerationAutocompleteDynamicFieldComponent -->
<g id="node12" class="node">
<title>EnumerationAutocompleteDynamicFieldComponent</title>
<polygon fill="#ffffb3" stroke="black" points="7022.55,-122 6709.45,-122 6709.45,-86 7022.55,-86 7022.55,-122"/>
<text text-anchor="middle" x="6866" y="-99.8" font-family="Times,serif" font-size="14.00">EnumerationAutocompleteDynamicFieldComponent</text>
</g>
<!-- EnumerationAutocompleteDynamicFieldComponent&#45;&gt;DataFieldsComponentModule -->
<g id="edge12" class="edge">
<title>EnumerationAutocompleteDynamicFieldComponent&#45;&gt;DataFieldsComponentModule</title>
<path fill="none" stroke="black" d="M6866,-122.3C6866,-140.27 6866,-165 6866,-165 6866,-165 4436.74,-165 4436.74,-165"/>
<polygon fill="black" stroke="black" points="4436.74,-161.5 4426.74,-165 4436.74,-168.5 4436.74,-161.5"/>
</g>
<!-- EnumerationAutocompleteSelectFieldComponent -->
<g id="node13" class="node">
<title>EnumerationAutocompleteSelectFieldComponent</title>
<polygon fill="#ffffb3" stroke="black" points="6690.95,-122 6395.05,-122 6395.05,-86 6690.95,-86 6690.95,-122"/>
<text text-anchor="middle" x="6543" y="-99.8" font-family="Times,serif" font-size="14.00">EnumerationAutocompleteSelectFieldComponent</text>
</g>
<!-- EnumerationAutocompleteSelectFieldComponent&#45;&gt;DataFieldsComponentModule -->
<g id="edge13" class="edge">
<title>EnumerationAutocompleteSelectFieldComponent&#45;&gt;DataFieldsComponentModule</title>
<path fill="none" stroke="black" d="M6543,-122.02C6543,-139.37 6543,-163 6543,-163 6543,-163 4436.81,-163 4436.81,-163"/>
<polygon fill="black" stroke="black" points="4436.81,-159.5 4426.81,-163 4436.81,-166.5 4436.81,-159.5"/>
</g>
<!-- EnumerationFieldComponent -->
<g id="node14" class="node">
<title>EnumerationFieldComponent</title>
<polygon fill="#ffffb3" stroke="black" points="6377.43,-122 6194.57,-122 6194.57,-86 6377.43,-86 6377.43,-122"/>
<text text-anchor="middle" x="6286" y="-99.8" font-family="Times,serif" font-size="14.00">EnumerationFieldComponent</text>
</g>
<!-- EnumerationFieldComponent&#45;&gt;DataFieldsComponentModule -->
<g id="edge14" class="edge">
<title>EnumerationFieldComponent&#45;&gt;DataFieldsComponentModule</title>
<path fill="none" stroke="black" d="M6286,-122.03C6286,-139.06 6286,-162 6286,-162 6286,-162 4436.84,-162 4436.84,-162"/>
<polygon fill="black" stroke="black" points="4436.84,-158.5 4426.84,-162 4436.84,-165.5 4436.84,-158.5"/>
</g>
<!-- EnumerationIconFieldComponent -->
<g id="node15" class="node">
<title>EnumerationIconFieldComponent</title>
<polygon fill="#ffffb3" stroke="black" points="6176.8,-122 5969.2,-122 5969.2,-86 6176.8,-86 6176.8,-122"/>
<text text-anchor="middle" x="6073" y="-99.8" font-family="Times,serif" font-size="14.00">EnumerationIconFieldComponent</text>
</g>
<!-- EnumerationIconFieldComponent&#45;&gt;DataFieldsComponentModule -->
<g id="edge15" class="edge">
<title>EnumerationIconFieldComponent&#45;&gt;DataFieldsComponentModule</title>
<path fill="none" stroke="black" d="M6073,-122.04C6073,-138.73 6073,-161 6073,-161 6073,-161 4436.57,-161 4436.57,-161"/>
<polygon fill="black" stroke="black" points="4436.57,-157.5 4426.57,-161 4436.57,-164.5 4436.57,-157.5"/>
</g>
<!-- EnumerationListFieldComponent -->
<g id="node16" class="node">
<title>EnumerationListFieldComponent</title>
<polygon fill="#ffffb3" stroke="black" points="5951.2,-122 5746.8,-122 5746.8,-86 5951.2,-86 5951.2,-122"/>
<text text-anchor="middle" x="5849" y="-99.8" font-family="Times,serif" font-size="14.00">EnumerationListFieldComponent</text>
</g>
<!-- EnumerationListFieldComponent&#45;&gt;DataFieldsComponentModule -->
<g id="edge16" class="edge">
<title>EnumerationListFieldComponent&#45;&gt;DataFieldsComponentModule</title>
<path fill="none" stroke="black" d="M5753.02,-122.03C5753.02,-138.4 5753.02,-160 5753.02,-160 5753.02,-160 4436.56,-160 4436.56,-160"/>
<polygon fill="black" stroke="black" points="4436.56,-156.5 4426.56,-160 4436.56,-163.5 4436.56,-156.5"/>
</g>
<!-- EnumerationSelectFieldComponent -->
<g id="node17" class="node">
<title>EnumerationSelectFieldComponent</title>
<polygon fill="#ffffb3" stroke="black" points="5729.13,-122 5512.87,-122 5512.87,-86 5729.13,-86 5729.13,-122"/>
<text text-anchor="middle" x="5621" y="-99.8" font-family="Times,serif" font-size="14.00">EnumerationSelectFieldComponent</text>
</g>
<!-- EnumerationSelectFieldComponent&#45;&gt;DataFieldsComponentModule -->
<g id="edge17" class="edge">
<title>EnumerationSelectFieldComponent&#45;&gt;DataFieldsComponentModule</title>
<path fill="none" stroke="black" d="M5546.77,-122.01C5546.77,-138.05 5546.77,-159 5546.77,-159 5546.77,-159 4436.65,-159 4436.65,-159"/>
<polygon fill="black" stroke="black" points="4436.65,-155.5 4426.65,-159 4436.65,-162.5 4436.65,-155.5"/>
</g>
<!-- EnumerationStepperFieldComponent -->
<g id="node18" class="node">
<title>EnumerationStepperFieldComponent</title>
<polygon fill="#ffffb3" stroke="black" points="5494.69,-122 5269.31,-122 5269.31,-86 5494.69,-86 5494.69,-122"/>
<text text-anchor="middle" x="5382" y="-99.8" font-family="Times,serif" font-size="14.00">EnumerationStepperFieldComponent</text>
</g>
<!-- EnumerationStepperFieldComponent&#45;&gt;DataFieldsComponentModule -->
<g id="edge18" class="edge">
<title>EnumerationStepperFieldComponent&#45;&gt;DataFieldsComponentModule</title>
<path fill="none" stroke="black" d="M5340.43,-122.24C5340.43,-137.57 5340.43,-157 5340.43,-157 5340.43,-157 4436.88,-157 4436.88,-157"/>
<polygon fill="black" stroke="black" points="4436.88,-153.5 4426.88,-157 4436.88,-160.5 4436.88,-153.5"/>
</g>
<!-- FileFieldComponent -->
<g id="node19" class="node">
<title>FileFieldComponent</title>
<polygon fill="#ffffb3" stroke="black" points="5250.89,-122 5119.11,-122 5119.11,-86 5250.89,-86 5250.89,-122"/>
<text text-anchor="middle" x="5185" y="-99.8" font-family="Times,serif" font-size="14.00">FileFieldComponent</text>
</g>
<!-- FileFieldComponent&#45;&gt;DataFieldsComponentModule -->
<g id="edge19" class="edge">
<title>FileFieldComponent&#45;&gt;DataFieldsComponentModule</title>
<path fill="none" stroke="black" d="M5160.04,-122.19C5160.04,-137.18 5160.04,-156 5160.04,-156 5160.04,-156 4436.75,-156 4436.75,-156"/>
<polygon fill="black" stroke="black" points="4436.75,-152.5 4426.75,-156 4436.75,-159.5 4436.75,-152.5"/>
</g>
<!-- FileListFieldComponent -->
<g id="node20" class="node">
<title>FileListFieldComponent</title>
<polygon fill="#ffffb3" stroke="black" points="5100.67,-122 4947.33,-122 4947.33,-86 5100.67,-86 5100.67,-122"/>
<text text-anchor="middle" x="5024" y="-99.8" font-family="Times,serif" font-size="14.00">FileListFieldComponent</text>
</g>
<!-- FileListFieldComponent&#45;&gt;DataFieldsComponentModule -->
<g id="edge20" class="edge">
<title>FileListFieldComponent&#45;&gt;DataFieldsComponentModule</title>
<path fill="none" stroke="black" d="M4994.98,-122.12C4994.98,-136.78 4994.98,-155 4994.98,-155 4994.98,-155 4436.6,-155 4436.6,-155"/>
<polygon fill="black" stroke="black" points="4436.6,-151.5 4426.6,-155 4436.6,-158.5 4436.6,-151.5"/>
</g>
<!-- FilterFieldComponent -->
<g id="node21" class="node">
<title>FilterFieldComponent</title>
<polygon fill="#ffffb3" stroke="black" points="4929.44,-122 4788.56,-122 4788.56,-86 4929.44,-86 4929.44,-122"/>
<text text-anchor="middle" x="4859" y="-99.8" font-family="Times,serif" font-size="14.00">FilterFieldComponent</text>
</g>
<!-- FilterFieldComponent&#45;&gt;DataFieldsComponentModule -->
<g id="edge21" class="edge">
<title>FilterFieldComponent&#45;&gt;DataFieldsComponentModule</title>
<path fill="none" stroke="black" d="M4821.87,-122.05C4821.87,-136.37 4821.87,-154 4821.87,-154 4821.87,-154 4436.63,-154 4436.63,-154"/>
<polygon fill="black" stroke="black" points="4436.63,-150.5 4426.63,-154 4436.63,-157.5 4436.63,-150.5"/>
</g>
<!-- FilterFieldContentComponent -->
<g id="node22" class="node">
<title>FilterFieldContentComponent</title>
<polygon fill="#ffffb3" stroke="black" points="4770.27,-122 4585.73,-122 4585.73,-86 4770.27,-86 4770.27,-122"/>
<text text-anchor="middle" x="4678" y="-99.8" font-family="Times,serif" font-size="14.00">FilterFieldContentComponent</text>
</g>
<!-- FilterFieldContentComponent&#45;&gt;DataFieldsComponentModule -->
<g id="edge22" class="edge">
<title>FilterFieldContentComponent&#45;&gt;DataFieldsComponentModule</title>
<path fill="none" stroke="black" d="M4618.15,-122.25C4618.15,-136.18 4618.15,-153 4618.15,-153 4618.15,-153 4436.65,-153 4436.65,-153"/>
<polygon fill="black" stroke="black" points="4436.65,-149.5 4426.65,-153 4436.65,-156.5 4436.65,-149.5"/>
</g>
<!-- FilterFieldTabViewContentComponent -->
<g id="node23" class="node">
<title>FilterFieldTabViewContentComponent</title>
<polygon fill="#ffffb3" stroke="black" points="4567.36,-122 4330.64,-122 4330.64,-86 4567.36,-86 4567.36,-122"/>
<text text-anchor="middle" x="4449" y="-99.8" font-family="Times,serif" font-size="14.00">FilterFieldTabViewContentComponent</text>
</g>
<!-- FilterFieldTabViewContentComponent&#45;&gt;DataFieldsComponentModule -->
<g id="edge23" class="edge">
<title>FilterFieldTabViewContentComponent&#45;&gt;DataFieldsComponentModule</title>
<path fill="none" stroke="black" d="M4378.67,-122.11C4378.67,-122.11 4378.67,-140.99 4378.67,-140.99"/>
<polygon fill="black" stroke="black" points="4375.17,-140.99 4378.67,-150.99 4382.17,-140.99 4375.17,-140.99"/>
</g>
<!-- HtmlTextareaFieldComponent -->
<g id="node24" class="node">
<title>HtmlTextareaFieldComponent</title>
<polygon fill="#ffffb3" stroke="black" points="4312.85,-122 4125.15,-122 4125.15,-86 4312.85,-86 4312.85,-122"/>
<text text-anchor="middle" x="4219" y="-99.8" font-family="Times,serif" font-size="14.00">HtmlTextareaFieldComponent</text>
</g>
<!-- HtmlTextareaFieldComponent&#45;&gt;DataFieldsComponentModule -->
<g id="edge24" class="edge">
<title>HtmlTextareaFieldComponent&#45;&gt;DataFieldsComponentModule</title>
<path fill="none" stroke="black" d="M4277.08,-122.11C4277.08,-122.11 4277.08,-140.99 4277.08,-140.99"/>
<polygon fill="black" stroke="black" points="4273.58,-140.99 4277.08,-150.99 4280.58,-140.99 4273.58,-140.99"/>
</g>
<!-- I18nDividerFieldComponent -->
<g id="node25" class="node">
<title>I18nDividerFieldComponent</title>
<polygon fill="#ffffb3" stroke="black" points="4107.04,-122 3928.96,-122 3928.96,-86 4107.04,-86 4107.04,-122"/>
<text text-anchor="middle" x="4018" y="-99.8" font-family="Times,serif" font-size="14.00">I18nDividerFieldComponent</text>
</g>
<!-- I18nDividerFieldComponent&#45;&gt;DataFieldsComponentModule -->
<g id="edge25" class="edge">
<title>I18nDividerFieldComponent&#45;&gt;DataFieldsComponentModule</title>
<path fill="none" stroke="black" d="M4063.82,-122.25C4063.82,-136.18 4063.82,-153 4063.82,-153 4063.82,-153 4231.4,-153 4231.4,-153"/>
<polygon fill="black" stroke="black" points="4231.4,-156.5 4241.4,-153 4231.4,-149.5 4231.4,-156.5"/>
</g>
<!-- I18nFieldComponent -->
<g id="node26" class="node">
<title>I18nFieldComponent</title>
<polygon fill="#ffffb3" stroke="black" points="3910.77,-122 3775.23,-122 3775.23,-86 3910.77,-86 3910.77,-122"/>
<text text-anchor="middle" x="3843" y="-99.8" font-family="Times,serif" font-size="14.00">I18nFieldComponent</text>
</g>
<!-- I18nFieldComponent&#45;&gt;DataFieldsComponentModule -->
<g id="edge26" class="edge">
<title>I18nFieldComponent&#45;&gt;DataFieldsComponentModule</title>
<path fill="none" stroke="black" d="M3866.13,-122.05C3866.13,-136.37 3866.13,-154 3866.13,-154 3866.13,-154 4231.28,-154 4231.28,-154"/>
<polygon fill="black" stroke="black" points="4231.28,-157.5 4241.28,-154 4231.28,-150.5 4231.28,-157.5"/>
</g>
<!-- I18nTextFieldComponent -->
<g id="node27" class="node">
<title>I18nTextFieldComponent</title>
<polygon fill="#ffffb3" stroke="black" points="3756.93,-122 3595.07,-122 3595.07,-86 3756.93,-86 3756.93,-122"/>
<text text-anchor="middle" x="3676" y="-99.8" font-family="Times,serif" font-size="14.00">I18nTextFieldComponent</text>
</g>
<!-- I18nTextFieldComponent&#45;&gt;DataFieldsComponentModule -->
<g id="edge27" class="edge">
<title>I18nTextFieldComponent&#45;&gt;DataFieldsComponentModule</title>
<path fill="none" stroke="black" d="M3700.49,-122.12C3700.49,-136.78 3700.49,-155 3700.49,-155 3700.49,-155 4231.2,-155 4231.2,-155"/>
<polygon fill="black" stroke="black" points="4231.2,-158.5 4241.2,-155 4231.2,-151.5 4231.2,-158.5"/>
</g>
<!-- MultichoiceAutocompleteFieldComponent -->
<g id="node28" class="node">
<title>MultichoiceAutocompleteFieldComponent</title>
<polygon fill="#ffffb3" stroke="black" points="3577.57,-122 3320.43,-122 3320.43,-86 3577.57,-86 3577.57,-122"/>
<text text-anchor="middle" x="3449" y="-99.8" font-family="Times,serif" font-size="14.00">MultichoiceAutocompleteFieldComponent</text>
</g>
<!-- MultichoiceAutocompleteFieldComponent&#45;&gt;DataFieldsComponentModule -->
<g id="edge28" class="edge">
<title>MultichoiceAutocompleteFieldComponent&#45;&gt;DataFieldsComponentModule</title>
<path fill="none" stroke="black" d="M3521.51,-122.19C3521.51,-137.18 3521.51,-156 3521.51,-156 3521.51,-156 4231.19,-156 4231.19,-156"/>
<polygon fill="black" stroke="black" points="4231.19,-159.5 4241.19,-156 4231.19,-152.5 4231.19,-159.5"/>
</g>
<!-- MultichoiceFieldComponent -->
<g id="node29" class="node">
<title>MultichoiceFieldComponent</title>
<polygon fill="#ffffb3" stroke="black" points="3302.76,-122 3125.24,-122 3125.24,-86 3302.76,-86 3302.76,-122"/>
<text text-anchor="middle" x="3214" y="-99.8" font-family="Times,serif" font-size="14.00">MultichoiceFieldComponent</text>
</g>
<!-- MultichoiceFieldComponent&#45;&gt;DataFieldsComponentModule -->
<g id="edge29" class="edge">
<title>MultichoiceFieldComponent&#45;&gt;DataFieldsComponentModule</title>
<path fill="none" stroke="black" d="M3296.45,-122.24C3296.45,-137.57 3296.45,-157 3296.45,-157 3296.45,-157 4231.01,-157 4231.01,-157"/>
<polygon fill="black" stroke="black" points="4231.01,-160.5 4241.01,-157 4231.01,-153.5 4231.01,-160.5"/>
</g>
<!-- MultichoiceListFieldComponent -->
<g id="node30" class="node">
<title>MultichoiceListFieldComponent</title>
<polygon fill="#ffffb3" stroke="black" points="3106.54,-122 2907.46,-122 2907.46,-86 3106.54,-86 3106.54,-122"/>
<text text-anchor="middle" x="3007" y="-99.8" font-family="Times,serif" font-size="14.00">MultichoiceListFieldComponent</text>
</g>
<!-- MultichoiceListFieldComponent&#45;&gt;DataFieldsComponentModule -->
<g id="edge30" class="edge">
<title>MultichoiceListFieldComponent&#45;&gt;DataFieldsComponentModule</title>
<path fill="none" stroke="black" d="M3038.43,-122.01C3038.43,-138.05 3038.43,-159 3038.43,-159 3038.43,-159 4231.35,-159 4231.35,-159"/>
<polygon fill="black" stroke="black" points="4231.35,-162.5 4241.35,-159 4231.35,-155.5 4231.35,-162.5"/>
</g>
<!-- MultichoiceSelectFieldComponent -->
<g id="node31" class="node">
<title>MultichoiceSelectFieldComponent</title>
<polygon fill="#ffffb3" stroke="black" points="2888.97,-122 2677.03,-122 2677.03,-86 2888.97,-86 2888.97,-122"/>
<text text-anchor="middle" x="2783" y="-99.8" font-family="Times,serif" font-size="14.00">MultichoiceSelectFieldComponent</text>
</g>
<!-- MultichoiceSelectFieldComponent&#45;&gt;DataFieldsComponentModule -->
<g id="edge31" class="edge">
<title>MultichoiceSelectFieldComponent&#45;&gt;DataFieldsComponentModule</title>
<path fill="none" stroke="black" d="M2783,-122.03C2783,-138.4 2783,-160 2783,-160 2783,-160 4231.34,-160 4231.34,-160"/>
<polygon fill="black" stroke="black" points="4231.34,-163.5 4241.34,-160 4231.34,-156.5 4231.34,-163.5"/>
</g>
<!-- NumberCurrencyFieldComponent -->
<g id="node32" class="node">
<title>NumberCurrencyFieldComponent</title>
<polygon fill="#ffffb3" stroke="black" points="2659.07,-122 2450.93,-122 2450.93,-86 2659.07,-86 2659.07,-122"/>
<text text-anchor="middle" x="2555" y="-99.8" font-family="Times,serif" font-size="14.00">NumberCurrencyFieldComponent</text>
</g>
<!-- NumberCurrencyFieldComponent&#45;&gt;DataFieldsComponentModule -->
<g id="edge32" class="edge">
<title>NumberCurrencyFieldComponent&#45;&gt;DataFieldsComponentModule</title>
<path fill="none" stroke="black" d="M2555,-122.04C2555,-138.73 2555,-161 2555,-161 2555,-161 4231.17,-161 4231.17,-161"/>
<polygon fill="black" stroke="black" points="4231.17,-164.5 4241.17,-161 4231.17,-157.5 4231.17,-164.5"/>
</g>
<!-- NumberDefaultFieldComponent -->
<g id="node33" class="node">
<title>NumberDefaultFieldComponent</title>
<polygon fill="#ffffb3" stroke="black" points="2432.96,-122 2235.04,-122 2235.04,-86 2432.96,-86 2432.96,-122"/>
<text text-anchor="middle" x="2334" y="-99.8" font-family="Times,serif" font-size="14.00">NumberDefaultFieldComponent</text>
</g>
<!-- NumberDefaultFieldComponent&#45;&gt;DataFieldsComponentModule -->
<g id="edge33" class="edge">
<title>NumberDefaultFieldComponent&#45;&gt;DataFieldsComponentModule</title>
<path fill="none" stroke="black" d="M2301.01,-122.02C2301.01,-139.37 2301.01,-163 2301.01,-163 2301.01,-163 4231.36,-163 4231.36,-163"/>
<polygon fill="black" stroke="black" points="4231.36,-166.5 4241.36,-163 4231.36,-159.5 4231.36,-166.5"/>
</g>
<!-- NumberDefaultFieldComponent&#45;&gt;DataFieldsComponentModule -->
<g id="edge34" class="edge">
<title>NumberDefaultFieldComponent&#45;&gt;DataFieldsComponentModule</title>
<path fill="none" stroke="black" d="M2366.99,-122.03C2366.99,-139.06 2366.99,-162 2366.99,-162 2366.99,-162 4231.44,-162 4231.44,-162"/>
<polygon fill="black" stroke="black" points="4231.44,-165.5 4241.44,-162 4231.44,-158.5 4231.44,-165.5"/>
</g>
<!-- NumberFieldComponent -->
<g id="node34" class="node">
<title>NumberFieldComponent</title>
<polygon fill="#ffffb3" stroke="black" points="2216.98,-122 2061.02,-122 2061.02,-86 2216.98,-86 2216.98,-122"/>
<text text-anchor="middle" x="2139" y="-99.8" font-family="Times,serif" font-size="14.00">NumberFieldComponent</text>
</g>
<!-- NumberFieldComponent&#45;&gt;DataFieldsComponentModule -->
<g id="edge35" class="edge">
<title>NumberFieldComponent&#45;&gt;DataFieldsComponentModule</title>
<path fill="none" stroke="black" d="M2139,-122.3C2139,-140.27 2139,-165 2139,-165 2139,-165 4231.43,-165 4231.43,-165"/>
<polygon fill="black" stroke="black" points="4231.43,-168.5 4241.43,-165 4231.43,-161.5 4231.43,-168.5"/>
</g>
<!-- PasswordTextFieldComponent -->
<g id="node35" class="node">
<title>PasswordTextFieldComponent</title>
<polygon fill="#ffffb3" stroke="black" points="2042.92,-122 1853.08,-122 1853.08,-86 2042.92,-86 2042.92,-122"/>
<text text-anchor="middle" x="1948" y="-99.8" font-family="Times,serif" font-size="14.00">PasswordTextFieldComponent</text>
</g>
<!-- PasswordTextFieldComponent&#45;&gt;DataFieldsComponentModule -->
<g id="edge36" class="edge">
<title>PasswordTextFieldComponent&#45;&gt;DataFieldsComponentModule</title>
<path fill="none" stroke="black" d="M1948,-122.27C1948,-140.56 1948,-166 1948,-166 1948,-166 4231.2,-166 4231.2,-166"/>
<polygon fill="black" stroke="black" points="4231.2,-169.5 4241.2,-166 4231.2,-162.5 4231.2,-169.5"/>
</g>
<!-- PreviewDialogComponent -->
<g id="node36" class="node">
<title>PreviewDialogComponent</title>
<polygon fill="#ffffb3" stroke="black" points="1835.8,-122 1670.2,-122 1670.2,-86 1835.8,-86 1835.8,-122"/>
<text text-anchor="middle" x="1753" y="-99.8" font-family="Times,serif" font-size="14.00">PreviewDialogComponent</text>
</g>
<!-- PreviewDialogComponent&#45;&gt;DataFieldsComponentModule -->
<g id="edge37" class="edge">
<title>PreviewDialogComponent&#45;&gt;DataFieldsComponentModule</title>
<path fill="none" stroke="black" d="M1753,-122.22C1753,-140.83 1753,-167 1753,-167 1753,-167 4231.38,-167 4231.38,-167"/>
<polygon fill="black" stroke="black" points="4231.38,-170.5 4241.38,-167 4231.38,-163.5 4231.38,-170.5"/>
</g>
<!-- RequiredLabelComponent -->
<g id="node37" class="node">
<title>RequiredLabelComponent</title>
<polygon fill="#ffffb3" stroke="black" points="1652.02,-122 1487.98,-122 1487.98,-86 1652.02,-86 1652.02,-122"/>
<text text-anchor="middle" x="1570" y="-99.8" font-family="Times,serif" font-size="14.00">RequiredLabelComponent</text>
</g>
<!-- RequiredLabelComponent&#45;&gt;DataFieldsComponentModule -->
<g id="edge38" class="edge">
<title>RequiredLabelComponent&#45;&gt;DataFieldsComponentModule</title>
<path fill="none" stroke="black" d="M1570,-122.17C1570,-141.09 1570,-168 1570,-168 1570,-168 4231.25,-168 4231.25,-168"/>
<polygon fill="black" stroke="black" points="4231.25,-171.5 4241.25,-168 4231.25,-164.5 4231.25,-171.5"/>
</g>
<!-- RichTextareaFieldComponent -->
<g id="node38" class="node">
<title>RichTextareaFieldComponent</title>
<polygon fill="#ffffb3" stroke="black" points="1469.52,-122 1284.48,-122 1284.48,-86 1469.52,-86 1469.52,-122"/>
<text text-anchor="middle" x="1377" y="-99.8" font-family="Times,serif" font-size="14.00">RichTextareaFieldComponent</text>
</g>
<!-- RichTextareaFieldComponent&#45;&gt;DataFieldsComponentModule -->
<g id="edge39" class="edge">
<title>RichTextareaFieldComponent&#45;&gt;DataFieldsComponentModule</title>
<path fill="none" stroke="black" d="M1377,-122.11C1377,-141.34 1377,-169 1377,-169 1377,-169 4231.44,-169 4231.44,-169"/>
<polygon fill="black" stroke="black" points="4231.44,-172.5 4241.44,-169 4231.44,-165.5 4231.44,-172.5"/>
</g>
<!-- SimpleTextFieldComponent -->
<g id="node39" class="node">
<title>SimpleTextFieldComponent</title>
<polygon fill="#ffffb3" stroke="black" points="1266.94,-122 1091.06,-122 1091.06,-86 1266.94,-86 1266.94,-122"/>
<text text-anchor="middle" x="1179" y="-99.8" font-family="Times,serif" font-size="14.00">SimpleTextFieldComponent</text>
</g>
<!-- SimpleTextFieldComponent&#45;&gt;DataFieldsComponentModule -->
<g id="edge40" class="edge">
<title>SimpleTextFieldComponent&#45;&gt;DataFieldsComponentModule</title>
<path fill="none" stroke="black" d="M1179,-122.31C1179,-142.15 1179,-171 1179,-171 1179,-171 4231.29,-171 4231.29,-171"/>
<polygon fill="black" stroke="black" points="4231.29,-174.5 4241.29,-171 4231.29,-167.5 4231.29,-174.5"/>
</g>
<!-- TaskRefDashboardTileComponent -->
<g id="node40" class="node">
<title>TaskRefDashboardTileComponent</title>
<polygon fill="#ffffb3" stroke="black" points="1072.95,-122 861.05,-122 861.05,-86 1072.95,-86 1072.95,-122"/>
<text text-anchor="middle" x="967" y="-99.8" font-family="Times,serif" font-size="14.00">TaskRefDashboardTileComponent</text>
</g>
<!-- TaskRefDashboardTileComponent&#45;&gt;DataFieldsComponentModule -->
<g id="edge41" class="edge">
<title>TaskRefDashboardTileComponent&#45;&gt;DataFieldsComponentModule</title>
<path fill="none" stroke="black" d="M967,-122.22C967,-142.37 967,-172 967,-172 967,-172 4231.32,-172 4231.32,-172"/>
<polygon fill="black" stroke="black" points="4231.32,-175.5 4241.32,-172 4231.32,-168.5 4231.32,-175.5"/>
</g>
<!-- TaskRefFieldComponent -->
<g id="node41" class="node">
<title>TaskRefFieldComponent</title>
<polygon fill="#ffffb3" stroke="black" points="842.54,-122 685.46,-122 685.46,-86 842.54,-86 842.54,-122"/>
<text text-anchor="middle" x="764" y="-99.8" font-family="Times,serif" font-size="14.00">TaskRefFieldComponent</text>
</g>
<!-- TaskRefFieldComponent&#45;&gt;DataFieldsComponentModule -->
<g id="edge42" class="edge">
<title>TaskRefFieldComponent&#45;&gt;DataFieldsComponentModule</title>
<path fill="none" stroke="black" d="M764,-122.13C764,-142.57 764,-173 764,-173 764,-173 4231.26,-173 4231.26,-173"/>
<polygon fill="black" stroke="black" points="4231.26,-176.5 4241.26,-173 4231.26,-169.5 4231.26,-176.5"/>
</g>
<!-- TextFieldComponent -->
<g id="node42" class="node">
<title>TextFieldComponent</title>
<polygon fill="#ffffb3" stroke="black" points="666.77,-122 531.23,-122 531.23,-86 666.77,-86 666.77,-122"/>
<text text-anchor="middle" x="599" y="-99.8" font-family="Times,serif" font-size="14.00">TextFieldComponent</text>
</g>
<!-- TextFieldComponent&#45;&gt;DataFieldsComponentModule -->
<g id="edge43" class="edge">
<title>TextFieldComponent&#45;&gt;DataFieldsComponentModule</title>
<path fill="none" stroke="black" d="M599,-122.03C599,-142.77 599,-174 599,-174 599,-174 4231.21,-174 4231.21,-174"/>
<polygon fill="black" stroke="black" points="4231.21,-177.5 4241.21,-174 4231.21,-170.5 4231.21,-177.5"/>
</g>
<!-- TextareaFieldComponent -->
<g id="node43" class="node">
<title>TextareaFieldComponent</title>
<polygon fill="#ffffb3" stroke="black" points="513.57,-122 354.43,-122 354.43,-86 513.57,-86 513.57,-122"/>
<text text-anchor="middle" x="434" y="-99.8" font-family="Times,serif" font-size="14.00">TextareaFieldComponent</text>
</g>
<!-- TextareaFieldComponent&#45;&gt;DataFieldsComponentModule -->
<g id="edge44" class="edge">
<title>TextareaFieldComponent&#45;&gt;DataFieldsComponentModule</title>
<path fill="none" stroke="black" d="M434,-122.28C434,-143.32 434,-175 434,-175 434,-175 4231.44,-175 4231.44,-175"/>
<polygon fill="black" stroke="black" points="4231.44,-178.5 4241.44,-175 4231.44,-171.5 4231.44,-178.5"/>
</g>
<!-- UserFieldComponent -->
<g id="node44" class="node">
<title>UserFieldComponent</title>
<polygon fill="#ffffb3" stroke="black" points="336.04,-122 199.96,-122 199.96,-86 336.04,-86 336.04,-122"/>
<text text-anchor="middle" x="268" y="-99.8" font-family="Times,serif" font-size="14.00">UserFieldComponent</text>
</g>
<!-- UserFieldComponent&#45;&gt;DataFieldsComponentModule -->
<g id="edge45" class="edge">
<title>UserFieldComponent&#45;&gt;DataFieldsComponentModule</title>
<path fill="none" stroke="black" d="M268,-122.04C268,-143.66 268,-177 268,-177 268,-177 4231.44,-177 4231.44,-177"/>
<polygon fill="black" stroke="black" points="4231.44,-180.5 4241.44,-177 4231.44,-173.5 4231.44,-180.5"/>
</g>
<!-- UserListFieldComponent -->
<g id="node45" class="node">
<title>UserListFieldComponent</title>
<polygon fill="#ffffb3" stroke="black" points="182.32,-122 23.68,-122 23.68,-86 182.32,-86 182.32,-122"/>
<text text-anchor="middle" x="103" y="-99.8" font-family="Times,serif" font-size="14.00">UserListFieldComponent</text>
</g>
<!-- UserListFieldComponent&#45;&gt;DataFieldsComponentModule -->
<g id="edge46" class="edge">
<title>UserListFieldComponent&#45;&gt;DataFieldsComponentModule</title>
<path fill="none" stroke="black" d="M103,-122.29C103,-144.21 103,-178 103,-178 103,-178 4231.2,-178 4231.2,-178"/>
<polygon fill="black" stroke="black" points="4231.2,-181.5 4241.2,-178 4231.2,-174.5 4231.2,-181.5"/>
</g>
<!-- BooleanFieldComponent  -->
<g id="node47" class="node">
<title>BooleanFieldComponent </title>
<polygon fill="#fb8072" stroke="black" points="5759.27,-252 5598.73,-252 5598.73,-216 5759.27,-216 5759.27,-252"/>
<text text-anchor="middle" x="5679" y="-229.8" font-family="Times,serif" font-size="14.00">BooleanFieldComponent </text>
</g>
<!-- DataFieldsComponentModule&#45;&gt;BooleanFieldComponent  -->
<g id="edge47" class="edge">
<title>DataFieldsComponentModule&#45;&gt;BooleanFieldComponent </title>
<path fill="none" stroke="black" stroke-dasharray="5,2" d="M4426.74,-179C4728.65,-179 5664.09,-179 5664.09,-179 5664.09,-179 5664.09,-205.99 5664.09,-205.99"/>
<polygon fill="black" stroke="black" points="5660.59,-205.99 5664.09,-215.99 5667.59,-205.99 5660.59,-205.99"/>
</g>
<!-- ButtonFieldComponent  -->
<g id="node48" class="node">
<title>ButtonFieldComponent </title>
<polygon fill="#fb8072" stroke="black" points="5580.73,-252 5429.27,-252 5429.27,-216 5580.73,-216 5580.73,-252"/>
<text text-anchor="middle" x="5505" y="-229.8" font-family="Times,serif" font-size="14.00">ButtonFieldComponent </text>
</g>
<!-- DataFieldsComponentModule&#45;&gt;ButtonFieldComponent  -->
<g id="edge48" class="edge">
<title>DataFieldsComponentModule&#45;&gt;ButtonFieldComponent </title>
<path fill="none" stroke="black" stroke-dasharray="5,2" d="M4426.78,-180C4696.57,-180 5461.86,-180 5461.86,-180 5461.86,-180 5461.86,-205.72 5461.86,-205.72"/>
<polygon fill="black" stroke="black" points="5458.36,-205.72 5461.86,-215.72 5465.36,-205.72 5458.36,-205.72"/>
</g>
<!-- DataFieldTemplateComponent  -->
<g id="node49" class="node">
<title>DataFieldTemplateComponent </title>
<polygon fill="#fb8072" stroke="black" points="5411.41,-252 5218.59,-252 5218.59,-216 5411.41,-216 5411.41,-252"/>
<text text-anchor="middle" x="5315" y="-229.8" font-family="Times,serif" font-size="14.00">DataFieldTemplateComponent </text>
</g>
<!-- DataFieldsComponentModule&#45;&gt;DataFieldTemplateComponent  -->
<g id="edge49" class="edge">
<title>DataFieldsComponentModule&#45;&gt;DataFieldTemplateComponent </title>
<path fill="none" stroke="black" stroke-dasharray="5,2" d="M4426.58,-181C4656.44,-181 5234.75,-181 5234.75,-181 5234.75,-181 5234.75,-205.76 5234.75,-205.76"/>
<polygon fill="black" stroke="black" points="5231.25,-205.76 5234.75,-215.76 5238.25,-205.76 5231.25,-205.76"/>
</g>
<!-- DateFieldComponent  -->
<g id="node50" class="node">
<title>DateFieldComponent </title>
<polygon fill="#fb8072" stroke="black" points="5201.04,-252 5060.96,-252 5060.96,-216 5201.04,-216 5201.04,-252"/>
<text text-anchor="middle" x="5131" y="-229.8" font-family="Times,serif" font-size="14.00">DateFieldComponent </text>
</g>
<!-- DataFieldsComponentModule&#45;&gt;DateFieldComponent  -->
<g id="edge50" class="edge">
<title>DataFieldsComponentModule&#45;&gt;DateFieldComponent </title>
<path fill="none" stroke="black" stroke-dasharray="5,2" d="M4426.71,-183C4626.74,-183 5080.91,-183 5080.91,-183 5080.91,-183 5080.91,-205.88 5080.91,-205.88"/>
<polygon fill="black" stroke="black" points="5077.41,-205.88 5080.91,-215.88 5084.41,-205.88 5077.41,-205.88"/>
</g>
<!-- DateTimeFieldComponent  -->
<g id="node51" class="node">
<title>DateTimeFieldComponent </title>
<polygon fill="#fb8072" stroke="black" points="5042.59,-252 4873.41,-252 4873.41,-216 5042.59,-216 5042.59,-252"/>
<text text-anchor="middle" x="4958" y="-229.8" font-family="Times,serif" font-size="14.00">DateTimeFieldComponent </text>
</g>
<!-- DataFieldsComponentModule&#45;&gt;DateTimeFieldComponent  -->
<g id="edge51" class="edge">
<title>DataFieldsComponentModule&#45;&gt;DateTimeFieldComponent </title>
<path fill="none" stroke="black" stroke-dasharray="5,2" d="M4426.71,-184C4587.53,-184 4901.21,-184 4901.21,-184 4901.21,-184 4901.21,-205.95 4901.21,-205.95"/>
<polygon fill="black" stroke="black" points="4897.71,-205.95 4901.21,-215.95 4904.71,-205.95 4897.71,-205.95"/>
</g>
<!-- EnumerationFieldComponent  -->
<g id="node52" class="node">
<title>EnumerationFieldComponent </title>
<polygon fill="#fb8072" stroke="black" points="4854.93,-252 4669.07,-252 4669.07,-216 4854.93,-216 4854.93,-252"/>
<text text-anchor="middle" x="4762" y="-229.8" font-family="Times,serif" font-size="14.00">EnumerationFieldComponent </text>
</g>
<!-- DataFieldsComponentModule&#45;&gt;EnumerationFieldComponent  -->
<g id="edge52" class="edge">
<title>DataFieldsComponentModule&#45;&gt;EnumerationFieldComponent </title>
<path fill="none" stroke="black" stroke-dasharray="5,2" d="M4426.88,-185C4541.01,-185 4719.71,-185 4719.71,-185 4719.71,-185 4719.71,-205.75 4719.71,-205.75"/>
<polygon fill="black" stroke="black" points="4716.21,-205.75 4719.71,-215.75 4723.21,-205.75 4716.21,-205.75"/>
</g>
<!-- FileFieldComponent  -->
<g id="node53" class="node">
<title>FileFieldComponent </title>
<polygon fill="#fb8072" stroke="black" points="4650.89,-252 4515.11,-252 4515.11,-216 4650.89,-216 4650.89,-252"/>
<text text-anchor="middle" x="4583" y="-229.8" font-family="Times,serif" font-size="14.00">FileFieldComponent </text>
</g>
<!-- DataFieldsComponentModule&#45;&gt;FileFieldComponent  -->
<g id="edge53" class="edge">
<title>DataFieldsComponentModule&#45;&gt;FileFieldComponent </title>
<path fill="none" stroke="black" stroke-dasharray="5,2" d="M4426.77,-186C4481.98,-186 4541.37,-186 4541.37,-186 4541.37,-186 4541.37,-205.85 4541.37,-205.85"/>
<polygon fill="black" stroke="black" points="4537.87,-205.85 4541.37,-215.85 4544.87,-205.85 4537.87,-205.85"/>
</g>
<!-- FileListFieldComponent  -->
<g id="node54" class="node">
<title>FileListFieldComponent </title>
<polygon fill="#fb8072" stroke="black" points="4497.67,-252 4340.33,-252 4340.33,-216 4497.67,-216 4497.67,-252"/>
<text text-anchor="middle" x="4419" y="-229.8" font-family="Times,serif" font-size="14.00">FileListFieldComponent </text>
</g>
<!-- DataFieldsComponentModule&#45;&gt;FileListFieldComponent  -->
<g id="edge54" class="edge">
<title>DataFieldsComponentModule&#45;&gt;FileListFieldComponent </title>
<path fill="none" stroke="black" stroke-dasharray="5,2" d="M4383.59,-187.11C4383.59,-187.11 4383.59,-205.99 4383.59,-205.99"/>
<polygon fill="black" stroke="black" points="4380.09,-205.99 4383.59,-215.99 4387.09,-205.99 4380.09,-205.99"/>
</g>
<!-- FilterFieldComponent  -->
<g id="node55" class="node">
<title>FilterFieldComponent </title>
<polygon fill="#fb8072" stroke="black" points="4321.94,-252 4178.06,-252 4178.06,-216 4321.94,-216 4321.94,-252"/>
<text text-anchor="middle" x="4250" y="-229.8" font-family="Times,serif" font-size="14.00">FilterFieldComponent </text>
</g>
<!-- DataFieldsComponentModule&#45;&gt;FilterFieldComponent  -->
<g id="edge55" class="edge">
<title>DataFieldsComponentModule&#45;&gt;FilterFieldComponent </title>
<path fill="none" stroke="black" stroke-dasharray="5,2" d="M4281.6,-187.11C4281.6,-187.11 4281.6,-205.99 4281.6,-205.99"/>
<polygon fill="black" stroke="black" points="4278.1,-205.99 4281.6,-215.99 4285.1,-205.99 4278.1,-205.99"/>
</g>
<!-- I18nFieldComponent  -->
<g id="node56" class="node">
<title>I18nFieldComponent </title>
<polygon fill="#fb8072" stroke="black" points="4159.77,-252 4020.23,-252 4020.23,-216 4159.77,-216 4159.77,-252"/>
<text text-anchor="middle" x="4090" y="-229.8" font-family="Times,serif" font-size="14.00">I18nFieldComponent </text>
</g>
<!-- DataFieldsComponentModule&#45;&gt;I18nFieldComponent  -->
<g id="edge56" class="edge">
<title>DataFieldsComponentModule&#45;&gt;I18nFieldComponent </title>
<path fill="none" stroke="black" stroke-dasharray="5,2" d="M4241.27,-186C4192.35,-186 4142.35,-186 4142.35,-186 4142.35,-186 4142.35,-205.85 4142.35,-205.85"/>
<polygon fill="black" stroke="black" points="4138.86,-205.85 4142.35,-215.85 4145.86,-205.85 4138.86,-205.85"/>
</g>
<!-- MultichoiceFieldComponent  -->
<g id="node57" class="node">
<title>MultichoiceFieldComponent </title>
<polygon fill="#fb8072" stroke="black" points="4002.76,-252 3821.24,-252 3821.24,-216 4002.76,-216 4002.76,-252"/>
<text text-anchor="middle" x="3912" y="-229.8" font-family="Times,serif" font-size="14.00">MultichoiceFieldComponent </text>
</g>
<!-- DataFieldsComponentModule&#45;&gt;MultichoiceFieldComponent  -->
<g id="edge57" class="edge">
<title>DataFieldsComponentModule&#45;&gt;MultichoiceFieldComponent </title>
<path fill="none" stroke="black" stroke-dasharray="5,2" d="M4241.06,-185C4131.95,-185 3965.68,-185 3965.68,-185 3965.68,-185 3965.68,-205.75 3965.68,-205.75"/>
<polygon fill="black" stroke="black" points="3962.18,-205.75 3965.68,-215.75 3969.18,-205.75 3962.18,-205.75"/>
</g>
<!-- NumberFieldComponent  -->
<g id="node58" class="node">
<title>NumberFieldComponent </title>
<polygon fill="#fb8072" stroke="black" points="3803.98,-252 3644.02,-252 3644.02,-216 3803.98,-216 3803.98,-252"/>
<text text-anchor="middle" x="3724" y="-229.8" font-family="Times,serif" font-size="14.00">NumberFieldComponent </text>
</g>
<!-- DataFieldsComponentModule&#45;&gt;NumberFieldComponent  -->
<g id="edge58" class="edge">
<title>DataFieldsComponentModule&#45;&gt;NumberFieldComponent </title>
<path fill="none" stroke="black" stroke-dasharray="5,2" d="M4241.31,-184C4085.86,-184 3789.43,-184 3789.43,-184 3789.43,-184 3789.43,-205.95 3789.43,-205.95"/>
<polygon fill="black" stroke="black" points="3785.93,-205.95 3789.43,-215.95 3792.93,-205.95 3785.93,-205.95"/>
</g>
<!-- TaskRefFieldComponent  -->
<g id="node59" class="node">
<title>TaskRefFieldComponent </title>
<polygon fill="#fb8072" stroke="black" points="3626.53,-252 3465.47,-252 3465.47,-216 3626.53,-216 3626.53,-252"/>
<text text-anchor="middle" x="3546" y="-229.8" font-family="Times,serif" font-size="14.00">TaskRefFieldComponent </text>
</g>
<!-- DataFieldsComponentModule&#45;&gt;TaskRefFieldComponent  -->
<g id="edge59" class="edge">
<title>DataFieldsComponentModule&#45;&gt;TaskRefFieldComponent </title>
<path fill="none" stroke="black" stroke-dasharray="5,2" d="M4241.32,-183C4046.2,-183 3610.9,-183 3610.9,-183 3610.9,-183 3610.9,-205.88 3610.9,-205.88"/>
<polygon fill="black" stroke="black" points="3607.4,-205.88 3610.9,-215.88 3614.4,-205.88 3607.4,-205.88"/>
</g>
<!-- TextFieldComponent  -->
<g id="node60" class="node">
<title>TextFieldComponent </title>
<polygon fill="#fb8072" stroke="black" points="3447.77,-252 3308.23,-252 3308.23,-216 3447.77,-216 3447.77,-252"/>
<text text-anchor="middle" x="3378" y="-229.8" font-family="Times,serif" font-size="14.00">TextFieldComponent </text>
</g>
<!-- DataFieldsComponentModule&#45;&gt;TextFieldComponent  -->
<g id="edge60" class="edge">
<title>DataFieldsComponentModule&#45;&gt;TextFieldComponent </title>
<path fill="none" stroke="black" stroke-dasharray="5,2" d="M4241.19,-181C4002.15,-181 3384.05,-181 3384.05,-181 3384.05,-181 3384.05,-205.76 3384.05,-205.76"/>
<polygon fill="black" stroke="black" points="3380.55,-205.76 3384.05,-215.76 3387.55,-205.76 3380.55,-205.76"/>
</g>
<!-- UserFieldComponent  -->
<g id="node61" class="node">
<title>UserFieldComponent </title>
<polygon fill="#fb8072" stroke="black" points="3290.04,-252 3149.96,-252 3149.96,-216 3290.04,-216 3290.04,-252"/>
<text text-anchor="middle" x="3220" y="-229.8" font-family="Times,serif" font-size="14.00">UserFieldComponent </text>
</g>
<!-- DataFieldsComponentModule&#45;&gt;UserFieldComponent  -->
<g id="edge61" class="edge">
<title>DataFieldsComponentModule&#45;&gt;UserFieldComponent </title>
<path fill="none" stroke="black" stroke-dasharray="5,2" d="M4241.41,-180C3974.09,-180 3220,-180 3220,-180 3220,-180 3220,-205.72 3220,-205.72"/>
<polygon fill="black" stroke="black" points="3216.5,-205.72 3220,-215.72 3223.5,-205.72 3216.5,-205.72"/>
</g>
<!-- UserListFieldComponent  -->
<g id="node62" class="node">
<title>UserListFieldComponent </title>
<polygon fill="#fb8072" stroke="black" points="3131.82,-252 2970.18,-252 2970.18,-216 3131.82,-216 3131.82,-252"/>
<text text-anchor="middle" x="3051" y="-229.8" font-family="Times,serif" font-size="14.00">UserListFieldComponent </text>
</g>
<!-- DataFieldsComponentModule&#45;&gt;UserListFieldComponent  -->
<g id="edge62" class="edge">
<title>DataFieldsComponentModule&#45;&gt;UserListFieldComponent </title>
<path fill="none" stroke="black" stroke-dasharray="5,2" d="M4241.45,-179C3957.2,-179 3115.94,-179 3115.94,-179 3115.94,-179 3115.94,-205.99 3115.94,-205.99"/>
<polygon fill="black" stroke="black" points="3112.44,-205.99 3115.94,-215.99 3119.44,-205.99 3112.44,-205.99"/>
</g>
</g>
</svg>
