<?xml version="1.0" encoding="UTF-8" standalone="no"?>
<!DOCTYPE svg PUBLIC "-//W3C//DTD SVG 1.1//EN"
 "http://www.w3.org/Graphics/SVG/1.1/DTD/svg11.dtd">
<!-- Generated by graphviz version 2.47.3 (20210619.1520)
 -->
<!-- Title: dependencies Pages: 1 -->
<svg width="6830pt" height="247pt"
 viewBox="0.00 0.00 6830.00 246.80" xmlns="http://www.w3.org/2000/svg" xmlns:xlink="http://www.w3.org/1999/xlink">
<g id="graph0" class="graph" transform="scale(1 1) rotate(0) translate(4 242.8)">
<title>dependencies</title>
<polygon fill="white" stroke="transparent" points="-4,4 -4,-242.8 6826,-242.8 6826,4 -4,4"/>
<text text-anchor="middle" x="3411" y="-8.2" font-family="sans-serif" font-size="14.00">dependencies</text>
<g id="clust1" class="cluster">
<title>cluster_DataFieldsComponentModule</title>
<polygon fill="none" stroke="black" stroke-dasharray="1,5" points="8,-32.8 8,-230.8 6814,-230.8 6814,-32.8 8,-32.8"/>
</g>
<g id="clust2" class="cluster">
<title>cluster_DataFieldsComponentModule_declarations</title>
<polygon fill="none" stroke="black" points="16,-40.8 16,-92.8 6806,-92.8 6806,-40.8 16,-40.8"/>
</g>
<g id="clust38" class="cluster">
<title>cluster_DataFieldsComponentModule_exports</title>
<polygon fill="none" stroke="black" points="1982,-170.8 1982,-222.8 4428,-222.8 4428,-170.8 1982,-170.8"/>
</g>
<!-- BooleanFieldComponent -->
<g id="node1" class="node">
<title>BooleanFieldComponent</title>
<polygon fill="#ffffb3" stroke="black" points="6798.27,-84.8 6641.73,-84.8 6641.73,-48.8 6798.27,-48.8 6798.27,-84.8"/>
<text text-anchor="middle" x="6720" y="-62.6" font-family="Times,serif" font-size="14.00">BooleanFieldComponent</text>
</g>
<!-- DataFieldsComponentModule -->
<g id="node35" class="node">
<title>DataFieldsComponentModule</title>
<polygon fill="#8dd3c7" stroke="black" points="3254.53,-149.8 3251.53,-153.8 3230.53,-153.8 3227.53,-149.8 3069.47,-149.8 3069.47,-113.8 3254.53,-113.8 3254.53,-149.8"/>
<text text-anchor="middle" x="3162" y="-127.6" font-family="Times,serif" font-size="14.00">DataFieldsComponentModule</text>
</g>
<!-- BooleanFieldComponent&#45;&gt;DataFieldsComponentModule -->
<g id="edge1" class="edge">
<title>BooleanFieldComponent&#45;&gt;DataFieldsComponentModule</title>
<path fill="none" stroke="black" d="M6720,-84.84C6720,-106.46 6720,-139.8 6720,-139.8 6720,-139.8 3264.88,-139.8 3264.88,-139.8"/>
<polygon fill="black" stroke="black" points="3264.88,-136.3 3254.88,-139.8 3264.88,-143.3 3264.88,-136.3"/>
</g>
<!-- ButtonFieldComponent -->
<g id="node2" class="node">
<title>ButtonFieldComponent</title>
<polygon fill="#ffffb3" stroke="black" points="6624.23,-84.8 6475.77,-84.8 6475.77,-48.8 6624.23,-48.8 6624.23,-84.8"/>
<text text-anchor="middle" x="6550" y="-62.6" font-family="Times,serif" font-size="14.00">ButtonFieldComponent</text>
</g>
<!-- ButtonFieldComponent&#45;&gt;DataFieldsComponentModule -->
<g id="edge2" class="edge">
<title>ButtonFieldComponent&#45;&gt;DataFieldsComponentModule</title>
<path fill="none" stroke="black" d="M6550,-85.08C6550,-106.12 6550,-137.8 6550,-137.8 6550,-137.8 3264.82,-137.8 3264.82,-137.8"/>
<polygon fill="black" stroke="black" points="3264.82,-134.3 3254.82,-137.8 3264.82,-141.3 3264.82,-134.3"/>
</g>
<!-- DataFieldTemplateComponent -->
<g id="node3" class="node">
<title>DataFieldTemplateComponent</title>
<polygon fill="#ffffb3" stroke="black" points="6457.91,-84.8 6268.09,-84.8 6268.09,-48.8 6457.91,-48.8 6457.91,-84.8"/>
<text text-anchor="middle" x="6363" y="-62.6" font-family="Times,serif" font-size="14.00">DataFieldTemplateComponent</text>
</g>
<!-- DataFieldTemplateComponent&#45;&gt;DataFieldsComponentModule -->
<g id="edge3" class="edge">
<title>DataFieldTemplateComponent&#45;&gt;DataFieldsComponentModule</title>
<path fill="none" stroke="black" d="M6363,-84.83C6363,-105.57 6363,-136.8 6363,-136.8 6363,-136.8 3264.78,-136.8 3264.78,-136.8"/>
<polygon fill="black" stroke="black" points="3264.78,-133.3 3254.78,-136.8 3264.78,-140.3 3264.78,-133.3"/>
</g>
<!-- DateFieldComponent -->
<g id="node4" class="node">
<title>DateFieldComponent</title>
<polygon fill="#ffffb3" stroke="black" points="6250.04,-84.8 6113.96,-84.8 6113.96,-48.8 6250.04,-48.8 6250.04,-84.8"/>
<text text-anchor="middle" x="6182" y="-62.6" font-family="Times,serif" font-size="14.00">DateFieldComponent</text>
</g>
<!-- DateFieldComponent&#45;&gt;DataFieldsComponentModule -->
<g id="edge4" class="edge">
<title>DateFieldComponent&#45;&gt;DataFieldsComponentModule</title>
<path fill="none" stroke="black" d="M6182,-85.02C6182,-105.17 6182,-134.8 6182,-134.8 6182,-134.8 3264.86,-134.8 3264.86,-134.8"/>
<polygon fill="black" stroke="black" points="3264.86,-131.3 3254.86,-134.8 3264.86,-138.3 3264.86,-131.3"/>
</g>
<!-- DateTimeFieldComponent -->
<g id="node5" class="node">
<title>DateTimeFieldComponent</title>
<polygon fill="#ffffb3" stroke="black" points="6096.09,-84.8 5929.91,-84.8 5929.91,-48.8 6096.09,-48.8 6096.09,-84.8"/>
<text text-anchor="middle" x="6013" y="-62.6" font-family="Times,serif" font-size="14.00">DateTimeFieldComponent</text>
</g>
<!-- DateTimeFieldComponent&#45;&gt;DataFieldsComponentModule -->
<g id="edge5" class="edge">
<title>DateTimeFieldComponent&#45;&gt;DataFieldsComponentModule</title>
<path fill="none" stroke="black" d="M6013,-85.11C6013,-104.95 6013,-133.8 6013,-133.8 6013,-133.8 3264.83,-133.8 3264.83,-133.8"/>
<polygon fill="black" stroke="black" points="3264.83,-130.3 3254.83,-133.8 3264.83,-137.3 3264.83,-130.3"/>
</g>
<!-- EnumerationAutocompleteDynamicFieldComponent -->
<g id="node6" class="node">
<title>EnumerationAutocompleteDynamicFieldComponent</title>
<polygon fill="#ffffb3" stroke="black" points="5911.55,-84.8 5598.45,-84.8 5598.45,-48.8 5911.55,-48.8 5911.55,-84.8"/>
<text text-anchor="middle" x="5755" y="-62.6" font-family="Times,serif" font-size="14.00">EnumerationAutocompleteDynamicFieldComponent</text>
</g>
<!-- EnumerationAutocompleteDynamicFieldComponent&#45;&gt;DataFieldsComponentModule -->
<g id="edge6" class="edge">
<title>EnumerationAutocompleteDynamicFieldComponent&#45;&gt;DataFieldsComponentModule</title>
<path fill="none" stroke="black" d="M5755,-84.91C5755,-104.14 5755,-131.8 5755,-131.8 5755,-131.8 3264.67,-131.8 3264.67,-131.8"/>
<polygon fill="black" stroke="black" points="3264.67,-128.3 3254.67,-131.8 3264.67,-135.3 3264.67,-128.3"/>
</g>
<!-- EnumerationAutocompleteSelectFieldComponent -->
<g id="node7" class="node">
<title>EnumerationAutocompleteSelectFieldComponent</title>
<polygon fill="#ffffb3" stroke="black" points="5579.95,-84.8 5284.05,-84.8 5284.05,-48.8 5579.95,-48.8 5579.95,-84.8"/>
<text text-anchor="middle" x="5432" y="-62.6" font-family="Times,serif" font-size="14.00">EnumerationAutocompleteSelectFieldComponent</text>
</g>
<!-- EnumerationAutocompleteSelectFieldComponent&#45;&gt;DataFieldsComponentModule -->
<g id="edge7" class="edge">
<title>EnumerationAutocompleteSelectFieldComponent&#45;&gt;DataFieldsComponentModule</title>
<path fill="none" stroke="black" d="M5432,-84.97C5432,-103.89 5432,-130.8 5432,-130.8 5432,-130.8 3264.86,-130.8 3264.86,-130.8"/>
<polygon fill="black" stroke="black" points="3264.86,-127.3 3254.86,-130.8 3264.86,-134.3 3264.86,-127.3"/>
</g>
<!-- EnumerationFieldComponent -->
<g id="node8" class="node">
<title>EnumerationFieldComponent</title>
<polygon fill="#ffffb3" stroke="black" points="5266.43,-84.8 5083.57,-84.8 5083.57,-48.8 5266.43,-48.8 5266.43,-84.8"/>
<text text-anchor="middle" x="5175" y="-62.6" font-family="Times,serif" font-size="14.00">EnumerationFieldComponent</text>
</g>
<!-- EnumerationFieldComponent&#45;&gt;DataFieldsComponentModule -->
<g id="edge8" class="edge">
<title>EnumerationFieldComponent&#45;&gt;DataFieldsComponentModule</title>
<path fill="none" stroke="black" d="M5175,-85.07C5175,-103.36 5175,-128.8 5175,-128.8 5175,-128.8 3264.72,-128.8 3264.72,-128.8"/>
<polygon fill="black" stroke="black" points="3264.72,-125.3 3254.72,-128.8 3264.72,-132.3 3264.72,-125.3"/>
</g>
<!-- EnumerationIconFieldComponent -->
<g id="node9" class="node">
<title>EnumerationIconFieldComponent</title>
<polygon fill="#ffffb3" stroke="black" points="5065.8,-84.8 4858.2,-84.8 4858.2,-48.8 5065.8,-48.8 5065.8,-84.8"/>
<text text-anchor="middle" x="4962" y="-62.6" font-family="Times,serif" font-size="14.00">EnumerationIconFieldComponent</text>
</g>
<!-- EnumerationIconFieldComponent&#45;&gt;DataFieldsComponentModule -->
<g id="edge9" class="edge">
<title>EnumerationIconFieldComponent&#45;&gt;DataFieldsComponentModule</title>
<path fill="none" stroke="black" d="M4962,-85.1C4962,-103.07 4962,-127.8 4962,-127.8 4962,-127.8 3264.67,-127.8 3264.67,-127.8"/>
<polygon fill="black" stroke="black" points="3264.67,-124.3 3254.67,-127.8 3264.67,-131.3 3264.67,-124.3"/>
</g>
<!-- EnumerationListFieldComponent -->
<g id="node10" class="node">
<title>EnumerationListFieldComponent</title>
<polygon fill="#ffffb3" stroke="black" points="4840.2,-84.8 4635.8,-84.8 4635.8,-48.8 4840.2,-48.8 4840.2,-84.8"/>
<text text-anchor="middle" x="4738" y="-62.6" font-family="Times,serif" font-size="14.00">EnumerationListFieldComponent</text>
</g>
<!-- EnumerationListFieldComponent&#45;&gt;DataFieldsComponentModule -->
<g id="edge10" class="edge">
<title>EnumerationListFieldComponent&#45;&gt;DataFieldsComponentModule</title>
<path fill="none" stroke="black" d="M4738,-84.82C4738,-102.17 4738,-125.8 4738,-125.8 4738,-125.8 3264.7,-125.8 3264.7,-125.8"/>
<polygon fill="black" stroke="black" points="3264.7,-122.3 3254.7,-125.8 3264.7,-129.3 3264.7,-122.3"/>
</g>
<!-- EnumerationSelectFieldComponent -->
<g id="node11" class="node">
<title>EnumerationSelectFieldComponent</title>
<polygon fill="#ffffb3" stroke="black" points="4618.13,-84.8 4401.87,-84.8 4401.87,-48.8 4618.13,-48.8 4618.13,-84.8"/>
<text text-anchor="middle" x="4510" y="-62.6" font-family="Times,serif" font-size="14.00">EnumerationSelectFieldComponent</text>
</g>
<!-- EnumerationSelectFieldComponent&#45;&gt;DataFieldsComponentModule -->
<g id="edge11" class="edge">
<title>EnumerationSelectFieldComponent&#45;&gt;DataFieldsComponentModule</title>
<path fill="none" stroke="black" d="M4410.91,-84.83C4410.91,-101.86 4410.91,-124.8 4410.91,-124.8 4410.91,-124.8 3264.6,-124.8 3264.6,-124.8"/>
<polygon fill="black" stroke="black" points="3264.6,-121.3 3254.6,-124.8 3264.6,-128.3 3264.6,-121.3"/>
</g>
<!-- EnumerationStepperFieldComponent -->
<g id="node12" class="node">
<title>EnumerationStepperFieldComponent</title>
<polygon fill="#ffffb3" stroke="black" points="4383.69,-84.8 4158.31,-84.8 4158.31,-48.8 4383.69,-48.8 4383.69,-84.8"/>
<text text-anchor="middle" x="4271" y="-62.6" font-family="Times,serif" font-size="14.00">EnumerationStepperFieldComponent</text>
</g>
<!-- EnumerationStepperFieldComponent&#45;&gt;DataFieldsComponentModule -->
<g id="edge12" class="edge">
<title>EnumerationStepperFieldComponent&#45;&gt;DataFieldsComponentModule</title>
<path fill="none" stroke="black" d="M4200.14,-84.83C4200.14,-101.2 4200.14,-122.8 4200.14,-122.8 4200.14,-122.8 3264.58,-122.8 3264.58,-122.8"/>
<polygon fill="black" stroke="black" points="3264.58,-119.3 3254.58,-122.8 3264.58,-126.3 3264.58,-119.3"/>
</g>
<!-- FileFieldComponent -->
<g id="node13" class="node">
<title>FileFieldComponent</title>
<polygon fill="#ffffb3" stroke="black" points="4139.89,-84.8 4008.11,-84.8 4008.11,-48.8 4139.89,-48.8 4139.89,-84.8"/>
<text text-anchor="middle" x="4074" y="-62.6" font-family="Times,serif" font-size="14.00">FileFieldComponent</text>
</g>
<!-- FileFieldComponent&#45;&gt;DataFieldsComponentModule -->
<g id="edge13" class="edge">
<title>FileFieldComponent&#45;&gt;DataFieldsComponentModule</title>
<path fill="none" stroke="black" d="M4040.25,-84.81C4040.25,-100.85 4040.25,-121.8 4040.25,-121.8 4040.25,-121.8 3264.74,-121.8 3264.74,-121.8"/>
<polygon fill="black" stroke="black" points="3264.74,-118.3 3254.74,-121.8 3264.74,-125.3 3264.74,-118.3"/>
</g>
<!-- FileListFieldComponent -->
<g id="node14" class="node">
<title>FileListFieldComponent</title>
<polygon fill="#ffffb3" stroke="black" points="3989.67,-84.8 3836.33,-84.8 3836.33,-48.8 3989.67,-48.8 3989.67,-84.8"/>
<text text-anchor="middle" x="3913" y="-62.6" font-family="Times,serif" font-size="14.00">FileListFieldComponent</text>
</g>
<!-- FileListFieldComponent&#45;&gt;DataFieldsComponentModule -->
<g id="edge14" class="edge">
<title>FileListFieldComponent&#45;&gt;DataFieldsComponentModule</title>
<path fill="none" stroke="black" d="M3849.09,-85.04C3849.09,-100.37 3849.09,-119.8 3849.09,-119.8 3849.09,-119.8 3264.66,-119.8 3264.66,-119.8"/>
<polygon fill="black" stroke="black" points="3264.66,-116.3 3254.66,-119.8 3264.66,-123.3 3264.66,-116.3"/>
</g>
<!-- FilterFieldComponent -->
<g id="node15" class="node">
<title>FilterFieldComponent</title>
<polygon fill="#ffffb3" stroke="black" points="3818.44,-84.8 3677.56,-84.8 3677.56,-48.8 3818.44,-48.8 3818.44,-84.8"/>
<text text-anchor="middle" x="3748" y="-62.6" font-family="Times,serif" font-size="14.00">FilterFieldComponent</text>
</g>
<!-- FilterFieldComponent&#45;&gt;DataFieldsComponentModule -->
<g id="edge15" class="edge">
<title>FilterFieldComponent&#45;&gt;DataFieldsComponentModule</title>
<path fill="none" stroke="black" d="M3690.79,-84.99C3690.79,-99.98 3690.79,-118.8 3690.79,-118.8 3690.79,-118.8 3264.71,-118.8 3264.71,-118.8"/>
<polygon fill="black" stroke="black" points="3264.71,-115.3 3254.71,-118.8 3264.71,-122.3 3264.71,-115.3"/>
</g>
<!-- FilterFieldContentComponent -->
<g id="node16" class="node">
<title>FilterFieldContentComponent</title>
<polygon fill="#ffffb3" stroke="black" points="3659.27,-84.8 3474.73,-84.8 3474.73,-48.8 3659.27,-48.8 3659.27,-84.8"/>
<text text-anchor="middle" x="3567" y="-62.6" font-family="Times,serif" font-size="14.00">FilterFieldContentComponent</text>
</g>
<!-- FilterFieldContentComponent&#45;&gt;DataFieldsComponentModule -->
<g id="edge16" class="edge">
<title>FilterFieldContentComponent&#45;&gt;DataFieldsComponentModule</title>
<path fill="none" stroke="black" d="M3495.29,-84.85C3495.29,-99.17 3495.29,-116.8 3495.29,-116.8 3495.29,-116.8 3264.84,-116.8 3264.84,-116.8"/>
<polygon fill="black" stroke="black" points="3264.84,-113.3 3254.84,-116.8 3264.84,-120.3 3264.84,-113.3"/>
</g>
<!-- HtmlTextareaFieldComponent -->
<g id="node17" class="node">
<title>HtmlTextareaFieldComponent</title>
<polygon fill="#ffffb3" stroke="black" points="3456.85,-84.8 3269.15,-84.8 3269.15,-48.8 3456.85,-48.8 3456.85,-84.8"/>
<text text-anchor="middle" x="3363" y="-62.6" font-family="Times,serif" font-size="14.00">HtmlTextareaFieldComponent</text>
</g>
<!-- HtmlTextareaFieldComponent&#45;&gt;DataFieldsComponentModule -->
<g id="edge17" class="edge">
<title>HtmlTextareaFieldComponent&#45;&gt;DataFieldsComponentModule</title>
<path fill="none" stroke="black" d="M3290.38,-85.05C3290.38,-98.98 3290.38,-115.8 3290.38,-115.8 3290.38,-115.8 3264.62,-115.8 3264.62,-115.8"/>
<polygon fill="black" stroke="black" points="3264.62,-112.3 3254.62,-115.8 3264.62,-119.3 3264.62,-112.3"/>
</g>
<!-- I18nDividerFieldComponent -->
<g id="node18" class="node">
<title>I18nDividerFieldComponent</title>
<polygon fill="#ffffb3" stroke="black" points="3251.04,-84.8 3072.96,-84.8 3072.96,-48.8 3251.04,-48.8 3251.04,-84.8"/>
<text text-anchor="middle" x="3162" y="-62.6" font-family="Times,serif" font-size="14.00">I18nDividerFieldComponent</text>
</g>
<!-- I18nDividerFieldComponent&#45;&gt;DataFieldsComponentModule -->
<g id="edge18" class="edge">
<title>I18nDividerFieldComponent&#45;&gt;DataFieldsComponentModule</title>
<path fill="none" stroke="black" d="M3162,-84.91C3162,-84.91 3162,-103.79 3162,-103.79"/>
<polygon fill="black" stroke="black" points="3158.5,-103.79 3162,-113.79 3165.5,-103.79 3158.5,-103.79"/>
</g>
<!-- I18nFieldComponent -->
<g id="node19" class="node">
<title>I18nFieldComponent</title>
<polygon fill="#ffffb3" stroke="black" points="3054.77,-84.8 2919.23,-84.8 2919.23,-48.8 3054.77,-48.8 3054.77,-84.8"/>
<text text-anchor="middle" x="2987" y="-62.6" font-family="Times,serif" font-size="14.00">I18nFieldComponent</text>
</g>
<!-- I18nFieldComponent&#45;&gt;DataFieldsComponentModule -->
<g id="edge19" class="edge">
<title>I18nFieldComponent&#45;&gt;DataFieldsComponentModule</title>
<path fill="none" stroke="black" d="M3028.15,-85.05C3028.15,-98.98 3028.15,-115.8 3028.15,-115.8 3028.15,-115.8 3059.4,-115.8 3059.4,-115.8"/>
<polygon fill="black" stroke="black" points="3059.4,-119.3 3069.4,-115.8 3059.4,-112.3 3059.4,-119.3"/>
</g>
<!-- I18nTextFieldComponent -->
<g id="node20" class="node">
<title>I18nTextFieldComponent</title>
<polygon fill="#ffffb3" stroke="black" points="2900.93,-84.8 2739.07,-84.8 2739.07,-48.8 2900.93,-48.8 2900.93,-84.8"/>
<text text-anchor="middle" x="2820" y="-62.6" font-family="Times,serif" font-size="14.00">I18nTextFieldComponent</text>
</g>
<!-- I18nTextFieldComponent&#45;&gt;DataFieldsComponentModule -->
<g id="edge20" class="edge">
<title>I18nTextFieldComponent&#45;&gt;DataFieldsComponentModule</title>
<path fill="none" stroke="black" d="M2869.87,-84.85C2869.87,-99.17 2869.87,-116.8 2869.87,-116.8 2869.87,-116.8 3059.17,-116.8 3059.17,-116.8"/>
<polygon fill="black" stroke="black" points="3059.17,-120.3 3069.17,-116.8 3059.17,-113.3 3059.17,-120.3"/>
</g>
<!-- MultichoiceFieldComponent -->
<g id="node21" class="node">
<title>MultichoiceFieldComponent</title>
<polygon fill="#ffffb3" stroke="black" points="2720.76,-84.8 2543.24,-84.8 2543.24,-48.8 2720.76,-48.8 2720.76,-84.8"/>
<text text-anchor="middle" x="2632" y="-62.6" font-family="Times,serif" font-size="14.00">MultichoiceFieldComponent</text>
</g>
<!-- MultichoiceFieldComponent&#45;&gt;DataFieldsComponentModule -->
<g id="edge21" class="edge">
<title>MultichoiceFieldComponent&#45;&gt;DataFieldsComponentModule</title>
<path fill="none" stroke="black" d="M2701.12,-84.99C2701.12,-99.98 2701.12,-118.8 2701.12,-118.8 2701.12,-118.8 3059.29,-118.8 3059.29,-118.8"/>
<polygon fill="black" stroke="black" points="3059.29,-122.3 3069.29,-118.8 3059.29,-115.3 3059.29,-122.3"/>
</g>
<!-- MultichoiceListFieldComponent -->
<g id="node22" class="node">
<title>MultichoiceListFieldComponent</title>
<polygon fill="#ffffb3" stroke="black" points="2524.54,-84.8 2325.46,-84.8 2325.46,-48.8 2524.54,-48.8 2524.54,-84.8"/>
<text text-anchor="middle" x="2425" y="-62.6" font-family="Times,serif" font-size="14.00">MultichoiceListFieldComponent</text>
</g>
<!-- MultichoiceListFieldComponent&#45;&gt;DataFieldsComponentModule -->
<g id="edge22" class="edge">
<title>MultichoiceListFieldComponent&#45;&gt;DataFieldsComponentModule</title>
<path fill="none" stroke="black" d="M2503.57,-85.04C2503.57,-100.37 2503.57,-119.8 2503.57,-119.8 2503.57,-119.8 3059.41,-119.8 3059.41,-119.8"/>
<polygon fill="black" stroke="black" points="3059.41,-123.3 3069.41,-119.8 3059.41,-116.3 3059.41,-123.3"/>
</g>
<!-- MultichoiceSelectFieldComponent -->
<g id="node23" class="node">
<title>MultichoiceSelectFieldComponent</title>
<polygon fill="#ffffb3" stroke="black" points="2306.97,-84.8 2095.03,-84.8 2095.03,-48.8 2306.97,-48.8 2306.97,-84.8"/>
<text text-anchor="middle" x="2201" y="-62.6" font-family="Times,serif" font-size="14.00">MultichoiceSelectFieldComponent</text>
</g>
<!-- MultichoiceSelectFieldComponent&#45;&gt;DataFieldsComponentModule -->
<g id="edge23" class="edge">
<title>MultichoiceSelectFieldComponent&#45;&gt;DataFieldsComponentModule</title>
<path fill="none" stroke="black" d="M2296.45,-84.81C2296.45,-100.85 2296.45,-121.8 2296.45,-121.8 2296.45,-121.8 3059.37,-121.8 3059.37,-121.8"/>
<polygon fill="black" stroke="black" points="3059.37,-125.3 3069.37,-121.8 3059.37,-118.3 3059.37,-125.3"/>
</g>
<!-- NumberCurrencyFieldComponent -->
<g id="node24" class="node">
<title>NumberCurrencyFieldComponent</title>
<polygon fill="#ffffb3" stroke="black" points="2077.07,-84.8 1868.93,-84.8 1868.93,-48.8 2077.07,-48.8 2077.07,-84.8"/>
<text text-anchor="middle" x="1973" y="-62.6" font-family="Times,serif" font-size="14.00">NumberCurrencyFieldComponent</text>
</g>
<!-- NumberCurrencyFieldComponent&#45;&gt;DataFieldsComponentModule -->
<g id="edge24" class="edge">
<title>NumberCurrencyFieldComponent&#45;&gt;DataFieldsComponentModule</title>
<path fill="none" stroke="black" d="M2033.51,-84.83C2033.51,-101.2 2033.51,-122.8 2033.51,-122.8 2033.51,-122.8 3059.17,-122.8 3059.17,-122.8"/>
<polygon fill="black" stroke="black" points="3059.17,-126.3 3069.17,-122.8 3059.17,-119.3 3059.17,-126.3"/>
</g>
<!-- NumberDefaultFieldComponent -->
<g id="node25" class="node">
<title>NumberDefaultFieldComponent</title>
<polygon fill="#ffffb3" stroke="black" points="1850.96,-84.8 1653.04,-84.8 1653.04,-48.8 1850.96,-48.8 1850.96,-84.8"/>
<text text-anchor="middle" x="1752" y="-62.6" font-family="Times,serif" font-size="14.00">NumberDefaultFieldComponent</text>
</g>
<!-- NumberDefaultFieldComponent&#45;&gt;DataFieldsComponentModule -->
<g id="edge25" class="edge">
<title>NumberDefaultFieldComponent&#45;&gt;DataFieldsComponentModule</title>
<path fill="none" stroke="black" d="M1784.99,-84.83C1784.99,-101.86 1784.99,-124.8 1784.99,-124.8 1784.99,-124.8 3059.24,-124.8 3059.24,-124.8"/>
<polygon fill="black" stroke="black" points="3059.24,-128.3 3069.24,-124.8 3059.24,-121.3 3059.24,-128.3"/>
</g>
<!-- NumberDefaultFieldComponent&#45;&gt;DataFieldsComponentModule -->
<g id="edge26" class="edge">
<title>NumberDefaultFieldComponent&#45;&gt;DataFieldsComponentModule</title>
<path fill="none" stroke="black" d="M1719.01,-84.82C1719.01,-102.17 1719.01,-125.8 1719.01,-125.8 1719.01,-125.8 3059.26,-125.8 3059.26,-125.8"/>
<polygon fill="black" stroke="black" points="3059.26,-129.3 3069.26,-125.8 3059.26,-122.3 3059.26,-129.3"/>
</g>
<!-- NumberFieldComponent -->
<g id="node26" class="node">
<title>NumberFieldComponent</title>
<polygon fill="#ffffb3" stroke="black" points="1634.98,-84.8 1479.02,-84.8 1479.02,-48.8 1634.98,-48.8 1634.98,-84.8"/>
<text text-anchor="middle" x="1557" y="-62.6" font-family="Times,serif" font-size="14.00">NumberFieldComponent</text>
</g>
<!-- NumberFieldComponent&#45;&gt;DataFieldsComponentModule -->
<g id="edge27" class="edge">
<title>NumberFieldComponent&#45;&gt;DataFieldsComponentModule</title>
<path fill="none" stroke="black" d="M1557,-85.1C1557,-103.07 1557,-127.8 1557,-127.8 1557,-127.8 3059.36,-127.8 3059.36,-127.8"/>
<polygon fill="black" stroke="black" points="3059.36,-131.3 3069.36,-127.8 3059.36,-124.3 3059.36,-131.3"/>
</g>
<!-- PasswordTextFieldComponent -->
<g id="node27" class="node">
<title>PasswordTextFieldComponent</title>
<polygon fill="#ffffb3" stroke="black" points="1460.92,-84.8 1271.08,-84.8 1271.08,-48.8 1460.92,-48.8 1460.92,-84.8"/>
<text text-anchor="middle" x="1366" y="-62.6" font-family="Times,serif" font-size="14.00">PasswordTextFieldComponent</text>
</g>
<!-- PasswordTextFieldComponent&#45;&gt;DataFieldsComponentModule -->
<g id="edge28" class="edge">
<title>PasswordTextFieldComponent&#45;&gt;DataFieldsComponentModule</title>
<path fill="none" stroke="black" d="M1366,-85.07C1366,-103.36 1366,-128.8 1366,-128.8 1366,-128.8 3059.22,-128.8 3059.22,-128.8"/>
<polygon fill="black" stroke="black" points="3059.22,-132.3 3069.22,-128.8 3059.22,-125.3 3059.22,-132.3"/>
</g>
<!-- PreviewDialogComponent -->
<g id="node28" class="node">
<title>PreviewDialogComponent</title>
<polygon fill="#ffffb3" stroke="black" points="1253.8,-84.8 1088.2,-84.8 1088.2,-48.8 1253.8,-48.8 1253.8,-84.8"/>
<text text-anchor="middle" x="1171" y="-62.6" font-family="Times,serif" font-size="14.00">PreviewDialogComponent</text>
</g>
<!-- PreviewDialogComponent&#45;&gt;DataFieldsComponentModule -->
<g id="edge29" class="edge">
<title>PreviewDialogComponent&#45;&gt;DataFieldsComponentModule</title>
<path fill="none" stroke="black" d="M1171,-84.97C1171,-103.89 1171,-130.8 1171,-130.8 1171,-130.8 3059.3,-130.8 3059.3,-130.8"/>
<polygon fill="black" stroke="black" points="3059.3,-134.3 3069.3,-130.8 3059.3,-127.3 3059.3,-134.3"/>
</g>
<!-- RequiredLabelComponent -->
<g id="node29" class="node">
<title>RequiredLabelComponent</title>
<polygon fill="#ffffb3" stroke="black" points="1070.02,-84.8 905.98,-84.8 905.98,-48.8 1070.02,-48.8 1070.02,-84.8"/>
<text text-anchor="middle" x="988" y="-62.6" font-family="Times,serif" font-size="14.00">RequiredLabelComponent</text>
</g>
<!-- RequiredLabelComponent&#45;&gt;DataFieldsComponentModule -->
<g id="edge30" class="edge">
<title>RequiredLabelComponent&#45;&gt;DataFieldsComponentModule</title>
<path fill="none" stroke="black" d="M988,-84.91C988,-104.14 988,-131.8 988,-131.8 988,-131.8 3059.28,-131.8 3059.28,-131.8"/>
<polygon fill="black" stroke="black" points="3059.28,-135.3 3069.28,-131.8 3059.28,-128.3 3059.28,-135.3"/>
</g>
<!-- RichTextareaFieldComponent -->
<g id="node30" class="node">
<title>RichTextareaFieldComponent</title>
<polygon fill="#ffffb3" stroke="black" points="887.52,-84.8 702.48,-84.8 702.48,-48.8 887.52,-48.8 887.52,-84.8"/>
<text text-anchor="middle" x="795" y="-62.6" font-family="Times,serif" font-size="14.00">RichTextareaFieldComponent</text>
</g>
<!-- RichTextareaFieldComponent&#45;&gt;DataFieldsComponentModule -->
<g id="edge31" class="edge">
<title>RichTextareaFieldComponent&#45;&gt;DataFieldsComponentModule</title>
<path fill="none" stroke="black" d="M795,-85.11C795,-104.95 795,-133.8 795,-133.8 795,-133.8 3059.21,-133.8 3059.21,-133.8"/>
<polygon fill="black" stroke="black" points="3059.21,-137.3 3069.21,-133.8 3059.21,-130.3 3059.21,-137.3"/>
</g>
<!-- SimpleTextFieldComponent -->
<g id="node31" class="node">
<title>SimpleTextFieldComponent</title>
<polygon fill="#ffffb3" stroke="black" points="684.94,-84.8 509.06,-84.8 509.06,-48.8 684.94,-48.8 684.94,-84.8"/>
<text text-anchor="middle" x="597" y="-62.6" font-family="Times,serif" font-size="14.00">SimpleTextFieldComponent</text>
</g>
<!-- SimpleTextFieldComponent&#45;&gt;DataFieldsComponentModule -->
<g id="edge32" class="edge">
<title>SimpleTextFieldComponent&#45;&gt;DataFieldsComponentModule</title>
<path fill="none" stroke="black" d="M597,-85.02C597,-105.17 597,-134.8 597,-134.8 597,-134.8 3059.19,-134.8 3059.19,-134.8"/>
<polygon fill="black" stroke="black" points="3059.19,-138.3 3069.19,-134.8 3059.19,-131.3 3059.19,-138.3"/>
</g>
<!-- TextFieldComponent -->
<g id="node32" class="node">
<title>TextFieldComponent</title>
<polygon fill="#ffffb3" stroke="black" points="490.77,-84.8 355.23,-84.8 355.23,-48.8 490.77,-48.8 490.77,-84.8"/>
<text text-anchor="middle" x="423" y="-62.6" font-family="Times,serif" font-size="14.00">TextFieldComponent</text>
</g>
<!-- TextFieldComponent&#45;&gt;DataFieldsComponentModule -->
<g id="edge33" class="edge">
<title>TextFieldComponent&#45;&gt;DataFieldsComponentModule</title>
<path fill="none" stroke="black" d="M423,-84.83C423,-105.57 423,-136.8 423,-136.8 423,-136.8 3059.3,-136.8 3059.3,-136.8"/>
<polygon fill="black" stroke="black" points="3059.3,-140.3 3069.3,-136.8 3059.3,-133.3 3059.3,-140.3"/>
</g>
<!-- TextareaFieldComponent -->
<g id="node33" class="node">
<title>TextareaFieldComponent</title>
<polygon fill="#ffffb3" stroke="black" points="337.57,-84.8 178.43,-84.8 178.43,-48.8 337.57,-48.8 337.57,-84.8"/>
<text text-anchor="middle" x="258" y="-62.6" font-family="Times,serif" font-size="14.00">TextareaFieldComponent</text>
</g>
<!-- TextareaFieldComponent&#45;&gt;DataFieldsComponentModule -->
<g id="edge34" class="edge">
<title>TextareaFieldComponent&#45;&gt;DataFieldsComponentModule</title>
<path fill="none" stroke="black" d="M258,-85.08C258,-106.12 258,-137.8 258,-137.8 258,-137.8 3059.08,-137.8 3059.08,-137.8"/>
<polygon fill="black" stroke="black" points="3059.08,-141.3 3069.08,-137.8 3059.08,-134.3 3059.08,-141.3"/>
</g>
<!-- UserFieldComponent -->
<g id="node34" class="node">
<title>UserFieldComponent</title>
<polygon fill="#ffffb3" stroke="black" points="160.04,-84.8 23.96,-84.8 23.96,-48.8 160.04,-48.8 160.04,-84.8"/>
<text text-anchor="middle" x="92" y="-62.6" font-family="Times,serif" font-size="14.00">UserFieldComponent</text>
</g>
<!-- UserFieldComponent&#45;&gt;DataFieldsComponentModule -->
<g id="edge35" class="edge">
<title>UserFieldComponent&#45;&gt;DataFieldsComponentModule</title>
<path fill="none" stroke="black" d="M92,-84.84C92,-106.46 92,-139.8 92,-139.8 92,-139.8 3059.28,-139.8 3059.28,-139.8"/>
<polygon fill="black" stroke="black" points="3059.28,-143.3 3069.28,-139.8 3059.28,-136.3 3059.28,-143.3"/>
</g>
<!-- BooleanFieldComponent  -->
<g id="node36" class="node">
<title>BooleanFieldComponent </title>
<polygon fill="#fb8072" stroke="black" points="4420.27,-214.8 4259.73,-214.8 4259.73,-178.8 4420.27,-178.8 4420.27,-214.8"/>
<text text-anchor="middle" x="4340" y="-192.6" font-family="Times,serif" font-size="14.00">BooleanFieldComponent </text>
</g>
<!-- DataFieldsComponentModule&#45;&gt;BooleanFieldComponent  -->
<g id="edge36" class="edge">
<title>DataFieldsComponentModule&#45;&gt;BooleanFieldComponent </title>
<path fill="none" stroke="black" stroke-dasharray="5,2" d="M3254.95,-140.8C3530.14,-140.8 4321.73,-140.8 4321.73,-140.8 4321.73,-140.8 4321.73,-168.77 4321.73,-168.77"/>
<polygon fill="black" stroke="black" points="4318.23,-168.77 4321.73,-178.77 4325.23,-168.77 4318.23,-168.77"/>
</g>
<!-- ButtonFieldComponent  -->
<g id="node37" class="node">
<title>ButtonFieldComponent </title>
<polygon fill="#fb8072" stroke="black" points="4241.73,-214.8 4090.27,-214.8 4090.27,-178.8 4241.73,-178.8 4241.73,-214.8"/>
<text text-anchor="middle" x="4166" y="-192.6" font-family="Times,serif" font-size="14.00">ButtonFieldComponent </text>
</g>
<!-- DataFieldsComponentModule&#45;&gt;ButtonFieldComponent  -->
<g id="edge37" class="edge">
<title>DataFieldsComponentModule&#45;&gt;ButtonFieldComponent </title>
<path fill="none" stroke="black" stroke-dasharray="5,2" d="M3254.68,-142.8C3494.18,-142.8 4115.04,-142.8 4115.04,-142.8 4115.04,-142.8 4115.04,-168.52 4115.04,-168.52"/>
<polygon fill="black" stroke="black" points="4111.54,-168.52 4115.04,-178.52 4118.54,-168.52 4111.54,-168.52"/>
</g>
<!-- DataFieldTemplateComponent  -->
<g id="node38" class="node">
<title>DataFieldTemplateComponent </title>
<polygon fill="#fb8072" stroke="black" points="4072.41,-214.8 3879.59,-214.8 3879.59,-178.8 4072.41,-178.8 4072.41,-214.8"/>
<text text-anchor="middle" x="3976" y="-192.6" font-family="Times,serif" font-size="14.00">DataFieldTemplateComponent </text>
</g>
<!-- DataFieldsComponentModule&#45;&gt;DataFieldTemplateComponent  -->
<g id="edge38" class="edge">
<title>DataFieldsComponentModule&#45;&gt;DataFieldTemplateComponent </title>
<path fill="none" stroke="black" stroke-dasharray="5,2" d="M3254.82,-143.8C3460.13,-143.8 3934.69,-143.8 3934.69,-143.8 3934.69,-143.8 3934.69,-168.56 3934.69,-168.56"/>
<polygon fill="black" stroke="black" points="3931.19,-168.56 3934.69,-178.56 3938.19,-168.56 3931.19,-168.56"/>
</g>
<!-- DateFieldComponent  -->
<g id="node39" class="node">
<title>DateFieldComponent </title>
<polygon fill="#fb8072" stroke="black" points="3862.04,-214.8 3721.96,-214.8 3721.96,-178.8 3862.04,-178.8 3862.04,-214.8"/>
<text text-anchor="middle" x="3792" y="-192.6" font-family="Times,serif" font-size="14.00">DateFieldComponent </text>
</g>
<!-- DataFieldsComponentModule&#45;&gt;DateFieldComponent  -->
<g id="edge39" class="edge">
<title>DataFieldsComponentModule&#45;&gt;DateFieldComponent </title>
<path fill="none" stroke="black" stroke-dasharray="5,2" d="M3254.69,-145.8C3424.92,-145.8 3770.1,-145.8 3770.1,-145.8 3770.1,-145.8 3770.1,-168.68 3770.1,-168.68"/>
<polygon fill="black" stroke="black" points="3766.6,-168.68 3770.1,-178.68 3773.6,-168.68 3766.6,-168.68"/>
</g>
<!-- DateTimeFieldComponent  -->
<g id="node40" class="node">
<title>DateTimeFieldComponent </title>
<polygon fill="#fb8072" stroke="black" points="3703.59,-214.8 3534.41,-214.8 3534.41,-178.8 3703.59,-178.8 3703.59,-214.8"/>
<text text-anchor="middle" x="3619" y="-192.6" font-family="Times,serif" font-size="14.00">DateTimeFieldComponent </text>
</g>
<!-- DataFieldsComponentModule&#45;&gt;DateTimeFieldComponent  -->
<g id="edge40" class="edge">
<title>DataFieldsComponentModule&#45;&gt;DateTimeFieldComponent </title>
<path fill="none" stroke="black" stroke-dasharray="5,2" d="M3254.74,-146.8C3382.44,-146.8 3596.8,-146.8 3596.8,-146.8 3596.8,-146.8 3596.8,-168.75 3596.8,-168.75"/>
<polygon fill="black" stroke="black" points="3593.3,-168.75 3596.8,-178.75 3600.3,-168.75 3593.3,-168.75"/>
</g>
<!-- EnumerationFieldComponent  -->
<g id="node41" class="node">
<title>EnumerationFieldComponent </title>
<polygon fill="#fb8072" stroke="black" points="3515.93,-214.8 3330.07,-214.8 3330.07,-178.8 3515.93,-178.8 3515.93,-214.8"/>
<text text-anchor="middle" x="3423" y="-192.6" font-family="Times,serif" font-size="14.00">EnumerationFieldComponent </text>
</g>
<!-- DataFieldsComponentModule&#45;&gt;EnumerationFieldComponent  -->
<g id="edge41" class="edge">
<title>DataFieldsComponentModule&#45;&gt;EnumerationFieldComponent </title>
<path fill="none" stroke="black" stroke-dasharray="5,2" d="M3254.82,-148.8C3319.22,-148.8 3393.48,-148.8 3393.48,-148.8 3393.48,-148.8 3393.48,-168.65 3393.48,-168.65"/>
<polygon fill="black" stroke="black" points="3389.98,-168.65 3393.48,-178.65 3396.98,-168.65 3389.98,-168.65"/>
</g>
<!-- FileFieldComponent  -->
<g id="node42" class="node">
<title>FileFieldComponent </title>
<polygon fill="#fb8072" stroke="black" points="3311.89,-214.8 3176.11,-214.8 3176.11,-178.8 3311.89,-178.8 3311.89,-214.8"/>
<text text-anchor="middle" x="3244" y="-192.6" font-family="Times,serif" font-size="14.00">FileFieldComponent </text>
</g>
<!-- DataFieldsComponentModule&#45;&gt;FileFieldComponent  -->
<g id="edge42" class="edge">
<title>DataFieldsComponentModule&#45;&gt;FileFieldComponent </title>
<path fill="none" stroke="black" stroke-dasharray="5,2" d="M3215.54,-149.91C3215.54,-149.91 3215.54,-168.79 3215.54,-168.79"/>
<polygon fill="black" stroke="black" points="3212.04,-168.79 3215.54,-178.79 3219.04,-168.79 3212.04,-168.79"/>
</g>
<!-- FileListFieldComponent  -->
<g id="node43" class="node">
<title>FileListFieldComponent </title>
<polygon fill="#fb8072" stroke="black" points="3158.67,-214.8 3001.33,-214.8 3001.33,-178.8 3158.67,-178.8 3158.67,-214.8"/>
<text text-anchor="middle" x="3080" y="-192.6" font-family="Times,serif" font-size="14.00">FileListFieldComponent </text>
</g>
<!-- DataFieldsComponentModule&#45;&gt;FileListFieldComponent  -->
<g id="edge43" class="edge">
<title>DataFieldsComponentModule&#45;&gt;FileListFieldComponent </title>
<path fill="none" stroke="black" stroke-dasharray="5,2" d="M3113.91,-149.91C3113.91,-149.91 3113.91,-168.79 3113.91,-168.79"/>
<polygon fill="black" stroke="black" points="3110.41,-168.79 3113.91,-178.79 3117.41,-168.79 3110.41,-168.79"/>
</g>
<!-- FilterFieldComponent  -->
<g id="node44" class="node">
<title>FilterFieldComponent </title>
<polygon fill="#fb8072" stroke="black" points="2982.94,-214.8 2839.06,-214.8 2839.06,-178.8 2982.94,-178.8 2982.94,-214.8"/>
<text text-anchor="middle" x="2911" y="-192.6" font-family="Times,serif" font-size="14.00">FilterFieldComponent </text>
</g>
<!-- DataFieldsComponentModule&#45;&gt;FilterFieldComponent  -->
<g id="edge44" class="edge">
<title>DataFieldsComponentModule&#45;&gt;FilterFieldComponent </title>
<path fill="none" stroke="black" stroke-dasharray="5,2" d="M3069.16,-148.8C3012.57,-148.8 2951.04,-148.8 2951.04,-148.8 2951.04,-148.8 2951.04,-168.65 2951.04,-168.65"/>
<polygon fill="black" stroke="black" points="2947.54,-168.65 2951.04,-178.65 2954.54,-168.65 2947.54,-168.65"/>
</g>
<!-- I18nFieldComponent  -->
<g id="node45" class="node">
<title>I18nFieldComponent </title>
<polygon fill="#fb8072" stroke="black" points="2820.77,-214.8 2681.23,-214.8 2681.23,-178.8 2820.77,-178.8 2820.77,-214.8"/>
<text text-anchor="middle" x="2751" y="-192.6" font-family="Times,serif" font-size="14.00">I18nFieldComponent </text>
</g>
<!-- DataFieldsComponentModule&#45;&gt;I18nFieldComponent  -->
<g id="edge45" class="edge">
<title>DataFieldsComponentModule&#45;&gt;I18nFieldComponent </title>
<path fill="none" stroke="black" stroke-dasharray="5,2" d="M3069.03,-146.8C2955.95,-146.8 2779.96,-146.8 2779.96,-146.8 2779.96,-146.8 2779.96,-168.75 2779.96,-168.75"/>
<polygon fill="black" stroke="black" points="2776.46,-168.75 2779.96,-178.75 2783.46,-168.75 2776.46,-168.75"/>
</g>
<!-- MultichoiceFieldComponent  -->
<g id="node46" class="node">
<title>MultichoiceFieldComponent </title>
<polygon fill="#fb8072" stroke="black" points="2663.76,-214.8 2482.24,-214.8 2482.24,-178.8 2663.76,-178.8 2663.76,-214.8"/>
<text text-anchor="middle" x="2573" y="-192.6" font-family="Times,serif" font-size="14.00">MultichoiceFieldComponent </text>
</g>
<!-- DataFieldsComponentModule&#45;&gt;MultichoiceFieldComponent  -->
<g id="edge46" class="edge">
<title>DataFieldsComponentModule&#45;&gt;MultichoiceFieldComponent </title>
<path fill="none" stroke="black" stroke-dasharray="5,2" d="M3069.44,-145.8C2910.68,-145.8 2603.38,-145.8 2603.38,-145.8 2603.38,-145.8 2603.38,-168.68 2603.38,-168.68"/>
<polygon fill="black" stroke="black" points="2599.88,-168.68 2603.38,-178.68 2606.88,-168.68 2599.88,-168.68"/>
</g>
<!-- NumberFieldComponent  -->
<g id="node47" class="node">
<title>NumberFieldComponent </title>
<polygon fill="#fb8072" stroke="black" points="2464.98,-214.8 2305.02,-214.8 2305.02,-178.8 2464.98,-178.8 2464.98,-214.8"/>
<text text-anchor="middle" x="2385" y="-192.6" font-family="Times,serif" font-size="14.00">NumberFieldComponent </text>
</g>
<!-- DataFieldsComponentModule&#45;&gt;NumberFieldComponent  -->
<g id="edge47" class="edge">
<title>DataFieldsComponentModule&#45;&gt;NumberFieldComponent </title>
<path fill="none" stroke="black" stroke-dasharray="5,2" d="M3069.1,-143.8C2864.89,-143.8 2394.99,-143.8 2394.99,-143.8 2394.99,-143.8 2394.99,-168.56 2394.99,-168.56"/>
<polygon fill="black" stroke="black" points="2391.49,-168.56 2394.99,-178.56 2398.49,-168.56 2391.49,-168.56"/>
</g>
<!-- TextFieldComponent  -->
<g id="node48" class="node">
<title>TextFieldComponent </title>
<polygon fill="#fb8072" stroke="black" points="2287.77,-214.8 2148.23,-214.8 2148.23,-178.8 2287.77,-178.8 2287.77,-214.8"/>
<text text-anchor="middle" x="2218" y="-192.6" font-family="Times,serif" font-size="14.00">TextFieldComponent </text>
</g>
<!-- DataFieldsComponentModule&#45;&gt;TextFieldComponent  -->
<g id="edge48" class="edge">
<title>DataFieldsComponentModule&#45;&gt;TextFieldComponent </title>
<path fill="none" stroke="black" stroke-dasharray="5,2" d="M3069.33,-142.8C2831.49,-142.8 2218,-142.8 2218,-142.8 2218,-142.8 2218,-168.52 2218,-168.52"/>
<polygon fill="black" stroke="black" points="2214.5,-168.52 2218,-178.52 2221.5,-168.52 2214.5,-168.52"/>
</g>
<!-- UserFieldComponent  -->
<g id="node49" class="node">
<title>UserFieldComponent </title>
<polygon fill="#fb8072" stroke="black" points="2130.04,-214.8 1989.96,-214.8 1989.96,-178.8 2130.04,-178.8 2130.04,-214.8"/>
<text text-anchor="middle" x="2060" y="-192.6" font-family="Times,serif" font-size="14.00">UserFieldComponent </text>
</g>
<!-- DataFieldsComponentModule&#45;&gt;UserFieldComponent  -->
<g id="edge49" class="edge">
<title>DataFieldsComponentModule&#45;&gt;UserFieldComponent </title>
<path fill="none" stroke="black" stroke-dasharray="5,2" d="M3069.33,-140.8C2812.85,-140.8 2112.52,-140.8 2112.52,-140.8 2112.52,-140.8 2112.52,-168.77 2112.52,-168.77"/>
<polygon fill="black" stroke="black" points="2109.02,-168.77 2112.52,-178.77 2116.02,-168.77 2109.02,-168.77"/>
</g>
</g>
</svg>
