<?xml version="1.0" encoding="UTF-8" standalone="no"?>
<!DOCTYPE svg PUBLIC "-//W3C//DTD SVG 1.1//EN"
 "http://www.w3.org/Graphics/SVG/1.1/DTD/svg11.dtd">
<!-- Generated by graphviz version 5.0.0 (20220707.1540)
 -->
<!-- Title: dependencies Pages: 1 -->
<svg width="685pt" height="247pt"
 viewBox="0.00 0.00 685.00 246.80" xmlns="http://www.w3.org/2000/svg" xmlns:xlink="http://www.w3.org/1999/xlink">
<g id="graph0" class="graph" transform="scale(1 1) rotate(0) translate(4 242.8)">
<title>dependencies</title>
<polygon fill="white" stroke="transparent" points="-4,4 -4,-242.8 681,-242.8 681,4 -4,4"/>
<text text-anchor="middle" x="338.5" y="-8.2" font-family="sans-serif" font-size="14.00">dependencies</text>
<g id="clust1" class="cluster">
<title>cluster_SearchComponentModule</title>
<polygon fill="none" stroke="black" stroke-dasharray="1,5" points="8,-32.8 8,-230.8 669,-230.8 669,-32.8 8,-32.8"/>
</g>
<g id="clust8" class="cluster">
<title>cluster_SearchComponentModule_exports</title>
<polygon fill="none" stroke="black" points="92,-170.8 92,-222.8 568,-222.8 568,-170.8 92,-170.8"/>
</g>
<g id="clust2" class="cluster">
<title>cluster_SearchComponentModule_declarations</title>
<polygon fill="none" stroke="black" points="16,-40.8 16,-92.8 661,-92.8 661,-40.8 16,-40.8"/>
</g>
<!-- CaseSearchComponent -->
<g id="node1" class="node">
<title>CaseSearchComponent</title>
<polygon fill="#ffffb3" stroke="black" points="653.14,-84.8 506.86,-84.8 506.86,-48.8 653.14,-48.8 653.14,-84.8"/>
<text text-anchor="middle" x="580" y="-62.6" font-family="Times,serif" font-size="14.00">CaseSearchComponent</text>
</g>
<!-- SearchComponentModule -->
<g id="node5" class="node">
<title>SearchComponentModule</title>
<polygon fill="#8dd3c7" stroke="black" points="411.47,-149.8 408.47,-153.8 387.47,-153.8 384.47,-149.8 248.53,-149.8 248.53,-113.8 411.47,-113.8 411.47,-149.8"/>
<text text-anchor="middle" x="330" y="-127.6" font-family="Times,serif" font-size="14.00">SearchComponentModule</text>
</g>
<!-- CaseSearchComponent&#45;&gt;SearchComponentModule -->
<g id="edge1" class="edge">
<title>CaseSearchComponent&#45;&gt;SearchComponentModule</title>
<path fill="none" stroke="black" d="M533.38,-84.91C533.38,-104.14 533.38,-131.8 533.38,-131.8 533.38,-131.8 421.55,-131.8 421.55,-131.8"/>
<polygon fill="black" stroke="black" points="421.55,-128.3 411.55,-131.8 421.55,-135.3 421.55,-128.3"/>
</g>
<!-- FulltextSearchComponent -->
<g id="node2" class="node">
<title>FulltextSearchComponent</title>
<polygon fill="#ffffb3" stroke="black" points="488.48,-84.8 325.52,-84.8 325.52,-48.8 488.48,-48.8 488.48,-84.8"/>
<text text-anchor="middle" x="407" y="-62.6" font-family="Times,serif" font-size="14.00">FulltextSearchComponent</text>
</g>
<!-- FulltextSearchComponent&#45;&gt;SearchComponentModule -->
<g id="edge2" class="edge">
<title>FulltextSearchComponent&#45;&gt;SearchComponentModule</title>
<path fill="none" stroke="black" d="M368.5,-84.91C368.5,-84.91 368.5,-103.79 368.5,-103.79"/>
<polygon fill="black" stroke="black" points="365,-103.79 368.5,-113.79 372,-103.79 365,-103.79"/>
</g>
<!-- SearchComponent -->
<g id="node3" class="node">
<title>SearchComponent</title>
<polygon fill="#ffffb3" stroke="black" points="307.92,-84.8 188.08,-84.8 188.08,-48.8 307.92,-48.8 307.92,-84.8"/>
<text text-anchor="middle" x="248" y="-62.6" font-family="Times,serif" font-size="14.00">SearchComponent</text>
</g>
<!-- SearchComponent&#45;&gt;SearchComponentModule -->
<g id="edge3" class="edge">
<title>SearchComponent&#45;&gt;SearchComponentModule</title>
<path fill="none" stroke="black" d="M278.11,-84.91C278.11,-84.91 278.11,-103.79 278.11,-103.79"/>
<polygon fill="black" stroke="black" points="274.61,-103.79 278.11,-113.79 281.61,-103.79 274.61,-103.79"/>
</g>
<!-- TaskSearchComponent -->
<g id="node4" class="node">
<title>TaskSearchComponent</title>
<polygon fill="#ffffb3" stroke="black" points="170.14,-84.8 23.86,-84.8 23.86,-48.8 170.14,-48.8 170.14,-84.8"/>
<text text-anchor="middle" x="97" y="-62.6" font-family="Times,serif" font-size="14.00">TaskSearchComponent</text>
</g>
<!-- TaskSearchComponent&#45;&gt;SearchComponentModule -->
<g id="edge4" class="edge">
<title>TaskSearchComponent&#45;&gt;SearchComponentModule</title>
<path fill="none" stroke="black" d="M135.12,-84.91C135.12,-104.14 135.12,-131.8 135.12,-131.8 135.12,-131.8 238.48,-131.8 238.48,-131.8"/>
<polygon fill="black" stroke="black" points="238.48,-135.3 248.48,-131.8 238.48,-128.3 238.48,-135.3"/>
</g>
<!-- CaseSearchComponent  -->
<g id="node6" class="node">
<title>CaseSearchComponent </title>
<polygon fill="#fb8072" stroke="black" points="560.13,-214.8 409.87,-214.8 409.87,-178.8 560.13,-178.8 560.13,-214.8"/>
<text text-anchor="middle" x="485" y="-192.6" font-family="Times,serif" font-size="14.00">CaseSearchComponent </text>
</g>
<!-- SearchComponentModule&#45;&gt;CaseSearchComponent  -->
<g id="edge5" class="edge">
<title>SearchComponentModule&#45;&gt;CaseSearchComponent </title>
<path fill="none" stroke="black" stroke-dasharray="5,2" d="M400.7,-149.91C400.7,-169.14 400.7,-196.8 400.7,-196.8 400.7,-196.8 401.6,-196.8 401.6,-196.8"/>
<polygon fill="black" stroke="black" points="399.72,-200.3 409.72,-196.8 399.72,-193.3 399.72,-200.3"/>
</g>
<!-- SearchComponent  -->
<g id="node7" class="node">
<title>SearchComponent </title>
<polygon fill="#fb8072" stroke="black" points="391.42,-214.8 268.58,-214.8 268.58,-178.8 391.42,-178.8 391.42,-214.8"/>
<text text-anchor="middle" x="330" y="-192.6" font-family="Times,serif" font-size="14.00">SearchComponent </text>
</g>
<!-- SearchComponentModule&#45;&gt;SearchComponent  -->
<g id="edge6" class="edge">
<title>SearchComponentModule&#45;&gt;SearchComponent </title>
<path fill="none" stroke="black" stroke-dasharray="5,2" d="M330,-149.91C330,-149.91 330,-168.79 330,-168.79"/>
<polygon fill="black" stroke="black" points="326.5,-168.79 330,-178.79 333.5,-168.79 326.5,-168.79"/>
</g>
<!-- TaskSearchComponent  -->
<g id="node8" class="node">
<title>TaskSearchComponent </title>
<polygon fill="#fb8072" stroke="black" points="250.13,-214.8 99.87,-214.8 99.87,-178.8 250.13,-178.8 250.13,-214.8"/>
<text text-anchor="middle" x="175" y="-192.6" font-family="Times,serif" font-size="14.00">TaskSearchComponent </text>
</g>
<!-- SearchComponentModule&#45;&gt;TaskSearchComponent  -->
<g id="edge7" class="edge">
<title>SearchComponentModule&#45;&gt;TaskSearchComponent </title>
<path fill="none" stroke="black" stroke-dasharray="5,2" d="M259.3,-149.91C259.3,-169.14 259.3,-196.8 259.3,-196.8 259.3,-196.8 258.4,-196.8 258.4,-196.8"/>
<polygon fill="black" stroke="black" points="260.28,-193.3 250.28,-196.8 260.28,-200.3 260.28,-193.3"/>
</g>
</g>
</svg>
