<?xml version="1.0" encoding="UTF-8" standalone="no"?>
<!DOCTYPE svg PUBLIC "-//W3C//DTD SVG 1.1//EN"
 "http://www.w3.org/Graphics/SVG/1.1/DTD/svg11.dtd">
<!-- Generated by graphviz version 5.0.0 (20220707.1540)
 -->
<!-- Title: dependencies Pages: 1 -->
<svg width="1076pt" height="247pt"
 viewBox="0.00 0.00 1076.00 246.80" xmlns="http://www.w3.org/2000/svg" xmlns:xlink="http://www.w3.org/1999/xlink">
<g id="graph0" class="graph" transform="scale(1 1) rotate(0) translate(4 242.8)">
<title>dependencies</title>
<polygon fill="white" stroke="transparent" points="-4,4 -4,-242.8 1072,-242.8 1072,4 -4,4"/>
<text text-anchor="middle" x="534" y="-8.2" font-family="sans-serif" font-size="14.00">dependencies</text>
<g id="clust1" class="cluster">
<title>cluster_AdvancedSearchComponentModule</title>
<polygon fill="none" stroke="black" stroke-dasharray="1,5" points="8,-32.8 8,-230.8 1060,-230.8 1060,-32.8 8,-32.8"/>
</g>
<g id="clust2" class="cluster">
<title>cluster_AdvancedSearchComponentModule_declarations</title>
<polygon fill="none" stroke="black" points="26,-40.8 26,-92.8 1044,-92.8 1044,-40.8 26,-40.8"/>
</g>
<g id="clust9" class="cluster">
<title>cluster_AdvancedSearchComponentModule_exports</title>
<polygon fill="none" stroke="black" points="16,-170.8 16,-222.8 1052,-222.8 1052,-170.8 16,-170.8"/>
</g>
<!-- AdvancedSearchComponent -->
<g id="node1" class="node">
<title>AdvancedSearchComponent</title>
<polygon fill="#ffffb3" stroke="black" points="1036.17,-84.8 859.83,-84.8 859.83,-48.8 1036.17,-48.8 1036.17,-84.8"/>
<text text-anchor="middle" x="948" y="-62.6" font-family="Times,serif" font-size="14.00">AdvancedSearchComponent</text>
</g>
<!-- AdvancedSearchComponentModule -->
<g id="node6" class="node">
<title>AdvancedSearchComponentModule</title>
<polygon fill="#8dd3c7" stroke="black" points="661.72,-149.8 658.72,-153.8 637.72,-153.8 634.72,-149.8 442.28,-149.8 442.28,-113.8 661.72,-113.8 661.72,-149.8"/>
<text text-anchor="middle" x="552" y="-127.6" font-family="Times,serif" font-size="14.00">AdvancedSearchComponentModule</text>
</g>
<!-- AdvancedSearchComponent&#45;&gt;AdvancedSearchComponentModule -->
<g id="edge1" class="edge">
<title>AdvancedSearchComponent&#45;&gt;AdvancedSearchComponentModule</title>
<path fill="none" stroke="black" d="M978.78,-85.07C978.78,-103.36 978.78,-128.8 978.78,-128.8 978.78,-128.8 671.91,-128.8 671.91,-128.8"/>
<polygon fill="black" stroke="black" points="671.91,-125.3 661.91,-128.8 671.91,-132.3 671.91,-125.3"/>
</g>
<!-- SearchClauseComponent -->
<g id="node2" class="node">
<title>SearchClauseComponent</title>
<polygon fill="#ffffb3" stroke="black" points="841.53,-84.8 684.47,-84.8 684.47,-48.8 841.53,-48.8 841.53,-84.8"/>
<text text-anchor="middle" x="763" y="-62.6" font-family="Times,serif" font-size="14.00">SearchClauseComponent</text>
</g>
<!-- SearchClauseComponent&#45;&gt;AdvancedSearchComponentModule -->
<g id="edge2" class="edge">
<title>SearchClauseComponent&#45;&gt;AdvancedSearchComponentModule</title>
<path fill="none" stroke="black" d="M789.67,-84.81C789.67,-100.85 789.67,-121.8 789.67,-121.8 789.67,-121.8 671.79,-121.8 671.79,-121.8"/>
<polygon fill="black" stroke="black" points="671.79,-118.3 661.79,-121.8 671.79,-125.3 671.79,-118.3"/>
</g>
<!-- SearchConfigurationInputComponent -->
<g id="node3" class="node">
<title>SearchConfigurationInputComponent</title>
<polygon fill="#ffffb3" stroke="black" points="665.52,-84.8 438.48,-84.8 438.48,-48.8 665.52,-48.8 665.52,-84.8"/>
<text text-anchor="middle" x="552" y="-62.6" font-family="Times,serif" font-size="14.00">SearchConfigurationInputComponent</text>
</g>
<!-- SearchConfigurationInputComponent&#45;&gt;AdvancedSearchComponentModule -->
<g id="edge3" class="edge">
<title>SearchConfigurationInputComponent&#45;&gt;AdvancedSearchComponentModule</title>
<path fill="none" stroke="black" d="M552,-84.91C552,-84.91 552,-103.79 552,-103.79"/>
<polygon fill="black" stroke="black" points="548.5,-103.79 552,-113.79 555.5,-103.79 548.5,-103.79"/>
</g>
<!-- SearchOperandInputComponent -->
<g id="node4" class="node">
<title>SearchOperandInputComponent</title>
<polygon fill="#ffffb3" stroke="black" points="420.67,-84.8 223.33,-84.8 223.33,-48.8 420.67,-48.8 420.67,-84.8"/>
<text text-anchor="middle" x="322" y="-62.6" font-family="Times,serif" font-size="14.00">SearchOperandInputComponent</text>
</g>
<!-- SearchOperandInputComponent&#45;&gt;AdvancedSearchComponentModule -->
<g id="edge4" class="edge">
<title>SearchOperandInputComponent&#45;&gt;AdvancedSearchComponentModule</title>
<path fill="none" stroke="black" d="M353.36,-84.81C353.36,-100.85 353.36,-121.8 353.36,-121.8 353.36,-121.8 432.22,-121.8 432.22,-121.8"/>
<polygon fill="black" stroke="black" points="432.22,-125.3 442.22,-121.8 432.22,-118.3 432.22,-125.3"/>
</g>
<!-- SearchPredicateComponent -->
<g id="node5" class="node">
<title>SearchPredicateComponent</title>
<polygon fill="#ffffb3" stroke="black" points="205.5,-84.8 34.5,-84.8 34.5,-48.8 205.5,-48.8 205.5,-84.8"/>
<text text-anchor="middle" x="120" y="-62.6" font-family="Times,serif" font-size="14.00">SearchPredicateComponent</text>
</g>
<!-- SearchPredicateComponent&#45;&gt;AdvancedSearchComponentModule -->
<g id="edge5" class="edge">
<title>SearchPredicateComponent&#45;&gt;AdvancedSearchComponentModule</title>
<path fill="none" stroke="black" d="M144.42,-85.07C144.42,-103.36 144.42,-128.8 144.42,-128.8 144.42,-128.8 432.24,-128.8 432.24,-128.8"/>
<polygon fill="black" stroke="black" points="432.24,-132.3 442.24,-128.8 432.24,-125.3 432.24,-132.3"/>
</g>
<!-- AdvancedSearchComponent  -->
<g id="node7" class="node">
<title>AdvancedSearchComponent </title>
<polygon fill="#fb8072" stroke="black" points="1043.67,-214.8 864.33,-214.8 864.33,-178.8 1043.67,-178.8 1043.67,-214.8"/>
<text text-anchor="middle" x="954" y="-192.6" font-family="Times,serif" font-size="14.00">AdvancedSearchComponent </text>
</g>
<!-- AdvancedSearchComponentModule&#45;&gt;AdvancedSearchComponent  -->
<g id="edge6" class="edge">
<title>AdvancedSearchComponentModule&#45;&gt;AdvancedSearchComponent </title>
<path fill="none" stroke="black" stroke-dasharray="5,2" d="M661.85,-135.8C770.76,-135.8 921.47,-135.8 921.47,-135.8 921.47,-135.8 921.47,-168.5 921.47,-168.5"/>
<polygon fill="black" stroke="black" points="917.97,-168.5 921.47,-178.5 924.97,-168.5 917.97,-168.5"/>
</g>
<!-- SearchClauseComponent  -->
<g id="node8" class="node">
<title>SearchClauseComponent </title>
<polygon fill="#fb8072" stroke="black" points="846.52,-214.8 685.48,-214.8 685.48,-178.8 846.52,-178.8 846.52,-214.8"/>
<text text-anchor="middle" x="766" y="-192.6" font-family="Times,serif" font-size="14.00">SearchClauseComponent </text>
</g>
<!-- AdvancedSearchComponentModule&#45;&gt;SearchClauseComponent  -->
<g id="edge7" class="edge">
<title>AdvancedSearchComponentModule&#45;&gt;SearchClauseComponent </title>
<path fill="none" stroke="black" stroke-dasharray="5,2" d="M661.83,-142.8C701.9,-142.8 737.58,-142.8 737.58,-142.8 737.58,-142.8 737.58,-168.52 737.58,-168.52"/>
<polygon fill="black" stroke="black" points="734.08,-168.52 737.58,-178.52 741.08,-168.52 734.08,-168.52"/>
</g>
<!-- SearchConfigurationInputComponent  -->
<g id="node9" class="node">
<title>SearchConfigurationInputComponent </title>
<polygon fill="#fb8072" stroke="black" points="667.52,-214.8 436.48,-214.8 436.48,-178.8 667.52,-178.8 667.52,-214.8"/>
<text text-anchor="middle" x="552" y="-192.6" font-family="Times,serif" font-size="14.00">SearchConfigurationInputComponent </text>
</g>
<!-- AdvancedSearchComponentModule&#45;&gt;SearchConfigurationInputComponent  -->
<g id="edge8" class="edge">
<title>AdvancedSearchComponentModule&#45;&gt;SearchConfigurationInputComponent </title>
<path fill="none" stroke="black" stroke-dasharray="5,2" d="M552,-149.91C552,-149.91 552,-168.79 552,-168.79"/>
<polygon fill="black" stroke="black" points="548.5,-168.79 552,-178.79 555.5,-168.79 548.5,-168.79"/>
</g>
<!-- SearchOperandInputComponent  -->
<g id="node10" class="node">
<title>SearchOperandInputComponent </title>
<polygon fill="#fb8072" stroke="black" points="418.17,-214.8 217.83,-214.8 217.83,-178.8 418.17,-178.8 418.17,-214.8"/>
<text text-anchor="middle" x="318" y="-192.6" font-family="Times,serif" font-size="14.00">SearchOperandInputComponent </text>
</g>
<!-- AdvancedSearchComponentModule&#45;&gt;SearchOperandInputComponent  -->
<g id="edge9" class="edge">
<title>AdvancedSearchComponentModule&#45;&gt;SearchOperandInputComponent </title>
<path fill="none" stroke="black" stroke-dasharray="5,2" d="M442.11,-142.8C369.78,-142.8 288.39,-142.8 288.39,-142.8 288.39,-142.8 288.39,-168.52 288.39,-168.52"/>
<polygon fill="black" stroke="black" points="284.89,-168.52 288.39,-178.52 291.89,-168.52 284.89,-168.52"/>
</g>
<!-- SearchPredicateComponent  -->
<g id="node11" class="node">
<title>SearchPredicateComponent </title>
<polygon fill="#fb8072" stroke="black" points="199.5,-214.8 24.5,-214.8 24.5,-178.8 199.5,-178.8 199.5,-214.8"/>
<text text-anchor="middle" x="112" y="-192.6" font-family="Times,serif" font-size="14.00">SearchPredicateComponent </text>
</g>
<!-- AdvancedSearchComponentModule&#45;&gt;SearchPredicateComponent  -->
<g id="edge10" class="edge">
<title>AdvancedSearchComponentModule&#45;&gt;SearchPredicateComponent </title>
<path fill="none" stroke="black" stroke-dasharray="5,2" d="M442.06,-135.8C305.23,-135.8 89.33,-135.8 89.33,-135.8 89.33,-135.8 89.33,-168.5 89.33,-168.5"/>
<polygon fill="black" stroke="black" points="85.83,-168.5 89.33,-178.5 92.83,-168.5 85.83,-168.5"/>
</g>
</g>
</svg>
