<?xml version="1.0" encoding="UTF-8" standalone="no"?>
<!DOCTYPE svg PUBLIC "-//W3C//DTD SVG 1.1//EN"
 "http://www.w3.org/Graphics/SVG/1.1/DTD/svg11.dtd">
<!-- Generated by graphviz version 2.47.0 (20210316.0004)
 -->
<!-- Title: dependencies Pages: 1 -->
<svg width="1076pt" height="284pt"
 viewBox="0.00 0.00 1076.00 284.00" xmlns="http://www.w3.org/2000/svg" xmlns:xlink="http://www.w3.org/1999/xlink">
<g id="graph0" class="graph" transform="scale(1 1) rotate(0) translate(4 280)">
<title>dependencies</title>
<polygon fill="white" stroke="transparent" points="-4,4 -4,-280 1072,-280 1072,4 -4,4"/>
<text text-anchor="start" x="513.01" y="-42.4" font-family="Times-12" font-weight="bold" font-size="14.00">Legend</text>
<polygon fill="#ffffb3" stroke="transparent" points="300,-10 300,-30 320,-30 320,-10 300,-10"/>
<text text-anchor="start" x="323.63" y="-15.4" font-family="Times-12" font-size="14.00"> &#160;Declarations</text>
<polygon fill="#8dd3c7" stroke="transparent" points="413,-10 413,-30 433,-30 433,-10 413,-10"/>
<text text-anchor="start" x="436.73" y="-15.4" font-family="Times-12" font-size="14.00"> &#160;Module</text>
<polygon fill="#80b1d3" stroke="transparent" points="499,-10 499,-30 519,-30 519,-10 499,-10"/>
<text text-anchor="start" x="522.78" y="-15.4" font-family="Times-12" font-size="14.00"> &#160;Bootstrap</text>
<polygon fill="#fdb462" stroke="transparent" points="596,-10 596,-30 616,-30 616,-10 596,-10"/>
<text text-anchor="start" x="619.67" y="-15.4" font-family="Times-12" font-size="14.00"> &#160;Providers</text>
<polygon fill="#fb8072" stroke="transparent" points="692,-10 692,-30 712,-30 712,-10 692,-10"/>
<text text-anchor="start" x="715.73" y="-15.4" font-family="Times-12" font-size="14.00"> &#160;Exports</text>
<g id="clust1" class="cluster">
<title>cluster_AdvancedSearchComponentModule</title>
<polygon fill="none" stroke="black" stroke-dasharray="1,5" points="8,-70 8,-268 1060,-268 1060,-70 8,-70"/>
</g>
<g id="clust9" class="cluster">
<title>cluster_AdvancedSearchComponentModule_exports</title>
<polygon fill="none" stroke="black" points="16,-208 16,-260 1052,-260 1052,-208 16,-208"/>
</g>
<g id="clust2" class="cluster">
<title>cluster_AdvancedSearchComponentModule_declarations</title>
<polygon fill="none" stroke="black" points="26,-78 26,-130 1044,-130 1044,-78 26,-78"/>
</g>
<!-- AdvancedSearchComponent -->
<g id="node1" class="node">
<title>AdvancedSearchComponent</title>
<polygon fill="#ffffb3" stroke="black" points="1036.17,-122 859.83,-122 859.83,-86 1036.17,-86 1036.17,-122"/>
<text text-anchor="middle" x="948" y="-99.8" font-family="Times,serif" font-size="14.00">AdvancedSearchComponent</text>
</g>
<!-- AdvancedSearchComponentModule -->
<g id="node6" class="node">
<title>AdvancedSearchComponentModule</title>
<polygon fill="#8dd3c7" stroke="black" points="661.72,-187 658.72,-191 637.72,-191 634.72,-187 442.28,-187 442.28,-151 661.72,-151 661.72,-187"/>
<text text-anchor="middle" x="552" y="-164.8" font-family="Times,serif" font-size="14.00">AdvancedSearchComponentModule</text>
</g>
<!-- AdvancedSearchComponent&#45;&gt;AdvancedSearchComponentModule -->
<g id="edge1" class="edge">
<title>AdvancedSearchComponent&#45;&gt;AdvancedSearchComponentModule</title>
<path fill="none" stroke="black" d="M978.78,-122.27C978.78,-140.56 978.78,-166 978.78,-166 978.78,-166 671.91,-166 671.91,-166"/>
<polygon fill="black" stroke="black" points="671.91,-162.5 661.91,-166 671.91,-169.5 671.91,-162.5"/>
</g>
<!-- SearchClauseComponent -->
<g id="node2" class="node">
<title>SearchClauseComponent</title>
<polygon fill="#ffffb3" stroke="black" points="841.52,-122 684.48,-122 684.48,-86 841.52,-86 841.52,-122"/>
<text text-anchor="middle" x="763" y="-99.8" font-family="Times,serif" font-size="14.00">SearchClauseComponent</text>
</g>
<!-- SearchClauseComponent&#45;&gt;AdvancedSearchComponentModule -->
<g id="edge2" class="edge">
<title>SearchClauseComponent&#45;&gt;AdvancedSearchComponentModule</title>
<path fill="none" stroke="black" d="M789.67,-122.01C789.67,-138.05 789.67,-159 789.67,-159 789.67,-159 671.79,-159 671.79,-159"/>
<polygon fill="black" stroke="black" points="671.79,-155.5 661.79,-159 671.79,-162.5 671.79,-155.5"/>
</g>
<!-- SearchConfigurationInputComponent -->
<g id="node3" class="node">
<title>SearchConfigurationInputComponent</title>
<polygon fill="#ffffb3" stroke="black" points="665.52,-122 438.48,-122 438.48,-86 665.52,-86 665.52,-122"/>
<text text-anchor="middle" x="552" y="-99.8" font-family="Times,serif" font-size="14.00">SearchConfigurationInputComponent</text>
</g>
<!-- SearchConfigurationInputComponent&#45;&gt;AdvancedSearchComponentModule -->
<g id="edge3" class="edge">
<title>SearchConfigurationInputComponent&#45;&gt;AdvancedSearchComponentModule</title>
<path fill="none" stroke="black" d="M552,-122.11C552,-122.11 552,-140.99 552,-140.99"/>
<polygon fill="black" stroke="black" points="548.5,-140.99 552,-150.99 555.5,-140.99 548.5,-140.99"/>
</g>
<!-- SearchOperandInputComponent -->
<g id="node4" class="node">
<title>SearchOperandInputComponent</title>
<polygon fill="#ffffb3" stroke="black" points="420.67,-122 223.33,-122 223.33,-86 420.67,-86 420.67,-122"/>
<text text-anchor="middle" x="322" y="-99.8" font-family="Times,serif" font-size="14.00">SearchOperandInputComponent</text>
</g>
<!-- SearchOperandInputComponent&#45;&gt;AdvancedSearchComponentModule -->
<g id="edge4" class="edge">
<title>SearchOperandInputComponent&#45;&gt;AdvancedSearchComponentModule</title>
<path fill="none" stroke="black" d="M353.36,-122.01C353.36,-138.05 353.36,-159 353.36,-159 353.36,-159 432.22,-159 432.22,-159"/>
<polygon fill="black" stroke="black" points="432.22,-162.5 442.22,-159 432.22,-155.5 432.22,-162.5"/>
</g>
<!-- SearchPredicateComponent -->
<g id="node5" class="node">
<title>SearchPredicateComponent</title>
<polygon fill="#ffffb3" stroke="black" points="205.5,-122 34.5,-122 34.5,-86 205.5,-86 205.5,-122"/>
<text text-anchor="middle" x="120" y="-99.8" font-family="Times,serif" font-size="14.00">SearchPredicateComponent</text>
</g>
<!-- SearchPredicateComponent&#45;&gt;AdvancedSearchComponentModule -->
<g id="edge5" class="edge">
<title>SearchPredicateComponent&#45;&gt;AdvancedSearchComponentModule</title>
<path fill="none" stroke="black" d="M144.42,-122.27C144.42,-140.56 144.42,-166 144.42,-166 144.42,-166 432.24,-166 432.24,-166"/>
<polygon fill="black" stroke="black" points="432.24,-169.5 442.24,-166 432.24,-162.5 432.24,-169.5"/>
</g>
<!-- AdvancedSearchComponent  -->
<g id="node7" class="node">
<title>AdvancedSearchComponent </title>
<polygon fill="#fb8072" stroke="black" points="1043.67,-252 864.33,-252 864.33,-216 1043.67,-216 1043.67,-252"/>
<text text-anchor="middle" x="954" y="-229.8" font-family="Times,serif" font-size="14.00">AdvancedSearchComponent </text>
</g>
<!-- AdvancedSearchComponentModule&#45;&gt;AdvancedSearchComponent  -->
<g id="edge6" class="edge">
<title>AdvancedSearchComponentModule&#45;&gt;AdvancedSearchComponent </title>
<path fill="none" stroke="black" stroke-dasharray="5,2" d="M661.85,-173C770.76,-173 921.47,-173 921.47,-173 921.47,-173 921.47,-205.7 921.47,-205.7"/>
<polygon fill="black" stroke="black" points="917.97,-205.7 921.47,-215.7 924.97,-205.7 917.97,-205.7"/>
</g>
<!-- SearchClauseComponent  -->
<g id="node8" class="node">
<title>SearchClauseComponent </title>
<polygon fill="#fb8072" stroke="black" points="846.52,-252 685.48,-252 685.48,-216 846.52,-216 846.52,-252"/>
<text text-anchor="middle" x="766" y="-229.8" font-family="Times,serif" font-size="14.00">SearchClauseComponent </text>
</g>
<!-- AdvancedSearchComponentModule&#45;&gt;SearchClauseComponent  -->
<g id="edge7" class="edge">
<title>AdvancedSearchComponentModule&#45;&gt;SearchClauseComponent </title>
<path fill="none" stroke="black" stroke-dasharray="5,2" d="M661.83,-180C701.9,-180 737.58,-180 737.58,-180 737.58,-180 737.58,-205.72 737.58,-205.72"/>
<polygon fill="black" stroke="black" points="734.08,-205.72 737.58,-215.72 741.08,-205.72 734.08,-205.72"/>
</g>
<!-- SearchConfigurationInputComponent  -->
<g id="node9" class="node">
<title>SearchConfigurationInputComponent </title>
<polygon fill="#fb8072" stroke="black" points="667.51,-252 436.49,-252 436.49,-216 667.51,-216 667.51,-252"/>
<text text-anchor="middle" x="552" y="-229.8" font-family="Times,serif" font-size="14.00">SearchConfigurationInputComponent </text>
</g>
<!-- AdvancedSearchComponentModule&#45;&gt;SearchConfigurationInputComponent  -->
<g id="edge8" class="edge">
<title>AdvancedSearchComponentModule&#45;&gt;SearchConfigurationInputComponent </title>
<path fill="none" stroke="black" stroke-dasharray="5,2" d="M552,-187.11C552,-187.11 552,-205.99 552,-205.99"/>
<polygon fill="black" stroke="black" points="548.5,-205.99 552,-215.99 555.5,-205.99 548.5,-205.99"/>
</g>
<!-- SearchOperandInputComponent  -->
<g id="node10" class="node">
<title>SearchOperandInputComponent </title>
<polygon fill="#fb8072" stroke="black" points="418.17,-252 217.83,-252 217.83,-216 418.17,-216 418.17,-252"/>
<text text-anchor="middle" x="318" y="-229.8" font-family="Times,serif" font-size="14.00">SearchOperandInputComponent </text>
</g>
<!-- AdvancedSearchComponentModule&#45;&gt;SearchOperandInputComponent  -->
<g id="edge9" class="edge">
<title>AdvancedSearchComponentModule&#45;&gt;SearchOperandInputComponent </title>
<path fill="none" stroke="black" stroke-dasharray="5,2" d="M442.11,-180C369.78,-180 288.39,-180 288.39,-180 288.39,-180 288.39,-205.72 288.39,-205.72"/>
<polygon fill="black" stroke="black" points="284.89,-205.72 288.39,-215.72 291.89,-205.72 284.89,-205.72"/>
</g>
<!-- SearchPredicateComponent  -->
<g id="node11" class="node">
<title>SearchPredicateComponent </title>
<polygon fill="#fb8072" stroke="black" points="199.5,-252 24.5,-252 24.5,-216 199.5,-216 199.5,-252"/>
<text text-anchor="middle" x="112" y="-229.8" font-family="Times,serif" font-size="14.00">SearchPredicateComponent </text>
</g>
<!-- AdvancedSearchComponentModule&#45;&gt;SearchPredicateComponent  -->
<g id="edge10" class="edge">
<title>AdvancedSearchComponentModule&#45;&gt;SearchPredicateComponent </title>
<path fill="none" stroke="black" stroke-dasharray="5,2" d="M442.06,-173C305.23,-173 89.33,-173 89.33,-173 89.33,-173 89.33,-205.7 89.33,-205.7"/>
<polygon fill="black" stroke="black" points="85.83,-205.7 89.33,-215.7 92.83,-205.7 85.83,-205.7"/>
</g>
</g>
</svg>
