<?xml version="1.0" encoding="UTF-8" standalone="no"?>
<!DOCTYPE svg PUBLIC "-//W3C//DTD SVG 1.1//EN"
 "http://www.w3.org/Graphics/SVG/1.1/DTD/svg11.dtd">
<!-- Generated by graphviz version 3.0.0 (20220226.1711)
 -->
<!-- Title: dependencies Pages: 1 -->
<svg width="304pt" height="247pt"
 viewBox="0.00 0.00 304.00 246.80" xmlns="http://www.w3.org/2000/svg" xmlns:xlink="http://www.w3.org/1999/xlink">
<g id="graph0" class="graph" transform="scale(1 1) rotate(0) translate(4 242.8)">
<title>dependencies</title>
<polygon fill="white" stroke="transparent" points="-4,4 -4,-242.8 300,-242.8 300,4 -4,4"/>
<text text-anchor="middle" x="148" y="-8.2" font-family="sans-serif" font-size="14.00">dependencies</text>
<g id="clust1" class="cluster">
<title>cluster_ForgottenPasswordFormComponentModule</title>
<polygon fill="none" stroke="black" stroke-dasharray="1,5" points="8,-32.8 8,-230.8 288,-230.8 288,-32.8 8,-32.8"/>
</g>
<g id="clust2" class="cluster">
<title>cluster_ForgottenPasswordFormComponentModule_declarations</title>
<polygon fill="none" stroke="black" points="30,-40.8 30,-92.8 266,-92.8 266,-40.8 30,-40.8"/>
</g>
<g id="clust5" class="cluster">
<title>cluster_ForgottenPasswordFormComponentModule_exports</title>
<polygon fill="none" stroke="black" points="28,-170.8 28,-222.8 268,-222.8 268,-170.8 28,-170.8"/>
</g>
<!-- ForgottenPasswordFormComponent -->
<g id="node1" class="node">
<title>ForgottenPasswordFormComponent</title>
<polygon fill="#ffffb3" stroke="black" points="257.78,-84.8 38.22,-84.8 38.22,-48.8 257.78,-48.8 257.78,-84.8"/>
<text text-anchor="middle" x="148" y="-62.6" font-family="Times,serif" font-size="14.00">ForgottenPasswordFormComponent</text>
</g>
<!-- ForgottenPasswordFormComponentModule -->
<g id="node2" class="node">
<title>ForgottenPasswordFormComponentModule</title>
<polygon fill="#8dd3c7" stroke="black" points="279.83,-149.8 276.83,-153.8 255.83,-153.8 252.83,-149.8 16.17,-149.8 16.17,-113.8 279.83,-113.8 279.83,-149.8"/>
<text text-anchor="middle" x="148" y="-127.6" font-family="Times,serif" font-size="14.00">ForgottenPasswordFormComponentModule</text>
</g>
<!-- ForgottenPasswordFormComponent&#45;&gt;ForgottenPasswordFormComponentModule -->
<g id="edge1" class="edge">
<title>ForgottenPasswordFormComponent&#45;&gt;ForgottenPasswordFormComponentModule</title>
<path fill="none" stroke="black" d="M148,-84.91C148,-84.91 148,-103.79 148,-103.79"/>
<polygon fill="black" stroke="black" points="144.5,-103.79 148,-113.79 151.5,-103.79 144.5,-103.79"/>
</g>
<!-- ForgottenPasswordFormComponent  -->
<g id="node3" class="node">
<title>ForgottenPasswordFormComponent </title>
<polygon fill="#fb8072" stroke="black" points="259.78,-214.8 36.22,-214.8 36.22,-178.8 259.78,-178.8 259.78,-214.8"/>
<text text-anchor="middle" x="148" y="-192.6" font-family="Times,serif" font-size="14.00">ForgottenPasswordFormComponent </text>
</g>
<!-- ForgottenPasswordFormComponentModule&#45;&gt;ForgottenPasswordFormComponent  -->
<g id="edge2" class="edge">
<title>ForgottenPasswordFormComponentModule&#45;&gt;ForgottenPasswordFormComponent </title>
<path fill="none" stroke="black" stroke-dasharray="5,2" d="M148,-149.91C148,-149.91 148,-168.79 148,-168.79"/>
<polygon fill="black" stroke="black" points="144.5,-168.79 148,-178.79 151.5,-168.79 144.5,-168.79"/>
</g>
</g>
</svg>
