<?xml version="1.0" encoding="UTF-8" standalone="no"?>
<!DOCTYPE svg PUBLIC "-//W3C//DTD SVG 1.1//EN"
 "http://www.w3.org/Graphics/SVG/1.1/DTD/svg11.dtd">
<!-- Generated by graphviz version 2.47.0 (20210316.0004)
 -->
<!-- Title: dependencies Pages: 1 -->
<svg width="630pt" height="284pt"
 viewBox="0.00 0.00 630.00 284.00" xmlns="http://www.w3.org/2000/svg" xmlns:xlink="http://www.w3.org/1999/xlink">
<g id="graph0" class="graph" transform="scale(1 1) rotate(0) translate(4 280)">
<title>dependencies</title>
<polygon fill="white" stroke="transparent" points="-4,4 -4,-280 626,-280 626,4 -4,4"/>
<text text-anchor="start" x="290.01" y="-42.4" font-family="Times-12" font-weight="bold" font-size="14.00">Legend</text>
<polygon fill="#ffffb3" stroke="transparent" points="77,-10 77,-30 97,-30 97,-10 77,-10"/>
<text text-anchor="start" x="100.63" y="-15.4" font-family="Times-12" font-size="14.00"> &#160;Declarations</text>
<polygon fill="#8dd3c7" stroke="transparent" points="190,-10 190,-30 210,-30 210,-10 190,-10"/>
<text text-anchor="start" x="213.73" y="-15.4" font-family="Times-12" font-size="14.00"> &#160;Module</text>
<polygon fill="#80b1d3" stroke="transparent" points="276,-10 276,-30 296,-30 296,-10 276,-10"/>
<text text-anchor="start" x="299.78" y="-15.4" font-family="Times-12" font-size="14.00"> &#160;Bootstrap</text>
<polygon fill="#fdb462" stroke="transparent" points="373,-10 373,-30 393,-30 393,-10 373,-10"/>
<text text-anchor="start" x="396.67" y="-15.4" font-family="Times-12" font-size="14.00"> &#160;Providers</text>
<polygon fill="#fb8072" stroke="transparent" points="469,-10 469,-30 489,-30 489,-10 469,-10"/>
<text text-anchor="start" x="492.73" y="-15.4" font-family="Times-12" font-size="14.00"> &#160;Exports</text>
<g id="clust1" class="cluster">
<title>cluster_AuthenticationComponentModule</title>
<polygon fill="none" stroke="black" stroke-dasharray="1,5" points="8,-70 8,-268 614,-268 614,-70 8,-70"/>
</g>
<g id="clust2" class="cluster">
<title>cluster_AuthenticationComponentModule_declarations</title>
<polygon fill="none" stroke="black" points="16,-78 16,-130 606,-130 606,-78 16,-78"/>
</g>
<g id="clust7" class="cluster">
<title>cluster_AuthenticationComponentModule_exports</title>
<polygon fill="none" stroke="black" points="106,-208 106,-260 503,-260 503,-208 106,-208"/>
</g>
<!-- AuthenticationOverlayComponent -->
<g id="node1" class="node">
<title>AuthenticationOverlayComponent</title>
<polygon fill="#ffffb3" stroke="black" points="597.62,-122 388.38,-122 388.38,-86 597.62,-86 597.62,-122"/>
<text text-anchor="middle" x="493" y="-99.8" font-family="Times,serif" font-size="14.00">AuthenticationOverlayComponent</text>
</g>
<!-- AuthenticationComponentModule -->
<g id="node4" class="node">
<title>AuthenticationComponentModule</title>
<polygon fill="#8dd3c7" stroke="black" points="383.09,-187 380.09,-191 359.09,-191 356.09,-187 174.91,-187 174.91,-151 383.09,-151 383.09,-187"/>
<text text-anchor="middle" x="279" y="-164.8" font-family="Times,serif" font-size="14.00">AuthenticationComponentModule</text>
</g>
<!-- AuthenticationOverlayComponent&#45;&gt;AuthenticationComponentModule -->
<g id="edge1" class="edge">
<title>AuthenticationOverlayComponent&#45;&gt;AuthenticationComponentModule</title>
<path fill="none" stroke="black" d="M388.04,-104C380.88,-104 376.44,-104 376.44,-104 376.44,-104 376.44,-140.89 376.44,-140.89"/>
<polygon fill="black" stroke="black" points="372.94,-140.89 376.44,-150.89 379.94,-140.89 372.94,-140.89"/>
</g>
<!-- PopupSessionIdleComponent -->
<g id="node2" class="node">
<title>PopupSessionIdleComponent</title>
<polygon fill="#ffffb3" stroke="black" points="369.66,-122 188.34,-122 188.34,-86 369.66,-86 369.66,-122"/>
<text text-anchor="middle" x="279" y="-99.8" font-family="Times,serif" font-size="14.00">PopupSessionIdleComponent</text>
</g>
<!-- PopupSessionIdleComponent&#45;&gt;AuthenticationComponentModule -->
<g id="edge2" class="edge">
<title>PopupSessionIdleComponent&#45;&gt;AuthenticationComponentModule</title>
<path fill="none" stroke="black" d="M279,-122.11C279,-122.11 279,-140.99 279,-140.99"/>
<polygon fill="black" stroke="black" points="275.5,-140.99 279,-150.99 282.5,-140.99 275.5,-140.99"/>
</g>
<!-- SessionIdleComponent -->
<g id="node3" class="node">
<title>SessionIdleComponent</title>
<polygon fill="#ffffb3" stroke="black" points="169.88,-122 24.12,-122 24.12,-86 169.88,-86 169.88,-122"/>
<text text-anchor="middle" x="97" y="-99.8" font-family="Times,serif" font-size="14.00">SessionIdleComponent</text>
</g>
<!-- SessionIdleComponent&#45;&gt;AuthenticationComponentModule -->
<g id="edge3" class="edge">
<title>SessionIdleComponent&#45;&gt;AuthenticationComponentModule</title>
<path fill="none" stroke="black" d="M170.16,-104C177.07,-104 181.56,-104 181.56,-104 181.56,-104 181.56,-140.89 181.56,-140.89"/>
<polygon fill="black" stroke="black" points="178.06,-140.89 181.56,-150.89 185.06,-140.89 178.06,-140.89"/>
</g>
<!-- AuthenticationOverlayComponent  -->
<g id="node5" class="node">
<title>AuthenticationOverlayComponent </title>
<polygon fill="#fb8072" stroke="black" points="494.62,-252 281.38,-252 281.38,-216 494.62,-216 494.62,-252"/>
<text text-anchor="middle" x="388" y="-229.8" font-family="Times,serif" font-size="14.00">AuthenticationOverlayComponent </text>
</g>
<!-- AuthenticationComponentModule&#45;&gt;AuthenticationOverlayComponent  -->
<g id="edge4" class="edge">
<title>AuthenticationComponentModule&#45;&gt;AuthenticationOverlayComponent </title>
<path fill="none" stroke="black" stroke-dasharray="5,2" d="M332.24,-187.11C332.24,-187.11 332.24,-205.99 332.24,-205.99"/>
<polygon fill="black" stroke="black" points="328.74,-205.99 332.24,-215.99 335.74,-205.99 328.74,-205.99"/>
</g>
<!-- SessionIdleComponent  -->
<g id="node6" class="node">
<title>SessionIdleComponent </title>
<polygon fill="#fb8072" stroke="black" points="263.88,-252 114.12,-252 114.12,-216 263.88,-216 263.88,-252"/>
<text text-anchor="middle" x="189" y="-229.8" font-family="Times,serif" font-size="14.00">SessionIdleComponent </text>
</g>
<!-- AuthenticationComponentModule&#45;&gt;SessionIdleComponent  -->
<g id="edge5" class="edge">
<title>AuthenticationComponentModule&#45;&gt;SessionIdleComponent </title>
<path fill="none" stroke="black" stroke-dasharray="5,2" d="M219.32,-187.11C219.32,-187.11 219.32,-205.99 219.32,-205.99"/>
<polygon fill="black" stroke="black" points="215.82,-205.99 219.32,-215.99 222.82,-205.99 215.82,-205.99"/>
</g>
</g>
</svg>
