<?xml version="1.0" encoding="UTF-8" standalone="no"?>
<!DOCTYPE svg PUBLIC "-//W3C//DTD SVG 1.1//EN"
 "http://www.w3.org/Graphics/SVG/1.1/DTD/svg11.dtd">
<!-- Generated by graphviz version 5.0.0 (20220707.1540)
 -->
<!-- Title: dependencies Pages: 1 -->
<svg width="270pt" height="247pt"
 viewBox="0.00 0.00 270.00 246.80" xmlns="http://www.w3.org/2000/svg" xmlns:xlink="http://www.w3.org/1999/xlink">
<g id="graph0" class="graph" transform="scale(1 1) rotate(0) translate(4 242.8)">
<title>dependencies</title>
<polygon fill="white" stroke="transparent" points="-4,4 -4,-242.8 266,-242.8 266,4 -4,4"/>
<text text-anchor="middle" x="131" y="-8.2" font-family="sans-serif" font-size="14.00">dependencies</text>
<g id="clust1" class="cluster">
<title>cluster_AuthenticationComponentModule</title>
<polygon fill="none" stroke="black" stroke-dasharray="1,5" points="8,-32.8 8,-230.8 254,-230.8 254,-32.8 8,-32.8"/>
</g>
<g id="clust2" class="cluster">
<title>cluster_AuthenticationComponentModule_declarations</title>
<polygon fill="none" stroke="black" points="18,-40.8 18,-92.8 244,-92.8 244,-40.8 18,-40.8"/>
</g>
<g id="clust5" class="cluster">
<title>cluster_AuthenticationComponentModule_exports</title>
<polygon fill="none" stroke="black" points="16,-170.8 16,-222.8 246,-222.8 246,-170.8 16,-170.8"/>
</g>
<!-- AuthenticationOverlayComponent -->
<g id="node1" class="node">
<title>AuthenticationOverlayComponent</title>
<polygon fill="#ffffb3" stroke="black" points="235.62,-84.8 26.38,-84.8 26.38,-48.8 235.62,-48.8 235.62,-84.8"/>
<text text-anchor="middle" x="131" y="-62.6" font-family="Times,serif" font-size="14.00">AuthenticationOverlayComponent</text>
</g>
<!-- AuthenticationComponentModule -->
<g id="node2" class="node">
<title>AuthenticationComponentModule</title>
<polygon fill="#8dd3c7" stroke="black" points="235.08,-149.8 232.08,-153.8 211.08,-153.8 208.08,-149.8 26.92,-149.8 26.92,-113.8 235.08,-113.8 235.08,-149.8"/>
<text text-anchor="middle" x="131" y="-127.6" font-family="Times,serif" font-size="14.00">AuthenticationComponentModule</text>
</g>
<!-- AuthenticationOverlayComponent&#45;&gt;AuthenticationComponentModule -->
<g id="edge1" class="edge">
<title>AuthenticationOverlayComponent&#45;&gt;AuthenticationComponentModule</title>
<path fill="none" stroke="black" d="M131,-84.91C131,-84.91 131,-103.79 131,-103.79"/>
<polygon fill="black" stroke="black" points="127.5,-103.79 131,-113.79 134.5,-103.79 127.5,-103.79"/>
</g>
<!-- AuthenticationOverlayComponent  -->
<g id="node3" class="node">
<title>AuthenticationOverlayComponent </title>
<polygon fill="#fb8072" stroke="black" points="237.62,-214.8 24.38,-214.8 24.38,-178.8 237.62,-178.8 237.62,-214.8"/>
<text text-anchor="middle" x="131" y="-192.6" font-family="Times,serif" font-size="14.00">AuthenticationOverlayComponent </text>
</g>
<!-- AuthenticationComponentModule&#45;&gt;AuthenticationOverlayComponent  -->
<g id="edge2" class="edge">
<title>AuthenticationComponentModule&#45;&gt;AuthenticationOverlayComponent </title>
<path fill="none" stroke="black" stroke-dasharray="5,2" d="M131,-149.91C131,-149.91 131,-168.79 131,-168.79"/>
<polygon fill="black" stroke="black" points="127.5,-168.79 131,-178.79 134.5,-168.79 127.5,-168.79"/>
</g>
</g>
</svg>
