<?xml version="1.0" encoding="UTF-8" standalone="no"?>
<!DOCTYPE svg PUBLIC "-//W3C//DTD SVG 1.1//EN"
 "http://www.w3.org/Graphics/SVG/1.1/DTD/svg11.dtd">
<!-- Generated by graphviz version 5.0.0 (20220707.1540)
 -->
<!-- Title: dependencies Pages: 1 -->
<svg width="408pt" height="174pt"
 viewBox="0.00 0.00 408.00 173.80" xmlns="http://www.w3.org/2000/svg" xmlns:xlink="http://www.w3.org/1999/xlink">
<g id="graph0" class="graph" transform="scale(1 1) rotate(0) translate(4 169.8)">
<title>dependencies</title>
<polygon fill="white" stroke="transparent" points="-4,4 -4,-169.8 404,-169.8 404,4 -4,4"/>
<text text-anchor="middle" x="200" y="-8.2" font-family="sans-serif" font-size="14.00">dependencies</text>
<g id="clust1" class="cluster">
<title>cluster_TranslateLibModule</title>
<polygon fill="none" stroke="black" stroke-dasharray="1,5" points="8,-32.8 8,-157.8 392,-157.8 392,-32.8 8,-32.8"/>
</g>
<g id="clust6" class="cluster">
<title>cluster_TranslateLibModule_providers</title>
<polygon fill="none" stroke="black" points="16,-40.8 16,-92.8 384,-92.8 384,-40.8 16,-40.8"/>
</g>
<!-- LanguageService -->
<g id="node1" class="node">
<title>LanguageService</title>
<ellipse fill="#fdb462" stroke="black" cx="298" cy="-66.8" rx="78.13" ry="18"/>
<text text-anchor="middle" x="298" y="-62.6" font-family="Times,serif" font-size="14.00">LanguageService</text>
</g>
<!-- TranslateLibModule -->
<g id="node3" class="node">
<title>TranslateLibModule</title>
<polygon fill="#8dd3c7" stroke="black" points="270.58,-149.8 267.58,-153.8 246.58,-153.8 243.58,-149.8 139.42,-149.8 139.42,-113.8 270.58,-113.8 270.58,-149.8"/>
<text text-anchor="middle" x="205" y="-127.6" font-family="Times,serif" font-size="14.00">TranslateLibModule</text>
</g>
<!-- LanguageService&#45;&gt;TranslateLibModule -->
<g id="edge1" class="edge">
<title>LanguageService&#45;&gt;TranslateLibModule</title>
<path fill="none" stroke="black" d="M245.24,-80.27C245.24,-80.27 245.24,-103.66 245.24,-103.66"/>
<polygon fill="black" stroke="black" points="241.74,-103.66 245.24,-113.66 248.74,-103.66 241.74,-103.66"/>
</g>
<!-- TranslateInterceptor -->
<g id="node2" class="node">
<title>TranslateInterceptor</title>
<ellipse fill="#fdb462" stroke="black" cx="113" cy="-66.8" rx="89.14" ry="18"/>
<text text-anchor="middle" x="113" y="-62.6" font-family="Times,serif" font-size="14.00">TranslateInterceptor</text>
</g>
<!-- TranslateInterceptor&#45;&gt;TranslateLibModule -->
<g id="edge2" class="edge">
<title>TranslateInterceptor&#45;&gt;TranslateLibModule</title>
<path fill="none" stroke="black" d="M170.89,-80.58C170.89,-80.58 170.89,-103.35 170.89,-103.35"/>
<polygon fill="black" stroke="black" points="167.39,-103.35 170.89,-113.35 174.39,-103.35 167.39,-103.35"/>
</g>
</g>
</svg>
