<?xml version="1.0" encoding="UTF-8" standalone="no"?>
<!DOCTYPE svg PUBLIC "-//W3C//DTD SVG 1.1//EN"
 "http://www.w3.org/Graphics/SVG/1.1/DTD/svg11.dtd">
<!-- Generated by graphviz version 2.47.0 (20210316.0004)
 -->
<!-- Title: dependencies Pages: 1 -->
<svg width="504pt" height="211pt"
 viewBox="0.00 0.00 504.00 211.00" xmlns="http://www.w3.org/2000/svg" xmlns:xlink="http://www.w3.org/1999/xlink">
<g id="graph0" class="graph" transform="scale(1 1) rotate(0) translate(4 207)">
<title>dependencies</title>
<polygon fill="white" stroke="transparent" points="-4,4 -4,-207 500,-207 500,4 -4,4"/>
<text text-anchor="start" x="227.01" y="-42.4" font-family="Times-12" font-weight="bold" font-size="14.00">Legend</text>
<polygon fill="#ffffb3" stroke="transparent" points="14,-10 14,-30 34,-30 34,-10 14,-10"/>
<text text-anchor="start" x="37.63" y="-15.4" font-family="Times-12" font-size="14.00"> &#160;Declarations</text>
<polygon fill="#8dd3c7" stroke="transparent" points="127,-10 127,-30 147,-30 147,-10 127,-10"/>
<text text-anchor="start" x="150.73" y="-15.4" font-family="Times-12" font-size="14.00"> &#160;Module</text>
<polygon fill="#80b1d3" stroke="transparent" points="213,-10 213,-30 233,-30 233,-10 213,-10"/>
<text text-anchor="start" x="236.78" y="-15.4" font-family="Times-12" font-size="14.00"> &#160;Bootstrap</text>
<polygon fill="#fdb462" stroke="transparent" points="310,-10 310,-30 330,-30 330,-10 310,-10"/>
<text text-anchor="start" x="333.67" y="-15.4" font-family="Times-12" font-size="14.00"> &#160;Providers</text>
<polygon fill="#fb8072" stroke="transparent" points="406,-10 406,-30 426,-30 426,-10 406,-10"/>
<text text-anchor="start" x="429.73" y="-15.4" font-family="Times-12" font-size="14.00"> &#160;Exports</text>
<g id="clust1" class="cluster">
<title>cluster_TranslateLibModule</title>
<polygon fill="none" stroke="black" stroke-dasharray="1,5" points="56,-70 56,-195 440,-195 440,-70 56,-70"/>
</g>
<g id="clust6" class="cluster">
<title>cluster_TranslateLibModule_providers</title>
<polygon fill="none" stroke="black" points="64,-78 64,-130 432,-130 432,-78 64,-78"/>
</g>
<!-- LanguageService -->
<g id="node1" class="node">
<title>LanguageService</title>
<ellipse fill="#fdb462" stroke="black" cx="346" cy="-104" rx="78.13" ry="18"/>
<text text-anchor="middle" x="346" y="-99.8" font-family="Times,serif" font-size="14.00">LanguageService</text>
</g>
<!-- TranslateLibModule -->
<g id="node3" class="node">
<title>TranslateLibModule</title>
<polygon fill="#8dd3c7" stroke="black" points="318.58,-187 315.58,-191 294.58,-191 291.58,-187 187.42,-187 187.42,-151 318.58,-151 318.58,-187"/>
<text text-anchor="middle" x="253" y="-164.8" font-family="Times,serif" font-size="14.00">TranslateLibModule</text>
</g>
<!-- LanguageService&#45;&gt;TranslateLibModule -->
<g id="edge1" class="edge">
<title>LanguageService&#45;&gt;TranslateLibModule</title>
<path fill="none" stroke="black" d="M293.24,-117.47C293.24,-117.47 293.24,-140.86 293.24,-140.86"/>
<polygon fill="black" stroke="black" points="289.74,-140.86 293.24,-150.86 296.74,-140.86 289.74,-140.86"/>
</g>
<!-- TranslateInterceptor -->
<g id="node2" class="node">
<title>TranslateInterceptor</title>
<ellipse fill="#fdb462" stroke="black" cx="161" cy="-104" rx="89.14" ry="18"/>
<text text-anchor="middle" x="161" y="-99.8" font-family="Times,serif" font-size="14.00">TranslateInterceptor</text>
</g>
<!-- TranslateInterceptor&#45;&gt;TranslateLibModule -->
<g id="edge2" class="edge">
<title>TranslateInterceptor&#45;&gt;TranslateLibModule</title>
<path fill="none" stroke="black" d="M218.89,-117.78C218.89,-117.78 218.89,-140.55 218.89,-140.55"/>
<polygon fill="black" stroke="black" points="215.39,-140.55 218.89,-150.55 222.39,-140.55 215.39,-140.55"/>
</g>
</g>
</svg>
