<?xml version="1.0" encoding="UTF-8" standalone="no"?>
<!DOCTYPE svg PUBLIC "-//W3C//DTD SVG 1.1//EN"
 "http://www.w3.org/Graphics/SVG/1.1/DTD/svg11.dtd">
<!-- Generated by graphviz version 2.47.0 (20210316.0004)
 -->
<!-- Title: dependencies Pages: 1 -->
<svg width="679pt" height="349pt"
 viewBox="0.00 0.00 679.00 349.00" xmlns="http://www.w3.org/2000/svg" xmlns:xlink="http://www.w3.org/1999/xlink">
<g id="graph0" class="graph" transform="scale(1 1) rotate(0) translate(4 345)">
<title>dependencies</title>
<polygon fill="white" stroke="transparent" points="-4,4 -4,-345 675,-345 675,4 -4,4"/>
<text text-anchor="start" x="314.51" y="-42.4" font-family="Times-12" font-weight="bold" font-size="14.00">Legend</text>
<polygon fill="#ffffb3" stroke="transparent" points="101.5,-10 101.5,-30 121.5,-30 121.5,-10 101.5,-10"/>
<text text-anchor="start" x="125.13" y="-15.4" font-family="Times-12" font-size="14.00"> &#160;Declarations</text>
<polygon fill="#8dd3c7" stroke="transparent" points="214.5,-10 214.5,-30 234.5,-30 234.5,-10 214.5,-10"/>
<text text-anchor="start" x="238.23" y="-15.4" font-family="Times-12" font-size="14.00"> &#160;Module</text>
<polygon fill="#80b1d3" stroke="transparent" points="300.5,-10 300.5,-30 320.5,-30 320.5,-10 300.5,-10"/>
<text text-anchor="start" x="324.28" y="-15.4" font-family="Times-12" font-size="14.00"> &#160;Bootstrap</text>
<polygon fill="#fdb462" stroke="transparent" points="397.5,-10 397.5,-30 417.5,-30 417.5,-10 397.5,-10"/>
<text text-anchor="start" x="421.17" y="-15.4" font-family="Times-12" font-size="14.00"> &#160;Providers</text>
<polygon fill="#fb8072" stroke="transparent" points="493.5,-10 493.5,-30 513.5,-30 513.5,-10 493.5,-10"/>
<text text-anchor="start" x="517.23" y="-15.4" font-family="Times-12" font-size="14.00"> &#160;Exports</text>
<g id="clust1" class="cluster">
<title>cluster_SideMenuMultiUserAssignComponentModule</title>
<polygon fill="none" stroke="black" stroke-dasharray="1,5" points="8,-70 8,-333 663,-333 663,-70 8,-70"/>
</g>
<g id="clust3" class="cluster">
<title>cluster_SideMenuMultiUserAssignComponentModule_MultiUserAssignComponent_providers</title>
<polygon fill="none" stroke="black" points="461,-78 461,-195 655,-195 655,-78 461,-78"/>
</g>
<g id="clust2" class="cluster">
<title>cluster_SideMenuMultiUserAssignComponentModule_declarations</title>
<polygon fill="none" stroke="black" points="16,-143 16,-195 453,-195 453,-143 16,-143"/>
</g>
<g id="clust7" class="cluster">
<title>cluster_SideMenuMultiUserAssignComponentModule_exports</title>
<polygon fill="none" stroke="black" points="244,-273 244,-325 442,-325 442,-273 244,-273"/>
</g>
<!-- MultiUserAssignComponent -->
<g id="node1" class="node">
<title>MultiUserAssignComponent</title>
<polygon fill="#ffffb3" stroke="black" points="646.76,-187 469.24,-187 469.24,-151 646.76,-151 646.76,-187"/>
<text text-anchor="middle" x="558" y="-164.8" font-family="Times,serif" font-size="14.00">MultiUserAssignComponent</text>
</g>
<!-- SideMenuMultiUserAssignComponentModule -->
<g id="node4" class="node">
<title>SideMenuMultiUserAssignComponentModule</title>
<polygon fill="#8dd3c7" stroke="black" points="482.36,-252 479.36,-256 458.36,-256 455.36,-252 203.64,-252 203.64,-216 482.36,-216 482.36,-252"/>
<text text-anchor="middle" x="343" y="-229.8" font-family="Times,serif" font-size="14.00">SideMenuMultiUserAssignComponentModule</text>
</g>
<!-- MultiUserAssignComponent&#45;&gt;SideMenuMultiUserAssignComponentModule -->
<g id="edge1" class="edge">
<title>MultiUserAssignComponent&#45;&gt;SideMenuMultiUserAssignComponentModule</title>
<path fill="none" stroke="black" d="M475.77,-187.11C475.77,-187.11 475.77,-205.99 475.77,-205.99"/>
<polygon fill="black" stroke="black" points="472.27,-205.99 475.77,-215.99 479.27,-205.99 472.27,-205.99"/>
</g>
<!-- MultiUserAssignItemComponent -->
<g id="node2" class="node">
<title>MultiUserAssignItemComponent</title>
<polygon fill="#ffffb3" stroke="black" points="444.92,-187 241.08,-187 241.08,-151 444.92,-151 444.92,-187"/>
<text text-anchor="middle" x="343" y="-164.8" font-family="Times,serif" font-size="14.00">MultiUserAssignItemComponent</text>
</g>
<!-- MultiUserAssignItemComponent&#45;&gt;SideMenuMultiUserAssignComponentModule -->
<g id="edge3" class="edge">
<title>MultiUserAssignItemComponent&#45;&gt;SideMenuMultiUserAssignComponentModule</title>
<path fill="none" stroke="black" d="M343,-187.11C343,-187.11 343,-205.99 343,-205.99"/>
<polygon fill="black" stroke="black" points="339.5,-205.99 343,-215.99 346.5,-205.99 339.5,-205.99"/>
</g>
<!-- MultiUserAssignListComponent -->
<g id="node3" class="node">
<title>MultiUserAssignListComponent</title>
<polygon fill="#ffffb3" stroke="black" points="223.54,-187 24.46,-187 24.46,-151 223.54,-151 223.54,-187"/>
<text text-anchor="middle" x="124" y="-164.8" font-family="Times,serif" font-size="14.00">MultiUserAssignListComponent</text>
</g>
<!-- MultiUserAssignListComponent&#45;&gt;SideMenuMultiUserAssignComponentModule -->
<g id="edge4" class="edge">
<title>MultiUserAssignListComponent&#45;&gt;SideMenuMultiUserAssignComponentModule</title>
<path fill="none" stroke="black" d="M213.67,-187.11C213.67,-187.11 213.67,-205.99 213.67,-205.99"/>
<polygon fill="black" stroke="black" points="210.17,-205.99 213.67,-215.99 217.17,-205.99 210.17,-205.99"/>
</g>
<!-- MultiUserAssignComponent  -->
<g id="node6" class="node">
<title>MultiUserAssignComponent </title>
<polygon fill="#fb8072" stroke="black" points="433.76,-317 252.24,-317 252.24,-281 433.76,-281 433.76,-317"/>
<text text-anchor="middle" x="343" y="-294.8" font-family="Times,serif" font-size="14.00">MultiUserAssignComponent </text>
</g>
<!-- SideMenuMultiUserAssignComponentModule&#45;&gt;MultiUserAssignComponent  -->
<g id="edge5" class="edge">
<title>SideMenuMultiUserAssignComponentModule&#45;&gt;MultiUserAssignComponent </title>
<path fill="none" stroke="black" stroke-dasharray="5,2" d="M343,-252.11C343,-252.11 343,-270.99 343,-270.99"/>
<polygon fill="black" stroke="black" points="339.5,-270.99 343,-280.99 346.5,-270.99 339.5,-270.99"/>
</g>
<!-- UserListService -->
<g id="node5" class="node">
<title>UserListService</title>
<ellipse fill="#fdb462" stroke="black" cx="558" cy="-104" rx="73.49" ry="18"/>
<text text-anchor="middle" x="558" y="-99.8" font-family="Times,serif" font-size="14.00">UserListService</text>
</g>
<!-- UserListService&#45;&gt;MultiUserAssignComponent -->
<g id="edge2" class="edge">
<title>UserListService&#45;&gt;MultiUserAssignComponent</title>
<path fill="none" stroke="black" d="M558,-122.11C558,-122.11 558,-140.99 558,-140.99"/>
<polygon fill="black" stroke="black" points="554.5,-140.99 558,-150.99 561.5,-140.99 554.5,-140.99"/>
</g>
</g>
</svg>
