<?xml version="1.0" encoding="utf-8"?>
<!-- Generator: Adobe Illustrator 16.0.0, SVG Export Plug-In . SVG Version: 6.00 Build 0)  -->
<!DOCTYPE svg PUBLIC "-//W3C//DTD SVG 1.1//EN" "http://www.w3.org/Graphics/SVG/1.1/DTD/svg11.dtd">
<svg version="1.1" id="Layer_1" xmlns="http://www.w3.org/2000/svg" xmlns:xlink="http://www.w3.org/1999/xlink" x="0px" y="0px"
	 width="631px" height="161px" viewBox="-13.86 338.445 631 161" enable-background="new -13.86 338.445 631 161"
	 xml:space="preserve">
<g>
	<g>
		<path fill="#0047BA" d="M156.857,380.721h29.563c11.631,0,22.454,5.331,22.454,20.031c0,15.508-8.885,21.485-22.454,21.485
			h-13.408v20.838h-16.154V380.721L156.857,380.721z M173.172,409.637h10.985c5.169,0,8.723-2.1,8.723-7.754
			c0-5.977-3.715-8.239-8.723-8.239h-10.985V409.637z"/>
		<path fill="#0047BA" d="M216.95,380.721h31.823c10.985,0,21.809,5.008,21.809,17.608c0,6.785-3.069,13.085-9.692,15.67v0.161
			c6.461,1.616,8.562,9.046,9.046,14.863c0.323,2.746,0.484,11.631,2.585,14.053h-15.993c-1.453-2.1-1.615-8.076-1.776-10.016
			c-0.485-6.299-1.454-12.761-9.047-12.761h-12.277v22.617h-16.153v-62.194H216.95z M233.105,407.699h13.569
			c4.846,0,7.431-2.584,7.431-7.27c0-4.685-3.716-6.785-8.238-6.785h-12.924v14.054H233.105z"/>
		<path fill="#0047BA" d="M281.89,380.721h49.593v12.923h-33.438v10.823h30.531v12.6h-30.531v11.793h34.246v13.893h-50.562v-62.032
			H281.89z"/>
		<path fill="#0047BA" d="M343.437,380.721h23.908l10.662,41.517h0.161l10.662-41.517h23.908v62.354h-15.347v-47.331l0,0
			l-13.085,47.331h-12.438l-13.085-47.331h-0.162v47.331h-15.346v-62.354H343.437z"/>
		<path fill="#0047BA" d="M425.823,380.721h16.153v62.354h-16.153V380.721z"/>
		<path fill="#0047BA" d="M508.694,417.229c0,18.092-8.238,26.977-27.139,26.977s-27.139-9.045-27.139-26.977v-36.508h16.154v37.478
			c0,8.078,2.907,12.115,10.984,12.115s10.984-4.037,10.984-12.115v-37.478h16.154V417.229z"/>
		<path fill="#0047BA" d="M521.132,380.721h23.908l10.662,41.517h0.161l10.662-41.517h23.908v62.354h-15.347v-47.331l0,0
			l-13.085,47.331h-12.438l-13.085-47.331h-0.161v47.331h-15.347v-62.354H521.132z"/>
	</g>
</g>
<g>
	<path fill="#FFFFFF" d="M155.726,458.583h6.946v26.494h-6.946V458.583z"/>
	<path fill="#FFFFFF" d="M168.003,458.583h7.107l9.208,16.316l0,0v-16.316h6.462v26.494h-7.107l-9.047-16.479l0,0v16.479h-6.462
		v-26.494H168.003z"/>
	<path fill="#FFFFFF" d="M201.765,476.193c0.162,3.068,2.101,4.199,5.008,4.199c2.101,0,4.2-0.807,4.2-2.746
		c0-2.424-3.715-2.746-7.592-3.877c-3.716-1.131-7.754-2.746-7.754-7.592c0-5.816,5.815-8.078,10.823-8.078
		c5.169,0,10.661,2.586,10.661,8.563h-6.946c0.162-2.424-2.262-3.23-4.2-3.23c-1.453,0-3.392,0.484-3.392,2.262
		c0,2.1,3.877,2.422,7.754,3.553s7.754,2.908,7.754,7.594c0,6.783-5.654,8.885-11.631,8.885c-5.978,0-11.47-2.748-11.47-9.531
		H201.765z"/>
	<path fill="#FFFFFF" d="M244.736,474.091c0,7.756-3.554,11.471-11.631,11.471s-11.632-3.877-11.632-11.471v-15.508h6.946v15.994
		c0,3.391,1.293,5.168,4.686,5.168c3.392,0,4.685-1.777,4.685-5.168v-15.994h6.946V474.091z"/>
	<path fill="#FFFFFF" d="M250.067,458.583h13.569c4.685,0,9.207,2.102,9.207,7.432c0,2.908-1.292,5.492-4.199,6.623l0,0
		c2.746,0.646,3.715,3.877,3.877,6.301c0.161,1.131,0.161,5.008,1.131,5.977h-6.785c-0.646-0.969-0.646-3.393-0.808-4.199
		c-0.162-2.748-0.646-5.494-3.877-5.494h-5.17v9.693h-6.946L250.067,458.583L250.067,458.583z M257.013,470.054h5.815
		c2.1,0,3.23-1.131,3.23-3.07c0-1.938-1.615-2.908-3.554-2.908h-5.492V470.054L257.013,470.054z"/>
	<path fill="#FFFFFF" d="M285.606,458.583h6.946l9.854,26.494h-7.27l-1.615-4.686h-9.208l-1.615,4.686h-7.107L285.606,458.583z
		 M286.09,475.222h5.977l-2.907-9.207l0,0L286.09,475.222z"/>
	<path fill="#FFFFFF" d="M305.313,458.583h7.108l9.208,16.316l0,0v-16.316h6.461v26.494h-7.107l-9.046-16.479l0,0v16.479h-6.462
		v-26.494H305.313z"/>
	<path fill="#FFFFFF" d="M351.03,467.955c-0.484-2.748-2.423-4.039-5.331-4.039c-4.523,0-6.139,3.877-6.139,7.916
		c0,4.037,1.777,7.914,6.139,7.914c3.23,0,5.169-1.777,5.331-4.846h6.946c-0.484,6.947-5.331,10.824-12.116,10.824
		c-8.076,0-13.246-6.139-13.246-13.893c0-7.756,5.17-13.893,13.246-13.893c5.816,0,11.954,3.715,12.116,10.016H351.03z"/>
	<path fill="#FFFFFF" d="M362.176,458.583h21.162v5.494h-14.216v4.684h12.923v5.33h-12.923v5.008h14.538v5.979h-21.484V458.583z"/>
	<path fill="#FFFFFF" d="M417.907,467.955c-0.484-2.748-2.423-4.039-5.331-4.039c-4.522,0-6.139,3.877-6.139,7.916
		c0,4.037,1.777,7.914,6.139,7.914c3.231,0,5.17-1.777,5.331-4.846h6.946c-0.484,6.947-5.331,10.824-12.115,10.824
		c-8.077,0-13.247-6.139-13.247-13.893c0-7.756,5.17-13.893,13.247-13.893c5.815,0,11.954,3.715,12.115,10.016H417.907z"/>
	<path fill="#FFFFFF" d="M440.846,457.939c8.4,0,13.085,6.139,13.085,13.893s-4.685,13.893-13.085,13.893
		c-8.399,0-13.084-6.139-13.084-13.893C427.762,464.076,432.447,457.939,440.846,457.939z M440.846,479.746
		c4.523,0,6.139-3.877,6.139-7.914c0-4.039-1.776-7.916-6.139-7.916c-4.522,0-6.138,3.877-6.138,7.916
		C434.708,475.708,436.323,479.746,440.846,479.746z"/>
	<path fill="#FFFFFF" d="M458.293,458.583h10.177l4.523,17.609l0,0l4.522-17.609h10.178v26.494h-6.462v-20.193l0,0l-5.492,20.193
		h-5.331l-5.492-20.193l0,0v20.193h-6.462v-26.494H458.293z"/>
	<path fill="#FFFFFF" d="M493.347,458.583h12.601c5.008,0,9.531,2.262,9.531,8.563c0,6.623-3.716,9.207-9.531,9.207h-5.654v8.885
		h-6.946V458.583z M500.293,470.861h4.686c2.261,0,3.715-0.969,3.715-3.23c0-2.584-1.615-3.553-3.715-3.553h-4.686V470.861z"/>
	<path fill="#FFFFFF" d="M524.687,458.583h6.946l9.854,26.494h-7.27l-1.615-4.686h-9.208l-1.615,4.686h-7.107L524.687,458.583z
		 M525.171,475.222h5.977l-2.907-9.207l0,0L525.171,475.222z"/>
	<path fill="#FFFFFF" d="M544.233,458.583h7.108l9.208,16.316l0,0v-16.316h6.461v26.494h-7.107l-9.047-16.479l0,0v16.479h-6.461
		v-26.494H544.233z"/>
	<path fill="#FFFFFF" d="M586.395,475.222v9.855h-6.945v-9.855l-9.693-16.639h7.916l5.331,10.824l5.331-10.824h7.915
		L586.395,475.222z"/>
</g>
<g>
	<path fill="#15284B" d="M129.718,380.721c-2.424,0-4.523,1.938-4.847,4.362c-2.262,26.169-24.231,46.524-50.886,46.524H25.362
		c-1.292,0-2.584,0.484-3.392,1.453c-0.808,0.809-1.454,2.102-1.454,3.393v24.877H-0.646c2.423,0,4.523-1.938,4.847-4.361
		c2.1-26.33,24.069-46.523,50.724-46.523h48.785c1.293,0,2.585-0.484,3.393-1.454c0.808-0.808,1.293-1.777,1.454-2.908
		c0,0,0-0.323,0-0.484v-24.877H129.718z"/>
	<path fill="#0047BA" d="M129.072,388.637c-1.938,26.978-13.73,51.208-31.662,69.14c-19.547,19.707-46.847,31.824-76.894,31.824
		v-53.309h53.632c15.347,0,29.239-6.301,39.416-16.317C121.641,411.737,127.456,400.752,129.072,388.637z"/>
	<path fill="#0047BA" d="M108.556,352.29v53.309H54.924c-15.347,0-29.239,6.3-39.416,16.315c-8.238,8.24-13.893,19.225-15.67,31.34
		c1.938-26.977,13.731-51.047,31.662-69.14C51.208,364.567,78.509,352.29,108.556,352.29z"/>
	<path fill="#FFFFFF" d="M124.871,385.083c-2.262,26.169-24.231,46.524-50.886,46.524H25.362c-1.292,0-2.584,0.484-3.392,1.453
		c-0.808,0.809-1.454,2.102-1.454,3.393h53.632c15.347,0,29.239-6.299,39.416-16.315c8.238-8.4,14.054-19.223,15.831-31.5
		c0.323-2.584,0.646-5.169,0.646-7.916l0,0C127.294,380.721,125.195,382.66,124.871,385.083"/>
	<path fill="#FFFFFF" d="M4.038,456.808c2.262-26.17,24.231-46.363,50.886-46.363h48.785c1.293,0,2.585-0.484,3.393-1.454
		c0.808-0.808,1.454-2.1,1.454-3.393H54.924c-15.347,0-29.239,6.3-39.416,16.315c-8.238,8.4-13.893,19.225-15.67,31.502
		c-0.323,2.584-0.484,5.168-0.484,7.914l0,0C1.777,461.33,3.877,459.392,4.038,456.808"/>
</g>
</svg>
