<?xml version="1.0" encoding="utf-8"?>
<!-- Generator: Adobe Illustrator 21.0.2, SVG Export Plug-In . SVG Version: 6.00 Build 0)  -->
<svg version="1.1" id="Layer_1" xmlns="http://www.w3.org/2000/svg" xmlns:xlink="http://www.w3.org/1999/xlink" x="0px" y="0px"
	 viewBox="0 0 368.5 85" style="enable-background:new 0 0 368.5 85;" xml:space="preserve">
<style type="text/css">
	.st0{fill:#0047BA;}
	.st1{fill:#15284B;}
	.st2{fill:#FFFFFF;}
</style>
<g>
	<g>
		<g>
			<path class="st0" d="M97.1,17.6h18.3c7.2,0,13.9,3.3,13.9,12.4c0,9.6-5.5,13.3-13.9,13.3h-8.3v12.9h-10V17.6z M107.2,35.5h6.8
				c3.2,0,5.4-1.3,5.4-4.8c0-3.7-2.3-5.1-5.4-5.1h-6.8V35.5z"/>
			<path class="st0" d="M134.3,17.6H154c6.8,0,13.5,3.1,13.5,10.9c0,4.2-1.9,8.1-6,9.7v0.1c4,1,5.3,5.6,5.6,9.2
				c0.2,1.7,0.3,7.2,1.6,8.7h-9.9c-0.9-1.3-1-5-1.1-6.2c-0.3-3.9-0.9-7.9-5.6-7.9h-7.6v14h-10V17.6z M144.3,34.3h8.4
				c3,0,4.6-1.6,4.6-4.5c0-2.9-2.3-4.2-5.1-4.2h-8V34.3z"/>
			<path class="st0" d="M174.5,17.6h30.7v8h-20.7v6.7h18.9v7.8h-18.9v7.3h21.2v8.6h-31.3V17.6z"/>
			<path class="st0" d="M212.6,17.6h14.8l6.6,25.7h0.1l6.6-25.7h14.8v38.6h-9.5V26.9H246l-8.1,29.3h-7.7l-8.1-29.3h-0.1v29.3h-9.5
				V17.6z"/>
			<path class="st0" d="M263.6,17.6h10v38.6h-10V17.6z"/>
			<path class="st0" d="M314.9,40.2c0,11.2-5.1,16.7-16.8,16.7c-11.7,0-16.8-5.6-16.8-16.7V17.6h10v23.2c0,5,1.8,7.5,6.8,7.5
				s6.8-2.5,6.8-7.5V17.6h10V40.2z"/>
			<path class="st0" d="M322.6,17.6h14.8l6.6,25.7h0.1l6.6-25.7h14.8v38.6h-9.5V26.9H356l-8.1,29.3h-7.7l-8.1-29.3H332v29.3h-9.5
				V17.6z"/>
		</g>
	</g>
	<g>
		<path class="st1" d="M96.4,65.8h4.3v16.4h-4.3V65.8z"/>
		<path class="st1" d="M104,65.8h4.4l5.7,10.1h0V65.8h4v16.4h-4.4L108.1,72h0v10.2h-4V65.8z"/>
		<path class="st1" d="M124.9,76.7c0.1,1.9,1.3,2.6,3.1,2.6c1.3,0,2.6-0.5,2.6-1.7c0-1.5-2.3-1.7-4.7-2.4c-2.3-0.7-4.8-1.7-4.8-4.7
			c0-3.6,3.6-5,6.7-5c3.2,0,6.6,1.6,6.6,5.3h-4.3c0.1-1.5-1.4-2-2.6-2c-0.9,0-2.1,0.3-2.1,1.4c0,1.3,2.4,1.5,4.8,2.2
			c2.4,0.7,4.8,1.8,4.8,4.7c0,4.2-3.5,5.5-7.2,5.5c-3.7,0-7.1-1.7-7.1-5.9H124.9z"/>
		<path class="st1" d="M151.5,75.4c0,4.8-2.2,7.1-7.2,7.1c-5,0-7.2-2.4-7.2-7.1v-9.6h4.3v9.9c0,2.1,0.8,3.2,2.9,3.2
			c2.1,0,2.9-1.1,2.9-3.2v-9.9h4.3V75.4z"/>
		<path class="st1" d="M154.8,65.8h8.4c2.9,0,5.7,1.3,5.7,4.6c0,1.8-0.8,3.4-2.6,4.1v0c1.7,0.4,2.3,2.4,2.4,3.9
			c0.1,0.7,0.1,3.1,0.7,3.7h-4.2c-0.4-0.6-0.4-2.1-0.5-2.6c-0.1-1.7-0.4-3.4-2.4-3.4h-3.2v6h-4.3V65.8z M159.1,72.9h3.6
			c1.3,0,2-0.7,2-1.9c0-1.2-1-1.8-2.2-1.8h-3.4V72.9z"/>
		<path class="st1" d="M176.8,65.8h4.3l6.1,16.4h-4.5l-1-2.9h-5.7l-1,2.9h-4.4L176.8,65.8z M177.1,76.1h3.7l-1.8-5.7h0L177.1,76.1z"
			/>
		<path class="st1" d="M189,65.8h4.4l5.7,10.1h0V65.8h4v16.4h-4.4L193.1,72h0v10.2h-4V65.8z"/>
		<path class="st1" d="M217.3,71.6c-0.3-1.7-1.5-2.5-3.3-2.5c-2.8,0-3.8,2.4-3.8,4.9c0,2.5,1.1,4.9,3.8,4.9c2,0,3.2-1.1,3.3-3h4.3
			c-0.3,4.3-3.3,6.7-7.5,6.7c-5,0-8.2-3.8-8.2-8.6c0-4.8,3.2-8.6,8.2-8.6c3.6,0,7.4,2.3,7.5,6.2H217.3z"/>
		<path class="st1" d="M224.2,65.8h13.1v3.4h-8.8v2.9h8v3.3h-8v3.1h9v3.7h-13.3V65.8z"/>
		<path class="st1" d="M258.7,71.6c-0.3-1.7-1.5-2.5-3.3-2.5c-2.8,0-3.8,2.4-3.8,4.9c0,2.5,1.1,4.9,3.8,4.9c2,0,3.2-1.1,3.3-3h4.3
			c-0.3,4.3-3.3,6.7-7.5,6.7c-5,0-8.2-3.8-8.2-8.6c0-4.8,3.2-8.6,8.2-8.6c3.6,0,7.4,2.3,7.5,6.2H258.7z"/>
		<path class="st1" d="M272.9,65.4c5.2,0,8.1,3.8,8.1,8.6c0,4.8-2.9,8.6-8.1,8.6c-5.2,0-8.1-3.8-8.1-8.6
			C264.8,69.2,267.7,65.4,272.9,65.4z M272.9,78.9c2.8,0,3.8-2.4,3.8-4.9c0-2.5-1.1-4.9-3.8-4.9c-2.8,0-3.8,2.4-3.8,4.9
			C269.1,76.4,270.1,78.9,272.9,78.9z"/>
		<path class="st1" d="M283.7,65.8h6.3l2.8,10.9h0l2.8-10.9h6.3v16.4h-4V69.7h0l-3.4,12.5h-3.3l-3.4-12.5h0v12.5h-4V65.8z"/>
		<path class="st1" d="M305.4,65.8h7.8c3.1,0,5.9,1.4,5.9,5.3c0,4.1-2.3,5.7-5.9,5.7h-3.5v5.5h-4.3V65.8z M309.7,73.4h2.9
			c1.4,0,2.3-0.6,2.3-2c0-1.6-1-2.2-2.3-2.2h-2.9V73.4z"/>
		<path class="st1" d="M324.8,65.8h4.3l6.1,16.4h-4.5l-1-2.9h-5.7l-1,2.9h-4.4L324.8,65.8z M325.1,76.1h3.7l-1.8-5.7h0L325.1,76.1z"
			/>
		<path class="st1" d="M336.9,65.8h4.4l5.7,10.1h0V65.8h4v16.4h-4.4L341,72h0v10.2h-4V65.8z"/>
		<path class="st1" d="M363,76.1v6.1h-4.3v-6.1l-6-10.3h4.9l3.3,6.7l3.3-6.7h4.9L363,76.1z"/>
	</g>
	<g>
		<path class="st1" d="M80.3,17.6c-1.5,0-2.8,1.2-3,2.7c-1.4,16.2-15,28.8-31.5,28.8H15.7c-0.8,0-1.6,0.3-2.1,0.9
			c-0.5,0.5-0.9,1.3-0.9,2.1v15.4H-0.4c1.5,0,2.8-1.2,3-2.7C3.9,48.5,17.5,36,34,36h30.2c0.8,0,1.6-0.3,2.1-0.9
			c0.5-0.5,0.8-1.1,0.9-1.8c0,0,0-0.2,0-0.3V17.6H80.3z"/>
		<path class="st0" d="M79.9,22.5c-1.2,16.7-8.5,31.7-19.6,42.8C48.2,77.5,31.3,85,12.7,85v-33h33.2c9.5,0,18.1-3.9,24.4-10.1
			C75.3,36.8,78.9,30,79.9,22.5z"/>
		<path class="st0" d="M67.2,0v33H34c-9.5,0-18.1,3.9-24.4,10.1C4.5,48.2,1,55-0.1,62.5c1.2-16.7,8.5-31.6,19.6-42.8
			C31.7,7.6,48.6,0,67.2,0z"/>
		<path class="st2" d="M77.3,20.3c-1.4,16.2-15,28.8-31.5,28.8H15.7c-0.8,0-1.6,0.3-2.1,0.9c-0.5,0.5-0.9,1.3-0.9,2.1h33.2
			c9.5,0,18.1-3.9,24.4-10.1c5.1-5.2,8.7-11.9,9.8-19.5c0.2-1.6,0.4-3.2,0.4-4.9h0C78.8,17.6,77.5,18.8,77.3,20.3"/>
		<path class="st2" d="M2.5,64.7C3.9,48.5,17.5,36,34,36h30.2c0.8,0,1.6-0.3,2.1-0.9c0.5-0.5,0.9-1.3,0.9-2.1H34
			c-9.5,0-18.1,3.9-24.4,10.1C4.5,48.3,1,55-0.1,62.6c-0.2,1.6-0.3,3.2-0.3,4.9h0C1.1,67.5,2.4,66.3,2.5,64.7"/>
	</g>
</g>
</svg>
