<?xml version="1.0" encoding="utf-8"?>
<!-- Generator: Adobe Illustrator 16.0.0, SVG Export Plug-In . SVG Version: 6.00 Build 0)  -->
<!DOCTYPE svg PUBLIC "-//W3C//DTD SVG 1.1//EN" "http://www.w3.org/Graphics/SVG/1.1/DTD/svg11.dtd">
<svg version="1.1" id="Layer_1" xmlns="http://www.w3.org/2000/svg" xmlns:xlink="http://www.w3.org/1999/xlink" x="0px" y="0px"
	 width="221px" height="231px" viewBox="369.5 165.5 221 231" enable-background="new 369.5 165.5 221 231" xml:space="preserve">
<g>
	<g>
		<path fill="#15284B" d="M584.857,215.132c-3.907,0-7.294,3.126-7.814,7.034c-3.647,42.204-39.078,75.028-82.063,75.028h-78.416
			c-2.084,0-4.168,0.782-5.471,2.346c-1.303,1.302-2.345,3.387-2.345,5.471v40.119h-34.127c3.908,0,7.294-3.126,7.815-7.034
			c3.387-42.464,38.817-75.028,81.802-75.028h78.676c2.084,0,4.169-0.781,5.471-2.345c1.303-1.302,2.085-2.865,2.345-4.689
			c0,0,0-0.521,0-0.782v-40.119H584.857z"/>
		<path fill="#0047BA" d="M583.816,227.897c-3.127,43.506-22.145,82.583-51.062,111.5c-31.522,31.783-75.549,51.321-124.005,51.321
			v-85.97h86.491c24.75,0,47.154-10.16,63.566-26.312C571.832,265.15,581.211,247.436,583.816,227.897z"/>
		<path fill="#0047BA" d="M550.73,169.281v85.97h-86.491c-24.749,0-47.153,10.16-63.565,26.312
			c-13.287,13.287-22.405,31.002-25.27,50.541c3.126-43.506,22.144-82.323,51.061-111.501
			C458.248,189.08,502.274,169.281,550.73,169.281z"/>
		<path fill="#FFFFFF" d="M577.043,222.166c-3.647,42.204-39.078,75.028-82.063,75.028h-78.416c-2.084,0-4.168,0.782-5.471,2.346
			c-1.303,1.302-2.345,3.387-2.345,5.471h86.491c24.75,0,47.154-10.16,63.566-26.313c13.286-13.547,22.664-31.001,25.53-50.8
			c0.521-4.168,1.042-8.336,1.042-12.765l0,0C580.95,215.132,577.563,218.258,577.043,222.166"/>
		<path fill="#FFFFFF" d="M382.177,337.834c3.647-42.203,39.078-74.768,82.063-74.768h78.676c2.084,0,4.169-0.781,5.471-2.345
			c1.303-1.302,2.345-3.387,2.345-5.471h-86.491c-24.749,0-47.153,10.16-63.565,26.312c-13.287,13.547-22.405,31.002-25.27,50.801
			c-0.521,4.169-0.782,8.337-0.782,12.766l0,0C378.53,345.129,381.917,342.003,382.177,337.834"/>
	</g>
</g>
</svg>
