<?xml version="1.0" encoding="utf-8"?>
<!-- Generator: Adobe Illustrator 16.0.0, SVG Export Plug-In . SVG Version: 6.00 Build 0)  -->
<!DOCTYPE svg PUBLIC "-//W3C//DTD SVG 1.1//EN" "http://www.w3.org/Graphics/SVG/1.1/DTD/svg11.dtd">
<svg version="1.1" id="Layer_1" xmlns="http://www.w3.org/2000/svg" xmlns:xlink="http://www.w3.org/1999/xlink" x="0px" y="0px"
	 width="206.399px" height="232.886px" viewBox="0 0 206.399 232.886" enable-background="new 0 0 206.399 232.886"
	 xml:space="preserve">
<g>
	<path fill-rule="evenodd" clip-rule="evenodd" fill="#2497F2" d="M158.776,111.582c0.876,5.811-3.126,11.232-8.935,12.107
		l-66.284,9.988c-5.811,0.875-11.229-3.129-12.105-8.938l-9.987-66.283c-0.875-5.812,3.125-11.23,8.935-12.106l66.284-9.987
		c5.81-0.875,11.23,3.125,12.105,8.936L158.776,111.582z M135.234,52.527c-0.182-1.208-1.279-2.044-2.452-1.868l-54.443,8.203
		c-1.172,0.177-1.975,1.299-1.792,2.507l8.46,56.144c0.181,1.207,1.278,2.043,2.45,1.867l54.443-8.205
		c1.174-0.176,1.976-1.298,1.794-2.506L135.234,52.527z"/>
	<path fill-rule="evenodd" clip-rule="evenodd" fill="#3ABEAD" d="M79.403,80.323c21.082-2.005,40.294,12.812,43.488,34.007
		c3.306,21.936-11.799,42.396-33.734,45.701c-21.935,3.307-42.397-11.797-45.702-33.732c-2.669-17.712,6.665-34.463,21.905-41.998
		l2.316,15.378c-7.329,5.515-11.477,14.772-10.015,24.478c2.124,14.092,15.267,23.793,29.356,21.67s23.792-15.266,21.669-29.357
		c-2.011-13.346-13.912-22.756-27.137-21.906L79.403,80.323z"/>
	<path fill-rule="evenodd" clip-rule="evenodd" fill="#6038B2" d="M152.339,68.857c6.755-5.579,10.499-14.461,9.1-23.756
		c-2.124-14.088-15.268-23.791-29.357-21.668c-14.09,2.123-23.791,15.268-21.668,29.356c2.062,13.688,14.523,23.232,28.149,21.823
		l2.142,14.216c-21.474,2.585-41.253-12.362-44.497-33.896c-3.305-21.936,11.799-42.399,33.732-45.704
		c21.937-3.305,42.399,11.799,45.704,33.734c2.613,17.34-6.277,33.757-20.952,41.509L152.339,68.857z"/>
</g>
<g>
	<path fill="#FFFFFF" d="M25.767,177.859l0.381,4.453c1.035-1.582,2.314-2.816,3.838-3.706c1.523-0.889,3.223-1.333,5.098-1.333
		c3.105,0,5.532,1.055,7.28,3.164c1.748,2.109,2.622,5.459,2.622,10.049v19.072h-9.902v-19.102c0-2.012-0.322-3.442-0.967-4.292
		s-1.582-1.274-2.813-1.274c-1.055,0-2.002,0.186-2.842,0.557c-0.84,0.371-1.543,0.898-2.109,1.582v22.529h-9.873v-31.699H25.767z"
		/>
	<path fill="#FFFFFF" d="M64.438,210.174c-4.805,0-8.569-1.455-11.294-4.365s-4.087-6.592-4.087-11.045v-1.113
		c0-4.844,1.284-8.789,3.853-11.836c2.568-3.047,6.284-4.561,11.147-4.541c4.277,0,7.592,1.279,9.946,3.838
		c2.354,2.559,3.53,6.064,3.53,10.518v5.186H59.37l-0.059,0.176c0.156,1.66,0.771,3.003,1.846,4.028
		c1.074,1.025,2.617,1.538,4.629,1.538c1.894,0,3.472-0.156,4.731-0.469s2.7-0.811,4.321-1.494l2.373,6.035
		c-1.367,0.996-3.204,1.836-5.508,2.52C69.399,209.832,66.977,210.174,64.438,210.174z M64.058,184.891
		c-1.582,0-2.75,0.503-3.501,1.509c-0.752,1.007-1.187,2.368-1.304,4.087l0.059,0.146h8.555v-0.762c0-1.641-0.289-2.881-0.864-3.721
		C66.426,185.311,65.444,184.891,64.058,184.891z"/>
	<path fill="#FFFFFF" d="M93.091,169.979v7.881h5.01v6.855h-5.01v14.531c0,1.133,0.229,1.948,0.688,2.446
		c0.458,0.498,1.079,0.747,1.86,0.747c0.508,0,0.913-0.02,1.216-0.059c0.303-0.039,0.688-0.117,1.157-0.234l0.674,7.324
		c-0.996,0.254-1.895,0.435-2.695,0.542c-0.801,0.106-1.748,0.161-2.842,0.161c-3.262,0-5.738-0.869-7.427-2.607
		c-1.689-1.738-2.534-4.492-2.534-8.262v-14.59h-4.424v-6.855h4.424v-7.881H93.091z"/>
	<path fill="#FFFFFF" d="M103.257,194.295c0-5.098,1.088-9.209,3.267-12.334c2.178-3.125,5.219-4.688,9.126-4.688
		c2.011,0,3.779,0.406,5.303,1.216c1.523,0.811,2.802,1.978,3.838,3.501l0.703-4.131h4.6v31.875c0,4.063-1.182,7.182-3.545,9.36
		c-2.363,2.178-5.771,3.267-10.225,3.267c-1.523,0-3.169-0.21-4.937-0.63c-1.768-0.421-3.325-0.991-4.673-1.714l0.879-4.482
		c1.113,0.586,2.456,1.059,4.028,1.421c1.572,0.361,3.12,0.542,4.644,0.542c2.813,0,4.858-0.641,6.138-1.919
		c1.279-1.279,1.919-3.228,1.919-5.845v-3.604c-1.036,1.328-2.275,2.334-3.721,3.018c-1.446,0.684-3.116,1.025-5.01,1.025
		c-3.867,0-6.89-1.401-9.067-4.204c-2.178-2.802-3.267-6.489-3.267-11.06V194.295z M109.028,194.91c0,3.184,0.654,5.742,1.963,7.676
		c1.308,1.934,3.33,2.9,6.064,2.9c1.738,0,3.193-0.396,4.365-1.187s2.139-1.909,2.9-3.354v-14.59
		c-0.743-1.348-1.709-2.417-2.9-3.208c-1.191-0.791-2.627-1.187-4.307-1.187c-2.754,0-4.79,1.143-6.108,3.428
		s-1.978,5.254-1.978,8.906V194.91z"/>
	<path fill="#FFFFFF" d="M153.384,182.957l-2.959-0.176c-1.523,0-2.808,0.361-3.853,1.084c-1.045,0.723-1.851,1.738-2.417,3.047
		v22.646h-5.771v-31.699h5.156l0.557,4.629c0.898-1.641,2.007-2.92,3.325-3.838s2.837-1.377,4.556-1.377
		c0.429,0,0.839,0.034,1.23,0.103c0.391,0.069,0.713,0.142,0.967,0.22L153.384,182.957z"/>
	<path fill="#FFFFFF" d="M165.63,169.744h-5.771v-5.889h5.771V169.744z M165.63,209.559h-5.771v-31.699h5.771V209.559z"/>
	<path fill="#FFFFFF" d="M176.909,209.559v-27.422h-4.951v-4.277h4.951v-4.014c0-3.379,0.883-5.991,2.651-7.837
		c1.768-1.846,4.233-2.769,7.397-2.769c0.664,0,1.333,0.055,2.007,0.161c0.674,0.107,1.421,0.259,2.241,0.454l-0.703,4.395
		c-0.352-0.078-0.776-0.146-1.274-0.205s-1.021-0.088-1.567-0.088c-1.68,0-2.93,0.503-3.75,1.509c-0.82,1.007-1.23,2.466-1.23,4.38
		v4.014h5.742v4.277h-5.742v27.422H176.909z"/>
</g>
</svg>
