<?xml version="1.0" encoding="UTF-8" standalone="no"?>
<!DOCTYPE svg PUBLIC "-//W3C//DTD SVG 1.1//EN"
 "http://www.w3.org/Graphics/SVG/1.1/DTD/svg11.dtd">
<!-- Generated by graphviz version 2.47.0 (20210316.0004)
 -->
<!-- Title: dependencies Pages: 1 -->
<svg width="3314pt" height="442pt"
 viewBox="0.00 0.00 3314.00 442.00" xmlns="http://www.w3.org/2000/svg" xmlns:xlink="http://www.w3.org/1999/xlink">
<g id="graph0" class="graph" transform="scale(1 1) rotate(0) translate(4 438)">
<title>dependencies</title>
<polygon fill="white" stroke="transparent" points="-4,4 -4,-438 3310,-438 3310,4 -4,4"/>
<text text-anchor="start" x="1632.01" y="-42.4" font-family="Times-12" font-weight="bold" font-size="14.00">Legend</text>
<polygon fill="#ffffb3" stroke="transparent" points="1419,-10 1419,-30 1439,-30 1439,-10 1419,-10"/>
<text text-anchor="start" x="1442.63" y="-15.4" font-family="Times-12" font-size="14.00"> &#160;Declarations</text>
<polygon fill="#8dd3c7" stroke="transparent" points="1532,-10 1532,-30 1552,-30 1552,-10 1532,-10"/>
<text text-anchor="start" x="1555.73" y="-15.4" font-family="Times-12" font-size="14.00"> &#160;Module</text>
<polygon fill="#80b1d3" stroke="transparent" points="1618,-10 1618,-30 1638,-30 1638,-10 1618,-10"/>
<text text-anchor="start" x="1641.78" y="-15.4" font-family="Times-12" font-size="14.00"> &#160;Bootstrap</text>
<polygon fill="#fdb462" stroke="transparent" points="1715,-10 1715,-30 1735,-30 1735,-10 1715,-10"/>
<text text-anchor="start" x="1738.67" y="-15.4" font-family="Times-12" font-size="14.00"> &#160;Providers</text>
<polygon fill="#fb8072" stroke="transparent" points="1811,-10 1811,-30 1831,-30 1831,-10 1811,-10"/>
<text text-anchor="start" x="1834.73" y="-15.4" font-family="Times-12" font-size="14.00"> &#160;Exports</text>
<g id="clust1" class="cluster">
<title>cluster_AlertDialogModule</title>
<polygon fill="none" stroke="black" stroke-dasharray="1,5" points="8,-146 8,-358 318,-358 318,-146 8,-146"/>
</g>
<g id="clust2" class="cluster">
<title>cluster_AlertDialogModule_declarations</title>
<polygon fill="none" stroke="black" points="16,-154 16,-206 180,-206 180,-154 16,-154"/>
</g>
<g id="clust4" class="cluster">
<title>cluster_AlertDialogModule_imports</title>
<polygon fill="none" stroke="black" points="188,-154 188,-206 310,-206 310,-154 188,-154"/>
</g>
<g id="clust5" class="cluster">
<title>cluster_AlertDialogModule_exports</title>
<polygon fill="none" stroke="black" points="142,-298 142,-350 310,-350 310,-298 142,-298"/>
</g>
<g id="clust8" class="cluster">
<title>cluster_AuthenticationModule</title>
<polygon fill="none" stroke="black" stroke-dasharray="1,5" points="2224,-70 2224,-206 2812,-206 2812,-70 2224,-70"/>
</g>
<g id="clust13" class="cluster">
<title>cluster_AuthenticationModule_providers</title>
<polygon fill="none" stroke="black" points="2232,-78 2232,-130 2804,-130 2804,-78 2232,-78"/>
</g>
<g id="clust14" class="cluster">
<title>cluster_ConfirmDialogModule</title>
<polygon fill="none" stroke="black" stroke-dasharray="1,5" points="1210,-146 1210,-358 1412,-358 1412,-146 1210,-146"/>
</g>
<g id="clust15" class="cluster">
<title>cluster_ConfirmDialogModule_declarations</title>
<polygon fill="none" stroke="black" points="1218,-154 1218,-206 1400,-206 1400,-154 1218,-154"/>
</g>
<g id="clust18" class="cluster">
<title>cluster_ConfirmDialogModule_exports</title>
<polygon fill="none" stroke="black" points="1218,-298 1218,-350 1404,-350 1404,-298 1218,-298"/>
</g>
<g id="clust33" class="cluster">
<title>cluster_DataFieldsModule</title>
<polygon fill="none" stroke="black" stroke-dasharray="1,5" points="822,-146 822,-274 1114,-274 1114,-146 822,-146"/>
</g>
<g id="clust35" class="cluster">
<title>cluster_DataFieldsModule_imports</title>
<polygon fill="none" stroke="black" points="830,-154 830,-206 1106,-206 1106,-154 830,-154"/>
</g>
<g id="clust45" class="cluster">
<title>cluster_DialogModule</title>
<polygon fill="none" stroke="black" stroke-dasharray="1,5" points="326,-214 326,-426 814,-426 814,-214 326,-214"/>
</g>
<g id="clust47" class="cluster">
<title>cluster_DialogModule_imports</title>
<polygon fill="none" stroke="black" points="652,-222 652,-274 806,-274 806,-222 652,-222"/>
</g>
<g id="clust48" class="cluster">
<title>cluster_DialogModule_exports</title>
<polygon fill="none" stroke="black" points="334,-366 334,-418 806,-418 806,-366 334,-366"/>
</g>
<g id="clust69" class="cluster">
<title>cluster_PromptDialogModule</title>
<polygon fill="none" stroke="black" stroke-dasharray="1,5" points="822,-290 822,-358 1202,-358 1202,-290 822,-290"/>
</g>
<g id="clust70" class="cluster">
<title>cluster_PromptDialogModule_declarations</title>
<polygon fill="none" stroke="black" points="1018,-298 1018,-350 1194,-350 1194,-298 1018,-298"/>
</g>
<g id="clust73" class="cluster">
<title>cluster_PromptDialogModule_exports</title>
<polygon fill="none" stroke="black" points="830,-298 830,-350 1010,-350 1010,-298 830,-298"/>
</g>
<g id="clust82" class="cluster">
<title>cluster_SnackBarModule</title>
<polygon fill="none" stroke="black" stroke-dasharray="1,5" points="1420,-146 1420,-274 2216,-274 2216,-146 1420,-146"/>
</g>
<g id="clust83" class="cluster">
<title>cluster_SnackBarModule_declarations</title>
<polygon fill="none" stroke="black" points="1428,-154 1428,-206 2208,-206 2208,-154 1428,-154"/>
</g>
<g id="clust98" class="cluster">
<title>cluster_TranslateLibModule</title>
<polygon fill="none" stroke="black" stroke-dasharray="1,5" points="706,-70 706,-138 1090,-138 1090,-70 706,-70"/>
</g>
<g id="clust103" class="cluster">
<title>cluster_TranslateLibModule_providers</title>
<polygon fill="none" stroke="black" points="714,-78 714,-130 1082,-130 1082,-78 714,-78"/>
</g>
<g id="clust104" class="cluster">
<title>cluster_UtilityModule</title>
<polygon fill="none" stroke="black" stroke-dasharray="1,5" points="2820,-70 2820,-282 3298,-282 3298,-70 2820,-70"/>
</g>
<g id="clust105" class="cluster">
<title>cluster_UtilityModule_declarations</title>
<polygon fill="none" stroke="black" points="2837,-78 2837,-130 3284,-130 3284,-78 2837,-78"/>
</g>
<g id="clust111" class="cluster">
<title>cluster_UtilityModule_exports</title>
<polygon fill="none" stroke="black" points="2828,-222 2828,-274 3290,-274 3290,-222 2828,-222"/>
</g>
<!-- AlertDialogComponent -->
<g id="node1" class="node">
<title>AlertDialogComponent</title>
<polygon fill="#ffffb3" stroke="black" points="172.2,-198 23.8,-198 23.8,-162 172.2,-162 172.2,-198"/>
<text text-anchor="middle" x="98" y="-175.8" font-family="Times,serif" font-size="14.00">AlertDialogComponent</text>
</g>
<!-- AlertDialogModule -->
<g id="node2" class="node">
<title>AlertDialogModule</title>
<polygon fill="#8dd3c7" stroke="black" points="299.42,-266 296.42,-270 275.42,-270 272.42,-266 172.58,-266 172.58,-230 299.42,-230 299.42,-266"/>
<text text-anchor="middle" x="236" y="-243.8" font-family="Times,serif" font-size="14.00">AlertDialogModule</text>
</g>
<!-- AlertDialogComponent&#45;&gt;AlertDialogModule -->
<g id="edge1" class="edge">
<title>AlertDialogComponent&#45;&gt;AlertDialogModule</title>
<path fill="none" stroke="black" d="M161.12,-198.22C161.12,-218.37 161.12,-248 161.12,-248 161.12,-248 162.5,-248 162.5,-248"/>
<polygon fill="black" stroke="black" points="162.5,-251.5 172.5,-248 162.5,-244.5 162.5,-251.5"/>
</g>
<!-- AlertDialogComponent  -->
<g id="node4" class="node">
<title>AlertDialogComponent </title>
<polygon fill="#fb8072" stroke="black" points="301.7,-342 150.3,-342 150.3,-306 301.7,-306 301.7,-342"/>
<text text-anchor="middle" x="226" y="-319.8" font-family="Times,serif" font-size="14.00">AlertDialogComponent </text>
</g>
<!-- AlertDialogModule&#45;&gt;AlertDialogComponent  -->
<g id="edge3" class="edge">
<title>AlertDialogModule&#45;&gt;AlertDialogComponent </title>
<path fill="none" stroke="black" stroke-dasharray="5,2" d="M236,-266.01C236,-266.01 236,-295.85 236,-295.85"/>
<polygon fill="black" stroke="black" points="232.5,-295.85 236,-305.85 239.5,-295.85 232.5,-295.85"/>
</g>
<!-- DialogModule -->
<g id="node15" class="node">
<title>DialogModule</title>
<polygon fill="#8dd3c7" stroke="black" points="624.65,-342 621.65,-346 600.65,-346 597.65,-342 527.35,-342 527.35,-306 624.65,-306 624.65,-342"/>
<text text-anchor="middle" x="576" y="-319.8" font-family="Times,serif" font-size="14.00">DialogModule</text>
</g>
<!-- AlertDialogModule&#45;&gt;DialogModule -->
<g id="edge12" class="edge">
<title>AlertDialogModule&#45;&gt;DialogModule</title>
<path fill="none" stroke="black" d="M299.48,-248C391.64,-248 551.59,-248 551.59,-248 551.59,-248 551.59,-295.99 551.59,-295.99"/>
<polygon fill="black" stroke="black" points="548.09,-295.99 551.59,-305.99 555.09,-295.99 548.09,-295.99"/>
</g>
<!-- MaterialModule -->
<g id="node3" class="node">
<title>MaterialModule</title>
<polygon fill="#8dd3c7" stroke="black" points="302.47,-198 299.47,-202 278.47,-202 275.47,-198 195.53,-198 195.53,-162 302.47,-162 302.47,-198"/>
<text text-anchor="middle" x="249" y="-175.8" font-family="Times,serif" font-size="14.00">MaterialModule</text>
</g>
<!-- MaterialModule&#45;&gt;AlertDialogModule -->
<g id="edge2" class="edge">
<title>MaterialModule&#45;&gt;AlertDialogModule</title>
<path fill="none" stroke="black" d="M221.44,-198.22C221.44,-198.22 221.44,-219.73 221.44,-219.73"/>
<polygon fill="black" stroke="black" points="217.94,-219.73 221.44,-229.73 224.94,-219.73 217.94,-219.73"/>
</g>
<!-- ConfirmDialogModule -->
<g id="node9" class="node">
<title>ConfirmDialogModule</title>
<polygon fill="#8dd3c7" stroke="black" points="1372.59,-266 1369.59,-270 1348.59,-270 1345.59,-266 1227.41,-266 1227.41,-230 1372.59,-230 1372.59,-266"/>
<text text-anchor="middle" x="1300" y="-243.8" font-family="Times,serif" font-size="14.00">ConfirmDialogModule</text>
</g>
<!-- MaterialModule&#45;&gt;ConfirmDialogModule -->
<g id="edge7" class="edge">
<title>MaterialModule&#45;&gt;ConfirmDialogModule</title>
<path fill="none" stroke="black" d="M247.36,-198.13C247.36,-208.71 247.36,-220 247.36,-220 247.36,-220 1275.82,-220 1275.82,-220 1275.82,-220 1275.82,-220.98 1275.82,-220.98"/>
<polygon fill="black" stroke="black" points="1272.32,-219.79 1275.82,-229.79 1279.32,-219.79 1272.32,-219.79"/>
</g>
<!-- DataFieldsModule -->
<g id="node13" class="node">
<title>DataFieldsModule</title>
<polygon fill="#8dd3c7" stroke="black" points="964.2,-266 961.2,-270 940.2,-270 937.2,-266 843.8,-266 843.8,-230 964.2,-230 964.2,-266"/>
<text text-anchor="middle" x="904" y="-243.8" font-family="Times,serif" font-size="14.00">DataFieldsModule</text>
</g>
<!-- MaterialModule&#45;&gt;DataFieldsModule -->
<g id="edge10" class="edge">
<title>MaterialModule&#45;&gt;DataFieldsModule</title>
<path fill="none" stroke="black" d="M302.55,-170C444.24,-170 818.18,-170 818.18,-170 818.18,-170 818.18,-248 818.18,-248 818.18,-248 833.46,-248 833.46,-248"/>
<polygon fill="black" stroke="black" points="833.46,-251.5 843.46,-248 833.46,-244.5 833.46,-251.5"/>
</g>
<!-- PromptDialogModule -->
<g id="node14" class="node">
<title>PromptDialogModule</title>
<polygon fill="#8dd3c7" stroke="black" points="798.38,-266 795.38,-270 774.38,-270 771.38,-266 659.62,-266 659.62,-230 798.38,-230 798.38,-266"/>
<text text-anchor="middle" x="729" y="-243.8" font-family="Times,serif" font-size="14.00">PromptDialogModule</text>
</g>
<!-- MaterialModule&#45;&gt;PromptDialogModule -->
<g id="edge20" class="edge">
<title>MaterialModule&#45;&gt;PromptDialogModule</title>
<path fill="none" stroke="black" d="M302.71,-177C420.4,-177 690.62,-177 690.62,-177 690.62,-177 690.62,-219.72 690.62,-219.72"/>
<polygon fill="black" stroke="black" points="687.12,-219.72 690.62,-229.72 694.12,-219.72 687.12,-219.72"/>
</g>
<!-- MaterialModule&#45;&gt;DialogModule -->
<g id="edge14" class="edge">
<title>MaterialModule&#45;&gt;DialogModule</title>
<path fill="none" stroke="black" d="M302.63,-184C395.4,-184 576,-184 576,-184 576,-184 576,-295.98 576,-295.98"/>
<polygon fill="black" stroke="black" points="572.5,-295.98 576,-305.98 579.5,-295.98 572.5,-295.98"/>
</g>
<!-- SnackBarModule -->
<g id="node25" class="node">
<title>SnackBarModule</title>
<polygon fill="#8dd3c7" stroke="black" points="1773.97,-266 1770.97,-270 1749.97,-270 1746.97,-266 1660.03,-266 1660.03,-230 1773.97,-230 1773.97,-266"/>
<text text-anchor="middle" x="1717" y="-243.8" font-family="Times,serif" font-size="14.00">SnackBarModule</text>
</g>
<!-- MaterialModule&#45;&gt;SnackBarModule -->
<g id="edge27" class="edge">
<title>MaterialModule&#45;&gt;SnackBarModule</title>
<path fill="none" stroke="black" d="M273.28,-198.2C273.28,-204.03 273.28,-209 273.28,-209 273.28,-209 1698,-209 1698,-209 1698,-209 1698,-219.87 1698,-219.87"/>
<polygon fill="black" stroke="black" points="1694.5,-219.87 1698,-229.87 1701.5,-219.87 1694.5,-219.87"/>
</g>
<!-- AnonymousAuthenticationInterceptor -->
<g id="node5" class="node">
<title>AnonymousAuthenticationInterceptor</title>
<ellipse fill="#fdb462" stroke="black" cx="2638" cy="-104" rx="157.99" ry="18"/>
<text text-anchor="middle" x="2638" y="-99.8" font-family="Times,serif" font-size="14.00">AnonymousAuthenticationInterceptor</text>
</g>
<!-- AuthenticationModule -->
<g id="node7" class="node">
<title>AuthenticationModule</title>
<polygon fill="#8dd3c7" stroke="black" points="2565.25,-198 2562.25,-202 2541.25,-202 2538.25,-198 2422.75,-198 2422.75,-162 2565.25,-162 2565.25,-198"/>
<text text-anchor="middle" x="2494" y="-175.8" font-family="Times,serif" font-size="14.00">AuthenticationModule</text>
</g>
<!-- AnonymousAuthenticationInterceptor&#45;&gt;AuthenticationModule -->
<g id="edge4" class="edge">
<title>AnonymousAuthenticationInterceptor&#45;&gt;AuthenticationModule</title>
<path fill="none" stroke="black" d="M2522.69,-116.55C2522.69,-116.55 2522.69,-151.74 2522.69,-151.74"/>
<polygon fill="black" stroke="black" points="2519.19,-151.74 2522.69,-161.74 2526.19,-151.74 2519.19,-151.74"/>
</g>
<!-- AuthenticationInterceptor -->
<g id="node6" class="node">
<title>AuthenticationInterceptor</title>
<ellipse fill="#fdb462" stroke="black" cx="2351" cy="-104" rx="110.57" ry="18"/>
<text text-anchor="middle" x="2351" y="-99.8" font-family="Times,serif" font-size="14.00">AuthenticationInterceptor</text>
</g>
<!-- AuthenticationInterceptor&#45;&gt;AuthenticationModule -->
<g id="edge5" class="edge">
<title>AuthenticationInterceptor&#45;&gt;AuthenticationModule</title>
<path fill="none" stroke="black" d="M2442.2,-114.25C2442.2,-114.25 2442.2,-151.77 2442.2,-151.77"/>
<polygon fill="black" stroke="black" points="2438.7,-151.77 2442.2,-161.77 2445.7,-151.77 2438.7,-151.77"/>
</g>
<!-- ConfirmDialogComponent -->
<g id="node8" class="node">
<title>ConfirmDialogComponent</title>
<polygon fill="#ffffb3" stroke="black" points="1392.37,-198 1225.63,-198 1225.63,-162 1392.37,-162 1392.37,-198"/>
<text text-anchor="middle" x="1309" y="-175.8" font-family="Times,serif" font-size="14.00">ConfirmDialogComponent</text>
</g>
<!-- ConfirmDialogComponent&#45;&gt;ConfirmDialogModule -->
<g id="edge6" class="edge">
<title>ConfirmDialogComponent&#45;&gt;ConfirmDialogModule</title>
<path fill="none" stroke="black" d="M1324.18,-198.22C1324.18,-198.22 1324.18,-219.73 1324.18,-219.73"/>
<polygon fill="black" stroke="black" points="1320.68,-219.73 1324.18,-229.73 1327.68,-219.73 1320.68,-219.73"/>
</g>
<!-- ConfirmDialogComponent  -->
<g id="node10" class="node">
<title>ConfirmDialogComponent </title>
<polygon fill="#fb8072" stroke="black" points="1396.37,-342 1225.63,-342 1225.63,-306 1396.37,-306 1396.37,-342"/>
<text text-anchor="middle" x="1311" y="-319.8" font-family="Times,serif" font-size="14.00">ConfirmDialogComponent </text>
</g>
<!-- ConfirmDialogModule&#45;&gt;ConfirmDialogComponent  -->
<g id="edge8" class="edge">
<title>ConfirmDialogModule&#45;&gt;ConfirmDialogComponent </title>
<path fill="none" stroke="black" stroke-dasharray="5,2" d="M1324.18,-266.01C1324.18,-266.01 1324.18,-295.85 1324.18,-295.85"/>
<polygon fill="black" stroke="black" points="1320.68,-295.85 1324.18,-305.85 1327.68,-295.85 1320.68,-295.85"/>
</g>
<!-- ConfirmDialogModule&#45;&gt;DialogModule -->
<g id="edge13" class="edge">
<title>ConfirmDialogModule&#45;&gt;DialogModule</title>
<path fill="none" stroke="black" d="M1275.82,-266.24C1275.82,-273.43 1275.82,-280 1275.82,-280 1275.82,-280 600.41,-280 600.41,-280 600.41,-280 600.41,-295.85 600.41,-295.85"/>
<polygon fill="black" stroke="black" points="596.91,-295.85 600.41,-305.85 603.91,-295.85 596.91,-295.85"/>
</g>
<!-- CovalentModule -->
<g id="node11" class="node">
<title>CovalentModule</title>
<polygon fill="#8dd3c7" stroke="black" points="1098.1,-198 1095.1,-202 1074.1,-202 1071.1,-198 987.9,-198 987.9,-162 1098.1,-162 1098.1,-198"/>
<text text-anchor="middle" x="1043" y="-175.8" font-family="Times,serif" font-size="14.00">CovalentModule</text>
</g>
<!-- CovalentModule&#45;&gt;DataFieldsModule -->
<g id="edge9" class="edge">
<title>CovalentModule&#45;&gt;DataFieldsModule</title>
<path fill="none" stroke="black" d="M995.02,-198.22C995.02,-218.37 995.02,-248 995.02,-248 995.02,-248 974.2,-248 974.2,-248"/>
<polygon fill="black" stroke="black" points="974.2,-244.5 964.2,-248 974.2,-251.5 974.2,-244.5"/>
</g>
<!-- TranslateLibModule -->
<g id="node12" class="node">
<title>TranslateLibModule</title>
<polygon fill="#8dd3c7" stroke="black" points="969.58,-198 966.58,-202 945.58,-202 942.58,-198 838.42,-198 838.42,-162 969.58,-162 969.58,-198"/>
<text text-anchor="middle" x="904" y="-175.8" font-family="Times,serif" font-size="14.00">TranslateLibModule</text>
</g>
<!-- TranslateLibModule&#45;&gt;DataFieldsModule -->
<g id="edge11" class="edge">
<title>TranslateLibModule&#45;&gt;DataFieldsModule</title>
<path fill="none" stroke="black" d="M904,-198.22C904,-198.22 904,-219.73 904,-219.73"/>
<polygon fill="black" stroke="black" points="900.5,-219.73 904,-229.73 907.5,-219.73 900.5,-219.73"/>
</g>
<!-- TranslateLibModule&#45;&gt;PromptDialogModule -->
<g id="edge21" class="edge">
<title>TranslateLibModule&#45;&gt;PromptDialogModule</title>
<path fill="none" stroke="black" d="M838.35,-191C800.39,-191 760.06,-191 760.06,-191 760.06,-191 760.06,-219.96 760.06,-219.96"/>
<polygon fill="black" stroke="black" points="756.56,-219.96 760.06,-229.96 763.56,-219.96 756.56,-219.96"/>
</g>
<!-- PromptDialogModule&#45;&gt;DialogModule -->
<g id="edge15" class="edge">
<title>PromptDialogModule&#45;&gt;DialogModule</title>
<path fill="none" stroke="black" d="M663.8,-266.01C663.8,-288.49 663.8,-324 663.8,-324 663.8,-324 634.78,-324 634.78,-324"/>
<polygon fill="black" stroke="black" points="634.78,-320.5 624.78,-324 634.78,-327.5 634.78,-320.5"/>
</g>
<!-- PromptDialogComponent  -->
<g id="node20" class="node">
<title>PromptDialogComponent </title>
<polygon fill="#fb8072" stroke="black" points="1002.16,-342 837.84,-342 837.84,-306 1002.16,-306 1002.16,-342"/>
<text text-anchor="middle" x="920" y="-319.8" font-family="Times,serif" font-size="14.00">PromptDialogComponent </text>
</g>
<!-- PromptDialogModule&#45;&gt;PromptDialogComponent  -->
<g id="edge22" class="edge">
<title>PromptDialogModule&#45;&gt;PromptDialogComponent </title>
<path fill="none" stroke="black" stroke-dasharray="5,2" d="M765.48,-266.31C765.48,-286.15 765.48,-315 765.48,-315 765.48,-315 827.76,-315 827.76,-315"/>
<polygon fill="black" stroke="black" points="827.76,-318.5 837.76,-315 827.76,-311.5 827.76,-318.5"/>
</g>
<!-- AlertDialogModule  -->
<g id="node16" class="node">
<title>AlertDialogModule </title>
<polygon fill="#fb8072" stroke="black" points="797.92,-410 668.08,-410 668.08,-374 797.92,-374 797.92,-410"/>
<text text-anchor="middle" x="733" y="-387.8" font-family="Times,serif" font-size="14.00">AlertDialogModule </text>
</g>
<!-- DialogModule&#45;&gt;AlertDialogModule  -->
<g id="edge16" class="edge">
<title>DialogModule&#45;&gt;AlertDialogModule </title>
<path fill="none" stroke="black" stroke-dasharray="5,2" d="M624.82,-333C670.9,-333 733,-333 733,-333 733,-333 733,-363.98 733,-363.98"/>
<polygon fill="black" stroke="black" points="729.5,-363.98 733,-373.98 736.5,-363.98 729.5,-363.98"/>
</g>
<!-- ConfirmDialogModule  -->
<g id="node17" class="node">
<title>ConfirmDialogModule </title>
<polygon fill="#fb8072" stroke="black" points="650.09,-410 501.91,-410 501.91,-374 650.09,-374 650.09,-410"/>
<text text-anchor="middle" x="576" y="-387.8" font-family="Times,serif" font-size="14.00">ConfirmDialogModule </text>
</g>
<!-- DialogModule&#45;&gt;ConfirmDialogModule  -->
<g id="edge17" class="edge">
<title>DialogModule&#45;&gt;ConfirmDialogModule </title>
<path fill="none" stroke="black" stroke-dasharray="5,2" d="M576,-342.22C576,-342.22 576,-363.73 576,-363.73"/>
<polygon fill="black" stroke="black" points="572.5,-363.73 576,-373.73 579.5,-363.73 572.5,-363.73"/>
</g>
<!-- PromptDialogModule  -->
<g id="node18" class="node">
<title>PromptDialogModule </title>
<polygon fill="#fb8072" stroke="black" points="484.38,-410 341.62,-410 341.62,-374 484.38,-374 484.38,-410"/>
<text text-anchor="middle" x="413" y="-387.8" font-family="Times,serif" font-size="14.00">PromptDialogModule </text>
</g>
<!-- DialogModule&#45;&gt;PromptDialogModule  -->
<g id="edge18" class="edge">
<title>DialogModule&#45;&gt;PromptDialogModule </title>
<path fill="none" stroke="black" stroke-dasharray="5,2" d="M527.09,-324C479.08,-324 413,-324 413,-324 413,-324 413,-363.78 413,-363.78"/>
<polygon fill="black" stroke="black" points="409.5,-363.78 413,-373.78 416.5,-363.78 409.5,-363.78"/>
</g>
<!-- PromptDialogComponent -->
<g id="node19" class="node">
<title>PromptDialogComponent</title>
<polygon fill="#ffffb3" stroke="black" points="1186.16,-342 1025.84,-342 1025.84,-306 1186.16,-306 1186.16,-342"/>
<text text-anchor="middle" x="1106" y="-319.8" font-family="Times,serif" font-size="14.00">PromptDialogComponent</text>
</g>
<!-- PromptDialogComponent&#45;&gt;PromptDialogModule -->
<g id="edge19" class="edge">
<title>PromptDialogComponent&#45;&gt;PromptDialogModule</title>
<path fill="none" stroke="black" d="M1061.86,-305.97C1061.86,-299.15 1061.86,-293 1061.86,-293 1061.86,-293 700.52,-293 700.52,-293 700.52,-293 700.52,-276.04 700.52,-276.04"/>
<polygon fill="black" stroke="black" points="704.02,-276.04 700.52,-266.04 697.02,-276.04 704.02,-276.04"/>
</g>
<!-- ErrorSnackBarComponent -->
<g id="node21" class="node">
<title>ErrorSnackBarComponent</title>
<polygon fill="#ffffb3" stroke="black" points="1799.79,-198 1634.21,-198 1634.21,-162 1799.79,-162 1799.79,-198"/>
<text text-anchor="middle" x="1717" y="-175.8" font-family="Times,serif" font-size="14.00">ErrorSnackBarComponent</text>
</g>
<!-- ErrorSnackBarComponent&#45;&gt;SnackBarModule -->
<g id="edge23" class="edge">
<title>ErrorSnackBarComponent&#45;&gt;SnackBarModule</title>
<path fill="none" stroke="black" d="M1736,-198.22C1736,-198.22 1736,-219.73 1736,-219.73"/>
<polygon fill="black" stroke="black" points="1732.5,-219.73 1736,-229.73 1739.5,-219.73 1732.5,-219.73"/>
</g>
<!-- GenericSnackBarComponent -->
<g id="node22" class="node">
<title>GenericSnackBarComponent</title>
<polygon fill="#ffffb3" stroke="black" points="1616.06,-198 1435.94,-198 1435.94,-162 1616.06,-162 1616.06,-198"/>
<text text-anchor="middle" x="1526" y="-175.8" font-family="Times,serif" font-size="14.00">GenericSnackBarComponent</text>
</g>
<!-- GenericSnackBarComponent&#45;&gt;SnackBarModule -->
<g id="edge24" class="edge">
<title>GenericSnackBarComponent&#45;&gt;SnackBarModule</title>
<path fill="none" stroke="black" d="M1526,-198.22C1526,-218.37 1526,-248 1526,-248 1526,-248 1649.95,-248 1649.95,-248"/>
<polygon fill="black" stroke="black" points="1649.95,-251.5 1659.95,-248 1649.95,-244.5 1649.95,-251.5"/>
</g>
<!-- SuccessSnackBarComponent -->
<g id="node23" class="node">
<title>SuccessSnackBarComponent</title>
<polygon fill="#ffffb3" stroke="black" points="2200.07,-198 2019.93,-198 2019.93,-162 2200.07,-162 2200.07,-198"/>
<text text-anchor="middle" x="2110" y="-175.8" font-family="Times,serif" font-size="14.00">SuccessSnackBarComponent</text>
</g>
<!-- SuccessSnackBarComponent&#45;&gt;SnackBarModule -->
<g id="edge25" class="edge">
<title>SuccessSnackBarComponent&#45;&gt;SnackBarModule</title>
<path fill="none" stroke="black" d="M2110,-198.29C2110,-220.21 2110,-254 2110,-254 2110,-254 1784.15,-254 1784.15,-254"/>
<polygon fill="black" stroke="black" points="1784.15,-250.5 1774.15,-254 1784.15,-257.5 1784.15,-250.5"/>
</g>
<!-- WarningSnackBarComponent -->
<g id="node24" class="node">
<title>WarningSnackBarComponent</title>
<polygon fill="#ffffb3" stroke="black" points="2002.24,-198 1817.76,-198 1817.76,-162 2002.24,-162 2002.24,-198"/>
<text text-anchor="middle" x="1910" y="-175.8" font-family="Times,serif" font-size="14.00">WarningSnackBarComponent</text>
</g>
<!-- WarningSnackBarComponent&#45;&gt;SnackBarModule -->
<g id="edge26" class="edge">
<title>WarningSnackBarComponent&#45;&gt;SnackBarModule</title>
<path fill="none" stroke="black" d="M1910,-198.27C1910,-216.56 1910,-242 1910,-242 1910,-242 1784.12,-242 1784.12,-242"/>
<polygon fill="black" stroke="black" points="1784.12,-238.5 1774.12,-242 1784.12,-245.5 1784.12,-238.5"/>
</g>
<!-- LanguageService -->
<g id="node26" class="node">
<title>LanguageService</title>
<ellipse fill="#fdb462" stroke="black" cx="996" cy="-104" rx="78.13" ry="18"/>
<text text-anchor="middle" x="996" y="-99.8" font-family="Times,serif" font-size="14.00">LanguageService</text>
</g>
<!-- LanguageService&#45;&gt;TranslateLibModule -->
<g id="edge28" class="edge">
<title>LanguageService&#45;&gt;TranslateLibModule</title>
<path fill="none" stroke="black" d="M943.74,-117.59C943.74,-117.59 943.74,-151.96 943.74,-151.96"/>
<polygon fill="black" stroke="black" points="940.24,-151.96 943.74,-161.96 947.24,-151.96 940.24,-151.96"/>
</g>
<!-- TranslateInterceptor -->
<g id="node27" class="node">
<title>TranslateInterceptor</title>
<ellipse fill="#fdb462" stroke="black" cx="811" cy="-104" rx="89.14" ry="18"/>
<text text-anchor="middle" x="811" y="-99.8" font-family="Times,serif" font-size="14.00">TranslateInterceptor</text>
</g>
<!-- TranslateInterceptor&#45;&gt;TranslateLibModule -->
<g id="edge29" class="edge">
<title>TranslateInterceptor&#45;&gt;TranslateLibModule</title>
<path fill="none" stroke="black" d="M869.39,-117.94C869.39,-117.94 869.39,-151.84 869.39,-151.84"/>
<polygon fill="black" stroke="black" points="865.89,-151.84 869.39,-161.84 872.89,-151.84 865.89,-151.84"/>
</g>
<!-- ContainsPipe -->
<g id="node28" class="node">
<title>ContainsPipe</title>
<polygon fill="#ffffb3" stroke="black" points="3276.17,-122 3185.83,-122 3185.83,-86 3276.17,-86 3276.17,-122"/>
<text text-anchor="middle" x="3231" y="-99.8" font-family="Times,serif" font-size="14.00">ContainsPipe</text>
</g>
<!-- UtilityModule -->
<g id="node32" class="node">
<title>UtilityModule</title>
<polygon fill="#8dd3c7" stroke="black" points="3056.11,-198 3053.11,-202 3032.11,-202 3029.11,-198 2959.89,-198 2959.89,-162 3056.11,-162 3056.11,-198"/>
<text text-anchor="middle" x="3008" y="-175.8" font-family="Times,serif" font-size="14.00">UtilityModule</text>
</g>
<!-- ContainsPipe&#45;&gt;UtilityModule -->
<g id="edge30" class="edge">
<title>ContainsPipe&#45;&gt;UtilityModule</title>
<path fill="none" stroke="black" d="M3246.86,-122.04C3246.86,-143.66 3246.86,-177 3246.86,-177 3246.86,-177 3066.34,-177 3066.34,-177"/>
<polygon fill="black" stroke="black" points="3066.34,-173.5 3056.34,-177 3066.34,-180.5 3066.34,-173.5"/>
</g>
<!-- IsEmptyPipe -->
<g id="node29" class="node">
<title>IsEmptyPipe</title>
<polygon fill="#ffffb3" stroke="black" points="3168.33,-122 3079.67,-122 3079.67,-86 3168.33,-86 3168.33,-122"/>
<text text-anchor="middle" x="3124" y="-99.8" font-family="Times,serif" font-size="14.00">IsEmptyPipe</text>
</g>
<!-- IsEmptyPipe&#45;&gt;UtilityModule -->
<g id="edge31" class="edge">
<title>IsEmptyPipe&#45;&gt;UtilityModule</title>
<path fill="none" stroke="black" d="M3109.28,-122.03C3109.28,-141.58 3109.28,-170 3109.28,-170 3109.28,-170 3066.27,-170 3066.27,-170"/>
<polygon fill="black" stroke="black" points="3066.27,-166.5 3056.27,-170 3066.27,-173.5 3066.27,-166.5"/>
</g>
<!-- IsNonEmptyPipe -->
<g id="node30" class="node">
<title>IsNonEmptyPipe</title>
<polygon fill="#ffffb3" stroke="black" points="3062.43,-122 2949.57,-122 2949.57,-86 3062.43,-86 3062.43,-122"/>
<text text-anchor="middle" x="3006" y="-99.8" font-family="Times,serif" font-size="14.00">IsNonEmptyPipe</text>
</g>
<!-- IsNonEmptyPipe&#45;&gt;UtilityModule -->
<g id="edge32" class="edge">
<title>IsNonEmptyPipe&#45;&gt;UtilityModule</title>
<path fill="none" stroke="black" d="M3008,-122.01C3008,-122.01 3008,-151.85 3008,-151.85"/>
<polygon fill="black" stroke="black" points="3004.5,-151.85 3008,-161.85 3011.5,-151.85 3004.5,-151.85"/>
</g>
<!-- LetDirective -->
<g id="node31" class="node">
<title>LetDirective</title>
<polygon fill="#ffffb3" stroke="black" points="2931.24,-122 2844.76,-122 2844.76,-86 2931.24,-86 2931.24,-122"/>
<text text-anchor="middle" x="2888" y="-99.8" font-family="Times,serif" font-size="14.00">LetDirective</text>
</g>
<!-- LetDirective&#45;&gt;UtilityModule -->
<g id="edge33" class="edge">
<title>LetDirective&#45;&gt;UtilityModule</title>
<path fill="none" stroke="black" d="M2898.96,-122.03C2898.96,-142.77 2898.96,-174 2898.96,-174 2898.96,-174 2949.85,-174 2949.85,-174"/>
<polygon fill="black" stroke="black" points="2949.85,-177.5 2959.85,-174 2949.85,-170.5 2949.85,-177.5"/>
</g>
<!-- ContainsPipe  -->
<g id="node33" class="node">
<title>ContainsPipe </title>
<polygon fill="#fb8072" stroke="black" points="3282.16,-266 3187.84,-266 3187.84,-230 3282.16,-230 3282.16,-266"/>
<text text-anchor="middle" x="3235" y="-243.8" font-family="Times,serif" font-size="14.00">ContainsPipe </text>
</g>
<!-- UtilityModule&#45;&gt;ContainsPipe  -->
<g id="edge34" class="edge">
<title>UtilityModule&#45;&gt;ContainsPipe </title>
<path fill="none" stroke="black" stroke-dasharray="5,2" d="M3056.3,-184C3118.14,-184 3217.39,-184 3217.39,-184 3217.39,-184 3217.39,-219.83 3217.39,-219.83"/>
<polygon fill="black" stroke="black" points="3213.89,-219.83 3217.39,-229.83 3220.89,-219.83 3213.89,-219.83"/>
</g>
<!-- IsEmptyPipe  -->
<g id="node34" class="node">
<title>IsEmptyPipe </title>
<polygon fill="#fb8072" stroke="black" points="3169.83,-266 3078.17,-266 3078.17,-230 3169.83,-230 3169.83,-266"/>
<text text-anchor="middle" x="3124" y="-243.8" font-family="Times,serif" font-size="14.00">IsEmptyPipe </text>
</g>
<!-- UtilityModule&#45;&gt;IsEmptyPipe  -->
<g id="edge35" class="edge">
<title>UtilityModule&#45;&gt;IsEmptyPipe </title>
<path fill="none" stroke="black" stroke-dasharray="5,2" d="M3056.3,-191C3093.54,-191 3138.72,-191 3138.72,-191 3138.72,-191 3138.72,-219.96 3138.72,-219.96"/>
<polygon fill="black" stroke="black" points="3135.22,-219.96 3138.72,-229.96 3142.22,-219.96 3135.22,-219.96"/>
</g>
<!-- IsNonEmptyPipe  -->
<g id="node35" class="node">
<title>IsNonEmptyPipe </title>
<polygon fill="#fb8072" stroke="black" points="3059.93,-266 2944.07,-266 2944.07,-230 3059.93,-230 3059.93,-266"/>
<text text-anchor="middle" x="3002" y="-243.8" font-family="Times,serif" font-size="14.00">IsNonEmptyPipe </text>
</g>
<!-- UtilityModule&#45;&gt;IsNonEmptyPipe  -->
<g id="edge36" class="edge">
<title>UtilityModule&#45;&gt;IsNonEmptyPipe </title>
<path fill="none" stroke="black" stroke-dasharray="5,2" d="M3008,-198.22C3008,-198.22 3008,-219.73 3008,-219.73"/>
<polygon fill="black" stroke="black" points="3004.5,-219.73 3008,-229.73 3011.5,-219.73 3004.5,-219.73"/>
</g>
<!-- LetDirective  -->
<g id="node36" class="node">
<title>LetDirective </title>
<polygon fill="#fb8072" stroke="black" points="2926.24,-266 2835.76,-266 2835.76,-230 2926.24,-230 2926.24,-266"/>
<text text-anchor="middle" x="2881" y="-243.8" font-family="Times,serif" font-size="14.00">LetDirective </text>
</g>
<!-- UtilityModule&#45;&gt;LetDirective  -->
<g id="edge37" class="edge">
<title>UtilityModule&#45;&gt;LetDirective </title>
<path fill="none" stroke="black" stroke-dasharray="5,2" d="M2959.6,-186C2920.45,-186 2871.79,-186 2871.79,-186 2871.79,-186 2871.79,-219.73 2871.79,-219.73"/>
<polygon fill="black" stroke="black" points="2868.29,-219.73 2871.79,-229.73 2875.29,-219.73 2868.29,-219.73"/>
</g>
</g>
</svg>
