<?xml version="1.0" encoding="UTF-8" standalone="no"?>
<!DOCTYPE svg PUBLIC "-//W3C//DTD SVG 1.1//EN"
 "http://www.w3.org/Graphics/SVG/1.1/DTD/svg11.dtd">
<!-- Generated by graphviz version 2.47.0 (20210316.0004)
 -->
<!-- Title: dependencies Pages: 1 -->
<svg width="684pt" height="396pt"
 viewBox="0.00 0.00 684.00 395.59" xmlns="http://www.w3.org/2000/svg" xmlns:xlink="http://www.w3.org/1999/xlink">
<g id="graph0" class="graph" transform="scale(1 1) rotate(0) translate(4 391.59)">
<title>dependencies</title>
<polygon fill="white" stroke="transparent" points="-4,4 -4,-391.59 680,-391.59 680,4 -4,4"/>
<text text-anchor="start" x="317.01" y="-42.4" font-family="Times-12" font-weight="bold" font-size="14.00">Legend</text>
<polygon fill="#ffffb3" stroke="transparent" points="104,-10 104,-30 124,-30 124,-10 104,-10"/>
<text text-anchor="start" x="127.63" y="-15.4" font-family="Times-12" font-size="14.00"> &#160;Declarations</text>
<polygon fill="#8dd3c7" stroke="transparent" points="217,-10 217,-30 237,-30 237,-10 217,-10"/>
<text text-anchor="start" x="240.73" y="-15.4" font-family="Times-12" font-size="14.00"> &#160;Module</text>
<polygon fill="#80b1d3" stroke="transparent" points="303,-10 303,-30 323,-30 323,-10 303,-10"/>
<text text-anchor="start" x="326.78" y="-15.4" font-family="Times-12" font-size="14.00"> &#160;Bootstrap</text>
<polygon fill="#fdb462" stroke="transparent" points="400,-10 400,-30 420,-30 420,-10 400,-10"/>
<text text-anchor="start" x="423.67" y="-15.4" font-family="Times-12" font-size="14.00"> &#160;Providers</text>
<polygon fill="#fb8072" stroke="transparent" points="496,-10 496,-30 516,-30 516,-10 496,-10"/>
<text text-anchor="start" x="519.73" y="-15.4" font-family="Times-12" font-size="14.00"> &#160;Exports</text>
<g id="clust1" class="cluster">
<title>cluster_SideMenuNewCaseComponentModule</title>
<polygon fill="none" stroke="black" stroke-dasharray="1,5" points="8,-70 8,-379.59 668,-379.59 668,-70 8,-70"/>
</g>
<g id="clust5" class="cluster">
<title>cluster_SideMenuNewCaseComponentModule_exports</title>
<polygon fill="none" stroke="black" points="261,-319.59 261,-371.59 415,-371.59 415,-319.59 261,-319.59"/>
</g>
<g id="clust3" class="cluster">
<title>cluster_SideMenuNewCaseComponentModule_NewCaseComponent_providers</title>
<polygon fill="none" stroke="black" points="16,-78 16,-241.59 660,-241.59 660,-78 16,-78"/>
</g>
<!-- NewCaseComponent -->
<g id="node1" class="node">
<title>NewCaseComponent</title>
<polygon fill="#ffffb3" stroke="black" points="405.47,-233.59 270.53,-233.59 270.53,-197.59 405.47,-197.59 405.47,-233.59"/>
<text text-anchor="middle" x="338" y="-211.39" font-family="Times,serif" font-size="14.00">NewCaseComponent</text>
</g>
<!-- SideMenuNewCaseComponentModule -->
<g id="node2" class="node">
<title>SideMenuNewCaseComponentModule</title>
<polygon fill="#8dd3c7" stroke="black" points="456.07,-298.59 453.07,-302.59 432.07,-302.59 429.07,-298.59 219.93,-298.59 219.93,-262.59 456.07,-262.59 456.07,-298.59"/>
<text text-anchor="middle" x="338" y="-276.39" font-family="Times,serif" font-size="14.00">SideMenuNewCaseComponentModule</text>
</g>
<!-- NewCaseComponent&#45;&gt;SideMenuNewCaseComponentModule -->
<g id="edge1" class="edge">
<title>NewCaseComponent&#45;&gt;SideMenuNewCaseComponentModule</title>
<path fill="none" stroke="black" d="M338,-233.7C338,-233.7 338,-252.58 338,-252.58"/>
<polygon fill="black" stroke="black" points="334.5,-252.58 338,-262.58 341.5,-252.58 334.5,-252.58"/>
</g>
<!-- NewCaseComponent  -->
<g id="node4" class="node">
<title>NewCaseComponent </title>
<polygon fill="#fb8072" stroke="black" points="407.47,-363.59 268.53,-363.59 268.53,-327.59 407.47,-327.59 407.47,-363.59"/>
<text text-anchor="middle" x="338" y="-341.39" font-family="Times,serif" font-size="14.00">NewCaseComponent </text>
</g>
<!-- SideMenuNewCaseComponentModule&#45;&gt;NewCaseComponent  -->
<g id="edge3" class="edge">
<title>SideMenuNewCaseComponentModule&#45;&gt;NewCaseComponent </title>
<path fill="none" stroke="black" stroke-dasharray="5,2" d="M338,-298.7C338,-298.7 338,-317.58 338,-317.58"/>
<polygon fill="black" stroke="black" points="334.5,-317.58 338,-327.58 341.5,-317.58 334.5,-317.58"/>
</g>
<!-- {
 &#160;&#160;&#160;provide: STEPPER_GLOBAL_OPTIONS, useValue: { showError: true }
} -->
<g id="node3" class="node">
<title>{
 &#160;&#160;&#160;provide: STEPPER_GLOBAL_OPTIONS, useValue: { showError: true }
}</title>
<ellipse fill="#fdb462" stroke="black" cx="338" cy="-127.3" rx="313.72" ry="41.09"/>
<text text-anchor="middle" x="338" y="-139.9" font-family="Times,serif" font-size="14.00">{</text>
<text text-anchor="middle" x="338" y="-123.1" font-family="Times,serif" font-size="14.00"> &#160;&#160;&#160;provide: STEPPER_GLOBAL_OPTIONS, useValue: { showError: true }</text>
<text text-anchor="middle" x="338" y="-106.3" font-family="Times,serif" font-size="14.00">}</text>
</g>
<!-- {
 &#160;&#160;&#160;provide: STEPPER_GLOBAL_OPTIONS, useValue: { showError: true }
}&#45;&gt;NewCaseComponent -->
<g id="edge2" class="edge">
<title>{
 &#160;&#160;&#160;provide: STEPPER_GLOBAL_OPTIONS, useValue: { showError: true }
}&#45;&gt;NewCaseComponent</title>
<path fill="none" stroke="black" d="M338,-168.6C338,-168.6 338,-187.26 338,-187.26"/>
<polygon fill="black" stroke="black" points="334.5,-187.26 338,-197.26 341.5,-187.26 334.5,-187.26"/>
</g>
</g>
</svg>
