<?xml version="1.0" encoding="UTF-8" standalone="no"?>
<!DOCTYPE svg PUBLIC "-//W3C//DTD SVG 1.1//EN"
 "http://www.w3.org/Graphics/SVG/1.1/DTD/svg11.dtd">
<!-- Generated by graphviz version 2.47.3 (20210619.1520)
 -->
<!-- Title: dependencies Pages: 1 -->
<svg width="684pt" height="358pt"
 viewBox="0.00 0.00 684.00 358.39" xmlns="http://www.w3.org/2000/svg" xmlns:xlink="http://www.w3.org/1999/xlink">
<g id="graph0" class="graph" transform="scale(1 1) rotate(0) translate(4 354.39)">
<title>dependencies</title>
<polygon fill="white" stroke="transparent" points="-4,4 -4,-354.39 680,-354.39 680,4 -4,4"/>
<text text-anchor="middle" x="338" y="-8.2" font-family="sans-serif" font-size="14.00">dependencies</text>
<g id="clust1" class="cluster">
<title>cluster_SideMenuNewCaseComponentModule</title>
<polygon fill="none" stroke="black" stroke-dasharray="1,5" points="8,-32.8 8,-342.39 668,-342.39 668,-32.8 8,-32.8"/>
</g>
<g id="clust2" class="cluster">
<title>cluster_SideMenuNewCaseComponentModule_declarations</title>
<polygon fill="none" stroke="black" points="263,-152.39 263,-204.39 413,-204.39 413,-152.39 263,-152.39"/>
</g>
<g id="clust3" class="cluster">
<title>cluster_SideMenuNewCaseComponentModule_NewCaseComponent_providers</title>
<polygon fill="none" stroke="black" points="16,-40.8 16,-139.39 660,-139.39 660,-40.8 16,-40.8"/>
</g>
<g id="clust5" class="cluster">
<title>cluster_SideMenuNewCaseComponentModule_exports</title>
<polygon fill="none" stroke="black" points="261,-282.39 261,-334.39 415,-334.39 415,-282.39 261,-282.39"/>
</g>
<!-- NewCaseComponent -->
<g id="node1" class="node">
<title>NewCaseComponent</title>
<polygon fill="#ffffb3" stroke="black" points="405.47,-196.39 270.53,-196.39 270.53,-160.39 405.47,-160.39 405.47,-196.39"/>
<text text-anchor="middle" x="338" y="-174.19" font-family="Times,serif" font-size="14.00">NewCaseComponent</text>
</g>
<!-- SideMenuNewCaseComponentModule -->
<g id="node2" class="node">
<title>SideMenuNewCaseComponentModule</title>
<polygon fill="#8dd3c7" stroke="black" points="456.07,-261.39 453.07,-265.39 432.07,-265.39 429.07,-261.39 219.93,-261.39 219.93,-225.39 456.07,-225.39 456.07,-261.39"/>
<text text-anchor="middle" x="338" y="-239.19" font-family="Times,serif" font-size="14.00">SideMenuNewCaseComponentModule</text>
</g>
<!-- NewCaseComponent&#45;&gt;SideMenuNewCaseComponentModule -->
<g id="edge1" class="edge">
<title>NewCaseComponent&#45;&gt;SideMenuNewCaseComponentModule</title>
<path fill="none" stroke="black" d="M338,-196.5C338,-196.5 338,-215.38 338,-215.38"/>
<polygon fill="black" stroke="black" points="334.5,-215.38 338,-225.38 341.5,-215.38 334.5,-215.38"/>
</g>
<!-- NewCaseComponent  -->
<g id="node4" class="node">
<title>NewCaseComponent </title>
<polygon fill="#fb8072" stroke="black" points="407.47,-326.39 268.53,-326.39 268.53,-290.39 407.47,-290.39 407.47,-326.39"/>
<text text-anchor="middle" x="338" y="-304.19" font-family="Times,serif" font-size="14.00">NewCaseComponent </text>
</g>
<!-- SideMenuNewCaseComponentModule&#45;&gt;NewCaseComponent  -->
<g id="edge3" class="edge">
<title>SideMenuNewCaseComponentModule&#45;&gt;NewCaseComponent </title>
<path fill="none" stroke="black" stroke-dasharray="5,2" d="M338,-261.5C338,-261.5 338,-280.38 338,-280.38"/>
<polygon fill="black" stroke="black" points="334.5,-280.38 338,-290.38 341.5,-280.38 334.5,-280.38"/>
</g>
<!-- {
 &#160;&#160;&#160;provide: STEPPER_GLOBAL_OPTIONS, useValue: { showError: true }
} -->
<g id="node3" class="node">
<title>{
 &#160;&#160;&#160;provide: STEPPER_GLOBAL_OPTIONS, useValue: { showError: true }
}</title>
<ellipse fill="#fdb462" stroke="black" cx="338" cy="-90.1" rx="313.72" ry="41.09"/>
<text text-anchor="middle" x="338" y="-102.7" font-family="Times,serif" font-size="14.00">{</text>
<text text-anchor="middle" x="338" y="-85.9" font-family="Times,serif" font-size="14.00"> &#160;&#160;&#160;provide: STEPPER_GLOBAL_OPTIONS, useValue: { showError: true }</text>
<text text-anchor="middle" x="338" y="-69.1" font-family="Times,serif" font-size="14.00">}</text>
</g>
<!-- {
 &#160;&#160;&#160;provide: STEPPER_GLOBAL_OPTIONS, useValue: { showError: true }
}&#45;&gt;NewCaseComponent -->
<g id="edge2" class="edge">
<title>{
 &#160;&#160;&#160;provide: STEPPER_GLOBAL_OPTIONS, useValue: { showError: true }
}&#45;&gt;NewCaseComponent</title>
<path fill="none" stroke="black" d="M338,-131.4C338,-131.4 338,-150.06 338,-150.06"/>
<polygon fill="black" stroke="black" points="334.5,-150.06 338,-160.06 341.5,-150.06 334.5,-150.06"/>
</g>
</g>
</svg>
