<?xml version="1.0" encoding="UTF-8" standalone="no"?>
<!DOCTYPE svg PUBLIC "-//W3C//DTD SVG 1.1//EN"
 "http://www.w3.org/Graphics/SVG/1.1/DTD/svg11.dtd">
<!-- Generated by graphviz version 3.0.0 (20220226.1711)
 -->
<!-- Title: dependencies Pages: 1 -->
<svg width="1867pt" height="247pt"
 viewBox="0.00 0.00 1867.00 246.80" xmlns="http://www.w3.org/2000/svg" xmlns:xlink="http://www.w3.org/1999/xlink">
<g id="graph0" class="graph" transform="scale(1 1) rotate(0) translate(4 242.8)">
<title>dependencies</title>
<polygon fill="white" stroke="transparent" points="-4,4 -4,-242.8 1863,-242.8 1863,4 -4,4"/>
<text text-anchor="middle" x="929.5" y="-8.2" font-family="sans-serif" font-size="14.00">dependencies</text>
<g id="clust1" class="cluster">
<title>cluster_NavigationComponentModule</title>
<polygon fill="none" stroke="black" stroke-dasharray="1,5" points="8,-32.8 8,-230.8 1851,-230.8 1851,-32.8 8,-32.8"/>
</g>
<g id="clust2" class="cluster">
<title>cluster_NavigationComponentModule_declarations</title>
<polygon fill="none" stroke="black" points="32,-40.8 32,-92.8 1832,-92.8 1832,-40.8 32,-40.8"/>
</g>
<g id="clust12" class="cluster">
<title>cluster_NavigationComponentModule_exports</title>
<polygon fill="none" stroke="black" points="16,-170.8 16,-222.8 1843,-222.8 1843,-170.8 16,-170.8"/>
</g>
<!-- DefaultSimpleTaskViewComponent -->
<g id="node1" class="node">
<title>DefaultSimpleTaskViewComponent</title>
<polygon fill="#ffffb3" stroke="black" points="1824.02,-84.8 1603.98,-84.8 1603.98,-48.8 1824.02,-48.8 1824.02,-84.8"/>
<text text-anchor="middle" x="1714" y="-62.6" font-family="Times,serif" font-size="14.00">DefaultSimpleTaskViewComponent</text>
</g>
<!-- NavigationComponentModule -->
<g id="node9" class="node">
<title>NavigationComponentModule</title>
<polygon fill="#8dd3c7" stroke="black" points="862.59,-149.8 859.59,-153.8 838.59,-153.8 835.59,-149.8 675.41,-149.8 675.41,-113.8 862.59,-113.8 862.59,-149.8"/>
<text text-anchor="middle" x="769" y="-127.6" font-family="Times,serif" font-size="14.00">NavigationComponentModule</text>
</g>
<!-- DefaultSimpleTaskViewComponent&#45;&gt;NavigationComponentModule -->
<g id="edge1" class="edge">
<title>DefaultSimpleTaskViewComponent&#45;&gt;NavigationComponentModule</title>
<path fill="none" stroke="black" d="M1607.37,-85.02C1607.37,-103.63 1607.37,-129.8 1607.37,-129.8 1607.37,-129.8 872.73,-129.8 872.73,-129.8"/>
<polygon fill="black" stroke="black" points="872.73,-126.3 862.73,-129.8 872.73,-133.3 872.73,-126.3"/>
</g>
<!-- DefaultTabViewComponent -->
<g id="node2" class="node">
<title>DefaultTabViewComponent</title>
<polygon fill="#ffffb3" stroke="black" points="1585.9,-84.8 1410.1,-84.8 1410.1,-48.8 1585.9,-48.8 1585.9,-84.8"/>
<text text-anchor="middle" x="1498" y="-62.6" font-family="Times,serif" font-size="14.00">DefaultTabViewComponent</text>
</g>
<!-- DefaultTabViewComponent&#45;&gt;NavigationComponentModule -->
<g id="edge2" class="edge">
<title>DefaultTabViewComponent&#45;&gt;NavigationComponentModule</title>
<path fill="none" stroke="black" d="M1528.65,-84.82C1528.65,-102.17 1528.65,-125.8 1528.65,-125.8 1528.65,-125.8 872.91,-125.8 872.91,-125.8"/>
<polygon fill="black" stroke="black" points="872.91,-122.3 862.91,-125.8 872.91,-129.3 872.91,-122.3"/>
</g>
<!-- DefaultTabbedCaseViewComponent -->
<g id="node3" class="node">
<title>DefaultTabbedCaseViewComponent</title>
<polygon fill="#ffffb3" stroke="black" points="1392.33,-84.8 1169.67,-84.8 1169.67,-48.8 1392.33,-48.8 1392.33,-84.8"/>
<text text-anchor="middle" x="1281" y="-62.6" font-family="Times,serif" font-size="14.00">DefaultTabbedCaseViewComponent</text>
</g>
<!-- DefaultTabbedCaseViewComponent&#45;&gt;NavigationComponentModule -->
<g id="edge3" class="edge">
<title>DefaultTabbedCaseViewComponent&#45;&gt;NavigationComponentModule</title>
<path fill="none" stroke="black" d="M1318.22,-84.81C1318.22,-100.85 1318.22,-121.8 1318.22,-121.8 1318.22,-121.8 872.79,-121.8 872.79,-121.8"/>
<polygon fill="black" stroke="black" points="872.79,-118.3 862.79,-121.8 872.79,-125.3 872.79,-118.3"/>
</g>
<!-- DefaultTabbedTaskViewComponent -->
<g id="node4" class="node">
<title>DefaultTabbedTaskViewComponent</title>
<polygon fill="#ffffb3" stroke="black" points="1151.33,-84.8 928.67,-84.8 928.67,-48.8 1151.33,-48.8 1151.33,-84.8"/>
<text text-anchor="middle" x="1040" y="-62.6" font-family="Times,serif" font-size="14.00">DefaultTabbedTaskViewComponent</text>
</g>
<!-- DefaultTabbedTaskViewComponent&#45;&gt;NavigationComponentModule -->
<g id="edge4" class="edge">
<title>DefaultTabbedTaskViewComponent&#45;&gt;NavigationComponentModule</title>
<path fill="none" stroke="black" d="M1002.86,-84.92C1002.86,-99.58 1002.86,-117.8 1002.86,-117.8 1002.86,-117.8 872.77,-117.8 872.77,-117.8"/>
<polygon fill="black" stroke="black" points="872.77,-114.3 862.77,-117.8 872.77,-121.3 872.77,-114.3"/>
</g>
<!-- GroupNavigationComponentResolverComponent -->
<g id="node5" class="node">
<title>GroupNavigationComponentResolverComponent</title>
<polygon fill="#ffffb3" stroke="black" points="910.41,-84.8 615.59,-84.8 615.59,-48.8 910.41,-48.8 910.41,-84.8"/>
<text text-anchor="middle" x="763" y="-62.6" font-family="Times,serif" font-size="14.00">GroupNavigationComponentResolverComponent</text>
</g>
<!-- GroupNavigationComponentResolverComponent&#45;&gt;NavigationComponentModule -->
<g id="edge5" class="edge">
<title>GroupNavigationComponentResolverComponent&#45;&gt;NavigationComponentModule</title>
<path fill="none" stroke="black" d="M769,-84.91C769,-84.91 769,-103.79 769,-103.79"/>
<polygon fill="black" stroke="black" points="765.5,-103.79 769,-113.79 772.5,-103.79 765.5,-103.79"/>
</g>
<!-- NavigationDrawerComponent -->
<g id="node6" class="node">
<title>NavigationDrawerComponent</title>
<polygon fill="#ffffb3" stroke="black" points="597.51,-84.8 412.49,-84.8 412.49,-48.8 597.51,-48.8 597.51,-84.8"/>
<text text-anchor="middle" x="505" y="-62.6" font-family="Times,serif" font-size="14.00">NavigationDrawerComponent</text>
</g>
<!-- NavigationDrawerComponent&#45;&gt;NavigationComponentModule -->
<g id="edge6" class="edge">
<title>NavigationDrawerComponent&#45;&gt;NavigationComponentModule</title>
<path fill="none" stroke="black" d="M532.42,-85.04C532.42,-100.37 532.42,-119.8 532.42,-119.8 532.42,-119.8 665.16,-119.8 665.16,-119.8"/>
<polygon fill="black" stroke="black" points="665.16,-123.3 675.16,-119.8 665.16,-116.3 665.16,-123.3"/>
</g>
<!-- NavigationRailComponent -->
<g id="node7" class="node">
<title>NavigationRailComponent</title>
<polygon fill="#ffffb3" stroke="black" points="394.37,-84.8 227.63,-84.8 227.63,-48.8 394.37,-48.8 394.37,-84.8"/>
<text text-anchor="middle" x="311" y="-62.6" font-family="Times,serif" font-size="14.00">NavigationRailComponent</text>
</g>
<!-- NavigationRailComponent&#45;&gt;NavigationComponentModule -->
<g id="edge7" class="edge">
<title>NavigationRailComponent&#45;&gt;NavigationComponentModule</title>
<path fill="none" stroke="black" d="M389.81,-84.83C389.81,-101.86 389.81,-124.8 389.81,-124.8 389.81,-124.8 665.27,-124.8 665.27,-124.8"/>
<polygon fill="black" stroke="black" points="665.27,-128.3 675.27,-124.8 665.27,-121.3 665.27,-128.3"/>
</g>
<!-- NavigationTreeComponent -->
<g id="node8" class="node">
<title>NavigationTreeComponent</title>
<polygon fill="#ffffb3" stroke="black" points="209.68,-84.8 40.32,-84.8 40.32,-48.8 209.68,-48.8 209.68,-84.8"/>
<text text-anchor="middle" x="125" y="-62.6" font-family="Times,serif" font-size="14.00">NavigationTreeComponent</text>
</g>
<!-- NavigationTreeComponent&#45;&gt;NavigationComponentModule -->
<g id="edge8" class="edge">
<title>NavigationTreeComponent&#45;&gt;NavigationComponentModule</title>
<path fill="none" stroke="black" d="M202.96,-85.02C202.96,-103.63 202.96,-129.8 202.96,-129.8 202.96,-129.8 665.21,-129.8 665.21,-129.8"/>
<polygon fill="black" stroke="black" points="665.21,-133.3 675.21,-129.8 665.21,-126.3 665.21,-133.3"/>
</g>
<!-- DefaultSimpleTaskViewComponent  -->
<g id="node10" class="node">
<title>DefaultSimpleTaskViewComponent </title>
<polygon fill="#fb8072" stroke="black" points="1835.02,-214.8 1610.98,-214.8 1610.98,-178.8 1835.02,-178.8 1835.02,-214.8"/>
<text text-anchor="middle" x="1723" y="-192.6" font-family="Times,serif" font-size="14.00">DefaultSimpleTaskViewComponent </text>
</g>
<!-- NavigationComponentModule&#45;&gt;DefaultSimpleTaskViewComponent  -->
<g id="edge9" class="edge">
<title>NavigationComponentModule&#45;&gt;DefaultSimpleTaskViewComponent </title>
<path fill="none" stroke="black" stroke-dasharray="5,2" d="M862.55,-133.8C1101.88,-133.8 1717.62,-133.8 1717.62,-133.8 1717.62,-133.8 1717.62,-168.58 1717.62,-168.58"/>
<polygon fill="black" stroke="black" points="1714.13,-168.58 1717.62,-178.58 1721.13,-168.58 1714.13,-168.58"/>
</g>
<!-- DefaultTabViewComponent  -->
<g id="node11" class="node">
<title>DefaultTabViewComponent </title>
<polygon fill="#fb8072" stroke="black" points="1593.4,-214.8 1414.6,-214.8 1414.6,-178.8 1593.4,-178.8 1593.4,-214.8"/>
<text text-anchor="middle" x="1504" y="-192.6" font-family="Times,serif" font-size="14.00">DefaultTabViewComponent </text>
</g>
<!-- NavigationComponentModule&#45;&gt;DefaultTabViewComponent  -->
<g id="edge10" class="edge">
<title>NavigationComponentModule&#45;&gt;DefaultTabViewComponent </title>
<path fill="none" stroke="black" stroke-dasharray="5,2" d="M862.66,-137.8C1053.95,-137.8 1471.6,-137.8 1471.6,-137.8 1471.6,-137.8 1471.6,-168.78 1471.6,-168.78"/>
<polygon fill="black" stroke="black" points="1468.1,-168.78 1471.6,-178.78 1475.1,-168.78 1468.1,-168.78"/>
</g>
<!-- DefaultTabbedCaseViewComponent  -->
<g id="node12" class="node">
<title>DefaultTabbedCaseViewComponent </title>
<polygon fill="#fb8072" stroke="black" points="1396.33,-214.8 1169.67,-214.8 1169.67,-178.8 1396.33,-178.8 1396.33,-214.8"/>
<text text-anchor="middle" x="1283" y="-192.6" font-family="Times,serif" font-size="14.00">DefaultTabbedCaseViewComponent </text>
</g>
<!-- NavigationComponentModule&#45;&gt;DefaultTabbedCaseViewComponent  -->
<g id="edge11" class="edge">
<title>NavigationComponentModule&#45;&gt;DefaultTabbedCaseViewComponent </title>
<path fill="none" stroke="black" stroke-dasharray="5,2" d="M862.57,-141.8C1000.96,-141.8 1244.03,-141.8 1244.03,-141.8 1244.03,-141.8 1244.03,-168.79 1244.03,-168.79"/>
<polygon fill="black" stroke="black" points="1240.53,-168.79 1244.03,-178.79 1247.53,-168.79 1240.53,-168.79"/>
</g>
<!-- DefaultTabbedTaskViewComponent  -->
<g id="node13" class="node">
<title>DefaultTabbedTaskViewComponent </title>
<polygon fill="#fb8072" stroke="black" points="1152.33,-214.8 925.67,-214.8 925.67,-178.8 1152.33,-178.8 1152.33,-214.8"/>
<text text-anchor="middle" x="1039" y="-192.6" font-family="Times,serif" font-size="14.00">DefaultTabbedTaskViewComponent </text>
</g>
<!-- NavigationComponentModule&#45;&gt;DefaultTabbedTaskViewComponent  -->
<g id="edge12" class="edge">
<title>NavigationComponentModule&#45;&gt;DefaultTabbedTaskViewComponent </title>
<path fill="none" stroke="black" stroke-dasharray="5,2" d="M862.71,-145.8C953.36,-145.8 1077.14,-145.8 1077.14,-145.8 1077.14,-145.8 1077.14,-168.68 1077.14,-168.68"/>
<polygon fill="black" stroke="black" points="1073.64,-168.68 1077.14,-178.68 1080.64,-168.68 1073.64,-168.68"/>
</g>
<!-- GroupNavigationComponentResolverComponent  -->
<g id="node14" class="node">
<title>GroupNavigationComponentResolverComponent </title>
<polygon fill="#fb8072" stroke="black" points="907.91,-214.8 610.09,-214.8 610.09,-178.8 907.91,-178.8 907.91,-214.8"/>
<text text-anchor="middle" x="759" y="-192.6" font-family="Times,serif" font-size="14.00">GroupNavigationComponentResolverComponent </text>
</g>
<!-- NavigationComponentModule&#45;&gt;GroupNavigationComponentResolverComponent  -->
<g id="edge13" class="edge">
<title>NavigationComponentModule&#45;&gt;GroupNavigationComponentResolverComponent </title>
<path fill="none" stroke="black" stroke-dasharray="5,2" d="M769,-149.91C769,-149.91 769,-168.79 769,-168.79"/>
<polygon fill="black" stroke="black" points="765.5,-168.79 769,-178.79 772.5,-168.79 765.5,-168.79"/>
</g>
<!-- NavigationDrawerComponent  -->
<g id="node15" class="node">
<title>NavigationDrawerComponent </title>
<polygon fill="#fb8072" stroke="black" points="592.51,-214.8 403.49,-214.8 403.49,-178.8 592.51,-178.8 592.51,-214.8"/>
<text text-anchor="middle" x="498" y="-192.6" font-family="Times,serif" font-size="14.00">NavigationDrawerComponent </text>
</g>
<!-- NavigationComponentModule&#45;&gt;NavigationDrawerComponent  -->
<g id="edge14" class="edge">
<title>NavigationComponentModule&#45;&gt;NavigationDrawerComponent </title>
<path fill="none" stroke="black" stroke-dasharray="5,2" d="M675.13,-144.8C588.22,-144.8 472.33,-144.8 472.33,-144.8 472.33,-144.8 472.33,-168.61 472.33,-168.61"/>
<polygon fill="black" stroke="black" points="468.83,-168.61 472.33,-178.61 475.83,-168.61 468.83,-168.61"/>
</g>
<!-- NavigationRailComponent  -->
<g id="node16" class="node">
<title>NavigationRailComponent </title>
<polygon fill="#fb8072" stroke="black" points="385.37,-214.8 214.63,-214.8 214.63,-178.8 385.37,-178.8 385.37,-214.8"/>
<text text-anchor="middle" x="300" y="-192.6" font-family="Times,serif" font-size="14.00">NavigationRailComponent </text>
</g>
<!-- NavigationComponentModule&#45;&gt;NavigationRailComponent  -->
<g id="edge15" class="edge">
<title>NavigationComponentModule&#45;&gt;NavigationRailComponent </title>
<path fill="none" stroke="black" stroke-dasharray="5,2" d="M675.38,-139.8C540.2,-139.8 306.38,-139.8 306.38,-139.8 306.38,-139.8 306.38,-168.76 306.38,-168.76"/>
<polygon fill="black" stroke="black" points="302.88,-168.76 306.38,-178.76 309.88,-168.76 302.88,-168.76"/>
</g>
<!-- NavigationTreeComponent  -->
<g id="node17" class="node">
<title>NavigationTreeComponent </title>
<polygon fill="#fb8072" stroke="black" points="196.18,-214.8 23.82,-214.8 23.82,-178.8 196.18,-178.8 196.18,-214.8"/>
<text text-anchor="middle" x="110" y="-192.6" font-family="Times,serif" font-size="14.00">NavigationTreeComponent </text>
</g>
<!-- NavigationComponentModule&#45;&gt;NavigationTreeComponent  -->
<g id="edge16" class="edge">
<title>NavigationComponentModule&#45;&gt;NavigationTreeComponent </title>
<path fill="none" stroke="black" stroke-dasharray="5,2" d="M675.44,-134.8C495.39,-134.8 118.38,-134.8 118.38,-134.8 118.38,-134.8 118.38,-168.53 118.38,-168.53"/>
<polygon fill="black" stroke="black" points="114.88,-168.53 118.38,-178.53 121.88,-168.53 114.88,-168.53"/>
</g>
</g>
</svg>
