<?xml version="1.0" encoding="UTF-8" standalone="no"?>
<!DOCTYPE svg PUBLIC "-//W3C//DTD SVG 1.1//EN"
 "http://www.w3.org/Graphics/SVG/1.1/DTD/svg11.dtd">
<!-- Generated by graphviz version 5.0.0 (20220707.1540)
 -->
<!-- Title: dependencies Pages: 1 -->
<svg width="2294pt" height="247pt"
 viewBox="0.00 0.00 2294.00 246.80" xmlns="http://www.w3.org/2000/svg" xmlns:xlink="http://www.w3.org/1999/xlink">
<g id="graph0" class="graph" transform="scale(1 1) rotate(0) translate(4 242.8)">
<title>dependencies</title>
<polygon fill="white" stroke="transparent" points="-4,4 -4,-242.8 2290,-242.8 2290,4 -4,4"/>
<text text-anchor="middle" x="1143" y="-8.2" font-family="sans-serif" font-size="14.00">dependencies</text>
<g id="clust1" class="cluster">
<title>cluster_NavigationComponentModule</title>
<polygon fill="none" stroke="black" stroke-dasharray="1,5" points="8,-32.8 8,-230.8 2278,-230.8 2278,-32.8 8,-32.8"/>
</g>
<g id="clust14" class="cluster">
<title>cluster_NavigationComponentModule_exports</title>
<polygon fill="none" stroke="black" points="16,-170.8 16,-222.8 2270,-222.8 2270,-170.8 16,-170.8"/>
</g>
<g id="clust2" class="cluster">
<title>cluster_NavigationComponentModule_declarations</title>
<polygon fill="none" stroke="black" points="37,-40.8 37,-92.8 2256,-92.8 2256,-40.8 37,-40.8"/>
</g>
<!-- BreadcrumbsComponent -->
<g id="node1" class="node">
<title>BreadcrumbsComponent</title>
<polygon fill="#ffffb3" stroke="black" points="2247.97,-84.8 2092.03,-84.8 2092.03,-48.8 2247.97,-48.8 2247.97,-84.8"/>
<text text-anchor="middle" x="2170" y="-62.6" font-family="Times,serif" font-size="14.00">BreadcrumbsComponent</text>
</g>
<!-- NavigationComponentModule -->
<g id="node11" class="node">
<title>NavigationComponentModule</title>
<polygon fill="#8dd3c7" stroke="black" points="1114.59,-149.8 1111.59,-153.8 1090.59,-153.8 1087.59,-149.8 927.41,-149.8 927.41,-113.8 1114.59,-113.8 1114.59,-149.8"/>
<text text-anchor="middle" x="1021" y="-127.6" font-family="Times,serif" font-size="14.00">NavigationComponentModule</text>
</g>
<!-- BreadcrumbsComponent&#45;&gt;NavigationComponentModule -->
<g id="edge1" class="edge">
<title>BreadcrumbsComponent&#45;&gt;NavigationComponentModule</title>
<path fill="none" stroke="black" d="M2097.14,-84.97C2097.14,-103.89 2097.14,-130.8 2097.14,-130.8 2097.14,-130.8 1124.62,-130.8 1124.62,-130.8"/>
<polygon fill="black" stroke="black" points="1124.62,-127.3 1114.62,-130.8 1124.62,-134.3 1124.62,-127.3"/>
</g>
<!-- DefaultSimpleTaskViewComponent -->
<g id="node2" class="node">
<title>DefaultSimpleTaskViewComponent</title>
<polygon fill="#ffffb3" stroke="black" points="2074.02,-84.8 1853.98,-84.8 1853.98,-48.8 2074.02,-48.8 2074.02,-84.8"/>
<text text-anchor="middle" x="1964" y="-62.6" font-family="Times,serif" font-size="14.00">DefaultSimpleTaskViewComponent</text>
</g>
<!-- DefaultSimpleTaskViewComponent&#45;&gt;NavigationComponentModule -->
<g id="edge2" class="edge">
<title>DefaultSimpleTaskViewComponent&#45;&gt;NavigationComponentModule</title>
<path fill="none" stroke="black" d="M2002.84,-85.1C2002.84,-103.07 2002.84,-127.8 2002.84,-127.8 2002.84,-127.8 1124.7,-127.8 1124.7,-127.8"/>
<polygon fill="black" stroke="black" points="1124.7,-124.3 1114.7,-127.8 1124.7,-131.3 1124.7,-124.3"/>
</g>
<!-- DefaultTabViewComponent -->
<g id="node3" class="node">
<title>DefaultTabViewComponent</title>
<polygon fill="#ffffb3" stroke="black" points="1835.9,-84.8 1660.1,-84.8 1660.1,-48.8 1835.9,-48.8 1835.9,-84.8"/>
<text text-anchor="middle" x="1748" y="-62.6" font-family="Times,serif" font-size="14.00">DefaultTabViewComponent</text>
</g>
<!-- DefaultTabViewComponent&#45;&gt;NavigationComponentModule -->
<g id="edge3" class="edge">
<title>DefaultTabViewComponent&#45;&gt;NavigationComponentModule</title>
<path fill="none" stroke="black" d="M1778.32,-84.84C1778.32,-101.53 1778.32,-123.8 1778.32,-123.8 1778.32,-123.8 1124.62,-123.8 1124.62,-123.8"/>
<polygon fill="black" stroke="black" points="1124.62,-120.3 1114.62,-123.8 1124.62,-127.3 1124.62,-120.3"/>
</g>
<!-- DefaultTabbedCaseViewComponent -->
<g id="node4" class="node">
<title>DefaultTabbedCaseViewComponent</title>
<polygon fill="#ffffb3" stroke="black" points="1642.33,-84.8 1419.67,-84.8 1419.67,-48.8 1642.33,-48.8 1642.33,-84.8"/>
<text text-anchor="middle" x="1531" y="-62.6" font-family="Times,serif" font-size="14.00">DefaultTabbedCaseViewComponent</text>
</g>
<!-- DefaultTabbedCaseViewComponent&#45;&gt;NavigationComponentModule -->
<g id="edge4" class="edge">
<title>DefaultTabbedCaseViewComponent&#45;&gt;NavigationComponentModule</title>
<path fill="none" stroke="black" d="M1568.14,-85.08C1568.14,-100.75 1568.14,-120.8 1568.14,-120.8 1568.14,-120.8 1124.75,-120.8 1124.75,-120.8"/>
<polygon fill="black" stroke="black" points="1124.75,-117.3 1114.75,-120.8 1124.75,-124.3 1124.75,-117.3"/>
</g>
<!-- DefaultTabbedTaskViewComponent -->
<g id="node5" class="node">
<title>DefaultTabbedTaskViewComponent</title>
<polygon fill="#ffffb3" stroke="black" points="1401.33,-84.8 1178.67,-84.8 1178.67,-48.8 1401.33,-48.8 1401.33,-84.8"/>
<text text-anchor="middle" x="1290" y="-62.6" font-family="Times,serif" font-size="14.00">DefaultTabbedTaskViewComponent</text>
</g>
<!-- DefaultTabbedTaskViewComponent&#45;&gt;NavigationComponentModule -->
<g id="edge5" class="edge">
<title>DefaultTabbedTaskViewComponent&#45;&gt;NavigationComponentModule</title>
<path fill="none" stroke="black" d="M1252.78,-84.92C1252.78,-99.58 1252.78,-117.8 1252.78,-117.8 1252.78,-117.8 1124.61,-117.8 1124.61,-117.8"/>
<polygon fill="black" stroke="black" points="1124.61,-114.3 1114.61,-117.8 1124.61,-121.3 1124.61,-114.3"/>
</g>
<!-- GroupNavigationComponentResolverComponent -->
<g id="node6" class="node">
<title>GroupNavigationComponentResolverComponent</title>
<polygon fill="#ffffb3" stroke="black" points="1160.41,-84.8 865.59,-84.8 865.59,-48.8 1160.41,-48.8 1160.41,-84.8"/>
<text text-anchor="middle" x="1013" y="-62.6" font-family="Times,serif" font-size="14.00">GroupNavigationComponentResolverComponent</text>
</g>
<!-- GroupNavigationComponentResolverComponent&#45;&gt;NavigationComponentModule -->
<g id="edge6" class="edge">
<title>GroupNavigationComponentResolverComponent&#45;&gt;NavigationComponentModule</title>
<path fill="none" stroke="black" d="M1021,-84.91C1021,-84.91 1021,-103.79 1021,-103.79"/>
<polygon fill="black" stroke="black" points="1017.5,-103.79 1021,-113.79 1024.5,-103.79 1017.5,-103.79"/>
</g>
<!-- NavigationDoubleDrawerComponent -->
<g id="node7" class="node">
<title>NavigationDoubleDrawerComponent</title>
<polygon fill="#ffffb3" stroke="black" points="847.22,-84.8 620.78,-84.8 620.78,-48.8 847.22,-48.8 847.22,-84.8"/>
<text text-anchor="middle" x="734" y="-62.6" font-family="Times,serif" font-size="14.00">NavigationDoubleDrawerComponent</text>
</g>
<!-- NavigationDoubleDrawerComponent&#45;&gt;NavigationComponentModule -->
<g id="edge7" class="edge">
<title>NavigationDoubleDrawerComponent&#45;&gt;NavigationComponentModule</title>
<path fill="none" stroke="black" d="M767.62,-84.92C767.62,-99.58 767.62,-117.8 767.62,-117.8 767.62,-117.8 917.37,-117.8 917.37,-117.8"/>
<polygon fill="black" stroke="black" points="917.37,-121.3 927.37,-117.8 917.37,-114.3 917.37,-121.3"/>
</g>
<!-- NavigationDrawerComponent -->
<g id="node8" class="node">
<title>NavigationDrawerComponent</title>
<polygon fill="#ffffb3" stroke="black" points="602.51,-84.8 417.49,-84.8 417.49,-48.8 602.51,-48.8 602.51,-84.8"/>
<text text-anchor="middle" x="510" y="-62.6" font-family="Times,serif" font-size="14.00">NavigationDrawerComponent</text>
</g>
<!-- NavigationDrawerComponent&#45;&gt;NavigationComponentModule -->
<g id="edge8" class="edge">
<title>NavigationDrawerComponent&#45;&gt;NavigationComponentModule</title>
<path fill="none" stroke="black" d="M597.63,-84.81C597.63,-100.85 597.63,-121.8 597.63,-121.8 597.63,-121.8 917.3,-121.8 917.3,-121.8"/>
<polygon fill="black" stroke="black" points="917.3,-125.3 927.3,-121.8 917.3,-118.3 917.3,-125.3"/>
</g>
<!-- NavigationRailComponent -->
<g id="node9" class="node">
<title>NavigationRailComponent</title>
<polygon fill="#ffffb3" stroke="black" points="399.37,-84.8 232.63,-84.8 232.63,-48.8 399.37,-48.8 399.37,-84.8"/>
<text text-anchor="middle" x="316" y="-62.6" font-family="Times,serif" font-size="14.00">NavigationRailComponent</text>
</g>
<!-- NavigationRailComponent&#45;&gt;NavigationComponentModule -->
<g id="edge9" class="edge">
<title>NavigationRailComponent&#45;&gt;NavigationComponentModule</title>
<path fill="none" stroke="black" d="M392.31,-84.82C392.31,-102.17 392.31,-125.8 392.31,-125.8 392.31,-125.8 917.22,-125.8 917.22,-125.8"/>
<polygon fill="black" stroke="black" points="917.22,-129.3 927.22,-125.8 917.22,-122.3 917.22,-129.3"/>
</g>
<!-- NavigationTreeComponent -->
<g id="node10" class="node">
<title>NavigationTreeComponent</title>
<polygon fill="#ffffb3" stroke="black" points="214.68,-84.8 45.32,-84.8 45.32,-48.8 214.68,-48.8 214.68,-84.8"/>
<text text-anchor="middle" x="130" y="-62.6" font-family="Times,serif" font-size="14.00">NavigationTreeComponent</text>
</g>
<!-- NavigationTreeComponent&#45;&gt;NavigationComponentModule -->
<g id="edge10" class="edge">
<title>NavigationTreeComponent&#45;&gt;NavigationComponentModule</title>
<path fill="none" stroke="black" d="M205.46,-85.02C205.46,-103.63 205.46,-129.8 205.46,-129.8 205.46,-129.8 917.45,-129.8 917.45,-129.8"/>
<polygon fill="black" stroke="black" points="917.45,-133.3 927.45,-129.8 917.45,-126.3 917.45,-133.3"/>
</g>
<!-- BreadcrumbsComponent  -->
<g id="node12" class="node">
<title>BreadcrumbsComponent </title>
<polygon fill="#fb8072" stroke="black" points="2261.97,-214.8 2102.03,-214.8 2102.03,-178.8 2261.97,-178.8 2261.97,-214.8"/>
<text text-anchor="middle" x="2182" y="-192.6" font-family="Times,serif" font-size="14.00">BreadcrumbsComponent </text>
</g>
<!-- NavigationComponentModule&#45;&gt;BreadcrumbsComponent  -->
<g id="edge11" class="edge">
<title>NavigationComponentModule&#45;&gt;BreadcrumbsComponent </title>
<path fill="none" stroke="black" stroke-dasharray="5,2" d="M1114.96,-133.8C1390.16,-133.8 2175.12,-133.8 2175.12,-133.8 2175.12,-133.8 2175.12,-168.58 2175.12,-168.58"/>
<polygon fill="black" stroke="black" points="2171.63,-168.58 2175.12,-178.58 2178.63,-168.58 2171.63,-168.58"/>
</g>
<!-- DefaultSimpleTaskViewComponent  -->
<g id="node13" class="node">
<title>DefaultSimpleTaskViewComponent </title>
<polygon fill="#fb8072" stroke="black" points="2084.02,-214.8 1859.98,-214.8 1859.98,-178.8 2084.02,-178.8 2084.02,-214.8"/>
<text text-anchor="middle" x="1972" y="-192.6" font-family="Times,serif" font-size="14.00">DefaultSimpleTaskViewComponent </text>
</g>
<!-- NavigationComponentModule&#45;&gt;DefaultSimpleTaskViewComponent  -->
<g id="edge12" class="edge">
<title>NavigationComponentModule&#45;&gt;DefaultSimpleTaskViewComponent </title>
<path fill="none" stroke="black" stroke-dasharray="5,2" d="M1114.58,-136.8C1346.9,-136.8 1931.41,-136.8 1931.41,-136.8 1931.41,-136.8 1931.41,-168.8 1931.41,-168.8"/>
<polygon fill="black" stroke="black" points="1927.91,-168.8 1931.41,-178.8 1934.91,-168.8 1927.91,-168.8"/>
</g>
<!-- DefaultTabViewComponent  -->
<g id="node14" class="node">
<title>DefaultTabViewComponent </title>
<polygon fill="#fb8072" stroke="black" points="1842.4,-214.8 1663.6,-214.8 1663.6,-178.8 1842.4,-178.8 1842.4,-214.8"/>
<text text-anchor="middle" x="1753" y="-192.6" font-family="Times,serif" font-size="14.00">DefaultTabViewComponent </text>
</g>
<!-- NavigationComponentModule&#45;&gt;DefaultTabViewComponent  -->
<g id="edge13" class="edge">
<title>NavigationComponentModule&#45;&gt;DefaultTabViewComponent </title>
<path fill="none" stroke="black" stroke-dasharray="5,2" d="M1114.67,-140.8C1305.4,-140.8 1720.93,-140.8 1720.93,-140.8 1720.93,-140.8 1720.93,-168.77 1720.93,-168.77"/>
<polygon fill="black" stroke="black" points="1717.43,-168.77 1720.93,-178.77 1724.43,-168.77 1717.43,-168.77"/>
</g>
<!-- DefaultTabbedCaseViewComponent  -->
<g id="node15" class="node">
<title>DefaultTabbedCaseViewComponent </title>
<polygon fill="#fb8072" stroke="black" points="1645.33,-214.8 1418.67,-214.8 1418.67,-178.8 1645.33,-178.8 1645.33,-214.8"/>
<text text-anchor="middle" x="1532" y="-192.6" font-family="Times,serif" font-size="14.00">DefaultTabbedCaseViewComponent </text>
</g>
<!-- NavigationComponentModule&#45;&gt;DefaultTabbedCaseViewComponent  -->
<g id="edge14" class="edge">
<title>NavigationComponentModule&#45;&gt;DefaultTabbedCaseViewComponent </title>
<path fill="none" stroke="black" stroke-dasharray="5,2" d="M1114.7,-143.8C1252.56,-143.8 1493.86,-143.8 1493.86,-143.8 1493.86,-143.8 1493.86,-168.56 1493.86,-168.56"/>
<polygon fill="black" stroke="black" points="1490.36,-168.56 1493.86,-178.56 1497.36,-168.56 1490.36,-168.56"/>
</g>
<!-- DefaultTabbedTaskViewComponent  -->
<g id="node16" class="node">
<title>DefaultTabbedTaskViewComponent </title>
<polygon fill="#fb8072" stroke="black" points="1401.33,-214.8 1174.67,-214.8 1174.67,-178.8 1401.33,-178.8 1401.33,-214.8"/>
<text text-anchor="middle" x="1288" y="-192.6" font-family="Times,serif" font-size="14.00">DefaultTabbedTaskViewComponent </text>
</g>
<!-- NavigationComponentModule&#45;&gt;DefaultTabbedTaskViewComponent  -->
<g id="edge15" class="edge">
<title>NavigationComponentModule&#45;&gt;DefaultTabbedTaskViewComponent </title>
<path fill="none" stroke="black" stroke-dasharray="5,2" d="M1114.88,-146.8C1204.82,-146.8 1326.97,-146.8 1326.97,-146.8 1326.97,-146.8 1326.97,-168.75 1326.97,-168.75"/>
<polygon fill="black" stroke="black" points="1323.47,-168.75 1326.97,-178.75 1330.47,-168.75 1323.47,-168.75"/>
</g>
<!-- GroupNavigationComponentResolverComponent  -->
<g id="node17" class="node">
<title>GroupNavigationComponentResolverComponent </title>
<polygon fill="#fb8072" stroke="black" points="1156.91,-214.8 859.09,-214.8 859.09,-178.8 1156.91,-178.8 1156.91,-214.8"/>
<text text-anchor="middle" x="1008" y="-192.6" font-family="Times,serif" font-size="14.00">GroupNavigationComponentResolverComponent </text>
</g>
<!-- NavigationComponentModule&#45;&gt;GroupNavigationComponentResolverComponent  -->
<g id="edge16" class="edge">
<title>NavigationComponentModule&#45;&gt;GroupNavigationComponentResolverComponent </title>
<path fill="none" stroke="black" stroke-dasharray="5,2" d="M1021,-149.91C1021,-149.91 1021,-168.79 1021,-168.79"/>
<polygon fill="black" stroke="black" points="1017.5,-168.79 1021,-178.79 1024.5,-168.79 1017.5,-168.79"/>
</g>
<!-- NavigationDoubleDrawerComponent  -->
<g id="node18" class="node">
<title>NavigationDoubleDrawerComponent </title>
<polygon fill="#fb8072" stroke="black" points="841.22,-214.8 610.78,-214.8 610.78,-178.8 841.22,-178.8 841.22,-214.8"/>
<text text-anchor="middle" x="726" y="-192.6" font-family="Times,serif" font-size="14.00">NavigationDoubleDrawerComponent </text>
</g>
<!-- NavigationComponentModule&#45;&gt;NavigationDoubleDrawerComponent  -->
<g id="edge17" class="edge">
<title>NavigationComponentModule&#45;&gt;NavigationDoubleDrawerComponent </title>
<path fill="none" stroke="black" stroke-dasharray="5,2" d="M927.33,-145.8C830.74,-145.8 694.13,-145.8 694.13,-145.8 694.13,-145.8 694.13,-168.68 694.13,-168.68"/>
<polygon fill="black" stroke="black" points="690.63,-168.68 694.13,-178.68 697.63,-168.68 690.63,-168.68"/>
</g>
<!-- NavigationDrawerComponent  -->
<g id="node19" class="node">
<title>NavigationDrawerComponent </title>
<polygon fill="#fb8072" stroke="black" points="592.51,-214.8 403.49,-214.8 403.49,-178.8 592.51,-178.8 592.51,-214.8"/>
<text text-anchor="middle" x="498" y="-192.6" font-family="Times,serif" font-size="14.00">NavigationDrawerComponent </text>
</g>
<!-- NavigationComponentModule&#45;&gt;NavigationDrawerComponent  -->
<g id="edge18" class="edge">
<title>NavigationComponentModule&#45;&gt;NavigationDrawerComponent </title>
<path fill="none" stroke="black" stroke-dasharray="5,2" d="M927.23,-141.8C778.43,-141.8 504.88,-141.8 504.88,-141.8 504.88,-141.8 504.88,-168.79 504.88,-168.79"/>
<polygon fill="black" stroke="black" points="501.38,-168.79 504.88,-178.79 508.38,-168.79 501.38,-168.79"/>
</g>
<!-- NavigationRailComponent  -->
<g id="node20" class="node">
<title>NavigationRailComponent </title>
<polygon fill="#fb8072" stroke="black" points="385.37,-214.8 214.63,-214.8 214.63,-178.8 385.37,-178.8 385.37,-214.8"/>
<text text-anchor="middle" x="300" y="-192.6" font-family="Times,serif" font-size="14.00">NavigationRailComponent </text>
</g>
<!-- NavigationComponentModule&#45;&gt;NavigationRailComponent  -->
<g id="edge19" class="edge">
<title>NavigationComponentModule&#45;&gt;NavigationRailComponent </title>
<path fill="none" stroke="black" stroke-dasharray="5,2" d="M927.17,-137.8C733.8,-137.8 308.88,-137.8 308.88,-137.8 308.88,-137.8 308.88,-168.78 308.88,-168.78"/>
<polygon fill="black" stroke="black" points="305.38,-168.78 308.88,-178.78 312.38,-168.78 305.38,-168.78"/>
</g>
<!-- NavigationTreeComponent  -->
<g id="node21" class="node">
<title>NavigationTreeComponent </title>
<polygon fill="#fb8072" stroke="black" points="196.18,-214.8 23.82,-214.8 23.82,-178.8 196.18,-178.8 196.18,-214.8"/>
<text text-anchor="middle" x="110" y="-192.6" font-family="Times,serif" font-size="14.00">NavigationTreeComponent </text>
</g>
<!-- NavigationComponentModule&#45;&gt;NavigationTreeComponent  -->
<g id="edge20" class="edge">
<title>NavigationComponentModule&#45;&gt;NavigationTreeComponent </title>
<path fill="none" stroke="black" stroke-dasharray="5,2" d="M927.22,-133.8C696.67,-133.8 120.88,-133.8 120.88,-133.8 120.88,-133.8 120.88,-168.58 120.88,-168.58"/>
<polygon fill="black" stroke="black" points="117.38,-168.58 120.88,-178.58 124.38,-168.58 117.38,-168.58"/>
</g>
</g>
</svg>
