<?xml version="1.0" encoding="UTF-8" standalone="no"?>
<!DOCTYPE svg PUBLIC "-//W3C//DTD SVG 1.1//EN"
 "http://www.w3.org/Graphics/SVG/1.1/DTD/svg11.dtd">
<!-- Generated by graphviz version 2.47.0 (20210316.0004)
 -->
<!-- Title: dependencies Pages: 1 -->
<svg width="2938pt" height="284pt"
 viewBox="0.00 0.00 2938.00 284.00" xmlns="http://www.w3.org/2000/svg" xmlns:xlink="http://www.w3.org/1999/xlink">
<g id="graph0" class="graph" transform="scale(1 1) rotate(0) translate(4 280)">
<title>dependencies</title>
<polygon fill="white" stroke="transparent" points="-4,4 -4,-280 2934,-280 2934,4 -4,4"/>
<text text-anchor="start" x="1444.01" y="-42.4" font-family="Times-12" font-weight="bold" font-size="14.00">Legend</text>
<polygon fill="#ffffb3" stroke="transparent" points="1231,-10 1231,-30 1251,-30 1251,-10 1231,-10"/>
<text text-anchor="start" x="1254.63" y="-15.4" font-family="Times-12" font-size="14.00"> &#160;Declarations</text>
<polygon fill="#8dd3c7" stroke="transparent" points="1344,-10 1344,-30 1364,-30 1364,-10 1344,-10"/>
<text text-anchor="start" x="1367.73" y="-15.4" font-family="Times-12" font-size="14.00"> &#160;Module</text>
<polygon fill="#80b1d3" stroke="transparent" points="1430,-10 1430,-30 1450,-30 1450,-10 1430,-10"/>
<text text-anchor="start" x="1453.78" y="-15.4" font-family="Times-12" font-size="14.00"> &#160;Bootstrap</text>
<polygon fill="#fdb462" stroke="transparent" points="1527,-10 1527,-30 1547,-30 1547,-10 1527,-10"/>
<text text-anchor="start" x="1550.67" y="-15.4" font-family="Times-12" font-size="14.00"> &#160;Providers</text>
<polygon fill="#fb8072" stroke="transparent" points="1623,-10 1623,-30 1643,-30 1643,-10 1623,-10"/>
<text text-anchor="start" x="1646.73" y="-15.4" font-family="Times-12" font-size="14.00"> &#160;Exports</text>
<g id="clust1" class="cluster">
<title>cluster_NavigationComponentModule</title>
<polygon fill="none" stroke="black" stroke-dasharray="1,5" points="8,-70 8,-268 2922,-268 2922,-70 8,-70"/>
</g>
<g id="clust2" class="cluster">
<title>cluster_NavigationComponentModule_declarations</title>
<polygon fill="none" stroke="black" points="16,-78 16,-130 2914,-130 2914,-78 16,-78"/>
</g>
<g id="clust17" class="cluster">
<title>cluster_NavigationComponentModule_exports</title>
<polygon fill="none" stroke="black" points="428,-208 428,-260 2682,-260 2682,-208 428,-208"/>
</g>
<!-- BreadcrumbsComponent -->
<g id="node1" class="node">
<title>BreadcrumbsComponent</title>
<polygon fill="#ffffb3" stroke="black" points="2905.97,-122 2750.03,-122 2750.03,-86 2905.97,-86 2905.97,-122"/>
<text text-anchor="middle" x="2828" y="-99.8" font-family="Times,serif" font-size="14.00">BreadcrumbsComponent</text>
</g>
<!-- NavigationComponentModule -->
<g id="node14" class="node">
<title>NavigationComponentModule</title>
<polygon fill="#8dd3c7" stroke="black" points="1653.59,-187 1650.59,-191 1629.59,-191 1626.59,-187 1466.41,-187 1466.41,-151 1653.59,-151 1653.59,-187"/>
<text text-anchor="middle" x="1560" y="-164.8" font-family="Times,serif" font-size="14.00">NavigationComponentModule</text>
</g>
<!-- BreadcrumbsComponent&#45;&gt;NavigationComponentModule -->
<g id="edge1" class="edge">
<title>BreadcrumbsComponent&#45;&gt;NavigationComponentModule</title>
<path fill="none" stroke="black" d="M2853.99,-122.31C2853.99,-142.15 2853.99,-171 2853.99,-171 2853.99,-171 1663.58,-171 1663.58,-171"/>
<polygon fill="black" stroke="black" points="1663.58,-167.5 1653.58,-171 1663.58,-174.5 1663.58,-167.5"/>
</g>
<!-- BreadcrumbsComponent&#45;&gt;NavigationComponentModule -->
<g id="edge2" class="edge">
<title>BreadcrumbsComponent&#45;&gt;NavigationComponentModule</title>
<path fill="none" stroke="black" d="M2802.01,-122.17C2802.01,-141.09 2802.01,-168 2802.01,-168 2802.01,-168 1663.61,-168 1663.61,-168"/>
<polygon fill="black" stroke="black" points="1663.61,-164.5 1653.61,-168 1663.61,-171.5 1663.61,-164.5"/>
</g>
<!-- DefaultCaseRefListViewComponent -->
<g id="node2" class="node">
<title>DefaultCaseRefListViewComponent</title>
<polygon fill="#ffffb3" stroke="black" points="2732.33,-122 2509.67,-122 2509.67,-86 2732.33,-86 2732.33,-122"/>
<text text-anchor="middle" x="2621" y="-99.8" font-family="Times,serif" font-size="14.00">DefaultCaseRefListViewComponent</text>
</g>
<!-- DefaultCaseRefListViewComponent&#45;&gt;NavigationComponentModule -->
<g id="edge3" class="edge">
<title>DefaultCaseRefListViewComponent&#45;&gt;NavigationComponentModule</title>
<path fill="none" stroke="black" d="M2567.42,-122.3C2567.42,-140.27 2567.42,-165 2567.42,-165 2567.42,-165 1663.87,-165 1663.87,-165"/>
<polygon fill="black" stroke="black" points="1663.87,-161.5 1653.87,-165 1663.87,-168.5 1663.87,-161.5"/>
</g>
<!-- DefaultNoFilterProvidedComponent -->
<g id="node3" class="node">
<title>DefaultNoFilterProvidedComponent</title>
<polygon fill="#ffffb3" stroke="black" points="2491.79,-122 2270.21,-122 2270.21,-86 2491.79,-86 2491.79,-122"/>
<text text-anchor="middle" x="2381" y="-99.8" font-family="Times,serif" font-size="14.00">DefaultNoFilterProvidedComponent</text>
</g>
<!-- DefaultNoFilterProvidedComponent&#45;&gt;NavigationComponentModule -->
<g id="edge4" class="edge">
<title>DefaultNoFilterProvidedComponent&#45;&gt;NavigationComponentModule</title>
<path fill="none" stroke="black" d="M2418.43,-122.04C2418.43,-138.73 2418.43,-161 2418.43,-161 2418.43,-161 1663.91,-161 1663.91,-161"/>
<polygon fill="black" stroke="black" points="1663.91,-157.5 1653.91,-161 1663.91,-164.5 1663.91,-157.5"/>
</g>
<!-- DefaultSimpleTaskViewComponent -->
<g id="node4" class="node">
<title>DefaultSimpleTaskViewComponent</title>
<polygon fill="#ffffb3" stroke="black" points="2252.01,-122 2031.99,-122 2031.99,-86 2252.01,-86 2252.01,-122"/>
<text text-anchor="middle" x="2142" y="-99.8" font-family="Times,serif" font-size="14.00">DefaultSimpleTaskViewComponent</text>
</g>
<!-- DefaultSimpleTaskViewComponent&#45;&gt;NavigationComponentModule -->
<g id="edge5" class="edge">
<title>DefaultSimpleTaskViewComponent&#45;&gt;NavigationComponentModule</title>
<path fill="none" stroke="black" d="M2044.45,-122.28C2044.45,-137.95 2044.45,-158 2044.45,-158 2044.45,-158 1663.69,-158 1663.69,-158"/>
<polygon fill="black" stroke="black" points="1663.69,-154.5 1653.69,-158 1663.69,-161.5 1663.69,-154.5"/>
</g>
<!-- DefaultTabViewComponent -->
<g id="node5" class="node">
<title>DefaultTabViewComponent</title>
<polygon fill="#ffffb3" stroke="black" points="2013.9,-122 1838.1,-122 1838.1,-86 2013.9,-86 2013.9,-122"/>
<text text-anchor="middle" x="1926" y="-99.8" font-family="Times,serif" font-size="14.00">DefaultTabViewComponent</text>
</g>
<!-- DefaultTabViewComponent&#45;&gt;NavigationComponentModule -->
<g id="edge6" class="edge">
<title>DefaultTabViewComponent&#45;&gt;NavigationComponentModule</title>
<path fill="none" stroke="black" d="M1926,-122.12C1926,-136.78 1926,-155 1926,-155 1926,-155 1663.78,-155 1663.78,-155"/>
<polygon fill="black" stroke="black" points="1663.78,-151.5 1653.78,-155 1663.78,-158.5 1663.78,-151.5"/>
</g>
<!-- DefaultTabbedCaseViewComponent -->
<g id="node6" class="node">
<title>DefaultTabbedCaseViewComponent</title>
<polygon fill="#ffffb3" stroke="black" points="1820.32,-122 1597.68,-122 1597.68,-86 1820.32,-86 1820.32,-122"/>
<text text-anchor="middle" x="1709" y="-99.8" font-family="Times,serif" font-size="14.00">DefaultTabbedCaseViewComponent</text>
</g>
<!-- DefaultTabbedCaseViewComponent&#45;&gt;NavigationComponentModule -->
<g id="edge7" class="edge">
<title>DefaultTabbedCaseViewComponent&#45;&gt;NavigationComponentModule</title>
<path fill="none" stroke="black" d="M1625.57,-122.11C1625.57,-122.11 1625.57,-140.99 1625.57,-140.99"/>
<polygon fill="black" stroke="black" points="1622.07,-140.99 1625.57,-150.99 1629.07,-140.99 1622.07,-140.99"/>
</g>
<!-- DefaultTabbedTaskViewComponent -->
<g id="node7" class="node">
<title>DefaultTabbedTaskViewComponent</title>
<polygon fill="#ffffb3" stroke="black" points="1579.32,-122 1356.68,-122 1356.68,-86 1579.32,-86 1579.32,-122"/>
<text text-anchor="middle" x="1468" y="-99.8" font-family="Times,serif" font-size="14.00">DefaultTabbedTaskViewComponent</text>
</g>
<!-- DefaultTabbedTaskViewComponent&#45;&gt;NavigationComponentModule -->
<g id="edge8" class="edge">
<title>DefaultTabbedTaskViewComponent&#45;&gt;NavigationComponentModule</title>
<path fill="none" stroke="black" d="M1522.93,-122.11C1522.93,-122.11 1522.93,-140.99 1522.93,-140.99"/>
<polygon fill="black" stroke="black" points="1519.43,-140.99 1522.93,-150.99 1526.43,-140.99 1519.43,-140.99"/>
</g>
<!-- DefaultTaskViewComponent -->
<g id="node8" class="node">
<title>DefaultTaskViewComponent</title>
<polygon fill="#ffffb3" stroke="black" points="1338.34,-122 1157.66,-122 1157.66,-86 1338.34,-86 1338.34,-122"/>
<text text-anchor="middle" x="1248" y="-99.8" font-family="Times,serif" font-size="14.00">DefaultTaskViewComponent</text>
</g>
<!-- DefaultTaskViewComponent&#45;&gt;NavigationComponentModule -->
<g id="edge9" class="edge">
<title>DefaultTaskViewComponent&#45;&gt;NavigationComponentModule</title>
<path fill="none" stroke="black" d="M1304.73,-122.12C1304.73,-136.78 1304.73,-155 1304.73,-155 1304.73,-155 1456.4,-155 1456.4,-155"/>
<polygon fill="black" stroke="black" points="1456.4,-158.5 1466.4,-155 1456.4,-151.5 1456.4,-158.5"/>
</g>
<!-- GroupNavigationComponentResolverComponent -->
<g id="node9" class="node">
<title>GroupNavigationComponentResolverComponent</title>
<polygon fill="#ffffb3" stroke="black" points="1139.4,-122 844.6,-122 844.6,-86 1139.4,-86 1139.4,-122"/>
<text text-anchor="middle" x="992" y="-99.8" font-family="Times,serif" font-size="14.00">GroupNavigationComponentResolverComponent</text>
</g>
<!-- GroupNavigationComponentResolverComponent&#45;&gt;NavigationComponentModule -->
<g id="edge10" class="edge">
<title>GroupNavigationComponentResolverComponent&#45;&gt;NavigationComponentModule</title>
<path fill="none" stroke="black" d="M1081.05,-122.28C1081.05,-137.95 1081.05,-158 1081.05,-158 1081.05,-158 1456.23,-158 1456.23,-158"/>
<polygon fill="black" stroke="black" points="1456.23,-161.5 1466.23,-158 1456.23,-154.5 1456.23,-161.5"/>
</g>
<!-- NavigationDoubleDrawerComponent -->
<g id="node10" class="node">
<title>NavigationDoubleDrawerComponent</title>
<polygon fill="#ffffb3" stroke="black" points="826.22,-122 599.78,-122 599.78,-86 826.22,-86 826.22,-122"/>
<text text-anchor="middle" x="713" y="-99.8" font-family="Times,serif" font-size="14.00">NavigationDoubleDrawerComponent</text>
</g>
<!-- NavigationDoubleDrawerComponent&#45;&gt;NavigationComponentModule -->
<g id="edge11" class="edge">
<title>NavigationDoubleDrawerComponent&#45;&gt;NavigationComponentModule</title>
<path fill="none" stroke="black" d="M820.93,-122.04C820.93,-138.73 820.93,-161 820.93,-161 820.93,-161 1456.4,-161 1456.4,-161"/>
<polygon fill="black" stroke="black" points="1456.4,-164.5 1466.4,-161 1456.4,-157.5 1456.4,-164.5"/>
</g>
<!-- NavigationDrawerComponent -->
<g id="node11" class="node">
<title>NavigationDrawerComponent</title>
<polygon fill="#ffffb3" stroke="black" points="581.5,-122 396.5,-122 396.5,-86 581.5,-86 581.5,-122"/>
<text text-anchor="middle" x="489" y="-99.8" font-family="Times,serif" font-size="14.00">NavigationDrawerComponent</text>
</g>
<!-- NavigationDrawerComponent&#45;&gt;NavigationComponentModule -->
<g id="edge12" class="edge">
<title>NavigationDrawerComponent&#45;&gt;NavigationComponentModule</title>
<path fill="none" stroke="black" d="M508.71,-122.3C508.71,-140.27 508.71,-165 508.71,-165 508.71,-165 1456.24,-165 1456.24,-165"/>
<polygon fill="black" stroke="black" points="1456.24,-168.5 1466.24,-165 1456.24,-161.5 1456.24,-168.5"/>
</g>
<!-- NavigationRailComponent -->
<g id="node12" class="node">
<title>NavigationRailComponent</title>
<polygon fill="#ffffb3" stroke="black" points="378.37,-122 211.63,-122 211.63,-86 378.37,-86 378.37,-122"/>
<text text-anchor="middle" x="295" y="-99.8" font-family="Times,serif" font-size="14.00">NavigationRailComponent</text>
</g>
<!-- NavigationRailComponent&#45;&gt;NavigationComponentModule -->
<g id="edge13" class="edge">
<title>NavigationRailComponent&#45;&gt;NavigationComponentModule</title>
<path fill="none" stroke="black" d="M295,-122.17C295,-141.09 295,-168 295,-168 295,-168 1456.21,-168 1456.21,-168"/>
<polygon fill="black" stroke="black" points="1456.21,-171.5 1466.21,-168 1456.21,-164.5 1456.21,-171.5"/>
</g>
<!-- NavigationTreeComponent -->
<g id="node13" class="node">
<title>NavigationTreeComponent</title>
<polygon fill="#ffffb3" stroke="black" points="193.68,-122 24.32,-122 24.32,-86 193.68,-86 193.68,-122"/>
<text text-anchor="middle" x="109" y="-99.8" font-family="Times,serif" font-size="14.00">NavigationTreeComponent</text>
</g>
<!-- NavigationTreeComponent&#45;&gt;NavigationComponentModule -->
<g id="edge14" class="edge">
<title>NavigationTreeComponent&#45;&gt;NavigationComponentModule</title>
<path fill="none" stroke="black" d="M109,-122.31C109,-142.15 109,-171 109,-171 109,-171 1456.19,-171 1456.19,-171"/>
<polygon fill="black" stroke="black" points="1456.19,-174.5 1466.19,-171 1456.19,-167.5 1456.19,-174.5"/>
</g>
<!-- BreadcrumbsComponent  -->
<g id="node15" class="node">
<title>BreadcrumbsComponent </title>
<polygon fill="#fb8072" stroke="black" points="2673.97,-252 2514.03,-252 2514.03,-216 2673.97,-216 2673.97,-252"/>
<text text-anchor="middle" x="2594" y="-229.8" font-family="Times,serif" font-size="14.00">BreadcrumbsComponent </text>
</g>
<!-- NavigationComponentModule&#45;&gt;BreadcrumbsComponent  -->
<g id="edge15" class="edge">
<title>NavigationComponentModule&#45;&gt;BreadcrumbsComponent </title>
<path fill="none" stroke="black" stroke-dasharray="5,2" d="M1653.65,-174C1912.84,-174 2620.58,-174 2620.58,-174 2620.58,-174 2620.58,-206 2620.58,-206"/>
<polygon fill="black" stroke="black" points="2617.08,-206 2620.58,-216 2624.08,-206 2617.08,-206"/>
</g>
<!-- DefaultSimpleTaskViewComponent  -->
<g id="node16" class="node">
<title>DefaultSimpleTaskViewComponent </title>
<polygon fill="#fb8072" stroke="black" points="2496.01,-252 2271.99,-252 2271.99,-216 2496.01,-216 2496.01,-252"/>
<text text-anchor="middle" x="2384" y="-229.8" font-family="Times,serif" font-size="14.00">DefaultSimpleTaskViewComponent </text>
</g>
<!-- NavigationComponentModule&#45;&gt;DefaultSimpleTaskViewComponent  -->
<g id="edge16" class="edge">
<title>NavigationComponentModule&#45;&gt;DefaultSimpleTaskViewComponent </title>
<path fill="none" stroke="black" stroke-dasharray="5,2" d="M1653.55,-178C1861.75,-178 2345.21,-178 2345.21,-178 2345.21,-178 2345.21,-205.97 2345.21,-205.97"/>
<polygon fill="black" stroke="black" points="2341.71,-205.97 2345.21,-215.97 2348.71,-205.97 2341.71,-205.97"/>
</g>
<!-- DefaultTabViewComponent  -->
<g id="node17" class="node">
<title>DefaultTabViewComponent </title>
<polygon fill="#fb8072" stroke="black" points="2254.4,-252 2075.6,-252 2075.6,-216 2254.4,-216 2254.4,-252"/>
<text text-anchor="middle" x="2165" y="-229.8" font-family="Times,serif" font-size="14.00">DefaultTabViewComponent </text>
</g>
<!-- NavigationComponentModule&#45;&gt;DefaultTabViewComponent  -->
<g id="edge17" class="edge">
<title>NavigationComponentModule&#45;&gt;DefaultTabViewComponent </title>
<path fill="none" stroke="black" stroke-dasharray="5,2" d="M1653.7,-181C1823.32,-181 2163.9,-181 2163.9,-181 2163.9,-181 2163.9,-205.76 2163.9,-205.76"/>
<polygon fill="black" stroke="black" points="2160.4,-205.76 2163.9,-215.76 2167.4,-205.76 2160.4,-205.76"/>
</g>
<!-- DefaultTabbedCaseViewComponent  -->
<g id="node18" class="node">
<title>DefaultTabbedCaseViewComponent </title>
<polygon fill="#fb8072" stroke="black" points="2057.32,-252 1830.68,-252 1830.68,-216 2057.32,-216 2057.32,-252"/>
<text text-anchor="middle" x="1944" y="-229.8" font-family="Times,serif" font-size="14.00">DefaultTabbedCaseViewComponent </text>
</g>
<!-- NavigationComponentModule&#45;&gt;DefaultTabbedCaseViewComponent  -->
<g id="edge18" class="edge">
<title>NavigationComponentModule&#45;&gt;DefaultTabbedCaseViewComponent </title>
<path fill="none" stroke="black" stroke-dasharray="5,2" d="M1653.72,-184C1733.26,-184 1834.57,-184 1834.57,-184 1834.57,-184 1834.57,-205.95 1834.57,-205.95"/>
<polygon fill="black" stroke="black" points="1831.07,-205.95 1834.57,-215.95 1838.07,-205.95 1831.07,-205.95"/>
</g>
<!-- DefaultTabbedTaskViewComponent  -->
<g id="node19" class="node">
<title>DefaultTabbedTaskViewComponent </title>
<polygon fill="#fb8072" stroke="black" points="1813.32,-252 1586.68,-252 1586.68,-216 1813.32,-216 1813.32,-252"/>
<text text-anchor="middle" x="1700" y="-229.8" font-family="Times,serif" font-size="14.00">DefaultTabbedTaskViewComponent </text>
</g>
<!-- NavigationComponentModule&#45;&gt;DefaultTabbedTaskViewComponent  -->
<g id="edge19" class="edge">
<title>NavigationComponentModule&#45;&gt;DefaultTabbedTaskViewComponent </title>
<path fill="none" stroke="black" stroke-dasharray="5,2" d="M1620.19,-187.11C1620.19,-187.11 1620.19,-205.99 1620.19,-205.99"/>
<polygon fill="black" stroke="black" points="1616.69,-205.99 1620.19,-215.99 1623.69,-205.99 1616.69,-205.99"/>
</g>
<!-- GroupNavigationComponentResolverComponent  -->
<g id="node20" class="node">
<title>GroupNavigationComponentResolverComponent </title>
<polygon fill="#fb8072" stroke="black" points="1568.9,-252 1271.1,-252 1271.1,-216 1568.9,-216 1568.9,-252"/>
<text text-anchor="middle" x="1420" y="-229.8" font-family="Times,serif" font-size="14.00">GroupNavigationComponentResolverComponent </text>
</g>
<!-- NavigationComponentModule&#45;&gt;GroupNavigationComponentResolverComponent  -->
<g id="edge20" class="edge">
<title>NavigationComponentModule&#45;&gt;GroupNavigationComponentResolverComponent </title>
<path fill="none" stroke="black" stroke-dasharray="5,2" d="M1517.7,-187.11C1517.7,-187.11 1517.7,-205.99 1517.7,-205.99"/>
<polygon fill="black" stroke="black" points="1514.2,-205.99 1517.7,-215.99 1521.2,-205.99 1514.2,-205.99"/>
</g>
<!-- NavigationDoubleDrawerComponent  -->
<g id="node21" class="node">
<title>NavigationDoubleDrawerComponent </title>
<polygon fill="#fb8072" stroke="black" points="1253.22,-252 1022.78,-252 1022.78,-216 1253.22,-216 1253.22,-252"/>
<text text-anchor="middle" x="1138" y="-229.8" font-family="Times,serif" font-size="14.00">NavigationDoubleDrawerComponent </text>
</g>
<!-- NavigationComponentModule&#45;&gt;NavigationDoubleDrawerComponent  -->
<g id="edge21" class="edge">
<title>NavigationComponentModule&#45;&gt;NavigationDoubleDrawerComponent </title>
<path fill="none" stroke="black" stroke-dasharray="5,2" d="M1466.35,-184C1361.28,-184 1205.34,-184 1205.34,-184 1205.34,-184 1205.34,-205.95 1205.34,-205.95"/>
<polygon fill="black" stroke="black" points="1201.84,-205.95 1205.34,-215.95 1208.84,-205.95 1201.84,-205.95"/>
</g>
<!-- NavigationDrawerComponent  -->
<g id="node22" class="node">
<title>NavigationDrawerComponent </title>
<polygon fill="#fb8072" stroke="black" points="1004.5,-252 815.5,-252 815.5,-216 1004.5,-216 1004.5,-252"/>
<text text-anchor="middle" x="910" y="-229.8" font-family="Times,serif" font-size="14.00">NavigationDrawerComponent </text>
</g>
<!-- NavigationComponentModule&#45;&gt;NavigationDrawerComponent  -->
<g id="edge22" class="edge">
<title>NavigationComponentModule&#45;&gt;NavigationDrawerComponent </title>
<path fill="none" stroke="black" stroke-dasharray="5,2" d="M1466.25,-181C1289.52,-181 924.65,-181 924.65,-181 924.65,-181 924.65,-205.76 924.65,-205.76"/>
<polygon fill="black" stroke="black" points="921.15,-205.76 924.65,-215.76 928.15,-205.76 921.15,-205.76"/>
</g>
<!-- NavigationRailComponent  -->
<g id="node23" class="node">
<title>NavigationRailComponent </title>
<polygon fill="#fb8072" stroke="black" points="797.37,-252 626.63,-252 626.63,-216 797.37,-216 797.37,-252"/>
<text text-anchor="middle" x="712" y="-229.8" font-family="Times,serif" font-size="14.00">NavigationRailComponent </text>
</g>
<!-- NavigationComponentModule&#45;&gt;NavigationRailComponent  -->
<g id="edge23" class="edge">
<title>NavigationComponentModule&#45;&gt;NavigationRailComponent </title>
<path fill="none" stroke="black" stroke-dasharray="5,2" d="M1466.42,-178C1245.88,-178 712,-178 712,-178 712,-178 712,-205.97 712,-205.97"/>
<polygon fill="black" stroke="black" points="708.5,-205.97 712,-215.97 715.5,-205.97 708.5,-205.97"/>
</g>
<!-- NavigationTreeComponent  -->
<g id="node24" class="node">
<title>NavigationTreeComponent </title>
<polygon fill="#fb8072" stroke="black" points="608.18,-252 435.82,-252 435.82,-216 608.18,-216 608.18,-252"/>
<text text-anchor="middle" x="522" y="-229.8" font-family="Times,serif" font-size="14.00">NavigationTreeComponent </text>
</g>
<!-- NavigationComponentModule&#45;&gt;NavigationTreeComponent  -->
<g id="edge24" class="edge">
<title>NavigationComponentModule&#45;&gt;NavigationTreeComponent </title>
<path fill="none" stroke="black" stroke-dasharray="5,2" d="M1466.16,-174C1225.28,-174 603.99,-174 603.99,-174 603.99,-174 603.99,-206 603.99,-206"/>
<polygon fill="black" stroke="black" points="600.49,-206 603.99,-216 607.49,-206 600.49,-206"/>
</g>
</g>
</svg>
