<?xml version="1.0" encoding="UTF-8" standalone="no"?>
<!DOCTYPE svg PUBLIC "-//W3C//DTD SVG 1.1//EN"
 "http://www.w3.org/Graphics/SVG/1.1/DTD/svg11.dtd">
<!-- Generated by graphviz version 2.47.0 (20210316.0004)
 -->
<!-- Title: dependencies Pages: 1 -->
<svg width="2294pt" height="284pt"
 viewBox="0.00 0.00 2294.00 284.00" xmlns="http://www.w3.org/2000/svg" xmlns:xlink="http://www.w3.org/1999/xlink">
<g id="graph0" class="graph" transform="scale(1 1) rotate(0) translate(4 280)">
<title>dependencies</title>
<polygon fill="white" stroke="transparent" points="-4,4 -4,-280 2290,-280 2290,4 -4,4"/>
<text text-anchor="start" x="1122.01" y="-42.4" font-family="Times-12" font-weight="bold" font-size="14.00">Legend</text>
<polygon fill="#ffffb3" stroke="transparent" points="909,-10 909,-30 929,-30 929,-10 909,-10"/>
<text text-anchor="start" x="932.63" y="-15.4" font-family="Times-12" font-size="14.00"> &#160;Declarations</text>
<polygon fill="#8dd3c7" stroke="transparent" points="1022,-10 1022,-30 1042,-30 1042,-10 1022,-10"/>
<text text-anchor="start" x="1045.73" y="-15.4" font-family="Times-12" font-size="14.00"> &#160;Module</text>
<polygon fill="#80b1d3" stroke="transparent" points="1108,-10 1108,-30 1128,-30 1128,-10 1108,-10"/>
<text text-anchor="start" x="1131.78" y="-15.4" font-family="Times-12" font-size="14.00"> &#160;Bootstrap</text>
<polygon fill="#fdb462" stroke="transparent" points="1205,-10 1205,-30 1225,-30 1225,-10 1205,-10"/>
<text text-anchor="start" x="1228.67" y="-15.4" font-family="Times-12" font-size="14.00"> &#160;Providers</text>
<polygon fill="#fb8072" stroke="transparent" points="1301,-10 1301,-30 1321,-30 1321,-10 1301,-10"/>
<text text-anchor="start" x="1324.73" y="-15.4" font-family="Times-12" font-size="14.00"> &#160;Exports</text>
<g id="clust1" class="cluster">
<title>cluster_NavigationComponentModule</title>
<polygon fill="none" stroke="black" stroke-dasharray="1,5" points="8,-70 8,-268 2278,-268 2278,-70 8,-70"/>
</g>
<g id="clust14" class="cluster">
<title>cluster_NavigationComponentModule_exports</title>
<polygon fill="none" stroke="black" points="16,-208 16,-260 2270,-260 2270,-208 16,-208"/>
</g>
<g id="clust2" class="cluster">
<title>cluster_NavigationComponentModule_declarations</title>
<polygon fill="none" stroke="black" points="37,-78 37,-130 2256,-130 2256,-78 37,-78"/>
</g>
<!-- BreadcrumbsComponent -->
<g id="node1" class="node">
<title>BreadcrumbsComponent</title>
<polygon fill="#ffffb3" stroke="black" points="2247.97,-122 2092.03,-122 2092.03,-86 2247.97,-86 2247.97,-122"/>
<text text-anchor="middle" x="2170" y="-99.8" font-family="Times,serif" font-size="14.00">BreadcrumbsComponent</text>
</g>
<!-- NavigationComponentModule -->
<g id="node11" class="node">
<title>NavigationComponentModule</title>
<polygon fill="#8dd3c7" stroke="black" points="1114.59,-187 1111.59,-191 1090.59,-191 1087.59,-187 927.41,-187 927.41,-151 1114.59,-151 1114.59,-187"/>
<text text-anchor="middle" x="1021" y="-164.8" font-family="Times,serif" font-size="14.00">NavigationComponentModule</text>
</g>
<!-- BreadcrumbsComponent&#45;&gt;NavigationComponentModule -->
<g id="edge1" class="edge">
<title>BreadcrumbsComponent&#45;&gt;NavigationComponentModule</title>
<path fill="none" stroke="black" d="M2097.14,-122.17C2097.14,-141.09 2097.14,-168 2097.14,-168 2097.14,-168 1124.62,-168 1124.62,-168"/>
<polygon fill="black" stroke="black" points="1124.62,-164.5 1114.62,-168 1124.62,-171.5 1124.62,-164.5"/>
</g>
<!-- DefaultSimpleTaskViewComponent -->
<g id="node2" class="node">
<title>DefaultSimpleTaskViewComponent</title>
<polygon fill="#ffffb3" stroke="black" points="2074.01,-122 1853.99,-122 1853.99,-86 2074.01,-86 2074.01,-122"/>
<text text-anchor="middle" x="1964" y="-99.8" font-family="Times,serif" font-size="14.00">DefaultSimpleTaskViewComponent</text>
</g>
<!-- DefaultSimpleTaskViewComponent&#45;&gt;NavigationComponentModule -->
<g id="edge2" class="edge">
<title>DefaultSimpleTaskViewComponent&#45;&gt;NavigationComponentModule</title>
<path fill="none" stroke="black" d="M2002.83,-122.3C2002.83,-140.27 2002.83,-165 2002.83,-165 2002.83,-165 1124.7,-165 1124.7,-165"/>
<polygon fill="black" stroke="black" points="1124.7,-161.5 1114.7,-165 1124.7,-168.5 1124.7,-161.5"/>
</g>
<!-- DefaultTabViewComponent -->
<g id="node3" class="node">
<title>DefaultTabViewComponent</title>
<polygon fill="#ffffb3" stroke="black" points="1835.9,-122 1660.1,-122 1660.1,-86 1835.9,-86 1835.9,-122"/>
<text text-anchor="middle" x="1748" y="-99.8" font-family="Times,serif" font-size="14.00">DefaultTabViewComponent</text>
</g>
<!-- DefaultTabViewComponent&#45;&gt;NavigationComponentModule -->
<g id="edge3" class="edge">
<title>DefaultTabViewComponent&#45;&gt;NavigationComponentModule</title>
<path fill="none" stroke="black" d="M1778.32,-122.04C1778.32,-138.73 1778.32,-161 1778.32,-161 1778.32,-161 1124.62,-161 1124.62,-161"/>
<polygon fill="black" stroke="black" points="1124.62,-157.5 1114.62,-161 1124.62,-164.5 1124.62,-157.5"/>
</g>
<!-- DefaultTabbedCaseViewComponent -->
<g id="node4" class="node">
<title>DefaultTabbedCaseViewComponent</title>
<polygon fill="#ffffb3" stroke="black" points="1642.32,-122 1419.68,-122 1419.68,-86 1642.32,-86 1642.32,-122"/>
<text text-anchor="middle" x="1531" y="-99.8" font-family="Times,serif" font-size="14.00">DefaultTabbedCaseViewComponent</text>
</g>
<!-- DefaultTabbedCaseViewComponent&#45;&gt;NavigationComponentModule -->
<g id="edge4" class="edge">
<title>DefaultTabbedCaseViewComponent&#45;&gt;NavigationComponentModule</title>
<path fill="none" stroke="black" d="M1568.14,-122.28C1568.14,-137.95 1568.14,-158 1568.14,-158 1568.14,-158 1124.75,-158 1124.75,-158"/>
<polygon fill="black" stroke="black" points="1124.75,-154.5 1114.75,-158 1124.75,-161.5 1124.75,-154.5"/>
</g>
<!-- DefaultTabbedTaskViewComponent -->
<g id="node5" class="node">
<title>DefaultTabbedTaskViewComponent</title>
<polygon fill="#ffffb3" stroke="black" points="1401.32,-122 1178.68,-122 1178.68,-86 1401.32,-86 1401.32,-122"/>
<text text-anchor="middle" x="1290" y="-99.8" font-family="Times,serif" font-size="14.00">DefaultTabbedTaskViewComponent</text>
</g>
<!-- DefaultTabbedTaskViewComponent&#45;&gt;NavigationComponentModule -->
<g id="edge5" class="edge">
<title>DefaultTabbedTaskViewComponent&#45;&gt;NavigationComponentModule</title>
<path fill="none" stroke="black" d="M1252.78,-122.12C1252.78,-136.78 1252.78,-155 1252.78,-155 1252.78,-155 1124.61,-155 1124.61,-155"/>
<polygon fill="black" stroke="black" points="1124.61,-151.5 1114.61,-155 1124.61,-158.5 1124.61,-151.5"/>
</g>
<!-- GroupNavigationComponentResolverComponent -->
<g id="node6" class="node">
<title>GroupNavigationComponentResolverComponent</title>
<polygon fill="#ffffb3" stroke="black" points="1160.4,-122 865.6,-122 865.6,-86 1160.4,-86 1160.4,-122"/>
<text text-anchor="middle" x="1013" y="-99.8" font-family="Times,serif" font-size="14.00">GroupNavigationComponentResolverComponent</text>
</g>
<!-- GroupNavigationComponentResolverComponent&#45;&gt;NavigationComponentModule -->
<g id="edge6" class="edge">
<title>GroupNavigationComponentResolverComponent&#45;&gt;NavigationComponentModule</title>
<path fill="none" stroke="black" d="M1021,-122.11C1021,-122.11 1021,-140.99 1021,-140.99"/>
<polygon fill="black" stroke="black" points="1017.5,-140.99 1021,-150.99 1024.5,-140.99 1017.5,-140.99"/>
</g>
<!-- NavigationDoubleDrawerComponent -->
<g id="node7" class="node">
<title>NavigationDoubleDrawerComponent</title>
<polygon fill="#ffffb3" stroke="black" points="847.22,-122 620.78,-122 620.78,-86 847.22,-86 847.22,-122"/>
<text text-anchor="middle" x="734" y="-99.8" font-family="Times,serif" font-size="14.00">NavigationDoubleDrawerComponent</text>
</g>
<!-- NavigationDoubleDrawerComponent&#45;&gt;NavigationComponentModule -->
<g id="edge7" class="edge">
<title>NavigationDoubleDrawerComponent&#45;&gt;NavigationComponentModule</title>
<path fill="none" stroke="black" d="M767.62,-122.12C767.62,-136.78 767.62,-155 767.62,-155 767.62,-155 917.37,-155 917.37,-155"/>
<polygon fill="black" stroke="black" points="917.37,-158.5 927.37,-155 917.37,-151.5 917.37,-158.5"/>
</g>
<!-- NavigationDrawerComponent -->
<g id="node8" class="node">
<title>NavigationDrawerComponent</title>
<polygon fill="#ffffb3" stroke="black" points="602.5,-122 417.5,-122 417.5,-86 602.5,-86 602.5,-122"/>
<text text-anchor="middle" x="510" y="-99.8" font-family="Times,serif" font-size="14.00">NavigationDrawerComponent</text>
</g>
<!-- NavigationDrawerComponent&#45;&gt;NavigationComponentModule -->
<g id="edge8" class="edge">
<title>NavigationDrawerComponent&#45;&gt;NavigationComponentModule</title>
<path fill="none" stroke="black" d="M597.63,-122.01C597.63,-138.05 597.63,-159 597.63,-159 597.63,-159 917.3,-159 917.3,-159"/>
<polygon fill="black" stroke="black" points="917.3,-162.5 927.3,-159 917.3,-155.5 917.3,-162.5"/>
</g>
<!-- NavigationRailComponent -->
<g id="node9" class="node">
<title>NavigationRailComponent</title>
<polygon fill="#ffffb3" stroke="black" points="399.37,-122 232.63,-122 232.63,-86 399.37,-86 399.37,-122"/>
<text text-anchor="middle" x="316" y="-99.8" font-family="Times,serif" font-size="14.00">NavigationRailComponent</text>
</g>
<!-- NavigationRailComponent&#45;&gt;NavigationComponentModule -->
<g id="edge9" class="edge">
<title>NavigationRailComponent&#45;&gt;NavigationComponentModule</title>
<path fill="none" stroke="black" d="M392.31,-122.02C392.31,-139.37 392.31,-163 392.31,-163 392.31,-163 917.22,-163 917.22,-163"/>
<polygon fill="black" stroke="black" points="917.22,-166.5 927.22,-163 917.22,-159.5 917.22,-166.5"/>
</g>
<!-- NavigationTreeComponent -->
<g id="node10" class="node">
<title>NavigationTreeComponent</title>
<polygon fill="#ffffb3" stroke="black" points="214.68,-122 45.32,-122 45.32,-86 214.68,-86 214.68,-122"/>
<text text-anchor="middle" x="130" y="-99.8" font-family="Times,serif" font-size="14.00">NavigationTreeComponent</text>
</g>
<!-- NavigationTreeComponent&#45;&gt;NavigationComponentModule -->
<g id="edge10" class="edge">
<title>NavigationTreeComponent&#45;&gt;NavigationComponentModule</title>
<path fill="none" stroke="black" d="M205.47,-122.22C205.47,-140.83 205.47,-167 205.47,-167 205.47,-167 917.45,-167 917.45,-167"/>
<polygon fill="black" stroke="black" points="917.45,-170.5 927.45,-167 917.45,-163.5 917.45,-170.5"/>
</g>
<!-- BreadcrumbsComponent  -->
<g id="node12" class="node">
<title>BreadcrumbsComponent </title>
<polygon fill="#fb8072" stroke="black" points="2261.97,-252 2102.03,-252 2102.03,-216 2261.97,-216 2261.97,-252"/>
<text text-anchor="middle" x="2182" y="-229.8" font-family="Times,serif" font-size="14.00">BreadcrumbsComponent </text>
</g>
<!-- NavigationComponentModule&#45;&gt;BreadcrumbsComponent  -->
<g id="edge11" class="edge">
<title>NavigationComponentModule&#45;&gt;BreadcrumbsComponent </title>
<path fill="none" stroke="black" stroke-dasharray="5,2" d="M1114.96,-171C1390.16,-171 2175.12,-171 2175.12,-171 2175.12,-171 2175.12,-205.78 2175.12,-205.78"/>
<polygon fill="black" stroke="black" points="2171.63,-205.78 2175.12,-215.78 2178.63,-205.78 2171.63,-205.78"/>
</g>
<!-- DefaultSimpleTaskViewComponent  -->
<g id="node13" class="node">
<title>DefaultSimpleTaskViewComponent </title>
<polygon fill="#fb8072" stroke="black" points="2084.01,-252 1859.99,-252 1859.99,-216 2084.01,-216 2084.01,-252"/>
<text text-anchor="middle" x="1972" y="-229.8" font-family="Times,serif" font-size="14.00">DefaultSimpleTaskViewComponent </text>
</g>
<!-- NavigationComponentModule&#45;&gt;DefaultSimpleTaskViewComponent  -->
<g id="edge12" class="edge">
<title>NavigationComponentModule&#45;&gt;DefaultSimpleTaskViewComponent </title>
<path fill="none" stroke="black" stroke-dasharray="5,2" d="M1114.58,-174C1346.9,-174 1931.42,-174 1931.42,-174 1931.42,-174 1931.42,-206 1931.42,-206"/>
<polygon fill="black" stroke="black" points="1927.92,-206 1931.42,-216 1934.92,-206 1927.92,-206"/>
</g>
<!-- DefaultTabViewComponent  -->
<g id="node14" class="node">
<title>DefaultTabViewComponent </title>
<polygon fill="#fb8072" stroke="black" points="1842.4,-252 1663.6,-252 1663.6,-216 1842.4,-216 1842.4,-252"/>
<text text-anchor="middle" x="1753" y="-229.8" font-family="Times,serif" font-size="14.00">DefaultTabViewComponent </text>
</g>
<!-- NavigationComponentModule&#45;&gt;DefaultTabViewComponent  -->
<g id="edge13" class="edge">
<title>NavigationComponentModule&#45;&gt;DefaultTabViewComponent </title>
<path fill="none" stroke="black" stroke-dasharray="5,2" d="M1114.67,-178C1305.4,-178 1720.93,-178 1720.93,-178 1720.93,-178 1720.93,-205.97 1720.93,-205.97"/>
<polygon fill="black" stroke="black" points="1717.43,-205.97 1720.93,-215.97 1724.43,-205.97 1717.43,-205.97"/>
</g>
<!-- DefaultTabbedCaseViewComponent  -->
<g id="node15" class="node">
<title>DefaultTabbedCaseViewComponent </title>
<polygon fill="#fb8072" stroke="black" points="1645.32,-252 1418.68,-252 1418.68,-216 1645.32,-216 1645.32,-252"/>
<text text-anchor="middle" x="1532" y="-229.8" font-family="Times,serif" font-size="14.00">DefaultTabbedCaseViewComponent </text>
</g>
<!-- NavigationComponentModule&#45;&gt;DefaultTabbedCaseViewComponent  -->
<g id="edge14" class="edge">
<title>NavigationComponentModule&#45;&gt;DefaultTabbedCaseViewComponent </title>
<path fill="none" stroke="black" stroke-dasharray="5,2" d="M1114.71,-181C1252.56,-181 1493.86,-181 1493.86,-181 1493.86,-181 1493.86,-205.76 1493.86,-205.76"/>
<polygon fill="black" stroke="black" points="1490.36,-205.76 1493.86,-215.76 1497.36,-205.76 1490.36,-205.76"/>
</g>
<!-- DefaultTabbedTaskViewComponent  -->
<g id="node16" class="node">
<title>DefaultTabbedTaskViewComponent </title>
<polygon fill="#fb8072" stroke="black" points="1401.32,-252 1174.68,-252 1174.68,-216 1401.32,-216 1401.32,-252"/>
<text text-anchor="middle" x="1288" y="-229.8" font-family="Times,serif" font-size="14.00">DefaultTabbedTaskViewComponent </text>
</g>
<!-- NavigationComponentModule&#45;&gt;DefaultTabbedTaskViewComponent  -->
<g id="edge15" class="edge">
<title>NavigationComponentModule&#45;&gt;DefaultTabbedTaskViewComponent </title>
<path fill="none" stroke="black" stroke-dasharray="5,2" d="M1114.88,-184C1204.82,-184 1326.97,-184 1326.97,-184 1326.97,-184 1326.97,-205.95 1326.97,-205.95"/>
<polygon fill="black" stroke="black" points="1323.47,-205.95 1326.97,-215.95 1330.47,-205.95 1323.47,-205.95"/>
</g>
<!-- GroupNavigationComponentResolverComponent  -->
<g id="node17" class="node">
<title>GroupNavigationComponentResolverComponent </title>
<polygon fill="#fb8072" stroke="black" points="1156.9,-252 859.1,-252 859.1,-216 1156.9,-216 1156.9,-252"/>
<text text-anchor="middle" x="1008" y="-229.8" font-family="Times,serif" font-size="14.00">GroupNavigationComponentResolverComponent </text>
</g>
<!-- NavigationComponentModule&#45;&gt;GroupNavigationComponentResolverComponent  -->
<g id="edge16" class="edge">
<title>NavigationComponentModule&#45;&gt;GroupNavigationComponentResolverComponent </title>
<path fill="none" stroke="black" stroke-dasharray="5,2" d="M1021,-187.11C1021,-187.11 1021,-205.99 1021,-205.99"/>
<polygon fill="black" stroke="black" points="1017.5,-205.99 1021,-215.99 1024.5,-205.99 1017.5,-205.99"/>
</g>
<!-- NavigationDoubleDrawerComponent  -->
<g id="node18" class="node">
<title>NavigationDoubleDrawerComponent </title>
<polygon fill="#fb8072" stroke="black" points="841.22,-252 610.78,-252 610.78,-216 841.22,-216 841.22,-252"/>
<text text-anchor="middle" x="726" y="-229.8" font-family="Times,serif" font-size="14.00">NavigationDoubleDrawerComponent </text>
</g>
<!-- NavigationComponentModule&#45;&gt;NavigationDoubleDrawerComponent  -->
<g id="edge17" class="edge">
<title>NavigationComponentModule&#45;&gt;NavigationDoubleDrawerComponent </title>
<path fill="none" stroke="black" stroke-dasharray="5,2" d="M927.33,-183C830.74,-183 694.13,-183 694.13,-183 694.13,-183 694.13,-205.88 694.13,-205.88"/>
<polygon fill="black" stroke="black" points="690.63,-205.88 694.13,-215.88 697.63,-205.88 690.63,-205.88"/>
</g>
<!-- NavigationDrawerComponent  -->
<g id="node19" class="node">
<title>NavigationDrawerComponent </title>
<polygon fill="#fb8072" stroke="black" points="592.5,-252 403.5,-252 403.5,-216 592.5,-216 592.5,-252"/>
<text text-anchor="middle" x="498" y="-229.8" font-family="Times,serif" font-size="14.00">NavigationDrawerComponent </text>
</g>
<!-- NavigationComponentModule&#45;&gt;NavigationDrawerComponent  -->
<g id="edge18" class="edge">
<title>NavigationComponentModule&#45;&gt;NavigationDrawerComponent </title>
<path fill="none" stroke="black" stroke-dasharray="5,2" d="M927.23,-179C778.43,-179 504.88,-179 504.88,-179 504.88,-179 504.88,-205.99 504.88,-205.99"/>
<polygon fill="black" stroke="black" points="501.38,-205.99 504.88,-215.99 508.38,-205.99 501.38,-205.99"/>
</g>
<!-- NavigationRailComponent  -->
<g id="node20" class="node">
<title>NavigationRailComponent </title>
<polygon fill="#fb8072" stroke="black" points="385.37,-252 214.63,-252 214.63,-216 385.37,-216 385.37,-252"/>
<text text-anchor="middle" x="300" y="-229.8" font-family="Times,serif" font-size="14.00">NavigationRailComponent </text>
</g>
<!-- NavigationComponentModule&#45;&gt;NavigationRailComponent  -->
<g id="edge19" class="edge">
<title>NavigationComponentModule&#45;&gt;NavigationRailComponent </title>
<path fill="none" stroke="black" stroke-dasharray="5,2" d="M927.17,-175C733.8,-175 308.88,-175 308.88,-175 308.88,-175 308.88,-205.98 308.88,-205.98"/>
<polygon fill="black" stroke="black" points="305.38,-205.98 308.88,-215.98 312.38,-205.98 305.38,-205.98"/>
</g>
<!-- NavigationTreeComponent  -->
<g id="node21" class="node">
<title>NavigationTreeComponent </title>
<polygon fill="#fb8072" stroke="black" points="196.18,-252 23.82,-252 23.82,-216 196.18,-216 196.18,-252"/>
<text text-anchor="middle" x="110" y="-229.8" font-family="Times,serif" font-size="14.00">NavigationTreeComponent </text>
</g>
<!-- NavigationComponentModule&#45;&gt;NavigationTreeComponent  -->
<g id="edge20" class="edge">
<title>NavigationComponentModule&#45;&gt;NavigationTreeComponent </title>
<path fill="none" stroke="black" stroke-dasharray="5,2" d="M927.22,-171C696.67,-171 120.88,-171 120.88,-171 120.88,-171 120.88,-205.78 120.88,-205.78"/>
<polygon fill="black" stroke="black" points="117.38,-205.78 120.88,-215.78 124.38,-205.78 117.38,-205.78"/>
</g>
</g>
</svg>
