<?xml version="1.0" encoding="UTF-8" standalone="no"?>
<!DOCTYPE svg PUBLIC "-//W3C//DTD SVG 1.1//EN"
 "http://www.w3.org/Graphics/SVG/1.1/DTD/svg11.dtd">
<!-- Generated by graphviz version 2.47.0 (20210316.0004)
 -->
<!-- Title: dependencies Pages: 1 -->
<svg width="504pt" height="284pt"
 viewBox="0.00 0.00 504.00 284.00" xmlns="http://www.w3.org/2000/svg" xmlns:xlink="http://www.w3.org/1999/xlink">
<g id="graph0" class="graph" transform="scale(1 1) rotate(0) translate(4 280)">
<title>dependencies</title>
<polygon fill="white" stroke="transparent" points="-4,4 -4,-280 500,-280 500,4 -4,4"/>
<text text-anchor="start" x="227.01" y="-42.4" font-family="Times-12" font-weight="bold" font-size="14.00">Legend</text>
<polygon fill="#ffffb3" stroke="transparent" points="14,-10 14,-30 34,-30 34,-10 14,-10"/>
<text text-anchor="start" x="37.63" y="-15.4" font-family="Times-12" font-size="14.00"> &#160;Declarations</text>
<polygon fill="#8dd3c7" stroke="transparent" points="127,-10 127,-30 147,-30 147,-10 127,-10"/>
<text text-anchor="start" x="150.73" y="-15.4" font-family="Times-12" font-size="14.00"> &#160;Module</text>
<polygon fill="#80b1d3" stroke="transparent" points="213,-10 213,-30 233,-30 233,-10 213,-10"/>
<text text-anchor="start" x="236.78" y="-15.4" font-family="Times-12" font-size="14.00"> &#160;Bootstrap</text>
<polygon fill="#fdb462" stroke="transparent" points="310,-10 310,-30 330,-30 330,-10 310,-10"/>
<text text-anchor="start" x="333.67" y="-15.4" font-family="Times-12" font-size="14.00"> &#160;Providers</text>
<polygon fill="#fb8072" stroke="transparent" points="406,-10 406,-30 426,-30 426,-10 406,-10"/>
<text text-anchor="start" x="429.73" y="-15.4" font-family="Times-12" font-size="14.00"> &#160;Exports</text>
<g id="clust1" class="cluster">
<title>cluster_TaskContentComponentModule</title>
<polygon fill="none" stroke="black" stroke-dasharray="1,5" points="34,-70 34,-268 462,-268 462,-70 34,-70"/>
</g>
<g id="clust6" class="cluster">
<title>cluster_TaskContentComponentModule_exports</title>
<polygon fill="none" stroke="black" points="150,-208 150,-260 322,-260 322,-208 150,-208"/>
</g>
<g id="clust2" class="cluster">
<title>cluster_TaskContentComponentModule_declarations</title>
<polygon fill="none" stroke="black" points="42,-78 42,-130 454,-130 454,-78 42,-78"/>
</g>
<!-- FieldComponentResolverComponent -->
<g id="node1" class="node">
<title>FieldComponentResolverComponent</title>
<polygon fill="#ffffb3" stroke="black" points="445.7,-122 220.3,-122 220.3,-86 445.7,-86 445.7,-122"/>
<text text-anchor="middle" x="333" y="-99.8" font-family="Times,serif" font-size="14.00">FieldComponentResolverComponent</text>
</g>
<!-- TaskContentComponentModule -->
<g id="node3" class="node">
<title>TaskContentComponentModule</title>
<polygon fill="#8dd3c7" stroke="black" points="334.43,-187 331.43,-191 310.43,-191 307.43,-187 137.57,-187 137.57,-151 334.43,-151 334.43,-187"/>
<text text-anchor="middle" x="236" y="-164.8" font-family="Times,serif" font-size="14.00">TaskContentComponentModule</text>
</g>
<!-- FieldComponentResolverComponent&#45;&gt;TaskContentComponentModule -->
<g id="edge1" class="edge">
<title>FieldComponentResolverComponent&#45;&gt;TaskContentComponentModule</title>
<path fill="none" stroke="black" d="M277.31,-122.11C277.31,-122.11 277.31,-140.99 277.31,-140.99"/>
<polygon fill="black" stroke="black" points="273.81,-140.99 277.31,-150.99 280.81,-140.99 273.81,-140.99"/>
</g>
<!-- TaskContentComponent -->
<g id="node2" class="node">
<title>TaskContentComponent</title>
<polygon fill="#ffffb3" stroke="black" points="202.38,-122 49.62,-122 49.62,-86 202.38,-86 202.38,-122"/>
<text text-anchor="middle" x="126" y="-99.8" font-family="Times,serif" font-size="14.00">TaskContentComponent</text>
</g>
<!-- TaskContentComponent&#45;&gt;TaskContentComponentModule -->
<g id="edge2" class="edge">
<title>TaskContentComponent&#45;&gt;TaskContentComponentModule</title>
<path fill="none" stroke="black" d="M170.11,-122.11C170.11,-122.11 170.11,-140.99 170.11,-140.99"/>
<polygon fill="black" stroke="black" points="166.61,-140.99 170.11,-150.99 173.61,-140.99 166.61,-140.99"/>
</g>
<!-- TaskContentComponent  -->
<g id="node4" class="node">
<title>TaskContentComponent </title>
<polygon fill="#fb8072" stroke="black" points="314.38,-252 157.62,-252 157.62,-216 314.38,-216 314.38,-252"/>
<text text-anchor="middle" x="236" y="-229.8" font-family="Times,serif" font-size="14.00">TaskContentComponent </text>
</g>
<!-- TaskContentComponentModule&#45;&gt;TaskContentComponent  -->
<g id="edge3" class="edge">
<title>TaskContentComponentModule&#45;&gt;TaskContentComponent </title>
<path fill="none" stroke="black" stroke-dasharray="5,2" d="M236,-187.11C236,-187.11 236,-205.99 236,-205.99"/>
<polygon fill="black" stroke="black" points="232.5,-205.99 236,-215.99 239.5,-205.99 232.5,-205.99"/>
</g>
</g>
</svg>
