<?xml version="1.0" encoding="UTF-8" standalone="no"?>
<!DOCTYPE svg PUBLIC "-//W3C//DTD SVG 1.1//EN"
 "http://www.w3.org/Graphics/SVG/1.1/DTD/svg11.dtd">
<!-- Generated by graphviz version 3.0.0 (20220226.1711)
 -->
<!-- Title: dependencies Pages: 1 -->
<svg width="452pt" height="247pt"
 viewBox="0.00 0.00 452.00 246.80" xmlns="http://www.w3.org/2000/svg" xmlns:xlink="http://www.w3.org/1999/xlink">
<g id="graph0" class="graph" transform="scale(1 1) rotate(0) translate(4 242.8)">
<title>dependencies</title>
<polygon fill="white" stroke="transparent" points="-4,4 -4,-242.8 448,-242.8 448,4 -4,4"/>
<text text-anchor="middle" x="222" y="-8.2" font-family="sans-serif" font-size="14.00">dependencies</text>
<g id="clust1" class="cluster">
<title>cluster_TaskContentComponentModule</title>
<polygon fill="none" stroke="black" stroke-dasharray="1,5" points="8,-32.8 8,-230.8 436,-230.8 436,-32.8 8,-32.8"/>
</g>
<g id="clust2" class="cluster">
<title>cluster_TaskContentComponentModule_declarations</title>
<polygon fill="none" stroke="black" points="16,-40.8 16,-92.8 428,-92.8 428,-40.8 16,-40.8"/>
</g>
<g id="clust6" class="cluster">
<title>cluster_TaskContentComponentModule_exports</title>
<polygon fill="none" stroke="black" points="124,-170.8 124,-222.8 296,-222.8 296,-170.8 124,-170.8"/>
</g>
<!-- FieldComponentResolverComponent -->
<g id="node1" class="node">
<title>FieldComponentResolverComponent</title>
<polygon fill="#ffffb3" stroke="black" points="419.71,-84.8 194.29,-84.8 194.29,-48.8 419.71,-48.8 419.71,-84.8"/>
<text text-anchor="middle" x="307" y="-62.6" font-family="Times,serif" font-size="14.00">FieldComponentResolverComponent</text>
</g>
<!-- TaskContentComponentModule -->
<g id="node3" class="node">
<title>TaskContentComponentModule</title>
<polygon fill="#8dd3c7" stroke="black" points="308.43,-149.8 305.43,-153.8 284.43,-153.8 281.43,-149.8 111.57,-149.8 111.57,-113.8 308.43,-113.8 308.43,-149.8"/>
<text text-anchor="middle" x="210" y="-127.6" font-family="Times,serif" font-size="14.00">TaskContentComponentModule</text>
</g>
<!-- FieldComponentResolverComponent&#45;&gt;TaskContentComponentModule -->
<g id="edge1" class="edge">
<title>FieldComponentResolverComponent&#45;&gt;TaskContentComponentModule</title>
<path fill="none" stroke="black" d="M251.31,-84.91C251.31,-84.91 251.31,-103.79 251.31,-103.79"/>
<polygon fill="black" stroke="black" points="247.81,-103.79 251.31,-113.79 254.81,-103.79 247.81,-103.79"/>
</g>
<!-- TaskContentComponent -->
<g id="node2" class="node">
<title>TaskContentComponent</title>
<polygon fill="#ffffb3" stroke="black" points="176.38,-84.8 23.62,-84.8 23.62,-48.8 176.38,-48.8 176.38,-84.8"/>
<text text-anchor="middle" x="100" y="-62.6" font-family="Times,serif" font-size="14.00">TaskContentComponent</text>
</g>
<!-- TaskContentComponent&#45;&gt;TaskContentComponentModule -->
<g id="edge2" class="edge">
<title>TaskContentComponent&#45;&gt;TaskContentComponentModule</title>
<path fill="none" stroke="black" d="M144.11,-84.91C144.11,-84.91 144.11,-103.79 144.11,-103.79"/>
<polygon fill="black" stroke="black" points="140.61,-103.79 144.11,-113.79 147.61,-103.79 140.61,-103.79"/>
</g>
<!-- TaskContentComponent  -->
<g id="node4" class="node">
<title>TaskContentComponent </title>
<polygon fill="#fb8072" stroke="black" points="288.38,-214.8 131.62,-214.8 131.62,-178.8 288.38,-178.8 288.38,-214.8"/>
<text text-anchor="middle" x="210" y="-192.6" font-family="Times,serif" font-size="14.00">TaskContentComponent </text>
</g>
<!-- TaskContentComponentModule&#45;&gt;TaskContentComponent  -->
<g id="edge3" class="edge">
<title>TaskContentComponentModule&#45;&gt;TaskContentComponent </title>
<path fill="none" stroke="black" stroke-dasharray="5,2" d="M210,-149.91C210,-149.91 210,-168.79 210,-168.79"/>
<polygon fill="black" stroke="black" points="206.5,-168.79 210,-178.79 213.5,-168.79 206.5,-168.79"/>
</g>
</g>
</svg>
