<?xml version="1.0" encoding="UTF-8" standalone="no"?>
<!DOCTYPE svg PUBLIC "-//W3C//DTD SVG 1.1//EN"
 "http://www.w3.org/Graphics/SVG/1.1/DTD/svg11.dtd">
<!-- Generated by graphviz version 5.0.0 (20220707.1540)
 -->
<!-- Title: dependencies Pages: 1 -->
<svg width="298pt" height="247pt"
 viewBox="0.00 0.00 298.00 246.80" xmlns="http://www.w3.org/2000/svg" xmlns:xlink="http://www.w3.org/1999/xlink">
<g id="graph0" class="graph" transform="scale(1 1) rotate(0) translate(4 242.8)">
<title>dependencies</title>
<polygon fill="white" stroke="transparent" points="-4,4 -4,-242.8 294,-242.8 294,4 -4,4"/>
<text text-anchor="middle" x="145" y="-8.2" font-family="sans-serif" font-size="14.00">dependencies</text>
<g id="clust1" class="cluster">
<title>cluster_SideMenuFilterSelectorComponentModule</title>
<polygon fill="none" stroke="black" stroke-dasharray="1,5" points="8,-32.8 8,-230.8 282,-230.8 282,-32.8 8,-32.8"/>
</g>
<g id="clust5" class="cluster">
<title>cluster_SideMenuFilterSelectorComponentModule_exports</title>
<polygon fill="none" stroke="black" points="56,-170.8 56,-222.8 234,-222.8 234,-170.8 56,-170.8"/>
</g>
<g id="clust2" class="cluster">
<title>cluster_SideMenuFilterSelectorComponentModule_declarations</title>
<polygon fill="none" stroke="black" points="58,-40.8 58,-92.8 232,-92.8 232,-40.8 58,-40.8"/>
</g>
<!-- FilterSelectorComponent -->
<g id="node1" class="node">
<title>FilterSelectorComponent</title>
<polygon fill="#ffffb3" stroke="black" points="223.53,-84.8 66.47,-84.8 66.47,-48.8 223.53,-48.8 223.53,-84.8"/>
<text text-anchor="middle" x="145" y="-62.6" font-family="Times,serif" font-size="14.00">FilterSelectorComponent</text>
</g>
<!-- SideMenuFilterSelectorComponentModule -->
<g id="node2" class="node">
<title>SideMenuFilterSelectorComponentModule</title>
<polygon fill="#8dd3c7" stroke="black" points="274.14,-149.8 271.14,-153.8 250.14,-153.8 247.14,-149.8 15.86,-149.8 15.86,-113.8 274.14,-113.8 274.14,-149.8"/>
<text text-anchor="middle" x="145" y="-127.6" font-family="Times,serif" font-size="14.00">SideMenuFilterSelectorComponentModule</text>
</g>
<!-- FilterSelectorComponent&#45;&gt;SideMenuFilterSelectorComponentModule -->
<g id="edge1" class="edge">
<title>FilterSelectorComponent&#45;&gt;SideMenuFilterSelectorComponentModule</title>
<path fill="none" stroke="black" d="M145,-84.91C145,-84.91 145,-103.79 145,-103.79"/>
<polygon fill="black" stroke="black" points="141.5,-103.79 145,-113.79 148.5,-103.79 141.5,-103.79"/>
</g>
<!-- FilterSelectorComponent  -->
<g id="node3" class="node">
<title>FilterSelectorComponent </title>
<polygon fill="#fb8072" stroke="black" points="225.53,-214.8 64.47,-214.8 64.47,-178.8 225.53,-178.8 225.53,-214.8"/>
<text text-anchor="middle" x="145" y="-192.6" font-family="Times,serif" font-size="14.00">FilterSelectorComponent </text>
</g>
<!-- SideMenuFilterSelectorComponentModule&#45;&gt;FilterSelectorComponent  -->
<g id="edge2" class="edge">
<title>SideMenuFilterSelectorComponentModule&#45;&gt;FilterSelectorComponent </title>
<path fill="none" stroke="black" stroke-dasharray="5,2" d="M145,-149.91C145,-149.91 145,-168.79 145,-168.79"/>
<polygon fill="black" stroke="black" points="141.5,-168.79 145,-178.79 148.5,-168.79 141.5,-168.79"/>
</g>
</g>
</svg>
