<?xml version="1.0" encoding="UTF-8" standalone="no"?>
<!DOCTYPE svg PUBLIC "-//W3C//DTD SVG 1.1//EN"
 "http://www.w3.org/Graphics/SVG/1.1/DTD/svg11.dtd">
<!-- Generated by graphviz version 2.47.3 (20210619.1520)
 -->
<!-- Title: dependencies Pages: 1 -->
<svg width="396pt" height="247pt"
 viewBox="0.00 0.00 396.00 246.80" xmlns="http://www.w3.org/2000/svg" xmlns:xlink="http://www.w3.org/1999/xlink">
<g id="graph0" class="graph" transform="scale(1 1) rotate(0) translate(4 242.8)">
<title>dependencies</title>
<polygon fill="white" stroke="transparent" points="-4,4 -4,-242.8 392,-242.8 392,4 -4,4"/>
<text text-anchor="middle" x="194" y="-8.2" font-family="sans-serif" font-size="14.00">dependencies</text>
<g id="clust1" class="cluster">
<title>cluster_AdminComponentModule</title>
<polygon fill="none" stroke="black" stroke-dasharray="1,5" points="8,-32.8 8,-230.8 380,-230.8 380,-32.8 8,-32.8"/>
</g>
<g id="clust2" class="cluster">
<title>cluster_AdminComponentModule_declarations</title>
<polygon fill="none" stroke="black" points="19,-40.8 19,-92.8 368,-92.8 368,-40.8 19,-40.8"/>
</g>
<g id="clust6" class="cluster">
<title>cluster_AdminComponentModule_exports</title>
<polygon fill="none" stroke="black" points="16,-170.8 16,-222.8 372,-222.8 372,-170.8 16,-170.8"/>
</g>
<!-- RoleAssignmentComponent -->
<g id="node1" class="node">
<title>RoleAssignmentComponent</title>
<polygon fill="#ffffb3" stroke="black" points="360.16,-84.8 185.84,-84.8 185.84,-48.8 360.16,-48.8 360.16,-84.8"/>
<text text-anchor="middle" x="273" y="-62.6" font-family="Times,serif" font-size="14.00">RoleAssignmentComponent</text>
</g>
<!-- AdminComponentModule -->
<g id="node3" class="node">
<title>AdminComponentModule</title>
<polygon fill="#8dd3c7" stroke="black" points="265.77,-149.8 262.77,-153.8 241.77,-153.8 238.77,-149.8 102.23,-149.8 102.23,-113.8 265.77,-113.8 265.77,-149.8"/>
<text text-anchor="middle" x="184" y="-127.6" font-family="Times,serif" font-size="14.00">AdminComponentModule</text>
</g>
<!-- RoleAssignmentComponent&#45;&gt;AdminComponentModule -->
<g id="edge1" class="edge">
<title>RoleAssignmentComponent&#45;&gt;AdminComponentModule</title>
<path fill="none" stroke="black" d="M225.78,-84.91C225.78,-84.91 225.78,-103.79 225.78,-103.79"/>
<polygon fill="black" stroke="black" points="222.28,-103.79 225.78,-113.79 229.28,-103.79 222.28,-103.79"/>
</g>
<!-- UserInviteComponent -->
<g id="node2" class="node">
<title>UserInviteComponent</title>
<polygon fill="#ffffb3" stroke="black" points="167.42,-84.8 26.58,-84.8 26.58,-48.8 167.42,-48.8 167.42,-84.8"/>
<text text-anchor="middle" x="97" y="-62.6" font-family="Times,serif" font-size="14.00">UserInviteComponent</text>
</g>
<!-- UserInviteComponent&#45;&gt;AdminComponentModule -->
<g id="edge2" class="edge">
<title>UserInviteComponent&#45;&gt;AdminComponentModule</title>
<path fill="none" stroke="black" d="M134.66,-84.91C134.66,-84.91 134.66,-103.79 134.66,-103.79"/>
<polygon fill="black" stroke="black" points="131.16,-103.79 134.66,-113.79 138.16,-103.79 131.16,-103.79"/>
</g>
<!-- RoleAssignmentComponent  -->
<g id="node4" class="node">
<title>RoleAssignmentComponent </title>
<polygon fill="#fb8072" stroke="black" points="364.16,-214.8 185.84,-214.8 185.84,-178.8 364.16,-178.8 364.16,-214.8"/>
<text text-anchor="middle" x="275" y="-192.6" font-family="Times,serif" font-size="14.00">RoleAssignmentComponent </text>
</g>
<!-- AdminComponentModule&#45;&gt;RoleAssignmentComponent  -->
<g id="edge3" class="edge">
<title>AdminComponentModule&#45;&gt;RoleAssignmentComponent </title>
<path fill="none" stroke="black" stroke-dasharray="5,2" d="M225.9,-149.91C225.9,-149.91 225.9,-168.79 225.9,-168.79"/>
<polygon fill="black" stroke="black" points="222.4,-168.79 225.9,-178.79 229.4,-168.79 222.4,-168.79"/>
</g>
<!-- UserInviteComponent  -->
<g id="node5" class="node">
<title>UserInviteComponent </title>
<polygon fill="#fb8072" stroke="black" points="167.92,-214.8 24.08,-214.8 24.08,-178.8 167.92,-178.8 167.92,-214.8"/>
<text text-anchor="middle" x="96" y="-192.6" font-family="Times,serif" font-size="14.00">UserInviteComponent </text>
</g>
<!-- AdminComponentModule&#45;&gt;UserInviteComponent  -->
<g id="edge4" class="edge">
<title>AdminComponentModule&#45;&gt;UserInviteComponent </title>
<path fill="none" stroke="black" stroke-dasharray="5,2" d="M135.04,-149.91C135.04,-149.91 135.04,-168.79 135.04,-168.79"/>
<polygon fill="black" stroke="black" points="131.54,-168.79 135.04,-178.79 138.54,-168.79 131.54,-168.79"/>
</g>
</g>
</svg>
