<?xml version="1.0" encoding="UTF-8" standalone="no"?>
<!DOCTYPE svg PUBLIC "-//W3C//DTD SVG 1.1//EN"
 "http://www.w3.org/Graphics/SVG/1.1/DTD/svg11.dtd">
<!-- Generated by graphviz version 5.0.0 (20220707.1540)
 -->
<!-- Title: dependencies Pages: 1 -->
<svg width="656pt" height="247pt"
 viewBox="0.00 0.00 656.00 246.80" xmlns="http://www.w3.org/2000/svg" xmlns:xlink="http://www.w3.org/1999/xlink">
<g id="graph0" class="graph" transform="scale(1 1) rotate(0) translate(4 242.8)">
<title>dependencies</title>
<polygon fill="white" stroke="transparent" points="-4,4 -4,-242.8 652,-242.8 652,4 -4,4"/>
<text text-anchor="middle" x="324" y="-8.2" font-family="sans-serif" font-size="14.00">dependencies</text>
<g id="clust1" class="cluster">
<title>cluster_AdminComponentModule</title>
<polygon fill="none" stroke="black" stroke-dasharray="1,5" points="8,-32.8 8,-230.8 640,-230.8 640,-32.8 8,-32.8"/>
</g>
<g id="clust2" class="cluster">
<title>cluster_AdminComponentModule_declarations</title>
<polygon fill="none" stroke="black" points="21,-40.8 21,-92.8 628,-92.8 628,-40.8 21,-40.8"/>
</g>
<g id="clust7" class="cluster">
<title>cluster_AdminComponentModule_exports</title>
<polygon fill="none" stroke="black" points="16,-170.8 16,-222.8 632,-222.8 632,-170.8 16,-170.8"/>
</g>
<!-- LdapGroupRoleAssignmentComponent -->
<g id="node1" class="node">
<title>LdapGroupRoleAssignmentComponent</title>
<polygon fill="#ffffb3" stroke="black" points="619.7,-84.8 380.3,-84.8 380.3,-48.8 619.7,-48.8 619.7,-84.8"/>
<text text-anchor="middle" x="500" y="-62.6" font-family="Times,serif" font-size="14.00">LdapGroupRoleAssignmentComponent</text>
</g>
<!-- AdminComponentModule -->
<g id="node4" class="node">
<title>AdminComponentModule</title>
<polygon fill="#8dd3c7" stroke="black" points="356.77,-149.8 353.77,-153.8 332.77,-153.8 329.77,-149.8 193.23,-149.8 193.23,-113.8 356.77,-113.8 356.77,-149.8"/>
<text text-anchor="middle" x="275" y="-127.6" font-family="Times,serif" font-size="14.00">AdminComponentModule</text>
</g>
<!-- LdapGroupRoleAssignmentComponent&#45;&gt;AdminComponentModule -->
<g id="edge1" class="edge">
<title>LdapGroupRoleAssignmentComponent&#45;&gt;AdminComponentModule</title>
<path fill="none" stroke="black" d="M540.28,-84.82C540.28,-102.17 540.28,-125.8 540.28,-125.8 540.28,-125.8 367.12,-125.8 367.12,-125.8"/>
<polygon fill="black" stroke="black" points="367.12,-122.3 357.12,-125.8 367.12,-129.3 367.12,-122.3"/>
</g>
<!-- RoleAssignmentComponent -->
<g id="node2" class="node">
<title>RoleAssignmentComponent</title>
<polygon fill="#ffffb3" stroke="black" points="362.16,-84.8 187.84,-84.8 187.84,-48.8 362.16,-48.8 362.16,-84.8"/>
<text text-anchor="middle" x="275" y="-62.6" font-family="Times,serif" font-size="14.00">RoleAssignmentComponent</text>
</g>
<!-- RoleAssignmentComponent&#45;&gt;AdminComponentModule -->
<g id="edge2" class="edge">
<title>RoleAssignmentComponent&#45;&gt;AdminComponentModule</title>
<path fill="none" stroke="black" d="M275,-84.91C275,-84.91 275,-103.79 275,-103.79"/>
<polygon fill="black" stroke="black" points="271.5,-103.79 275,-113.79 278.5,-103.79 271.5,-103.79"/>
</g>
<!-- UserInviteComponent -->
<g id="node3" class="node">
<title>UserInviteComponent</title>
<polygon fill="#ffffb3" stroke="black" points="169.42,-84.8 28.58,-84.8 28.58,-48.8 169.42,-48.8 169.42,-84.8"/>
<text text-anchor="middle" x="99" y="-62.6" font-family="Times,serif" font-size="14.00">UserInviteComponent</text>
</g>
<!-- UserInviteComponent&#45;&gt;AdminComponentModule -->
<g id="edge3" class="edge">
<title>UserInviteComponent&#45;&gt;AdminComponentModule</title>
<path fill="none" stroke="black" d="M121.57,-84.82C121.57,-102.17 121.57,-125.8 121.57,-125.8 121.57,-125.8 182.9,-125.8 182.9,-125.8"/>
<polygon fill="black" stroke="black" points="182.9,-129.3 192.9,-125.8 182.89,-122.3 182.9,-129.3"/>
</g>
<!-- LdapGroupRoleAssignmentComponent  -->
<g id="node5" class="node">
<title>LdapGroupRoleAssignmentComponent </title>
<polygon fill="#fb8072" stroke="black" points="624.2,-214.8 381.8,-214.8 381.8,-178.8 624.2,-178.8 624.2,-214.8"/>
<text text-anchor="middle" x="503" y="-192.6" font-family="Times,serif" font-size="14.00">LdapGroupRoleAssignmentComponent </text>
</g>
<!-- AdminComponentModule&#45;&gt;LdapGroupRoleAssignmentComponent  -->
<g id="edge4" class="edge">
<title>AdminComponentModule&#45;&gt;LdapGroupRoleAssignmentComponent </title>
<path fill="none" stroke="black" stroke-dasharray="5,2" d="M356.84,-137.8C406.73,-137.8 460.97,-137.8 460.97,-137.8 460.97,-137.8 460.97,-168.78 460.97,-168.78"/>
<polygon fill="black" stroke="black" points="457.47,-168.78 460.97,-178.78 464.47,-168.78 457.47,-168.78"/>
</g>
<!-- RoleAssignmentComponent  -->
<g id="node6" class="node">
<title>RoleAssignmentComponent </title>
<polygon fill="#fb8072" stroke="black" points="364.16,-214.8 185.84,-214.8 185.84,-178.8 364.16,-178.8 364.16,-214.8"/>
<text text-anchor="middle" x="275" y="-192.6" font-family="Times,serif" font-size="14.00">RoleAssignmentComponent </text>
</g>
<!-- AdminComponentModule&#45;&gt;RoleAssignmentComponent  -->
<g id="edge5" class="edge">
<title>AdminComponentModule&#45;&gt;RoleAssignmentComponent </title>
<path fill="none" stroke="black" stroke-dasharray="5,2" d="M275,-149.91C275,-149.91 275,-168.79 275,-168.79"/>
<polygon fill="black" stroke="black" points="271.5,-168.79 275,-178.79 278.5,-168.79 271.5,-168.79"/>
</g>
<!-- UserInviteComponent  -->
<g id="node7" class="node">
<title>UserInviteComponent </title>
<polygon fill="#fb8072" stroke="black" points="167.92,-214.8 24.08,-214.8 24.08,-178.8 167.92,-178.8 167.92,-214.8"/>
<text text-anchor="middle" x="96" y="-192.6" font-family="Times,serif" font-size="14.00">UserInviteComponent </text>
</g>
<!-- AdminComponentModule&#45;&gt;UserInviteComponent  -->
<g id="edge6" class="edge">
<title>AdminComponentModule&#45;&gt;UserInviteComponent </title>
<path fill="none" stroke="black" stroke-dasharray="5,2" d="M193.15,-137.8C137.97,-137.8 75.18,-137.8 75.18,-137.8 75.18,-137.8 75.18,-168.78 75.18,-168.78"/>
<polygon fill="black" stroke="black" points="71.68,-168.78 75.18,-178.78 78.68,-168.78 71.68,-168.78"/>
</g>
</g>
</svg>
