<?xml version="1.0" encoding="UTF-8" standalone="no"?>
<!DOCTYPE svg PUBLIC "-//W3C//DTD SVG 1.1//EN"
 "http://www.w3.org/Graphics/SVG/1.1/DTD/svg11.dtd">
<!-- Generated by graphviz version 2.47.0 (20210316.0004)
 -->
<!-- Title: dependencies Pages: 1 -->
<svg width="656pt" height="284pt"
 viewBox="0.00 0.00 656.00 284.00" xmlns="http://www.w3.org/2000/svg" xmlns:xlink="http://www.w3.org/1999/xlink">
<g id="graph0" class="graph" transform="scale(1 1) rotate(0) translate(4 280)">
<title>dependencies</title>
<polygon fill="white" stroke="transparent" points="-4,4 -4,-280 652,-280 652,4 -4,4"/>
<text text-anchor="start" x="303.01" y="-42.4" font-family="Times-12" font-weight="bold" font-size="14.00">Legend</text>
<polygon fill="#ffffb3" stroke="transparent" points="90,-10 90,-30 110,-30 110,-10 90,-10"/>
<text text-anchor="start" x="113.63" y="-15.4" font-family="Times-12" font-size="14.00"> &#160;Declarations</text>
<polygon fill="#8dd3c7" stroke="transparent" points="203,-10 203,-30 223,-30 223,-10 203,-10"/>
<text text-anchor="start" x="226.73" y="-15.4" font-family="Times-12" font-size="14.00"> &#160;Module</text>
<polygon fill="#80b1d3" stroke="transparent" points="289,-10 289,-30 309,-30 309,-10 289,-10"/>
<text text-anchor="start" x="312.78" y="-15.4" font-family="Times-12" font-size="14.00"> &#160;Bootstrap</text>
<polygon fill="#fdb462" stroke="transparent" points="386,-10 386,-30 406,-30 406,-10 386,-10"/>
<text text-anchor="start" x="409.67" y="-15.4" font-family="Times-12" font-size="14.00"> &#160;Providers</text>
<polygon fill="#fb8072" stroke="transparent" points="482,-10 482,-30 502,-30 502,-10 482,-10"/>
<text text-anchor="start" x="505.73" y="-15.4" font-family="Times-12" font-size="14.00"> &#160;Exports</text>
<g id="clust1" class="cluster">
<title>cluster_AdminComponentModule</title>
<polygon fill="none" stroke="black" stroke-dasharray="1,5" points="8,-70 8,-268 640,-268 640,-70 8,-70"/>
</g>
<g id="clust2" class="cluster">
<title>cluster_AdminComponentModule_declarations</title>
<polygon fill="none" stroke="black" points="21,-78 21,-130 628,-130 628,-78 21,-78"/>
</g>
<g id="clust7" class="cluster">
<title>cluster_AdminComponentModule_exports</title>
<polygon fill="none" stroke="black" points="16,-208 16,-260 632,-260 632,-208 16,-208"/>
</g>
<!-- LdapGroupRoleAssignmentComponent -->
<g id="node1" class="node">
<title>LdapGroupRoleAssignmentComponent</title>
<polygon fill="#ffffb3" stroke="black" points="619.69,-122 380.31,-122 380.31,-86 619.69,-86 619.69,-122"/>
<text text-anchor="middle" x="500" y="-99.8" font-family="Times,serif" font-size="14.00">LdapGroupRoleAssignmentComponent</text>
</g>
<!-- AdminComponentModule -->
<g id="node4" class="node">
<title>AdminComponentModule</title>
<polygon fill="#8dd3c7" stroke="black" points="356.77,-187 353.77,-191 332.77,-191 329.77,-187 193.23,-187 193.23,-151 356.77,-151 356.77,-187"/>
<text text-anchor="middle" x="275" y="-164.8" font-family="Times,serif" font-size="14.00">AdminComponentModule</text>
</g>
<!-- LdapGroupRoleAssignmentComponent&#45;&gt;AdminComponentModule -->
<g id="edge1" class="edge">
<title>LdapGroupRoleAssignmentComponent&#45;&gt;AdminComponentModule</title>
<path fill="none" stroke="black" d="M540.28,-122.02C540.28,-139.37 540.28,-163 540.28,-163 540.28,-163 367.12,-163 367.12,-163"/>
<polygon fill="black" stroke="black" points="367.12,-159.5 357.12,-163 367.12,-166.5 367.12,-159.5"/>
</g>
<!-- RoleAssignmentComponent -->
<g id="node2" class="node">
<title>RoleAssignmentComponent</title>
<polygon fill="#ffffb3" stroke="black" points="362.16,-122 187.84,-122 187.84,-86 362.16,-86 362.16,-122"/>
<text text-anchor="middle" x="275" y="-99.8" font-family="Times,serif" font-size="14.00">RoleAssignmentComponent</text>
</g>
<!-- RoleAssignmentComponent&#45;&gt;AdminComponentModule -->
<g id="edge2" class="edge">
<title>RoleAssignmentComponent&#45;&gt;AdminComponentModule</title>
<path fill="none" stroke="black" d="M275,-122.11C275,-122.11 275,-140.99 275,-140.99"/>
<polygon fill="black" stroke="black" points="271.5,-140.99 275,-150.99 278.5,-140.99 271.5,-140.99"/>
</g>
<!-- UserInviteComponent -->
<g id="node3" class="node">
<title>UserInviteComponent</title>
<polygon fill="#ffffb3" stroke="black" points="169.42,-122 28.58,-122 28.58,-86 169.42,-86 169.42,-122"/>
<text text-anchor="middle" x="99" y="-99.8" font-family="Times,serif" font-size="14.00">UserInviteComponent</text>
</g>
<!-- UserInviteComponent&#45;&gt;AdminComponentModule -->
<g id="edge3" class="edge">
<title>UserInviteComponent&#45;&gt;AdminComponentModule</title>
<path fill="none" stroke="black" d="M121.57,-122.02C121.57,-139.37 121.57,-163 121.57,-163 121.57,-163 182.89,-163 182.89,-163"/>
<polygon fill="black" stroke="black" points="182.89,-166.5 192.89,-163 182.89,-159.5 182.89,-166.5"/>
</g>
<!-- LdapGroupRoleAssignmentComponent  -->
<g id="node5" class="node">
<title>LdapGroupRoleAssignmentComponent </title>
<polygon fill="#fb8072" stroke="black" points="624.19,-252 381.81,-252 381.81,-216 624.19,-216 624.19,-252"/>
<text text-anchor="middle" x="503" y="-229.8" font-family="Times,serif" font-size="14.00">LdapGroupRoleAssignmentComponent </text>
</g>
<!-- AdminComponentModule&#45;&gt;LdapGroupRoleAssignmentComponent  -->
<g id="edge4" class="edge">
<title>AdminComponentModule&#45;&gt;LdapGroupRoleAssignmentComponent </title>
<path fill="none" stroke="black" stroke-dasharray="5,2" d="M356.84,-175C406.73,-175 460.97,-175 460.97,-175 460.97,-175 460.97,-205.98 460.97,-205.98"/>
<polygon fill="black" stroke="black" points="457.47,-205.98 460.97,-215.98 464.47,-205.98 457.47,-205.98"/>
</g>
<!-- RoleAssignmentComponent  -->
<g id="node6" class="node">
<title>RoleAssignmentComponent </title>
<polygon fill="#fb8072" stroke="black" points="364.16,-252 185.84,-252 185.84,-216 364.16,-216 364.16,-252"/>
<text text-anchor="middle" x="275" y="-229.8" font-family="Times,serif" font-size="14.00">RoleAssignmentComponent </text>
</g>
<!-- AdminComponentModule&#45;&gt;RoleAssignmentComponent  -->
<g id="edge5" class="edge">
<title>AdminComponentModule&#45;&gt;RoleAssignmentComponent </title>
<path fill="none" stroke="black" stroke-dasharray="5,2" d="M275,-187.11C275,-187.11 275,-205.99 275,-205.99"/>
<polygon fill="black" stroke="black" points="271.5,-205.99 275,-215.99 278.5,-205.99 271.5,-205.99"/>
</g>
<!-- UserInviteComponent  -->
<g id="node7" class="node">
<title>UserInviteComponent </title>
<polygon fill="#fb8072" stroke="black" points="167.92,-252 24.08,-252 24.08,-216 167.92,-216 167.92,-252"/>
<text text-anchor="middle" x="96" y="-229.8" font-family="Times,serif" font-size="14.00">UserInviteComponent </text>
</g>
<!-- AdminComponentModule&#45;&gt;UserInviteComponent  -->
<g id="edge6" class="edge">
<title>AdminComponentModule&#45;&gt;UserInviteComponent </title>
<path fill="none" stroke="black" stroke-dasharray="5,2" d="M193.15,-175C137.97,-175 75.18,-175 75.18,-175 75.18,-175 75.18,-205.98 75.18,-205.98"/>
<polygon fill="black" stroke="black" points="71.68,-205.98 75.18,-215.98 78.68,-205.98 71.68,-205.98"/>
</g>
</g>
</svg>
