<?xml version="1.0" encoding="UTF-8" standalone="no"?>
<!DOCTYPE svg PUBLIC "-//W3C//DTD SVG 1.1//EN"
 "http://www.w3.org/Graphics/SVG/1.1/DTD/svg11.dtd">
<!-- Generated by graphviz version 2.47.0 (20210316.0004)
 -->
<!-- Title: dependencies Pages: 1 -->
<svg width="721pt" height="284pt"
 viewBox="0.00 0.00 721.00 284.00" xmlns="http://www.w3.org/2000/svg" xmlns:xlink="http://www.w3.org/1999/xlink">
<g id="graph0" class="graph" transform="scale(1 1) rotate(0) translate(4 280)">
<title>dependencies</title>
<polygon fill="white" stroke="transparent" points="-4,4 -4,-280 717,-280 717,4 -4,4"/>
<text text-anchor="start" x="335.51" y="-42.4" font-family="Times-12" font-weight="bold" font-size="14.00">Legend</text>
<polygon fill="#ffffb3" stroke="transparent" points="122.5,-10 122.5,-30 142.5,-30 142.5,-10 122.5,-10"/>
<text text-anchor="start" x="146.13" y="-15.4" font-family="Times-12" font-size="14.00"> &#160;Declarations</text>
<polygon fill="#8dd3c7" stroke="transparent" points="235.5,-10 235.5,-30 255.5,-30 255.5,-10 235.5,-10"/>
<text text-anchor="start" x="259.23" y="-15.4" font-family="Times-12" font-size="14.00"> &#160;Module</text>
<polygon fill="#80b1d3" stroke="transparent" points="321.5,-10 321.5,-30 341.5,-30 341.5,-10 321.5,-10"/>
<text text-anchor="start" x="345.28" y="-15.4" font-family="Times-12" font-size="14.00"> &#160;Bootstrap</text>
<polygon fill="#fdb462" stroke="transparent" points="418.5,-10 418.5,-30 438.5,-30 438.5,-10 418.5,-10"/>
<text text-anchor="start" x="442.17" y="-15.4" font-family="Times-12" font-size="14.00"> &#160;Providers</text>
<polygon fill="#fb8072" stroke="transparent" points="514.5,-10 514.5,-30 534.5,-30 534.5,-10 514.5,-10"/>
<text text-anchor="start" x="538.23" y="-15.4" font-family="Times-12" font-size="14.00"> &#160;Exports</text>
<g id="clust1" class="cluster">
<title>cluster_TreeCaseViewComponentModule</title>
<polygon fill="none" stroke="black" stroke-dasharray="1,5" points="8,-70 8,-268 705,-268 705,-70 8,-70"/>
</g>
<g id="clust8" class="cluster">
<title>cluster_TreeCaseViewComponentModule_exports</title>
<polygon fill="none" stroke="black" points="95,-208 95,-260 421,-260 421,-208 95,-208"/>
</g>
<g id="clust2" class="cluster">
<title>cluster_TreeCaseViewComponentModule_declarations</title>
<polygon fill="none" stroke="black" points="16,-78 16,-130 697,-130 697,-78 16,-78"/>
</g>
<!-- AddChildNodeComponent -->
<g id="node1" class="node">
<title>AddChildNodeComponent</title>
<polygon fill="#ffffb3" stroke="black" points="689.38,-122 522.62,-122 522.62,-86 689.38,-86 689.38,-122"/>
<text text-anchor="middle" x="606" y="-99.8" font-family="Times,serif" font-size="14.00">AddChildNodeComponent</text>
</g>
<!-- TreeCaseViewComponentModule -->
<g id="node5" class="node">
<title>TreeCaseViewComponentModule</title>
<polygon fill="#8dd3c7" stroke="black" points="420.05,-187 417.05,-191 396.05,-191 393.05,-187 211.95,-187 211.95,-151 420.05,-151 420.05,-187"/>
<text text-anchor="middle" x="316" y="-164.8" font-family="Times,serif" font-size="14.00">TreeCaseViewComponentModule</text>
</g>
<!-- AddChildNodeComponent&#45;&gt;TreeCaseViewComponentModule -->
<g id="edge1" class="edge">
<title>AddChildNodeComponent&#45;&gt;TreeCaseViewComponentModule</title>
<path fill="none" stroke="black" d="M606,-122.11C606,-141.34 606,-169 606,-169 606,-169 430.29,-169 430.29,-169"/>
<polygon fill="black" stroke="black" points="430.29,-165.5 420.29,-169 430.29,-172.5 430.29,-165.5"/>
</g>
<!-- RemoveNodeComponent -->
<g id="node2" class="node">
<title>RemoveNodeComponent</title>
<polygon fill="#ffffb3" stroke="black" points="504.31,-122 345.69,-122 345.69,-86 504.31,-86 504.31,-122"/>
<text text-anchor="middle" x="425" y="-99.8" font-family="Times,serif" font-size="14.00">RemoveNodeComponent</text>
</g>
<!-- RemoveNodeComponent&#45;&gt;TreeCaseViewComponentModule -->
<g id="edge2" class="edge">
<title>RemoveNodeComponent&#45;&gt;TreeCaseViewComponentModule</title>
<path fill="none" stroke="black" d="M382.94,-122.11C382.94,-122.11 382.94,-140.99 382.94,-140.99"/>
<polygon fill="black" stroke="black" points="379.44,-140.99 382.94,-150.99 386.44,-140.99 379.44,-140.99"/>
</g>
<!-- TreeComponent -->
<g id="node3" class="node">
<title>TreeComponent</title>
<polygon fill="#ffffb3" stroke="black" points="327.47,-122 220.53,-122 220.53,-86 327.47,-86 327.47,-122"/>
<text text-anchor="middle" x="274" y="-99.8" font-family="Times,serif" font-size="14.00">TreeComponent</text>
</g>
<!-- TreeComponent&#45;&gt;TreeCaseViewComponentModule -->
<g id="edge3" class="edge">
<title>TreeComponent&#45;&gt;TreeCaseViewComponentModule</title>
<path fill="none" stroke="black" d="M274,-122.11C274,-122.11 274,-140.99 274,-140.99"/>
<polygon fill="black" stroke="black" points="270.5,-140.99 274,-150.99 277.5,-140.99 270.5,-140.99"/>
</g>
<!-- TreeTaskContentComponent -->
<g id="node4" class="node">
<title>TreeTaskContentComponent</title>
<polygon fill="#ffffb3" stroke="black" points="202.02,-122 23.98,-122 23.98,-86 202.02,-86 202.02,-122"/>
<text text-anchor="middle" x="113" y="-99.8" font-family="Times,serif" font-size="14.00">TreeTaskContentComponent</text>
</g>
<!-- TreeTaskContentComponent&#45;&gt;TreeCaseViewComponentModule -->
<g id="edge4" class="edge">
<title>TreeTaskContentComponent&#45;&gt;TreeCaseViewComponentModule</title>
<path fill="none" stroke="black" d="M202.32,-104C210.76,-104 216.24,-104 216.24,-104 216.24,-104 216.24,-140.89 216.24,-140.89"/>
<polygon fill="black" stroke="black" points="212.74,-140.89 216.24,-150.89 219.74,-140.89 212.74,-140.89"/>
</g>
<!-- TreeComponent  -->
<g id="node6" class="node">
<title>TreeComponent </title>
<polygon fill="#fb8072" stroke="black" points="413.48,-252 302.52,-252 302.52,-216 413.48,-216 413.48,-252"/>
<text text-anchor="middle" x="358" y="-229.8" font-family="Times,serif" font-size="14.00">TreeComponent </text>
</g>
<!-- TreeCaseViewComponentModule&#45;&gt;TreeComponent  -->
<g id="edge5" class="edge">
<title>TreeCaseViewComponentModule&#45;&gt;TreeComponent </title>
<path fill="none" stroke="black" stroke-dasharray="5,2" d="M358,-187.11C358,-187.11 358,-205.99 358,-205.99"/>
<polygon fill="black" stroke="black" points="354.5,-205.99 358,-215.99 361.5,-205.99 354.5,-205.99"/>
</g>
<!-- TreeTaskContentComponent  -->
<g id="node7" class="node">
<title>TreeTaskContentComponent </title>
<polygon fill="#fb8072" stroke="black" points="285.02,-252 102.98,-252 102.98,-216 285.02,-216 285.02,-252"/>
<text text-anchor="middle" x="194" y="-229.8" font-family="Times,serif" font-size="14.00">TreeTaskContentComponent </text>
</g>
<!-- TreeCaseViewComponentModule&#45;&gt;TreeTaskContentComponent  -->
<g id="edge6" class="edge">
<title>TreeCaseViewComponentModule&#45;&gt;TreeTaskContentComponent </title>
<path fill="none" stroke="black" stroke-dasharray="5,2" d="M248.49,-187.11C248.49,-187.11 248.49,-205.99 248.49,-205.99"/>
<polygon fill="black" stroke="black" points="244.99,-205.99 248.49,-215.99 251.99,-205.99 244.99,-205.99"/>
</g>
</g>
</svg>
