<?xml version="1.0" encoding="UTF-8" standalone="no"?>
<!DOCTYPE svg PUBLIC "-//W3C//DTD SVG 1.1//EN"
 "http://www.w3.org/Graphics/SVG/1.1/DTD/svg11.dtd">
<!-- Generated by graphviz version 3.0.0 (20220226.1711)
 -->
<!-- Title: dependencies Pages: 1 -->
<svg width="721pt" height="247pt"
 viewBox="0.00 0.00 721.00 246.80" xmlns="http://www.w3.org/2000/svg" xmlns:xlink="http://www.w3.org/1999/xlink">
<g id="graph0" class="graph" transform="scale(1 1) rotate(0) translate(4 242.8)">
<title>dependencies</title>
<polygon fill="white" stroke="transparent" points="-4,4 -4,-242.8 717,-242.8 717,4 -4,4"/>
<text text-anchor="middle" x="356.5" y="-8.2" font-family="sans-serif" font-size="14.00">dependencies</text>
<g id="clust1" class="cluster">
<title>cluster_TreeCaseViewComponentModule</title>
<polygon fill="none" stroke="black" stroke-dasharray="1,5" points="8,-32.8 8,-230.8 705,-230.8 705,-32.8 8,-32.8"/>
</g>
<g id="clust8" class="cluster">
<title>cluster_TreeCaseViewComponentModule_exports</title>
<polygon fill="none" stroke="black" points="95,-170.8 95,-222.8 421,-222.8 421,-170.8 95,-170.8"/>
</g>
<g id="clust2" class="cluster">
<title>cluster_TreeCaseViewComponentModule_declarations</title>
<polygon fill="none" stroke="black" points="16,-40.8 16,-92.8 697,-92.8 697,-40.8 16,-40.8"/>
</g>
<!-- AddChildNodeComponent -->
<g id="node1" class="node">
<title>AddChildNodeComponent</title>
<polygon fill="#ffffb3" stroke="black" points="689.38,-84.8 522.62,-84.8 522.62,-48.8 689.38,-48.8 689.38,-84.8"/>
<text text-anchor="middle" x="606" y="-62.6" font-family="Times,serif" font-size="14.00">AddChildNodeComponent</text>
</g>
<!-- TreeCaseViewComponentModule -->
<g id="node5" class="node">
<title>TreeCaseViewComponentModule</title>
<polygon fill="#8dd3c7" stroke="black" points="420.06,-149.8 417.06,-153.8 396.06,-153.8 393.06,-149.8 211.94,-149.8 211.94,-113.8 420.06,-113.8 420.06,-149.8"/>
<text text-anchor="middle" x="316" y="-127.6" font-family="Times,serif" font-size="14.00">TreeCaseViewComponentModule</text>
</g>
<!-- AddChildNodeComponent&#45;&gt;TreeCaseViewComponentModule -->
<g id="edge1" class="edge">
<title>AddChildNodeComponent&#45;&gt;TreeCaseViewComponentModule</title>
<path fill="none" stroke="black" d="M606,-84.91C606,-104.14 606,-131.8 606,-131.8 606,-131.8 430.29,-131.8 430.29,-131.8"/>
<polygon fill="black" stroke="black" points="430.29,-128.3 420.29,-131.8 430.29,-135.3 430.29,-128.3"/>
</g>
<!-- RemoveNodeComponent -->
<g id="node2" class="node">
<title>RemoveNodeComponent</title>
<polygon fill="#ffffb3" stroke="black" points="504.31,-84.8 345.69,-84.8 345.69,-48.8 504.31,-48.8 504.31,-84.8"/>
<text text-anchor="middle" x="425" y="-62.6" font-family="Times,serif" font-size="14.00">RemoveNodeComponent</text>
</g>
<!-- RemoveNodeComponent&#45;&gt;TreeCaseViewComponentModule -->
<g id="edge2" class="edge">
<title>RemoveNodeComponent&#45;&gt;TreeCaseViewComponentModule</title>
<path fill="none" stroke="black" d="M382.94,-84.91C382.94,-84.91 382.94,-103.79 382.94,-103.79"/>
<polygon fill="black" stroke="black" points="379.44,-103.79 382.94,-113.79 386.44,-103.79 379.44,-103.79"/>
</g>
<!-- TreeComponent -->
<g id="node3" class="node">
<title>TreeComponent</title>
<polygon fill="#ffffb3" stroke="black" points="327.47,-84.8 220.53,-84.8 220.53,-48.8 327.47,-48.8 327.47,-84.8"/>
<text text-anchor="middle" x="274" y="-62.6" font-family="Times,serif" font-size="14.00">TreeComponent</text>
</g>
<!-- TreeComponent&#45;&gt;TreeCaseViewComponentModule -->
<g id="edge3" class="edge">
<title>TreeComponent&#45;&gt;TreeCaseViewComponentModule</title>
<path fill="none" stroke="black" d="M274,-84.91C274,-84.91 274,-103.79 274,-103.79"/>
<polygon fill="black" stroke="black" points="270.5,-103.79 274,-113.79 277.5,-103.79 270.5,-103.79"/>
</g>
<!-- TreeTaskContentComponent -->
<g id="node4" class="node">
<title>TreeTaskContentComponent</title>
<polygon fill="#ffffb3" stroke="black" points="202.02,-84.8 23.98,-84.8 23.98,-48.8 202.02,-48.8 202.02,-84.8"/>
<text text-anchor="middle" x="113" y="-62.6" font-family="Times,serif" font-size="14.00">TreeTaskContentComponent</text>
</g>
<!-- TreeTaskContentComponent&#45;&gt;TreeCaseViewComponentModule -->
<g id="edge4" class="edge">
<title>TreeTaskContentComponent&#45;&gt;TreeCaseViewComponentModule</title>
<path fill="none" stroke="black" d="M202.32,-66.8C210.76,-66.8 216.24,-66.8 216.24,-66.8 216.24,-66.8 216.24,-103.69 216.24,-103.69"/>
<polygon fill="black" stroke="black" points="212.74,-103.69 216.24,-113.69 219.74,-103.69 212.74,-103.69"/>
</g>
<!-- TreeComponent  -->
<g id="node6" class="node">
<title>TreeComponent </title>
<polygon fill="#fb8072" stroke="black" points="413.47,-214.8 302.53,-214.8 302.53,-178.8 413.47,-178.8 413.47,-214.8"/>
<text text-anchor="middle" x="358" y="-192.6" font-family="Times,serif" font-size="14.00">TreeComponent </text>
</g>
<!-- TreeCaseViewComponentModule&#45;&gt;TreeComponent  -->
<g id="edge5" class="edge">
<title>TreeCaseViewComponentModule&#45;&gt;TreeComponent </title>
<path fill="none" stroke="black" stroke-dasharray="5,2" d="M358,-149.91C358,-149.91 358,-168.79 358,-168.79"/>
<polygon fill="black" stroke="black" points="354.5,-168.79 358,-178.79 361.5,-168.79 354.5,-168.79"/>
</g>
<!-- TreeTaskContentComponent  -->
<g id="node7" class="node">
<title>TreeTaskContentComponent </title>
<polygon fill="#fb8072" stroke="black" points="285.02,-214.8 102.98,-214.8 102.98,-178.8 285.02,-178.8 285.02,-214.8"/>
<text text-anchor="middle" x="194" y="-192.6" font-family="Times,serif" font-size="14.00">TreeTaskContentComponent </text>
</g>
<!-- TreeCaseViewComponentModule&#45;&gt;TreeTaskContentComponent  -->
<g id="edge6" class="edge">
<title>TreeCaseViewComponentModule&#45;&gt;TreeTaskContentComponent </title>
<path fill="none" stroke="black" stroke-dasharray="5,2" d="M248.49,-149.91C248.49,-149.91 248.49,-168.79 248.49,-168.79"/>
<polygon fill="black" stroke="black" points="244.99,-168.79 248.49,-178.79 251.99,-168.79 244.99,-168.79"/>
</g>
</g>
</svg>
