<?xml version="1.0" encoding="UTF-8" standalone="no"?>
<!DOCTYPE svg PUBLIC "-//W3C//DTD SVG 1.1//EN"
 "http://www.w3.org/Graphics/SVG/1.1/DTD/svg11.dtd">
<!-- Generated by graphviz version 2.47.3 (20210619.1520)
 -->
<!-- Title: dependencies Pages: 1 -->
<svg width="252pt" height="247pt"
 viewBox="0.00 0.00 252.00 246.80" xmlns="http://www.w3.org/2000/svg" xmlns:xlink="http://www.w3.org/1999/xlink">
<g id="graph0" class="graph" transform="scale(1 1) rotate(0) translate(4 242.8)">
<title>dependencies</title>
<polygon fill="white" stroke="transparent" points="-4,4 -4,-242.8 248,-242.8 248,4 -4,4"/>
<text text-anchor="middle" x="122" y="-8.2" font-family="sans-serif" font-size="14.00">dependencies</text>
<g id="clust1" class="cluster">
<title>cluster_WorkflowViewComponentModule</title>
<polygon fill="none" stroke="black" stroke-dasharray="1,5" points="8,-32.8 8,-230.8 236,-230.8 236,-32.8 8,-32.8"/>
</g>
<g id="clust2" class="cluster">
<title>cluster_WorkflowViewComponentModule_declarations</title>
<polygon fill="none" stroke="black" points="29,-40.8 29,-92.8 215,-92.8 215,-40.8 29,-40.8"/>
</g>
<g id="clust5" class="cluster">
<title>cluster_WorkflowViewComponentModule_exports</title>
<polygon fill="none" stroke="black" points="28,-170.8 28,-222.8 216,-222.8 216,-170.8 28,-170.8"/>
</g>
<!-- WorkflowViewComponent -->
<g id="node1" class="node">
<title>WorkflowViewComponent</title>
<polygon fill="#ffffb3" stroke="black" points="206.68,-84.8 37.32,-84.8 37.32,-48.8 206.68,-48.8 206.68,-84.8"/>
<text text-anchor="middle" x="122" y="-62.6" font-family="Times,serif" font-size="14.00">WorkflowViewComponent</text>
</g>
<!-- WorkflowViewComponentModule -->
<g id="node2" class="node">
<title>WorkflowViewComponentModule</title>
<polygon fill="#8dd3c7" stroke="black" points="228.23,-149.8 225.23,-153.8 204.23,-153.8 201.23,-149.8 15.77,-149.8 15.77,-113.8 228.23,-113.8 228.23,-149.8"/>
<text text-anchor="middle" x="122" y="-127.6" font-family="Times,serif" font-size="14.00">WorkflowViewComponentModule</text>
</g>
<!-- WorkflowViewComponent&#45;&gt;WorkflowViewComponentModule -->
<g id="edge1" class="edge">
<title>WorkflowViewComponent&#45;&gt;WorkflowViewComponentModule</title>
<path fill="none" stroke="black" d="M122,-84.91C122,-84.91 122,-103.79 122,-103.79"/>
<polygon fill="black" stroke="black" points="118.5,-103.79 122,-113.79 125.5,-103.79 118.5,-103.79"/>
</g>
<!-- WorkflowViewComponent  -->
<g id="node3" class="node">
<title>WorkflowViewComponent </title>
<polygon fill="#fb8072" stroke="black" points="208.18,-214.8 35.82,-214.8 35.82,-178.8 208.18,-178.8 208.18,-214.8"/>
<text text-anchor="middle" x="122" y="-192.6" font-family="Times,serif" font-size="14.00">WorkflowViewComponent </text>
</g>
<!-- WorkflowViewComponentModule&#45;&gt;WorkflowViewComponent  -->
<g id="edge2" class="edge">
<title>WorkflowViewComponentModule&#45;&gt;WorkflowViewComponent </title>
<path fill="none" stroke="black" stroke-dasharray="5,2" d="M122,-149.91C122,-149.91 122,-168.79 122,-168.79"/>
<polygon fill="black" stroke="black" points="118.5,-168.79 122,-178.79 125.5,-168.79 118.5,-168.79"/>
</g>
</g>
</svg>
