<?xml version="1.0" encoding="UTF-8" standalone="no"?>
<!DOCTYPE svg PUBLIC "-//W3C//DTD SVG 1.1//EN"
 "http://www.w3.org/Graphics/SVG/1.1/DTD/svg11.dtd">
<!-- Generated by graphviz version 5.0.0 (20220707.1540)
 -->
<!-- Title: dependencies Pages: 1 -->
<svg width="772pt" height="247pt"
 viewBox="0.00 0.00 772.00 246.80" xmlns="http://www.w3.org/2000/svg" xmlns:xlink="http://www.w3.org/1999/xlink">
<g id="graph0" class="graph" transform="scale(1 1) rotate(0) translate(4 242.8)">
<title>dependencies</title>
<polygon fill="white" stroke="transparent" points="-4,4 -4,-242.8 768,-242.8 768,4 -4,4"/>
<text text-anchor="middle" x="382" y="-8.2" font-family="sans-serif" font-size="14.00">dependencies</text>
<g id="clust1" class="cluster">
<title>cluster_QuickPanelComponentModule</title>
<polygon fill="none" stroke="black" stroke-dasharray="1,5" points="8,-32.8 8,-230.8 756,-230.8 756,-32.8 8,-32.8"/>
</g>
<g id="clust2" class="cluster">
<title>cluster_QuickPanelComponentModule_declarations</title>
<polygon fill="none" stroke="black" points="23,-40.8 23,-92.8 743,-92.8 743,-40.8 23,-40.8"/>
</g>
<g id="clust8" class="cluster">
<title>cluster_QuickPanelComponentModule_exports</title>
<polygon fill="none" stroke="black" points="16,-170.8 16,-222.8 748,-222.8 748,-170.8 16,-170.8"/>
</g>
<!-- InternalLinkComponent -->
<g id="node1" class="node">
<title>InternalLinkComponent</title>
<polygon fill="#ffffb3" stroke="black" points="734.8,-84.8 583.2,-84.8 583.2,-48.8 734.8,-48.8 734.8,-84.8"/>
<text text-anchor="middle" x="659" y="-62.6" font-family="Times,serif" font-size="14.00">InternalLinkComponent</text>
</g>
<!-- QuickPanelComponentModule -->
<g id="node5" class="node">
<title>QuickPanelComponentModule</title>
<polygon fill="#8dd3c7" stroke="black" points="377.2,-149.8 374.2,-153.8 353.2,-153.8 350.2,-149.8 186.8,-149.8 186.8,-113.8 377.2,-113.8 377.2,-149.8"/>
<text text-anchor="middle" x="282" y="-127.6" font-family="Times,serif" font-size="14.00">QuickPanelComponentModule</text>
</g>
<!-- InternalLinkComponent&#45;&gt;QuickPanelComponentModule -->
<g id="edge1" class="edge">
<title>InternalLinkComponent&#45;&gt;QuickPanelComponentModule</title>
<path fill="none" stroke="black" d="M684.97,-84.82C684.97,-102.17 684.97,-125.8 684.97,-125.8 684.97,-125.8 387.24,-125.8 387.24,-125.8"/>
<polygon fill="black" stroke="black" points="387.24,-122.3 377.24,-125.8 387.24,-129.3 387.24,-122.3"/>
</g>
<!-- LanguageSelectorComponent -->
<g id="node2" class="node">
<title>LanguageSelectorComponent</title>
<polygon fill="#ffffb3" stroke="black" points="565.39,-84.8 382.61,-84.8 382.61,-48.8 565.39,-48.8 565.39,-84.8"/>
<text text-anchor="middle" x="474" y="-62.6" font-family="Times,serif" font-size="14.00">LanguageSelectorComponent</text>
</g>
<!-- LanguageSelectorComponent&#45;&gt;QuickPanelComponentModule -->
<g id="edge2" class="edge">
<title>LanguageSelectorComponent&#45;&gt;QuickPanelComponentModule</title>
<path fill="none" stroke="black" d="M382.69,-66.8C375.44,-66.8 370.85,-66.8 370.85,-66.8 370.85,-66.8 370.85,-103.69 370.85,-103.69"/>
<polygon fill="black" stroke="black" points="367.35,-103.69 370.85,-113.69 374.35,-103.69 367.35,-103.69"/>
</g>
<!-- LogoutShortcutComponent -->
<g id="node3" class="node">
<title>LogoutShortcutComponent</title>
<polygon fill="#ffffb3" stroke="black" points="364.71,-84.8 195.29,-84.8 195.29,-48.8 364.71,-48.8 364.71,-84.8"/>
<text text-anchor="middle" x="280" y="-62.6" font-family="Times,serif" font-size="14.00">LogoutShortcutComponent</text>
</g>
<!-- LogoutShortcutComponent&#45;&gt;QuickPanelComponentModule -->
<g id="edge3" class="edge">
<title>LogoutShortcutComponent&#45;&gt;QuickPanelComponentModule</title>
<path fill="none" stroke="black" d="M280,-84.91C280,-84.91 280,-103.79 280,-103.79"/>
<polygon fill="black" stroke="black" points="276.5,-103.79 280,-113.79 283.5,-103.79 276.5,-103.79"/>
</g>
<!-- QuickPanelComponent -->
<g id="node4" class="node">
<title>QuickPanelComponent</title>
<polygon fill="#ffffb3" stroke="black" points="177.15,-84.8 30.85,-84.8 30.85,-48.8 177.15,-48.8 177.15,-84.8"/>
<text text-anchor="middle" x="104" y="-62.6" font-family="Times,serif" font-size="14.00">QuickPanelComponent</text>
</g>
<!-- QuickPanelComponent&#45;&gt;QuickPanelComponentModule -->
<g id="edge4" class="edge">
<title>QuickPanelComponent&#45;&gt;QuickPanelComponentModule</title>
<path fill="none" stroke="black" d="M177.53,-66.8C185.7,-66.8 191.15,-66.8 191.15,-66.8 191.15,-66.8 191.15,-103.69 191.15,-103.69"/>
<polygon fill="black" stroke="black" points="187.65,-103.69 191.15,-113.69 194.65,-103.69 187.65,-103.69"/>
</g>
<!-- InternalLinkComponent  -->
<g id="node6" class="node">
<title>InternalLinkComponent </title>
<polygon fill="#fb8072" stroke="black" points="740.3,-214.8 585.7,-214.8 585.7,-178.8 740.3,-178.8 740.3,-214.8"/>
<text text-anchor="middle" x="663" y="-192.6" font-family="Times,serif" font-size="14.00">InternalLinkComponent </text>
</g>
<!-- QuickPanelComponentModule&#45;&gt;InternalLinkComponent  -->
<g id="edge5" class="edge">
<title>QuickPanelComponentModule&#45;&gt;InternalLinkComponent </title>
<path fill="none" stroke="black" stroke-dasharray="5,2" d="M377.14,-137.8C481.78,-137.8 635.28,-137.8 635.28,-137.8 635.28,-137.8 635.28,-168.78 635.28,-168.78"/>
<polygon fill="black" stroke="black" points="631.78,-168.78 635.28,-178.78 638.78,-168.78 631.78,-168.78"/>
</g>
<!-- LanguageSelectorComponent  -->
<g id="node7" class="node">
<title>LanguageSelectorComponent </title>
<polygon fill="#fb8072" stroke="black" points="567.89,-214.8 382.11,-214.8 382.11,-178.8 567.89,-178.8 567.89,-214.8"/>
<text text-anchor="middle" x="475" y="-192.6" font-family="Times,serif" font-size="14.00">LanguageSelectorComponent </text>
</g>
<!-- QuickPanelComponentModule&#45;&gt;LanguageSelectorComponent  -->
<g id="edge6" class="edge">
<title>QuickPanelComponentModule&#45;&gt;LanguageSelectorComponent </title>
<path fill="none" stroke="black" stroke-dasharray="5,2" d="M370.73,-149.91C370.73,-169.14 370.73,-196.8 370.73,-196.8 370.73,-196.8 371.89,-196.8 371.89,-196.8"/>
<polygon fill="black" stroke="black" points="371.89,-200.3 381.89,-196.8 371.89,-193.3 371.89,-200.3"/>
</g>
<!-- LogoutShortcutComponent  -->
<g id="node8" class="node">
<title>LogoutShortcutComponent </title>
<polygon fill="#fb8072" stroke="black" points="364.21,-214.8 191.79,-214.8 191.79,-178.8 364.21,-178.8 364.21,-214.8"/>
<text text-anchor="middle" x="278" y="-192.6" font-family="Times,serif" font-size="14.00">LogoutShortcutComponent </text>
</g>
<!-- QuickPanelComponentModule&#45;&gt;LogoutShortcutComponent  -->
<g id="edge7" class="edge">
<title>QuickPanelComponentModule&#45;&gt;LogoutShortcutComponent </title>
<path fill="none" stroke="black" stroke-dasharray="5,2" d="M278,-149.91C278,-149.91 278,-168.79 278,-168.79"/>
<polygon fill="black" stroke="black" points="274.5,-168.79 278,-178.79 281.5,-168.79 274.5,-168.79"/>
</g>
<!-- QuickPanelComponent  -->
<g id="node9" class="node">
<title>QuickPanelComponent </title>
<polygon fill="#fb8072" stroke="black" points="174.15,-214.8 23.85,-214.8 23.85,-178.8 174.15,-178.8 174.15,-214.8"/>
<text text-anchor="middle" x="99" y="-192.6" font-family="Times,serif" font-size="14.00">QuickPanelComponent </text>
</g>
<!-- QuickPanelComponentModule&#45;&gt;QuickPanelComponent  -->
<g id="edge8" class="edge">
<title>QuickPanelComponentModule&#45;&gt;QuickPanelComponent </title>
<path fill="none" stroke="black" stroke-dasharray="5,2" d="M186.67,-131.8C143.67,-131.8 102.38,-131.8 102.38,-131.8 102.38,-131.8 102.38,-168.69 102.38,-168.69"/>
<polygon fill="black" stroke="black" points="98.88,-168.69 102.38,-178.69 105.88,-168.69 98.88,-168.69"/>
</g>
</g>
</svg>
