<?xml version="1.0" encoding="UTF-8" standalone="no"?>
<!DOCTYPE svg PUBLIC "-//W3C//DTD SVG 1.1//EN"
 "http://www.w3.org/Graphics/SVG/1.1/DTD/svg11.dtd">
<!-- Generated by graphviz version 2.47.0 (20210316.0004)
 -->
<!-- Title: dependencies Pages: 1 -->
<svg width="1010pt" height="284pt"
 viewBox="0.00 0.00 1010.00 284.00" xmlns="http://www.w3.org/2000/svg" xmlns:xlink="http://www.w3.org/1999/xlink">
<g id="graph0" class="graph" transform="scale(1 1) rotate(0) translate(4 280)">
<title>dependencies</title>
<polygon fill="white" stroke="transparent" points="-4,4 -4,-280 1006,-280 1006,4 -4,4"/>
<text text-anchor="start" x="480.01" y="-42.4" font-family="Times-12" font-weight="bold" font-size="14.00">Legend</text>
<polygon fill="#ffffb3" stroke="transparent" points="267,-10 267,-30 287,-30 287,-10 267,-10"/>
<text text-anchor="start" x="290.63" y="-15.4" font-family="Times-12" font-size="14.00"> &#160;Declarations</text>
<polygon fill="#8dd3c7" stroke="transparent" points="380,-10 380,-30 400,-30 400,-10 380,-10"/>
<text text-anchor="start" x="403.73" y="-15.4" font-family="Times-12" font-size="14.00"> &#160;Module</text>
<polygon fill="#80b1d3" stroke="transparent" points="466,-10 466,-30 486,-30 486,-10 466,-10"/>
<text text-anchor="start" x="489.78" y="-15.4" font-family="Times-12" font-size="14.00"> &#160;Bootstrap</text>
<polygon fill="#fdb462" stroke="transparent" points="563,-10 563,-30 583,-30 583,-10 563,-10"/>
<text text-anchor="start" x="586.67" y="-15.4" font-family="Times-12" font-size="14.00"> &#160;Providers</text>
<polygon fill="#fb8072" stroke="transparent" points="659,-10 659,-30 679,-30 679,-10 659,-10"/>
<text text-anchor="start" x="682.73" y="-15.4" font-family="Times-12" font-size="14.00"> &#160;Exports</text>
<g id="clust1" class="cluster">
<title>cluster_QuickPanelComponentModule</title>
<polygon fill="none" stroke="black" stroke-dasharray="1,5" points="8,-70 8,-268 994,-268 994,-70 8,-70"/>
</g>
<g id="clust9" class="cluster">
<title>cluster_QuickPanelComponentModule_exports</title>
<polygon fill="none" stroke="black" points="16,-208 16,-260 986,-260 986,-208 16,-208"/>
</g>
<g id="clust2" class="cluster">
<title>cluster_QuickPanelComponentModule_declarations</title>
<polygon fill="none" stroke="black" points="24,-78 24,-130 978,-130 978,-78 24,-78"/>
</g>
<!-- ImpersonateQuickPanelComponent -->
<g id="node1" class="node">
<title>ImpersonateQuickPanelComponent</title>
<polygon fill="#ffffb3" stroke="black" points="969.84,-122 754.16,-122 754.16,-86 969.84,-86 969.84,-122"/>
<text text-anchor="middle" x="862" y="-99.8" font-family="Times,serif" font-size="14.00">ImpersonateQuickPanelComponent</text>
</g>
<!-- QuickPanelComponentModule -->
<g id="node6" class="node">
<title>QuickPanelComponentModule</title>
<polygon fill="#8dd3c7" stroke="black" points="570.2,-187 567.2,-191 546.2,-191 543.2,-187 379.8,-187 379.8,-151 570.2,-151 570.2,-187"/>
<text text-anchor="middle" x="475" y="-164.8" font-family="Times,serif" font-size="14.00">QuickPanelComponentModule</text>
</g>
<!-- ImpersonateQuickPanelComponent&#45;&gt;QuickPanelComponentModule -->
<g id="edge1" class="edge">
<title>ImpersonateQuickPanelComponent&#45;&gt;QuickPanelComponentModule</title>
<path fill="none" stroke="black" d="M899.39,-122.27C899.39,-140.56 899.39,-166 899.39,-166 899.39,-166 580.24,-166 580.24,-166"/>
<polygon fill="black" stroke="black" points="580.24,-162.5 570.24,-166 580.24,-169.5 580.24,-162.5"/>
</g>
<!-- InternalLinkComponent -->
<g id="node2" class="node">
<title>InternalLinkComponent</title>
<polygon fill="#ffffb3" stroke="black" points="735.81,-122 584.19,-122 584.19,-86 735.81,-86 735.81,-122"/>
<text text-anchor="middle" x="660" y="-99.8" font-family="Times,serif" font-size="14.00">InternalLinkComponent</text>
</g>
<!-- InternalLinkComponent&#45;&gt;QuickPanelComponentModule -->
<g id="edge2" class="edge">
<title>InternalLinkComponent&#45;&gt;QuickPanelComponentModule</title>
<path fill="none" stroke="black" d="M685.63,-122.01C685.63,-138.05 685.63,-159 685.63,-159 685.63,-159 580.15,-159 580.15,-159"/>
<polygon fill="black" stroke="black" points="580.15,-155.5 570.15,-159 580.15,-162.5 580.15,-155.5"/>
</g>
<!-- LanguageSelectorComponent -->
<g id="node3" class="node">
<title>LanguageSelectorComponent</title>
<polygon fill="#ffffb3" stroke="black" points="566.4,-122 383.6,-122 383.6,-86 566.4,-86 566.4,-122"/>
<text text-anchor="middle" x="475" y="-99.8" font-family="Times,serif" font-size="14.00">LanguageSelectorComponent</text>
</g>
<!-- LanguageSelectorComponent&#45;&gt;QuickPanelComponentModule -->
<g id="edge3" class="edge">
<title>LanguageSelectorComponent&#45;&gt;QuickPanelComponentModule</title>
<path fill="none" stroke="black" d="M475,-122.11C475,-122.11 475,-140.99 475,-140.99"/>
<polygon fill="black" stroke="black" points="471.5,-140.99 475,-150.99 478.5,-140.99 471.5,-140.99"/>
</g>
<!-- LogoutShortcutComponent -->
<g id="node4" class="node">
<title>LogoutShortcutComponent</title>
<polygon fill="#ffffb3" stroke="black" points="365.71,-122 196.29,-122 196.29,-86 365.71,-86 365.71,-122"/>
<text text-anchor="middle" x="281" y="-99.8" font-family="Times,serif" font-size="14.00">LogoutShortcutComponent</text>
</g>
<!-- LogoutShortcutComponent&#45;&gt;QuickPanelComponentModule -->
<g id="edge4" class="edge">
<title>LogoutShortcutComponent&#45;&gt;QuickPanelComponentModule</title>
<path fill="none" stroke="black" d="M308.37,-122.01C308.37,-138.05 308.37,-159 308.37,-159 308.37,-159 369.52,-159 369.52,-159"/>
<polygon fill="black" stroke="black" points="369.52,-162.5 379.52,-159 369.52,-155.5 369.52,-162.5"/>
</g>
<!-- QuickPanelComponent -->
<g id="node5" class="node">
<title>QuickPanelComponent</title>
<polygon fill="#ffffb3" stroke="black" points="178.15,-122 31.85,-122 31.85,-86 178.15,-86 178.15,-122"/>
<text text-anchor="middle" x="105" y="-99.8" font-family="Times,serif" font-size="14.00">QuickPanelComponent</text>
</g>
<!-- QuickPanelComponent&#45;&gt;QuickPanelComponentModule -->
<g id="edge5" class="edge">
<title>QuickPanelComponent&#45;&gt;QuickPanelComponentModule</title>
<path fill="none" stroke="black" d="M126.61,-122.27C126.61,-140.56 126.61,-166 126.61,-166 126.61,-166 369.8,-166 369.8,-166"/>
<polygon fill="black" stroke="black" points="369.8,-169.5 379.8,-166 369.8,-162.5 369.8,-169.5"/>
</g>
<!-- ImpersonateQuickPanelComponent  -->
<g id="node7" class="node">
<title>ImpersonateQuickPanelComponent </title>
<polygon fill="#fb8072" stroke="black" points="977.84,-252 758.16,-252 758.16,-216 977.84,-216 977.84,-252"/>
<text text-anchor="middle" x="868" y="-229.8" font-family="Times,serif" font-size="14.00">ImpersonateQuickPanelComponent </text>
</g>
<!-- QuickPanelComponentModule&#45;&gt;ImpersonateQuickPanelComponent  -->
<g id="edge6" class="edge">
<title>QuickPanelComponentModule&#45;&gt;ImpersonateQuickPanelComponent </title>
<path fill="none" stroke="black" stroke-dasharray="5,2" d="M570.29,-173C675.1,-173 828.86,-173 828.86,-173 828.86,-173 828.86,-205.7 828.86,-205.7"/>
<polygon fill="black" stroke="black" points="825.36,-205.7 828.86,-215.7 832.36,-205.7 825.36,-205.7"/>
</g>
<!-- InternalLinkComponent  -->
<g id="node8" class="node">
<title>InternalLinkComponent </title>
<polygon fill="#fb8072" stroke="black" points="740.31,-252 585.69,-252 585.69,-216 740.31,-216 740.31,-252"/>
<text text-anchor="middle" x="663" y="-229.8" font-family="Times,serif" font-size="14.00">InternalLinkComponent </text>
</g>
<!-- QuickPanelComponentModule&#45;&gt;InternalLinkComponent  -->
<g id="edge7" class="edge">
<title>QuickPanelComponentModule&#45;&gt;InternalLinkComponent </title>
<path fill="none" stroke="black" stroke-dasharray="5,2" d="M570.29,-180C604.87,-180 635.62,-180 635.62,-180 635.62,-180 635.62,-205.72 635.62,-205.72"/>
<polygon fill="black" stroke="black" points="632.12,-205.72 635.62,-215.72 639.12,-205.72 632.12,-205.72"/>
</g>
<!-- LanguageSelectorComponent  -->
<g id="node9" class="node">
<title>LanguageSelectorComponent </title>
<polygon fill="#fb8072" stroke="black" points="567.9,-252 382.1,-252 382.1,-216 567.9,-216 567.9,-252"/>
<text text-anchor="middle" x="475" y="-229.8" font-family="Times,serif" font-size="14.00">LanguageSelectorComponent </text>
</g>
<!-- QuickPanelComponentModule&#45;&gt;LanguageSelectorComponent  -->
<g id="edge8" class="edge">
<title>QuickPanelComponentModule&#45;&gt;LanguageSelectorComponent </title>
<path fill="none" stroke="black" stroke-dasharray="5,2" d="M475,-187.11C475,-187.11 475,-205.99 475,-205.99"/>
<polygon fill="black" stroke="black" points="471.5,-205.99 475,-215.99 478.5,-205.99 471.5,-205.99"/>
</g>
<!-- LogoutShortcutComponent  -->
<g id="node10" class="node">
<title>LogoutShortcutComponent </title>
<polygon fill="#fb8072" stroke="black" points="364.21,-252 191.79,-252 191.79,-216 364.21,-216 364.21,-252"/>
<text text-anchor="middle" x="278" y="-229.8" font-family="Times,serif" font-size="14.00">LogoutShortcutComponent </text>
</g>
<!-- QuickPanelComponentModule&#45;&gt;LogoutShortcutComponent  -->
<g id="edge9" class="edge">
<title>QuickPanelComponentModule&#45;&gt;LogoutShortcutComponent </title>
<path fill="none" stroke="black" stroke-dasharray="5,2" d="M379.62,-180C319.2,-180 252.38,-180 252.38,-180 252.38,-180 252.38,-205.72 252.38,-205.72"/>
<polygon fill="black" stroke="black" points="248.88,-205.72 252.38,-215.72 255.88,-205.72 248.88,-205.72"/>
</g>
<!-- QuickPanelComponent  -->
<g id="node11" class="node">
<title>QuickPanelComponent </title>
<polygon fill="#fb8072" stroke="black" points="174.15,-252 23.85,-252 23.85,-216 174.15,-216 174.15,-252"/>
<text text-anchor="middle" x="99" y="-229.8" font-family="Times,serif" font-size="14.00">QuickPanelComponent </text>
</g>
<!-- QuickPanelComponentModule&#45;&gt;QuickPanelComponent  -->
<g id="edge10" class="edge">
<title>QuickPanelComponentModule&#45;&gt;QuickPanelComponent </title>
<path fill="none" stroke="black" stroke-dasharray="5,2" d="M379.68,-173C262.54,-173 79.14,-173 79.14,-173 79.14,-173 79.14,-205.7 79.14,-205.7"/>
<polygon fill="black" stroke="black" points="75.64,-205.7 79.14,-215.7 82.64,-205.7 75.64,-205.7"/>
</g>
</g>
</svg>
