<?xml version="1.0" encoding="UTF-8" standalone="no"?>
<!DOCTYPE svg PUBLIC "-//W3C//DTD SVG 1.1//EN"
 "http://www.w3.org/Graphics/SVG/1.1/DTD/svg11.dtd">
<!-- Generated by graphviz version 5.0.0 (20220707.1540)
 -->
<!-- Title: dependencies Pages: 1 -->
<svg width="228pt" height="247pt"
 viewBox="0.00 0.00 228.00 246.80" xmlns="http://www.w3.org/2000/svg" xmlns:xlink="http://www.w3.org/1999/xlink">
<g id="graph0" class="graph" transform="scale(1 1) rotate(0) translate(4 242.8)">
<title>dependencies</title>
<polygon fill="white" stroke="transparent" points="-4,4 -4,-242.8 224,-242.8 224,4 -4,4"/>
<text text-anchor="middle" x="110" y="-8.2" font-family="sans-serif" font-size="14.00">dependencies</text>
<g id="clust1" class="cluster">
<title>cluster_LoginFormComponentModule</title>
<polygon fill="none" stroke="black" stroke-dasharray="1,5" points="8,-32.8 8,-230.8 212,-230.8 212,-32.8 8,-32.8"/>
</g>
<g id="clust5" class="cluster">
<title>cluster_LoginFormComponentModule_exports</title>
<polygon fill="none" stroke="black" points="28,-170.8 28,-222.8 192,-222.8 192,-170.8 28,-170.8"/>
</g>
<g id="clust2" class="cluster">
<title>cluster_LoginFormComponentModule_declarations</title>
<polygon fill="none" stroke="black" points="29,-40.8 29,-92.8 191,-92.8 191,-40.8 29,-40.8"/>
</g>
<!-- LoginFormComponent -->
<g id="node1" class="node">
<title>LoginFormComponent</title>
<polygon fill="#ffffb3" stroke="black" points="182.61,-84.8 37.39,-84.8 37.39,-48.8 182.61,-48.8 182.61,-84.8"/>
<text text-anchor="middle" x="110" y="-62.6" font-family="Times,serif" font-size="14.00">LoginFormComponent</text>
</g>
<!-- LoginFormComponentModule -->
<g id="node2" class="node">
<title>LoginFormComponentModule</title>
<polygon fill="#8dd3c7" stroke="black" points="204.16,-149.8 201.16,-153.8 180.16,-153.8 177.16,-149.8 15.84,-149.8 15.84,-113.8 204.16,-113.8 204.16,-149.8"/>
<text text-anchor="middle" x="110" y="-127.6" font-family="Times,serif" font-size="14.00">LoginFormComponentModule</text>
</g>
<!-- LoginFormComponent&#45;&gt;LoginFormComponentModule -->
<g id="edge1" class="edge">
<title>LoginFormComponent&#45;&gt;LoginFormComponentModule</title>
<path fill="none" stroke="black" d="M110,-84.91C110,-84.91 110,-103.79 110,-103.79"/>
<polygon fill="black" stroke="black" points="106.5,-103.79 110,-113.79 113.5,-103.79 106.5,-103.79"/>
</g>
<!-- LoginFormComponent  -->
<g id="node3" class="node">
<title>LoginFormComponent </title>
<polygon fill="#fb8072" stroke="black" points="184.11,-214.8 35.89,-214.8 35.89,-178.8 184.11,-178.8 184.11,-214.8"/>
<text text-anchor="middle" x="110" y="-192.6" font-family="Times,serif" font-size="14.00">LoginFormComponent </text>
</g>
<!-- LoginFormComponentModule&#45;&gt;LoginFormComponent  -->
<g id="edge2" class="edge">
<title>LoginFormComponentModule&#45;&gt;LoginFormComponent </title>
<path fill="none" stroke="black" stroke-dasharray="5,2" d="M110,-149.91C110,-149.91 110,-168.79 110,-168.79"/>
<polygon fill="black" stroke="black" points="106.5,-168.79 110,-178.79 113.5,-168.79 106.5,-168.79"/>
</g>
</g>
</svg>
