<?xml version="1.0" encoding="UTF-8" standalone="no"?>
<!DOCTYPE svg PUBLIC "-//W3C//DTD SVG 1.1//EN"
 "http://www.w3.org/Graphics/SVG/1.1/DTD/svg11.dtd">
<!-- Generated by graphviz version 2.47.3 (20210619.1520)
 -->
<!-- Title: dependencies Pages: 1 -->
<svg width="441pt" height="174pt"
 viewBox="0.00 0.00 441.00 173.80" xmlns="http://www.w3.org/2000/svg" xmlns:xlink="http://www.w3.org/1999/xlink">
<g id="graph0" class="graph" transform="scale(1 1) rotate(0) translate(4 169.8)">
<title>dependencies</title>
<polygon fill="white" stroke="transparent" points="-4,4 -4,-169.8 437,-169.8 437,4 -4,4"/>
<text text-anchor="middle" x="216.5" y="-8.2" font-family="sans-serif" font-size="14.00">dependencies</text>
<g id="clust1" class="cluster">
<title>cluster_DataFieldsModule</title>
<polygon fill="none" stroke="black" stroke-dasharray="1,5" points="8,-32.8 8,-157.8 425,-157.8 425,-32.8 8,-32.8"/>
</g>
<g id="clust3" class="cluster">
<title>cluster_DataFieldsModule_imports</title>
<polygon fill="none" stroke="black" points="16,-40.8 16,-92.8 417,-92.8 417,-40.8 16,-40.8"/>
</g>
<!-- CovalentModule -->
<g id="node1" class="node">
<title>CovalentModule</title>
<polygon fill="#8dd3c7" stroke="black" points="409.1,-84.8 406.1,-88.8 385.1,-88.8 382.1,-84.8 298.9,-84.8 298.9,-48.8 409.1,-48.8 409.1,-84.8"/>
<text text-anchor="middle" x="354" y="-62.6" font-family="Times,serif" font-size="14.00">CovalentModule</text>
</g>
<!-- DataFieldsModule -->
<g id="node4" class="node">
<title>DataFieldsModule</title>
<polygon fill="#8dd3c7" stroke="black" points="287.2,-149.8 284.2,-153.8 263.2,-153.8 260.2,-149.8 166.8,-149.8 166.8,-113.8 287.2,-113.8 287.2,-149.8"/>
<text text-anchor="middle" x="227" y="-127.6" font-family="Times,serif" font-size="14.00">DataFieldsModule</text>
</g>
<!-- CovalentModule&#45;&gt;DataFieldsModule -->
<g id="edge1" class="edge">
<title>CovalentModule&#45;&gt;DataFieldsModule</title>
<path fill="none" stroke="black" d="M354,-84.91C354,-104.14 354,-131.8 354,-131.8 354,-131.8 297.15,-131.8 297.15,-131.8"/>
<polygon fill="black" stroke="black" points="297.15,-128.3 287.15,-131.8 297.15,-135.3 297.15,-128.3"/>
</g>
<!-- MaterialModule -->
<g id="node2" class="node">
<title>MaterialModule</title>
<polygon fill="#8dd3c7" stroke="black" points="280.47,-84.8 277.47,-88.8 256.47,-88.8 253.47,-84.8 173.53,-84.8 173.53,-48.8 280.47,-48.8 280.47,-84.8"/>
<text text-anchor="middle" x="227" y="-62.6" font-family="Times,serif" font-size="14.00">MaterialModule</text>
</g>
<!-- MaterialModule&#45;&gt;DataFieldsModule -->
<g id="edge2" class="edge">
<title>MaterialModule&#45;&gt;DataFieldsModule</title>
<path fill="none" stroke="black" d="M227,-84.91C227,-84.91 227,-103.79 227,-103.79"/>
<polygon fill="black" stroke="black" points="223.5,-103.79 227,-113.79 230.5,-103.79 223.5,-103.79"/>
</g>
<!-- TranslateLibModule -->
<g id="node3" class="node">
<title>TranslateLibModule</title>
<polygon fill="#8dd3c7" stroke="black" points="155.58,-84.8 152.58,-88.8 131.58,-88.8 128.58,-84.8 24.42,-84.8 24.42,-48.8 155.58,-48.8 155.58,-84.8"/>
<text text-anchor="middle" x="90" y="-62.6" font-family="Times,serif" font-size="14.00">TranslateLibModule</text>
</g>
<!-- TranslateLibModule&#45;&gt;DataFieldsModule -->
<g id="edge3" class="edge">
<title>TranslateLibModule&#45;&gt;DataFieldsModule</title>
<path fill="none" stroke="black" d="M90,-84.91C90,-104.14 90,-131.8 90,-131.8 90,-131.8 156.51,-131.8 156.51,-131.8"/>
<polygon fill="black" stroke="black" points="156.51,-135.3 166.51,-131.8 156.51,-128.3 156.51,-135.3"/>
</g>
</g>
</svg>
