<?xml version="1.0" encoding="UTF-8" standalone="no"?>
<!DOCTYPE svg PUBLIC "-//W3C//DTD SVG 1.1//EN"
 "http://www.w3.org/Graphics/SVG/1.1/DTD/svg11.dtd">
<!-- Generated by graphviz version 2.47.0 (20210316.0004)
 -->
<!-- Title: dependencies Pages: 1 -->
<svg width="504pt" height="211pt"
 viewBox="0.00 0.00 504.00 211.00" xmlns="http://www.w3.org/2000/svg" xmlns:xlink="http://www.w3.org/1999/xlink">
<g id="graph0" class="graph" transform="scale(1 1) rotate(0) translate(4 207)">
<title>dependencies</title>
<polygon fill="white" stroke="transparent" points="-4,4 -4,-207 500,-207 500,4 -4,4"/>
<text text-anchor="start" x="227.01" y="-42.4" font-family="Times-12" font-weight="bold" font-size="14.00">Legend</text>
<polygon fill="#ffffb3" stroke="transparent" points="14,-10 14,-30 34,-30 34,-10 14,-10"/>
<text text-anchor="start" x="37.63" y="-15.4" font-family="Times-12" font-size="14.00"> &#160;Declarations</text>
<polygon fill="#8dd3c7" stroke="transparent" points="127,-10 127,-30 147,-30 147,-10 127,-10"/>
<text text-anchor="start" x="150.73" y="-15.4" font-family="Times-12" font-size="14.00"> &#160;Module</text>
<polygon fill="#80b1d3" stroke="transparent" points="213,-10 213,-30 233,-30 233,-10 213,-10"/>
<text text-anchor="start" x="236.78" y="-15.4" font-family="Times-12" font-size="14.00"> &#160;Bootstrap</text>
<polygon fill="#fdb462" stroke="transparent" points="310,-10 310,-30 330,-30 330,-10 310,-10"/>
<text text-anchor="start" x="333.67" y="-15.4" font-family="Times-12" font-size="14.00"> &#160;Providers</text>
<polygon fill="#fb8072" stroke="transparent" points="406,-10 406,-30 426,-30 426,-10 406,-10"/>
<text text-anchor="start" x="429.73" y="-15.4" font-family="Times-12" font-size="14.00"> &#160;Exports</text>
<g id="clust1" class="cluster">
<title>cluster_DataFieldsModule</title>
<polygon fill="none" stroke="black" stroke-dasharray="1,5" points="39.5,-70 39.5,-195 456.5,-195 456.5,-70 39.5,-70"/>
</g>
<g id="clust3" class="cluster">
<title>cluster_DataFieldsModule_imports</title>
<polygon fill="none" stroke="black" points="47.5,-78 47.5,-130 448.5,-130 448.5,-78 47.5,-78"/>
</g>
<!-- CovalentModule -->
<g id="node1" class="node">
<title>CovalentModule</title>
<polygon fill="#8dd3c7" stroke="black" points="440.6,-122 437.6,-126 416.6,-126 413.6,-122 330.4,-122 330.4,-86 440.6,-86 440.6,-122"/>
<text text-anchor="middle" x="385.5" y="-99.8" font-family="Times,serif" font-size="14.00">CovalentModule</text>
</g>
<!-- DataFieldsModule -->
<g id="node4" class="node">
<title>DataFieldsModule</title>
<polygon fill="#8dd3c7" stroke="black" points="318.7,-187 315.7,-191 294.7,-191 291.7,-187 198.3,-187 198.3,-151 318.7,-151 318.7,-187"/>
<text text-anchor="middle" x="258.5" y="-164.8" font-family="Times,serif" font-size="14.00">DataFieldsModule</text>
</g>
<!-- CovalentModule&#45;&gt;DataFieldsModule -->
<g id="edge1" class="edge">
<title>CovalentModule&#45;&gt;DataFieldsModule</title>
<path fill="none" stroke="black" d="M385.5,-122.11C385.5,-141.34 385.5,-169 385.5,-169 385.5,-169 328.65,-169 328.65,-169"/>
<polygon fill="black" stroke="black" points="328.65,-165.5 318.65,-169 328.65,-172.5 328.65,-165.5"/>
</g>
<!-- MaterialModule -->
<g id="node2" class="node">
<title>MaterialModule</title>
<polygon fill="#8dd3c7" stroke="black" points="311.97,-122 308.97,-126 287.97,-126 284.97,-122 205.03,-122 205.03,-86 311.97,-86 311.97,-122"/>
<text text-anchor="middle" x="258.5" y="-99.8" font-family="Times,serif" font-size="14.00">MaterialModule</text>
</g>
<!-- MaterialModule&#45;&gt;DataFieldsModule -->
<g id="edge2" class="edge">
<title>MaterialModule&#45;&gt;DataFieldsModule</title>
<path fill="none" stroke="black" d="M258.5,-122.11C258.5,-122.11 258.5,-140.99 258.5,-140.99"/>
<polygon fill="black" stroke="black" points="255,-140.99 258.5,-150.99 262,-140.99 255,-140.99"/>
</g>
<!-- TranslateLibModule -->
<g id="node3" class="node">
<title>TranslateLibModule</title>
<polygon fill="#8dd3c7" stroke="black" points="187.08,-122 184.08,-126 163.08,-126 160.08,-122 55.92,-122 55.92,-86 187.08,-86 187.08,-122"/>
<text text-anchor="middle" x="121.5" y="-99.8" font-family="Times,serif" font-size="14.00">TranslateLibModule</text>
</g>
<!-- TranslateLibModule&#45;&gt;DataFieldsModule -->
<g id="edge3" class="edge">
<title>TranslateLibModule&#45;&gt;DataFieldsModule</title>
<path fill="none" stroke="black" d="M121.5,-122.11C121.5,-141.34 121.5,-169 121.5,-169 121.5,-169 188.01,-169 188.01,-169"/>
<polygon fill="black" stroke="black" points="188.01,-172.5 198.01,-169 188.01,-165.5 188.01,-172.5"/>
</g>
</g>
</svg>
