<?xml version="1.0" encoding="UTF-8" standalone="no"?>
<!DOCTYPE svg PUBLIC "-//W3C//DTD SVG 1.1//EN"
 "http://www.w3.org/Graphics/SVG/1.1/DTD/svg11.dtd">
<!-- Generated by graphviz version 2.47.0 (20210316.0004)
 -->
<!-- Title: dependencies Pages: 1 -->
<svg width="1488pt" height="284pt"
 viewBox="0.00 0.00 1488.00 284.00" xmlns="http://www.w3.org/2000/svg" xmlns:xlink="http://www.w3.org/1999/xlink">
<g id="graph0" class="graph" transform="scale(1 1) rotate(0) translate(4 280)">
<title>dependencies</title>
<polygon fill="white" stroke="transparent" points="-4,4 -4,-280 1484,-280 1484,4 -4,4"/>
<text text-anchor="start" x="719.01" y="-42.4" font-family="Times-12" font-weight="bold" font-size="14.00">Legend</text>
<polygon fill="#ffffb3" stroke="transparent" points="506,-10 506,-30 526,-30 526,-10 506,-10"/>
<text text-anchor="start" x="529.63" y="-15.4" font-family="Times-12" font-size="14.00"> &#160;Declarations</text>
<polygon fill="#8dd3c7" stroke="transparent" points="619,-10 619,-30 639,-30 639,-10 619,-10"/>
<text text-anchor="start" x="642.73" y="-15.4" font-family="Times-12" font-size="14.00"> &#160;Module</text>
<polygon fill="#80b1d3" stroke="transparent" points="705,-10 705,-30 725,-30 725,-10 705,-10"/>
<text text-anchor="start" x="728.78" y="-15.4" font-family="Times-12" font-size="14.00"> &#160;Bootstrap</text>
<polygon fill="#fdb462" stroke="transparent" points="802,-10 802,-30 822,-30 822,-10 802,-10"/>
<text text-anchor="start" x="825.67" y="-15.4" font-family="Times-12" font-size="14.00"> &#160;Providers</text>
<polygon fill="#fb8072" stroke="transparent" points="898,-10 898,-30 918,-30 918,-10 898,-10"/>
<text text-anchor="start" x="921.73" y="-15.4" font-family="Times-12" font-size="14.00"> &#160;Exports</text>
<g id="clust1" class="cluster">
<title>cluster_DashboardComponentModule</title>
<polygon fill="none" stroke="black" stroke-dasharray="1,5" points="8,-70 8,-268 1472,-268 1472,-70 8,-70"/>
</g>
<g id="clust2" class="cluster">
<title>cluster_DashboardComponentModule_declarations</title>
<polygon fill="none" stroke="black" points="32,-78 32,-130 1453,-130 1453,-78 32,-78"/>
</g>
<g id="clust12" class="cluster">
<title>cluster_DashboardComponentModule_exports</title>
<polygon fill="none" stroke="black" points="16,-208 16,-260 1464,-260 1464,-208 16,-208"/>
</g>
<!-- BarchartCardComponent -->
<g id="node1" class="node">
<title>BarchartCardComponent</title>
<polygon fill="#ffffb3" stroke="black" points="1445.24,-122 1288.76,-122 1288.76,-86 1445.24,-86 1445.24,-122"/>
<text text-anchor="middle" x="1367" y="-99.8" font-family="Times,serif" font-size="14.00">BarchartCardComponent</text>
</g>
<!-- DashboardComponentModule -->
<g id="node9" class="node">
<title>DashboardComponentModule</title>
<polygon fill="#8dd3c7" stroke="black" points="756.52,-187 753.52,-191 732.52,-191 729.52,-187 571.48,-187 571.48,-151 756.52,-151 756.52,-187"/>
<text text-anchor="middle" x="664" y="-164.8" font-family="Times,serif" font-size="14.00">DashboardComponentModule</text>
</g>
<!-- BarchartCardComponent&#45;&gt;DashboardComponentModule -->
<g id="edge1" class="edge">
<title>BarchartCardComponent&#45;&gt;DashboardComponentModule</title>
<path fill="none" stroke="black" d="M1292.26,-122.22C1292.26,-140.83 1292.26,-167 1292.26,-167 1292.26,-167 766.7,-167 766.7,-167"/>
<polygon fill="black" stroke="black" points="766.7,-163.5 756.7,-167 766.7,-170.5 766.7,-163.5"/>
</g>
<!-- CountCardComponent -->
<g id="node2" class="node">
<title>CountCardComponent</title>
<polygon fill="#ffffb3" stroke="black" points="1270.27,-122 1127.73,-122 1127.73,-86 1270.27,-86 1270.27,-122"/>
<text text-anchor="middle" x="1199" y="-99.8" font-family="Times,serif" font-size="14.00">CountCardComponent</text>
</g>
<!-- CountCardComponent&#45;&gt;DashboardComponentModule -->
<g id="edge2" class="edge">
<title>CountCardComponent&#45;&gt;DashboardComponentModule</title>
<path fill="none" stroke="black" d="M1224.21,-122.03C1224.21,-139.06 1224.21,-162 1224.21,-162 1224.21,-162 766.82,-162 766.82,-162"/>
<polygon fill="black" stroke="black" points="766.82,-158.5 756.82,-162 766.82,-165.5 766.82,-158.5"/>
</g>
<!-- DashboardContentComponent -->
<g id="node3" class="node">
<title>DashboardContentComponent</title>
<polygon fill="#ffffb3" stroke="black" points="1109.31,-122 922.69,-122 922.69,-86 1109.31,-86 1109.31,-122"/>
<text text-anchor="middle" x="1016" y="-99.8" font-family="Times,serif" font-size="14.00">DashboardContentComponent</text>
</g>
<!-- DashboardContentComponent&#45;&gt;DashboardComponentModule -->
<g id="edge3" class="edge">
<title>DashboardContentComponent&#45;&gt;DashboardComponentModule</title>
<path fill="none" stroke="black" d="M1047.47,-122.24C1047.47,-137.57 1047.47,-157 1047.47,-157 1047.47,-157 766.83,-157 766.83,-157"/>
<polygon fill="black" stroke="black" points="766.83,-153.5 756.83,-157 766.83,-160.5 766.83,-153.5"/>
</g>
<!-- IframeCardComponent -->
<g id="node4" class="node">
<title>IframeCardComponent</title>
<polygon fill="#ffffb3" stroke="black" points="904.85,-122 759.15,-122 759.15,-86 904.85,-86 904.85,-122"/>
<text text-anchor="middle" x="832" y="-99.8" font-family="Times,serif" font-size="14.00">IframeCardComponent</text>
</g>
<!-- IframeCardComponent&#45;&gt;DashboardComponentModule -->
<g id="edge4" class="edge">
<title>IframeCardComponent&#45;&gt;DashboardComponentModule</title>
<path fill="none" stroke="black" d="M758.92,-104C752.69,-104 748.71,-104 748.71,-104 748.71,-104 748.71,-140.89 748.71,-140.89"/>
<polygon fill="black" stroke="black" points="745.21,-140.89 748.71,-150.89 752.21,-140.89 745.21,-140.89"/>
</g>
<!-- LineChartCardComponent -->
<g id="node5" class="node">
<title>LineChartCardComponent</title>
<polygon fill="#ffffb3" stroke="black" points="740.8,-122 575.2,-122 575.2,-86 740.8,-86 740.8,-122"/>
<text text-anchor="middle" x="658" y="-99.8" font-family="Times,serif" font-size="14.00">LineChartCardComponent</text>
</g>
<!-- LineChartCardComponent&#45;&gt;DashboardComponentModule -->
<g id="edge5" class="edge">
<title>LineChartCardComponent&#45;&gt;DashboardComponentModule</title>
<path fill="none" stroke="black" d="M658,-122.11C658,-122.11 658,-140.99 658,-140.99"/>
<polygon fill="black" stroke="black" points="654.5,-140.99 658,-150.99 661.5,-140.99 654.5,-140.99"/>
</g>
<!-- LinearGaugeCardComponent -->
<g id="node6" class="node">
<title>LinearGaugeCardComponent</title>
<polygon fill="#ffffb3" stroke="black" points="557.61,-122 376.39,-122 376.39,-86 557.61,-86 557.61,-122"/>
<text text-anchor="middle" x="467" y="-99.8" font-family="Times,serif" font-size="14.00">LinearGaugeCardComponent</text>
</g>
<!-- LinearGaugeCardComponent&#45;&gt;DashboardComponentModule -->
<g id="edge6" class="edge">
<title>LinearGaugeCardComponent&#45;&gt;DashboardComponentModule</title>
<path fill="none" stroke="black" d="M493.1,-122.24C493.1,-137.57 493.1,-157 493.1,-157 493.1,-157 561.05,-157 561.05,-157"/>
<polygon fill="black" stroke="black" points="561.05,-160.5 571.05,-157 561.05,-153.5 561.05,-160.5"/>
</g>
<!-- PieChartCardComponent -->
<g id="node7" class="node">
<title>PieChartCardComponent</title>
<polygon fill="#ffffb3" stroke="black" points="357.54,-122 200.46,-122 200.46,-86 357.54,-86 357.54,-122"/>
<text text-anchor="middle" x="279" y="-99.8" font-family="Times,serif" font-size="14.00">PieChartCardComponent</text>
</g>
<!-- PieChartCardComponent&#45;&gt;DashboardComponentModule -->
<g id="edge7" class="edge">
<title>PieChartCardComponent&#45;&gt;DashboardComponentModule</title>
<path fill="none" stroke="black" d="M353.14,-122.03C353.14,-139.06 353.14,-162 353.14,-162 353.14,-162 561.15,-162 561.15,-162"/>
<polygon fill="black" stroke="black" points="561.15,-165.5 571.15,-162 561.15,-158.5 561.15,-165.5"/>
</g>
<!-- PortalCardComponent -->
<g id="node8" class="node">
<title>PortalCardComponent</title>
<polygon fill="#ffffb3" stroke="black" points="181.98,-122 40.02,-122 40.02,-86 181.98,-86 181.98,-122"/>
<text text-anchor="middle" x="111" y="-99.8" font-family="Times,serif" font-size="14.00">PortalCardComponent</text>
</g>
<!-- PortalCardComponent&#45;&gt;DashboardComponentModule -->
<g id="edge8" class="edge">
<title>PortalCardComponent&#45;&gt;DashboardComponentModule</title>
<path fill="none" stroke="black" d="M175.87,-122.22C175.87,-140.83 175.87,-167 175.87,-167 175.87,-167 561.32,-167 561.32,-167"/>
<polygon fill="black" stroke="black" points="561.32,-170.5 571.32,-167 561.32,-163.5 561.32,-170.5"/>
</g>
<!-- BarchartCardComponent  -->
<g id="node10" class="node">
<title>BarchartCardComponent </title>
<polygon fill="#fb8072" stroke="black" points="1456.24,-252 1295.76,-252 1295.76,-216 1456.24,-216 1456.24,-252"/>
<text text-anchor="middle" x="1376" y="-229.8" font-family="Times,serif" font-size="14.00">BarchartCardComponent </text>
</g>
<!-- DashboardComponentModule&#45;&gt;BarchartCardComponent  -->
<g id="edge9" class="edge">
<title>DashboardComponentModule&#45;&gt;BarchartCardComponent </title>
<path fill="none" stroke="black" stroke-dasharray="5,2" d="M756.74,-172C948.45,-172 1370.62,-172 1370.62,-172 1370.62,-172 1370.62,-205.73 1370.62,-205.73"/>
<polygon fill="black" stroke="black" points="1367.13,-205.73 1370.62,-215.73 1374.13,-205.73 1367.13,-205.73"/>
</g>
<!-- CountCardComponent  -->
<g id="node11" class="node">
<title>CountCardComponent </title>
<polygon fill="#fb8072" stroke="black" points="1278.27,-252 1131.73,-252 1131.73,-216 1278.27,-216 1278.27,-252"/>
<text text-anchor="middle" x="1205" y="-229.8" font-family="Times,serif" font-size="14.00">CountCardComponent </text>
</g>
<!-- DashboardComponentModule&#45;&gt;CountCardComponent  -->
<g id="edge10" class="edge">
<title>DashboardComponentModule&#45;&gt;CountCardComponent </title>
<path fill="none" stroke="black" stroke-dasharray="5,2" d="M756.79,-177C904.85,-177 1178.04,-177 1178.04,-177 1178.04,-177 1178.04,-205.96 1178.04,-205.96"/>
<polygon fill="black" stroke="black" points="1174.54,-205.96 1178.04,-215.96 1181.54,-205.96 1174.54,-205.96"/>
</g>
<!-- DashboardContentComponent  -->
<g id="node12" class="node">
<title>DashboardContentComponent </title>
<polygon fill="#fb8072" stroke="black" points="1113.81,-252 924.19,-252 924.19,-216 1113.81,-216 1113.81,-252"/>
<text text-anchor="middle" x="1019" y="-229.8" font-family="Times,serif" font-size="14.00">DashboardContentComponent </text>
</g>
<!-- DashboardComponentModule&#45;&gt;DashboardContentComponent  -->
<g id="edge11" class="edge">
<title>DashboardComponentModule&#45;&gt;DashboardContentComponent </title>
<path fill="none" stroke="black" stroke-dasharray="5,2" d="M756.64,-182C851.7,-182 985.78,-182 985.78,-182 985.78,-182 985.78,-205.81 985.78,-205.81"/>
<polygon fill="black" stroke="black" points="982.28,-205.81 985.78,-215.81 989.28,-205.81 982.28,-205.81"/>
</g>
<!-- IframeCardComponent  -->
<g id="node13" class="node">
<title>IframeCardComponent </title>
<polygon fill="#fb8072" stroke="black" points="905.85,-252 756.15,-252 756.15,-216 905.85,-216 905.85,-252"/>
<text text-anchor="middle" x="831" y="-229.8" font-family="Times,serif" font-size="14.00">IframeCardComponent </text>
</g>
<!-- DashboardComponentModule&#45;&gt;IframeCardComponent  -->
<g id="edge12" class="edge">
<title>DashboardComponentModule&#45;&gt;IframeCardComponent </title>
<path fill="none" stroke="black" stroke-dasharray="5,2" d="M747.36,-187.11C747.36,-206.34 747.36,-234 747.36,-234 747.36,-234 748.26,-234 748.26,-234"/>
<polygon fill="black" stroke="black" points="746.32,-237.5 756.32,-234 746.32,-230.5 746.32,-237.5"/>
</g>
<!-- LineChartCardComponent  -->
<g id="node14" class="node">
<title>LineChartCardComponent </title>
<polygon fill="#fb8072" stroke="black" points="738.3,-252 569.7,-252 569.7,-216 738.3,-216 738.3,-252"/>
<text text-anchor="middle" x="654" y="-229.8" font-family="Times,serif" font-size="14.00">LineChartCardComponent </text>
</g>
<!-- DashboardComponentModule&#45;&gt;LineChartCardComponent  -->
<g id="edge13" class="edge">
<title>DashboardComponentModule&#45;&gt;LineChartCardComponent </title>
<path fill="none" stroke="black" stroke-dasharray="5,2" d="M654.82,-187.11C654.82,-187.11 654.82,-205.99 654.82,-205.99"/>
<polygon fill="black" stroke="black" points="651.32,-205.99 654.82,-215.99 658.32,-205.99 651.32,-205.99"/>
</g>
<!-- LinearGaugeCardComponent  -->
<g id="node15" class="node">
<title>LinearGaugeCardComponent </title>
<polygon fill="#fb8072" stroke="black" points="551.61,-252 366.39,-252 366.39,-216 551.61,-216 551.61,-252"/>
<text text-anchor="middle" x="459" y="-229.8" font-family="Times,serif" font-size="14.00">LinearGaugeCardComponent </text>
</g>
<!-- DashboardComponentModule&#45;&gt;LinearGaugeCardComponent  -->
<g id="edge14" class="edge">
<title>DashboardComponentModule&#45;&gt;LinearGaugeCardComponent </title>
<path fill="none" stroke="black" stroke-dasharray="5,2" d="M571.37,-182C507.72,-182 434.65,-182 434.65,-182 434.65,-182 434.65,-205.81 434.65,-205.81"/>
<polygon fill="black" stroke="black" points="431.15,-205.81 434.65,-215.81 438.15,-205.81 431.15,-205.81"/>
</g>
<!-- PieChartCardComponent  -->
<g id="node16" class="node">
<title>PieChartCardComponent </title>
<polygon fill="#fb8072" stroke="black" points="348.53,-252 187.47,-252 187.47,-216 348.53,-216 348.53,-252"/>
<text text-anchor="middle" x="268" y="-229.8" font-family="Times,serif" font-size="14.00">PieChartCardComponent </text>
</g>
<!-- DashboardComponentModule&#45;&gt;PieChartCardComponent  -->
<g id="edge15" class="edge">
<title>DashboardComponentModule&#45;&gt;PieChartCardComponent </title>
<path fill="none" stroke="black" stroke-dasharray="5,2" d="M571.17,-177C455.93,-177 274.38,-177 274.38,-177 274.38,-177 274.38,-205.96 274.38,-205.96"/>
<polygon fill="black" stroke="black" points="270.88,-205.96 274.38,-215.96 277.88,-205.96 270.88,-205.96"/>
</g>
<!-- PortalCardComponent  -->
<g id="node17" class="node">
<title>PortalCardComponent </title>
<polygon fill="#fb8072" stroke="black" points="169.98,-252 24.02,-252 24.02,-216 169.98,-216 169.98,-252"/>
<text text-anchor="middle" x="97" y="-229.8" font-family="Times,serif" font-size="14.00">PortalCardComponent </text>
</g>
<!-- DashboardComponentModule&#45;&gt;PortalCardComponent  -->
<g id="edge16" class="edge">
<title>DashboardComponentModule&#45;&gt;PortalCardComponent </title>
<path fill="none" stroke="black" stroke-dasharray="5,2" d="M571.36,-172C412.46,-172 104.88,-172 104.88,-172 104.88,-172 104.88,-205.73 104.88,-205.73"/>
<polygon fill="black" stroke="black" points="101.38,-205.73 104.88,-215.73 108.38,-205.73 101.38,-205.73"/>
</g>
</g>
</svg>
