<svg width="2160" height="1080" xmlns="http://www.w3.org/2000/svg" xmlns:xlink="http://www.w3.org/1999/xlink" xmlns:fi="http://pattern.flaticon.com/" style=""><rect id="backgroundrect" width="100%" height="100%" x="0" y="0" fill="none" stroke="none"/><defs><path d="M241.94753205744905,46.525881655319665 H216.7324824463576 l-0.11015646683052127,-0.7146107892543192 c-0.3290631588399613,-2.1355119713618365 -2.3546531266198514,-3.872703049011733 -4.515360254503378,-3.872703049011733 H199.58932342247618 c-2.160941821634893,0 -4.186414386659635,1.737425324365546 -4.515126007787728,3.872703049011733 l-0.11027365305274373,0.7146107892543192 h-0.0783985954821178 c-2.2345357470812246,0 -4.052469074808357,1.8179332159682033 -4.052469074808357,4.052586198166182 v2.711606899715946 H189.59883511073866 c-1.1078928640038868,0 -2.0914494488910123,0.43804772852359264 -2.769028861068122,1.2332837003767878 c-0.6776966472938639,0.7953531510904845 -0.9539081703127223,1.8357458011433394 -0.77812651798126,2.929576150842138 l4.299617688283007,26.745170615428606 c0.3424225418418487,2.1303558614032454 2.3766843878552635,3.8634449393149737 4.534344967328195,3.8634449393149737 h47.06188894371553 c0.20882853021471437,0 0.41308676283808765,-0.015585968372412329 0.6119543454200311,-0.04628915498964736 c1.9453163787723469,-0.29589903187008915 3.4405145058704676,-1.9797694214729376 3.4405145058704676,-4.006414114147361 V50.57835073012802 C246.00000023818598,48.3438149830468 244.18206691045884,46.525881655319665 241.94753205744905,46.525881655319665 zM243.28124702549985,85.6056483600621 c-0.234375461935997,0.2750395909473031 -0.5582823431789734,0.4576180860772663 -0.9351580953598067,0.5323838877156888 c-0.015585968372412329,0.0029296933178557943 -0.03152349890395856,0.004687509133945944 -0.04722665524482661,0.007265639201272045 c-0.04675790337100372,0.008085953234228838 -0.09363299994916296,0.015703156340868052 -0.14179715894163536,0.020507852570153084 c-0.06902357197552611,0.006679700668668381 -0.13886745449154247,0.010664083301554939 -0.20964885472507078,0.010664083301554939 H194.8856422196621 c-1.2503930983692584,0 -2.47453603592497,-1.043087996028369 -2.6731694276707287,-2.277660835653734 l-4.299617688283007,-26.745052597999347 c-0.08671892203390819,-0.5396495033428117 0.0380860111676129,-1.0394551602750752 0.3516803721412849,-1.4076590342223838 c0.3137115611657606,-0.3679694875329975 0.7875015275179855,-0.5707042364030812 1.334065108776052,-0.5707042364030812 h47.06177092628627 c1.2502758632525044,0 2.4744189125671454,1.043087996028369 2.672817834079396,2.277660835653734 l4.299735258676549,26.745052597999347 C243.71987847091077,84.73763732043699 243.5948407927542,85.23755915077618 243.28124702549985,85.6056483600621 zM195.60013582967912,53.29019277063105 v-0.00011718773653411705 v-1.527190461695099 h44.76477624291283 v3.4685224111228194 c-0.8625017155707191,-1.1588694643899657 -2.2551606339513057,-1.9413319494277204 -3.7043042474241474,-1.9413319494277204 H195.60013582967912 zM244.1148005520672,75.31668145272965 l-1.8646911402940063,-11.59900686381684 V50.82010943396415 c0,-0.5205478906780279 -0.4218758203089017,-0.9426580694615083 -0.9426580694615083,-0.9426580694615083 H194.65747787197654 c-0.5206650699153172,0 -0.9426580694615083,0.4219930274859234 -0.9426580694615083,0.9426580694615083 v2.469731519557712 h-0.9966816652938988 v-2.711606899715946 c0,-1.1950804750472201 0.9721893606780867,-2.16738718260099 2.167269835725307,-2.16738718260099 h0.8871111435443559 c0.46511811605843256,0 0.8607438593729846,-0.33937565815446646 0.9315252596065129,-0.7989859309643137 l0.23343795818835122,-1.5138311345726763 c0.1897269315197967,-1.232932106785455 1.404143433585844,-2.2744967168495975 2.6518411301001237,-2.2744967168495975 h12.517642016165269 c1.2476978082732089,0 2.4621142544597916,1.0416817334219672 2.652309847049281,2.2746138402074223 l0.23308639253675079,1.5135967760980975 c0.07078138626366215,0.4597274799868689 0.46640717148781263,0.7991031102016031 0.9315252596065129,0.7991031102016031 h26.023528010227096 c1.1950804750472201,0 2.167269835725307,0.9723065957948407 2.167269835725307,2.16738718260099 V75.31668145272965 z" id="L1_101" fill="#474747"/><g transform="matrix(0.11718795448541641 0 0 0.11718795448541641 9.999998092651367 16.999998092651367)" id="L1_102"><path d="M509.672,397.474l-32.875-32.873c-0.011-0.012-0.019-0.023-0.03-0.033l-25.501-25.501     c5.313-25.455-2.598-52.308-21.049-70.759l-43.564-43.564l0.001-0.001c-0.014-0.014-0.028-0.025-0.042-0.04L184.581,22.67     C154.357-7.556,105.176-7.557,74.948,22.669l-52.28,52.281c-30.223,30.225-30.223,79.406,0,109.632l245.637,245.636     c14.706,14.703,34.602,22.69,54.936,22.69c5.273,0,10.576-0.546,15.826-1.644l25.501,25.501v0.001l-0.001,0.001l32.907,32.906     c1.55,1.55,3.584,2.326,5.616,2.326c2.032,0,4.066-0.775,5.616-2.326l100.965-100.967c1.49-1.49,2.327-3.511,2.327-5.617     C511.999,400.984,511.162,398.965,509.672,397.474z M33.901,173.35c-24.03-24.032-24.03-63.136,0-87.168l52.28-52.28     c24.032-24.032,63.137-24.032,87.168,0l168.88,168.881c-23.153-3.105-47.449,4.205-65.205,21.959l-52.28,52.281     c-14.641,14.642-22.704,34.11-22.704,54.817c0,3.491,0.248,6.943,0.7,10.345L33.901,173.35z M235.974,375.422l0.001-0.001     c-11.642-11.64-18.052-27.117-18.052-43.581c0-16.464,6.411-31.942,18.052-43.584l52.278-52.28     c24.021-24.016,63.094-24.029,87.129-0.036l10.408,10.408c-23.153-3.106-47.45,4.205-65.207,21.959l-52.281,52.282     c-17.755,17.757-25.064,42.05-21.959,65.204L235.974,375.422z M279.539,418.987v-0.001l-0.019-0.019     c-24.01-24.033-24.005-63.12,0.018-87.145l52.281-52.281c24.026-24.024,63.113-24.029,87.147-0.021l0.021,0.021v-0.001     c12.025,12.025,18.417,28.541,18.008,45.255l-48.586-48.586c-3.102-3.101-8.131-3.101-11.232,0L276.21,377.174     c-1.49,1.49-2.327,3.51-2.327,5.617c0,2.106,0.837,4.127,2.327,5.617l48.595,48.595     C308.09,437.429,291.611,431.057,279.539,418.987z M293.057,382.789l89.733-89.732l77.128,77.127l-89.733,89.732L293.057,382.789     z M386.638,476.372l-5.222-5.221l89.733-89.732l5.221,5.22L386.638,476.372z M403.091,492.825l-5.22-5.22l89.733-89.733     l5.219,5.219L403.091,492.825z" fill="#474747" id="svg_1"/><path d="M230.93,240.137c2.087,0,4.113-0.824,5.616-2.326c1.829-1.829,2.652-4.433,2.208-6.98l-8.637-49.598     c-0.508-2.921-2.602-5.315-5.429-6.209c-2.824-0.894-5.916-0.14-8.013,1.956l-14.863,14.862l-67.354-67.354h34.604     c-2.302,4.273-3.525,9.075-3.526,14.065c0,7.939,3.09,15.403,8.705,21.018c5.614,5.614,13.078,8.705,21.016,8.705     c7.939,0,15.403-3.092,21.017-8.706c11.589-11.589,11.589-30.445,0.001-42.035c-5.613-5.613-13.077-8.704-21.015-8.704     c-5.217,0-10.225,1.343-14.641,3.852l-1.754-1.754c-1.489-1.489-3.51-2.326-5.616-2.326h-53.955     c6.104-11.268,4.407-25.674-5.104-35.186c-5.614-5.614-13.078-8.705-21.017-8.705c-7.939,0-15.403,3.092-21.018,8.706     c-11.588,11.588-11.588,30.445,0,42.035c5.613,5.613,13.077,8.705,21.015,8.705c5.217,0,10.224-1.342,14.64-3.852l9.302,9.304     v54.514c0,2.106,0.837,4.126,2.326,5.616l1.909,1.91l-8.866,8.865c-1.49,1.49-2.327,3.51-2.327,5.617     c0,2.106,0.837,4.126,2.327,5.617l28.964,28.964c1.551,1.55,3.584,2.326,5.616,2.326c2.032,0,4.066-0.775,5.616-2.326     l28.964-28.963c1.49-1.49,2.327-3.51,2.327-5.617c0-2.106-0.837-4.126-2.327-5.617l-28.964-28.965     c-1.489-1.489-3.51-2.326-5.616-2.326s-4.127,0.837-5.616,2.326l-8.449,8.448v-34.504l57.579,57.579L175.71,217.94     c-2.097,2.097-2.851,5.187-1.956,8.013c0.895,2.826,3.288,4.92,6.21,5.429l49.598,8.637     C230.02,240.099,230.476,240.137,230.93,240.137z M185.476,128.771c2.614-2.614,6.088-4.053,9.785-4.053     c3.695,0,7.17,1.438,9.782,4.051c5.395,5.396,5.395,14.175-0.001,19.57c-2.614,2.615-6.088,4.054-9.785,4.054     c-3.696,0-7.171-1.439-9.784-4.053c-2.613-2.613-4.052-6.087-4.052-9.782C181.423,134.86,182.863,131.385,185.476,128.771z      M102.957,104.219c-2.614,2.615-6.089,4.054-9.785,4.054s-7.171-1.439-9.782-4.052c-5.395-5.397-5.396-14.175,0-19.57     c2.614-2.615,6.089-4.054,9.785-4.054s7.171,1.439,9.784,4.053C108.353,90.046,108.352,98.824,102.957,104.219z M147.065,188.401     l17.732,17.732l-17.731,17.73l-17.732-17.731L147.065,188.401z M197.763,218.357l19.327-19.328l4.075,23.404L197.763,218.357z" fill="#474747" id="svg_2"/><rect x="338" y="413" width="43" height="15" transform="matrix(-0.707099974155426 -0.707099974155426 0.707099974155426 -0.707099974155426 317.25909423828125 974.8209228515625)" fill="#474747" id="svg_3"/><rect x="413" y="338" width="15" height="43" transform="matrix(0.707099974155426 -0.707099974155426 0.707099974155426 0.707099974155426 -131.41090393066406 403.80828857421875)" fill="#474747" id="svg_4"/></g><g transform="matrix(0.1171875 0 0 0.1171875 86 113)" id="L1_103"><path d="M503.979,219.714h-9.362V82.81h5.323c4.431,0,8.021-3.591,8.021-8.021V37.731c0-4.431-3.59-8.021-8.021-8.021H117.701     c-4.431,0-8.021,3.59-8.021,8.021v37.058c0,4.43,3.59,8.021,8.021,8.021h5.325v136.904H8.021c-4.431,0-8.021,3.59-8.021,8.021     v48.082c0,4.431,3.59,8.021,8.021,8.021h9.294v190.43c0,4.431,3.59,8.021,8.021,8.021h461.328c4.431,0,8.021-3.59,8.021-8.021     v-190.43h9.293c4.431,0,8.021-3.59,8.021-8.021v-48.082C512,223.304,508.41,219.714,503.979,219.714z M351.616,45.751h140.302     v21.016H351.616V45.751z M351.616,82.81h126.958v136.904H351.616V82.81z M125.723,45.751h209.852v21.016H125.723V45.751z      M226.348,199.902v-0.001c4.431,0,8.021-3.59,8.021-8.021v-40.618c0-4.431-3.59-8.021-8.021-8.021h-87.279V82.81h196.506v136.904     H139.068v-19.812H226.348z M139.068,183.858v-24.576h79.258v24.576H139.068z M33.358,466.247v-30.481H148.99     c4.431,0,8.021-3.59,8.021-8.021v-52.703c0-4.431-3.59-8.021-8.021-8.021H33.358v-83.182h259.741v182.408H33.358z      M33.358,419.724v-36.66h107.612v36.66H33.358z M293.1,267.796H16.042v-32.04H293.1V267.796z M478.643,466.247H309.142V283.839     h169.501V466.247z M495.958,267.796H309.142v-32.04h186.815V267.796z" fill="#474747" id="svg_5"/><path d="M376.32,342.013h59.629c12.238,0,22.195-9.958,22.195-22.196s-9.957-22.195-22.195-22.195H376.32     c-12.238,0-22.196,9.957-22.196,22.195S364.082,342.013,376.32,342.013z M376.32,313.664h59.629c3.392,0,6.153,2.76,6.153,6.153     c0,3.393-2.76,6.154-6.153,6.154H376.32c-3.393,0-6.154-2.76-6.154-6.154C370.167,316.424,372.927,313.664,376.32,313.664z" fill="#474747" id="svg_6"/><path d="M447.509,89.753h-45.956c-10.447,0-18.946,8.498-18.946,18.945c0,10.448,8.499,18.947,18.946,18.947h45.956     c10.447,0,18.946-8.499,18.946-18.947C466.456,98.251,457.955,89.753,447.509,89.753z M447.509,111.603h-45.956     c-1.601,0-2.904-1.304-2.904-2.905c0-1.6,1.303-2.903,2.904-2.903h45.956c1.601,0,2.904,1.303,2.904,2.903     C450.413,110.299,449.11,111.603,447.509,111.603z" fill="#474747" id="svg_7"/></g><g transform="matrix(0.1171875 0 0 0.1171875 11 229)" id="L1_104"><rect x="44" y="391" width="247" height="16" fill="#474747" id="svg_8"/><rect x="44" y="245" width="247" height="16" fill="#474747" id="svg_9"/><rect x="44" y="142" width="202" height="16" fill="#474747" id="svg_10"/><rect x="44" y="318" width="247" height="16" fill="#474747" id="svg_11"/><rect x="44" y="428" width="292" height="16" fill="#474747" id="svg_12"/><rect x="44" y="208" width="292" height="16" fill="#474747" id="svg_13"/><path d="M511.981,114.304c0-2.11-0.806-4.185-2.357-5.736L407.636,6.581c-1.551-1.551-3.625-2.356-5.736-2.356V4.205H139.375     c-4.48,0-8.112,3.632-8.112,8.112v36.188H8.112C3.632,48.504,0,52.136,0,56.616v443.068c0,4.48,3.632,8.112,8.112,8.112h364.513     c4.48,0,8.112-3.632,8.112-8.112v-36.188h123.152c4.48,0,8.112-3.632,8.112-8.112v-341.08H511.981z M410.012,31.9l74.292,74.292     h-74.292V31.9z M364.513,491.572H16.223V64.728h246.302v93.876c0,4.48,3.632,8.112,8.112,8.112h93.876V491.572z M278.748,150.492     V76.2l74.292,74.292H278.748z M495.777,447.272h-115.04V158.604h-0.019c-0.001-2.11-0.806-4.185-2.357-5.735L276.372,50.88     c-1.551-1.552-3.625-2.356-5.735-2.356v-0.019h-123.15V20.428h246.302v93.876c0,4.48,3.632,8.112,8.112,8.112h93.876V447.272z" fill="#474747" id="svg_14"/><rect x="44" y="355" width="292" height="16" fill="#474747" id="svg_15"/><rect x="44" y="281" width="292" height="16" fill="#474747" id="svg_16"/></g><g transform="matrix(0.1171875 0 0 0.1171875 281 111)" id="L1_105"><circle cx="255" cy="223" r="7" fill="#474747" id="svg_17"/><rect x="121" y="79" width="246" height="16" fill="#474747" id="svg_18"/><path d="M404.385,0h-296.77C83.316,0,63.547,19.769,63.547,44.068v459.845c0,4.467,3.621,8.088,8.088,8.088h368.731     c4.468,0,8.088-3.621,8.088-8.088V44.068C448.453,19.769,428.685,0,404.385,0z M79.722,44.068     c0-15.379,12.513-27.893,27.893-27.893h296.77c15.379,0,27.891,12.513,27.891,27.893v59.371h-8.434V55.182     c0-4.467-3.621-8.088-8.088-8.088H96.245c-4.467,0-8.088,3.621-8.088,8.088v48.256h-8.435V44.068z M407.667,63.27v40.169H104.332     V63.27H407.667z M79.722,119.614h168.19v69.115c-16.019,3.683-28.005,18.046-28.005,35.166c0,8.333,2.847,16.009,7.609,22.126     V378.57c0,4.467,3.621,8.088,8.088,8.088c4.466,0,8.088-3.621,8.088-8.088V257.822c1.37,0.498,2.78,0.907,4.221,1.238v200.783     H107.615c-10.575,0-20.29,3.747-27.893,9.979V119.614z M256,203.979c10.982,0,19.916,8.934,19.916,19.916     c0,10.982-8.934,19.916-19.916,19.916c-10.982,0-19.917-8.934-19.917-19.916C236.083,212.913,245.018,203.979,256,203.979z      M80.923,495.825c3.476-11.448,14.125-19.805,26.692-19.805h296.77c12.567,0,23.216,8.357,26.692,19.805H80.923z      M432.278,469.824c-7.602-6.232-17.317-9.979-27.891-9.979H264.088V259.061c16.018-3.683,28.004-18.046,28.004-35.166     s-11.985-31.483-28.004-35.166v-69.115h168.19V469.824z" fill="#474747" id="svg_19"/></g><g transform="matrix(0.1171875 0 0 0.1171875 186 220)" id="L1_106"><path d="M437.02,74.981C388.668,26.629,324.38,0,256,0S123.333,26.629,74.981,74.981C26.629,123.332,0,187.62,0,256     s26.629,132.668,74.981,181.019C123.333,485.371,187.62,512,256,512s132.668-26.629,181.02-74.981     C485.371,388.668,512,324.38,512,256S485.371,123.332,437.02,74.981z M425.611,86.39c14.814,14.814,27.436,31.232,37.737,48.85     l-128.717,69.278c-5.933-9.031-13.377-16.984-21.972-23.496l77.78-123.739C402.922,65.767,414.703,75.481,425.611,86.39z      M333.884,256c0,42.945-34.938,77.883-77.884,77.883c-42.945,0-77.883-34.939-77.883-77.883s34.938-77.883,77.883-77.883     C298.946,178.117,333.884,213.055,333.884,256z M16.135,256c0-64.071,24.951-124.307,70.255-169.611     C131.694,41.084,191.93,16.135,256,16.135c43.133,0,84.521,11.323,120.793,32.537l-77.781,123.741     c-12.897-6.663-27.523-10.43-43.012-10.43c-51.842,0-94.018,42.176-94.018,94.018c0,22.795,8.157,43.719,21.702,60.013     l-103.998,102.6C38.639,374.194,16.135,316.831,16.135,256z M91.012,430.106l104.006-102.609c1.824,1.559,3.709,3.047,5.65,4.464     l-75.597,125.092C113.042,449.186,101.641,440.191,91.012,430.106z M138.86,465.429l75.604-125.101     c6.574,3.251,13.58,5.757,20.908,7.404L215.667,492.5C188.568,487.938,162.657,478.786,138.86,465.429z M256,495.865     c-8.185,0-16.306-0.413-24.341-1.218l19.702-144.745c1.537,0.075,3.084,0.116,4.64,0.116c0.86,0,1.718-0.014,2.573-0.037     l16.511,145.13C268.767,495.605,262.403,495.865,256,495.865z M425.611,425.611c-36.916,36.917-83.75,60.315-134.491,67.714     l-16.513-145.158c42.96-8.659,75.413-46.692,75.413-92.167c0-13.241-2.757-25.849-7.718-37.286l128.716-69.278     c16.248,32.709,24.849,68.975,24.849,106.564C495.865,320.071,470.916,380.307,425.611,425.611z" fill="#474747" id="svg_20"/><path d="M256,208.834c-26.007,0-47.165,21.159-47.165,47.167c0,26.008,21.158,47.167,47.165,47.167     c26.008,0,47.167-21.159,47.167-47.167C303.167,229.993,282.008,208.834,256,208.834z M256,287.032     c-17.11,0-31.03-13.92-31.03-31.032s13.92-31.032,31.03-31.032c17.111,0,31.032,13.92,31.032,31.032S273.111,287.032,256,287.032     z" fill="#474747" id="svg_21"/></g><path d="M146.34561915148106,353.75044350693724 c-0.40183671786633823,-0.9082049150019884 -0.9618769172430461,-1.7248861960246842 -1.6645345861018797,-2.427426741525693 L112.41731055165974,319.0593578633892 c-0.000585938641743243,-0.000585938641743243 -0.001406252783839615,-0.0012890650336630505 -0.0019921915347224373,-0.0019921915347224373 l-3.692585429623776,-3.692585429623776 l0.00011718773653411705,-0.00011718773653411705 l-5.012470677219056,-5.012236430503407 C102.19350088820664,308.83531412085887 100.17681726889379,308 98.03146157104607,308 C95.88622254952045,308 93.8695389302076,308.83543135597563 92.35266091194754,310.3523093183562 C90.83566571445019,311.8693046834919 90.00023437547307,313.8859883028048 90.00023437547307,316.0313435536168 c0,2.14512145113207 0.8354313559756115,4.162039317160577 2.3523093183562054,5.6789173354206355 l3.694460297420406,3.694577644296089 l37.27577642102506,37.276244914456356 c0.7024232545047902,0.7023060752675008 1.5189873562901965,1.2622290395274547 2.417114074572794,1.6598469695745877 c2.8275056031942967,1.291877565860787 10.499200652413606,3.658015040047502 12.247055767089876,3.658015040047502 c0.0092578311725528,0 0.0185156623451056,-0.00011718773653411705 0.027773492644541764,-0.00035156319595990373 c0.02507817460875994,0.0010546895333099215 0.05015634921751988,0.0015234405340161794 0.07523452557251309,0.0015234405340161794 c0.5080088182166307,0 0.9925801125914475,-0.19804727204145323 1.351760458834434,-0.5575792118757725 c0.3772273178324337,-0.3769929314181226 0.5766808245405564,-0.8910955170095178 0.5566417220979929,-1.4254715076385907 c0.0002343754730682341,-0.009960957237053869 0.0004687509461364682,-0.019804726505652015 0.0004687509461364682,-0.02976568461582252 C149.99906325132338,364.23932836314793 147.63292465954737,356.5674015259094 146.34561915148106,353.75044350693724 zM111.08230633260143,320.39037631199574 l28.611267571293297,28.61114955386404 c-0.22886763265727783,-0.01933597637806239 -0.4592587071582468,-0.031054747030135665 -0.6916419823616629,-0.031054747030135665 c-0.9862519867421042,-0.00011718773653411705 -1.9444960682318566,0.17847691448777958 -2.8401618548929832,0.5166806964501554 L105.4115921025857,318.73674023315374 c0.43113365060833786,-0.09433612426743077 0.8750407880321163,-0.14449247697741718 1.3267994372694645,-0.14449247697741718 C108.37913857314891,318.5922475605982 109.92179624713049,319.2308032133874 111.08230633260143,320.39037631199574 zM93.68567135170852,320.37713332591863 c-1.160861679062279,-1.1609788024201038 -1.8001207425519965,-2.7043412282093584 -1.8001207425519965,-4.3459068956596525 c0,-1.641682902567048 0.6392590634897175,-3.185045440115232 1.8001207425519965,-4.3459068956596525 c1.160861679062279,-1.160861679062279 2.7042241048515336,-1.8001207425519965 4.3459068956596525,-1.8001207425519965 c1.641682902567048,0 3.185045440115232,0.6392590634897175 4.3459068956596525,1.8001207425519965 l0.04031258082203837,0.04031258082203837 c-0.22886763265727783,-0.01933597637806239 -0.4592587071582468,-0.031054747030135665 -0.6916419823616629,-0.031054747030135665 c-2.14512145113207,0 -4.162039317160577,0.8354313559756115 -5.6789173354206355,2.3523093183562054 c-1.5169951416178833,1.5168780182600585 -2.35242644171403,3.5336787609307407 -2.35242644171403,5.6789173354206355 c0,0.23226608199626053 0.011718773271423177,0.46277433573451887 0.031054747030135665,0.6915248031243735 L93.68567135170852,320.37713332591863 zM98.69790778221193,325.38972157353123 l-1.3178932564408257,-1.3178932564408257 c-1.160861679062279,-1.160861679062279 -1.8001207425519965,-2.7043412282093584 -1.8001207425519965,-4.3459068956596525 c0,-1.641682902567048 0.6393762427270069,-3.1849280932395487 1.8002379776687505,-4.3459068956596525 c1.160744443945525,-1.160861679062279 2.704106981493709,-1.8001207425519965 4.345789772301828,-1.8001207425519965 c1.641682902567048,0 3.1849280932395487,0.6392590634897175 4.3459068956596525,1.8001207425519965 l1.3579714613259526,1.3579714613259526 c-0.22863326021283292,-0.01933597637806239 -0.45902434868366804,-0.031054747030135665 -0.6912904446497947,-0.031054747030135665 c-2.14512145113207,0 -4.162039317160577,0.8354313559756115 -5.67903445877846,2.3523093183562054 c-1.5169951416178833,1.5168780182600585 -2.3523093183562054,3.5336787609307407 -2.3523093183562054,5.67903445877846 c0,0.23238327520341606 0.011718773271423177,0.46289154291154055 0.031054747030135665,0.6917591615989522 L98.69790778221193,325.38972157353123 zM131.0057458830272,357.6976759036329 L102.39248542650802,329.0841820944695 c-1.1606273205877002,-1.1609788024201038 -1.7998863840774177,-2.7043412282093584 -1.7998863840774177,-4.346024019017477 c0,-0.4518758843541022 0.05015634921751988,-0.8957830217778806 0.14449247697741718,-1.3266823139116397 l30.753929431911047,30.753929431911047 C131.06550919394658,355.2976698859454 130.90308860100095,356.50657963441245 131.0057458830272,357.6976759036329 zM101.5052572154853,321.51362060603543 c0.24867236265539638,-0.4019539250433599 0.5445713665857532,-0.7787124700471715 0.8873455020189347,-1.1213694262430636 c0.3426569282561598,-0.3426569282561598 0.719298294022682,-0.6384387529492273 1.1212521911263096,-0.8872283227816453 l30.9028745802068,30.90310703877958 c-0.3866023273691592,0.2701177277043616 -0.7533999107703337,0.5741027136817962 -1.0938302379398692,0.9146502200886211 c-0.34277410749344916,0.34289131467047085 -0.6457044244558148,0.7102748221978246 -0.9134783718362627,1.0950021420716922 L101.5052572154853,321.51362060603543 zM143.14627750913974,364.94948572671115 c-2.4168798278571444,-0.7189467563108138 -5.1130179506616,-1.6332454386875668 -6.632825393974429,-2.3278171254993225 c-0.6950404596403779,-0.30785218020530714 -1.3200025944709637,-0.7364076920151525 -1.857425580546348,-1.2738306222110722 c-2.396254717469205,-2.3963718408270296 -2.396254717469205,-6.295559297367959 0,-8.692048038034955 c1.160861679062279,-1.160861679062279 2.7043412282093584,-1.8001207425519965 4.346024019017477,-1.8001207425519965 c1.641800137683802,0 3.1851625634730567,0.6393762427270069 4.346024019017477,1.8002379776687505 c0.5376572886704984,0.5375401094332091 0.9662128284200762,1.1625023001432595 1.2781665333881023,1.8675036655068098 c0.6919935759529956,1.5142998515218338 1.605120298318461,4.207391090638907 2.3233639792055385,6.622747420772896 c-0.9636346616818514,0.09574237290396637 -1.8837928647177193,0.5156260274350863 -2.585864469751712,1.217463329873965 C143.66190281014178,363.06581311460127 143.24213627198355,363.98596997653 143.14627750913974,364.94948572671115 zM148.10882457860384,366.1096471243229 c-0.006093762136064718,0.0059765741676089945 -0.020625040538608808,0.005507823166902737 -0.02648442673776208,0.004921884634299073 c-0.029648494901133526,-0.0029296933178557943 -0.05929698980226705,-0.004218758133239686 -0.08894548819586712,-0.004218758133239686 c-0.02179691847693277,0 -0.04359383695386554,0.0007031263919198075 -0.06527356396987605,0.0022265668167964076 c-0.4659384265989228,-0.020507852570153084 -1.5587139675839907,-0.2656645814105776 -2.9164509586764353,-0.6323449855744627 c-0.03093756080791321,-0.6581263176799226 0.21222697955369707,-1.3101588679850806 0.6851966772750302,-1.7832457030341047 c0.47308689092848866,-0.47308689092848866 1.125236620470936,-0.7162514103352997 1.7833629381508587,-0.685431035749609 c0.36550852797179445,1.35410426709808 0.61043090357634,2.444770386233813 0.632110627099884,2.912818346441 c-0.0037500075690917456,0.05226572915725636 -0.0031640688182089233,0.10523458263278052 0.0019921915347224373,0.15808624639361568 C148.11468611092369,366.0857396541837 148.11597357378832,366.1023801117092 148.10882457860384,366.1096471243229 z" id="L1_107" fill="#474747"/><g transform="matrix(0.1171875 0 0 0.1171875 267 305)" id="L1_108"><path d="M503.916,65.705h-77.848H248.156c-3.224,0-6.139,1.914-7.419,4.873l-22.781,52.639c-1.081,2.497-0.832,5.373,0.662,7.649    c1.495,2.275,4.035,3.646,6.757,3.646h98.554v25.058H214.72l-24.685-37.58c-1.495-2.275-4.035-3.646-6.757-3.646H99.372H84.26    H8.084c-4.465,0-8.084,3.618-8.084,8.084v22.322c0,4.466,3.62,8.084,8.084,8.084h34.982v281.376c0,4.466,3.62,8.084,8.084,8.084    h75.302h276.836h100.628c4.465,0,8.084-3.618,8.084-8.084V73.789C512,69.324,508.38,65.705,503.916,65.705z M243.838,175.739    h51.931v2.233c0,0.075-0.095,0.171-0.17,0.171h-51.59c-0.074,0-0.17-0.096-0.17-0.171V175.739z M118.368,430.126H59.235V148.751    c0-4.466-3.62-8.084-8.084-8.084H16.168v-6.154H84.26h10.751l23.357,35.56V430.126z M114.354,134.513h64.563l16.459,25.058    h-64.563L114.354,134.513z M134.536,175.74h93.133v2.233c0,9.009,7.33,16.34,16.339,16.34h51.59    c9.009,0,16.339-7.331,16.339-16.34v-2.233h2.143v25.782c0,4.466,3.62,8.084,8.084,8.084h73.039v64.787H134.536V175.74z     M395.204,430.126H134.536v-66.334h260.667V430.126z M395.204,347.624H134.536v-20.448h260.667V347.624z M395.204,311.008H134.536    v-20.448h260.667V311.008z M395.204,193.437h-64.955v-17.698h64.955V193.437z M340.097,159.571v-25.058h55.106v25.058H340.097z     M397.977,118.344H237.681l15.785-36.471h160.295L397.977,118.344z M495.832,430.126h-84.459v-66.334h84.459V430.126z     M495.832,347.624h-84.46v-20.448h0h84.459V347.624z M495.832,311.008h-84.459v-20.448h84.459V311.008z M495.832,274.392h-84.46    V128.104l20.007-46.23h64.453V274.392z" fill="#474747" id="svg_22"/><path d="M264.355,91.083 255.599,109.134 310.802,109.134 319.558,91.083z" fill="#474747" id="svg_23"/><path d="M349.619,85.937 344.684,97.344 362.713,97.344 367.649,85.937z" fill="#474747" id="svg_24"/><path d="M342.29,102.873 337.354,114.279 355.383,114.279 360.32,102.873z" fill="#474747" id="svg_25"/><path d="M379.916,85.937 374.979,97.344 393.009,97.344 397.946,85.937z" fill="#474747" id="svg_26"/><path d="M372.586,102.873 367.649,114.279 385.679,114.279 390.615,102.873z" fill="#474747" id="svg_27"/></g><linearGradient id="svg_123"><stop stop-color="#000000" stop-opacity="0.99609375" offset="0"/><stop stop-color="#030a03" stop-opacity="0" offset="1"/></linearGradient></defs><g class="currentLayer" style=""><title>Layer 1</title><rect x="0px" y="0px" width="100%" height="100%" opacity="1" fill="#313131" id="svg_28"/><g fi:class="KUsePattern" id="svg_29"><pattern id="pattern_L1_101" width="350" height="350" patternUnits="userSpaceOnUse"><use xlink:href="#L1_101" x="-350" y="-350" id="svg_30"/><use xlink:href="#L1_101" x="0" y="-350" id="svg_31"/><use xlink:href="#L1_101" x="350" y="-350" id="svg_32"/><use xlink:href="#L1_101" x="-350" y="0" id="svg_33"/><use xlink:href="#L1_101" x="0" y="0" id="svg_34"/><use xlink:href="#L1_101" x="350" y="0" id="svg_35"/><use xlink:href="#L1_101" x="-350" y="350" id="svg_36"/><use xlink:href="#L1_101" x="0" y="350" id="svg_37"/><use xlink:href="#L1_101" x="350" y="350" id="svg_38"/></pattern><rect x="0" y="0" width="100%" height="100%" fill="url(#pattern_L1_101)" id="svg_39"/></g><g fi:class="KUsePattern" id="svg_40"><pattern id="pattern_L1_102" width="350" height="350" patternUnits="userSpaceOnUse"><use xlink:href="#L1_102" x="-350" y="-350" id="svg_41"/><use xlink:href="#L1_102" x="0" y="-350" id="svg_42"/><use xlink:href="#L1_102" x="350" y="-350" id="svg_43"/><use xlink:href="#L1_102" x="-350" y="0" id="svg_44"/><use xlink:href="#L1_102" x="0" y="0" id="svg_45"/><use xlink:href="#L1_102" x="350" y="0" id="svg_46"/><use xlink:href="#L1_102" x="-350" y="350" id="svg_47"/><use xlink:href="#L1_102" x="0" y="350" id="svg_48"/><use xlink:href="#L1_102" x="350" y="350" id="svg_49"/></pattern><rect x="0" y="0" width="100%" height="100%" fill="url(#pattern_L1_102)" id="svg_50"/></g><g fi:class="KUsePattern" id="svg_51"><pattern id="pattern_L1_103" width="350" height="350" patternUnits="userSpaceOnUse"><use xlink:href="#L1_103" x="-350" y="-350" id="svg_52"/><use xlink:href="#L1_103" x="0" y="-350" id="svg_53"/><use xlink:href="#L1_103" x="350" y="-350" id="svg_54"/><use xlink:href="#L1_103" x="-350" y="0" id="svg_55"/><use xlink:href="#L1_103" x="0" y="0" id="svg_56"/><use xlink:href="#L1_103" x="350" y="0" id="svg_57"/><use xlink:href="#L1_103" x="-350" y="350" id="svg_58"/><use xlink:href="#L1_103" x="0" y="350" id="svg_59"/><use xlink:href="#L1_103" x="350" y="350" id="svg_60"/></pattern><rect x="0" y="0" width="100%" height="100%" fill="url(#pattern_L1_103)" id="svg_61"/></g><g fi:class="KUsePattern" id="svg_62"><pattern id="pattern_L1_104" width="350" height="350" patternUnits="userSpaceOnUse"><use xlink:href="#L1_104" x="-350" y="-350" id="svg_63"/><use xlink:href="#L1_104" x="0" y="-350" id="svg_64"/><use xlink:href="#L1_104" x="350" y="-350" id="svg_65"/><use xlink:href="#L1_104" x="-350" y="0" id="svg_66"/><use xlink:href="#L1_104" x="0" y="0" id="svg_67"/><use xlink:href="#L1_104" x="350" y="0" id="svg_68"/><use xlink:href="#L1_104" x="-350" y="350" id="svg_69"/><use xlink:href="#L1_104" x="0" y="350" id="svg_70"/><use xlink:href="#L1_104" x="350" y="350" id="svg_71"/></pattern><rect x="0" y="0" width="100%" height="100%" fill="url(#pattern_L1_104)" id="svg_72"/></g><g fi:class="KUsePattern" id="svg_73"><pattern id="pattern_L1_105" width="350" height="350" patternUnits="userSpaceOnUse"><use xlink:href="#L1_105" x="-350" y="-350" id="svg_74"/><use xlink:href="#L1_105" x="0" y="-350" id="svg_75"/><use xlink:href="#L1_105" x="350" y="-350" id="svg_76"/><use xlink:href="#L1_105" x="-350" y="0" id="svg_77"/><use xlink:href="#L1_105" x="0" y="0" id="svg_78"/><use xlink:href="#L1_105" x="350" y="0" id="svg_79"/><use xlink:href="#L1_105" x="-350" y="350" id="svg_80"/><use xlink:href="#L1_105" x="0" y="350" id="svg_81"/><use xlink:href="#L1_105" x="350" y="350" id="svg_82"/></pattern><rect x="0" y="0" width="100%" height="100%" fill="url(#pattern_L1_105)" id="svg_83"/></g><g fi:class="KUsePattern" id="svg_84"><pattern id="pattern_L1_106" width="350" height="350" patternUnits="userSpaceOnUse"><use xlink:href="#L1_106" x="-350" y="-350" id="svg_85"/><use xlink:href="#L1_106" x="0" y="-350" id="svg_86"/><use xlink:href="#L1_106" x="350" y="-350" id="svg_87"/><use xlink:href="#L1_106" x="-350" y="0" id="svg_88"/><use xlink:href="#L1_106" x="0" y="0" id="svg_89"/><use xlink:href="#L1_106" x="350" y="0" id="svg_90"/><use xlink:href="#L1_106" x="-350" y="350" id="svg_91"/><use xlink:href="#L1_106" x="0" y="350" id="svg_92"/><use xlink:href="#L1_106" x="350" y="350" id="svg_93"/></pattern><rect x="0" y="0" width="100%" height="100%" fill="url(#pattern_L1_106)" id="svg_94"/></g><g fi:class="KUsePattern" id="svg_95"><pattern id="pattern_L1_107" width="350" height="350" patternUnits="userSpaceOnUse"><use xlink:href="#L1_107" x="-350" y="-350" id="svg_96"/><use xlink:href="#L1_107" x="0" y="-350" id="svg_97"/><use xlink:href="#L1_107" x="350" y="-350" id="svg_98"/><use xlink:href="#L1_107" x="-350" y="0" id="svg_99"/><use xlink:href="#L1_107" x="0" y="0" id="svg_100"/><use xlink:href="#L1_107" x="350" y="0" id="svg_101"/><use xlink:href="#L1_107" x="-350" y="350" id="svg_102"/><use xlink:href="#L1_107" x="0" y="350" id="svg_103"/><use xlink:href="#L1_107" x="350" y="350" id="svg_104"/></pattern><rect x="0" y="0" width="100%" height="100%" fill="url(#pattern_L1_107)" id="svg_105"/></g><g fi:class="KUsePattern" id="svg_106" class=""><pattern id="pattern_L1_108" width="350" height="350" patternUnits="userSpaceOnUse"><use xlink:href="#L1_108" x="-350" y="-350" id="svg_107"/><use xlink:href="#L1_108" x="0" y="-350" id="svg_108"/><use xlink:href="#L1_108" x="350" y="-350" id="svg_109"/><use xlink:href="#L1_108" x="-350" y="0" id="svg_110"/><use xlink:href="#L1_108" x="0" y="0" id="svg_111"/><use xlink:href="#L1_108" x="350" y="0" id="svg_112"/><use xlink:href="#L1_108" x="-350" y="350" id="svg_113"/><use xlink:href="#L1_108" x="0" y="350" id="svg_114"/><use xlink:href="#L1_108" x="350" y="350" id="svg_115"/></pattern><rect x="0" y="0" width="100%" height="100%" fill="url(#pattern_L1_108)" id="svg_116"/></g><rect fill="url(#svg_123)" stroke="none" style="color: rgb(0, 0, 0);" stroke-width="2" stroke-linejoin="round" stroke-dashoffset="" fill-rule="nonzero" id="svg_120" x="-338" y="-430" width="2559" height="1596" class="" opacity="1" transform="translate(0, -1.42857) translate(0, -1.42857) translate(0, -1.42857) translate(0, -1.42857) translate(0, 1.42857) translate(0, 1.42857) translate(0, 1.42857) translate(0, 1.42857) translate(0, 1.42857) translate(0, 1.42857) translate(0, -1.42857) translate(0, -1.42857) translate(0, -1.42857) translate(0, -1.42857) translate(24.3809) translate(731.426, 560.76) translate(12.1904) translate(-338, -430) scale(0.514098, 0.297294) translate(338, 430) translate(-338, -430) scale(1.32393, 1.97768) translate(338, 430) translate(2221, 1166) scale(1.24771) translate(-2221, -1166) translate(-338, 1166) scale(1, 0.908343) translate(338, -1166) translate(-338, -430) scale(0.990472, 1.01528) translate(338, 430) translate(2221, 1166) scale(1) translate(-2221, -1166) translate(2221, 1166) scale(1) translate(-2221, -1166) translate(-338, -430) scale(1.00476, 0.992362) translate(338, 430) translate(-338, -430) scale(1, 1.00764) translate(338, 430)" fill-opacity="1"/></g></svg>
