<?xml version="1.0" encoding="UTF-8" standalone="no"?>
<!DOCTYPE svg PUBLIC "-//W3C//DTD SVG 1.1//EN"
 "http://www.w3.org/Graphics/SVG/1.1/DTD/svg11.dtd">
<!-- Generated by graphviz version 2.47.0 (20210316.0004)
 -->
<!-- Title: dependencies Pages: 1 -->
<svg width="950pt" height="211pt"
 viewBox="0.00 0.00 950.00 211.00" xmlns="http://www.w3.org/2000/svg" xmlns:xlink="http://www.w3.org/1999/xlink">
<g id="graph0" class="graph" transform="scale(1 1) rotate(0) translate(4 207)">
<title>dependencies</title>
<polygon fill="white" stroke="transparent" points="-4,4 -4,-207 946,-207 946,4 -4,4"/>
<text text-anchor="start" x="450.01" y="-42.4" font-family="Times-12" font-weight="bold" font-size="14.00">Legend</text>
<polygon fill="#ffffb3" stroke="transparent" points="237,-10 237,-30 257,-30 257,-10 237,-10"/>
<text text-anchor="start" x="260.63" y="-15.4" font-family="Times-12" font-size="14.00"> &#160;Declarations</text>
<polygon fill="#8dd3c7" stroke="transparent" points="350,-10 350,-30 370,-30 370,-10 350,-10"/>
<text text-anchor="start" x="373.73" y="-15.4" font-family="Times-12" font-size="14.00"> &#160;Module</text>
<polygon fill="#80b1d3" stroke="transparent" points="436,-10 436,-30 456,-30 456,-10 436,-10"/>
<text text-anchor="start" x="459.78" y="-15.4" font-family="Times-12" font-size="14.00"> &#160;Bootstrap</text>
<polygon fill="#fdb462" stroke="transparent" points="533,-10 533,-30 553,-30 553,-10 533,-10"/>
<text text-anchor="start" x="556.67" y="-15.4" font-family="Times-12" font-size="14.00"> &#160;Providers</text>
<polygon fill="#fb8072" stroke="transparent" points="629,-10 629,-30 649,-30 649,-10 629,-10"/>
<text text-anchor="start" x="652.73" y="-15.4" font-family="Times-12" font-size="14.00"> &#160;Exports</text>
<g id="clust1" class="cluster">
<title>cluster_SnackBarModule</title>
<polygon fill="none" stroke="black" stroke-dasharray="1,5" points="8,-70 8,-195 934,-195 934,-70 8,-70"/>
</g>
<g id="clust7" class="cluster">
<title>cluster_SnackBarModule_imports</title>
<polygon fill="none" stroke="black" points="804,-78 804,-130 926,-130 926,-78 804,-78"/>
</g>
<g id="clust2" class="cluster">
<title>cluster_SnackBarModule_declarations</title>
<polygon fill="none" stroke="black" points="16,-78 16,-130 796,-130 796,-78 16,-78"/>
</g>
<!-- ErrorSnackBarComponent -->
<g id="node1" class="node">
<title>ErrorSnackBarComponent</title>
<polygon fill="#ffffb3" stroke="black" points="787.79,-122 622.21,-122 622.21,-86 787.79,-86 787.79,-122"/>
<text text-anchor="middle" x="705" y="-99.8" font-family="Times,serif" font-size="14.00">ErrorSnackBarComponent</text>
</g>
<!-- SnackBarModule -->
<g id="node5" class="node">
<title>SnackBarModule</title>
<polygon fill="#8dd3c7" stroke="black" points="570.97,-187 567.97,-191 546.97,-191 543.97,-187 457.03,-187 457.03,-151 570.97,-151 570.97,-187"/>
<text text-anchor="middle" x="514" y="-164.8" font-family="Times,serif" font-size="14.00">SnackBarModule</text>
</g>
<!-- ErrorSnackBarComponent&#45;&gt;SnackBarModule -->
<g id="edge1" class="edge">
<title>ErrorSnackBarComponent&#45;&gt;SnackBarModule</title>
<path fill="none" stroke="black" d="M705,-122.02C705,-139.37 705,-163 705,-163 705,-163 581.05,-163 581.05,-163"/>
<polygon fill="black" stroke="black" points="581.05,-159.5 571.05,-163 581.05,-166.5 581.05,-159.5"/>
</g>
<!-- GenericSnackBarComponent -->
<g id="node2" class="node">
<title>GenericSnackBarComponent</title>
<polygon fill="#ffffb3" stroke="black" points="604.06,-122 423.94,-122 423.94,-86 604.06,-86 604.06,-122"/>
<text text-anchor="middle" x="514" y="-99.8" font-family="Times,serif" font-size="14.00">GenericSnackBarComponent</text>
</g>
<!-- GenericSnackBarComponent&#45;&gt;SnackBarModule -->
<g id="edge2" class="edge">
<title>GenericSnackBarComponent&#45;&gt;SnackBarModule</title>
<path fill="none" stroke="black" d="M514,-122.11C514,-122.11 514,-140.99 514,-140.99"/>
<polygon fill="black" stroke="black" points="510.5,-140.99 514,-150.99 517.5,-140.99 510.5,-140.99"/>
</g>
<!-- SuccessSnackBarComponent -->
<g id="node3" class="node">
<title>SuccessSnackBarComponent</title>
<polygon fill="#ffffb3" stroke="black" points="406.07,-122 225.93,-122 225.93,-86 406.07,-86 406.07,-122"/>
<text text-anchor="middle" x="316" y="-99.8" font-family="Times,serif" font-size="14.00">SuccessSnackBarComponent</text>
</g>
<!-- SuccessSnackBarComponent&#45;&gt;SnackBarModule -->
<g id="edge3" class="edge">
<title>SuccessSnackBarComponent&#45;&gt;SnackBarModule</title>
<path fill="none" stroke="black" d="M316,-122.02C316,-139.37 316,-163 316,-163 316,-163 447,-163 447,-163"/>
<polygon fill="black" stroke="black" points="447,-166.5 457,-163 447,-159.5 447,-166.5"/>
</g>
<!-- WarningSnackBarComponent -->
<g id="node4" class="node">
<title>WarningSnackBarComponent</title>
<polygon fill="#ffffb3" stroke="black" points="208.24,-122 23.76,-122 23.76,-86 208.24,-86 208.24,-122"/>
<text text-anchor="middle" x="116" y="-99.8" font-family="Times,serif" font-size="14.00">WarningSnackBarComponent</text>
</g>
<!-- WarningSnackBarComponent&#45;&gt;SnackBarModule -->
<g id="edge4" class="edge">
<title>WarningSnackBarComponent&#45;&gt;SnackBarModule</title>
<path fill="none" stroke="black" d="M116,-122.28C116,-143.32 116,-175 116,-175 116,-175 446.98,-175 446.98,-175"/>
<polygon fill="black" stroke="black" points="446.98,-178.5 456.98,-175 446.98,-171.5 446.98,-178.5"/>
</g>
<!-- MaterialModule -->
<g id="node6" class="node">
<title>MaterialModule</title>
<polygon fill="#8dd3c7" stroke="black" points="918.47,-122 915.47,-126 894.47,-126 891.47,-122 811.53,-122 811.53,-86 918.47,-86 918.47,-122"/>
<text text-anchor="middle" x="865" y="-99.8" font-family="Times,serif" font-size="14.00">MaterialModule</text>
</g>
<!-- MaterialModule&#45;&gt;SnackBarModule -->
<g id="edge5" class="edge">
<title>MaterialModule&#45;&gt;SnackBarModule</title>
<path fill="none" stroke="black" d="M865,-122.28C865,-143.32 865,-175 865,-175 865,-175 581.18,-175 581.18,-175"/>
<polygon fill="black" stroke="black" points="581.18,-171.5 571.18,-175 581.18,-178.5 581.18,-171.5"/>
</g>
</g>
</svg>
