<?xml version="1.0" encoding="UTF-8" standalone="no"?>
<!DOCTYPE svg PUBLIC "-//W3C//DTD SVG 1.1//EN"
 "http://www.w3.org/Graphics/SVG/1.1/DTD/svg11.dtd">
<!-- Generated by graphviz version 3.0.0 (20220226.1711)
 -->
<!-- Title: dependencies Pages: 1 -->
<svg width="950pt" height="174pt"
 viewBox="0.00 0.00 950.00 173.80" xmlns="http://www.w3.org/2000/svg" xmlns:xlink="http://www.w3.org/1999/xlink">
<g id="graph0" class="graph" transform="scale(1 1) rotate(0) translate(4 169.8)">
<title>dependencies</title>
<polygon fill="white" stroke="transparent" points="-4,4 -4,-169.8 946,-169.8 946,4 -4,4"/>
<text text-anchor="middle" x="471" y="-8.2" font-family="sans-serif" font-size="14.00">dependencies</text>
<g id="clust1" class="cluster">
<title>cluster_SnackBarModule</title>
<polygon fill="none" stroke="black" stroke-dasharray="1,5" points="8,-32.8 8,-157.8 934,-157.8 934,-32.8 8,-32.8"/>
</g>
<g id="clust7" class="cluster">
<title>cluster_SnackBarModule_imports</title>
<polygon fill="none" stroke="black" points="804,-40.8 804,-92.8 926,-92.8 926,-40.8 804,-40.8"/>
</g>
<g id="clust2" class="cluster">
<title>cluster_SnackBarModule_declarations</title>
<polygon fill="none" stroke="black" points="16,-40.8 16,-92.8 796,-92.8 796,-40.8 16,-40.8"/>
</g>
<!-- ErrorSnackBarComponent -->
<g id="node1" class="node">
<title>ErrorSnackBarComponent</title>
<polygon fill="#ffffb3" stroke="black" points="787.8,-84.8 622.2,-84.8 622.2,-48.8 787.8,-48.8 787.8,-84.8"/>
<text text-anchor="middle" x="705" y="-62.6" font-family="Times,serif" font-size="14.00">ErrorSnackBarComponent</text>
</g>
<!-- SnackBarModule -->
<g id="node5" class="node">
<title>SnackBarModule</title>
<polygon fill="#8dd3c7" stroke="black" points="570.98,-149.8 567.98,-153.8 546.98,-153.8 543.98,-149.8 457.02,-149.8 457.02,-113.8 570.98,-113.8 570.98,-149.8"/>
<text text-anchor="middle" x="514" y="-127.6" font-family="Times,serif" font-size="14.00">SnackBarModule</text>
</g>
<!-- ErrorSnackBarComponent&#45;&gt;SnackBarModule -->
<g id="edge1" class="edge">
<title>ErrorSnackBarComponent&#45;&gt;SnackBarModule</title>
<path fill="none" stroke="black" d="M705,-84.82C705,-102.17 705,-125.8 705,-125.8 705,-125.8 581.05,-125.8 581.05,-125.8"/>
<polygon fill="black" stroke="black" points="581.05,-122.3 571.05,-125.8 581.05,-129.3 581.05,-122.3"/>
</g>
<!-- GenericSnackBarComponent -->
<g id="node2" class="node">
<title>GenericSnackBarComponent</title>
<polygon fill="#ffffb3" stroke="black" points="604.06,-84.8 423.94,-84.8 423.94,-48.8 604.06,-48.8 604.06,-84.8"/>
<text text-anchor="middle" x="514" y="-62.6" font-family="Times,serif" font-size="14.00">GenericSnackBarComponent</text>
</g>
<!-- GenericSnackBarComponent&#45;&gt;SnackBarModule -->
<g id="edge2" class="edge">
<title>GenericSnackBarComponent&#45;&gt;SnackBarModule</title>
<path fill="none" stroke="black" d="M514,-84.91C514,-84.91 514,-103.79 514,-103.79"/>
<polygon fill="black" stroke="black" points="510.5,-103.79 514,-113.79 517.5,-103.79 510.5,-103.79"/>
</g>
<!-- SuccessSnackBarComponent -->
<g id="node3" class="node">
<title>SuccessSnackBarComponent</title>
<polygon fill="#ffffb3" stroke="black" points="406.08,-84.8 225.92,-84.8 225.92,-48.8 406.08,-48.8 406.08,-84.8"/>
<text text-anchor="middle" x="316" y="-62.6" font-family="Times,serif" font-size="14.00">SuccessSnackBarComponent</text>
</g>
<!-- SuccessSnackBarComponent&#45;&gt;SnackBarModule -->
<g id="edge3" class="edge">
<title>SuccessSnackBarComponent&#45;&gt;SnackBarModule</title>
<path fill="none" stroke="black" d="M316,-84.82C316,-102.17 316,-125.8 316,-125.8 316,-125.8 447,-125.8 447,-125.8"/>
<polygon fill="black" stroke="black" points="447,-129.3 457,-125.8 447,-122.3 447,-129.3"/>
</g>
<!-- WarningSnackBarComponent -->
<g id="node4" class="node">
<title>WarningSnackBarComponent</title>
<polygon fill="#ffffb3" stroke="black" points="208.24,-84.8 23.76,-84.8 23.76,-48.8 208.24,-48.8 208.24,-84.8"/>
<text text-anchor="middle" x="116" y="-62.6" font-family="Times,serif" font-size="14.00">WarningSnackBarComponent</text>
</g>
<!-- WarningSnackBarComponent&#45;&gt;SnackBarModule -->
<g id="edge4" class="edge">
<title>WarningSnackBarComponent&#45;&gt;SnackBarModule</title>
<path fill="none" stroke="black" d="M116,-85.08C116,-106.12 116,-137.8 116,-137.8 116,-137.8 446.98,-137.8 446.98,-137.8"/>
<polygon fill="black" stroke="black" points="446.98,-141.3 456.98,-137.8 446.98,-134.3 446.98,-141.3"/>
</g>
<!-- MaterialModule -->
<g id="node6" class="node">
<title>MaterialModule</title>
<polygon fill="#8dd3c7" stroke="black" points="918.47,-84.8 915.47,-88.8 894.47,-88.8 891.47,-84.8 811.53,-84.8 811.53,-48.8 918.47,-48.8 918.47,-84.8"/>
<text text-anchor="middle" x="865" y="-62.6" font-family="Times,serif" font-size="14.00">MaterialModule</text>
</g>
<!-- MaterialModule&#45;&gt;SnackBarModule -->
<g id="edge5" class="edge">
<title>MaterialModule&#45;&gt;SnackBarModule</title>
<path fill="none" stroke="black" d="M865,-85.08C865,-106.12 865,-137.8 865,-137.8 865,-137.8 581.18,-137.8 581.18,-137.8"/>
<polygon fill="black" stroke="black" points="581.18,-134.3 571.18,-137.8 581.18,-141.3 581.18,-134.3"/>
</g>
</g>
</svg>
