<?xml version="1.0" encoding="UTF-8" standalone="no"?>
<!DOCTYPE svg PUBLIC "-//W3C//DTD SVG 1.1//EN"
 "http://www.w3.org/Graphics/SVG/1.1/DTD/svg11.dtd">
<!-- Generated by graphviz version 2.47.0 (20210316.0004)
 -->
<!-- Title: dependencies Pages: 1 -->
<svg width="950pt" height="211pt"
 viewBox="0.00 0.00 950.00 211.00" xmlns="http://www.w3.org/2000/svg" xmlns:xlink="http://www.w3.org/1999/xlink">
<g id="graph0" class="graph" transform="scale(1 1) rotate(0) translate(4 207)">
<title>dependencies</title>
<polygon fill="white" stroke="transparent" points="-4,4 -4,-207 946,-207 946,4 -4,4"/>
<text text-anchor="start" x="450.01" y="-42.4" font-family="Times-12" font-weight="bold" font-size="14.00">Legend</text>
<polygon fill="#ffffb3" stroke="transparent" points="237,-10 237,-30 257,-30 257,-10 237,-10"/>
<text text-anchor="start" x="260.63" y="-15.4" font-family="Times-12" font-size="14.00"> &#160;Declarations</text>
<polygon fill="#8dd3c7" stroke="transparent" points="350,-10 350,-30 370,-30 370,-10 350,-10"/>
<text text-anchor="start" x="373.73" y="-15.4" font-family="Times-12" font-size="14.00"> &#160;Module</text>
<polygon fill="#80b1d3" stroke="transparent" points="436,-10 436,-30 456,-30 456,-10 436,-10"/>
<text text-anchor="start" x="459.78" y="-15.4" font-family="Times-12" font-size="14.00"> &#160;Bootstrap</text>
<polygon fill="#fdb462" stroke="transparent" points="533,-10 533,-30 553,-30 553,-10 533,-10"/>
<text text-anchor="start" x="556.67" y="-15.4" font-family="Times-12" font-size="14.00"> &#160;Providers</text>
<polygon fill="#fb8072" stroke="transparent" points="629,-10 629,-30 649,-30 649,-10 629,-10"/>
<text text-anchor="start" x="652.73" y="-15.4" font-family="Times-12" font-size="14.00"> &#160;Exports</text>
<g id="clust1" class="cluster">
<title>cluster_SnackBarModule</title>
<polygon fill="none" stroke="black" stroke-dasharray="1,5" points="8,-70 8,-195 934,-195 934,-70 8,-70"/>
</g>
<g id="clust2" class="cluster">
<title>cluster_SnackBarModule_declarations</title>
<polygon fill="none" stroke="black" points="146,-78 146,-130 926,-130 926,-78 146,-78"/>
</g>
<g id="clust7" class="cluster">
<title>cluster_SnackBarModule_imports</title>
<polygon fill="none" stroke="black" points="16,-78 16,-130 138,-130 138,-78 16,-78"/>
</g>
<!-- ErrorSnackBarComponent -->
<g id="node1" class="node">
<title>ErrorSnackBarComponent</title>
<polygon fill="#ffffb3" stroke="black" points="917.79,-122 752.21,-122 752.21,-86 917.79,-86 917.79,-122"/>
<text text-anchor="middle" x="835" y="-99.8" font-family="Times,serif" font-size="14.00">ErrorSnackBarComponent</text>
</g>
<!-- SnackBarModule -->
<g id="node5" class="node">
<title>SnackBarModule</title>
<polygon fill="#8dd3c7" stroke="black" points="502.97,-187 499.97,-191 478.97,-191 475.97,-187 389.03,-187 389.03,-151 502.97,-151 502.97,-187"/>
<text text-anchor="middle" x="446" y="-164.8" font-family="Times,serif" font-size="14.00">SnackBarModule</text>
</g>
<!-- ErrorSnackBarComponent&#45;&gt;SnackBarModule -->
<g id="edge1" class="edge">
<title>ErrorSnackBarComponent&#45;&gt;SnackBarModule</title>
<path fill="none" stroke="black" d="M835,-122.28C835,-143.32 835,-175 835,-175 835,-175 512.98,-175 512.98,-175"/>
<polygon fill="black" stroke="black" points="512.98,-171.5 502.98,-175 512.98,-178.5 512.98,-171.5"/>
</g>
<!-- GenericSnackBarComponent -->
<g id="node2" class="node">
<title>GenericSnackBarComponent</title>
<polygon fill="#ffffb3" stroke="black" points="734.06,-122 553.94,-122 553.94,-86 734.06,-86 734.06,-122"/>
<text text-anchor="middle" x="644" y="-99.8" font-family="Times,serif" font-size="14.00">GenericSnackBarComponent</text>
</g>
<!-- GenericSnackBarComponent&#45;&gt;SnackBarModule -->
<g id="edge2" class="edge">
<title>GenericSnackBarComponent&#45;&gt;SnackBarModule</title>
<path fill="none" stroke="black" d="M644,-122.02C644,-139.37 644,-163 644,-163 644,-163 513,-163 513,-163"/>
<polygon fill="black" stroke="black" points="513,-159.5 503,-163 513,-166.5 513,-159.5"/>
</g>
<!-- SuccessSnackBarComponent -->
<g id="node3" class="node">
<title>SuccessSnackBarComponent</title>
<polygon fill="#ffffb3" stroke="black" points="536.07,-122 355.93,-122 355.93,-86 536.07,-86 536.07,-122"/>
<text text-anchor="middle" x="446" y="-99.8" font-family="Times,serif" font-size="14.00">SuccessSnackBarComponent</text>
</g>
<!-- SuccessSnackBarComponent&#45;&gt;SnackBarModule -->
<g id="edge3" class="edge">
<title>SuccessSnackBarComponent&#45;&gt;SnackBarModule</title>
<path fill="none" stroke="black" d="M446,-122.11C446,-122.11 446,-140.99 446,-140.99"/>
<polygon fill="black" stroke="black" points="442.5,-140.99 446,-150.99 449.5,-140.99 442.5,-140.99"/>
</g>
<!-- WarningSnackBarComponent -->
<g id="node4" class="node">
<title>WarningSnackBarComponent</title>
<polygon fill="#ffffb3" stroke="black" points="338.24,-122 153.76,-122 153.76,-86 338.24,-86 338.24,-122"/>
<text text-anchor="middle" x="246" y="-99.8" font-family="Times,serif" font-size="14.00">WarningSnackBarComponent</text>
</g>
<!-- WarningSnackBarComponent&#45;&gt;SnackBarModule -->
<g id="edge4" class="edge">
<title>WarningSnackBarComponent&#45;&gt;SnackBarModule</title>
<path fill="none" stroke="black" d="M246,-122.02C246,-139.37 246,-163 246,-163 246,-163 378.96,-163 378.96,-163"/>
<polygon fill="black" stroke="black" points="378.96,-166.5 388.96,-163 378.96,-159.5 378.96,-166.5"/>
</g>
<!-- MaterialModule -->
<g id="node6" class="node">
<title>MaterialModule</title>
<polygon fill="#8dd3c7" stroke="black" points="130.47,-122 127.47,-126 106.47,-126 103.47,-122 23.53,-122 23.53,-86 130.47,-86 130.47,-122"/>
<text text-anchor="middle" x="77" y="-99.8" font-family="Times,serif" font-size="14.00">MaterialModule</text>
</g>
<!-- MaterialModule&#45;&gt;SnackBarModule -->
<g id="edge5" class="edge">
<title>MaterialModule&#45;&gt;SnackBarModule</title>
<path fill="none" stroke="black" d="M77,-122.28C77,-143.32 77,-175 77,-175 77,-175 378.75,-175 378.75,-175"/>
<polygon fill="black" stroke="black" points="378.75,-178.5 388.75,-175 378.75,-171.5 378.75,-178.5"/>
</g>
</g>
</svg>
