<?xml version="1.0" encoding="UTF-8" standalone="no"?>
<!DOCTYPE svg PUBLIC "-//W3C//DTD SVG 1.1//EN"
 "http://www.w3.org/Graphics/SVG/1.1/DTD/svg11.dtd">
<!-- Generated by graphviz version 5.0.0 (20220707.1540)
 -->
<!-- Title: dependencies Pages: 1 -->
<svg width="950pt" height="174pt"
 viewBox="0.00 0.00 950.00 173.80" xmlns="http://www.w3.org/2000/svg" xmlns:xlink="http://www.w3.org/1999/xlink">
<g id="graph0" class="graph" transform="scale(1 1) rotate(0) translate(4 169.8)">
<title>dependencies</title>
<polygon fill="white" stroke="transparent" points="-4,4 -4,-169.8 946,-169.8 946,4 -4,4"/>
<text text-anchor="middle" x="471" y="-8.2" font-family="sans-serif" font-size="14.00">dependencies</text>
<g id="clust1" class="cluster">
<title>cluster_SnackBarModule</title>
<polygon fill="none" stroke="black" stroke-dasharray="1,5" points="8,-32.8 8,-157.8 934,-157.8 934,-32.8 8,-32.8"/>
</g>
<g id="clust2" class="cluster">
<title>cluster_SnackBarModule_declarations</title>
<polygon fill="none" stroke="black" points="146,-40.8 146,-92.8 926,-92.8 926,-40.8 146,-40.8"/>
</g>
<g id="clust7" class="cluster">
<title>cluster_SnackBarModule_imports</title>
<polygon fill="none" stroke="black" points="16,-40.8 16,-92.8 138,-92.8 138,-40.8 16,-40.8"/>
</g>
<!-- ErrorSnackBarComponent -->
<g id="node1" class="node">
<title>ErrorSnackBarComponent</title>
<polygon fill="#ffffb3" stroke="black" points="917.8,-84.8 752.2,-84.8 752.2,-48.8 917.8,-48.8 917.8,-84.8"/>
<text text-anchor="middle" x="835" y="-62.6" font-family="Times,serif" font-size="14.00">ErrorSnackBarComponent</text>
</g>
<!-- SnackBarModule -->
<g id="node5" class="node">
<title>SnackBarModule</title>
<polygon fill="#8dd3c7" stroke="black" points="502.98,-149.8 499.98,-153.8 478.98,-153.8 475.98,-149.8 389.02,-149.8 389.02,-113.8 502.98,-113.8 502.98,-149.8"/>
<text text-anchor="middle" x="446" y="-127.6" font-family="Times,serif" font-size="14.00">SnackBarModule</text>
</g>
<!-- ErrorSnackBarComponent&#45;&gt;SnackBarModule -->
<g id="edge1" class="edge">
<title>ErrorSnackBarComponent&#45;&gt;SnackBarModule</title>
<path fill="none" stroke="black" d="M835,-85.08C835,-106.12 835,-137.8 835,-137.8 835,-137.8 512.98,-137.8 512.98,-137.8"/>
<polygon fill="black" stroke="black" points="512.98,-134.3 502.98,-137.8 512.98,-141.3 512.98,-134.3"/>
</g>
<!-- GenericSnackBarComponent -->
<g id="node2" class="node">
<title>GenericSnackBarComponent</title>
<polygon fill="#ffffb3" stroke="black" points="734.06,-84.8 553.94,-84.8 553.94,-48.8 734.06,-48.8 734.06,-84.8"/>
<text text-anchor="middle" x="644" y="-62.6" font-family="Times,serif" font-size="14.00">GenericSnackBarComponent</text>
</g>
<!-- GenericSnackBarComponent&#45;&gt;SnackBarModule -->
<g id="edge2" class="edge">
<title>GenericSnackBarComponent&#45;&gt;SnackBarModule</title>
<path fill="none" stroke="black" d="M644,-84.82C644,-102.17 644,-125.8 644,-125.8 644,-125.8 513,-125.8 513,-125.8"/>
<polygon fill="black" stroke="black" points="513,-122.3 503,-125.8 513,-129.3 513,-122.3"/>
</g>
<!-- SuccessSnackBarComponent -->
<g id="node3" class="node">
<title>SuccessSnackBarComponent</title>
<polygon fill="#ffffb3" stroke="black" points="536.08,-84.8 355.92,-84.8 355.92,-48.8 536.08,-48.8 536.08,-84.8"/>
<text text-anchor="middle" x="446" y="-62.6" font-family="Times,serif" font-size="14.00">SuccessSnackBarComponent</text>
</g>
<!-- SuccessSnackBarComponent&#45;&gt;SnackBarModule -->
<g id="edge3" class="edge">
<title>SuccessSnackBarComponent&#45;&gt;SnackBarModule</title>
<path fill="none" stroke="black" d="M446,-84.91C446,-84.91 446,-103.79 446,-103.79"/>
<polygon fill="black" stroke="black" points="442.5,-103.79 446,-113.79 449.5,-103.79 442.5,-103.79"/>
</g>
<!-- WarningSnackBarComponent -->
<g id="node4" class="node">
<title>WarningSnackBarComponent</title>
<polygon fill="#ffffb3" stroke="black" points="338.24,-84.8 153.76,-84.8 153.76,-48.8 338.24,-48.8 338.24,-84.8"/>
<text text-anchor="middle" x="246" y="-62.6" font-family="Times,serif" font-size="14.00">WarningSnackBarComponent</text>
</g>
<!-- WarningSnackBarComponent&#45;&gt;SnackBarModule -->
<g id="edge4" class="edge">
<title>WarningSnackBarComponent&#45;&gt;SnackBarModule</title>
<path fill="none" stroke="black" d="M246,-84.82C246,-102.17 246,-125.8 246,-125.8 246,-125.8 378.96,-125.8 378.96,-125.8"/>
<polygon fill="black" stroke="black" points="378.96,-129.3 388.96,-125.8 378.96,-122.3 378.96,-129.3"/>
</g>
<!-- MaterialModule -->
<g id="node6" class="node">
<title>MaterialModule</title>
<polygon fill="#8dd3c7" stroke="black" points="130.47,-84.8 127.47,-88.8 106.47,-88.8 103.47,-84.8 23.53,-84.8 23.53,-48.8 130.47,-48.8 130.47,-84.8"/>
<text text-anchor="middle" x="77" y="-62.6" font-family="Times,serif" font-size="14.00">MaterialModule</text>
</g>
<!-- MaterialModule&#45;&gt;SnackBarModule -->
<g id="edge5" class="edge">
<title>MaterialModule&#45;&gt;SnackBarModule</title>
<path fill="none" stroke="black" d="M77,-85.08C77,-106.12 77,-137.8 77,-137.8 77,-137.8 378.75,-137.8 378.75,-137.8"/>
<polygon fill="black" stroke="black" points="378.75,-141.3 388.75,-137.8 378.75,-134.3 378.75,-141.3"/>
</g>
</g>
</svg>
