<?xml version="1.0" encoding="UTF-8" standalone="no"?>
<!DOCTYPE svg PUBLIC "-//W3C//DTD SVG 1.1//EN"
 "http://www.w3.org/Graphics/SVG/1.1/DTD/svg11.dtd">
<!-- Generated by graphviz version 5.0.0 (20220707.1540)
 -->
<!-- Title: dependencies Pages: 1 -->
<svg width="2044pt" height="247pt"
 viewBox="0.00 0.00 2044.00 246.80" xmlns="http://www.w3.org/2000/svg" xmlns:xlink="http://www.w3.org/1999/xlink">
<g id="graph0" class="graph" transform="scale(1 1) rotate(0) translate(4 242.8)">
<title>dependencies</title>
<polygon fill="white" stroke="transparent" points="-4,4 -4,-242.8 2040,-242.8 2040,4 -4,4"/>
<text text-anchor="middle" x="1018" y="-8.2" font-family="sans-serif" font-size="14.00">dependencies</text>
<g id="clust1" class="cluster">
<title>cluster_PanelComponentModule</title>
<polygon fill="none" stroke="black" stroke-dasharray="1,5" points="8,-32.8 8,-230.8 2028,-230.8 2028,-32.8 8,-32.8"/>
</g>
<g id="clust2" class="cluster">
<title>cluster_PanelComponentModule_declarations</title>
<polygon fill="none" stroke="black" points="16,-40.8 16,-92.8 2020,-92.8 2020,-40.8 16,-40.8"/>
</g>
<g id="clust15" class="cluster">
<title>cluster_PanelComponentModule_exports</title>
<polygon fill="none" stroke="black" points="105,-170.8 105,-222.8 1886,-222.8 1886,-170.8 105,-170.8"/>
</g>
<!-- CasePanelComponent -->
<g id="node1" class="node">
<title>CasePanelComponent</title>
<polygon fill="#ffffb3" stroke="black" points="2011.65,-84.8 1872.35,-84.8 1872.35,-48.8 2011.65,-48.8 2011.65,-84.8"/>
<text text-anchor="middle" x="1942" y="-62.6" font-family="Times,serif" font-size="14.00">CasePanelComponent</text>
</g>
<!-- PanelComponentModule -->
<g id="node12" class="node">
<title>PanelComponentModule</title>
<polygon fill="#8dd3c7" stroke="black" points="1068.99,-149.8 1065.99,-153.8 1044.99,-153.8 1041.99,-149.8 913.01,-149.8 913.01,-113.8 1068.99,-113.8 1068.99,-149.8"/>
<text text-anchor="middle" x="991" y="-127.6" font-family="Times,serif" font-size="14.00">PanelComponentModule</text>
</g>
<!-- CasePanelComponent&#45;&gt;PanelComponentModule -->
<g id="edge1" class="edge">
<title>CasePanelComponent&#45;&gt;PanelComponentModule</title>
<path fill="none" stroke="black" d="M1944.7,-84.91C1944.7,-104.14 1944.7,-131.8 1944.7,-131.8 1944.7,-131.8 1079.05,-131.8 1079.05,-131.8"/>
<polygon fill="black" stroke="black" points="1079.05,-128.3 1069.05,-131.8 1079.05,-135.3 1079.05,-128.3"/>
</g>
<!-- ImmediateFilterTextComponent -->
<g id="node2" class="node">
<title>ImmediateFilterTextComponent</title>
<polygon fill="#ffffb3" stroke="black" points="1854.68,-84.8 1657.32,-84.8 1657.32,-48.8 1854.68,-48.8 1854.68,-84.8"/>
<text text-anchor="middle" x="1756" y="-62.6" font-family="Times,serif" font-size="14.00">ImmediateFilterTextComponent</text>
</g>
<!-- ImmediateFilterTextComponent&#45;&gt;PanelComponentModule -->
<g id="edge2" class="edge">
<title>ImmediateFilterTextComponent&#45;&gt;PanelComponentModule</title>
<path fill="none" stroke="black" d="M1686.88,-85.07C1686.88,-103.36 1686.88,-128.8 1686.88,-128.8 1686.88,-128.8 1079.14,-128.8 1079.14,-128.8"/>
<polygon fill="black" stroke="black" points="1079.14,-125.3 1069.14,-128.8 1079.14,-132.3 1079.14,-125.3"/>
</g>
<!-- ImmediateFilterTextContentComponent -->
<g id="node3" class="node">
<title>ImmediateFilterTextContentComponent</title>
<polygon fill="#ffffb3" stroke="black" points="1639.51,-84.8 1398.49,-84.8 1398.49,-48.8 1639.51,-48.8 1639.51,-84.8"/>
<text text-anchor="middle" x="1519" y="-62.6" font-family="Times,serif" font-size="14.00">ImmediateFilterTextContentComponent</text>
</g>
<!-- ImmediateFilterTextContentComponent&#45;&gt;PanelComponentModule -->
<g id="edge3" class="edge">
<title>ImmediateFilterTextContentComponent&#45;&gt;PanelComponentModule</title>
<path fill="none" stroke="black" d="M1448.11,-84.83C1448.11,-101.86 1448.11,-124.8 1448.11,-124.8 1448.11,-124.8 1079.06,-124.8 1079.06,-124.8"/>
<polygon fill="black" stroke="black" points="1079.06,-121.3 1069.06,-124.8 1079.06,-128.3 1079.06,-121.3"/>
</g>
<!-- PanelComponent -->
<g id="node4" class="node">
<title>PanelComponent</title>
<polygon fill="#ffffb3" stroke="black" points="1380.44,-84.8 1267.56,-84.8 1267.56,-48.8 1380.44,-48.8 1380.44,-84.8"/>
<text text-anchor="middle" x="1324" y="-62.6" font-family="Times,serif" font-size="14.00">PanelComponent</text>
</g>
<!-- PanelComponent&#45;&gt;PanelComponentModule -->
<g id="edge4" class="edge">
<title>PanelComponent&#45;&gt;PanelComponentModule</title>
<path fill="none" stroke="black" d="M1315.79,-84.81C1315.79,-100.85 1315.79,-121.8 1315.79,-121.8 1315.79,-121.8 1079.21,-121.8 1079.21,-121.8"/>
<polygon fill="black" stroke="black" points="1079.21,-118.3 1069.21,-121.8 1079.21,-125.3 1079.21,-118.3"/>
</g>
<!-- PanelItemComponent -->
<g id="node5" class="node">
<title>PanelItemComponent</title>
<polygon fill="#ffffb3" stroke="black" points="1250.09,-84.8 1111.91,-84.8 1111.91,-48.8 1250.09,-48.8 1250.09,-84.8"/>
<text text-anchor="middle" x="1181" y="-62.6" font-family="Times,serif" font-size="14.00">PanelItemComponent</text>
</g>
<!-- PanelItemComponent&#45;&gt;PanelComponentModule -->
<g id="edge5" class="edge">
<title>PanelItemComponent&#45;&gt;PanelComponentModule</title>
<path fill="none" stroke="black" d="M1158.29,-84.92C1158.29,-99.58 1158.29,-117.8 1158.29,-117.8 1158.29,-117.8 1079.26,-117.8 1079.26,-117.8"/>
<polygon fill="black" stroke="black" points="1079.26,-114.3 1069.26,-117.8 1079.26,-121.3 1079.26,-114.3"/>
</g>
<!-- PublicWorkflowPanelComponent -->
<g id="node6" class="node">
<title>PublicWorkflowPanelComponent</title>
<polygon fill="#ffffb3" stroke="black" points="1093.75,-84.8 888.25,-84.8 888.25,-48.8 1093.75,-48.8 1093.75,-84.8"/>
<text text-anchor="middle" x="991" y="-62.6" font-family="Times,serif" font-size="14.00">PublicWorkflowPanelComponent</text>
</g>
<!-- PublicWorkflowPanelComponent&#45;&gt;PanelComponentModule -->
<g id="edge6" class="edge">
<title>PublicWorkflowPanelComponent&#45;&gt;PanelComponentModule</title>
<path fill="none" stroke="black" d="M991,-84.91C991,-84.91 991,-103.79 991,-103.79"/>
<polygon fill="black" stroke="black" points="987.5,-103.79 991,-113.79 994.5,-103.79 987.5,-103.79"/>
</g>
<!-- SingleTaskComponent -->
<g id="node7" class="node">
<title>SingleTaskComponent</title>
<polygon fill="#ffffb3" stroke="black" points="870.32,-84.8 725.68,-84.8 725.68,-48.8 870.32,-48.8 870.32,-84.8"/>
<text text-anchor="middle" x="798" y="-62.6" font-family="Times,serif" font-size="14.00">SingleTaskComponent</text>
</g>
<!-- SingleTaskComponent&#45;&gt;PanelComponentModule -->
<g id="edge7" class="edge">
<title>SingleTaskComponent&#45;&gt;PanelComponentModule</title>
<path fill="none" stroke="black" d="M849.62,-84.92C849.62,-99.58 849.62,-117.8 849.62,-117.8 849.62,-117.8 902.87,-117.8 902.87,-117.8"/>
<polygon fill="black" stroke="black" points="902.87,-121.3 912.87,-117.8 902.87,-114.3 902.87,-121.3"/>
</g>
<!-- TaskListComponent -->
<g id="node8" class="node">
<title>TaskListComponent</title>
<polygon fill="#ffffb3" stroke="black" points="708.32,-84.8 577.68,-84.8 577.68,-48.8 708.32,-48.8 708.32,-84.8"/>
<text text-anchor="middle" x="643" y="-62.6" font-family="Times,serif" font-size="14.00">TaskListComponent</text>
</g>
<!-- TaskListComponent&#45;&gt;PanelComponentModule -->
<g id="edge8" class="edge">
<title>TaskListComponent&#45;&gt;PanelComponentModule</title>
<path fill="none" stroke="black" d="M692.62,-84.81C692.62,-100.85 692.62,-121.8 692.62,-121.8 692.62,-121.8 903,-121.8 903,-121.8"/>
<polygon fill="black" stroke="black" points="903,-125.3 913,-121.8 903,-118.3 903,-125.3"/>
</g>
<!-- TaskListPaginationComponent -->
<g id="node9" class="node">
<title>TaskListPaginationComponent</title>
<polygon fill="#ffffb3" stroke="black" points="560.21,-84.8 369.79,-84.8 369.79,-48.8 560.21,-48.8 560.21,-84.8"/>
<text text-anchor="middle" x="465" y="-62.6" font-family="Times,serif" font-size="14.00">TaskListPaginationComponent</text>
</g>
<!-- TaskListPaginationComponent&#45;&gt;PanelComponentModule -->
<g id="edge9" class="edge">
<title>TaskListPaginationComponent&#45;&gt;PanelComponentModule</title>
<path fill="none" stroke="black" d="M512.62,-84.83C512.62,-101.86 512.62,-124.8 512.62,-124.8 512.62,-124.8 902.81,-124.8 902.81,-124.8"/>
<polygon fill="black" stroke="black" points="902.81,-128.3 912.81,-124.8 902.81,-121.3 902.81,-128.3"/>
</g>
<!-- TaskPanelComponent -->
<g id="node10" class="node">
<title>TaskPanelComponent</title>
<polygon fill="#ffffb3" stroke="black" points="351.65,-84.8 212.35,-84.8 212.35,-48.8 351.65,-48.8 351.65,-84.8"/>
<text text-anchor="middle" x="282" y="-62.6" font-family="Times,serif" font-size="14.00">TaskPanelComponent</text>
</g>
<!-- TaskPanelComponent&#45;&gt;PanelComponentModule -->
<g id="edge10" class="edge">
<title>TaskPanelComponent&#45;&gt;PanelComponentModule</title>
<path fill="none" stroke="black" d="M328.12,-85.07C328.12,-103.36 328.12,-128.8 328.12,-128.8 328.12,-128.8 903.01,-128.8 903.01,-128.8"/>
<polygon fill="black" stroke="black" points="903.01,-132.3 913.01,-128.8 903.01,-125.3 903.01,-132.3"/>
</g>
<!-- WorkflowPanelComponent -->
<g id="node11" class="node">
<title>WorkflowPanelComponent</title>
<polygon fill="#ffffb3" stroke="black" points="193.97,-84.8 24.03,-84.8 24.03,-48.8 193.97,-48.8 193.97,-84.8"/>
<text text-anchor="middle" x="109" y="-62.6" font-family="Times,serif" font-size="14.00">WorkflowPanelComponent</text>
</g>
<!-- WorkflowPanelComponent&#45;&gt;PanelComponentModule -->
<g id="edge11" class="edge">
<title>WorkflowPanelComponent&#45;&gt;PanelComponentModule</title>
<path fill="none" stroke="black" d="M153.62,-84.91C153.62,-104.14 153.62,-131.8 153.62,-131.8 153.62,-131.8 902.97,-131.8 902.97,-131.8"/>
<polygon fill="black" stroke="black" points="902.97,-135.3 912.97,-131.8 902.97,-128.3 902.97,-135.3"/>
</g>
<!-- CasePanelComponent  -->
<g id="node13" class="node">
<title>CasePanelComponent </title>
<polygon fill="#fb8072" stroke="black" points="1877.65,-214.8 1734.35,-214.8 1734.35,-178.8 1877.65,-178.8 1877.65,-214.8"/>
<text text-anchor="middle" x="1806" y="-192.6" font-family="Times,serif" font-size="14.00">CasePanelComponent </text>
</g>
<!-- PanelComponentModule&#45;&gt;CasePanelComponent  -->
<g id="edge12" class="edge">
<title>PanelComponentModule&#45;&gt;CasePanelComponent </title>
<path fill="none" stroke="black" stroke-dasharray="5,2" d="M1069.14,-135.8C1271.06,-135.8 1794.51,-135.8 1794.51,-135.8 1794.51,-135.8 1794.51,-168.5 1794.51,-168.5"/>
<polygon fill="black" stroke="black" points="1791.01,-168.5 1794.51,-178.5 1798.01,-168.5 1791.01,-168.5"/>
</g>
<!-- ImmediateFilterTextComponent  -->
<g id="node14" class="node">
<title>ImmediateFilterTextComponent </title>
<polygon fill="#fb8072" stroke="black" points="1716.18,-214.8 1515.82,-214.8 1515.82,-178.8 1716.18,-178.8 1716.18,-214.8"/>
<text text-anchor="middle" x="1616" y="-192.6" font-family="Times,serif" font-size="14.00">ImmediateFilterTextComponent </text>
</g>
<!-- PanelComponentModule&#45;&gt;ImmediateFilterTextComponent  -->
<g id="edge13" class="edge">
<title>PanelComponentModule&#45;&gt;ImmediateFilterTextComponent </title>
<path fill="none" stroke="black" stroke-dasharray="5,2" d="M1069.21,-139.8C1228.95,-139.8 1577.71,-139.8 1577.71,-139.8 1577.71,-139.8 1577.71,-168.76 1577.71,-168.76"/>
<polygon fill="black" stroke="black" points="1574.21,-168.76 1577.71,-178.76 1581.21,-168.76 1574.21,-168.76"/>
</g>
<!-- PanelComponent  -->
<g id="node15" class="node">
<title>PanelComponent </title>
<polygon fill="#fb8072" stroke="black" points="1497.93,-214.8 1382.07,-214.8 1382.07,-178.8 1497.93,-178.8 1497.93,-214.8"/>
<text text-anchor="middle" x="1440" y="-192.6" font-family="Times,serif" font-size="14.00">PanelComponent </text>
</g>
<!-- PanelComponentModule&#45;&gt;PanelComponent  -->
<g id="edge14" class="edge">
<title>PanelComponentModule&#45;&gt;PanelComponent </title>
<path fill="none" stroke="black" stroke-dasharray="5,2" d="M1069.38,-142.8C1185.62,-142.8 1390.14,-142.8 1390.14,-142.8 1390.14,-142.8 1390.14,-168.52 1390.14,-168.52"/>
<polygon fill="black" stroke="black" points="1386.64,-168.52 1390.14,-178.52 1393.64,-168.52 1386.64,-168.52"/>
</g>
<!-- PanelItemComponent  -->
<g id="node16" class="node">
<title>PanelItemComponent </title>
<polygon fill="#fb8072" stroke="black" points="1363.59,-214.8 1222.41,-214.8 1222.41,-178.8 1363.59,-178.8 1363.59,-214.8"/>
<text text-anchor="middle" x="1293" y="-192.6" font-family="Times,serif" font-size="14.00">PanelItemComponent </text>
</g>
<!-- PanelComponentModule&#45;&gt;PanelItemComponent  -->
<g id="edge15" class="edge">
<title>PanelComponentModule&#45;&gt;PanelItemComponent </title>
<path fill="none" stroke="black" stroke-dasharray="5,2" d="M1069.23,-146.8C1140.97,-146.8 1236.12,-146.8 1236.12,-146.8 1236.12,-146.8 1236.12,-168.75 1236.12,-168.75"/>
<polygon fill="black" stroke="black" points="1232.63,-168.75 1236.12,-178.75 1239.63,-168.75 1232.63,-168.75"/>
</g>
<!-- PublicWorkflowPanelComponent  -->
<g id="node17" class="node">
<title>PublicWorkflowPanelComponent </title>
<polygon fill="#fb8072" stroke="black" points="1204.75,-214.8 995.25,-214.8 995.25,-178.8 1204.75,-178.8 1204.75,-214.8"/>
<text text-anchor="middle" x="1100" y="-192.6" font-family="Times,serif" font-size="14.00">PublicWorkflowPanelComponent </text>
</g>
<!-- PanelComponentModule&#45;&gt;PublicWorkflowPanelComponent  -->
<g id="edge16" class="edge">
<title>PanelComponentModule&#45;&gt;PublicWorkflowPanelComponent </title>
<path fill="none" stroke="black" stroke-dasharray="5,2" d="M1032.18,-149.91C1032.18,-149.91 1032.18,-168.79 1032.18,-168.79"/>
<polygon fill="black" stroke="black" points="1028.68,-168.79 1032.18,-178.79 1035.68,-168.79 1028.68,-168.79"/>
</g>
<!-- SingleTaskComponent  -->
<g id="node18" class="node">
<title>SingleTaskComponent </title>
<polygon fill="#fb8072" stroke="black" points="976.82,-214.8 829.18,-214.8 829.18,-178.8 976.82,-178.8 976.82,-214.8"/>
<text text-anchor="middle" x="903" y="-192.6" font-family="Times,serif" font-size="14.00">SingleTaskComponent </text>
</g>
<!-- PanelComponentModule&#45;&gt;SingleTaskComponent  -->
<g id="edge17" class="edge">
<title>PanelComponentModule&#45;&gt;SingleTaskComponent </title>
<path fill="none" stroke="black" stroke-dasharray="5,2" d="M944.96,-149.91C944.96,-149.91 944.96,-168.79 944.96,-168.79"/>
<polygon fill="black" stroke="black" points="941.46,-168.79 944.96,-178.79 948.46,-168.79 941.46,-168.79"/>
</g>
<!-- TaskListComponent  -->
<g id="node19" class="node">
<title>TaskListComponent </title>
<polygon fill="#fb8072" stroke="black" points="810.82,-214.8 677.18,-214.8 677.18,-178.8 810.82,-178.8 810.82,-214.8"/>
<text text-anchor="middle" x="744" y="-192.6" font-family="Times,serif" font-size="14.00">TaskListComponent </text>
</g>
<!-- PanelComponentModule&#45;&gt;TaskListComponent  -->
<g id="edge18" class="edge">
<title>PanelComponentModule&#45;&gt;TaskListComponent </title>
<path fill="none" stroke="black" stroke-dasharray="5,2" d="M912.82,-146.8C848.68,-146.8 768.38,-146.8 768.38,-146.8 768.38,-146.8 768.38,-168.75 768.38,-168.75"/>
<polygon fill="black" stroke="black" points="764.88,-168.75 768.38,-178.75 771.88,-168.75 764.88,-168.75"/>
</g>
<!-- TaskListPaginationComponent  -->
<g id="node20" class="node">
<title>TaskListPaginationComponent </title>
<polygon fill="#fb8072" stroke="black" points="658.71,-214.8 465.29,-214.8 465.29,-178.8 658.71,-178.8 658.71,-214.8"/>
<text text-anchor="middle" x="562" y="-192.6" font-family="Times,serif" font-size="14.00">TaskListPaginationComponent </text>
</g>
<!-- PanelComponentModule&#45;&gt;TaskListPaginationComponent  -->
<g id="edge19" class="edge">
<title>PanelComponentModule&#45;&gt;TaskListPaginationComponent </title>
<path fill="none" stroke="black" stroke-dasharray="5,2" d="M912.88,-142.8C803.61,-142.8 618.35,-142.8 618.35,-142.8 618.35,-142.8 618.35,-168.52 618.35,-168.52"/>
<polygon fill="black" stroke="black" points="614.85,-168.52 618.35,-178.52 621.85,-168.52 614.85,-168.52"/>
</g>
<!-- TaskPanelComponent  -->
<g id="node21" class="node">
<title>TaskPanelComponent </title>
<polygon fill="#fb8072" stroke="black" points="447.65,-214.8 304.35,-214.8 304.35,-178.8 447.65,-178.8 447.65,-214.8"/>
<text text-anchor="middle" x="376" y="-192.6" font-family="Times,serif" font-size="14.00">TaskPanelComponent </text>
</g>
<!-- PanelComponentModule&#45;&gt;TaskPanelComponent  -->
<g id="edge20" class="edge">
<title>PanelComponentModule&#45;&gt;TaskPanelComponent </title>
<path fill="none" stroke="black" stroke-dasharray="5,2" d="M912.78,-139.8C753.98,-139.8 408.74,-139.8 408.74,-139.8 408.74,-139.8 408.74,-168.76 408.74,-168.76"/>
<polygon fill="black" stroke="black" points="405.24,-168.76 408.74,-178.76 412.24,-168.76 405.24,-168.76"/>
</g>
<!-- WorkflowPanelComponent  -->
<g id="node22" class="node">
<title>WorkflowPanelComponent </title>
<polygon fill="#fb8072" stroke="black" points="286.97,-214.8 113.03,-214.8 113.03,-178.8 286.97,-178.8 286.97,-214.8"/>
<text text-anchor="middle" x="200" y="-192.6" font-family="Times,serif" font-size="14.00">WorkflowPanelComponent </text>
</g>
<!-- PanelComponentModule&#45;&gt;WorkflowPanelComponent  -->
<g id="edge21" class="edge">
<title>PanelComponentModule&#45;&gt;WorkflowPanelComponent </title>
<path fill="none" stroke="black" stroke-dasharray="5,2" d="M912.69,-135.8C722.08,-135.8 249.46,-135.8 249.46,-135.8 249.46,-135.8 249.46,-168.5 249.46,-168.5"/>
<polygon fill="black" stroke="black" points="245.96,-168.5 249.46,-178.5 252.96,-168.5 245.96,-168.5"/>
</g>
</g>
</svg>
