<?xml version="1.0" encoding="UTF-8" standalone="no"?>
<!DOCTYPE svg PUBLIC "-//W3C//DTD SVG 1.1//EN"
 "http://www.w3.org/Graphics/SVG/1.1/DTD/svg11.dtd">
<!-- Generated by graphviz version 2.47.0 (20210316.0004)
 -->
<!-- Title: dependencies Pages: 1 -->
<svg width="2044pt" height="284pt"
 viewBox="0.00 0.00 2044.00 284.00" xmlns="http://www.w3.org/2000/svg" xmlns:xlink="http://www.w3.org/1999/xlink">
<g id="graph0" class="graph" transform="scale(1 1) rotate(0) translate(4 280)">
<title>dependencies</title>
<polygon fill="white" stroke="transparent" points="-4,4 -4,-280 2040,-280 2040,4 -4,4"/>
<text text-anchor="start" x="997.01" y="-42.4" font-family="Times-12" font-weight="bold" font-size="14.00">Legend</text>
<polygon fill="#ffffb3" stroke="transparent" points="784,-10 784,-30 804,-30 804,-10 784,-10"/>
<text text-anchor="start" x="807.63" y="-15.4" font-family="Times-12" font-size="14.00"> &#160;Declarations</text>
<polygon fill="#8dd3c7" stroke="transparent" points="897,-10 897,-30 917,-30 917,-10 897,-10"/>
<text text-anchor="start" x="920.73" y="-15.4" font-family="Times-12" font-size="14.00"> &#160;Module</text>
<polygon fill="#80b1d3" stroke="transparent" points="983,-10 983,-30 1003,-30 1003,-10 983,-10"/>
<text text-anchor="start" x="1006.78" y="-15.4" font-family="Times-12" font-size="14.00"> &#160;Bootstrap</text>
<polygon fill="#fdb462" stroke="transparent" points="1080,-10 1080,-30 1100,-30 1100,-10 1080,-10"/>
<text text-anchor="start" x="1103.67" y="-15.4" font-family="Times-12" font-size="14.00"> &#160;Providers</text>
<polygon fill="#fb8072" stroke="transparent" points="1176,-10 1176,-30 1196,-30 1196,-10 1176,-10"/>
<text text-anchor="start" x="1199.73" y="-15.4" font-family="Times-12" font-size="14.00"> &#160;Exports</text>
<g id="clust1" class="cluster">
<title>cluster_PanelComponentModule</title>
<polygon fill="none" stroke="black" stroke-dasharray="1,5" points="8,-70 8,-268 2028,-268 2028,-70 8,-70"/>
</g>
<g id="clust2" class="cluster">
<title>cluster_PanelComponentModule_declarations</title>
<polygon fill="none" stroke="black" points="16,-78 16,-130 2020,-130 2020,-78 16,-78"/>
</g>
<g id="clust15" class="cluster">
<title>cluster_PanelComponentModule_exports</title>
<polygon fill="none" stroke="black" points="105,-208 105,-260 1886,-260 1886,-208 105,-208"/>
</g>
<!-- CasePanelComponent -->
<g id="node1" class="node">
<title>CasePanelComponent</title>
<polygon fill="#ffffb3" stroke="black" points="2011.65,-122 1872.35,-122 1872.35,-86 2011.65,-86 2011.65,-122"/>
<text text-anchor="middle" x="1942" y="-99.8" font-family="Times,serif" font-size="14.00">CasePanelComponent</text>
</g>
<!-- PanelComponentModule -->
<g id="node12" class="node">
<title>PanelComponentModule</title>
<polygon fill="#8dd3c7" stroke="black" points="1068.98,-187 1065.98,-191 1044.98,-191 1041.98,-187 913.02,-187 913.02,-151 1068.98,-151 1068.98,-187"/>
<text text-anchor="middle" x="991" y="-164.8" font-family="Times,serif" font-size="14.00">PanelComponentModule</text>
</g>
<!-- CasePanelComponent&#45;&gt;PanelComponentModule -->
<g id="edge1" class="edge">
<title>CasePanelComponent&#45;&gt;PanelComponentModule</title>
<path fill="none" stroke="black" d="M1944.7,-122.11C1944.7,-141.34 1944.7,-169 1944.7,-169 1944.7,-169 1079.05,-169 1079.05,-169"/>
<polygon fill="black" stroke="black" points="1079.05,-165.5 1069.05,-169 1079.05,-172.5 1079.05,-165.5"/>
</g>
<!-- ImmediateFilterTextComponent -->
<g id="node2" class="node">
<title>ImmediateFilterTextComponent</title>
<polygon fill="#ffffb3" stroke="black" points="1854.69,-122 1657.31,-122 1657.31,-86 1854.69,-86 1854.69,-122"/>
<text text-anchor="middle" x="1756" y="-99.8" font-family="Times,serif" font-size="14.00">ImmediateFilterTextComponent</text>
</g>
<!-- ImmediateFilterTextComponent&#45;&gt;PanelComponentModule -->
<g id="edge2" class="edge">
<title>ImmediateFilterTextComponent&#45;&gt;PanelComponentModule</title>
<path fill="none" stroke="black" d="M1686.88,-122.27C1686.88,-140.56 1686.88,-166 1686.88,-166 1686.88,-166 1079.14,-166 1079.14,-166"/>
<polygon fill="black" stroke="black" points="1079.14,-162.5 1069.14,-166 1079.14,-169.5 1079.14,-162.5"/>
</g>
<!-- ImmediateFilterTextContentComponent -->
<g id="node3" class="node">
<title>ImmediateFilterTextContentComponent</title>
<polygon fill="#ffffb3" stroke="black" points="1639.52,-122 1398.48,-122 1398.48,-86 1639.52,-86 1639.52,-122"/>
<text text-anchor="middle" x="1519" y="-99.8" font-family="Times,serif" font-size="14.00">ImmediateFilterTextContentComponent</text>
</g>
<!-- ImmediateFilterTextContentComponent&#45;&gt;PanelComponentModule -->
<g id="edge3" class="edge">
<title>ImmediateFilterTextContentComponent&#45;&gt;PanelComponentModule</title>
<path fill="none" stroke="black" d="M1448.1,-122.03C1448.1,-139.06 1448.1,-162 1448.1,-162 1448.1,-162 1079.06,-162 1079.06,-162"/>
<polygon fill="black" stroke="black" points="1079.06,-158.5 1069.06,-162 1079.06,-165.5 1079.06,-158.5"/>
</g>
<!-- PanelComponent -->
<g id="node4" class="node">
<title>PanelComponent</title>
<polygon fill="#ffffb3" stroke="black" points="1380.44,-122 1267.56,-122 1267.56,-86 1380.44,-86 1380.44,-122"/>
<text text-anchor="middle" x="1324" y="-99.8" font-family="Times,serif" font-size="14.00">PanelComponent</text>
</g>
<!-- PanelComponent&#45;&gt;PanelComponentModule -->
<g id="edge4" class="edge">
<title>PanelComponent&#45;&gt;PanelComponentModule</title>
<path fill="none" stroke="black" d="M1315.79,-122.01C1315.79,-138.05 1315.79,-159 1315.79,-159 1315.79,-159 1079.21,-159 1079.21,-159"/>
<polygon fill="black" stroke="black" points="1079.21,-155.5 1069.21,-159 1079.21,-162.5 1079.21,-155.5"/>
</g>
<!-- PanelItemComponent -->
<g id="node5" class="node">
<title>PanelItemComponent</title>
<polygon fill="#ffffb3" stroke="black" points="1250.09,-122 1111.91,-122 1111.91,-86 1250.09,-86 1250.09,-122"/>
<text text-anchor="middle" x="1181" y="-99.8" font-family="Times,serif" font-size="14.00">PanelItemComponent</text>
</g>
<!-- PanelItemComponent&#45;&gt;PanelComponentModule -->
<g id="edge5" class="edge">
<title>PanelItemComponent&#45;&gt;PanelComponentModule</title>
<path fill="none" stroke="black" d="M1158.29,-122.12C1158.29,-136.78 1158.29,-155 1158.29,-155 1158.29,-155 1079.26,-155 1079.26,-155"/>
<polygon fill="black" stroke="black" points="1079.26,-151.5 1069.26,-155 1079.26,-158.5 1079.26,-151.5"/>
</g>
<!-- PublicWorkflowPanelComponent -->
<g id="node6" class="node">
<title>PublicWorkflowPanelComponent</title>
<polygon fill="#ffffb3" stroke="black" points="1093.75,-122 888.25,-122 888.25,-86 1093.75,-86 1093.75,-122"/>
<text text-anchor="middle" x="991" y="-99.8" font-family="Times,serif" font-size="14.00">PublicWorkflowPanelComponent</text>
</g>
<!-- PublicWorkflowPanelComponent&#45;&gt;PanelComponentModule -->
<g id="edge6" class="edge">
<title>PublicWorkflowPanelComponent&#45;&gt;PanelComponentModule</title>
<path fill="none" stroke="black" d="M991,-122.11C991,-122.11 991,-140.99 991,-140.99"/>
<polygon fill="black" stroke="black" points="987.5,-140.99 991,-150.99 994.5,-140.99 987.5,-140.99"/>
</g>
<!-- SingleTaskComponent -->
<g id="node7" class="node">
<title>SingleTaskComponent</title>
<polygon fill="#ffffb3" stroke="black" points="870.32,-122 725.68,-122 725.68,-86 870.32,-86 870.32,-122"/>
<text text-anchor="middle" x="798" y="-99.8" font-family="Times,serif" font-size="14.00">SingleTaskComponent</text>
</g>
<!-- SingleTaskComponent&#45;&gt;PanelComponentModule -->
<g id="edge7" class="edge">
<title>SingleTaskComponent&#45;&gt;PanelComponentModule</title>
<path fill="none" stroke="black" d="M849.62,-122.12C849.62,-136.78 849.62,-155 849.62,-155 849.62,-155 902.87,-155 902.87,-155"/>
<polygon fill="black" stroke="black" points="902.87,-158.5 912.87,-155 902.87,-151.5 902.87,-158.5"/>
</g>
<!-- TaskListComponent -->
<g id="node8" class="node">
<title>TaskListComponent</title>
<polygon fill="#ffffb3" stroke="black" points="708.32,-122 577.68,-122 577.68,-86 708.32,-86 708.32,-122"/>
<text text-anchor="middle" x="643" y="-99.8" font-family="Times,serif" font-size="14.00">TaskListComponent</text>
</g>
<!-- TaskListComponent&#45;&gt;PanelComponentModule -->
<g id="edge8" class="edge">
<title>TaskListComponent&#45;&gt;PanelComponentModule</title>
<path fill="none" stroke="black" d="M692.62,-122.01C692.62,-138.05 692.62,-159 692.62,-159 692.62,-159 903,-159 903,-159"/>
<polygon fill="black" stroke="black" points="903,-162.5 913,-159 903,-155.5 903,-162.5"/>
</g>
<!-- TaskListPaginationComponent -->
<g id="node9" class="node">
<title>TaskListPaginationComponent</title>
<polygon fill="#ffffb3" stroke="black" points="560.21,-122 369.79,-122 369.79,-86 560.21,-86 560.21,-122"/>
<text text-anchor="middle" x="465" y="-99.8" font-family="Times,serif" font-size="14.00">TaskListPaginationComponent</text>
</g>
<!-- TaskListPaginationComponent&#45;&gt;PanelComponentModule -->
<g id="edge9" class="edge">
<title>TaskListPaginationComponent&#45;&gt;PanelComponentModule</title>
<path fill="none" stroke="black" d="M512.62,-122.03C512.62,-139.06 512.62,-162 512.62,-162 512.62,-162 902.81,-162 902.81,-162"/>
<polygon fill="black" stroke="black" points="902.81,-165.5 912.81,-162 902.81,-158.5 902.81,-165.5"/>
</g>
<!-- TaskPanelComponent -->
<g id="node10" class="node">
<title>TaskPanelComponent</title>
<polygon fill="#ffffb3" stroke="black" points="351.65,-122 212.35,-122 212.35,-86 351.65,-86 351.65,-122"/>
<text text-anchor="middle" x="282" y="-99.8" font-family="Times,serif" font-size="14.00">TaskPanelComponent</text>
</g>
<!-- TaskPanelComponent&#45;&gt;PanelComponentModule -->
<g id="edge10" class="edge">
<title>TaskPanelComponent&#45;&gt;PanelComponentModule</title>
<path fill="none" stroke="black" d="M328.12,-122.27C328.12,-140.56 328.12,-166 328.12,-166 328.12,-166 903.01,-166 903.01,-166"/>
<polygon fill="black" stroke="black" points="903.01,-169.5 913.01,-166 903.01,-162.5 903.01,-169.5"/>
</g>
<!-- WorkflowPanelComponent -->
<g id="node11" class="node">
<title>WorkflowPanelComponent</title>
<polygon fill="#ffffb3" stroke="black" points="193.97,-122 24.03,-122 24.03,-86 193.97,-86 193.97,-122"/>
<text text-anchor="middle" x="109" y="-99.8" font-family="Times,serif" font-size="14.00">WorkflowPanelComponent</text>
</g>
<!-- WorkflowPanelComponent&#45;&gt;PanelComponentModule -->
<g id="edge11" class="edge">
<title>WorkflowPanelComponent&#45;&gt;PanelComponentModule</title>
<path fill="none" stroke="black" d="M153.62,-122.11C153.62,-141.34 153.62,-169 153.62,-169 153.62,-169 902.97,-169 902.97,-169"/>
<polygon fill="black" stroke="black" points="902.97,-172.5 912.97,-169 902.97,-165.5 902.97,-172.5"/>
</g>
<!-- CasePanelComponent  -->
<g id="node13" class="node">
<title>CasePanelComponent </title>
<polygon fill="#fb8072" stroke="black" points="1877.65,-252 1734.35,-252 1734.35,-216 1877.65,-216 1877.65,-252"/>
<text text-anchor="middle" x="1806" y="-229.8" font-family="Times,serif" font-size="14.00">CasePanelComponent </text>
</g>
<!-- PanelComponentModule&#45;&gt;CasePanelComponent  -->
<g id="edge12" class="edge">
<title>PanelComponentModule&#45;&gt;CasePanelComponent </title>
<path fill="none" stroke="black" stroke-dasharray="5,2" d="M1069.14,-173C1271.06,-173 1794.51,-173 1794.51,-173 1794.51,-173 1794.51,-205.7 1794.51,-205.7"/>
<polygon fill="black" stroke="black" points="1791.01,-205.7 1794.51,-215.7 1798.01,-205.7 1791.01,-205.7"/>
</g>
<!-- ImmediateFilterTextComponent  -->
<g id="node14" class="node">
<title>ImmediateFilterTextComponent </title>
<polygon fill="#fb8072" stroke="black" points="1716.19,-252 1515.81,-252 1515.81,-216 1716.19,-216 1716.19,-252"/>
<text text-anchor="middle" x="1616" y="-229.8" font-family="Times,serif" font-size="14.00">ImmediateFilterTextComponent </text>
</g>
<!-- PanelComponentModule&#45;&gt;ImmediateFilterTextComponent  -->
<g id="edge13" class="edge">
<title>PanelComponentModule&#45;&gt;ImmediateFilterTextComponent </title>
<path fill="none" stroke="black" stroke-dasharray="5,2" d="M1069.21,-177C1228.95,-177 1577.71,-177 1577.71,-177 1577.71,-177 1577.71,-205.96 1577.71,-205.96"/>
<polygon fill="black" stroke="black" points="1574.21,-205.96 1577.71,-215.96 1581.21,-205.96 1574.21,-205.96"/>
</g>
<!-- PanelComponent  -->
<g id="node15" class="node">
<title>PanelComponent </title>
<polygon fill="#fb8072" stroke="black" points="1497.93,-252 1382.07,-252 1382.07,-216 1497.93,-216 1497.93,-252"/>
<text text-anchor="middle" x="1440" y="-229.8" font-family="Times,serif" font-size="14.00">PanelComponent </text>
</g>
<!-- PanelComponentModule&#45;&gt;PanelComponent  -->
<g id="edge14" class="edge">
<title>PanelComponentModule&#45;&gt;PanelComponent </title>
<path fill="none" stroke="black" stroke-dasharray="5,2" d="M1069.38,-180C1185.62,-180 1390.14,-180 1390.14,-180 1390.14,-180 1390.14,-205.72 1390.14,-205.72"/>
<polygon fill="black" stroke="black" points="1386.64,-205.72 1390.14,-215.72 1393.64,-205.72 1386.64,-205.72"/>
</g>
<!-- PanelItemComponent  -->
<g id="node16" class="node">
<title>PanelItemComponent </title>
<polygon fill="#fb8072" stroke="black" points="1363.59,-252 1222.41,-252 1222.41,-216 1363.59,-216 1363.59,-252"/>
<text text-anchor="middle" x="1293" y="-229.8" font-family="Times,serif" font-size="14.00">PanelItemComponent </text>
</g>
<!-- PanelComponentModule&#45;&gt;PanelItemComponent  -->
<g id="edge15" class="edge">
<title>PanelComponentModule&#45;&gt;PanelItemComponent </title>
<path fill="none" stroke="black" stroke-dasharray="5,2" d="M1069.23,-184C1140.97,-184 1236.12,-184 1236.12,-184 1236.12,-184 1236.12,-205.95 1236.12,-205.95"/>
<polygon fill="black" stroke="black" points="1232.63,-205.95 1236.12,-215.95 1239.63,-205.95 1232.63,-205.95"/>
</g>
<!-- PublicWorkflowPanelComponent  -->
<g id="node17" class="node">
<title>PublicWorkflowPanelComponent </title>
<polygon fill="#fb8072" stroke="black" points="1204.75,-252 995.25,-252 995.25,-216 1204.75,-216 1204.75,-252"/>
<text text-anchor="middle" x="1100" y="-229.8" font-family="Times,serif" font-size="14.00">PublicWorkflowPanelComponent </text>
</g>
<!-- PanelComponentModule&#45;&gt;PublicWorkflowPanelComponent  -->
<g id="edge16" class="edge">
<title>PanelComponentModule&#45;&gt;PublicWorkflowPanelComponent </title>
<path fill="none" stroke="black" stroke-dasharray="5,2" d="M1032.18,-187.11C1032.18,-187.11 1032.18,-205.99 1032.18,-205.99"/>
<polygon fill="black" stroke="black" points="1028.68,-205.99 1032.18,-215.99 1035.68,-205.99 1028.68,-205.99"/>
</g>
<!-- SingleTaskComponent  -->
<g id="node18" class="node">
<title>SingleTaskComponent </title>
<polygon fill="#fb8072" stroke="black" points="976.82,-252 829.18,-252 829.18,-216 976.82,-216 976.82,-252"/>
<text text-anchor="middle" x="903" y="-229.8" font-family="Times,serif" font-size="14.00">SingleTaskComponent </text>
</g>
<!-- PanelComponentModule&#45;&gt;SingleTaskComponent  -->
<g id="edge17" class="edge">
<title>PanelComponentModule&#45;&gt;SingleTaskComponent </title>
<path fill="none" stroke="black" stroke-dasharray="5,2" d="M944.96,-187.11C944.96,-187.11 944.96,-205.99 944.96,-205.99"/>
<polygon fill="black" stroke="black" points="941.46,-205.99 944.96,-215.99 948.46,-205.99 941.46,-205.99"/>
</g>
<!-- TaskListComponent  -->
<g id="node19" class="node">
<title>TaskListComponent </title>
<polygon fill="#fb8072" stroke="black" points="810.82,-252 677.18,-252 677.18,-216 810.82,-216 810.82,-252"/>
<text text-anchor="middle" x="744" y="-229.8" font-family="Times,serif" font-size="14.00">TaskListComponent </text>
</g>
<!-- PanelComponentModule&#45;&gt;TaskListComponent  -->
<g id="edge18" class="edge">
<title>PanelComponentModule&#45;&gt;TaskListComponent </title>
<path fill="none" stroke="black" stroke-dasharray="5,2" d="M912.82,-184C848.68,-184 768.38,-184 768.38,-184 768.38,-184 768.38,-205.95 768.38,-205.95"/>
<polygon fill="black" stroke="black" points="764.88,-205.95 768.38,-215.95 771.88,-205.95 764.88,-205.95"/>
</g>
<!-- TaskListPaginationComponent  -->
<g id="node20" class="node">
<title>TaskListPaginationComponent </title>
<polygon fill="#fb8072" stroke="black" points="658.71,-252 465.29,-252 465.29,-216 658.71,-216 658.71,-252"/>
<text text-anchor="middle" x="562" y="-229.8" font-family="Times,serif" font-size="14.00">TaskListPaginationComponent </text>
</g>
<!-- PanelComponentModule&#45;&gt;TaskListPaginationComponent  -->
<g id="edge19" class="edge">
<title>PanelComponentModule&#45;&gt;TaskListPaginationComponent </title>
<path fill="none" stroke="black" stroke-dasharray="5,2" d="M912.88,-180C803.61,-180 618.35,-180 618.35,-180 618.35,-180 618.35,-205.72 618.35,-205.72"/>
<polygon fill="black" stroke="black" points="614.85,-205.72 618.35,-215.72 621.85,-205.72 614.85,-205.72"/>
</g>
<!-- TaskPanelComponent  -->
<g id="node21" class="node">
<title>TaskPanelComponent </title>
<polygon fill="#fb8072" stroke="black" points="447.65,-252 304.35,-252 304.35,-216 447.65,-216 447.65,-252"/>
<text text-anchor="middle" x="376" y="-229.8" font-family="Times,serif" font-size="14.00">TaskPanelComponent </text>
</g>
<!-- PanelComponentModule&#45;&gt;TaskPanelComponent  -->
<g id="edge20" class="edge">
<title>PanelComponentModule&#45;&gt;TaskPanelComponent </title>
<path fill="none" stroke="black" stroke-dasharray="5,2" d="M912.78,-177C753.98,-177 408.74,-177 408.74,-177 408.74,-177 408.74,-205.96 408.74,-205.96"/>
<polygon fill="black" stroke="black" points="405.24,-205.96 408.74,-215.96 412.24,-205.96 405.24,-205.96"/>
</g>
<!-- WorkflowPanelComponent  -->
<g id="node22" class="node">
<title>WorkflowPanelComponent </title>
<polygon fill="#fb8072" stroke="black" points="286.97,-252 113.03,-252 113.03,-216 286.97,-216 286.97,-252"/>
<text text-anchor="middle" x="200" y="-229.8" font-family="Times,serif" font-size="14.00">WorkflowPanelComponent </text>
</g>
<!-- PanelComponentModule&#45;&gt;WorkflowPanelComponent  -->
<g id="edge21" class="edge">
<title>PanelComponentModule&#45;&gt;WorkflowPanelComponent </title>
<path fill="none" stroke="black" stroke-dasharray="5,2" d="M912.69,-173C722.08,-173 249.46,-173 249.46,-173 249.46,-173 249.46,-205.7 249.46,-205.7"/>
<polygon fill="black" stroke="black" points="245.96,-205.7 249.46,-215.7 252.96,-205.7 245.96,-205.7"/>
</g>
</g>
</svg>
