<?xml version="1.0" encoding="UTF-8" standalone="no"?>
<!DOCTYPE svg PUBLIC "-//W3C//DTD SVG 1.1//EN"
 "http://www.w3.org/Graphics/SVG/1.1/DTD/svg11.dtd">
<!-- Generated by graphviz version 3.0.0 (20220226.1711)
 -->
<!-- Title: dependencies Pages: 1 -->
<svg width="1882pt" height="247pt"
 viewBox="0.00 0.00 1882.00 246.80" xmlns="http://www.w3.org/2000/svg" xmlns:xlink="http://www.w3.org/1999/xlink">
<g id="graph0" class="graph" transform="scale(1 1) rotate(0) translate(4 242.8)">
<title>dependencies</title>
<polygon fill="white" stroke="transparent" points="-4,4 -4,-242.8 1878,-242.8 1878,4 -4,4"/>
<text text-anchor="middle" x="937" y="-8.2" font-family="sans-serif" font-size="14.00">dependencies</text>
<g id="clust1" class="cluster">
<title>cluster_PanelComponentModule</title>
<polygon fill="none" stroke="black" stroke-dasharray="1,5" points="8,-32.8 8,-230.8 1866,-230.8 1866,-32.8 8,-32.8"/>
</g>
<g id="clust2" class="cluster">
<title>cluster_PanelComponentModule_declarations</title>
<polygon fill="none" stroke="black" points="16,-40.8 16,-92.8 1858,-92.8 1858,-40.8 16,-40.8"/>
</g>
<g id="clust14" class="cluster">
<title>cluster_PanelComponentModule_exports</title>
<polygon fill="none" stroke="black" points="103,-170.8 103,-222.8 1718,-222.8 1718,-170.8 103,-170.8"/>
</g>
<!-- CasePanelComponent -->
<g id="node1" class="node">
<title>CasePanelComponent</title>
<polygon fill="#ffffb3" stroke="black" points="1849.65,-84.8 1710.35,-84.8 1710.35,-48.8 1849.65,-48.8 1849.65,-84.8"/>
<text text-anchor="middle" x="1780" y="-62.6" font-family="Times,serif" font-size="14.00">CasePanelComponent</text>
</g>
<!-- PanelComponentModule -->
<g id="node11" class="node">
<title>PanelComponentModule</title>
<polygon fill="#8dd3c7" stroke="black" points="1009.99,-149.8 1006.99,-153.8 985.99,-153.8 982.99,-149.8 854.01,-149.8 854.01,-113.8 1009.99,-113.8 1009.99,-149.8"/>
<text text-anchor="middle" x="932" y="-127.6" font-family="Times,serif" font-size="14.00">PanelComponentModule</text>
</g>
<!-- CasePanelComponent&#45;&gt;PanelComponentModule -->
<g id="edge1" class="edge">
<title>CasePanelComponent&#45;&gt;PanelComponentModule</title>
<path fill="none" stroke="black" d="M1780,-85.02C1780,-103.63 1780,-129.8 1780,-129.8 1780,-129.8 1020.26,-129.8 1020.26,-129.8"/>
<polygon fill="black" stroke="black" points="1020.26,-126.3 1010.26,-129.8 1020.26,-133.3 1020.26,-126.3"/>
</g>
<!-- ImmediateFilterTextComponent -->
<g id="node2" class="node">
<title>ImmediateFilterTextComponent</title>
<polygon fill="#ffffb3" stroke="black" points="1692.68,-84.8 1495.32,-84.8 1495.32,-48.8 1692.68,-48.8 1692.68,-84.8"/>
<text text-anchor="middle" x="1594" y="-62.6" font-family="Times,serif" font-size="14.00">ImmediateFilterTextComponent</text>
</g>
<!-- ImmediateFilterTextComponent&#45;&gt;PanelComponentModule -->
<g id="edge2" class="edge">
<title>ImmediateFilterTextComponent&#45;&gt;PanelComponentModule</title>
<path fill="none" stroke="black" d="M1521.88,-84.82C1521.88,-102.17 1521.88,-125.8 1521.88,-125.8 1521.88,-125.8 1020.03,-125.8 1020.03,-125.8"/>
<polygon fill="black" stroke="black" points="1020.03,-122.3 1010.03,-125.8 1020.03,-129.3 1020.03,-122.3"/>
</g>
<!-- ImmediateFilterTextContentComponent -->
<g id="node3" class="node">
<title>ImmediateFilterTextContentComponent</title>
<polygon fill="#ffffb3" stroke="black" points="1477.51,-84.8 1236.49,-84.8 1236.49,-48.8 1477.51,-48.8 1477.51,-84.8"/>
<text text-anchor="middle" x="1357" y="-62.6" font-family="Times,serif" font-size="14.00">ImmediateFilterTextContentComponent</text>
</g>
<!-- ImmediateFilterTextContentComponent&#45;&gt;PanelComponentModule -->
<g id="edge3" class="edge">
<title>ImmediateFilterTextContentComponent&#45;&gt;PanelComponentModule</title>
<path fill="none" stroke="black" d="M1283.11,-84.81C1283.11,-100.85 1283.11,-121.8 1283.11,-121.8 1283.11,-121.8 1020.36,-121.8 1020.36,-121.8"/>
<polygon fill="black" stroke="black" points="1020.36,-118.3 1010.36,-121.8 1020.36,-125.3 1020.36,-118.3"/>
</g>
<!-- PanelComponent -->
<g id="node4" class="node">
<title>PanelComponent</title>
<polygon fill="#ffffb3" stroke="black" points="1218.44,-84.8 1105.56,-84.8 1105.56,-48.8 1218.44,-48.8 1218.44,-84.8"/>
<text text-anchor="middle" x="1162" y="-62.6" font-family="Times,serif" font-size="14.00">PanelComponent</text>
</g>
<!-- PanelComponent&#45;&gt;PanelComponentModule -->
<g id="edge4" class="edge">
<title>PanelComponent&#45;&gt;PanelComponentModule</title>
<path fill="none" stroke="black" d="M1150.79,-84.92C1150.79,-99.58 1150.79,-117.8 1150.79,-117.8 1150.79,-117.8 1020.06,-117.8 1020.06,-117.8"/>
<polygon fill="black" stroke="black" points="1020.06,-114.3 1010.06,-117.8 1020.06,-121.3 1020.06,-114.3"/>
</g>
<!-- PanelItemComponent -->
<g id="node5" class="node">
<title>PanelItemComponent</title>
<polygon fill="#ffffb3" stroke="black" points="1088.09,-84.8 949.91,-84.8 949.91,-48.8 1088.09,-48.8 1088.09,-84.8"/>
<text text-anchor="middle" x="1019" y="-62.6" font-family="Times,serif" font-size="14.00">PanelItemComponent</text>
</g>
<!-- PanelItemComponent&#45;&gt;PanelComponentModule -->
<g id="edge5" class="edge">
<title>PanelItemComponent&#45;&gt;PanelComponentModule</title>
<path fill="none" stroke="black" d="M979.97,-84.91C979.97,-84.91 979.97,-103.79 979.97,-103.79"/>
<polygon fill="black" stroke="black" points="976.47,-103.79 979.97,-113.79 983.47,-103.79 976.47,-103.79"/>
</g>
<!-- PublicWorkflowPanelComponent -->
<g id="node6" class="node">
<title>PublicWorkflowPanelComponent</title>
<polygon fill="#ffffb3" stroke="black" points="931.75,-84.8 726.25,-84.8 726.25,-48.8 931.75,-48.8 931.75,-84.8"/>
<text text-anchor="middle" x="829" y="-62.6" font-family="Times,serif" font-size="14.00">PublicWorkflowPanelComponent</text>
</g>
<!-- PublicWorkflowPanelComponent&#45;&gt;PanelComponentModule -->
<g id="edge6" class="edge">
<title>PublicWorkflowPanelComponent&#45;&gt;PanelComponentModule</title>
<path fill="none" stroke="black" d="M892.94,-84.91C892.94,-84.91 892.94,-103.79 892.94,-103.79"/>
<polygon fill="black" stroke="black" points="889.44,-103.79 892.94,-113.79 896.44,-103.79 889.44,-103.79"/>
</g>
<!-- TaskListComponent -->
<g id="node7" class="node">
<title>TaskListComponent</title>
<polygon fill="#ffffb3" stroke="black" points="708.32,-84.8 577.68,-84.8 577.68,-48.8 708.32,-48.8 708.32,-84.8"/>
<text text-anchor="middle" x="643" y="-62.6" font-family="Times,serif" font-size="14.00">TaskListComponent</text>
</g>
<!-- TaskListComponent&#45;&gt;PanelComponentModule -->
<g id="edge7" class="edge">
<title>TaskListComponent&#45;&gt;PanelComponentModule</title>
<path fill="none" stroke="black" d="M691.62,-84.92C691.62,-99.58 691.62,-117.8 691.62,-117.8 691.62,-117.8 843.96,-117.8 843.96,-117.8"/>
<polygon fill="black" stroke="black" points="843.96,-121.3 853.96,-117.8 843.96,-114.3 843.96,-121.3"/>
</g>
<!-- TaskListPaginationComponent -->
<g id="node8" class="node">
<title>TaskListPaginationComponent</title>
<polygon fill="#ffffb3" stroke="black" points="560.21,-84.8 369.79,-84.8 369.79,-48.8 560.21,-48.8 560.21,-84.8"/>
<text text-anchor="middle" x="465" y="-62.6" font-family="Times,serif" font-size="14.00">TaskListPaginationComponent</text>
</g>
<!-- TaskListPaginationComponent&#45;&gt;PanelComponentModule -->
<g id="edge8" class="edge">
<title>TaskListPaginationComponent&#45;&gt;PanelComponentModule</title>
<path fill="none" stroke="black" d="M511.62,-84.81C511.62,-100.85 511.62,-121.8 511.62,-121.8 511.62,-121.8 843.92,-121.8 843.92,-121.8"/>
<polygon fill="black" stroke="black" points="843.92,-125.3 853.92,-121.8 843.92,-118.3 843.92,-125.3"/>
</g>
<!-- TaskPanelComponent -->
<g id="node9" class="node">
<title>TaskPanelComponent</title>
<polygon fill="#ffffb3" stroke="black" points="351.65,-84.8 212.35,-84.8 212.35,-48.8 351.65,-48.8 351.65,-84.8"/>
<text text-anchor="middle" x="282" y="-62.6" font-family="Times,serif" font-size="14.00">TaskPanelComponent</text>
</g>
<!-- TaskPanelComponent&#45;&gt;PanelComponentModule -->
<g id="edge9" class="edge">
<title>TaskPanelComponent&#45;&gt;PanelComponentModule</title>
<path fill="none" stroke="black" d="M327.12,-84.82C327.12,-102.17 327.12,-125.8 327.12,-125.8 327.12,-125.8 843.85,-125.8 843.85,-125.8"/>
<polygon fill="black" stroke="black" points="843.85,-129.3 853.85,-125.8 843.85,-122.3 843.85,-129.3"/>
</g>
<!-- WorkflowPanelComponent -->
<g id="node10" class="node">
<title>WorkflowPanelComponent</title>
<polygon fill="#ffffb3" stroke="black" points="193.97,-84.8 24.03,-84.8 24.03,-48.8 193.97,-48.8 193.97,-84.8"/>
<text text-anchor="middle" x="109" y="-62.6" font-family="Times,serif" font-size="14.00">WorkflowPanelComponent</text>
</g>
<!-- WorkflowPanelComponent&#45;&gt;PanelComponentModule -->
<g id="edge10" class="edge">
<title>WorkflowPanelComponent&#45;&gt;PanelComponentModule</title>
<path fill="none" stroke="black" d="M152.62,-85.02C152.62,-103.63 152.62,-129.8 152.62,-129.8 152.62,-129.8 843.7,-129.8 843.7,-129.8"/>
<polygon fill="black" stroke="black" points="843.7,-133.3 853.7,-129.8 843.7,-126.3 843.7,-133.3"/>
</g>
<!-- CasePanelComponent  -->
<g id="node12" class="node">
<title>CasePanelComponent </title>
<polygon fill="#fb8072" stroke="black" points="1709.65,-214.8 1566.35,-214.8 1566.35,-178.8 1709.65,-178.8 1709.65,-214.8"/>
<text text-anchor="middle" x="1638" y="-192.6" font-family="Times,serif" font-size="14.00">CasePanelComponent </text>
</g>
<!-- PanelComponentModule&#45;&gt;CasePanelComponent  -->
<g id="edge11" class="edge">
<title>PanelComponentModule&#45;&gt;CasePanelComponent </title>
<path fill="none" stroke="black" stroke-dasharray="5,2" d="M1010.32,-133.8C1192.53,-133.8 1629.51,-133.8 1629.51,-133.8 1629.51,-133.8 1629.51,-168.58 1629.51,-168.58"/>
<polygon fill="black" stroke="black" points="1626.01,-168.58 1629.51,-178.58 1633.01,-168.58 1626.01,-168.58"/>
</g>
<!-- ImmediateFilterTextComponent  -->
<g id="node13" class="node">
<title>ImmediateFilterTextComponent </title>
<polygon fill="#fb8072" stroke="black" points="1548.18,-214.8 1347.82,-214.8 1347.82,-178.8 1548.18,-178.8 1548.18,-214.8"/>
<text text-anchor="middle" x="1448" y="-192.6" font-family="Times,serif" font-size="14.00">ImmediateFilterTextComponent </text>
</g>
<!-- PanelComponentModule&#45;&gt;ImmediateFilterTextComponent  -->
<g id="edge12" class="edge">
<title>PanelComponentModule&#45;&gt;ImmediateFilterTextComponent </title>
<path fill="none" stroke="black" stroke-dasharray="5,2" d="M1010.04,-137.8C1146.17,-137.8 1412.71,-137.8 1412.71,-137.8 1412.71,-137.8 1412.71,-168.78 1412.71,-168.78"/>
<polygon fill="black" stroke="black" points="1409.21,-168.78 1412.71,-178.78 1416.21,-168.78 1409.21,-168.78"/>
</g>
<!-- PanelComponent  -->
<g id="node14" class="node">
<title>PanelComponent </title>
<polygon fill="#fb8072" stroke="black" points="1329.93,-214.8 1214.07,-214.8 1214.07,-178.8 1329.93,-178.8 1329.93,-214.8"/>
<text text-anchor="middle" x="1272" y="-192.6" font-family="Times,serif" font-size="14.00">PanelComponent </text>
</g>
<!-- PanelComponentModule&#45;&gt;PanelComponent  -->
<g id="edge13" class="edge">
<title>PanelComponentModule&#45;&gt;PanelComponent </title>
<path fill="none" stroke="black" stroke-dasharray="5,2" d="M1010.34,-141.8C1097.81,-141.8 1227.23,-141.8 1227.23,-141.8 1227.23,-141.8 1227.23,-168.79 1227.23,-168.79"/>
<polygon fill="black" stroke="black" points="1223.73,-168.79 1227.23,-178.79 1230.73,-168.79 1223.73,-168.79"/>
</g>
<!-- PanelItemComponent  -->
<g id="node15" class="node">
<title>PanelItemComponent </title>
<polygon fill="#fb8072" stroke="black" points="1195.59,-214.8 1054.41,-214.8 1054.41,-178.8 1195.59,-178.8 1195.59,-214.8"/>
<text text-anchor="middle" x="1125" y="-192.6" font-family="Times,serif" font-size="14.00">PanelItemComponent </text>
</g>
<!-- PanelComponentModule&#45;&gt;PanelItemComponent  -->
<g id="edge14" class="edge">
<title>PanelComponentModule&#45;&gt;PanelItemComponent </title>
<path fill="none" stroke="black" stroke-dasharray="5,2" d="M1010.1,-145.8C1041.82,-145.8 1071.12,-145.8 1071.12,-145.8 1071.12,-145.8 1071.12,-168.68 1071.12,-168.68"/>
<polygon fill="black" stroke="black" points="1067.63,-168.68 1071.12,-178.68 1074.63,-168.68 1067.63,-168.68"/>
</g>
<!-- PublicWorkflowPanelComponent  -->
<g id="node16" class="node">
<title>PublicWorkflowPanelComponent </title>
<polygon fill="#fb8072" stroke="black" points="1036.75,-214.8 827.25,-214.8 827.25,-178.8 1036.75,-178.8 1036.75,-214.8"/>
<text text-anchor="middle" x="932" y="-192.6" font-family="Times,serif" font-size="14.00">PublicWorkflowPanelComponent </text>
</g>
<!-- PanelComponentModule&#45;&gt;PublicWorkflowPanelComponent  -->
<g id="edge15" class="edge">
<title>PanelComponentModule&#45;&gt;PublicWorkflowPanelComponent </title>
<path fill="none" stroke="black" stroke-dasharray="5,2" d="M932,-149.91C932,-149.91 932,-168.79 932,-168.79"/>
<polygon fill="black" stroke="black" points="928.5,-168.79 932,-178.79 935.5,-168.79 928.5,-168.79"/>
</g>
<!-- TaskListComponent  -->
<g id="node17" class="node">
<title>TaskListComponent </title>
<polygon fill="#fb8072" stroke="black" points="808.82,-214.8 675.18,-214.8 675.18,-178.8 808.82,-178.8 808.82,-214.8"/>
<text text-anchor="middle" x="742" y="-192.6" font-family="Times,serif" font-size="14.00">TaskListComponent </text>
</g>
<!-- PanelComponentModule&#45;&gt;TaskListComponent  -->
<g id="edge16" class="edge">
<title>PanelComponentModule&#45;&gt;TaskListComponent </title>
<path fill="none" stroke="black" stroke-dasharray="5,2" d="M853.61,-145.8C811.25,-145.8 767.52,-145.8 767.52,-145.8 767.52,-145.8 767.52,-168.68 767.52,-168.68"/>
<polygon fill="black" stroke="black" points="764.02,-168.68 767.52,-178.68 771.02,-168.68 764.02,-168.68"/>
</g>
<!-- TaskListPaginationComponent  -->
<g id="node18" class="node">
<title>TaskListPaginationComponent </title>
<polygon fill="#fb8072" stroke="black" points="656.71,-214.8 463.29,-214.8 463.29,-178.8 656.71,-178.8 656.71,-214.8"/>
<text text-anchor="middle" x="560" y="-192.6" font-family="Times,serif" font-size="14.00">TaskListPaginationComponent </text>
</g>
<!-- PanelComponentModule&#45;&gt;TaskListPaginationComponent  -->
<g id="edge17" class="edge">
<title>PanelComponentModule&#45;&gt;TaskListPaginationComponent </title>
<path fill="none" stroke="black" stroke-dasharray="5,2" d="M853.82,-141.8C760.63,-141.8 617.35,-141.8 617.35,-141.8 617.35,-141.8 617.35,-168.79 617.35,-168.79"/>
<polygon fill="black" stroke="black" points="613.85,-168.79 617.35,-178.79 620.85,-168.79 613.85,-168.79"/>
</g>
<!-- TaskPanelComponent  -->
<g id="node19" class="node">
<title>TaskPanelComponent </title>
<polygon fill="#fb8072" stroke="black" points="445.65,-214.8 302.35,-214.8 302.35,-178.8 445.65,-178.8 445.65,-214.8"/>
<text text-anchor="middle" x="374" y="-192.6" font-family="Times,serif" font-size="14.00">TaskPanelComponent </text>
</g>
<!-- PanelComponentModule&#45;&gt;TaskPanelComponent  -->
<g id="edge18" class="edge">
<title>PanelComponentModule&#45;&gt;TaskPanelComponent </title>
<path fill="none" stroke="black" stroke-dasharray="5,2" d="M853.8,-137.8C707.65,-137.8 407.74,-137.8 407.74,-137.8 407.74,-137.8 407.74,-168.78 407.74,-168.78"/>
<polygon fill="black" stroke="black" points="404.24,-168.78 407.74,-178.78 411.24,-168.78 404.24,-168.78"/>
</g>
<!-- WorkflowPanelComponent  -->
<g id="node20" class="node">
<title>WorkflowPanelComponent </title>
<polygon fill="#fb8072" stroke="black" points="284.97,-214.8 111.03,-214.8 111.03,-178.8 284.97,-178.8 284.97,-214.8"/>
<text text-anchor="middle" x="198" y="-192.6" font-family="Times,serif" font-size="14.00">WorkflowPanelComponent </text>
</g>
<!-- PanelComponentModule&#45;&gt;WorkflowPanelComponent  -->
<g id="edge19" class="edge">
<title>PanelComponentModule&#45;&gt;WorkflowPanelComponent </title>
<path fill="none" stroke="black" stroke-dasharray="5,2" d="M853.92,-133.8C674.57,-133.8 248.46,-133.8 248.46,-133.8 248.46,-133.8 248.46,-168.58 248.46,-168.58"/>
<polygon fill="black" stroke="black" points="244.96,-168.58 248.46,-178.58 251.96,-168.58 244.96,-168.58"/>
</g>
</g>
</svg>
