<?xml version="1.0" encoding="UTF-8" standalone="no"?>
<!DOCTYPE svg PUBLIC "-//W3C//DTD SVG 1.1//EN"
 "http://www.w3.org/Graphics/SVG/1.1/DTD/svg11.dtd">
<!-- Generated by graphviz version 2.47.3 (20210619.1520)
 -->
<!-- Title: dependencies Pages: 1 -->
<svg width="1518pt" height="247pt"
 viewBox="0.00 0.00 1518.00 246.80" xmlns="http://www.w3.org/2000/svg" xmlns:xlink="http://www.w3.org/1999/xlink">
<g id="graph0" class="graph" transform="scale(1 1) rotate(0) translate(4 242.8)">
<title>dependencies</title>
<polygon fill="white" stroke="transparent" points="-4,4 -4,-242.8 1514,-242.8 1514,4 -4,4"/>
<text text-anchor="middle" x="755" y="-8.2" font-family="sans-serif" font-size="14.00">dependencies</text>
<g id="clust1" class="cluster">
<title>cluster_PanelComponentModule</title>
<polygon fill="none" stroke="black" stroke-dasharray="1,5" points="8,-32.8 8,-230.8 1502,-230.8 1502,-32.8 8,-32.8"/>
</g>
<g id="clust2" class="cluster">
<title>cluster_PanelComponentModule_declarations</title>
<polygon fill="none" stroke="black" points="16,-40.8 16,-92.8 1494,-92.8 1494,-40.8 16,-40.8"/>
</g>
<g id="clust12" class="cluster">
<title>cluster_PanelComponentModule_exports</title>
<polygon fill="none" stroke="black" points="98,-170.8 98,-222.8 1342,-222.8 1342,-170.8 98,-170.8"/>
</g>
<!-- CasePanelComponent -->
<g id="node1" class="node">
<title>CasePanelComponent</title>
<polygon fill="#ffffb3" stroke="black" points="1485.65,-84.8 1346.35,-84.8 1346.35,-48.8 1485.65,-48.8 1485.65,-84.8"/>
<text text-anchor="middle" x="1416" y="-62.6" font-family="Times,serif" font-size="14.00">CasePanelComponent</text>
</g>
<!-- PanelComponentModule -->
<g id="node9" class="node">
<title>PanelComponentModule</title>
<polygon fill="#8dd3c7" stroke="black" points="792.98,-149.8 789.98,-153.8 768.98,-153.8 765.98,-149.8 637.02,-149.8 637.02,-113.8 792.98,-113.8 792.98,-149.8"/>
<text text-anchor="middle" x="715" y="-127.6" font-family="Times,serif" font-size="14.00">PanelComponentModule</text>
</g>
<!-- CasePanelComponent&#45;&gt;PanelComponentModule -->
<g id="edge1" class="edge">
<title>CasePanelComponent&#45;&gt;PanelComponentModule</title>
<path fill="none" stroke="black" d="M1416,-85.02C1416,-103.63 1416,-129.8 1416,-129.8 1416,-129.8 803.04,-129.8 803.04,-129.8"/>
<polygon fill="black" stroke="black" points="803.04,-126.3 793.04,-129.8 803.04,-133.3 803.04,-126.3"/>
</g>
<!-- ImmediateFilterTextComponent -->
<g id="node2" class="node">
<title>ImmediateFilterTextComponent</title>
<polygon fill="#ffffb3" stroke="black" points="1328.69,-84.8 1131.31,-84.8 1131.31,-48.8 1328.69,-48.8 1328.69,-84.8"/>
<text text-anchor="middle" x="1230" y="-62.6" font-family="Times,serif" font-size="14.00">ImmediateFilterTextComponent</text>
</g>
<!-- ImmediateFilterTextComponent&#45;&gt;PanelComponentModule -->
<g id="edge2" class="edge">
<title>ImmediateFilterTextComponent&#45;&gt;PanelComponentModule</title>
<path fill="none" stroke="black" d="M1151.88,-84.83C1151.88,-101.86 1151.88,-124.8 1151.88,-124.8 1151.88,-124.8 803.1,-124.8 803.1,-124.8"/>
<polygon fill="black" stroke="black" points="803.1,-121.3 793.1,-124.8 803.1,-128.3 803.1,-121.3"/>
</g>
<!-- ImmediateFilterTextContentComponent -->
<g id="node3" class="node">
<title>ImmediateFilterTextContentComponent</title>
<polygon fill="#ffffb3" stroke="black" points="1113.52,-84.8 872.48,-84.8 872.48,-48.8 1113.52,-48.8 1113.52,-84.8"/>
<text text-anchor="middle" x="993" y="-62.6" font-family="Times,serif" font-size="14.00">ImmediateFilterTextContentComponent</text>
</g>
<!-- ImmediateFilterTextContentComponent&#45;&gt;PanelComponentModule -->
<g id="edge3" class="edge">
<title>ImmediateFilterTextContentComponent&#45;&gt;PanelComponentModule</title>
<path fill="none" stroke="black" d="M913.1,-85.04C913.1,-100.37 913.1,-119.8 913.1,-119.8 913.1,-119.8 803.01,-119.8 803.01,-119.8"/>
<polygon fill="black" stroke="black" points="803.01,-116.3 793.01,-119.8 803.01,-123.3 803.01,-116.3"/>
</g>
<!-- PanelComponent -->
<g id="node4" class="node">
<title>PanelComponent</title>
<polygon fill="#ffffb3" stroke="black" points="854.44,-84.8 741.56,-84.8 741.56,-48.8 854.44,-48.8 854.44,-84.8"/>
<text text-anchor="middle" x="798" y="-62.6" font-family="Times,serif" font-size="14.00">PanelComponent</text>
</g>
<!-- PanelComponent&#45;&gt;PanelComponentModule -->
<g id="edge4" class="edge">
<title>PanelComponent&#45;&gt;PanelComponentModule</title>
<path fill="none" stroke="black" d="M767.39,-84.91C767.39,-84.91 767.39,-103.79 767.39,-103.79"/>
<polygon fill="black" stroke="black" points="763.89,-103.79 767.39,-113.79 770.89,-103.79 763.89,-103.79"/>
</g>
<!-- PublicWorkflowPanelComponent -->
<g id="node5" class="node">
<title>PublicWorkflowPanelComponent</title>
<polygon fill="#ffffb3" stroke="black" points="723.75,-84.8 518.25,-84.8 518.25,-48.8 723.75,-48.8 723.75,-84.8"/>
<text text-anchor="middle" x="621" y="-62.6" font-family="Times,serif" font-size="14.00">PublicWorkflowPanelComponent</text>
</g>
<!-- PublicWorkflowPanelComponent&#45;&gt;PanelComponentModule -->
<g id="edge5" class="edge">
<title>PublicWorkflowPanelComponent&#45;&gt;PanelComponentModule</title>
<path fill="none" stroke="black" d="M680.44,-84.91C680.44,-84.91 680.44,-103.79 680.44,-103.79"/>
<polygon fill="black" stroke="black" points="676.94,-103.79 680.44,-113.79 683.94,-103.79 676.94,-103.79"/>
</g>
<!-- TaskListComponent -->
<g id="node6" class="node">
<title>TaskListComponent</title>
<polygon fill="#ffffb3" stroke="black" points="500.32,-84.8 369.68,-84.8 369.68,-48.8 500.32,-48.8 500.32,-84.8"/>
<text text-anchor="middle" x="435" y="-62.6" font-family="Times,serif" font-size="14.00">TaskListComponent</text>
</g>
<!-- TaskListComponent&#45;&gt;PanelComponentModule -->
<g id="edge6" class="edge">
<title>TaskListComponent&#45;&gt;PanelComponentModule</title>
<path fill="none" stroke="black" d="M479.12,-85.04C479.12,-100.37 479.12,-119.8 479.12,-119.8 479.12,-119.8 626.78,-119.8 626.78,-119.8"/>
<polygon fill="black" stroke="black" points="626.78,-123.3 636.78,-119.8 626.78,-116.3 626.78,-123.3"/>
</g>
<!-- TaskPanelComponent -->
<g id="node7" class="node">
<title>TaskPanelComponent</title>
<polygon fill="#ffffb3" stroke="black" points="351.65,-84.8 212.35,-84.8 212.35,-48.8 351.65,-48.8 351.65,-84.8"/>
<text text-anchor="middle" x="282" y="-62.6" font-family="Times,serif" font-size="14.00">TaskPanelComponent</text>
</g>
<!-- TaskPanelComponent&#45;&gt;PanelComponentModule -->
<g id="edge7" class="edge">
<title>TaskPanelComponent&#45;&gt;PanelComponentModule</title>
<path fill="none" stroke="black" d="M324.62,-84.83C324.62,-101.86 324.62,-124.8 324.62,-124.8 324.62,-124.8 626.94,-124.8 626.94,-124.8"/>
<polygon fill="black" stroke="black" points="626.94,-128.3 636.94,-124.8 626.94,-121.3 626.94,-128.3"/>
</g>
<!-- WorkflowPanelComponent -->
<g id="node8" class="node">
<title>WorkflowPanelComponent</title>
<polygon fill="#ffffb3" stroke="black" points="193.97,-84.8 24.03,-84.8 24.03,-48.8 193.97,-48.8 193.97,-84.8"/>
<text text-anchor="middle" x="109" y="-62.6" font-family="Times,serif" font-size="14.00">WorkflowPanelComponent</text>
</g>
<!-- WorkflowPanelComponent&#45;&gt;PanelComponentModule -->
<g id="edge8" class="edge">
<title>WorkflowPanelComponent&#45;&gt;PanelComponentModule</title>
<path fill="none" stroke="black" d="M150.12,-85.02C150.12,-103.63 150.12,-129.8 150.12,-129.8 150.12,-129.8 626.75,-129.8 626.75,-129.8"/>
<polygon fill="black" stroke="black" points="626.75,-133.3 636.75,-129.8 626.75,-126.3 626.75,-133.3"/>
</g>
<!-- CasePanelComponent  -->
<g id="node10" class="node">
<title>CasePanelComponent </title>
<polygon fill="#fb8072" stroke="black" points="1333.65,-214.8 1190.35,-214.8 1190.35,-178.8 1333.65,-178.8 1333.65,-214.8"/>
<text text-anchor="middle" x="1262" y="-192.6" font-family="Times,serif" font-size="14.00">CasePanelComponent </text>
</g>
<!-- PanelComponentModule&#45;&gt;CasePanelComponent  -->
<g id="edge9" class="edge">
<title>PanelComponentModule&#45;&gt;CasePanelComponent </title>
<path fill="none" stroke="black" stroke-dasharray="5,2" d="M793.02,-134.8C943.58,-134.8 1259.51,-134.8 1259.51,-134.8 1259.51,-134.8 1259.51,-168.53 1259.51,-168.53"/>
<polygon fill="black" stroke="black" points="1256.01,-168.53 1259.51,-178.53 1263.01,-168.53 1256.01,-168.53"/>
</g>
<!-- ImmediateFilterTextComponent  -->
<g id="node11" class="node">
<title>ImmediateFilterTextComponent </title>
<polygon fill="#fb8072" stroke="black" points="1172.19,-214.8 971.81,-214.8 971.81,-178.8 1172.19,-178.8 1172.19,-214.8"/>
<text text-anchor="middle" x="1072" y="-192.6" font-family="Times,serif" font-size="14.00">ImmediateFilterTextComponent </text>
</g>
<!-- PanelComponentModule&#45;&gt;ImmediateFilterTextComponent  -->
<g id="edge10" class="edge">
<title>PanelComponentModule&#45;&gt;ImmediateFilterTextComponent </title>
<path fill="none" stroke="black" stroke-dasharray="5,2" d="M793.08,-139.8C890.01,-139.8 1042.71,-139.8 1042.71,-139.8 1042.71,-139.8 1042.71,-168.76 1042.71,-168.76"/>
<polygon fill="black" stroke="black" points="1039.21,-168.76 1042.71,-178.76 1046.21,-168.76 1039.21,-168.76"/>
</g>
<!-- PanelComponent  -->
<g id="node12" class="node">
<title>PanelComponent </title>
<polygon fill="#fb8072" stroke="black" points="953.93,-214.8 838.07,-214.8 838.07,-178.8 953.93,-178.8 953.93,-214.8"/>
<text text-anchor="middle" x="896" y="-192.6" font-family="Times,serif" font-size="14.00">PanelComponent </text>
</g>
<!-- PanelComponentModule&#45;&gt;PanelComponent  -->
<g id="edge11" class="edge">
<title>PanelComponentModule&#45;&gt;PanelComponent </title>
<path fill="none" stroke="black" stroke-dasharray="5,2" d="M793.17,-144.8C821.25,-144.8 846.12,-144.8 846.12,-144.8 846.12,-144.8 846.12,-168.61 846.12,-168.61"/>
<polygon fill="black" stroke="black" points="842.63,-168.61 846.12,-178.61 849.63,-168.61 842.63,-168.61"/>
</g>
<!-- PublicWorkflowPanelComponent  -->
<g id="node13" class="node">
<title>PublicWorkflowPanelComponent </title>
<polygon fill="#fb8072" stroke="black" points="819.75,-214.8 610.25,-214.8 610.25,-178.8 819.75,-178.8 819.75,-214.8"/>
<text text-anchor="middle" x="715" y="-192.6" font-family="Times,serif" font-size="14.00">PublicWorkflowPanelComponent </text>
</g>
<!-- PanelComponentModule&#45;&gt;PublicWorkflowPanelComponent  -->
<g id="edge12" class="edge">
<title>PanelComponentModule&#45;&gt;PublicWorkflowPanelComponent </title>
<path fill="none" stroke="black" stroke-dasharray="5,2" d="M715,-149.91C715,-149.91 715,-168.79 715,-168.79"/>
<polygon fill="black" stroke="black" points="711.5,-168.79 715,-178.79 718.5,-168.79 711.5,-168.79"/>
</g>
<!-- TaskListComponent  -->
<g id="node14" class="node">
<title>TaskListComponent </title>
<polygon fill="#fb8072" stroke="black" points="591.82,-214.8 458.18,-214.8 458.18,-178.8 591.82,-178.8 591.82,-214.8"/>
<text text-anchor="middle" x="525" y="-192.6" font-family="Times,serif" font-size="14.00">TaskListComponent </text>
</g>
<!-- PanelComponentModule&#45;&gt;TaskListComponent  -->
<g id="edge13" class="edge">
<title>PanelComponentModule&#45;&gt;TaskListComponent </title>
<path fill="none" stroke="black" stroke-dasharray="5,2" d="M636.88,-144.8C596.27,-144.8 555.02,-144.8 555.02,-144.8 555.02,-144.8 555.02,-168.61 555.02,-168.61"/>
<polygon fill="black" stroke="black" points="551.52,-168.61 555.02,-178.61 558.52,-168.61 551.52,-168.61"/>
</g>
<!-- TaskPanelComponent  -->
<g id="node15" class="node">
<title>TaskPanelComponent </title>
<polygon fill="#fb8072" stroke="black" points="440.65,-214.8 297.35,-214.8 297.35,-178.8 440.65,-178.8 440.65,-214.8"/>
<text text-anchor="middle" x="369" y="-192.6" font-family="Times,serif" font-size="14.00">TaskPanelComponent </text>
</g>
<!-- PanelComponentModule&#45;&gt;TaskPanelComponent  -->
<g id="edge14" class="edge">
<title>PanelComponentModule&#45;&gt;TaskPanelComponent </title>
<path fill="none" stroke="black" stroke-dasharray="5,2" d="M636.83,-139.8C545.05,-139.8 405.21,-139.8 405.21,-139.8 405.21,-139.8 405.21,-168.76 405.21,-168.76"/>
<polygon fill="black" stroke="black" points="401.71,-168.76 405.21,-178.76 408.71,-168.76 401.71,-168.76"/>
</g>
<!-- WorkflowPanelComponent  -->
<g id="node16" class="node">
<title>WorkflowPanelComponent </title>
<polygon fill="#fb8072" stroke="black" points="279.97,-214.8 106.03,-214.8 106.03,-178.8 279.97,-178.8 279.97,-214.8"/>
<text text-anchor="middle" x="193" y="-192.6" font-family="Times,serif" font-size="14.00">WorkflowPanelComponent </text>
</g>
<!-- PanelComponentModule&#45;&gt;WorkflowPanelComponent  -->
<g id="edge15" class="edge">
<title>PanelComponentModule&#45;&gt;WorkflowPanelComponent </title>
<path fill="none" stroke="black" stroke-dasharray="5,2" d="M636.76,-134.8C503.31,-134.8 245.96,-134.8 245.96,-134.8 245.96,-134.8 245.96,-168.53 245.96,-168.53"/>
<polygon fill="black" stroke="black" points="242.46,-168.53 245.96,-178.53 249.46,-168.53 242.46,-168.53"/>
</g>
</g>
</svg>
