<?xml version="1.0" encoding="UTF-8" standalone="no"?>
<!DOCTYPE svg PUBLIC "-//W3C//DTD SVG 1.1//EN"
 "http://www.w3.org/Graphics/SVG/1.1/DTD/svg11.dtd">
<!-- Generated by graphviz version 3.0.0 (20220226.1711)
 -->
<!-- Title: dependencies Pages: 1 -->
<svg width="1882pt" height="247pt"
 viewBox="0.00 0.00 1882.00 246.80" xmlns="http://www.w3.org/2000/svg" xmlns:xlink="http://www.w3.org/1999/xlink">
<g id="graph0" class="graph" transform="scale(1 1) rotate(0) translate(4 242.8)">
<title>dependencies</title>
<polygon fill="white" stroke="transparent" points="-4,4 -4,-242.8 1878,-242.8 1878,4 -4,4"/>
<text text-anchor="middle" x="937" y="-8.2" font-family="sans-serif" font-size="14.00">dependencies</text>
<g id="clust1" class="cluster">
<title>cluster_PanelComponentModule</title>
<polygon fill="none" stroke="black" stroke-dasharray="1,5" points="8,-32.8 8,-230.8 1866,-230.8 1866,-32.8 8,-32.8"/>
</g>
<g id="clust14" class="cluster">
<title>cluster_PanelComponentModule_exports</title>
<polygon fill="none" stroke="black" points="190,-170.8 190,-222.8 1646,-222.8 1646,-170.8 190,-170.8"/>
</g>
<g id="clust2" class="cluster">
<title>cluster_PanelComponentModule_declarations</title>
<polygon fill="none" stroke="black" points="16,-40.8 16,-92.8 1858,-92.8 1858,-40.8 16,-40.8"/>
</g>
<!-- CasePanelComponent -->
<g id="node1" class="node">
<title>CasePanelComponent</title>
<polygon fill="#ffffb3" stroke="black" points="1849.65,-84.8 1710.35,-84.8 1710.35,-48.8 1849.65,-48.8 1849.65,-84.8"/>
<text text-anchor="middle" x="1780" y="-62.6" font-family="Times,serif" font-size="14.00">CasePanelComponent</text>
</g>
<!-- PanelComponentModule -->
<g id="node11" class="node">
<title>PanelComponentModule</title>
<polygon fill="#8dd3c7" stroke="black" points="1001.99,-149.8 998.99,-153.8 977.99,-153.8 974.99,-149.8 846.01,-149.8 846.01,-113.8 1001.99,-113.8 1001.99,-149.8"/>
<text text-anchor="middle" x="924" y="-127.6" font-family="Times,serif" font-size="14.00">PanelComponentModule</text>
</g>
<!-- CasePanelComponent&#45;&gt;PanelComponentModule -->
<g id="edge1" class="edge">
<title>CasePanelComponent&#45;&gt;PanelComponentModule</title>
<path fill="none" stroke="black" d="M1780,-84.91C1780,-104.14 1780,-131.8 1780,-131.8 1780,-131.8 1012.23,-131.8 1012.23,-131.8"/>
<polygon fill="black" stroke="black" points="1012.23,-128.3 1002.23,-131.8 1012.23,-135.3 1012.23,-128.3"/>
</g>
<!-- ImmediateFilterTextComponent -->
<g id="node2" class="node">
<title>ImmediateFilterTextComponent</title>
<polygon fill="#ffffb3" stroke="black" points="1692.68,-84.8 1495.32,-84.8 1495.32,-48.8 1692.68,-48.8 1692.68,-84.8"/>
<text text-anchor="middle" x="1594" y="-62.6" font-family="Times,serif" font-size="14.00">ImmediateFilterTextComponent</text>
</g>
<!-- ImmediateFilterTextComponent&#45;&gt;PanelComponentModule -->
<g id="edge2" class="edge">
<title>ImmediateFilterTextComponent&#45;&gt;PanelComponentModule</title>
<path fill="none" stroke="black" d="M1542.8,-85.1C1542.8,-103.07 1542.8,-127.8 1542.8,-127.8 1542.8,-127.8 1012.06,-127.8 1012.06,-127.8"/>
<polygon fill="black" stroke="black" points="1012.06,-124.3 1002.06,-127.8 1012.06,-131.3 1012.06,-124.3"/>
</g>
<!-- ImmediateFilterTextContentComponent -->
<g id="node3" class="node">
<title>ImmediateFilterTextContentComponent</title>
<polygon fill="#ffffb3" stroke="black" points="1477.51,-84.8 1236.49,-84.8 1236.49,-48.8 1477.51,-48.8 1477.51,-84.8"/>
<text text-anchor="middle" x="1357" y="-62.6" font-family="Times,serif" font-size="14.00">ImmediateFilterTextContentComponent</text>
</g>
<!-- ImmediateFilterTextContentComponent&#45;&gt;PanelComponentModule -->
<g id="edge3" class="edge">
<title>ImmediateFilterTextContentComponent&#45;&gt;PanelComponentModule</title>
<path fill="none" stroke="black" d="M1247.11,-84.83C1247.11,-101.2 1247.11,-122.8 1247.11,-122.8 1247.11,-122.8 1012.21,-122.8 1012.21,-122.8"/>
<polygon fill="black" stroke="black" points="1012.21,-119.3 1002.21,-122.8 1012.21,-126.3 1012.21,-119.3"/>
</g>
<!-- PanelComponent -->
<g id="node4" class="node">
<title>PanelComponent</title>
<polygon fill="#ffffb3" stroke="black" points="1218.44,-84.8 1105.56,-84.8 1105.56,-48.8 1218.44,-48.8 1218.44,-84.8"/>
<text text-anchor="middle" x="1162" y="-62.6" font-family="Times,serif" font-size="14.00">PanelComponent</text>
</g>
<!-- PanelComponent&#45;&gt;PanelComponentModule -->
<g id="edge4" class="edge">
<title>PanelComponent&#45;&gt;PanelComponentModule</title>
<path fill="none" stroke="black" d="M1114.7,-84.99C1114.7,-99.98 1114.7,-118.8 1114.7,-118.8 1114.7,-118.8 1012.12,-118.8 1012.12,-118.8"/>
<polygon fill="black" stroke="black" points="1012.12,-115.3 1002.12,-118.8 1012.12,-122.3 1012.12,-115.3"/>
</g>
<!-- PanelItemComponent -->
<g id="node5" class="node">
<title>PanelItemComponent</title>
<polygon fill="#ffffb3" stroke="black" points="1088.09,-84.8 949.91,-84.8 949.91,-48.8 1088.09,-48.8 1088.09,-84.8"/>
<text text-anchor="middle" x="1019" y="-62.6" font-family="Times,serif" font-size="14.00">PanelItemComponent</text>
</g>
<!-- PanelItemComponent&#45;&gt;PanelComponentModule -->
<g id="edge5" class="edge">
<title>PanelItemComponent&#45;&gt;PanelComponentModule</title>
<path fill="none" stroke="black" d="M975.97,-84.91C975.97,-84.91 975.97,-103.79 975.97,-103.79"/>
<polygon fill="black" stroke="black" points="972.47,-103.79 975.97,-113.79 979.47,-103.79 972.47,-103.79"/>
</g>
<!-- PublicWorkflowPanelComponent -->
<g id="node6" class="node">
<title>PublicWorkflowPanelComponent</title>
<polygon fill="#ffffb3" stroke="black" points="931.75,-84.8 726.25,-84.8 726.25,-48.8 931.75,-48.8 931.75,-84.8"/>
<text text-anchor="middle" x="829" y="-62.6" font-family="Times,serif" font-size="14.00">PublicWorkflowPanelComponent</text>
</g>
<!-- PublicWorkflowPanelComponent&#45;&gt;PanelComponentModule -->
<g id="edge6" class="edge">
<title>PublicWorkflowPanelComponent&#45;&gt;PanelComponentModule</title>
<path fill="none" stroke="black" d="M888.94,-84.91C888.94,-84.91 888.94,-103.79 888.94,-103.79"/>
<polygon fill="black" stroke="black" points="885.44,-103.79 888.94,-113.79 892.44,-103.79 885.44,-103.79"/>
</g>
<!-- TaskListComponent -->
<g id="node7" class="node">
<title>TaskListComponent</title>
<polygon fill="#ffffb3" stroke="black" points="708.32,-84.8 577.68,-84.8 577.68,-48.8 708.32,-48.8 708.32,-84.8"/>
<text text-anchor="middle" x="643" y="-62.6" font-family="Times,serif" font-size="14.00">TaskListComponent</text>
</g>
<!-- TaskListComponent&#45;&gt;PanelComponentModule -->
<g id="edge7" class="edge">
<title>TaskListComponent&#45;&gt;PanelComponentModule</title>
<path fill="none" stroke="black" d="M643,-84.99C643,-99.98 643,-118.8 643,-118.8 643,-118.8 835.73,-118.8 835.73,-118.8"/>
<polygon fill="black" stroke="black" points="835.73,-122.3 845.73,-118.8 835.73,-115.3 835.73,-122.3"/>
</g>
<!-- TaskListPaginationComponent -->
<g id="node8" class="node">
<title>TaskListPaginationComponent</title>
<polygon fill="#ffffb3" stroke="black" points="560.21,-84.8 369.79,-84.8 369.79,-48.8 560.21,-48.8 560.21,-84.8"/>
<text text-anchor="middle" x="465" y="-62.6" font-family="Times,serif" font-size="14.00">TaskListPaginationComponent</text>
</g>
<!-- TaskListPaginationComponent&#45;&gt;PanelComponentModule -->
<g id="edge8" class="edge">
<title>TaskListPaginationComponent&#45;&gt;PanelComponentModule</title>
<path fill="none" stroke="black" d="M555.12,-84.83C555.12,-101.2 555.12,-122.8 555.12,-122.8 555.12,-122.8 835.77,-122.8 835.77,-122.8"/>
<polygon fill="black" stroke="black" points="835.77,-126.3 845.77,-122.8 835.77,-119.3 835.77,-126.3"/>
</g>
<!-- TaskPanelComponent -->
<g id="node9" class="node">
<title>TaskPanelComponent</title>
<polygon fill="#ffffb3" stroke="black" points="351.65,-84.8 212.35,-84.8 212.35,-48.8 351.65,-48.8 351.65,-84.8"/>
<text text-anchor="middle" x="282" y="-62.6" font-family="Times,serif" font-size="14.00">TaskPanelComponent</text>
</g>
<!-- TaskPanelComponent&#45;&gt;PanelComponentModule -->
<g id="edge9" class="edge">
<title>TaskPanelComponent&#45;&gt;PanelComponentModule</title>
<path fill="none" stroke="black" d="M282,-85.1C282,-103.07 282,-127.8 282,-127.8 282,-127.8 835.92,-127.8 835.92,-127.8"/>
<polygon fill="black" stroke="black" points="835.92,-131.3 845.92,-127.8 835.92,-124.3 835.92,-131.3"/>
</g>
<!-- WorkflowPanelComponent -->
<g id="node10" class="node">
<title>WorkflowPanelComponent</title>
<polygon fill="#ffffb3" stroke="black" points="193.97,-84.8 24.03,-84.8 24.03,-48.8 193.97,-48.8 193.97,-84.8"/>
<text text-anchor="middle" x="109" y="-62.6" font-family="Times,serif" font-size="14.00">WorkflowPanelComponent</text>
</g>
<!-- WorkflowPanelComponent&#45;&gt;PanelComponentModule -->
<g id="edge10" class="edge">
<title>WorkflowPanelComponent&#45;&gt;PanelComponentModule</title>
<path fill="none" stroke="black" d="M109,-84.91C109,-104.14 109,-131.8 109,-131.8 109,-131.8 835.85,-131.8 835.85,-131.8"/>
<polygon fill="black" stroke="black" points="835.85,-135.3 845.85,-131.8 835.85,-128.3 835.85,-135.3"/>
</g>
<!-- CasePanelComponent  -->
<g id="node12" class="node">
<title>CasePanelComponent </title>
<polygon fill="#fb8072" stroke="black" points="1637.65,-214.8 1494.35,-214.8 1494.35,-178.8 1637.65,-178.8 1637.65,-214.8"/>
<text text-anchor="middle" x="1566" y="-192.6" font-family="Times,serif" font-size="14.00">CasePanelComponent </text>
</g>
<!-- PanelComponentModule&#45;&gt;CasePanelComponent  -->
<g id="edge11" class="edge">
<title>PanelComponentModule&#45;&gt;CasePanelComponent </title>
<path fill="none" stroke="black" stroke-dasharray="5,2" d="M1002.05,-136.8C1177.97,-136.8 1590.19,-136.8 1590.19,-136.8 1590.19,-136.8 1590.19,-168.8 1590.19,-168.8"/>
<polygon fill="black" stroke="black" points="1586.69,-168.8 1590.19,-178.8 1593.69,-168.8 1586.69,-168.8"/>
</g>
<!-- ImmediateFilterTextComponent  -->
<g id="node13" class="node">
<title>ImmediateFilterTextComponent </title>
<polygon fill="#fb8072" stroke="black" points="1476.18,-214.8 1275.82,-214.8 1275.82,-178.8 1476.18,-178.8 1476.18,-214.8"/>
<text text-anchor="middle" x="1376" y="-192.6" font-family="Times,serif" font-size="14.00">ImmediateFilterTextComponent </text>
</g>
<!-- PanelComponentModule&#45;&gt;ImmediateFilterTextComponent  -->
<g id="edge12" class="edge">
<title>PanelComponentModule&#45;&gt;ImmediateFilterTextComponent </title>
<path fill="none" stroke="black" stroke-dasharray="5,2" d="M1002.22,-140.8C1131.58,-140.8 1376,-140.8 1376,-140.8 1376,-140.8 1376,-168.77 1376,-168.77"/>
<polygon fill="black" stroke="black" points="1372.5,-168.77 1376,-178.77 1379.5,-168.77 1372.5,-168.77"/>
</g>
<!-- PanelComponent  -->
<g id="node14" class="node">
<title>PanelComponent </title>
<polygon fill="#fb8072" stroke="black" points="1257.93,-214.8 1142.07,-214.8 1142.07,-178.8 1257.93,-178.8 1257.93,-214.8"/>
<text text-anchor="middle" x="1200" y="-192.6" font-family="Times,serif" font-size="14.00">PanelComponent </text>
</g>
<!-- PanelComponentModule&#45;&gt;PanelComponent  -->
<g id="edge13" class="edge">
<title>PanelComponentModule&#45;&gt;PanelComponent </title>
<path fill="none" stroke="black" stroke-dasharray="5,2" d="M1002.24,-145.8C1077.56,-145.8 1180.12,-145.8 1180.12,-145.8 1180.12,-145.8 1180.12,-168.68 1180.12,-168.68"/>
<polygon fill="black" stroke="black" points="1176.63,-168.68 1180.12,-178.68 1183.63,-168.68 1176.63,-168.68"/>
</g>
<!-- PublicWorkflowPanelComponent  -->
<g id="node15" class="node">
<title>PublicWorkflowPanelComponent </title>
<polygon fill="#fb8072" stroke="black" points="1123.75,-214.8 914.25,-214.8 914.25,-178.8 1123.75,-178.8 1123.75,-214.8"/>
<text text-anchor="middle" x="1019" y="-192.6" font-family="Times,serif" font-size="14.00">PublicWorkflowPanelComponent </text>
</g>
<!-- PanelComponentModule&#45;&gt;PublicWorkflowPanelComponent  -->
<g id="edge14" class="edge">
<title>PanelComponentModule&#45;&gt;PublicWorkflowPanelComponent </title>
<path fill="none" stroke="black" stroke-dasharray="5,2" d="M958.18,-149.91C958.18,-149.91 958.18,-168.79 958.18,-168.79"/>
<polygon fill="black" stroke="black" points="954.68,-168.79 958.18,-178.79 961.68,-168.79 954.68,-168.79"/>
</g>
<!-- TaskListComponent  -->
<g id="node16" class="node">
<title>TaskListComponent </title>
<polygon fill="#fb8072" stroke="black" points="895.82,-214.8 762.18,-214.8 762.18,-178.8 895.82,-178.8 895.82,-214.8"/>
<text text-anchor="middle" x="829" y="-192.6" font-family="Times,serif" font-size="14.00">TaskListComponent </text>
</g>
<!-- PanelComponentModule&#45;&gt;TaskListComponent  -->
<g id="edge15" class="edge">
<title>PanelComponentModule&#45;&gt;TaskListComponent </title>
<path fill="none" stroke="black" stroke-dasharray="5,2" d="M870.96,-149.91C870.96,-149.91 870.96,-168.79 870.96,-168.79"/>
<polygon fill="black" stroke="black" points="867.46,-168.79 870.96,-178.79 874.46,-168.79 867.46,-168.79"/>
</g>
<!-- TaskListPaginationComponent  -->
<g id="node17" class="node">
<title>TaskListPaginationComponent </title>
<polygon fill="#fb8072" stroke="black" points="743.71,-214.8 550.29,-214.8 550.29,-178.8 743.71,-178.8 743.71,-214.8"/>
<text text-anchor="middle" x="647" y="-192.6" font-family="Times,serif" font-size="14.00">TaskListPaginationComponent </text>
</g>
<!-- PanelComponentModule&#45;&gt;TaskListPaginationComponent  -->
<g id="edge16" class="edge">
<title>PanelComponentModule&#45;&gt;TaskListPaginationComponent </title>
<path fill="none" stroke="black" stroke-dasharray="5,2" d="M845.76,-145.8C793.76,-145.8 734.99,-145.8 734.99,-145.8 734.99,-145.8 734.99,-168.68 734.99,-168.68"/>
<polygon fill="black" stroke="black" points="731.49,-168.68 734.99,-178.68 738.49,-168.68 731.49,-168.68"/>
</g>
<!-- TaskPanelComponent  -->
<g id="node18" class="node">
<title>TaskPanelComponent </title>
<polygon fill="#fb8072" stroke="black" points="532.65,-214.8 389.35,-214.8 389.35,-178.8 532.65,-178.8 532.65,-214.8"/>
<text text-anchor="middle" x="461" y="-192.6" font-family="Times,serif" font-size="14.00">TaskPanelComponent </text>
</g>
<!-- PanelComponentModule&#45;&gt;TaskPanelComponent  -->
<g id="edge17" class="edge">
<title>PanelComponentModule&#45;&gt;TaskPanelComponent </title>
<path fill="none" stroke="black" stroke-dasharray="5,2" d="M845.98,-140.8C714.03,-140.8 461,-140.8 461,-140.8 461,-140.8 461,-168.77 461,-168.77"/>
<polygon fill="black" stroke="black" points="457.5,-168.77 461,-178.77 464.5,-168.77 457.5,-168.77"/>
</g>
<!-- WorkflowPanelComponent  -->
<g id="node19" class="node">
<title>WorkflowPanelComponent </title>
<polygon fill="#fb8072" stroke="black" points="371.97,-214.8 198.03,-214.8 198.03,-178.8 371.97,-178.8 371.97,-214.8"/>
<text text-anchor="middle" x="285" y="-192.6" font-family="Times,serif" font-size="14.00">WorkflowPanelComponent </text>
</g>
<!-- PanelComponentModule&#45;&gt;WorkflowPanelComponent  -->
<g id="edge18" class="edge">
<title>PanelComponentModule&#45;&gt;WorkflowPanelComponent </title>
<path fill="none" stroke="black" stroke-dasharray="5,2" d="M845.99,-136.8C691.38,-136.8 360.86,-136.8 360.86,-136.8 360.86,-136.8 360.86,-168.8 360.86,-168.8"/>
<polygon fill="black" stroke="black" points="357.36,-168.8 360.86,-178.8 364.36,-168.8 357.36,-168.8"/>
</g>
</g>
</svg>
