<?xml version="1.0" encoding="UTF-8" standalone="no"?>
<!DOCTYPE svg PUBLIC "-//W3C//DTD SVG 1.1//EN"
 "http://www.w3.org/Graphics/SVG/1.1/DTD/svg11.dtd">
<!-- Generated by graphviz version 3.0.0 (20220226.1711)
 -->
<!-- Title: dependencies Pages: 1 -->
<svg width="334pt" height="247pt"
 viewBox="0.00 0.00 334.00 246.80" xmlns="http://www.w3.org/2000/svg" xmlns:xlink="http://www.w3.org/1999/xlink">
<g id="graph0" class="graph" transform="scale(1 1) rotate(0) translate(4 242.8)">
<title>dependencies</title>
<polygon fill="white" stroke="transparent" points="-4,4 -4,-242.8 330,-242.8 330,4 -4,4"/>
<text text-anchor="middle" x="163" y="-8.2" font-family="sans-serif" font-size="14.00">dependencies</text>
<g id="clust1" class="cluster">
<title>cluster_AlertDialogModule</title>
<polygon fill="none" stroke="black" stroke-dasharray="1,5" points="8,-32.8 8,-230.8 318,-230.8 318,-32.8 8,-32.8"/>
</g>
<g id="clust2" class="cluster">
<title>cluster_AlertDialogModule_declarations</title>
<polygon fill="none" stroke="black" points="146,-40.8 146,-92.8 310,-92.8 310,-40.8 146,-40.8"/>
</g>
<g id="clust5" class="cluster">
<title>cluster_AlertDialogModule_exports</title>
<polygon fill="none" stroke="black" points="79,-170.8 79,-222.8 247,-222.8 247,-170.8 79,-170.8"/>
</g>
<g id="clust4" class="cluster">
<title>cluster_AlertDialogModule_imports</title>
<polygon fill="none" stroke="black" points="16,-40.8 16,-92.8 138,-92.8 138,-40.8 16,-40.8"/>
</g>
<!-- AlertDialogComponent -->
<g id="node1" class="node">
<title>AlertDialogComponent</title>
<polygon fill="#ffffb3" stroke="black" points="302.2,-84.8 153.8,-84.8 153.8,-48.8 302.2,-48.8 302.2,-84.8"/>
<text text-anchor="middle" x="228" y="-62.6" font-family="Times,serif" font-size="14.00">AlertDialogComponent</text>
</g>
<!-- AlertDialogModule -->
<g id="node2" class="node">
<title>AlertDialogModule</title>
<polygon fill="#8dd3c7" stroke="black" points="226.42,-149.8 223.42,-153.8 202.42,-153.8 199.42,-149.8 99.58,-149.8 99.58,-113.8 226.42,-113.8 226.42,-149.8"/>
<text text-anchor="middle" x="163" y="-127.6" font-family="Times,serif" font-size="14.00">AlertDialogModule</text>
</g>
<!-- AlertDialogComponent&#45;&gt;AlertDialogModule -->
<g id="edge1" class="edge">
<title>AlertDialogComponent&#45;&gt;AlertDialogModule</title>
<path fill="none" stroke="black" d="M190.06,-84.91C190.06,-84.91 190.06,-103.79 190.06,-103.79"/>
<polygon fill="black" stroke="black" points="186.56,-103.79 190.06,-113.79 193.56,-103.79 186.56,-103.79"/>
</g>
<!-- AlertDialogComponent  -->
<g id="node4" class="node">
<title>AlertDialogComponent </title>
<polygon fill="#fb8072" stroke="black" points="238.7,-214.8 87.3,-214.8 87.3,-178.8 238.7,-178.8 238.7,-214.8"/>
<text text-anchor="middle" x="163" y="-192.6" font-family="Times,serif" font-size="14.00">AlertDialogComponent </text>
</g>
<!-- AlertDialogModule&#45;&gt;AlertDialogComponent  -->
<g id="edge3" class="edge">
<title>AlertDialogModule&#45;&gt;AlertDialogComponent </title>
<path fill="none" stroke="black" stroke-dasharray="5,2" d="M163,-149.91C163,-149.91 163,-168.79 163,-168.79"/>
<polygon fill="black" stroke="black" points="159.5,-168.79 163,-178.79 166.5,-168.79 159.5,-168.79"/>
</g>
<!-- MaterialModule -->
<g id="node3" class="node">
<title>MaterialModule</title>
<polygon fill="#8dd3c7" stroke="black" points="130.47,-84.8 127.47,-88.8 106.47,-88.8 103.47,-84.8 23.53,-84.8 23.53,-48.8 130.47,-48.8 130.47,-84.8"/>
<text text-anchor="middle" x="77" y="-62.6" font-family="Times,serif" font-size="14.00">MaterialModule</text>
</g>
<!-- MaterialModule&#45;&gt;AlertDialogModule -->
<g id="edge2" class="edge">
<title>MaterialModule&#45;&gt;AlertDialogModule</title>
<path fill="none" stroke="black" d="M115.14,-84.91C115.14,-84.91 115.14,-103.79 115.14,-103.79"/>
<polygon fill="black" stroke="black" points="111.64,-103.79 115.14,-113.79 118.64,-103.79 111.64,-103.79"/>
</g>
</g>
</svg>
