<?xml version="1.0" encoding="UTF-8" standalone="no"?>
<!DOCTYPE svg PUBLIC "-//W3C//DTD SVG 1.1//EN"
 "http://www.w3.org/Graphics/SVG/1.1/DTD/svg11.dtd">
<!-- Generated by graphviz version 2.47.3 (20210619.1520)
 -->
<!-- Title: dependencies Pages: 1 -->
<svg width="3327pt" height="312pt"
 viewBox="0.00 0.00 3327.00 311.80" xmlns="http://www.w3.org/2000/svg" xmlns:xlink="http://www.w3.org/1999/xlink">
<g id="graph0" class="graph" transform="scale(1 1) rotate(0) translate(4 307.8)">
<title>dependencies</title>
<polygon fill="white" stroke="transparent" points="-4,4 -4,-307.8 3323,-307.8 3323,4 -4,4"/>
<text text-anchor="middle" x="1659.5" y="-8.2" font-family="sans-serif" font-size="14.00">dependencies</text>
<g id="clust1" class="cluster">
<title>cluster_SideMenuLoadFilterComponentModule</title>
<polygon fill="none" stroke="black" stroke-dasharray="1,5" points="8,-32.8 8,-295.8 3311,-295.8 3311,-32.8 8,-32.8"/>
</g>
<g id="clust2" class="cluster">
<title>cluster_SideMenuLoadFilterComponentModule_declarations</title>
<polygon fill="none" stroke="black" points="2458,-105.8 2458,-157.8 2614,-157.8 2614,-105.8 2458,-105.8"/>
</g>
<g id="clust3" class="cluster">
<title>cluster_SideMenuLoadFilterComponentModule_LoadFilterComponent_providers</title>
<polygon fill="none" stroke="black" points="16,-40.8 16,-92.8 3303,-92.8 3303,-40.8 16,-40.8"/>
</g>
<g id="clust5" class="cluster">
<title>cluster_SideMenuLoadFilterComponentModule_exports</title>
<polygon fill="none" stroke="black" points="2456,-235.8 2456,-287.8 2616,-287.8 2616,-235.8 2456,-235.8"/>
</g>
<!-- LoadFilterComponent -->
<g id="node1" class="node">
<title>LoadFilterComponent</title>
<polygon fill="#ffffb3" stroke="black" points="2606.43,-149.8 2465.57,-149.8 2465.57,-113.8 2606.43,-113.8 2606.43,-149.8"/>
<text text-anchor="middle" x="2536" y="-127.6" font-family="Times,serif" font-size="14.00">LoadFilterComponent</text>
</g>
<!-- SideMenuLoadFilterComponentModule -->
<g id="node2" class="node">
<title>SideMenuLoadFilterComponentModule</title>
<polygon fill="#8dd3c7" stroke="black" points="2656.53,-214.8 2653.53,-218.8 2632.53,-218.8 2629.53,-214.8 2415.47,-214.8 2415.47,-178.8 2656.53,-178.8 2656.53,-214.8"/>
<text text-anchor="middle" x="2536" y="-192.6" font-family="Times,serif" font-size="14.00">SideMenuLoadFilterComponentModule</text>
</g>
<!-- LoadFilterComponent&#45;&gt;SideMenuLoadFilterComponentModule -->
<g id="edge1" class="edge">
<title>LoadFilterComponent&#45;&gt;SideMenuLoadFilterComponentModule</title>
<path fill="none" stroke="black" d="M2536,-149.91C2536,-149.91 2536,-168.79 2536,-168.79"/>
<polygon fill="black" stroke="black" points="2532.5,-168.79 2536,-178.79 2539.5,-168.79 2532.5,-168.79"/>
</g>
<!-- LoadFilterComponent  -->
<g id="node8" class="node">
<title>LoadFilterComponent </title>
<polygon fill="#fb8072" stroke="black" points="2607.93,-279.8 2464.07,-279.8 2464.07,-243.8 2607.93,-243.8 2607.93,-279.8"/>
<text text-anchor="middle" x="2536" y="-257.6" font-family="Times,serif" font-size="14.00">LoadFilterComponent </text>
</g>
<!-- SideMenuLoadFilterComponentModule&#45;&gt;LoadFilterComponent  -->
<g id="edge7" class="edge">
<title>SideMenuLoadFilterComponentModule&#45;&gt;LoadFilterComponent </title>
<path fill="none" stroke="black" stroke-dasharray="5,2" d="M2536,-214.91C2536,-214.91 2536,-233.79 2536,-233.79"/>
<polygon fill="black" stroke="black" points="2532.5,-233.79 2536,-243.79 2539.5,-233.79 2532.5,-233.79"/>
</g>
<!-- CaseViewService -->
<g id="node3" class="node">
<title>CaseViewService</title>
<ellipse fill="#fdb462" stroke="black" cx="3215" cy="-66.8" rx="79.85" ry="18"/>
<text text-anchor="middle" x="3215" y="-62.6" font-family="Times,serif" font-size="14.00">CaseViewService</text>
</g>
<!-- CaseViewService&#45;&gt;LoadFilterComponent -->
<g id="edge2" class="edge">
<title>CaseViewService&#45;&gt;LoadFilterComponent</title>
<path fill="none" stroke="black" d="M3215,-85.08C3215,-106.12 3215,-137.8 3215,-137.8 3215,-137.8 2616.43,-137.8 2616.43,-137.8"/>
<polygon fill="black" stroke="black" points="2616.43,-134.3 2606.43,-137.8 2616.43,-141.3 2616.43,-134.3"/>
</g>
<!-- SearchService -->
<g id="node4" class="node">
<title>SearchService</title>
<ellipse fill="#fdb462" stroke="black" cx="3051" cy="-66.8" rx="66.03" ry="18"/>
<text text-anchor="middle" x="3051" y="-62.6" font-family="Times,serif" font-size="14.00">SearchService</text>
</g>
<!-- SearchService&#45;&gt;LoadFilterComponent -->
<g id="edge3" class="edge">
<title>SearchService&#45;&gt;LoadFilterComponent</title>
<path fill="none" stroke="black" d="M3051,-84.82C3051,-102.17 3051,-125.8 3051,-125.8 3051,-125.8 2616.26,-125.8 2616.26,-125.8"/>
<polygon fill="black" stroke="black" points="2616.26,-122.3 2606.26,-125.8 2616.26,-129.3 2616.26,-122.3"/>
</g>
<!-- { provide: NAE_BASE_FILTER, useFactory: baseFilterFactory, deps: [NAE_SIDE_MENU_CONTROL] } -->
<g id="node5" class="node">
<title>{ provide: NAE_BASE_FILTER, useFactory: baseFilterFactory, deps: [NAE_SIDE_MENU_CONTROL] }</title>
<ellipse fill="#fdb462" stroke="black" cx="2536" cy="-66.8" rx="430.21" ry="18"/>
<text text-anchor="middle" x="2536" y="-62.6" font-family="Times,serif" font-size="14.00">{ provide: NAE_BASE_FILTER, useFactory: baseFilterFactory, deps: [NAE_SIDE_MENU_CONTROL] }</text>
</g>
<!-- { provide: NAE_BASE_FILTER, useFactory: baseFilterFactory, deps: [NAE_SIDE_MENU_CONTROL] }&#45;&gt;LoadFilterComponent -->
<g id="edge4" class="edge">
<title>{ provide: NAE_BASE_FILTER, useFactory: baseFilterFactory, deps: [NAE_SIDE_MENU_CONTROL] }&#45;&gt;LoadFilterComponent</title>
<path fill="none" stroke="black" d="M2536,-84.91C2536,-84.91 2536,-103.79 2536,-103.79"/>
<polygon fill="black" stroke="black" points="2532.5,-103.79 2536,-113.79 2539.5,-103.79 2532.5,-103.79"/>
</g>
<!-- { provide: AllowedNetsService, useFactory: localAllowedNetsFactory, deps: [AllowedNetsServiceFactory] } -->
<g id="node6" class="node">
<title>{ provide: AllowedNetsService, useFactory: localAllowedNetsFactory, deps: [AllowedNetsServiceFactory] }</title>
<ellipse fill="#fdb462" stroke="black" cx="1653" cy="-66.8" rx="434.71" ry="18"/>
<text text-anchor="middle" x="1653" y="-62.6" font-family="Times,serif" font-size="14.00">{ provide: AllowedNetsService, useFactory: localAllowedNetsFactory, deps: [AllowedNetsServiceFactory] }</text>
</g>
<!-- { provide: AllowedNetsService, useFactory: localAllowedNetsFactory, deps: [AllowedNetsServiceFactory] }&#45;&gt;LoadFilterComponent -->
<g id="edge5" class="edge">
<title>{ provide: AllowedNetsService, useFactory: localAllowedNetsFactory, deps: [AllowedNetsServiceFactory] }&#45;&gt;LoadFilterComponent</title>
<path fill="none" stroke="black" d="M1653,-84.82C1653,-102.17 1653,-125.8 1653,-125.8 1653,-125.8 2455.6,-125.8 2455.6,-125.8"/>
<polygon fill="black" stroke="black" points="2455.6,-129.3 2465.6,-125.8 2455.6,-122.3 2455.6,-129.3"/>
</g>
<!-- { provide: NAE_DEFAULT_HEADERS, useValue: [, UserFilterConstants.FILTER_NET_IDENTIFIERUserFilterConstants.FILTER_FIELD_ID] } -->
<g id="node7" class="node">
<title>{ provide: NAE_DEFAULT_HEADERS, useValue: [, UserFilterConstants.FILTER_NET_IDENTIFIERUserFilterConstants.FILTER_FIELD_ID] }</title>
<ellipse fill="#fdb462" stroke="black" cx="612" cy="-66.8" rx="588.13" ry="18"/>
<text text-anchor="middle" x="612" y="-62.6" font-family="Times,serif" font-size="14.00">{ provide: NAE_DEFAULT_HEADERS, useValue: [, UserFilterConstants.FILTER_NET_IDENTIFIERUserFilterConstants.FILTER_FIELD_ID] }</text>
</g>
<!-- { provide: NAE_DEFAULT_HEADERS, useValue: [, UserFilterConstants.FILTER_NET_IDENTIFIERUserFilterConstants.FILTER_FIELD_ID] }&#45;&gt;LoadFilterComponent -->
<g id="edge6" class="edge">
<title>{ provide: NAE_DEFAULT_HEADERS, useValue: [, UserFilterConstants.FILTER_NET_IDENTIFIERUserFilterConstants.FILTER_FIELD_ID] }&#45;&gt;LoadFilterComponent</title>
<path fill="none" stroke="black" d="M1200.45,-66.8C1206.23,-66.8 1209.35,-66.8 1209.35,-66.8 1209.35,-66.8 1209.35,-137.8 1209.35,-137.8 1209.35,-137.8 2455.61,-137.8 2455.61,-137.8"/>
<polygon fill="black" stroke="black" points="2455.61,-141.3 2465.61,-137.8 2455.61,-134.3 2455.61,-141.3"/>
</g>
</g>
</svg>
