<?xml version="1.0" encoding="UTF-8" standalone="no"?>
<!DOCTYPE svg PUBLIC "-//W3C//DTD SVG 1.1//EN"
 "http://www.w3.org/Graphics/SVG/1.1/DTD/svg11.dtd">
<!-- Generated by graphviz version 2.47.0 (20210316.0004)
 -->
<!-- Title: dependencies Pages: 1 -->
<svg width="3327pt" height="349pt"
 viewBox="0.00 0.00 3327.00 349.00" xmlns="http://www.w3.org/2000/svg" xmlns:xlink="http://www.w3.org/1999/xlink">
<g id="graph0" class="graph" transform="scale(1 1) rotate(0) translate(4 345)">
<title>dependencies</title>
<polygon fill="white" stroke="transparent" points="-4,4 -4,-345 3323,-345 3323,4 -4,4"/>
<text text-anchor="start" x="1638.51" y="-42.4" font-family="Times-12" font-weight="bold" font-size="14.00">Legend</text>
<polygon fill="#ffffb3" stroke="transparent" points="1425.5,-10 1425.5,-30 1445.5,-30 1445.5,-10 1425.5,-10"/>
<text text-anchor="start" x="1449.13" y="-15.4" font-family="Times-12" font-size="14.00"> &#160;Declarations</text>
<polygon fill="#8dd3c7" stroke="transparent" points="1538.5,-10 1538.5,-30 1558.5,-30 1558.5,-10 1538.5,-10"/>
<text text-anchor="start" x="1562.23" y="-15.4" font-family="Times-12" font-size="14.00"> &#160;Module</text>
<polygon fill="#80b1d3" stroke="transparent" points="1624.5,-10 1624.5,-30 1644.5,-30 1644.5,-10 1624.5,-10"/>
<text text-anchor="start" x="1648.28" y="-15.4" font-family="Times-12" font-size="14.00"> &#160;Bootstrap</text>
<polygon fill="#fdb462" stroke="transparent" points="1721.5,-10 1721.5,-30 1741.5,-30 1741.5,-10 1721.5,-10"/>
<text text-anchor="start" x="1745.17" y="-15.4" font-family="Times-12" font-size="14.00"> &#160;Providers</text>
<polygon fill="#fb8072" stroke="transparent" points="1817.5,-10 1817.5,-30 1837.5,-30 1837.5,-10 1817.5,-10"/>
<text text-anchor="start" x="1841.23" y="-15.4" font-family="Times-12" font-size="14.00"> &#160;Exports</text>
<g id="clust1" class="cluster">
<title>cluster_SideMenuLoadFilterComponentModule</title>
<polygon fill="none" stroke="black" stroke-dasharray="1,5" points="8,-70 8,-333 3311,-333 3311,-70 8,-70"/>
</g>
<g id="clust3" class="cluster">
<title>cluster_SideMenuLoadFilterComponentModule_LoadFilterComponent_providers</title>
<polygon fill="none" stroke="black" points="16,-78 16,-195 3303,-195 3303,-78 16,-78"/>
</g>
<g id="clust5" class="cluster">
<title>cluster_SideMenuLoadFilterComponentModule_exports</title>
<polygon fill="none" stroke="black" points="2456,-273 2456,-325 2616,-325 2616,-273 2456,-273"/>
</g>
<!-- LoadFilterComponent -->
<g id="node1" class="node">
<title>LoadFilterComponent</title>
<polygon fill="#ffffb3" stroke="black" points="2606.43,-187 2465.57,-187 2465.57,-151 2606.43,-151 2606.43,-187"/>
<text text-anchor="middle" x="2536" y="-164.8" font-family="Times,serif" font-size="14.00">LoadFilterComponent</text>
</g>
<!-- SideMenuLoadFilterComponentModule -->
<g id="node2" class="node">
<title>SideMenuLoadFilterComponentModule</title>
<polygon fill="#8dd3c7" stroke="black" points="2656.53,-252 2653.53,-256 2632.53,-256 2629.53,-252 2415.47,-252 2415.47,-216 2656.53,-216 2656.53,-252"/>
<text text-anchor="middle" x="2536" y="-229.8" font-family="Times,serif" font-size="14.00">SideMenuLoadFilterComponentModule</text>
</g>
<!-- LoadFilterComponent&#45;&gt;SideMenuLoadFilterComponentModule -->
<g id="edge1" class="edge">
<title>LoadFilterComponent&#45;&gt;SideMenuLoadFilterComponentModule</title>
<path fill="none" stroke="black" d="M2536,-187.11C2536,-187.11 2536,-205.99 2536,-205.99"/>
<polygon fill="black" stroke="black" points="2532.5,-205.99 2536,-215.99 2539.5,-205.99 2532.5,-205.99"/>
</g>
<!-- LoadFilterComponent  -->
<g id="node8" class="node">
<title>LoadFilterComponent </title>
<polygon fill="#fb8072" stroke="black" points="2607.93,-317 2464.07,-317 2464.07,-281 2607.93,-281 2607.93,-317"/>
<text text-anchor="middle" x="2536" y="-294.8" font-family="Times,serif" font-size="14.00">LoadFilterComponent </text>
</g>
<!-- SideMenuLoadFilterComponentModule&#45;&gt;LoadFilterComponent  -->
<g id="edge7" class="edge">
<title>SideMenuLoadFilterComponentModule&#45;&gt;LoadFilterComponent </title>
<path fill="none" stroke="black" stroke-dasharray="5,2" d="M2536,-252.11C2536,-252.11 2536,-270.99 2536,-270.99"/>
<polygon fill="black" stroke="black" points="2532.5,-270.99 2536,-280.99 2539.5,-270.99 2532.5,-270.99"/>
</g>
<!-- CaseViewService -->
<g id="node3" class="node">
<title>CaseViewService</title>
<ellipse fill="#fdb462" stroke="black" cx="3215" cy="-104" rx="79.85" ry="18"/>
<text text-anchor="middle" x="3215" y="-99.8" font-family="Times,serif" font-size="14.00">CaseViewService</text>
</g>
<!-- CaseViewService&#45;&gt;LoadFilterComponent -->
<g id="edge2" class="edge">
<title>CaseViewService&#45;&gt;LoadFilterComponent</title>
<path fill="none" stroke="black" d="M3215,-122.28C3215,-143.32 3215,-175 3215,-175 3215,-175 2616.43,-175 2616.43,-175"/>
<polygon fill="black" stroke="black" points="2616.43,-171.5 2606.43,-175 2616.43,-178.5 2616.43,-171.5"/>
</g>
<!-- SearchService -->
<g id="node4" class="node">
<title>SearchService</title>
<ellipse fill="#fdb462" stroke="black" cx="3051" cy="-104" rx="66.03" ry="18"/>
<text text-anchor="middle" x="3051" y="-99.8" font-family="Times,serif" font-size="14.00">SearchService</text>
</g>
<!-- SearchService&#45;&gt;LoadFilterComponent -->
<g id="edge3" class="edge">
<title>SearchService&#45;&gt;LoadFilterComponent</title>
<path fill="none" stroke="black" d="M3051,-122.02C3051,-139.37 3051,-163 3051,-163 3051,-163 2616.26,-163 2616.26,-163"/>
<polygon fill="black" stroke="black" points="2616.26,-159.5 2606.26,-163 2616.26,-166.5 2616.26,-159.5"/>
</g>
<!-- { provide: NAE_BASE_FILTER, useFactory: baseFilterFactory, deps: [NAE_SIDE_MENU_CONTROL] } -->
<g id="node5" class="node">
<title>{ provide: NAE_BASE_FILTER, useFactory: baseFilterFactory, deps: [NAE_SIDE_MENU_CONTROL] }</title>
<ellipse fill="#fdb462" stroke="black" cx="2536" cy="-104" rx="430.21" ry="18"/>
<text text-anchor="middle" x="2536" y="-99.8" font-family="Times,serif" font-size="14.00">{ provide: NAE_BASE_FILTER, useFactory: baseFilterFactory, deps: [NAE_SIDE_MENU_CONTROL] }</text>
</g>
<!-- { provide: NAE_BASE_FILTER, useFactory: baseFilterFactory, deps: [NAE_SIDE_MENU_CONTROL] }&#45;&gt;LoadFilterComponent -->
<g id="edge4" class="edge">
<title>{ provide: NAE_BASE_FILTER, useFactory: baseFilterFactory, deps: [NAE_SIDE_MENU_CONTROL] }&#45;&gt;LoadFilterComponent</title>
<path fill="none" stroke="black" d="M2536,-122.11C2536,-122.11 2536,-140.99 2536,-140.99"/>
<polygon fill="black" stroke="black" points="2532.5,-140.99 2536,-150.99 2539.5,-140.99 2532.5,-140.99"/>
</g>
<!-- { provide: AllowedNetsService, useFactory: localAllowedNetsFactory, deps: [AllowedNetsServiceFactory] } -->
<g id="node6" class="node">
<title>{ provide: AllowedNetsService, useFactory: localAllowedNetsFactory, deps: [AllowedNetsServiceFactory] }</title>
<ellipse fill="#fdb462" stroke="black" cx="1653" cy="-104" rx="434.71" ry="18"/>
<text text-anchor="middle" x="1653" y="-99.8" font-family="Times,serif" font-size="14.00">{ provide: AllowedNetsService, useFactory: localAllowedNetsFactory, deps: [AllowedNetsServiceFactory] }</text>
</g>
<!-- { provide: AllowedNetsService, useFactory: localAllowedNetsFactory, deps: [AllowedNetsServiceFactory] }&#45;&gt;LoadFilterComponent -->
<g id="edge5" class="edge">
<title>{ provide: AllowedNetsService, useFactory: localAllowedNetsFactory, deps: [AllowedNetsServiceFactory] }&#45;&gt;LoadFilterComponent</title>
<path fill="none" stroke="black" d="M1653,-122.02C1653,-139.37 1653,-163 1653,-163 1653,-163 2455.6,-163 2455.6,-163"/>
<polygon fill="black" stroke="black" points="2455.6,-166.5 2465.6,-163 2455.6,-159.5 2455.6,-166.5"/>
</g>
<!-- { provide: NAE_DEFAULT_HEADERS, useValue: [, UserFilterConstants.FILTER_NET_IDENTIFIERUserFilterConstants.FILTER_FIELD_ID] } -->
<g id="node7" class="node">
<title>{ provide: NAE_DEFAULT_HEADERS, useValue: [, UserFilterConstants.FILTER_NET_IDENTIFIERUserFilterConstants.FILTER_FIELD_ID] }</title>
<ellipse fill="#fdb462" stroke="black" cx="612" cy="-104" rx="588.13" ry="18"/>
<text text-anchor="middle" x="612" y="-99.8" font-family="Times,serif" font-size="14.00">{ provide: NAE_DEFAULT_HEADERS, useValue: [, UserFilterConstants.FILTER_NET_IDENTIFIERUserFilterConstants.FILTER_FIELD_ID] }</text>
</g>
<!-- { provide: NAE_DEFAULT_HEADERS, useValue: [, UserFilterConstants.FILTER_NET_IDENTIFIERUserFilterConstants.FILTER_FIELD_ID] }&#45;&gt;LoadFilterComponent -->
<g id="edge6" class="edge">
<title>{ provide: NAE_DEFAULT_HEADERS, useValue: [, UserFilterConstants.FILTER_NET_IDENTIFIERUserFilterConstants.FILTER_FIELD_ID] }&#45;&gt;LoadFilterComponent</title>
<path fill="none" stroke="black" d="M1200.45,-104C1206.23,-104 1209.35,-104 1209.35,-104 1209.35,-104 1209.35,-175 1209.35,-175 1209.35,-175 2455.61,-175 2455.61,-175"/>
<polygon fill="black" stroke="black" points="2455.61,-178.5 2465.61,-175 2455.61,-171.5 2455.61,-178.5"/>
</g>
</g>
</svg>
