<?xml version="1.0" encoding="UTF-8" standalone="no"?>
<!DOCTYPE svg PUBLIC "-//W3C//DTD SVG 1.1//EN"
 "http://www.w3.org/Graphics/SVG/1.1/DTD/svg11.dtd">
<!-- Generated by graphviz version 2.47.0 (20210316.0004)
 -->
<!-- Title: dependencies Pages: 1 -->
<svg width="2133pt" height="349pt"
 viewBox="0.00 0.00 2133.00 349.00" xmlns="http://www.w3.org/2000/svg" xmlns:xlink="http://www.w3.org/1999/xlink">
<g id="graph0" class="graph" transform="scale(1 1) rotate(0) translate(4 345)">
<title>dependencies</title>
<polygon fill="white" stroke="transparent" points="-4,4 -4,-345 2129,-345 2129,4 -4,4"/>
<text text-anchor="start" x="1041.51" y="-42.4" font-family="Times-12" font-weight="bold" font-size="14.00">Legend</text>
<polygon fill="#ffffb3" stroke="transparent" points="828.5,-10 828.5,-30 848.5,-30 848.5,-10 828.5,-10"/>
<text text-anchor="start" x="852.13" y="-15.4" font-family="Times-12" font-size="14.00"> &#160;Declarations</text>
<polygon fill="#8dd3c7" stroke="transparent" points="941.5,-10 941.5,-30 961.5,-30 961.5,-10 941.5,-10"/>
<text text-anchor="start" x="965.23" y="-15.4" font-family="Times-12" font-size="14.00"> &#160;Module</text>
<polygon fill="#80b1d3" stroke="transparent" points="1027.5,-10 1027.5,-30 1047.5,-30 1047.5,-10 1027.5,-10"/>
<text text-anchor="start" x="1051.28" y="-15.4" font-family="Times-12" font-size="14.00"> &#160;Bootstrap</text>
<polygon fill="#fdb462" stroke="transparent" points="1124.5,-10 1124.5,-30 1144.5,-30 1144.5,-10 1124.5,-10"/>
<text text-anchor="start" x="1148.17" y="-15.4" font-family="Times-12" font-size="14.00"> &#160;Providers</text>
<polygon fill="#fb8072" stroke="transparent" points="1220.5,-10 1220.5,-30 1240.5,-30 1240.5,-10 1220.5,-10"/>
<text text-anchor="start" x="1244.23" y="-15.4" font-family="Times-12" font-size="14.00"> &#160;Exports</text>
<g id="clust1" class="cluster">
<title>cluster_SideMenuSaveFilterComponentModule</title>
<polygon fill="none" stroke="black" stroke-dasharray="1,5" points="8,-70 8,-333 2117,-333 2117,-70 8,-70"/>
</g>
<g id="clust2" class="cluster">
<title>cluster_SideMenuSaveFilterComponentModule_declarations</title>
<polygon fill="none" stroke="black" points="1522,-143 1522,-195 1676,-195 1676,-143 1522,-143"/>
</g>
<g id="clust3" class="cluster">
<title>cluster_SideMenuSaveFilterComponentModule_SaveFilterComponent_providers</title>
<polygon fill="none" stroke="black" points="16,-78 16,-130 2109,-130 2109,-78 16,-78"/>
</g>
<g id="clust5" class="cluster">
<title>cluster_SideMenuSaveFilterComponentModule_exports</title>
<polygon fill="none" stroke="black" points="1520,-273 1520,-325 1678,-325 1678,-273 1520,-273"/>
</g>
<!-- SaveFilterComponent -->
<g id="node1" class="node">
<title>SaveFilterComponent</title>
<polygon fill="#ffffb3" stroke="black" points="1668.37,-187 1529.63,-187 1529.63,-151 1668.37,-151 1668.37,-187"/>
<text text-anchor="middle" x="1599" y="-164.8" font-family="Times,serif" font-size="14.00">SaveFilterComponent</text>
</g>
<!-- SideMenuSaveFilterComponentModule -->
<g id="node2" class="node">
<title>SideMenuSaveFilterComponentModule</title>
<polygon fill="#8dd3c7" stroke="black" points="1718.97,-252 1715.97,-256 1694.97,-256 1691.97,-252 1479.03,-252 1479.03,-216 1718.97,-216 1718.97,-252"/>
<text text-anchor="middle" x="1599" y="-229.8" font-family="Times,serif" font-size="14.00">SideMenuSaveFilterComponentModule</text>
</g>
<!-- SaveFilterComponent&#45;&gt;SideMenuSaveFilterComponentModule -->
<g id="edge1" class="edge">
<title>SaveFilterComponent&#45;&gt;SideMenuSaveFilterComponentModule</title>
<path fill="none" stroke="black" d="M1599,-187.11C1599,-187.11 1599,-205.99 1599,-205.99"/>
<polygon fill="black" stroke="black" points="1595.5,-205.99 1599,-215.99 1602.5,-205.99 1595.5,-205.99"/>
</g>
<!-- SaveFilterComponent  -->
<g id="node7" class="node">
<title>SaveFilterComponent </title>
<polygon fill="#fb8072" stroke="black" points="1670.37,-317 1527.63,-317 1527.63,-281 1670.37,-281 1670.37,-317"/>
<text text-anchor="middle" x="1599" y="-294.8" font-family="Times,serif" font-size="14.00">SaveFilterComponent </text>
</g>
<!-- SideMenuSaveFilterComponentModule&#45;&gt;SaveFilterComponent  -->
<g id="edge6" class="edge">
<title>SideMenuSaveFilterComponentModule&#45;&gt;SaveFilterComponent </title>
<path fill="none" stroke="black" stroke-dasharray="5,2" d="M1599,-252.11C1599,-252.11 1599,-270.99 1599,-270.99"/>
<polygon fill="black" stroke="black" points="1595.5,-270.99 1599,-280.99 1602.5,-270.99 1595.5,-270.99"/>
</g>
<!-- TaskViewService -->
<g id="node3" class="node">
<title>TaskViewService</title>
<ellipse fill="#fdb462" stroke="black" cx="2021" cy="-104" rx="79.85" ry="18"/>
<text text-anchor="middle" x="2021" y="-99.8" font-family="Times,serif" font-size="14.00">TaskViewService</text>
</g>
<!-- TaskViewService&#45;&gt;SaveFilterComponent -->
<g id="edge2" class="edge">
<title>TaskViewService&#45;&gt;SaveFilterComponent</title>
<path fill="none" stroke="black" d="M2021,-122.28C2021,-143.32 2021,-175 2021,-175 2021,-175 1678.68,-175 1678.68,-175"/>
<polygon fill="black" stroke="black" points="1678.68,-171.5 1668.68,-175 1678.68,-178.5 1678.68,-171.5"/>
</g>
<!-- SearchService -->
<g id="node4" class="node">
<title>SearchService</title>
<ellipse fill="#fdb462" stroke="black" cx="1857" cy="-104" rx="66.03" ry="18"/>
<text text-anchor="middle" x="1857" y="-99.8" font-family="Times,serif" font-size="14.00">SearchService</text>
</g>
<!-- SearchService&#45;&gt;SaveFilterComponent -->
<g id="edge3" class="edge">
<title>SearchService&#45;&gt;SaveFilterComponent</title>
<path fill="none" stroke="black" d="M1857,-122.02C1857,-139.37 1857,-163 1857,-163 1857,-163 1678.48,-163 1678.48,-163"/>
<polygon fill="black" stroke="black" points="1678.48,-159.5 1668.48,-163 1678.48,-166.5 1678.48,-159.5"/>
</g>
<!-- { provide: NAE_BASE_FILTER, useFactory: baseFilterFactory, deps: [NAE_SIDE_MENU_CONTROL] } -->
<g id="node5" class="node">
<title>{ provide: NAE_BASE_FILTER, useFactory: baseFilterFactory, deps: [NAE_SIDE_MENU_CONTROL] }</title>
<ellipse fill="#fdb462" stroke="black" cx="1342" cy="-104" rx="430.21" ry="18"/>
<text text-anchor="middle" x="1342" y="-99.8" font-family="Times,serif" font-size="14.00">{ provide: NAE_BASE_FILTER, useFactory: baseFilterFactory, deps: [NAE_SIDE_MENU_CONTROL] }</text>
</g>
<!-- { provide: NAE_BASE_FILTER, useFactory: baseFilterFactory, deps: [NAE_SIDE_MENU_CONTROL] }&#45;&gt;SaveFilterComponent -->
<g id="edge4" class="edge">
<title>{ provide: NAE_BASE_FILTER, useFactory: baseFilterFactory, deps: [NAE_SIDE_MENU_CONTROL] }&#45;&gt;SaveFilterComponent</title>
<path fill="none" stroke="black" d="M1599,-118.75C1599,-118.75 1599,-140.59 1599,-140.59"/>
<polygon fill="black" stroke="black" points="1595.5,-140.59 1599,-150.59 1602.5,-140.59 1595.5,-140.59"/>
</g>
<!-- { provide: AllowedNetsService, useFactory: localAllowedNetsFactory, deps: [AllowedNetsServiceFactory] } -->
<g id="node6" class="node">
<title>{ provide: AllowedNetsService, useFactory: localAllowedNetsFactory, deps: [AllowedNetsServiceFactory] }</title>
<ellipse fill="#fdb462" stroke="black" cx="459" cy="-104" rx="434.71" ry="18"/>
<text text-anchor="middle" x="459" y="-99.8" font-family="Times,serif" font-size="14.00">{ provide: AllowedNetsService, useFactory: localAllowedNetsFactory, deps: [AllowedNetsServiceFactory] }</text>
</g>
<!-- { provide: AllowedNetsService, useFactory: localAllowedNetsFactory, deps: [AllowedNetsServiceFactory] }&#45;&gt;SaveFilterComponent -->
<g id="edge5" class="edge">
<title>{ provide: AllowedNetsService, useFactory: localAllowedNetsFactory, deps: [AllowedNetsServiceFactory] }&#45;&gt;SaveFilterComponent</title>
<path fill="none" stroke="black" d="M459,-122.11C459,-141.34 459,-169 459,-169 459,-169 1519.4,-169 1519.4,-169"/>
<polygon fill="black" stroke="black" points="1519.4,-172.5 1529.4,-169 1519.4,-165.5 1519.4,-172.5"/>
</g>
</g>
</svg>
