<?xml version="1.0" encoding="UTF-8" standalone="no"?>
<!DOCTYPE svg PUBLIC "-//W3C//DTD SVG 1.1//EN"
 "http://www.w3.org/Graphics/SVG/1.1/DTD/svg11.dtd">
<!-- Generated by graphviz version 3.0.0 (20220226.1711)
 -->
<!-- Title: dependencies Pages: 1 -->
<svg width="2133pt" height="312pt"
 viewBox="0.00 0.00 2133.00 311.80" xmlns="http://www.w3.org/2000/svg" xmlns:xlink="http://www.w3.org/1999/xlink">
<g id="graph0" class="graph" transform="scale(1 1) rotate(0) translate(4 307.8)">
<title>dependencies</title>
<polygon fill="white" stroke="transparent" points="-4,4 -4,-307.8 2129,-307.8 2129,4 -4,4"/>
<text text-anchor="middle" x="1062.5" y="-8.2" font-family="sans-serif" font-size="14.00">dependencies</text>
<g id="clust1" class="cluster">
<title>cluster_SideMenuSaveFilterComponentModule</title>
<polygon fill="none" stroke="black" stroke-dasharray="1,5" points="8,-32.8 8,-295.8 2117,-295.8 2117,-32.8 8,-32.8"/>
</g>
<g id="clust2" class="cluster">
<title>cluster_SideMenuSaveFilterComponentModule_declarations</title>
<polygon fill="none" stroke="black" points="1522,-105.8 1522,-157.8 1676,-157.8 1676,-105.8 1522,-105.8"/>
</g>
<g id="clust3" class="cluster">
<title>cluster_SideMenuSaveFilterComponentModule_SaveFilterComponent_providers</title>
<polygon fill="none" stroke="black" points="16,-40.8 16,-92.8 2109,-92.8 2109,-40.8 16,-40.8"/>
</g>
<g id="clust5" class="cluster">
<title>cluster_SideMenuSaveFilterComponentModule_exports</title>
<polygon fill="none" stroke="black" points="1520,-235.8 1520,-287.8 1678,-287.8 1678,-235.8 1520,-235.8"/>
</g>
<!-- SaveFilterComponent -->
<g id="node1" class="node">
<title>SaveFilterComponent</title>
<polygon fill="#ffffb3" stroke="black" points="1668.38,-149.8 1529.62,-149.8 1529.62,-113.8 1668.38,-113.8 1668.38,-149.8"/>
<text text-anchor="middle" x="1599" y="-127.6" font-family="Times,serif" font-size="14.00">SaveFilterComponent</text>
</g>
<!-- SideMenuSaveFilterComponentModule -->
<g id="node2" class="node">
<title>SideMenuSaveFilterComponentModule</title>
<polygon fill="#8dd3c7" stroke="black" points="1718.98,-214.8 1715.98,-218.8 1694.98,-218.8 1691.98,-214.8 1479.02,-214.8 1479.02,-178.8 1718.98,-178.8 1718.98,-214.8"/>
<text text-anchor="middle" x="1599" y="-192.6" font-family="Times,serif" font-size="14.00">SideMenuSaveFilterComponentModule</text>
</g>
<!-- SaveFilterComponent&#45;&gt;SideMenuSaveFilterComponentModule -->
<g id="edge1" class="edge">
<title>SaveFilterComponent&#45;&gt;SideMenuSaveFilterComponentModule</title>
<path fill="none" stroke="black" d="M1599,-149.91C1599,-149.91 1599,-168.79 1599,-168.79"/>
<polygon fill="black" stroke="black" points="1595.5,-168.79 1599,-178.79 1602.5,-168.79 1595.5,-168.79"/>
</g>
<!-- SaveFilterComponent  -->
<g id="node7" class="node">
<title>SaveFilterComponent </title>
<polygon fill="#fb8072" stroke="black" points="1670.38,-279.8 1527.62,-279.8 1527.62,-243.8 1670.38,-243.8 1670.38,-279.8"/>
<text text-anchor="middle" x="1599" y="-257.6" font-family="Times,serif" font-size="14.00">SaveFilterComponent </text>
</g>
<!-- SideMenuSaveFilterComponentModule&#45;&gt;SaveFilterComponent  -->
<g id="edge6" class="edge">
<title>SideMenuSaveFilterComponentModule&#45;&gt;SaveFilterComponent </title>
<path fill="none" stroke="black" stroke-dasharray="5,2" d="M1599,-214.91C1599,-214.91 1599,-233.79 1599,-233.79"/>
<polygon fill="black" stroke="black" points="1595.5,-233.79 1599,-243.79 1602.5,-233.79 1595.5,-233.79"/>
</g>
<!-- TaskViewService -->
<g id="node3" class="node">
<title>TaskViewService</title>
<ellipse fill="#fdb462" stroke="black" cx="2021" cy="-66.8" rx="79.86" ry="18"/>
<text text-anchor="middle" x="2021" y="-62.6" font-family="Times,serif" font-size="14.00">TaskViewService</text>
</g>
<!-- TaskViewService&#45;&gt;SaveFilterComponent -->
<g id="edge2" class="edge">
<title>TaskViewService&#45;&gt;SaveFilterComponent</title>
<path fill="none" stroke="black" d="M2021,-85.08C2021,-106.12 2021,-137.8 2021,-137.8 2021,-137.8 1678.68,-137.8 1678.68,-137.8"/>
<polygon fill="black" stroke="black" points="1678.68,-134.3 1668.68,-137.8 1678.68,-141.3 1678.68,-134.3"/>
</g>
<!-- SearchService -->
<g id="node4" class="node">
<title>SearchService</title>
<ellipse fill="#fdb462" stroke="black" cx="1857" cy="-66.8" rx="66.03" ry="18"/>
<text text-anchor="middle" x="1857" y="-62.6" font-family="Times,serif" font-size="14.00">SearchService</text>
</g>
<!-- SearchService&#45;&gt;SaveFilterComponent -->
<g id="edge3" class="edge">
<title>SearchService&#45;&gt;SaveFilterComponent</title>
<path fill="none" stroke="black" d="M1857,-84.82C1857,-102.17 1857,-125.8 1857,-125.8 1857,-125.8 1678.48,-125.8 1678.48,-125.8"/>
<polygon fill="black" stroke="black" points="1678.48,-122.3 1668.48,-125.8 1678.48,-129.3 1678.48,-122.3"/>
</g>
<!-- { provide: NAE_BASE_FILTER, useFactory: baseFilterFactory, deps: [NAE_SIDE_MENU_CONTROL] } -->
<g id="node5" class="node">
<title>{ provide: NAE_BASE_FILTER, useFactory: baseFilterFactory, deps: [NAE_SIDE_MENU_CONTROL] }</title>
<ellipse fill="#fdb462" stroke="black" cx="1342" cy="-66.8" rx="430.31" ry="18"/>
<text text-anchor="middle" x="1342" y="-62.6" font-family="Times,serif" font-size="14.00">{ provide: NAE_BASE_FILTER, useFactory: baseFilterFactory, deps: [NAE_SIDE_MENU_CONTROL] }</text>
</g>
<!-- { provide: NAE_BASE_FILTER, useFactory: baseFilterFactory, deps: [NAE_SIDE_MENU_CONTROL] }&#45;&gt;SaveFilterComponent -->
<g id="edge4" class="edge">
<title>{ provide: NAE_BASE_FILTER, useFactory: baseFilterFactory, deps: [NAE_SIDE_MENU_CONTROL] }&#45;&gt;SaveFilterComponent</title>
<path fill="none" stroke="black" d="M1599,-81.55C1599,-81.55 1599,-103.39 1599,-103.39"/>
<polygon fill="black" stroke="black" points="1595.5,-103.39 1599,-113.39 1602.5,-103.39 1595.5,-103.39"/>
</g>
<!-- { provide: AllowedNetsService, useFactory: localAllowedNetsFactory, deps: [AllowedNetsServiceFactory] } -->
<g id="node6" class="node">
<title>{ provide: AllowedNetsService, useFactory: localAllowedNetsFactory, deps: [AllowedNetsServiceFactory] }</title>
<ellipse fill="#fdb462" stroke="black" cx="459" cy="-66.8" rx="434.78" ry="18"/>
<text text-anchor="middle" x="459" y="-62.6" font-family="Times,serif" font-size="14.00">{ provide: AllowedNetsService, useFactory: localAllowedNetsFactory, deps: [AllowedNetsServiceFactory] }</text>
</g>
<!-- { provide: AllowedNetsService, useFactory: localAllowedNetsFactory, deps: [AllowedNetsServiceFactory] }&#45;&gt;SaveFilterComponent -->
<g id="edge5" class="edge">
<title>{ provide: AllowedNetsService, useFactory: localAllowedNetsFactory, deps: [AllowedNetsServiceFactory] }&#45;&gt;SaveFilterComponent</title>
<path fill="none" stroke="black" d="M459,-84.91C459,-104.14 459,-131.8 459,-131.8 459,-131.8 1519.4,-131.8 1519.4,-131.8"/>
<polygon fill="black" stroke="black" points="1519.4,-135.3 1529.4,-131.8 1519.4,-128.3 1519.4,-135.3"/>
</g>
</g>
</svg>
