<?xml version="1.0" encoding="UTF-8" standalone="no"?>
<!DOCTYPE svg PUBLIC "-//W3C//DTD SVG 1.1//EN"
 "http://www.w3.org/Graphics/SVG/1.1/DTD/svg11.dtd">
<!-- Generated by graphviz version 2.40.1 (20161225.0304)
 -->
<!-- Title: dependencies Pages: 1 -->
<svg width="756pt" height="284pt"
 viewBox="0.00 0.00 756.00 284.00" xmlns="http://www.w3.org/2000/svg" xmlns:xlink="http://www.w3.org/1999/xlink">
<g id="graph0" class="graph" transform="scale(1 1) rotate(0) translate(4 280)">
<title>dependencies</title>
<polygon fill="#ffffff" stroke="transparent" points="-4,4 -4,-280 752,-280 752,4 -4,4"/>
<text text-anchor="start" x="353.0091" y="-42.4" font-family="sans-serif" font-weight="bold" font-size="14.00" fill="#000000">Legend</text>
<polygon fill="#ffffb3" stroke="transparent" points="140,-10 140,-30 160,-30 160,-10 140,-10"/>
<text text-anchor="start" x="163.629" y="-15.4" font-family="sans-serif" font-size="14.00" fill="#000000"> &#160;Declarations</text>
<polygon fill="#8dd3c7" stroke="transparent" points="253,-10 253,-30 273,-30 273,-10 253,-10"/>
<text text-anchor="start" x="276.7251" y="-15.4" font-family="sans-serif" font-size="14.00" fill="#000000"> &#160;Module</text>
<polygon fill="#80b1d3" stroke="transparent" points="339,-10 339,-30 359,-30 359,-10 339,-10"/>
<text text-anchor="start" x="362.7812" y="-15.4" font-family="sans-serif" font-size="14.00" fill="#000000"> &#160;Bootstrap</text>
<polygon fill="#fdb462" stroke="transparent" points="436,-10 436,-30 456,-30 456,-10 436,-10"/>
<text text-anchor="start" x="459.6732" y="-15.4" font-family="sans-serif" font-size="14.00" fill="#000000"> &#160;Providers</text>
<polygon fill="#fb8072" stroke="transparent" points="532,-10 532,-30 552,-30 552,-10 532,-10"/>
<text text-anchor="start" x="555.7258" y="-15.4" font-family="sans-serif" font-size="14.00" fill="#000000"> &#160;Exports</text>
<g id="clust1" class="cluster">
<title>cluster_CardModule</title>
<polygon fill="none" stroke="#000000" stroke-dasharray="1,5" points="8,-70 8,-268 740,-268 740,-70 8,-70"/>
</g>
<g id="clust2" class="cluster">
<title>cluster_CardModule_declarations</title>
<polygon fill="none" stroke="#000000" points="146,-78 146,-130 732,-130 732,-78 146,-78"/>
</g>
<g id="clust6" class="cluster">
<title>cluster_CardModule_imports</title>
<polygon fill="none" stroke="#000000" points="16,-78 16,-130 138,-130 138,-78 16,-78"/>
</g>
<g id="clust7" class="cluster">
<title>cluster_CardModule_exports</title>
<polygon fill="none" stroke="#000000" points="75,-208 75,-260 673,-260 673,-208 75,-208"/>
</g>
<!-- ForgottenPasswordCardComponent -->
<g id="node1" class="node">
<title>ForgottenPasswordCardComponent</title>
<polygon fill="#ffffb3" stroke="#000000" points="724.1371,-122 507.8629,-122 507.8629,-86 724.1371,-86 724.1371,-122"/>
<text text-anchor="middle" x="616" y="-99.8" font-family="Times,serif" font-size="14.00" fill="#000000">ForgottenPasswordCardComponent</text>
</g>
<!-- CardModule -->
<g id="node4" class="node">
<title>CardModule</title>
<polygon fill="#8dd3c7" stroke="#000000" points="397.2619,-187 394.2619,-191 373.2619,-191 370.2619,-187 310.7381,-187 310.7381,-151 397.2619,-151 397.2619,-187"/>
<text text-anchor="middle" x="354" y="-164.8" font-family="Times,serif" font-size="14.00" fill="#000000">CardModule</text>
</g>
<!-- ForgottenPasswordCardComponent&#45;&gt;CardModule -->
<g id="edge1" class="edge">
<title>ForgottenPasswordCardComponent&#45;&gt;CardModule</title>
<path fill="none" stroke="#000000" d="M586.375,-122.0225C586.375,-139.3734 586.375,-163 586.375,-163 586.375,-163 407.4354,-163 407.4354,-163"/>
<polygon fill="#000000" stroke="#000000" points="407.4354,-159.5001 397.4354,-163 407.4353,-166.5001 407.4354,-159.5001"/>
</g>
<!-- LoginCardComponent -->
<g id="node2" class="node">
<title>LoginCardComponent</title>
<polygon fill="#ffffb3" stroke="#000000" points="489.9874,-122 348.0126,-122 348.0126,-86 489.9874,-86 489.9874,-122"/>
<text text-anchor="middle" x="419" y="-99.8" font-family="Times,serif" font-size="14.00" fill="#000000">LoginCardComponent</text>
</g>
<!-- LoginCardComponent&#45;&gt;CardModule -->
<g id="edge2" class="edge">
<title>LoginCardComponent&#45;&gt;CardModule</title>
<path fill="none" stroke="#000000" d="M372.6936,-122.1061C372.6936,-122.1061 372.6936,-140.991 372.6936,-140.991"/>
<polygon fill="#000000" stroke="#000000" points="369.1936,-140.9909 372.6936,-150.991 376.1936,-140.991 369.1936,-140.9909"/>
</g>
<!-- RegistrationCardComponent -->
<g id="node3" class="node">
<title>RegistrationCardComponent</title>
<polygon fill="#ffffb3" stroke="#000000" points="330.4776,-122 153.5224,-122 153.5224,-86 330.4776,-86 330.4776,-122"/>
<text text-anchor="middle" x="242" y="-99.8" font-family="Times,serif" font-size="14.00" fill="#000000">RegistrationCardComponent</text>
</g>
<!-- RegistrationCardComponent&#45;&gt;CardModule -->
<g id="edge3" class="edge">
<title>RegistrationCardComponent&#45;&gt;CardModule</title>
<path fill="none" stroke="#000000" d="M320.554,-122.1061C320.554,-122.1061 320.554,-140.991 320.554,-140.991"/>
<polygon fill="#000000" stroke="#000000" points="317.0541,-140.9909 320.554,-150.991 324.0541,-140.991 317.0541,-140.9909"/>
</g>
<!-- ForgottenPasswordCardComponent  -->
<g id="node6" class="node">
<title>ForgottenPasswordCardComponent </title>
<polygon fill="#fb8072" stroke="#000000" points="665.1368,-252 444.8632,-252 444.8632,-216 665.1368,-216 665.1368,-252"/>
<text text-anchor="middle" x="555" y="-229.8" font-family="Times,serif" font-size="14.00" fill="#000000">ForgottenPasswordCardComponent </text>
</g>
<!-- CardModule&#45;&gt;ForgottenPasswordCardComponent  -->
<g id="edge5" class="edge">
<title>CardModule&#45;&gt;ForgottenPasswordCardComponent </title>
<path fill="none" stroke="#000000" stroke-dasharray="5,2" d="M397.5431,-175C429.5402,-175 467.4627,-175 467.4627,-175 467.4627,-175 467.4627,-205.9775 467.4627,-205.9775"/>
<polygon fill="#000000" stroke="#000000" points="463.9627,-205.9774 467.4627,-215.9775 470.9627,-205.9775 463.9627,-205.9774"/>
</g>
<!-- LoginCardComponent  -->
<g id="node7" class="node">
<title>LoginCardComponent </title>
<polygon fill="#fb8072" stroke="#000000" points="426.9882,-252 281.0118,-252 281.0118,-216 426.9882,-216 426.9882,-252"/>
<text text-anchor="middle" x="354" y="-229.8" font-family="Times,serif" font-size="14.00" fill="#000000">LoginCardComponent </text>
</g>
<!-- CardModule&#45;&gt;LoginCardComponent  -->
<g id="edge6" class="edge">
<title>CardModule&#45;&gt;LoginCardComponent </title>
<path fill="none" stroke="#000000" stroke-dasharray="5,2" d="M354,-187.1061C354,-187.1061 354,-205.991 354,-205.991"/>
<polygon fill="#000000" stroke="#000000" points="350.5001,-205.9909 354,-215.991 357.5001,-205.991 350.5001,-205.9909"/>
</g>
<!-- RegistrationCardComponent  -->
<g id="node8" class="node">
<title>RegistrationCardComponent </title>
<polygon fill="#fb8072" stroke="#000000" points="263.4782,-252 82.5218,-252 82.5218,-216 263.4782,-216 263.4782,-252"/>
<text text-anchor="middle" x="173" y="-229.8" font-family="Times,serif" font-size="14.00" fill="#000000">RegistrationCardComponent </text>
</g>
<!-- CardModule&#45;&gt;RegistrationCardComponent  -->
<g id="edge7" class="edge">
<title>CardModule&#45;&gt;RegistrationCardComponent </title>
<path fill="none" stroke="#000000" stroke-dasharray="5,2" d="M310.702,-175C267.7757,-175 208.375,-175 208.375,-175 208.375,-175 208.375,-205.9775 208.375,-205.9775"/>
<polygon fill="#000000" stroke="#000000" points="204.8751,-205.9774 208.375,-215.9775 211.8751,-205.9775 204.8751,-205.9774"/>
</g>
<!-- MaterialModule -->
<g id="node5" class="node">
<title>MaterialModule</title>
<polygon fill="#8dd3c7" stroke="#000000" points="130.4706,-122 127.4706,-126 106.4706,-126 103.4706,-122 23.5294,-122 23.5294,-86 130.4706,-86 130.4706,-122"/>
<text text-anchor="middle" x="77" y="-99.8" font-family="Times,serif" font-size="14.00" fill="#000000">MaterialModule</text>
</g>
<!-- MaterialModule&#45;&gt;CardModule -->
<g id="edge4" class="edge">
<title>MaterialModule&#45;&gt;CardModule</title>
<path fill="none" stroke="#000000" d="M106.6233,-122.0225C106.6233,-139.3734 106.6233,-163 106.6232,-163 106.6232,-163 300.6272,-163 300.6272,-163"/>
<polygon fill="#000000" stroke="#000000" points="300.6272,-166.5001 310.6272,-163 300.6271,-159.5001 300.6272,-166.5001"/>
</g>
</g>
</svg>
