<?xml version="1.0" encoding="UTF-8" standalone="no"?>
<!DOCTYPE svg PUBLIC "-//W3C//DTD SVG 1.1//EN"
 "http://www.w3.org/Graphics/SVG/1.1/DTD/svg11.dtd">
<!-- Generated by graphviz version 2.47.3 (20210619.1520)
 -->
<!-- Title: dependencies Pages: 1 -->
<svg width="212pt" height="247pt"
 viewBox="0.00 0.00 212.00 246.80" xmlns="http://www.w3.org/2000/svg" xmlns:xlink="http://www.w3.org/1999/xlink">
<g id="graph0" class="graph" transform="scale(1 1) rotate(0) translate(4 242.8)">
<title>dependencies</title>
<polygon fill="white" stroke="transparent" points="-4,4 -4,-242.8 208,-242.8 208,4 -4,4"/>
<text text-anchor="middle" x="102" y="-8.2" font-family="sans-serif" font-size="14.00">dependencies</text>
<g id="clust1" class="cluster">
<title>cluster_RedirectComponentModule</title>
<polygon fill="none" stroke="black" stroke-dasharray="1,5" points="8,-32.8 8,-230.8 196,-230.8 196,-32.8 8,-32.8"/>
</g>
<g id="clust5" class="cluster">
<title>cluster_RedirectComponentModule_exports</title>
<polygon fill="none" stroke="black" points="28,-170.8 28,-222.8 176,-222.8 176,-170.8 28,-170.8"/>
</g>
<g id="clust2" class="cluster">
<title>cluster_RedirectComponentModule_declarations</title>
<polygon fill="none" stroke="black" points="30,-40.8 30,-92.8 174,-92.8 174,-40.8 30,-40.8"/>
</g>
<!-- RedirectComponent -->
<g id="node1" class="node">
<title>RedirectComponent</title>
<polygon fill="#ffffb3" stroke="black" points="166.25,-84.8 37.75,-84.8 37.75,-48.8 166.25,-48.8 166.25,-84.8"/>
<text text-anchor="middle" x="102" y="-62.6" font-family="Times,serif" font-size="14.00">RedirectComponent</text>
</g>
<!-- RedirectComponentModule -->
<g id="node2" class="node">
<title>RedirectComponentModule</title>
<polygon fill="#8dd3c7" stroke="black" points="188.3,-149.8 185.3,-153.8 164.3,-153.8 161.3,-149.8 15.7,-149.8 15.7,-113.8 188.3,-113.8 188.3,-149.8"/>
<text text-anchor="middle" x="102" y="-127.6" font-family="Times,serif" font-size="14.00">RedirectComponentModule</text>
</g>
<!-- RedirectComponent&#45;&gt;RedirectComponentModule -->
<g id="edge1" class="edge">
<title>RedirectComponent&#45;&gt;RedirectComponentModule</title>
<path fill="none" stroke="black" d="M102,-84.91C102,-84.91 102,-103.79 102,-103.79"/>
<polygon fill="black" stroke="black" points="98.5,-103.79 102,-113.79 105.5,-103.79 98.5,-103.79"/>
</g>
<!-- RedirectComponent  -->
<g id="node3" class="node">
<title>RedirectComponent </title>
<polygon fill="#fb8072" stroke="black" points="168.25,-214.8 35.75,-214.8 35.75,-178.8 168.25,-178.8 168.25,-214.8"/>
<text text-anchor="middle" x="102" y="-192.6" font-family="Times,serif" font-size="14.00">RedirectComponent </text>
</g>
<!-- RedirectComponentModule&#45;&gt;RedirectComponent  -->
<g id="edge2" class="edge">
<title>RedirectComponentModule&#45;&gt;RedirectComponent </title>
<path fill="none" stroke="black" stroke-dasharray="5,2" d="M102,-149.91C102,-149.91 102,-168.79 102,-168.79"/>
<polygon fill="black" stroke="black" points="98.5,-168.79 102,-178.79 105.5,-168.79 98.5,-168.79"/>
</g>
</g>
</svg>
