<?xml version="1.0" encoding="UTF-8" standalone="no"?>
<!DOCTYPE svg PUBLIC "-//W3C//DTD SVG 1.1//EN"
 "http://www.w3.org/Graphics/SVG/1.1/DTD/svg11.dtd">
<!-- Generated by graphviz version 2.47.0 (20210316.0004)
 -->
<!-- Title: dependencies Pages: 1 -->
<svg width="578pt" height="284pt"
 viewBox="0.00 0.00 578.00 284.00" xmlns="http://www.w3.org/2000/svg" xmlns:xlink="http://www.w3.org/1999/xlink">
<g id="graph0" class="graph" transform="scale(1 1) rotate(0) translate(4 280)">
<title>dependencies</title>
<polygon fill="white" stroke="transparent" points="-4,4 -4,-280 574,-280 574,4 -4,4"/>
<text text-anchor="start" x="264.01" y="-42.4" font-family="Times-12" font-weight="bold" font-size="14.00">Legend</text>
<polygon fill="#ffffb3" stroke="transparent" points="51,-10 51,-30 71,-30 71,-10 51,-10"/>
<text text-anchor="start" x="74.63" y="-15.4" font-family="Times-12" font-size="14.00"> &#160;Declarations</text>
<polygon fill="#8dd3c7" stroke="transparent" points="164,-10 164,-30 184,-30 184,-10 164,-10"/>
<text text-anchor="start" x="187.73" y="-15.4" font-family="Times-12" font-size="14.00"> &#160;Module</text>
<polygon fill="#80b1d3" stroke="transparent" points="250,-10 250,-30 270,-30 270,-10 250,-10"/>
<text text-anchor="start" x="273.78" y="-15.4" font-family="Times-12" font-size="14.00"> &#160;Bootstrap</text>
<polygon fill="#fdb462" stroke="transparent" points="347,-10 347,-30 367,-30 367,-10 347,-10"/>
<text text-anchor="start" x="370.67" y="-15.4" font-family="Times-12" font-size="14.00"> &#160;Providers</text>
<polygon fill="#fb8072" stroke="transparent" points="443,-10 443,-30 463,-30 463,-10 443,-10"/>
<text text-anchor="start" x="466.73" y="-15.4" font-family="Times-12" font-size="14.00"> &#160;Exports</text>
<g id="clust1" class="cluster">
<title>cluster_SideMenuUserAssignComponentModule</title>
<polygon fill="none" stroke="black" stroke-dasharray="1,5" points="8,-70 8,-268 562,-268 562,-70 8,-70"/>
</g>
<g id="clust2" class="cluster">
<title>cluster_SideMenuUserAssignComponentModule_declarations</title>
<polygon fill="none" stroke="black" points="16,-78 16,-130 554,-130 554,-78 16,-78"/>
</g>
<g id="clust7" class="cluster">
<title>cluster_SideMenuUserAssignComponentModule_exports</title>
<polygon fill="none" stroke="black" points="110,-208 110,-260 466,-260 466,-208 110,-208"/>
</g>
<!-- UserAssignComponent -->
<g id="node1" class="node">
<title>UserAssignComponent</title>
<polygon fill="#ffffb3" stroke="black" points="546.15,-122 399.85,-122 399.85,-86 546.15,-86 546.15,-122"/>
<text text-anchor="middle" x="473" y="-99.8" font-family="Times,serif" font-size="14.00">UserAssignComponent</text>
</g>
<!-- SideMenuUserAssignComponentModule -->
<g id="node4" class="node">
<title>SideMenuUserAssignComponentModule</title>
<polygon fill="#8dd3c7" stroke="black" points="419.74,-187 416.74,-191 395.74,-191 392.74,-187 172.26,-187 172.26,-151 419.74,-151 419.74,-187"/>
<text text-anchor="middle" x="296" y="-164.8" font-family="Times,serif" font-size="14.00">SideMenuUserAssignComponentModule</text>
</g>
<!-- UserAssignComponent&#45;&gt;SideMenuUserAssignComponentModule -->
<g id="edge1" class="edge">
<title>UserAssignComponent&#45;&gt;SideMenuUserAssignComponentModule</title>
<path fill="none" stroke="black" d="M409.77,-122.11C409.77,-122.11 409.77,-140.99 409.77,-140.99"/>
<polygon fill="black" stroke="black" points="406.27,-140.99 409.77,-150.99 413.27,-140.99 406.27,-140.99"/>
</g>
<!-- UserAssignItemComponent -->
<g id="node2" class="node">
<title>UserAssignItemComponent</title>
<polygon fill="#ffffb3" stroke="black" points="382.3,-122 209.7,-122 209.7,-86 382.3,-86 382.3,-122"/>
<text text-anchor="middle" x="296" y="-99.8" font-family="Times,serif" font-size="14.00">UserAssignItemComponent</text>
</g>
<!-- UserAssignItemComponent&#45;&gt;SideMenuUserAssignComponentModule -->
<g id="edge2" class="edge">
<title>UserAssignItemComponent&#45;&gt;SideMenuUserAssignComponentModule</title>
<path fill="none" stroke="black" d="M296,-122.11C296,-122.11 296,-140.99 296,-140.99"/>
<polygon fill="black" stroke="black" points="292.5,-140.99 296,-150.99 299.5,-140.99 292.5,-140.99"/>
</g>
<!-- UserAssignListComponent -->
<g id="node3" class="node">
<title>UserAssignListComponent</title>
<polygon fill="#ffffb3" stroke="black" points="192.42,-122 23.58,-122 23.58,-86 192.42,-86 192.42,-122"/>
<text text-anchor="middle" x="108" y="-99.8" font-family="Times,serif" font-size="14.00">UserAssignListComponent</text>
</g>
<!-- UserAssignListComponent&#45;&gt;SideMenuUserAssignComponentModule -->
<g id="edge3" class="edge">
<title>UserAssignListComponent&#45;&gt;SideMenuUserAssignComponentModule</title>
<path fill="none" stroke="black" d="M182.17,-122.11C182.17,-122.11 182.17,-140.99 182.17,-140.99"/>
<polygon fill="black" stroke="black" points="178.67,-140.99 182.17,-150.99 185.67,-140.99 178.67,-140.99"/>
</g>
<!-- UserAssignComponent  -->
<g id="node5" class="node">
<title>UserAssignComponent </title>
<polygon fill="#fb8072" stroke="black" points="458.15,-252 307.85,-252 307.85,-216 458.15,-216 458.15,-252"/>
<text text-anchor="middle" x="383" y="-229.8" font-family="Times,serif" font-size="14.00">UserAssignComponent </text>
</g>
<!-- SideMenuUserAssignComponentModule&#45;&gt;UserAssignComponent  -->
<g id="edge4" class="edge">
<title>SideMenuUserAssignComponentModule&#45;&gt;UserAssignComponent </title>
<path fill="none" stroke="black" stroke-dasharray="5,2" d="M363.9,-187.11C363.9,-187.11 363.9,-205.99 363.9,-205.99"/>
<polygon fill="black" stroke="black" points="360.4,-205.99 363.9,-215.99 367.4,-205.99 360.4,-205.99"/>
</g>
<!-- UserAssignListComponent  -->
<g id="node6" class="node">
<title>UserAssignListComponent </title>
<polygon fill="#fb8072" stroke="black" points="289.92,-252 118.08,-252 118.08,-216 289.92,-216 289.92,-252"/>
<text text-anchor="middle" x="204" y="-229.8" font-family="Times,serif" font-size="14.00">UserAssignListComponent </text>
</g>
<!-- SideMenuUserAssignComponentModule&#45;&gt;UserAssignListComponent  -->
<g id="edge5" class="edge">
<title>SideMenuUserAssignComponentModule&#45;&gt;UserAssignListComponent </title>
<path fill="none" stroke="black" stroke-dasharray="5,2" d="M231.05,-187.11C231.05,-187.11 231.05,-205.99 231.05,-205.99"/>
<polygon fill="black" stroke="black" points="227.55,-205.99 231.05,-215.99 234.55,-205.99 227.55,-205.99"/>
</g>
</g>
</svg>
