<?xml version="1.0" encoding="UTF-8" standalone="no"?>
<!DOCTYPE svg PUBLIC "-//W3C//DTD SVG 1.1//EN"
 "http://www.w3.org/Graphics/SVG/1.1/DTD/svg11.dtd">
<!-- Generated by graphviz version 3.0.0 (20220226.1711)
 -->
<!-- Title: dependencies Pages: 1 -->
<svg width="578pt" height="247pt"
 viewBox="0.00 0.00 578.00 246.80" xmlns="http://www.w3.org/2000/svg" xmlns:xlink="http://www.w3.org/1999/xlink">
<g id="graph0" class="graph" transform="scale(1 1) rotate(0) translate(4 242.8)">
<title>dependencies</title>
<polygon fill="white" stroke="transparent" points="-4,4 -4,-242.8 574,-242.8 574,4 -4,4"/>
<text text-anchor="middle" x="285" y="-8.2" font-family="sans-serif" font-size="14.00">dependencies</text>
<g id="clust1" class="cluster">
<title>cluster_SideMenuUserAssignComponentModule</title>
<polygon fill="none" stroke="black" stroke-dasharray="1,5" points="8,-32.8 8,-230.8 562,-230.8 562,-32.8 8,-32.8"/>
</g>
<g id="clust2" class="cluster">
<title>cluster_SideMenuUserAssignComponentModule_declarations</title>
<polygon fill="none" stroke="black" points="16,-40.8 16,-92.8 554,-92.8 554,-40.8 16,-40.8"/>
</g>
<g id="clust7" class="cluster">
<title>cluster_SideMenuUserAssignComponentModule_exports</title>
<polygon fill="none" stroke="black" points="213,-170.8 213,-222.8 379,-222.8 379,-170.8 213,-170.8"/>
</g>
<!-- UserAssignComponent -->
<g id="node1" class="node">
<title>UserAssignComponent</title>
<polygon fill="#ffffb3" stroke="black" points="546.16,-84.8 399.84,-84.8 399.84,-48.8 546.16,-48.8 546.16,-84.8"/>
<text text-anchor="middle" x="473" y="-62.6" font-family="Times,serif" font-size="14.00">UserAssignComponent</text>
</g>
<!-- SideMenuUserAssignComponentModule -->
<g id="node4" class="node">
<title>SideMenuUserAssignComponentModule</title>
<polygon fill="#8dd3c7" stroke="black" points="419.77,-149.8 416.77,-153.8 395.77,-153.8 392.77,-149.8 172.23,-149.8 172.23,-113.8 419.77,-113.8 419.77,-149.8"/>
<text text-anchor="middle" x="296" y="-127.6" font-family="Times,serif" font-size="14.00">SideMenuUserAssignComponentModule</text>
</g>
<!-- UserAssignComponent&#45;&gt;SideMenuUserAssignComponentModule -->
<g id="edge1" class="edge">
<title>UserAssignComponent&#45;&gt;SideMenuUserAssignComponentModule</title>
<path fill="none" stroke="black" d="M409.78,-84.91C409.78,-84.91 409.78,-103.79 409.78,-103.79"/>
<polygon fill="black" stroke="black" points="406.28,-103.79 409.78,-113.79 413.28,-103.79 406.28,-103.79"/>
</g>
<!-- UserAssignItemComponent -->
<g id="node2" class="node">
<title>UserAssignItemComponent</title>
<polygon fill="#ffffb3" stroke="black" points="382.32,-84.8 209.68,-84.8 209.68,-48.8 382.32,-48.8 382.32,-84.8"/>
<text text-anchor="middle" x="296" y="-62.6" font-family="Times,serif" font-size="14.00">UserAssignItemComponent</text>
</g>
<!-- UserAssignItemComponent&#45;&gt;SideMenuUserAssignComponentModule -->
<g id="edge2" class="edge">
<title>UserAssignItemComponent&#45;&gt;SideMenuUserAssignComponentModule</title>
<path fill="none" stroke="black" d="M296,-84.91C296,-84.91 296,-103.79 296,-103.79"/>
<polygon fill="black" stroke="black" points="292.5,-103.79 296,-113.79 299.5,-103.79 292.5,-103.79"/>
</g>
<!-- UserAssignListComponent -->
<g id="node3" class="node">
<title>UserAssignListComponent</title>
<polygon fill="#ffffb3" stroke="black" points="192.44,-84.8 23.56,-84.8 23.56,-48.8 192.44,-48.8 192.44,-84.8"/>
<text text-anchor="middle" x="108" y="-62.6" font-family="Times,serif" font-size="14.00">UserAssignListComponent</text>
</g>
<!-- UserAssignListComponent&#45;&gt;SideMenuUserAssignComponentModule -->
<g id="edge3" class="edge">
<title>UserAssignListComponent&#45;&gt;SideMenuUserAssignComponentModule</title>
<path fill="none" stroke="black" d="M182.17,-84.91C182.17,-84.91 182.17,-103.79 182.17,-103.79"/>
<polygon fill="black" stroke="black" points="178.67,-103.79 182.17,-113.79 185.67,-103.79 178.67,-103.79"/>
</g>
<!-- UserAssignComponent  -->
<g id="node5" class="node">
<title>UserAssignComponent </title>
<polygon fill="#fb8072" stroke="black" points="371.16,-214.8 220.84,-214.8 220.84,-178.8 371.16,-178.8 371.16,-214.8"/>
<text text-anchor="middle" x="296" y="-192.6" font-family="Times,serif" font-size="14.00">UserAssignComponent </text>
</g>
<!-- SideMenuUserAssignComponentModule&#45;&gt;UserAssignComponent  -->
<g id="edge4" class="edge">
<title>SideMenuUserAssignComponentModule&#45;&gt;UserAssignComponent </title>
<path fill="none" stroke="black" stroke-dasharray="5,2" d="M296,-149.91C296,-149.91 296,-168.79 296,-168.79"/>
<polygon fill="black" stroke="black" points="292.5,-168.79 296,-178.79 299.5,-168.79 292.5,-168.79"/>
</g>
</g>
</svg>
