<?xml version="1.0" encoding="UTF-8" standalone="no"?>
<!DOCTYPE svg PUBLIC "-//W3C//DTD SVG 1.1//EN"
 "http://www.w3.org/Graphics/SVG/1.1/DTD/svg11.dtd">
<!-- Generated by graphviz version 2.47.0 (20210316.0004)
 -->
<!-- Title: dependencies Pages: 1 -->
<svg width="627pt" height="284pt"
 viewBox="0.00 0.00 627.00 284.00" xmlns="http://www.w3.org/2000/svg" xmlns:xlink="http://www.w3.org/1999/xlink">
<g id="graph0" class="graph" transform="scale(1 1) rotate(0) translate(4 280)">
<title>dependencies</title>
<polygon fill="white" stroke="transparent" points="-4,4 -4,-280 623,-280 623,4 -4,4"/>
<text text-anchor="start" x="288.51" y="-42.4" font-family="Times-12" font-weight="bold" font-size="14.00">Legend</text>
<polygon fill="#ffffb3" stroke="transparent" points="75.5,-10 75.5,-30 95.5,-30 95.5,-10 75.5,-10"/>
<text text-anchor="start" x="99.13" y="-15.4" font-family="Times-12" font-size="14.00"> &#160;Declarations</text>
<polygon fill="#8dd3c7" stroke="transparent" points="188.5,-10 188.5,-30 208.5,-30 208.5,-10 188.5,-10"/>
<text text-anchor="start" x="212.23" y="-15.4" font-family="Times-12" font-size="14.00"> &#160;Module</text>
<polygon fill="#80b1d3" stroke="transparent" points="274.5,-10 274.5,-30 294.5,-30 294.5,-10 274.5,-10"/>
<text text-anchor="start" x="298.28" y="-15.4" font-family="Times-12" font-size="14.00"> &#160;Bootstrap</text>
<polygon fill="#fdb462" stroke="transparent" points="371.5,-10 371.5,-30 391.5,-30 391.5,-10 371.5,-10"/>
<text text-anchor="start" x="395.17" y="-15.4" font-family="Times-12" font-size="14.00"> &#160;Providers</text>
<polygon fill="#fb8072" stroke="transparent" points="467.5,-10 467.5,-30 487.5,-30 487.5,-10 467.5,-10"/>
<text text-anchor="start" x="491.23" y="-15.4" font-family="Times-12" font-size="14.00"> &#160;Exports</text>
<g id="clust1" class="cluster">
<title>cluster_DialogModule</title>
<polygon fill="none" stroke="black" stroke-dasharray="1,5" points="8,-70 8,-268 611,-268 611,-70 8,-70"/>
</g>
<g id="clust3" class="cluster">
<title>cluster_DialogModule_imports</title>
<polygon fill="none" stroke="black" points="16,-78 16,-130 603,-130 603,-78 16,-78"/>
</g>
<g id="clust4" class="cluster">
<title>cluster_DialogModule_exports</title>
<polygon fill="none" stroke="black" points="73,-208 73,-260 545,-260 545,-208 73,-208"/>
</g>
<!-- AlertDialogModule -->
<g id="node1" class="node">
<title>AlertDialogModule</title>
<polygon fill="#8dd3c7" stroke="black" points="595.42,-122 592.42,-126 571.42,-126 568.42,-122 468.58,-122 468.58,-86 595.42,-86 595.42,-122"/>
<text text-anchor="middle" x="532" y="-99.8" font-family="Times,serif" font-size="14.00">AlertDialogModule</text>
</g>
<!-- DialogModule -->
<g id="node5" class="node">
<title>DialogModule</title>
<polygon fill="#8dd3c7" stroke="black" points="363.65,-187 360.65,-191 339.65,-191 336.65,-187 266.35,-187 266.35,-151 363.65,-151 363.65,-187"/>
<text text-anchor="middle" x="315" y="-164.8" font-family="Times,serif" font-size="14.00">DialogModule</text>
</g>
<!-- AlertDialogModule&#45;&gt;DialogModule -->
<g id="edge1" class="edge">
<title>AlertDialogModule&#45;&gt;DialogModule</title>
<path fill="none" stroke="black" d="M502.88,-122.02C502.88,-139.37 502.88,-163 502.88,-163 502.88,-163 373.87,-163 373.87,-163"/>
<polygon fill="black" stroke="black" points="373.87,-159.5 363.87,-163 373.87,-166.5 373.87,-159.5"/>
</g>
<!-- ConfirmDialogModule -->
<g id="node2" class="node">
<title>ConfirmDialogModule</title>
<polygon fill="#8dd3c7" stroke="black" points="450.59,-122 447.59,-126 426.59,-126 423.59,-122 305.41,-122 305.41,-86 450.59,-86 450.59,-122"/>
<text text-anchor="middle" x="378" y="-99.8" font-family="Times,serif" font-size="14.00">ConfirmDialogModule</text>
</g>
<!-- ConfirmDialogModule&#45;&gt;DialogModule -->
<g id="edge2" class="edge">
<title>ConfirmDialogModule&#45;&gt;DialogModule</title>
<path fill="none" stroke="black" d="M334.64,-122.11C334.64,-122.11 334.64,-140.99 334.64,-140.99"/>
<polygon fill="black" stroke="black" points="331.14,-140.99 334.64,-150.99 338.14,-140.99 331.14,-140.99"/>
</g>
<!-- MaterialModule -->
<g id="node3" class="node">
<title>MaterialModule</title>
<polygon fill="#8dd3c7" stroke="black" points="287.47,-122 284.47,-126 263.47,-126 260.47,-122 180.53,-122 180.53,-86 287.47,-86 287.47,-122"/>
<text text-anchor="middle" x="234" y="-99.8" font-family="Times,serif" font-size="14.00">MaterialModule</text>
</g>
<!-- MaterialModule&#45;&gt;DialogModule -->
<g id="edge3" class="edge">
<title>MaterialModule&#45;&gt;DialogModule</title>
<path fill="none" stroke="black" d="M276.83,-122.11C276.83,-122.11 276.83,-140.99 276.83,-140.99"/>
<polygon fill="black" stroke="black" points="273.33,-140.99 276.83,-150.99 280.33,-140.99 273.33,-140.99"/>
</g>
<!-- PromptDialogModule -->
<g id="node4" class="node">
<title>PromptDialogModule</title>
<polygon fill="#8dd3c7" stroke="black" points="162.38,-122 159.38,-126 138.38,-126 135.38,-122 23.62,-122 23.62,-86 162.38,-86 162.38,-122"/>
<text text-anchor="middle" x="93" y="-99.8" font-family="Times,serif" font-size="14.00">PromptDialogModule</text>
</g>
<!-- PromptDialogModule&#45;&gt;DialogModule -->
<g id="edge4" class="edge">
<title>PromptDialogModule&#45;&gt;DialogModule</title>
<path fill="none" stroke="black" d="M121.62,-122.02C121.62,-139.37 121.62,-163 121.62,-163 121.62,-163 256.2,-163 256.2,-163"/>
<polygon fill="black" stroke="black" points="256.2,-166.5 266.2,-163 256.2,-159.5 256.2,-166.5"/>
</g>
<!-- AlertDialogModule  -->
<g id="node6" class="node">
<title>AlertDialogModule </title>
<polygon fill="#fb8072" stroke="black" points="536.92,-252 407.08,-252 407.08,-216 536.92,-216 536.92,-252"/>
<text text-anchor="middle" x="472" y="-229.8" font-family="Times,serif" font-size="14.00">AlertDialogModule </text>
</g>
<!-- DialogModule&#45;&gt;AlertDialogModule  -->
<g id="edge5" class="edge">
<title>DialogModule&#45;&gt;AlertDialogModule </title>
<path fill="none" stroke="black" stroke-dasharray="5,2" d="M363.92,-175C394.76,-175 428.79,-175 428.79,-175 428.79,-175 428.79,-205.98 428.79,-205.98"/>
<polygon fill="black" stroke="black" points="425.29,-205.98 428.79,-215.98 432.29,-205.98 425.29,-205.98"/>
</g>
<!-- ConfirmDialogModule  -->
<g id="node7" class="node">
<title>ConfirmDialogModule </title>
<polygon fill="#fb8072" stroke="black" points="389.09,-252 240.91,-252 240.91,-216 389.09,-216 389.09,-252"/>
<text text-anchor="middle" x="315" y="-229.8" font-family="Times,serif" font-size="14.00">ConfirmDialogModule </text>
</g>
<!-- DialogModule&#45;&gt;ConfirmDialogModule  -->
<g id="edge6" class="edge">
<title>DialogModule&#45;&gt;ConfirmDialogModule </title>
<path fill="none" stroke="black" stroke-dasharray="5,2" d="M315,-187.11C315,-187.11 315,-205.99 315,-205.99"/>
<polygon fill="black" stroke="black" points="311.5,-205.99 315,-215.99 318.5,-205.99 311.5,-205.99"/>
</g>
<!-- PromptDialogModule  -->
<g id="node8" class="node">
<title>PromptDialogModule </title>
<polygon fill="#fb8072" stroke="black" points="223.38,-252 80.62,-252 80.62,-216 223.38,-216 223.38,-252"/>
<text text-anchor="middle" x="152" y="-229.8" font-family="Times,serif" font-size="14.00">PromptDialogModule </text>
</g>
<!-- DialogModule&#45;&gt;PromptDialogModule  -->
<g id="edge7" class="edge">
<title>DialogModule&#45;&gt;PromptDialogModule </title>
<path fill="none" stroke="black" stroke-dasharray="5,2" d="M266.03,-175C235.45,-175 201.85,-175 201.85,-175 201.85,-175 201.85,-205.98 201.85,-205.98"/>
<polygon fill="black" stroke="black" points="198.35,-205.98 201.85,-215.98 205.35,-205.98 198.35,-205.98"/>
</g>
</g>
</svg>
