<?xml version="1.0" encoding="UTF-8" standalone="no"?>
<!DOCTYPE svg PUBLIC "-//W3C//DTD SVG 1.1//EN"
 "http://www.w3.org/Graphics/SVG/1.1/DTD/svg11.dtd">
<!-- Generated by graphviz version 5.0.0 (20220707.1540)
 -->
<!-- Title: dependencies Pages: 1 -->
<svg width="627pt" height="247pt"
 viewBox="0.00 0.00 627.00 246.80" xmlns="http://www.w3.org/2000/svg" xmlns:xlink="http://www.w3.org/1999/xlink">
<g id="graph0" class="graph" transform="scale(1 1) rotate(0) translate(4 242.8)">
<title>dependencies</title>
<polygon fill="white" stroke="transparent" points="-4,4 -4,-242.8 623,-242.8 623,4 -4,4"/>
<text text-anchor="middle" x="309.5" y="-8.2" font-family="sans-serif" font-size="14.00">dependencies</text>
<g id="clust1" class="cluster">
<title>cluster_DialogModule</title>
<polygon fill="none" stroke="black" stroke-dasharray="1,5" points="8,-32.8 8,-230.8 611,-230.8 611,-32.8 8,-32.8"/>
</g>
<g id="clust4" class="cluster">
<title>cluster_DialogModule_exports</title>
<polygon fill="none" stroke="black" points="73,-170.8 73,-222.8 545,-222.8 545,-170.8 73,-170.8"/>
</g>
<g id="clust3" class="cluster">
<title>cluster_DialogModule_imports</title>
<polygon fill="none" stroke="black" points="16,-40.8 16,-92.8 603,-92.8 603,-40.8 16,-40.8"/>
</g>
<!-- AlertDialogModule -->
<g id="node1" class="node">
<title>AlertDialogModule</title>
<polygon fill="#8dd3c7" stroke="black" points="595.42,-84.8 592.42,-88.8 571.42,-88.8 568.42,-84.8 468.58,-84.8 468.58,-48.8 595.42,-48.8 595.42,-84.8"/>
<text text-anchor="middle" x="532" y="-62.6" font-family="Times,serif" font-size="14.00">AlertDialogModule</text>
</g>
<!-- DialogModule -->
<g id="node5" class="node">
<title>DialogModule</title>
<polygon fill="#8dd3c7" stroke="black" points="363.66,-149.8 360.66,-153.8 339.66,-153.8 336.66,-149.8 266.34,-149.8 266.34,-113.8 363.66,-113.8 363.66,-149.8"/>
<text text-anchor="middle" x="315" y="-127.6" font-family="Times,serif" font-size="14.00">DialogModule</text>
</g>
<!-- AlertDialogModule&#45;&gt;DialogModule -->
<g id="edge1" class="edge">
<title>AlertDialogModule&#45;&gt;DialogModule</title>
<path fill="none" stroke="black" d="M502.88,-84.82C502.88,-102.17 502.88,-125.8 502.88,-125.8 502.88,-125.8 373.87,-125.8 373.87,-125.8"/>
<polygon fill="black" stroke="black" points="373.87,-122.3 363.87,-125.8 373.87,-129.3 373.87,-122.3"/>
</g>
<!-- ConfirmDialogModule -->
<g id="node2" class="node">
<title>ConfirmDialogModule</title>
<polygon fill="#8dd3c7" stroke="black" points="450.6,-84.8 447.6,-88.8 426.6,-88.8 423.6,-84.8 305.4,-84.8 305.4,-48.8 450.6,-48.8 450.6,-84.8"/>
<text text-anchor="middle" x="378" y="-62.6" font-family="Times,serif" font-size="14.00">ConfirmDialogModule</text>
</g>
<!-- ConfirmDialogModule&#45;&gt;DialogModule -->
<g id="edge2" class="edge">
<title>ConfirmDialogModule&#45;&gt;DialogModule</title>
<path fill="none" stroke="black" d="M334.64,-84.91C334.64,-84.91 334.64,-103.79 334.64,-103.79"/>
<polygon fill="black" stroke="black" points="331.14,-103.79 334.64,-113.79 338.14,-103.79 331.14,-103.79"/>
</g>
<!-- MaterialModule -->
<g id="node3" class="node">
<title>MaterialModule</title>
<polygon fill="#8dd3c7" stroke="black" points="287.47,-84.8 284.47,-88.8 263.47,-88.8 260.47,-84.8 180.53,-84.8 180.53,-48.8 287.47,-48.8 287.47,-84.8"/>
<text text-anchor="middle" x="234" y="-62.6" font-family="Times,serif" font-size="14.00">MaterialModule</text>
</g>
<!-- MaterialModule&#45;&gt;DialogModule -->
<g id="edge3" class="edge">
<title>MaterialModule&#45;&gt;DialogModule</title>
<path fill="none" stroke="black" d="M276.83,-84.91C276.83,-84.91 276.83,-103.79 276.83,-103.79"/>
<polygon fill="black" stroke="black" points="273.33,-103.79 276.83,-113.79 280.33,-103.79 273.33,-103.79"/>
</g>
<!-- PromptDialogModule -->
<g id="node4" class="node">
<title>PromptDialogModule</title>
<polygon fill="#8dd3c7" stroke="black" points="162.38,-84.8 159.38,-88.8 138.38,-88.8 135.38,-84.8 23.62,-84.8 23.62,-48.8 162.38,-48.8 162.38,-84.8"/>
<text text-anchor="middle" x="93" y="-62.6" font-family="Times,serif" font-size="14.00">PromptDialogModule</text>
</g>
<!-- PromptDialogModule&#45;&gt;DialogModule -->
<g id="edge4" class="edge">
<title>PromptDialogModule&#45;&gt;DialogModule</title>
<path fill="none" stroke="black" d="M121.62,-84.82C121.62,-102.17 121.62,-125.8 121.62,-125.8 121.62,-125.8 256.2,-125.8 256.2,-125.8"/>
<polygon fill="black" stroke="black" points="256.2,-129.3 266.2,-125.8 256.2,-122.3 256.2,-129.3"/>
</g>
<!-- AlertDialogModule  -->
<g id="node6" class="node">
<title>AlertDialogModule </title>
<polygon fill="#fb8072" stroke="black" points="536.92,-214.8 407.08,-214.8 407.08,-178.8 536.92,-178.8 536.92,-214.8"/>
<text text-anchor="middle" x="472" y="-192.6" font-family="Times,serif" font-size="14.00">AlertDialogModule </text>
</g>
<!-- DialogModule&#45;&gt;AlertDialogModule  -->
<g id="edge5" class="edge">
<title>DialogModule&#45;&gt;AlertDialogModule </title>
<path fill="none" stroke="black" stroke-dasharray="5,2" d="M363.92,-137.8C394.76,-137.8 428.79,-137.8 428.79,-137.8 428.79,-137.8 428.79,-168.78 428.79,-168.78"/>
<polygon fill="black" stroke="black" points="425.29,-168.78 428.79,-178.78 432.29,-168.78 425.29,-168.78"/>
</g>
<!-- ConfirmDialogModule  -->
<g id="node7" class="node">
<title>ConfirmDialogModule </title>
<polygon fill="#fb8072" stroke="black" points="389.1,-214.8 240.9,-214.8 240.9,-178.8 389.1,-178.8 389.1,-214.8"/>
<text text-anchor="middle" x="315" y="-192.6" font-family="Times,serif" font-size="14.00">ConfirmDialogModule </text>
</g>
<!-- DialogModule&#45;&gt;ConfirmDialogModule  -->
<g id="edge6" class="edge">
<title>DialogModule&#45;&gt;ConfirmDialogModule </title>
<path fill="none" stroke="black" stroke-dasharray="5,2" d="M315,-149.91C315,-149.91 315,-168.79 315,-168.79"/>
<polygon fill="black" stroke="black" points="311.5,-168.79 315,-178.79 318.5,-168.79 311.5,-168.79"/>
</g>
<!-- PromptDialogModule  -->
<g id="node8" class="node">
<title>PromptDialogModule </title>
<polygon fill="#fb8072" stroke="black" points="223.38,-214.8 80.62,-214.8 80.62,-178.8 223.38,-178.8 223.38,-214.8"/>
<text text-anchor="middle" x="152" y="-192.6" font-family="Times,serif" font-size="14.00">PromptDialogModule </text>
</g>
<!-- DialogModule&#45;&gt;PromptDialogModule  -->
<g id="edge7" class="edge">
<title>DialogModule&#45;&gt;PromptDialogModule </title>
<path fill="none" stroke="black" stroke-dasharray="5,2" d="M266.03,-137.8C235.45,-137.8 201.85,-137.8 201.85,-137.8 201.85,-137.8 201.85,-168.78 201.85,-168.78"/>
<polygon fill="black" stroke="black" points="198.35,-168.78 201.85,-178.78 205.35,-168.78 198.35,-168.78"/>
</g>
</g>
</svg>
