<?xml version="1.0" encoding="UTF-8" standalone="no"?>
<!DOCTYPE svg PUBLIC "-//W3C//DTD SVG 1.1//EN"
 "http://www.w3.org/Graphics/SVG/1.1/DTD/svg11.dtd">
<!-- Generated by graphviz version 2.47.3 (20210619.1520)
 -->
<!-- Title: dependencies Pages: 1 -->
<svg width="308pt" height="247pt"
 viewBox="0.00 0.00 308.00 246.80" xmlns="http://www.w3.org/2000/svg" xmlns:xlink="http://www.w3.org/1999/xlink">
<g id="graph0" class="graph" transform="scale(1 1) rotate(0) translate(4 242.8)">
<title>dependencies</title>
<polygon fill="white" stroke="transparent" points="-4,4 -4,-242.8 304,-242.8 304,4 -4,4"/>
<text text-anchor="middle" x="150" y="-8.2" font-family="sans-serif" font-size="14.00">dependencies</text>
<g id="clust1" class="cluster">
<title>cluster_SideMenuOptionSelectorComponentModule</title>
<polygon fill="none" stroke="black" stroke-dasharray="1,5" points="8,-32.8 8,-230.8 292,-230.8 292,-32.8 8,-32.8"/>
</g>
<g id="clust2" class="cluster">
<title>cluster_SideMenuOptionSelectorComponentModule_declarations</title>
<polygon fill="none" stroke="black" points="59,-40.8 59,-92.8 241,-92.8 241,-40.8 59,-40.8"/>
</g>
<g id="clust5" class="cluster">
<title>cluster_SideMenuOptionSelectorComponentModule_exports</title>
<polygon fill="none" stroke="black" points="57,-170.8 57,-222.8 243,-222.8 243,-170.8 57,-170.8"/>
</g>
<!-- OptionSelectorComponent -->
<g id="node1" class="node">
<title>OptionSelectorComponent</title>
<polygon fill="#ffffb3" stroke="black" points="233.09,-84.8 66.91,-84.8 66.91,-48.8 233.09,-48.8 233.09,-84.8"/>
<text text-anchor="middle" x="150" y="-62.6" font-family="Times,serif" font-size="14.00">OptionSelectorComponent</text>
</g>
<!-- SideMenuOptionSelectorComponentModule -->
<g id="node2" class="node">
<title>SideMenuOptionSelectorComponentModule</title>
<polygon fill="#8dd3c7" stroke="black" points="283.69,-149.8 280.69,-153.8 259.69,-153.8 256.69,-149.8 16.31,-149.8 16.31,-113.8 283.69,-113.8 283.69,-149.8"/>
<text text-anchor="middle" x="150" y="-127.6" font-family="Times,serif" font-size="14.00">SideMenuOptionSelectorComponentModule</text>
</g>
<!-- OptionSelectorComponent&#45;&gt;SideMenuOptionSelectorComponentModule -->
<g id="edge1" class="edge">
<title>OptionSelectorComponent&#45;&gt;SideMenuOptionSelectorComponentModule</title>
<path fill="none" stroke="black" d="M150,-84.91C150,-84.91 150,-103.79 150,-103.79"/>
<polygon fill="black" stroke="black" points="146.5,-103.79 150,-113.79 153.5,-103.79 146.5,-103.79"/>
</g>
<!-- OptionSelectorComponent  -->
<g id="node3" class="node">
<title>OptionSelectorComponent </title>
<polygon fill="#fb8072" stroke="black" points="234.59,-214.8 65.41,-214.8 65.41,-178.8 234.59,-178.8 234.59,-214.8"/>
<text text-anchor="middle" x="150" y="-192.6" font-family="Times,serif" font-size="14.00">OptionSelectorComponent </text>
</g>
<!-- SideMenuOptionSelectorComponentModule&#45;&gt;OptionSelectorComponent  -->
<g id="edge2" class="edge">
<title>SideMenuOptionSelectorComponentModule&#45;&gt;OptionSelectorComponent </title>
<path fill="none" stroke="black" stroke-dasharray="5,2" d="M150,-149.91C150,-149.91 150,-168.79 150,-168.79"/>
<polygon fill="black" stroke="black" points="146.5,-168.79 150,-178.79 153.5,-168.79 146.5,-168.79"/>
</g>
</g>
</svg>
