<?xml version="1.0" encoding="UTF-8" standalone="no"?>
<!DOCTYPE svg PUBLIC "-//W3C//DTD SVG 1.1//EN"
 "http://www.w3.org/Graphics/SVG/1.1/DTD/svg11.dtd">
<!-- Generated by graphviz version 5.0.0 (20220707.1540)
 -->
<!-- Title: dependencies Pages: 1 -->
<svg width="418pt" height="247pt"
 viewBox="0.00 0.00 418.00 246.80" xmlns="http://www.w3.org/2000/svg" xmlns:xlink="http://www.w3.org/1999/xlink">
<g id="graph0" class="graph" transform="scale(1 1) rotate(0) translate(4 242.8)">
<title>dependencies</title>
<polygon fill="white" stroke="transparent" points="-4,4 -4,-242.8 414,-242.8 414,4 -4,4"/>
<text text-anchor="middle" x="205" y="-8.2" font-family="sans-serif" font-size="14.00">dependencies</text>
<g id="clust1" class="cluster">
<title>cluster_EmailSubmissionFormComponentModule</title>
<polygon fill="none" stroke="black" stroke-dasharray="1,5" points="8,-32.8 8,-230.8 402,-230.8 402,-32.8 8,-32.8"/>
</g>
<g id="clust2" class="cluster">
<title>cluster_EmailSubmissionFormComponentModule_declarations</title>
<polygon fill="none" stroke="black" points="168,-40.8 168,-92.8 394,-92.8 394,-40.8 168,-40.8"/>
</g>
<g id="clust4" class="cluster">
<title>cluster_EmailSubmissionFormComponentModule_imports</title>
<polygon fill="none" stroke="black" points="16,-40.8 16,-92.8 160,-92.8 160,-40.8 16,-40.8"/>
</g>
<g id="clust5" class="cluster">
<title>cluster_EmailSubmissionFormComponentModule_exports</title>
<polygon fill="none" stroke="black" points="90,-170.8 90,-222.8 320,-222.8 320,-170.8 90,-170.8"/>
</g>
<!-- EmailSubmissionFormComponent -->
<g id="node1" class="node">
<title>EmailSubmissionFormComponent</title>
<polygon fill="#ffffb3" stroke="black" points="386.46,-84.8 175.54,-84.8 175.54,-48.8 386.46,-48.8 386.46,-84.8"/>
<text text-anchor="middle" x="281" y="-62.6" font-family="Times,serif" font-size="14.00">EmailSubmissionFormComponent</text>
</g>
<!-- EmailSubmissionFormComponentModule -->
<g id="node2" class="node">
<title>EmailSubmissionFormComponentModule</title>
<polygon fill="#8dd3c7" stroke="black" points="332.01,-149.8 329.01,-153.8 308.01,-153.8 305.01,-149.8 77.99,-149.8 77.99,-113.8 332.01,-113.8 332.01,-149.8"/>
<text text-anchor="middle" x="205" y="-127.6" font-family="Times,serif" font-size="14.00">EmailSubmissionFormComponentModule</text>
</g>
<!-- EmailSubmissionFormComponent&#45;&gt;EmailSubmissionFormComponentModule -->
<g id="edge1" class="edge">
<title>EmailSubmissionFormComponent&#45;&gt;EmailSubmissionFormComponentModule</title>
<path fill="none" stroke="black" d="M253.89,-84.91C253.89,-84.91 253.89,-103.79 253.89,-103.79"/>
<polygon fill="black" stroke="black" points="250.39,-103.79 253.89,-113.79 257.39,-103.79 250.39,-103.79"/>
</g>
<!-- EmailSubmissionFormComponent  -->
<g id="node4" class="node">
<title>EmailSubmissionFormComponent </title>
<polygon fill="#fb8072" stroke="black" points="311.96,-214.8 98.04,-214.8 98.04,-178.8 311.96,-178.8 311.96,-214.8"/>
<text text-anchor="middle" x="205" y="-192.6" font-family="Times,serif" font-size="14.00">EmailSubmissionFormComponent </text>
</g>
<!-- EmailSubmissionFormComponentModule&#45;&gt;EmailSubmissionFormComponent  -->
<g id="edge3" class="edge">
<title>EmailSubmissionFormComponentModule&#45;&gt;EmailSubmissionFormComponent </title>
<path fill="none" stroke="black" stroke-dasharray="5,2" d="M205,-149.91C205,-149.91 205,-168.79 205,-168.79"/>
<polygon fill="black" stroke="black" points="201.5,-168.79 205,-178.79 208.5,-168.79 201.5,-168.79"/>
</g>
<!-- LegalNoticeModule -->
<g id="node3" class="node">
<title>LegalNoticeModule</title>
<polygon fill="#8dd3c7" stroke="black" points="152.24,-84.8 149.24,-88.8 128.24,-88.8 125.24,-84.8 23.76,-84.8 23.76,-48.8 152.24,-48.8 152.24,-84.8"/>
<text text-anchor="middle" x="88" y="-62.6" font-family="Times,serif" font-size="14.00">LegalNoticeModule</text>
</g>
<!-- LegalNoticeModule&#45;&gt;EmailSubmissionFormComponentModule -->
<g id="edge2" class="edge">
<title>LegalNoticeModule&#45;&gt;EmailSubmissionFormComponentModule</title>
<path fill="none" stroke="black" d="M115.18,-84.91C115.18,-84.91 115.18,-103.79 115.18,-103.79"/>
<polygon fill="black" stroke="black" points="111.68,-103.79 115.18,-113.79 118.68,-103.79 111.68,-103.79"/>
</g>
</g>
</svg>
