<?xml version="1.0" encoding="UTF-8" standalone="no"?>
<!DOCTYPE svg PUBLIC "-//W3C//DTD SVG 1.1//EN"
 "http://www.w3.org/Graphics/SVG/1.1/DTD/svg11.dtd">
<!-- Generated by graphviz version 3.0.0 (20220226.1711)
 -->
<!-- Title: dependencies Pages: 1 -->
<svg width="1030pt" height="312pt"
 viewBox="0.00 0.00 1030.00 311.80" xmlns="http://www.w3.org/2000/svg" xmlns:xlink="http://www.w3.org/1999/xlink">
<g id="graph0" class="graph" transform="scale(1 1) rotate(0) translate(4 307.8)">
<title>dependencies</title>
<polygon fill="white" stroke="transparent" points="-4,4 -4,-307.8 1026,-307.8 1026,4 -4,4"/>
<text text-anchor="middle" x="511" y="-8.2" font-family="sans-serif" font-size="14.00">dependencies</text>
<g id="clust1" class="cluster">
<title>cluster_HeaderComponentModule</title>
<polygon fill="none" stroke="black" stroke-dasharray="1,5" points="8,-32.8 8,-295.8 1014,-295.8 1014,-32.8 8,-32.8"/>
</g>
<g id="clust2" class="cluster">
<title>cluster_HeaderComponentModule_declarations</title>
<polygon fill="none" stroke="black" points="20,-105.8 20,-157.8 818,-157.8 818,-105.8 20,-105.8"/>
</g>
<g id="clust9" class="cluster">
<title>cluster_HeaderComponentModule_exports</title>
<polygon fill="none" stroke="black" points="16,-235.8 16,-287.8 830,-287.8 830,-235.8 16,-235.8"/>
</g>
<g id="clust4" class="cluster">
<title>cluster_HeaderComponentModule_HeaderComponent_providers</title>
<polygon fill="none" stroke="black" points="16,-40.8 16,-92.8 1006,-92.8 1006,-40.8 16,-40.8"/>
</g>
<!-- EditModeComponent -->
<g id="node1" class="node">
<title>EditModeComponent</title>
<polygon fill="#ffffb3" stroke="black" points="809.82,-149.8 672.18,-149.8 672.18,-113.8 809.82,-113.8 809.82,-149.8"/>
<text text-anchor="middle" x="741" y="-127.6" font-family="Times,serif" font-size="14.00">EditModeComponent</text>
</g>
<!-- HeaderComponentModule -->
<g id="node6" class="node">
<title>HeaderComponentModule</title>
<polygon fill="#8dd3c7" stroke="black" points="518.8,-214.8 515.8,-218.8 494.8,-218.8 491.8,-214.8 353.2,-214.8 353.2,-178.8 518.8,-178.8 518.8,-214.8"/>
<text text-anchor="middle" x="436" y="-192.6" font-family="Times,serif" font-size="14.00">HeaderComponentModule</text>
</g>
<!-- EditModeComponent&#45;&gt;HeaderComponentModule -->
<g id="edge1" class="edge">
<title>EditModeComponent&#45;&gt;HeaderComponentModule</title>
<path fill="none" stroke="black" d="M676.96,-150.07C676.96,-168.36 676.96,-193.8 676.96,-193.8 676.96,-193.8 528.93,-193.8 528.93,-193.8"/>
<polygon fill="black" stroke="black" points="528.93,-190.3 518.93,-193.8 528.93,-197.3 528.93,-190.3"/>
</g>
<!-- HeaderComponent -->
<g id="node2" class="node">
<title>HeaderComponent</title>
<polygon fill="#ffffb3" stroke="black" points="653.75,-149.8 532.25,-149.8 532.25,-113.8 653.75,-113.8 653.75,-149.8"/>
<text text-anchor="middle" x="593" y="-127.6" font-family="Times,serif" font-size="14.00">HeaderComponent</text>
</g>
<!-- HeaderComponent&#45;&gt;HeaderComponentModule -->
<g id="edge2" class="edge">
<title>HeaderComponent&#45;&gt;HeaderComponentModule</title>
<path fill="none" stroke="black" d="M615.37,-149.81C615.37,-165.85 615.37,-186.8 615.37,-186.8 615.37,-186.8 528.86,-186.8 528.86,-186.8"/>
<polygon fill="black" stroke="black" points="528.86,-183.3 518.86,-186.8 528.86,-190.3 528.86,-183.3"/>
</g>
<!-- LoadingModeComponent -->
<g id="node3" class="node">
<title>LoadingModeComponent</title>
<polygon fill="#ffffb3" stroke="black" points="514.15,-149.8 353.85,-149.8 353.85,-113.8 514.15,-113.8 514.15,-149.8"/>
<text text-anchor="middle" x="434" y="-127.6" font-family="Times,serif" font-size="14.00">LoadingModeComponent</text>
</g>
<!-- LoadingModeComponent&#45;&gt;HeaderComponentModule -->
<g id="edge8" class="edge">
<title>LoadingModeComponent&#45;&gt;HeaderComponentModule</title>
<path fill="none" stroke="black" d="M434,-149.91C434,-149.91 434,-168.79 434,-168.79"/>
<polygon fill="black" stroke="black" points="430.5,-168.79 434,-178.79 437.5,-168.79 430.5,-168.79"/>
</g>
<!-- SearchModeComponent -->
<g id="node4" class="node">
<title>SearchModeComponent</title>
<polygon fill="#ffffb3" stroke="black" points="336.08,-149.8 183.92,-149.8 183.92,-113.8 336.08,-113.8 336.08,-149.8"/>
<text text-anchor="middle" x="260" y="-127.6" font-family="Times,serif" font-size="14.00">SearchModeComponent</text>
</g>
<!-- SearchModeComponent&#45;&gt;HeaderComponentModule -->
<g id="edge9" class="edge">
<title>SearchModeComponent&#45;&gt;HeaderComponentModule</title>
<path fill="none" stroke="black" d="M285.35,-149.81C285.35,-165.85 285.35,-186.8 285.35,-186.8 285.35,-186.8 343.18,-186.8 343.18,-186.8"/>
<polygon fill="black" stroke="black" points="343.18,-190.3 353.18,-186.8 343.18,-183.3 343.18,-190.3"/>
</g>
<!-- SortModeComponent -->
<g id="node5" class="node">
<title>SortModeComponent</title>
<polygon fill="#ffffb3" stroke="black" points="165.83,-149.8 28.17,-149.8 28.17,-113.8 165.83,-113.8 165.83,-149.8"/>
<text text-anchor="middle" x="97" y="-127.6" font-family="Times,serif" font-size="14.00">SortModeComponent</text>
</g>
<!-- SortModeComponent&#45;&gt;HeaderComponentModule -->
<g id="edge10" class="edge">
<title>SortModeComponent&#45;&gt;HeaderComponentModule</title>
<path fill="none" stroke="black" d="M119.06,-150.07C119.06,-168.36 119.06,-193.8 119.06,-193.8 119.06,-193.8 343.14,-193.8 343.14,-193.8"/>
<polygon fill="black" stroke="black" points="343.14,-197.3 353.14,-193.8 343.14,-190.3 343.14,-197.3"/>
</g>
<!-- EditModeComponent  -->
<g id="node12" class="node">
<title>EditModeComponent </title>
<polygon fill="#fb8072" stroke="black" points="822.32,-279.8 681.68,-279.8 681.68,-243.8 822.32,-243.8 822.32,-279.8"/>
<text text-anchor="middle" x="752" y="-257.6" font-family="Times,serif" font-size="14.00">EditModeComponent </text>
</g>
<!-- HeaderComponentModule&#45;&gt;EditModeComponent  -->
<g id="edge11" class="edge">
<title>HeaderComponentModule&#45;&gt;EditModeComponent </title>
<path fill="none" stroke="black" stroke-dasharray="5,2" d="M518.97,-200.8C610.69,-200.8 745.62,-200.8 745.62,-200.8 745.62,-200.8 745.62,-233.5 745.62,-233.5"/>
<polygon fill="black" stroke="black" points="742.13,-233.5 745.62,-243.5 749.13,-233.5 742.13,-233.5"/>
</g>
<!-- HeaderComponent  -->
<g id="node13" class="node">
<title>HeaderComponent </title>
<polygon fill="#fb8072" stroke="black" points="663.75,-279.8 538.25,-279.8 538.25,-243.8 663.75,-243.8 663.75,-279.8"/>
<text text-anchor="middle" x="601" y="-257.6" font-family="Times,serif" font-size="14.00">HeaderComponent </text>
</g>
<!-- HeaderComponentModule&#45;&gt;HeaderComponent  -->
<g id="edge12" class="edge">
<title>HeaderComponentModule&#45;&gt;HeaderComponent </title>
<path fill="none" stroke="black" stroke-dasharray="5,2" d="M518.76,-207.8C549.43,-207.8 576.88,-207.8 576.88,-207.8 576.88,-207.8 576.88,-233.52 576.88,-233.52"/>
<polygon fill="black" stroke="black" points="573.38,-233.52 576.88,-243.52 580.38,-233.52 573.38,-233.52"/>
</g>
<!-- LoadingModeComponent  -->
<g id="node14" class="node">
<title>LoadingModeComponent </title>
<polygon fill="#fb8072" stroke="black" points="520.15,-279.8 355.85,-279.8 355.85,-243.8 520.15,-243.8 520.15,-279.8"/>
<text text-anchor="middle" x="438" y="-257.6" font-family="Times,serif" font-size="14.00">LoadingModeComponent </text>
</g>
<!-- HeaderComponentModule&#45;&gt;LoadingModeComponent  -->
<g id="edge13" class="edge">
<title>HeaderComponentModule&#45;&gt;LoadingModeComponent </title>
<path fill="none" stroke="black" stroke-dasharray="5,2" d="M437.29,-214.91C437.29,-214.91 437.29,-233.79 437.29,-233.79"/>
<polygon fill="black" stroke="black" points="433.79,-233.79 437.29,-243.79 440.79,-233.79 433.79,-233.79"/>
</g>
<!-- SearchModeComponent  -->
<g id="node15" class="node">
<title>SearchModeComponent </title>
<polygon fill="#fb8072" stroke="black" points="337.58,-279.8 182.42,-279.8 182.42,-243.8 337.58,-243.8 337.58,-279.8"/>
<text text-anchor="middle" x="260" y="-257.6" font-family="Times,serif" font-size="14.00">SearchModeComponent </text>
</g>
<!-- HeaderComponentModule&#45;&gt;SearchModeComponent  -->
<g id="edge14" class="edge">
<title>HeaderComponentModule&#45;&gt;SearchModeComponent </title>
<path fill="none" stroke="black" stroke-dasharray="5,2" d="M353.23,-207.8C297.7,-207.8 234.65,-207.8 234.65,-207.8 234.65,-207.8 234.65,-233.52 234.65,-233.52"/>
<polygon fill="black" stroke="black" points="231.15,-233.52 234.65,-243.52 238.15,-233.52 231.15,-233.52"/>
</g>
<!-- SortModeComponent  -->
<g id="node16" class="node">
<title>SortModeComponent </title>
<polygon fill="#fb8072" stroke="black" points="164.33,-279.8 23.67,-279.8 23.67,-243.8 164.33,-243.8 164.33,-279.8"/>
<text text-anchor="middle" x="94" y="-257.6" font-family="Times,serif" font-size="14.00">SortModeComponent </text>
</g>
<!-- HeaderComponentModule&#45;&gt;SortModeComponent  -->
<g id="edge15" class="edge">
<title>HeaderComponentModule&#45;&gt;SortModeComponent </title>
<path fill="none" stroke="black" stroke-dasharray="5,2" d="M353.33,-200.8C246.4,-200.8 73.69,-200.8 73.69,-200.8 73.69,-200.8 73.69,-233.5 73.69,-233.5"/>
<polygon fill="black" stroke="black" points="70.19,-233.5 73.69,-243.5 77.19,-233.5 70.19,-233.5"/>
</g>
<!-- CaseHeaderService -->
<g id="node7" class="node">
<title>CaseHeaderService</title>
<ellipse fill="#fdb462" stroke="black" cx="911" cy="-66.8" rx="86.78" ry="18"/>
<text text-anchor="middle" x="911" y="-62.6" font-family="Times,serif" font-size="14.00">CaseHeaderService</text>
</g>
<!-- CaseHeaderService&#45;&gt;HeaderComponent -->
<g id="edge3" class="edge">
<title>CaseHeaderService&#45;&gt;HeaderComponent</title>
<path fill="none" stroke="black" d="M911,-84.86C911,-89.29 911,-92.8 911,-92.8 911,-92.8 647.03,-92.8 647.03,-92.8 647.03,-92.8 647.03,-103.67 647.03,-103.67"/>
<polygon fill="black" stroke="black" points="643.53,-103.67 647.03,-113.67 650.53,-103.67 643.53,-103.67"/>
</g>
<!-- TaskHeaderService -->
<g id="node8" class="node">
<title>TaskHeaderService</title>
<ellipse fill="#fdb462" stroke="black" cx="720" cy="-66.8" rx="86.78" ry="18"/>
<text text-anchor="middle" x="720" y="-62.6" font-family="Times,serif" font-size="14.00">TaskHeaderService</text>
</g>
<!-- TaskHeaderService&#45;&gt;HeaderComponent -->
<g id="edge4" class="edge">
<title>TaskHeaderService&#45;&gt;HeaderComponent</title>
<path fill="none" stroke="black" d="M640.2,-74C640.2,-74 640.2,-103.76 640.2,-103.76"/>
<polygon fill="black" stroke="black" points="636.7,-103.76 640.2,-113.76 643.7,-103.76 636.7,-103.76"/>
</g>
<!-- WorkflowHeaderService -->
<g id="node9" class="node">
<title>WorkflowHeaderService</title>
<ellipse fill="#fdb462" stroke="black" cx="508" cy="-66.8" rx="107.62" ry="18"/>
<text text-anchor="middle" x="508" y="-62.6" font-family="Times,serif" font-size="14.00">WorkflowHeaderService</text>
</g>
<!-- WorkflowHeaderService&#45;&gt;HeaderComponent -->
<g id="edge5" class="edge">
<title>WorkflowHeaderService&#45;&gt;HeaderComponent</title>
<path fill="none" stroke="black" d="M594.7,-77.53C594.7,-77.53 594.7,-103.67 594.7,-103.67"/>
<polygon fill="black" stroke="black" points="591.2,-103.67 594.7,-113.67 598.2,-103.67 591.2,-103.67"/>
</g>
<!-- HeaderSearchService -->
<g id="node10" class="node">
<title>HeaderSearchService</title>
<ellipse fill="#fdb462" stroke="black" cx="288" cy="-66.8" rx="94.29" ry="18"/>
<text text-anchor="middle" x="288" y="-62.6" font-family="Times,serif" font-size="14.00">HeaderSearchService</text>
</g>
<!-- HeaderSearchService&#45;&gt;HeaderComponent -->
<g id="edge6" class="edge">
<title>HeaderSearchService&#45;&gt;HeaderComponent</title>
<path fill="none" stroke="black" d="M367.91,-76.52C367.91,-86.26 367.91,-99.8 367.91,-99.8 367.91,-99.8 573.84,-99.8 573.84,-99.8 573.84,-99.8 573.84,-103.56 573.84,-103.56"/>
<polygon fill="black" stroke="black" points="570.34,-103.56 573.84,-113.56 577.34,-103.56 570.34,-103.56"/>
</g>
<!-- CategoryFactory -->
<g id="node11" class="node">
<title>CategoryFactory</title>
<ellipse fill="#fdb462" stroke="black" cx="100" cy="-66.8" rx="75.87" ry="18"/>
<text text-anchor="middle" x="100" y="-62.6" font-family="Times,serif" font-size="14.00">CategoryFactory</text>
</g>
<!-- CategoryFactory&#45;&gt;HeaderComponent -->
<g id="edge7" class="edge">
<title>CategoryFactory&#45;&gt;HeaderComponent</title>
<path fill="none" stroke="black" d="M170.8,-73.41C170.8,-84.77 170.8,-106.8 170.8,-106.8 170.8,-106.8 552.99,-106.8 552.99,-106.8 552.99,-106.8 552.99,-107.48 552.99,-107.48"/>
<polygon fill="black" stroke="black" points="549.49,-103.63 552.99,-113.63 556.49,-103.63 549.49,-103.63"/>
</g>
</g>
</svg>
