<?xml version="1.0" encoding="UTF-8" standalone="no"?>
<!DOCTYPE svg PUBLIC "-//W3C//DTD SVG 1.1//EN"
 "http://www.w3.org/Graphics/SVG/1.1/DTD/svg11.dtd">
<!-- Generated by graphviz version 2.47.0 (20210316.0004)
 -->
<!-- Title: dependencies Pages: 1 -->
<svg width="1030pt" height="349pt"
 viewBox="0.00 0.00 1030.00 349.00" xmlns="http://www.w3.org/2000/svg" xmlns:xlink="http://www.w3.org/1999/xlink">
<g id="graph0" class="graph" transform="scale(1 1) rotate(0) translate(4 345)">
<title>dependencies</title>
<polygon fill="white" stroke="transparent" points="-4,4 -4,-345 1026,-345 1026,4 -4,4"/>
<text text-anchor="start" x="490.01" y="-42.4" font-family="Times-12" font-weight="bold" font-size="14.00">Legend</text>
<polygon fill="#ffffb3" stroke="transparent" points="277,-10 277,-30 297,-30 297,-10 277,-10"/>
<text text-anchor="start" x="300.63" y="-15.4" font-family="Times-12" font-size="14.00"> &#160;Declarations</text>
<polygon fill="#8dd3c7" stroke="transparent" points="390,-10 390,-30 410,-30 410,-10 390,-10"/>
<text text-anchor="start" x="413.73" y="-15.4" font-family="Times-12" font-size="14.00"> &#160;Module</text>
<polygon fill="#80b1d3" stroke="transparent" points="476,-10 476,-30 496,-30 496,-10 476,-10"/>
<text text-anchor="start" x="499.78" y="-15.4" font-family="Times-12" font-size="14.00"> &#160;Bootstrap</text>
<polygon fill="#fdb462" stroke="transparent" points="573,-10 573,-30 593,-30 593,-10 573,-10"/>
<text text-anchor="start" x="596.67" y="-15.4" font-family="Times-12" font-size="14.00"> &#160;Providers</text>
<polygon fill="#fb8072" stroke="transparent" points="669,-10 669,-30 689,-30 689,-10 669,-10"/>
<text text-anchor="start" x="692.73" y="-15.4" font-family="Times-12" font-size="14.00"> &#160;Exports</text>
<g id="clust1" class="cluster">
<title>cluster_HeaderComponentModule</title>
<polygon fill="none" stroke="black" stroke-dasharray="1,5" points="8,-70 8,-333 1014,-333 1014,-70 8,-70"/>
</g>
<g id="clust2" class="cluster">
<title>cluster_HeaderComponentModule_declarations</title>
<polygon fill="none" stroke="black" points="20,-143 20,-195 818,-195 818,-143 20,-143"/>
</g>
<g id="clust9" class="cluster">
<title>cluster_HeaderComponentModule_exports</title>
<polygon fill="none" stroke="black" points="16,-273 16,-325 830,-325 830,-273 16,-273"/>
</g>
<g id="clust4" class="cluster">
<title>cluster_HeaderComponentModule_HeaderComponent_providers</title>
<polygon fill="none" stroke="black" points="16,-78 16,-130 1006,-130 1006,-78 16,-78"/>
</g>
<!-- EditModeComponent -->
<g id="node1" class="node">
<title>EditModeComponent</title>
<polygon fill="#ffffb3" stroke="black" points="809.83,-187 672.17,-187 672.17,-151 809.83,-151 809.83,-187"/>
<text text-anchor="middle" x="741" y="-164.8" font-family="Times,serif" font-size="14.00">EditModeComponent</text>
</g>
<!-- HeaderComponentModule -->
<g id="node6" class="node">
<title>HeaderComponentModule</title>
<polygon fill="#8dd3c7" stroke="black" points="518.79,-252 515.79,-256 494.79,-256 491.79,-252 353.21,-252 353.21,-216 518.79,-216 518.79,-252"/>
<text text-anchor="middle" x="436" y="-229.8" font-family="Times,serif" font-size="14.00">HeaderComponentModule</text>
</g>
<!-- EditModeComponent&#45;&gt;HeaderComponentModule -->
<g id="edge1" class="edge">
<title>EditModeComponent&#45;&gt;HeaderComponentModule</title>
<path fill="none" stroke="black" d="M676.96,-187.27C676.96,-205.56 676.96,-231 676.96,-231 676.96,-231 528.93,-231 528.93,-231"/>
<polygon fill="black" stroke="black" points="528.93,-227.5 518.93,-231 528.93,-234.5 528.93,-227.5"/>
</g>
<!-- HeaderComponent -->
<g id="node2" class="node">
<title>HeaderComponent</title>
<polygon fill="#ffffb3" stroke="black" points="653.74,-187 532.26,-187 532.26,-151 653.74,-151 653.74,-187"/>
<text text-anchor="middle" x="593" y="-164.8" font-family="Times,serif" font-size="14.00">HeaderComponent</text>
</g>
<!-- HeaderComponent&#45;&gt;HeaderComponentModule -->
<g id="edge2" class="edge">
<title>HeaderComponent&#45;&gt;HeaderComponentModule</title>
<path fill="none" stroke="black" d="M615.37,-187.01C615.37,-203.05 615.37,-224 615.37,-224 615.37,-224 528.86,-224 528.86,-224"/>
<polygon fill="black" stroke="black" points="528.86,-220.5 518.86,-224 528.86,-227.5 528.86,-220.5"/>
</g>
<!-- LoadingModeComponent -->
<g id="node3" class="node">
<title>LoadingModeComponent</title>
<polygon fill="#ffffb3" stroke="black" points="514.15,-187 353.85,-187 353.85,-151 514.15,-151 514.15,-187"/>
<text text-anchor="middle" x="434" y="-164.8" font-family="Times,serif" font-size="14.00">LoadingModeComponent</text>
</g>
<!-- LoadingModeComponent&#45;&gt;HeaderComponentModule -->
<g id="edge8" class="edge">
<title>LoadingModeComponent&#45;&gt;HeaderComponentModule</title>
<path fill="none" stroke="black" d="M434,-187.11C434,-187.11 434,-205.99 434,-205.99"/>
<polygon fill="black" stroke="black" points="430.5,-205.99 434,-215.99 437.5,-205.99 430.5,-205.99"/>
</g>
<!-- SearchModeComponent -->
<g id="node4" class="node">
<title>SearchModeComponent</title>
<polygon fill="#ffffb3" stroke="black" points="336.08,-187 183.92,-187 183.92,-151 336.08,-151 336.08,-187"/>
<text text-anchor="middle" x="260" y="-164.8" font-family="Times,serif" font-size="14.00">SearchModeComponent</text>
</g>
<!-- SearchModeComponent&#45;&gt;HeaderComponentModule -->
<g id="edge9" class="edge">
<title>SearchModeComponent&#45;&gt;HeaderComponentModule</title>
<path fill="none" stroke="black" d="M285.35,-187.01C285.35,-203.05 285.35,-224 285.35,-224 285.35,-224 343.18,-224 343.18,-224"/>
<polygon fill="black" stroke="black" points="343.18,-227.5 353.18,-224 343.18,-220.5 343.18,-227.5"/>
</g>
<!-- SortModeComponent -->
<g id="node5" class="node">
<title>SortModeComponent</title>
<polygon fill="#ffffb3" stroke="black" points="165.83,-187 28.17,-187 28.17,-151 165.83,-151 165.83,-187"/>
<text text-anchor="middle" x="97" y="-164.8" font-family="Times,serif" font-size="14.00">SortModeComponent</text>
</g>
<!-- SortModeComponent&#45;&gt;HeaderComponentModule -->
<g id="edge10" class="edge">
<title>SortModeComponent&#45;&gt;HeaderComponentModule</title>
<path fill="none" stroke="black" d="M119.05,-187.27C119.05,-205.56 119.05,-231 119.05,-231 119.05,-231 343.14,-231 343.14,-231"/>
<polygon fill="black" stroke="black" points="343.14,-234.5 353.14,-231 343.14,-227.5 343.14,-234.5"/>
</g>
<!-- EditModeComponent  -->
<g id="node12" class="node">
<title>EditModeComponent </title>
<polygon fill="#fb8072" stroke="black" points="822.33,-317 681.67,-317 681.67,-281 822.33,-281 822.33,-317"/>
<text text-anchor="middle" x="752" y="-294.8" font-family="Times,serif" font-size="14.00">EditModeComponent </text>
</g>
<!-- HeaderComponentModule&#45;&gt;EditModeComponent  -->
<g id="edge11" class="edge">
<title>HeaderComponentModule&#45;&gt;EditModeComponent </title>
<path fill="none" stroke="black" stroke-dasharray="5,2" d="M518.97,-238C610.69,-238 745.62,-238 745.62,-238 745.62,-238 745.62,-270.7 745.62,-270.7"/>
<polygon fill="black" stroke="black" points="742.13,-270.7 745.62,-280.7 749.13,-270.7 742.13,-270.7"/>
</g>
<!-- HeaderComponent  -->
<g id="node13" class="node">
<title>HeaderComponent </title>
<polygon fill="#fb8072" stroke="black" points="663.74,-317 538.26,-317 538.26,-281 663.74,-281 663.74,-317"/>
<text text-anchor="middle" x="601" y="-294.8" font-family="Times,serif" font-size="14.00">HeaderComponent </text>
</g>
<!-- HeaderComponentModule&#45;&gt;HeaderComponent  -->
<g id="edge12" class="edge">
<title>HeaderComponentModule&#45;&gt;HeaderComponent </title>
<path fill="none" stroke="black" stroke-dasharray="5,2" d="M518.76,-245C549.43,-245 576.88,-245 576.88,-245 576.88,-245 576.88,-270.72 576.88,-270.72"/>
<polygon fill="black" stroke="black" points="573.38,-270.72 576.88,-280.72 580.38,-270.72 573.38,-270.72"/>
</g>
<!-- LoadingModeComponent  -->
<g id="node14" class="node">
<title>LoadingModeComponent </title>
<polygon fill="#fb8072" stroke="black" points="520.15,-317 355.85,-317 355.85,-281 520.15,-281 520.15,-317"/>
<text text-anchor="middle" x="438" y="-294.8" font-family="Times,serif" font-size="14.00">LoadingModeComponent </text>
</g>
<!-- HeaderComponentModule&#45;&gt;LoadingModeComponent  -->
<g id="edge13" class="edge">
<title>HeaderComponentModule&#45;&gt;LoadingModeComponent </title>
<path fill="none" stroke="black" stroke-dasharray="5,2" d="M437.29,-252.11C437.29,-252.11 437.29,-270.99 437.29,-270.99"/>
<polygon fill="black" stroke="black" points="433.79,-270.99 437.29,-280.99 440.79,-270.99 433.79,-270.99"/>
</g>
<!-- SearchModeComponent  -->
<g id="node15" class="node">
<title>SearchModeComponent </title>
<polygon fill="#fb8072" stroke="black" points="337.58,-317 182.42,-317 182.42,-281 337.58,-281 337.58,-317"/>
<text text-anchor="middle" x="260" y="-294.8" font-family="Times,serif" font-size="14.00">SearchModeComponent </text>
</g>
<!-- HeaderComponentModule&#45;&gt;SearchModeComponent  -->
<g id="edge14" class="edge">
<title>HeaderComponentModule&#45;&gt;SearchModeComponent </title>
<path fill="none" stroke="black" stroke-dasharray="5,2" d="M353.23,-245C297.7,-245 234.65,-245 234.65,-245 234.65,-245 234.65,-270.72 234.65,-270.72"/>
<polygon fill="black" stroke="black" points="231.15,-270.72 234.65,-280.72 238.15,-270.72 231.15,-270.72"/>
</g>
<!-- SortModeComponent  -->
<g id="node16" class="node">
<title>SortModeComponent </title>
<polygon fill="#fb8072" stroke="black" points="164.33,-317 23.67,-317 23.67,-281 164.33,-281 164.33,-317"/>
<text text-anchor="middle" x="94" y="-294.8" font-family="Times,serif" font-size="14.00">SortModeComponent </text>
</g>
<!-- HeaderComponentModule&#45;&gt;SortModeComponent  -->
<g id="edge15" class="edge">
<title>HeaderComponentModule&#45;&gt;SortModeComponent </title>
<path fill="none" stroke="black" stroke-dasharray="5,2" d="M353.33,-238C246.4,-238 73.7,-238 73.7,-238 73.7,-238 73.7,-270.7 73.7,-270.7"/>
<polygon fill="black" stroke="black" points="70.2,-270.7 73.7,-280.7 77.2,-270.7 70.2,-270.7"/>
</g>
<!-- CaseHeaderService -->
<g id="node7" class="node">
<title>CaseHeaderService</title>
<ellipse fill="#fdb462" stroke="black" cx="911" cy="-104" rx="86.77" ry="18"/>
<text text-anchor="middle" x="911" y="-99.8" font-family="Times,serif" font-size="14.00">CaseHeaderService</text>
</g>
<!-- CaseHeaderService&#45;&gt;HeaderComponent -->
<g id="edge3" class="edge">
<title>CaseHeaderService&#45;&gt;HeaderComponent</title>
<path fill="none" stroke="black" d="M911,-122.06C911,-126.49 911,-130 911,-130 911,-130 647.04,-130 647.04,-130 647.04,-130 647.04,-140.87 647.04,-140.87"/>
<polygon fill="black" stroke="black" points="643.54,-140.87 647.04,-150.87 650.54,-140.87 643.54,-140.87"/>
</g>
<!-- TaskHeaderService -->
<g id="node8" class="node">
<title>TaskHeaderService</title>
<ellipse fill="#fdb462" stroke="black" cx="720" cy="-104" rx="86.77" ry="18"/>
<text text-anchor="middle" x="720" y="-99.8" font-family="Times,serif" font-size="14.00">TaskHeaderService</text>
</g>
<!-- TaskHeaderService&#45;&gt;HeaderComponent -->
<g id="edge4" class="edge">
<title>TaskHeaderService&#45;&gt;HeaderComponent</title>
<path fill="none" stroke="black" d="M640.2,-111.2C640.2,-111.2 640.2,-140.96 640.2,-140.96"/>
<polygon fill="black" stroke="black" points="636.7,-140.96 640.2,-150.96 643.7,-140.96 636.7,-140.96"/>
</g>
<!-- WorkflowHeaderService -->
<g id="node9" class="node">
<title>WorkflowHeaderService</title>
<ellipse fill="#fdb462" stroke="black" cx="508" cy="-104" rx="107.6" ry="18"/>
<text text-anchor="middle" x="508" y="-99.8" font-family="Times,serif" font-size="14.00">WorkflowHeaderService</text>
</g>
<!-- WorkflowHeaderService&#45;&gt;HeaderComponent -->
<g id="edge5" class="edge">
<title>WorkflowHeaderService&#45;&gt;HeaderComponent</title>
<path fill="none" stroke="black" d="M594.7,-114.73C594.7,-114.73 594.7,-140.87 594.7,-140.87"/>
<polygon fill="black" stroke="black" points="591.2,-140.87 594.7,-150.87 598.2,-140.87 591.2,-140.87"/>
</g>
<!-- HeaderSearchService -->
<g id="node10" class="node">
<title>HeaderSearchService</title>
<ellipse fill="#fdb462" stroke="black" cx="288" cy="-104" rx="94.28" ry="18"/>
<text text-anchor="middle" x="288" y="-99.8" font-family="Times,serif" font-size="14.00">HeaderSearchService</text>
</g>
<!-- HeaderSearchService&#45;&gt;HeaderComponent -->
<g id="edge6" class="edge">
<title>HeaderSearchService&#45;&gt;HeaderComponent</title>
<path fill="none" stroke="black" d="M367.91,-113.72C367.91,-123.46 367.91,-137 367.91,-137 367.91,-137 573.84,-137 573.84,-137 573.84,-137 573.84,-140.76 573.84,-140.76"/>
<polygon fill="black" stroke="black" points="570.34,-140.76 573.84,-150.76 577.34,-140.76 570.34,-140.76"/>
</g>
<!-- CategoryFactory -->
<g id="node11" class="node">
<title>CategoryFactory</title>
<ellipse fill="#fdb462" stroke="black" cx="100" cy="-104" rx="75.86" ry="18"/>
<text text-anchor="middle" x="100" y="-99.8" font-family="Times,serif" font-size="14.00">CategoryFactory</text>
</g>
<!-- CategoryFactory&#45;&gt;HeaderComponent -->
<g id="edge7" class="edge">
<title>CategoryFactory&#45;&gt;HeaderComponent</title>
<path fill="none" stroke="black" d="M170.8,-110.61C170.8,-121.97 170.8,-144 170.8,-144 170.8,-144 552.98,-144 552.98,-144 552.98,-144 552.98,-144.68 552.98,-144.68"/>
<polygon fill="black" stroke="black" points="549.48,-140.83 552.98,-150.83 556.48,-140.83 549.48,-140.83"/>
</g>
</g>
</svg>
