<?xml version="1.0" encoding="UTF-8" standalone="no"?>
<!DOCTYPE svg PUBLIC "-//W3C//DTD SVG 1.1//EN"
 "http://www.w3.org/Graphics/SVG/1.1/DTD/svg11.dtd">
<!-- Generated by graphviz version 2.47.0 (20210316.0004)
 -->
<!-- Title: dependencies Pages: 1 -->
<svg width="854pt" height="284pt"
 viewBox="0.00 0.00 854.00 284.00" xmlns="http://www.w3.org/2000/svg" xmlns:xlink="http://www.w3.org/1999/xlink">
<g id="graph0" class="graph" transform="scale(1 1) rotate(0) translate(4 280)">
<title>dependencies</title>
<polygon fill="white" stroke="transparent" points="-4,4 -4,-280 850,-280 850,4 -4,4"/>
<text text-anchor="start" x="402.01" y="-42.4" font-family="Times-12" font-weight="bold" font-size="14.00">Legend</text>
<polygon fill="#ffffb3" stroke="transparent" points="189,-10 189,-30 209,-30 209,-10 189,-10"/>
<text text-anchor="start" x="212.63" y="-15.4" font-family="Times-12" font-size="14.00"> &#160;Declarations</text>
<polygon fill="#8dd3c7" stroke="transparent" points="302,-10 302,-30 322,-30 322,-10 302,-10"/>
<text text-anchor="start" x="325.73" y="-15.4" font-family="Times-12" font-size="14.00"> &#160;Module</text>
<polygon fill="#80b1d3" stroke="transparent" points="388,-10 388,-30 408,-30 408,-10 388,-10"/>
<text text-anchor="start" x="411.78" y="-15.4" font-family="Times-12" font-size="14.00"> &#160;Bootstrap</text>
<polygon fill="#fdb462" stroke="transparent" points="485,-10 485,-30 505,-30 505,-10 485,-10"/>
<text text-anchor="start" x="508.67" y="-15.4" font-family="Times-12" font-size="14.00"> &#160;Providers</text>
<polygon fill="#fb8072" stroke="transparent" points="581,-10 581,-30 601,-30 601,-10 581,-10"/>
<text text-anchor="start" x="604.73" y="-15.4" font-family="Times-12" font-size="14.00"> &#160;Exports</text>
<g id="clust1" class="cluster">
<title>cluster_HeaderComponentModule</title>
<polygon fill="none" stroke="black" stroke-dasharray="1,5" points="8,-70 8,-268 838,-268 838,-70 8,-70"/>
</g>
<g id="clust9" class="cluster">
<title>cluster_HeaderComponentModule_exports</title>
<polygon fill="none" stroke="black" points="16,-208 16,-260 830,-260 830,-208 16,-208"/>
</g>
<g id="clust2" class="cluster">
<title>cluster_HeaderComponentModule_declarations</title>
<polygon fill="none" stroke="black" points="24,-78 24,-130 822,-130 822,-78 24,-78"/>
</g>
<!-- EditModeComponent -->
<g id="node1" class="node">
<title>EditModeComponent</title>
<polygon fill="#ffffb3" stroke="black" points="813.83,-122 676.17,-122 676.17,-86 813.83,-86 813.83,-122"/>
<text text-anchor="middle" x="745" y="-99.8" font-family="Times,serif" font-size="14.00">EditModeComponent</text>
</g>
<!-- HeaderComponentModule -->
<g id="node6" class="node">
<title>HeaderComponentModule</title>
<polygon fill="#8dd3c7" stroke="black" points="520.79,-187 517.79,-191 496.79,-191 493.79,-187 355.21,-187 355.21,-151 520.79,-151 520.79,-187"/>
<text text-anchor="middle" x="438" y="-164.8" font-family="Times,serif" font-size="14.00">HeaderComponentModule</text>
</g>
<!-- EditModeComponent&#45;&gt;HeaderComponentModule -->
<g id="edge1" class="edge">
<title>EditModeComponent&#45;&gt;HeaderComponentModule</title>
<path fill="none" stroke="black" d="M769.64,-122.27C769.64,-140.56 769.64,-166 769.64,-166 769.64,-166 530.83,-166 530.83,-166"/>
<polygon fill="black" stroke="black" points="530.83,-162.5 520.83,-166 530.83,-169.5 530.83,-162.5"/>
</g>
<!-- HeaderComponent -->
<g id="node2" class="node">
<title>HeaderComponent</title>
<polygon fill="#ffffb3" stroke="black" points="657.74,-122 536.26,-122 536.26,-86 657.74,-86 657.74,-122"/>
<text text-anchor="middle" x="597" y="-99.8" font-family="Times,serif" font-size="14.00">HeaderComponent</text>
</g>
<!-- HeaderComponent&#45;&gt;HeaderComponentModule -->
<g id="edge2" class="edge">
<title>HeaderComponent&#45;&gt;HeaderComponentModule</title>
<path fill="none" stroke="black" d="M618.04,-122.01C618.04,-138.05 618.04,-159 618.04,-159 618.04,-159 530.91,-159 530.91,-159"/>
<polygon fill="black" stroke="black" points="530.91,-155.5 520.91,-159 530.91,-162.5 530.91,-155.5"/>
</g>
<!-- LoadingModeComponent -->
<g id="node3" class="node">
<title>LoadingModeComponent</title>
<polygon fill="#ffffb3" stroke="black" points="518.15,-122 357.85,-122 357.85,-86 518.15,-86 518.15,-122"/>
<text text-anchor="middle" x="438" y="-99.8" font-family="Times,serif" font-size="14.00">LoadingModeComponent</text>
</g>
<!-- LoadingModeComponent&#45;&gt;HeaderComponentModule -->
<g id="edge3" class="edge">
<title>LoadingModeComponent&#45;&gt;HeaderComponentModule</title>
<path fill="none" stroke="black" d="M438,-122.11C438,-122.11 438,-140.99 438,-140.99"/>
<polygon fill="black" stroke="black" points="434.5,-140.99 438,-150.99 441.5,-140.99 434.5,-140.99"/>
</g>
<!-- SearchModeComponent -->
<g id="node4" class="node">
<title>SearchModeComponent</title>
<polygon fill="#ffffb3" stroke="black" points="340.08,-122 187.92,-122 187.92,-86 340.08,-86 340.08,-122"/>
<text text-anchor="middle" x="264" y="-99.8" font-family="Times,serif" font-size="14.00">SearchModeComponent</text>
</g>
<!-- SearchModeComponent&#45;&gt;HeaderComponentModule -->
<g id="edge4" class="edge">
<title>SearchModeComponent&#45;&gt;HeaderComponentModule</title>
<path fill="none" stroke="black" d="M287.85,-122.01C287.85,-138.05 287.85,-159 287.85,-159 287.85,-159 345.02,-159 345.02,-159"/>
<polygon fill="black" stroke="black" points="345.02,-162.5 355.02,-159 345.02,-155.5 345.02,-162.5"/>
</g>
<!-- SortModeComponent -->
<g id="node5" class="node">
<title>SortModeComponent</title>
<polygon fill="#ffffb3" stroke="black" points="169.83,-122 32.17,-122 32.17,-86 169.83,-86 169.83,-122"/>
<text text-anchor="middle" x="101" y="-99.8" font-family="Times,serif" font-size="14.00">SortModeComponent</text>
</g>
<!-- SortModeComponent&#45;&gt;HeaderComponentModule -->
<g id="edge5" class="edge">
<title>SortModeComponent&#45;&gt;HeaderComponentModule</title>
<path fill="none" stroke="black" d="M120.39,-122.27C120.39,-140.56 120.39,-166 120.39,-166 120.39,-166 344.97,-166 344.97,-166"/>
<polygon fill="black" stroke="black" points="344.97,-169.5 354.97,-166 344.97,-162.5 344.97,-169.5"/>
</g>
<!-- EditModeComponent  -->
<g id="node7" class="node">
<title>EditModeComponent </title>
<polygon fill="#fb8072" stroke="black" points="822.33,-252 681.67,-252 681.67,-216 822.33,-216 822.33,-252"/>
<text text-anchor="middle" x="752" y="-229.8" font-family="Times,serif" font-size="14.00">EditModeComponent </text>
</g>
<!-- HeaderComponentModule&#45;&gt;EditModeComponent  -->
<g id="edge6" class="edge">
<title>HeaderComponentModule&#45;&gt;EditModeComponent </title>
<path fill="none" stroke="black" stroke-dasharray="5,2" d="M520.8,-173C605.77,-173 725.61,-173 725.61,-173 725.61,-173 725.61,-205.7 725.61,-205.7"/>
<polygon fill="black" stroke="black" points="722.11,-205.7 725.61,-215.7 729.11,-205.7 722.11,-205.7"/>
</g>
<!-- HeaderComponent  -->
<g id="node8" class="node">
<title>HeaderComponent </title>
<polygon fill="#fb8072" stroke="black" points="663.74,-252 538.26,-252 538.26,-216 663.74,-216 663.74,-252"/>
<text text-anchor="middle" x="601" y="-229.8" font-family="Times,serif" font-size="14.00">HeaderComponent </text>
</g>
<!-- HeaderComponentModule&#45;&gt;HeaderComponent  -->
<g id="edge7" class="edge">
<title>HeaderComponentModule&#45;&gt;HeaderComponent </title>
<path fill="none" stroke="black" stroke-dasharray="5,2" d="M520.78,-180C551.13,-180 578.21,-180 578.21,-180 578.21,-180 578.21,-205.72 578.21,-205.72"/>
<polygon fill="black" stroke="black" points="574.71,-205.72 578.21,-215.72 581.71,-205.72 574.71,-205.72"/>
</g>
<!-- LoadingModeComponent  -->
<g id="node9" class="node">
<title>LoadingModeComponent </title>
<polygon fill="#fb8072" stroke="black" points="520.15,-252 355.85,-252 355.85,-216 520.15,-216 520.15,-252"/>
<text text-anchor="middle" x="438" y="-229.8" font-family="Times,serif" font-size="14.00">LoadingModeComponent </text>
</g>
<!-- HeaderComponentModule&#45;&gt;LoadingModeComponent  -->
<g id="edge8" class="edge">
<title>HeaderComponentModule&#45;&gt;LoadingModeComponent </title>
<path fill="none" stroke="black" stroke-dasharray="5,2" d="M438,-187.11C438,-187.11 438,-205.99 438,-205.99"/>
<polygon fill="black" stroke="black" points="434.5,-205.99 438,-215.99 441.5,-205.99 434.5,-205.99"/>
</g>
<!-- SearchModeComponent  -->
<g id="node10" class="node">
<title>SearchModeComponent </title>
<polygon fill="#fb8072" stroke="black" points="337.58,-252 182.42,-252 182.42,-216 337.58,-216 337.58,-252"/>
<text text-anchor="middle" x="260" y="-229.8" font-family="Times,serif" font-size="14.00">SearchModeComponent </text>
</g>
<!-- HeaderComponentModule&#45;&gt;SearchModeComponent  -->
<g id="edge9" class="edge">
<title>HeaderComponentModule&#45;&gt;SearchModeComponent </title>
<path fill="none" stroke="black" stroke-dasharray="5,2" d="M355.17,-180C300.12,-180 237.9,-180 237.9,-180 237.9,-180 237.9,-205.72 237.9,-205.72"/>
<polygon fill="black" stroke="black" points="234.4,-205.72 237.9,-215.72 241.4,-205.72 234.4,-205.72"/>
</g>
<!-- SortModeComponent  -->
<g id="node11" class="node">
<title>SortModeComponent </title>
<polygon fill="#fb8072" stroke="black" points="164.33,-252 23.67,-252 23.67,-216 164.33,-216 164.33,-252"/>
<text text-anchor="middle" x="94" y="-229.8" font-family="Times,serif" font-size="14.00">SortModeComponent </text>
</g>
<!-- HeaderComponentModule&#45;&gt;SortModeComponent  -->
<g id="edge10" class="edge">
<title>HeaderComponentModule&#45;&gt;SortModeComponent </title>
<path fill="none" stroke="black" stroke-dasharray="5,2" d="M355.03,-173C248.27,-173 76.36,-173 76.36,-173 76.36,-173 76.36,-205.7 76.36,-205.7"/>
<polygon fill="black" stroke="black" points="72.86,-205.7 76.36,-215.7 79.86,-205.7 72.86,-205.7"/>
</g>
</g>
</svg>
