<?xml version="1.0" encoding="UTF-8" standalone="no"?>
<!DOCTYPE svg PUBLIC "-//W3C//DTD SVG 1.1//EN"
 "http://www.w3.org/Graphics/SVG/1.1/DTD/svg11.dtd">
<!-- Generated by graphviz version 2.47.3 (20210619.1520)
 -->
<!-- Title: dependencies Pages: 1 -->
<svg width="1696pt" height="312pt"
 viewBox="0.00 0.00 1696.00 311.80" xmlns="http://www.w3.org/2000/svg" xmlns:xlink="http://www.w3.org/1999/xlink">
<g id="graph0" class="graph" transform="scale(1 1) rotate(0) translate(4 307.8)">
<title>dependencies</title>
<polygon fill="white" stroke="transparent" points="-4,4 -4,-307.8 1692,-307.8 1692,4 -4,4"/>
<text text-anchor="middle" x="844" y="-8.2" font-family="sans-serif" font-size="14.00">dependencies</text>
<g id="clust1" class="cluster">
<title>cluster_HeaderComponentModule</title>
<polygon fill="none" stroke="black" stroke-dasharray="1,5" points="8,-32.8 8,-295.8 1680,-295.8 1680,-32.8 8,-32.8"/>
</g>
<g id="clust4" class="cluster">
<title>cluster_HeaderComponentModule_HeaderComponent_providers</title>
<polygon fill="none" stroke="black" points="682,-40.8 682,-157.8 1672,-157.8 1672,-40.8 682,-40.8"/>
</g>
<g id="clust9" class="cluster">
<title>cluster_HeaderComponentModule_exports</title>
<polygon fill="none" stroke="black" points="16,-235.8 16,-287.8 830,-287.8 830,-235.8 16,-235.8"/>
</g>
<g id="clust2" class="cluster">
<title>cluster_HeaderComponentModule_declarations</title>
<polygon fill="none" stroke="black" points="16,-105.8 16,-157.8 674,-157.8 674,-105.8 16,-105.8"/>
</g>
<!-- EditModeComponent -->
<g id="node1" class="node">
<title>EditModeComponent</title>
<polygon fill="#ffffb3" stroke="black" points="665.83,-149.8 528.17,-149.8 528.17,-113.8 665.83,-113.8 665.83,-149.8"/>
<text text-anchor="middle" x="597" y="-127.6" font-family="Times,serif" font-size="14.00">EditModeComponent</text>
</g>
<!-- HeaderComponentModule -->
<g id="node6" class="node">
<title>HeaderComponentModule</title>
<polygon fill="#8dd3c7" stroke="black" points="516.79,-214.8 513.79,-218.8 492.79,-218.8 489.79,-214.8 351.21,-214.8 351.21,-178.8 516.79,-178.8 516.79,-214.8"/>
<text text-anchor="middle" x="434" y="-192.6" font-family="Times,serif" font-size="14.00">HeaderComponentModule</text>
</g>
<!-- EditModeComponent&#45;&gt;HeaderComponentModule -->
<g id="edge1" class="edge">
<title>EditModeComponent&#45;&gt;HeaderComponentModule</title>
<path fill="none" stroke="black" d="M533.36,-149.81C533.36,-165.85 533.36,-186.8 533.36,-186.8 533.36,-186.8 526.95,-186.8 526.95,-186.8"/>
<polygon fill="black" stroke="black" points="526.95,-183.3 516.95,-186.8 526.95,-190.3 526.95,-183.3"/>
</g>
<!-- HeaderComponent -->
<g id="node2" class="node">
<title>HeaderComponent</title>
<polygon fill="#ffffb3" stroke="black" points="1124.74,-149.8 1003.26,-149.8 1003.26,-113.8 1124.74,-113.8 1124.74,-149.8"/>
<text text-anchor="middle" x="1064" y="-127.6" font-family="Times,serif" font-size="14.00">HeaderComponent</text>
</g>
<!-- HeaderComponent&#45;&gt;HeaderComponentModule -->
<g id="edge2" class="edge">
<title>HeaderComponent&#45;&gt;HeaderComponentModule</title>
<path fill="none" stroke="black" d="M1064,-150.07C1064,-168.36 1064,-193.8 1064,-193.8 1064,-193.8 526.69,-193.8 526.69,-193.8"/>
<polygon fill="black" stroke="black" points="526.69,-190.3 516.69,-193.8 526.69,-197.3 526.69,-190.3"/>
</g>
<!-- LoadingModeComponent -->
<g id="node3" class="node">
<title>LoadingModeComponent</title>
<polygon fill="#ffffb3" stroke="black" points="510.15,-149.8 349.85,-149.8 349.85,-113.8 510.15,-113.8 510.15,-149.8"/>
<text text-anchor="middle" x="430" y="-127.6" font-family="Times,serif" font-size="14.00">LoadingModeComponent</text>
</g>
<!-- LoadingModeComponent&#45;&gt;HeaderComponentModule -->
<g id="edge8" class="edge">
<title>LoadingModeComponent&#45;&gt;HeaderComponentModule</title>
<path fill="none" stroke="black" d="M430.84,-149.91C430.84,-149.91 430.84,-168.79 430.84,-168.79"/>
<polygon fill="black" stroke="black" points="427.34,-168.79 430.84,-178.79 434.34,-168.79 427.34,-168.79"/>
</g>
<!-- SearchModeComponent -->
<g id="node4" class="node">
<title>SearchModeComponent</title>
<polygon fill="#ffffb3" stroke="black" points="332.08,-149.8 179.92,-149.8 179.92,-113.8 332.08,-113.8 332.08,-149.8"/>
<text text-anchor="middle" x="256" y="-127.6" font-family="Times,serif" font-size="14.00">SearchModeComponent</text>
</g>
<!-- SearchModeComponent&#45;&gt;HeaderComponentModule -->
<g id="edge9" class="edge">
<title>SearchModeComponent&#45;&gt;HeaderComponentModule</title>
<path fill="none" stroke="black" d="M232.15,-149.81C232.15,-165.85 232.15,-186.8 232.15,-186.8 232.15,-186.8 341.32,-186.8 341.32,-186.8"/>
<polygon fill="black" stroke="black" points="341.32,-190.3 351.32,-186.8 341.32,-183.3 341.32,-190.3"/>
</g>
<!-- SortModeComponent -->
<g id="node5" class="node">
<title>SortModeComponent</title>
<polygon fill="#ffffb3" stroke="black" points="161.83,-149.8 24.17,-149.8 24.17,-113.8 161.83,-113.8 161.83,-149.8"/>
<text text-anchor="middle" x="93" y="-127.6" font-family="Times,serif" font-size="14.00">SortModeComponent</text>
</g>
<!-- SortModeComponent&#45;&gt;HeaderComponentModule -->
<g id="edge10" class="edge">
<title>SortModeComponent&#45;&gt;HeaderComponentModule</title>
<path fill="none" stroke="black" d="M70.11,-150.07C70.11,-168.36 70.11,-193.8 70.11,-193.8 70.11,-193.8 340.97,-193.8 340.97,-193.8"/>
<polygon fill="black" stroke="black" points="340.97,-197.3 350.97,-193.8 340.97,-190.3 340.97,-197.3"/>
</g>
<!-- EditModeComponent  -->
<g id="node12" class="node">
<title>EditModeComponent </title>
<polygon fill="#fb8072" stroke="black" points="822.33,-279.8 681.67,-279.8 681.67,-243.8 822.33,-243.8 822.33,-279.8"/>
<text text-anchor="middle" x="752" y="-257.6" font-family="Times,serif" font-size="14.00">EditModeComponent </text>
</g>
<!-- HeaderComponentModule&#45;&gt;EditModeComponent  -->
<g id="edge11" class="edge">
<title>HeaderComponentModule&#45;&gt;EditModeComponent </title>
<path fill="none" stroke="black" stroke-dasharray="5,2" d="M516.81,-200.8C590.2,-200.8 685.83,-200.8 685.83,-200.8 685.83,-200.8 685.83,-233.5 685.83,-233.5"/>
<polygon fill="black" stroke="black" points="682.33,-233.5 685.83,-243.5 689.33,-233.5 682.33,-233.5"/>
</g>
<!-- HeaderComponent  -->
<g id="node13" class="node">
<title>HeaderComponent </title>
<polygon fill="#fb8072" stroke="black" points="663.74,-279.8 538.26,-279.8 538.26,-243.8 663.74,-243.8 663.74,-279.8"/>
<text text-anchor="middle" x="601" y="-257.6" font-family="Times,serif" font-size="14.00">HeaderComponent </text>
</g>
<!-- HeaderComponentModule&#45;&gt;HeaderComponent  -->
<g id="edge12" class="edge">
<title>HeaderComponentModule&#45;&gt;HeaderComponent </title>
<path fill="none" stroke="black" stroke-dasharray="5,2" d="M517.01,-207.8C558.92,-207.8 601,-207.8 601,-207.8 601,-207.8 601,-233.52 601,-233.52"/>
<polygon fill="black" stroke="black" points="597.5,-233.52 601,-243.52 604.5,-233.52 597.5,-233.52"/>
</g>
<!-- LoadingModeComponent  -->
<g id="node14" class="node">
<title>LoadingModeComponent </title>
<polygon fill="#fb8072" stroke="black" points="520.15,-279.8 355.85,-279.8 355.85,-243.8 520.15,-243.8 520.15,-279.8"/>
<text text-anchor="middle" x="438" y="-257.6" font-family="Times,serif" font-size="14.00">LoadingModeComponent </text>
</g>
<!-- HeaderComponentModule&#45;&gt;LoadingModeComponent  -->
<g id="edge13" class="edge">
<title>HeaderComponentModule&#45;&gt;LoadingModeComponent </title>
<path fill="none" stroke="black" stroke-dasharray="5,2" d="M436.29,-214.91C436.29,-214.91 436.29,-233.79 436.29,-233.79"/>
<polygon fill="black" stroke="black" points="432.79,-233.79 436.29,-243.79 439.79,-233.79 432.79,-233.79"/>
</g>
<!-- SearchModeComponent  -->
<g id="node15" class="node">
<title>SearchModeComponent </title>
<polygon fill="#fb8072" stroke="black" points="337.58,-279.8 182.42,-279.8 182.42,-243.8 337.58,-243.8 337.58,-279.8"/>
<text text-anchor="middle" x="260" y="-257.6" font-family="Times,serif" font-size="14.00">SearchModeComponent </text>
</g>
<!-- HeaderComponentModule&#45;&gt;SearchModeComponent  -->
<g id="edge14" class="edge">
<title>HeaderComponentModule&#45;&gt;SearchModeComponent </title>
<path fill="none" stroke="black" stroke-dasharray="5,2" d="M350.94,-207.8C315.47,-207.8 282.1,-207.8 282.1,-207.8 282.1,-207.8 282.1,-233.52 282.1,-233.52"/>
<polygon fill="black" stroke="black" points="278.6,-233.52 282.1,-243.52 285.6,-233.52 278.6,-233.52"/>
</g>
<!-- SortModeComponent  -->
<g id="node16" class="node">
<title>SortModeComponent </title>
<polygon fill="#fb8072" stroke="black" points="164.33,-279.8 23.67,-279.8 23.67,-243.8 164.33,-243.8 164.33,-279.8"/>
<text text-anchor="middle" x="94" y="-257.6" font-family="Times,serif" font-size="14.00">SortModeComponent </text>
</g>
<!-- HeaderComponentModule&#45;&gt;SortModeComponent  -->
<g id="edge15" class="edge">
<title>HeaderComponentModule&#45;&gt;SortModeComponent </title>
<path fill="none" stroke="black" stroke-dasharray="5,2" d="M351.25,-200.8C256.99,-200.8 115.89,-200.8 115.89,-200.8 115.89,-200.8 115.89,-233.5 115.89,-233.5"/>
<polygon fill="black" stroke="black" points="112.39,-233.5 115.89,-243.5 119.39,-233.5 112.39,-233.5"/>
</g>
<!-- CaseHeaderService -->
<g id="node7" class="node">
<title>CaseHeaderService</title>
<ellipse fill="#fdb462" stroke="black" cx="1577" cy="-66.8" rx="86.77" ry="18"/>
<text text-anchor="middle" x="1577" y="-62.6" font-family="Times,serif" font-size="14.00">CaseHeaderService</text>
</g>
<!-- CaseHeaderService&#45;&gt;HeaderComponent -->
<g id="edge3" class="edge">
<title>CaseHeaderService&#45;&gt;HeaderComponent</title>
<path fill="none" stroke="black" d="M1577,-85.08C1577,-106.12 1577,-137.8 1577,-137.8 1577,-137.8 1134.86,-137.8 1134.86,-137.8"/>
<polygon fill="black" stroke="black" points="1134.86,-134.3 1124.86,-137.8 1134.86,-141.3 1134.86,-134.3"/>
</g>
<!-- TaskHeaderService -->
<g id="node8" class="node">
<title>TaskHeaderService</title>
<ellipse fill="#fdb462" stroke="black" cx="1386" cy="-66.8" rx="86.77" ry="18"/>
<text text-anchor="middle" x="1386" y="-62.6" font-family="Times,serif" font-size="14.00">TaskHeaderService</text>
</g>
<!-- TaskHeaderService&#45;&gt;HeaderComponent -->
<g id="edge4" class="edge">
<title>TaskHeaderService&#45;&gt;HeaderComponent</title>
<path fill="none" stroke="black" d="M1386,-84.82C1386,-102.17 1386,-125.8 1386,-125.8 1386,-125.8 1134.94,-125.8 1134.94,-125.8"/>
<polygon fill="black" stroke="black" points="1134.94,-122.3 1124.94,-125.8 1134.94,-129.3 1134.94,-122.3"/>
</g>
<!-- WorkflowHeaderService -->
<g id="node9" class="node">
<title>WorkflowHeaderService</title>
<ellipse fill="#fdb462" stroke="black" cx="1174" cy="-66.8" rx="107.6" ry="18"/>
<text text-anchor="middle" x="1174" y="-62.6" font-family="Times,serif" font-size="14.00">WorkflowHeaderService</text>
</g>
<!-- WorkflowHeaderService&#45;&gt;HeaderComponent -->
<g id="edge5" class="edge">
<title>WorkflowHeaderService&#45;&gt;HeaderComponent</title>
<path fill="none" stroke="black" d="M1095.66,-79.33C1095.66,-79.33 1095.66,-103.65 1095.66,-103.65"/>
<polygon fill="black" stroke="black" points="1092.16,-103.65 1095.66,-113.65 1099.16,-103.65 1092.16,-103.65"/>
</g>
<!-- HeaderSearchService -->
<g id="node10" class="node">
<title>HeaderSearchService</title>
<ellipse fill="#fdb462" stroke="black" cx="954" cy="-66.8" rx="94.28" ry="18"/>
<text text-anchor="middle" x="954" y="-62.6" font-family="Times,serif" font-size="14.00">HeaderSearchService</text>
</g>
<!-- HeaderSearchService&#45;&gt;HeaderComponent -->
<g id="edge6" class="edge">
<title>HeaderSearchService&#45;&gt;HeaderComponent</title>
<path fill="none" stroke="black" d="M1025.63,-78.72C1025.63,-78.72 1025.63,-103.57 1025.63,-103.57"/>
<polygon fill="black" stroke="black" points="1022.13,-103.57 1025.63,-113.57 1029.13,-103.57 1022.13,-103.57"/>
</g>
<!-- CategoryFactory -->
<g id="node11" class="node">
<title>CategoryFactory</title>
<ellipse fill="#fdb462" stroke="black" cx="766" cy="-66.8" rx="75.86" ry="18"/>
<text text-anchor="middle" x="766" y="-62.6" font-family="Times,serif" font-size="14.00">CategoryFactory</text>
</g>
<!-- CategoryFactory&#45;&gt;HeaderComponent -->
<g id="edge7" class="edge">
<title>CategoryFactory&#45;&gt;HeaderComponent</title>
<path fill="none" stroke="black" d="M832.17,-75.84C832.17,-93.7 832.17,-131.8 832.17,-131.8 832.17,-131.8 993.09,-131.8 993.09,-131.8"/>
<polygon fill="black" stroke="black" points="993.09,-135.3 1003.09,-131.8 993.09,-128.3 993.09,-135.3"/>
</g>
</g>
</svg>
