<?xml version="1.0" encoding="UTF-8" standalone="no"?>
<!DOCTYPE svg PUBLIC "-//W3C//DTD SVG 1.1//EN"
 "http://www.w3.org/Graphics/SVG/1.1/DTD/svg11.dtd">
<!-- Generated by graphviz version 2.47.0 (20210316.0004)
 -->
<!-- Title: dependencies Pages: 1 -->
<svg width="1696pt" height="349pt"
 viewBox="0.00 0.00 1696.00 349.00" xmlns="http://www.w3.org/2000/svg" xmlns:xlink="http://www.w3.org/1999/xlink">
<g id="graph0" class="graph" transform="scale(1 1) rotate(0) translate(4 345)">
<title>dependencies</title>
<polygon fill="white" stroke="transparent" points="-4,4 -4,-345 1692,-345 1692,4 -4,4"/>
<text text-anchor="start" x="823.01" y="-42.4" font-family="Times-12" font-weight="bold" font-size="14.00">Legend</text>
<polygon fill="#ffffb3" stroke="transparent" points="610,-10 610,-30 630,-30 630,-10 610,-10"/>
<text text-anchor="start" x="633.63" y="-15.4" font-family="Times-12" font-size="14.00"> &#160;Declarations</text>
<polygon fill="#8dd3c7" stroke="transparent" points="723,-10 723,-30 743,-30 743,-10 723,-10"/>
<text text-anchor="start" x="746.73" y="-15.4" font-family="Times-12" font-size="14.00"> &#160;Module</text>
<polygon fill="#80b1d3" stroke="transparent" points="809,-10 809,-30 829,-30 829,-10 809,-10"/>
<text text-anchor="start" x="832.78" y="-15.4" font-family="Times-12" font-size="14.00"> &#160;Bootstrap</text>
<polygon fill="#fdb462" stroke="transparent" points="906,-10 906,-30 926,-30 926,-10 906,-10"/>
<text text-anchor="start" x="929.67" y="-15.4" font-family="Times-12" font-size="14.00"> &#160;Providers</text>
<polygon fill="#fb8072" stroke="transparent" points="1002,-10 1002,-30 1022,-30 1022,-10 1002,-10"/>
<text text-anchor="start" x="1025.73" y="-15.4" font-family="Times-12" font-size="14.00"> &#160;Exports</text>
<g id="clust1" class="cluster">
<title>cluster_HeaderComponentModule</title>
<polygon fill="none" stroke="black" stroke-dasharray="1,5" points="8,-70 8,-333 1680,-333 1680,-70 8,-70"/>
</g>
<g id="clust4" class="cluster">
<title>cluster_HeaderComponentModule_HeaderComponent_providers</title>
<polygon fill="none" stroke="black" points="682,-78 682,-195 1672,-195 1672,-78 682,-78"/>
</g>
<g id="clust9" class="cluster">
<title>cluster_HeaderComponentModule_exports</title>
<polygon fill="none" stroke="black" points="16,-273 16,-325 830,-325 830,-273 16,-273"/>
</g>
<g id="clust2" class="cluster">
<title>cluster_HeaderComponentModule_declarations</title>
<polygon fill="none" stroke="black" points="16,-143 16,-195 674,-195 674,-143 16,-143"/>
</g>
<!-- EditModeComponent -->
<g id="node1" class="node">
<title>EditModeComponent</title>
<polygon fill="#ffffb3" stroke="black" points="665.83,-187 528.17,-187 528.17,-151 665.83,-151 665.83,-187"/>
<text text-anchor="middle" x="597" y="-164.8" font-family="Times,serif" font-size="14.00">EditModeComponent</text>
</g>
<!-- HeaderComponentModule -->
<g id="node6" class="node">
<title>HeaderComponentModule</title>
<polygon fill="#8dd3c7" stroke="black" points="516.79,-252 513.79,-256 492.79,-256 489.79,-252 351.21,-252 351.21,-216 516.79,-216 516.79,-252"/>
<text text-anchor="middle" x="434" y="-229.8" font-family="Times,serif" font-size="14.00">HeaderComponentModule</text>
</g>
<!-- EditModeComponent&#45;&gt;HeaderComponentModule -->
<g id="edge1" class="edge">
<title>EditModeComponent&#45;&gt;HeaderComponentModule</title>
<path fill="none" stroke="black" d="M533.36,-187.01C533.36,-203.05 533.36,-224 533.36,-224 533.36,-224 526.95,-224 526.95,-224"/>
<polygon fill="black" stroke="black" points="526.95,-220.5 516.95,-224 526.95,-227.5 526.95,-220.5"/>
</g>
<!-- HeaderComponent -->
<g id="node2" class="node">
<title>HeaderComponent</title>
<polygon fill="#ffffb3" stroke="black" points="1124.74,-187 1003.26,-187 1003.26,-151 1124.74,-151 1124.74,-187"/>
<text text-anchor="middle" x="1064" y="-164.8" font-family="Times,serif" font-size="14.00">HeaderComponent</text>
</g>
<!-- HeaderComponent&#45;&gt;HeaderComponentModule -->
<g id="edge2" class="edge">
<title>HeaderComponent&#45;&gt;HeaderComponentModule</title>
<path fill="none" stroke="black" d="M1064,-187.27C1064,-205.56 1064,-231 1064,-231 1064,-231 526.69,-231 526.69,-231"/>
<polygon fill="black" stroke="black" points="526.69,-227.5 516.69,-231 526.69,-234.5 526.69,-227.5"/>
</g>
<!-- LoadingModeComponent -->
<g id="node3" class="node">
<title>LoadingModeComponent</title>
<polygon fill="#ffffb3" stroke="black" points="510.15,-187 349.85,-187 349.85,-151 510.15,-151 510.15,-187"/>
<text text-anchor="middle" x="430" y="-164.8" font-family="Times,serif" font-size="14.00">LoadingModeComponent</text>
</g>
<!-- LoadingModeComponent&#45;&gt;HeaderComponentModule -->
<g id="edge8" class="edge">
<title>LoadingModeComponent&#45;&gt;HeaderComponentModule</title>
<path fill="none" stroke="black" d="M430.84,-187.11C430.84,-187.11 430.84,-205.99 430.84,-205.99"/>
<polygon fill="black" stroke="black" points="427.34,-205.99 430.84,-215.99 434.34,-205.99 427.34,-205.99"/>
</g>
<!-- SearchModeComponent -->
<g id="node4" class="node">
<title>SearchModeComponent</title>
<polygon fill="#ffffb3" stroke="black" points="332.08,-187 179.92,-187 179.92,-151 332.08,-151 332.08,-187"/>
<text text-anchor="middle" x="256" y="-164.8" font-family="Times,serif" font-size="14.00">SearchModeComponent</text>
</g>
<!-- SearchModeComponent&#45;&gt;HeaderComponentModule -->
<g id="edge9" class="edge">
<title>SearchModeComponent&#45;&gt;HeaderComponentModule</title>
<path fill="none" stroke="black" d="M232.15,-187.01C232.15,-203.05 232.15,-224 232.15,-224 232.15,-224 341.32,-224 341.32,-224"/>
<polygon fill="black" stroke="black" points="341.32,-227.5 351.32,-224 341.32,-220.5 341.32,-227.5"/>
</g>
<!-- SortModeComponent -->
<g id="node5" class="node">
<title>SortModeComponent</title>
<polygon fill="#ffffb3" stroke="black" points="161.83,-187 24.17,-187 24.17,-151 161.83,-151 161.83,-187"/>
<text text-anchor="middle" x="93" y="-164.8" font-family="Times,serif" font-size="14.00">SortModeComponent</text>
</g>
<!-- SortModeComponent&#45;&gt;HeaderComponentModule -->
<g id="edge10" class="edge">
<title>SortModeComponent&#45;&gt;HeaderComponentModule</title>
<path fill="none" stroke="black" d="M70.11,-187.27C70.11,-205.56 70.11,-231 70.11,-231 70.11,-231 340.97,-231 340.97,-231"/>
<polygon fill="black" stroke="black" points="340.97,-234.5 350.97,-231 340.97,-227.5 340.97,-234.5"/>
</g>
<!-- EditModeComponent  -->
<g id="node12" class="node">
<title>EditModeComponent </title>
<polygon fill="#fb8072" stroke="black" points="822.33,-317 681.67,-317 681.67,-281 822.33,-281 822.33,-317"/>
<text text-anchor="middle" x="752" y="-294.8" font-family="Times,serif" font-size="14.00">EditModeComponent </text>
</g>
<!-- HeaderComponentModule&#45;&gt;EditModeComponent  -->
<g id="edge11" class="edge">
<title>HeaderComponentModule&#45;&gt;EditModeComponent </title>
<path fill="none" stroke="black" stroke-dasharray="5,2" d="M516.81,-238C590.2,-238 685.83,-238 685.83,-238 685.83,-238 685.83,-270.7 685.83,-270.7"/>
<polygon fill="black" stroke="black" points="682.33,-270.7 685.83,-280.7 689.33,-270.7 682.33,-270.7"/>
</g>
<!-- HeaderComponent  -->
<g id="node13" class="node">
<title>HeaderComponent </title>
<polygon fill="#fb8072" stroke="black" points="663.74,-317 538.26,-317 538.26,-281 663.74,-281 663.74,-317"/>
<text text-anchor="middle" x="601" y="-294.8" font-family="Times,serif" font-size="14.00">HeaderComponent </text>
</g>
<!-- HeaderComponentModule&#45;&gt;HeaderComponent  -->
<g id="edge12" class="edge">
<title>HeaderComponentModule&#45;&gt;HeaderComponent </title>
<path fill="none" stroke="black" stroke-dasharray="5,2" d="M517.01,-245C558.92,-245 601,-245 601,-245 601,-245 601,-270.72 601,-270.72"/>
<polygon fill="black" stroke="black" points="597.5,-270.72 601,-280.72 604.5,-270.72 597.5,-270.72"/>
</g>
<!-- LoadingModeComponent  -->
<g id="node14" class="node">
<title>LoadingModeComponent </title>
<polygon fill="#fb8072" stroke="black" points="520.15,-317 355.85,-317 355.85,-281 520.15,-281 520.15,-317"/>
<text text-anchor="middle" x="438" y="-294.8" font-family="Times,serif" font-size="14.00">LoadingModeComponent </text>
</g>
<!-- HeaderComponentModule&#45;&gt;LoadingModeComponent  -->
<g id="edge13" class="edge">
<title>HeaderComponentModule&#45;&gt;LoadingModeComponent </title>
<path fill="none" stroke="black" stroke-dasharray="5,2" d="M436.29,-252.11C436.29,-252.11 436.29,-270.99 436.29,-270.99"/>
<polygon fill="black" stroke="black" points="432.79,-270.99 436.29,-280.99 439.79,-270.99 432.79,-270.99"/>
</g>
<!-- SearchModeComponent  -->
<g id="node15" class="node">
<title>SearchModeComponent </title>
<polygon fill="#fb8072" stroke="black" points="337.58,-317 182.42,-317 182.42,-281 337.58,-281 337.58,-317"/>
<text text-anchor="middle" x="260" y="-294.8" font-family="Times,serif" font-size="14.00">SearchModeComponent </text>
</g>
<!-- HeaderComponentModule&#45;&gt;SearchModeComponent  -->
<g id="edge14" class="edge">
<title>HeaderComponentModule&#45;&gt;SearchModeComponent </title>
<path fill="none" stroke="black" stroke-dasharray="5,2" d="M350.94,-245C315.47,-245 282.1,-245 282.1,-245 282.1,-245 282.1,-270.72 282.1,-270.72"/>
<polygon fill="black" stroke="black" points="278.6,-270.72 282.1,-280.72 285.6,-270.72 278.6,-270.72"/>
</g>
<!-- SortModeComponent  -->
<g id="node16" class="node">
<title>SortModeComponent </title>
<polygon fill="#fb8072" stroke="black" points="164.33,-317 23.67,-317 23.67,-281 164.33,-281 164.33,-317"/>
<text text-anchor="middle" x="94" y="-294.8" font-family="Times,serif" font-size="14.00">SortModeComponent </text>
</g>
<!-- HeaderComponentModule&#45;&gt;SortModeComponent  -->
<g id="edge15" class="edge">
<title>HeaderComponentModule&#45;&gt;SortModeComponent </title>
<path fill="none" stroke="black" stroke-dasharray="5,2" d="M351.25,-238C256.99,-238 115.89,-238 115.89,-238 115.89,-238 115.89,-270.7 115.89,-270.7"/>
<polygon fill="black" stroke="black" points="112.39,-270.7 115.89,-280.7 119.39,-270.7 112.39,-270.7"/>
</g>
<!-- CaseHeaderService -->
<g id="node7" class="node">
<title>CaseHeaderService</title>
<ellipse fill="#fdb462" stroke="black" cx="1577" cy="-104" rx="86.77" ry="18"/>
<text text-anchor="middle" x="1577" y="-99.8" font-family="Times,serif" font-size="14.00">CaseHeaderService</text>
</g>
<!-- CaseHeaderService&#45;&gt;HeaderComponent -->
<g id="edge3" class="edge">
<title>CaseHeaderService&#45;&gt;HeaderComponent</title>
<path fill="none" stroke="black" d="M1577,-122.28C1577,-143.32 1577,-175 1577,-175 1577,-175 1134.86,-175 1134.86,-175"/>
<polygon fill="black" stroke="black" points="1134.86,-171.5 1124.86,-175 1134.86,-178.5 1134.86,-171.5"/>
</g>
<!-- TaskHeaderService -->
<g id="node8" class="node">
<title>TaskHeaderService</title>
<ellipse fill="#fdb462" stroke="black" cx="1386" cy="-104" rx="86.77" ry="18"/>
<text text-anchor="middle" x="1386" y="-99.8" font-family="Times,serif" font-size="14.00">TaskHeaderService</text>
</g>
<!-- TaskHeaderService&#45;&gt;HeaderComponent -->
<g id="edge4" class="edge">
<title>TaskHeaderService&#45;&gt;HeaderComponent</title>
<path fill="none" stroke="black" d="M1386,-122.02C1386,-139.37 1386,-163 1386,-163 1386,-163 1134.94,-163 1134.94,-163"/>
<polygon fill="black" stroke="black" points="1134.94,-159.5 1124.94,-163 1134.94,-166.5 1134.94,-159.5"/>
</g>
<!-- WorkflowHeaderService -->
<g id="node9" class="node">
<title>WorkflowHeaderService</title>
<ellipse fill="#fdb462" stroke="black" cx="1174" cy="-104" rx="107.6" ry="18"/>
<text text-anchor="middle" x="1174" y="-99.8" font-family="Times,serif" font-size="14.00">WorkflowHeaderService</text>
</g>
<!-- WorkflowHeaderService&#45;&gt;HeaderComponent -->
<g id="edge5" class="edge">
<title>WorkflowHeaderService&#45;&gt;HeaderComponent</title>
<path fill="none" stroke="black" d="M1095.66,-116.53C1095.66,-116.53 1095.66,-140.85 1095.66,-140.85"/>
<polygon fill="black" stroke="black" points="1092.16,-140.85 1095.66,-150.85 1099.16,-140.85 1092.16,-140.85"/>
</g>
<!-- HeaderSearchService -->
<g id="node10" class="node">
<title>HeaderSearchService</title>
<ellipse fill="#fdb462" stroke="black" cx="954" cy="-104" rx="94.28" ry="18"/>
<text text-anchor="middle" x="954" y="-99.8" font-family="Times,serif" font-size="14.00">HeaderSearchService</text>
</g>
<!-- HeaderSearchService&#45;&gt;HeaderComponent -->
<g id="edge6" class="edge">
<title>HeaderSearchService&#45;&gt;HeaderComponent</title>
<path fill="none" stroke="black" d="M1025.63,-115.92C1025.63,-115.92 1025.63,-140.77 1025.63,-140.77"/>
<polygon fill="black" stroke="black" points="1022.13,-140.77 1025.63,-150.77 1029.13,-140.77 1022.13,-140.77"/>
</g>
<!-- CategoryFactory -->
<g id="node11" class="node">
<title>CategoryFactory</title>
<ellipse fill="#fdb462" stroke="black" cx="766" cy="-104" rx="75.86" ry="18"/>
<text text-anchor="middle" x="766" y="-99.8" font-family="Times,serif" font-size="14.00">CategoryFactory</text>
</g>
<!-- CategoryFactory&#45;&gt;HeaderComponent -->
<g id="edge7" class="edge">
<title>CategoryFactory&#45;&gt;HeaderComponent</title>
<path fill="none" stroke="black" d="M832.17,-113.04C832.17,-130.9 832.17,-169 832.17,-169 832.17,-169 993.09,-169 993.09,-169"/>
<polygon fill="black" stroke="black" points="993.09,-172.5 1003.09,-169 993.09,-165.5 993.09,-172.5"/>
</g>
</g>
</svg>
