<?xml version="1.0" encoding="UTF-8" standalone="no"?>
<!DOCTYPE svg PUBLIC "-//W3C//DTD SVG 1.1//EN"
 "http://www.w3.org/Graphics/SVG/1.1/DTD/svg11.dtd">
<!-- Generated by graphviz version 5.0.0 (20220707.1540)
 -->
<!-- Title: dependencies Pages: 1 -->
<svg width="854pt" height="247pt"
 viewBox="0.00 0.00 854.00 246.80" xmlns="http://www.w3.org/2000/svg" xmlns:xlink="http://www.w3.org/1999/xlink">
<g id="graph0" class="graph" transform="scale(1 1) rotate(0) translate(4 242.8)">
<title>dependencies</title>
<polygon fill="white" stroke="transparent" points="-4,4 -4,-242.8 850,-242.8 850,4 -4,4"/>
<text text-anchor="middle" x="423" y="-8.2" font-family="sans-serif" font-size="14.00">dependencies</text>
<g id="clust1" class="cluster">
<title>cluster_HeaderComponentModule</title>
<polygon fill="none" stroke="black" stroke-dasharray="1,5" points="8,-32.8 8,-230.8 838,-230.8 838,-32.8 8,-32.8"/>
</g>
<g id="clust2" class="cluster">
<title>cluster_HeaderComponentModule_declarations</title>
<polygon fill="none" stroke="black" points="24,-40.8 24,-92.8 822,-92.8 822,-40.8 24,-40.8"/>
</g>
<g id="clust9" class="cluster">
<title>cluster_HeaderComponentModule_exports</title>
<polygon fill="none" stroke="black" points="16,-170.8 16,-222.8 830,-222.8 830,-170.8 16,-170.8"/>
</g>
<!-- EditModeComponent -->
<g id="node1" class="node">
<title>EditModeComponent</title>
<polygon fill="#ffffb3" stroke="black" points="813.82,-84.8 676.18,-84.8 676.18,-48.8 813.82,-48.8 813.82,-84.8"/>
<text text-anchor="middle" x="745" y="-62.6" font-family="Times,serif" font-size="14.00">EditModeComponent</text>
</g>
<!-- HeaderComponentModule -->
<g id="node6" class="node">
<title>HeaderComponentModule</title>
<polygon fill="#8dd3c7" stroke="black" points="520.8,-149.8 517.8,-153.8 496.8,-153.8 493.8,-149.8 355.2,-149.8 355.2,-113.8 520.8,-113.8 520.8,-149.8"/>
<text text-anchor="middle" x="438" y="-127.6" font-family="Times,serif" font-size="14.00">HeaderComponentModule</text>
</g>
<!-- EditModeComponent&#45;&gt;HeaderComponentModule -->
<g id="edge1" class="edge">
<title>EditModeComponent&#45;&gt;HeaderComponentModule</title>
<path fill="none" stroke="black" d="M769.64,-85.07C769.64,-103.36 769.64,-128.8 769.64,-128.8 769.64,-128.8 530.83,-128.8 530.83,-128.8"/>
<polygon fill="black" stroke="black" points="530.83,-125.3 520.83,-128.8 530.83,-132.3 530.83,-125.3"/>
</g>
<!-- HeaderComponent -->
<g id="node2" class="node">
<title>HeaderComponent</title>
<polygon fill="#ffffb3" stroke="black" points="657.75,-84.8 536.25,-84.8 536.25,-48.8 657.75,-48.8 657.75,-84.8"/>
<text text-anchor="middle" x="597" y="-62.6" font-family="Times,serif" font-size="14.00">HeaderComponent</text>
</g>
<!-- HeaderComponent&#45;&gt;HeaderComponentModule -->
<g id="edge2" class="edge">
<title>HeaderComponent&#45;&gt;HeaderComponentModule</title>
<path fill="none" stroke="black" d="M618.04,-84.81C618.04,-100.85 618.04,-121.8 618.04,-121.8 618.04,-121.8 530.91,-121.8 530.91,-121.8"/>
<polygon fill="black" stroke="black" points="530.91,-118.3 520.91,-121.8 530.91,-125.3 530.91,-118.3"/>
</g>
<!-- LoadingModeComponent -->
<g id="node3" class="node">
<title>LoadingModeComponent</title>
<polygon fill="#ffffb3" stroke="black" points="518.15,-84.8 357.85,-84.8 357.85,-48.8 518.15,-48.8 518.15,-84.8"/>
<text text-anchor="middle" x="438" y="-62.6" font-family="Times,serif" font-size="14.00">LoadingModeComponent</text>
</g>
<!-- LoadingModeComponent&#45;&gt;HeaderComponentModule -->
<g id="edge3" class="edge">
<title>LoadingModeComponent&#45;&gt;HeaderComponentModule</title>
<path fill="none" stroke="black" d="M438,-84.91C438,-84.91 438,-103.79 438,-103.79"/>
<polygon fill="black" stroke="black" points="434.5,-103.79 438,-113.79 441.5,-103.79 434.5,-103.79"/>
</g>
<!-- SearchModeComponent -->
<g id="node4" class="node">
<title>SearchModeComponent</title>
<polygon fill="#ffffb3" stroke="black" points="340.08,-84.8 187.92,-84.8 187.92,-48.8 340.08,-48.8 340.08,-84.8"/>
<text text-anchor="middle" x="264" y="-62.6" font-family="Times,serif" font-size="14.00">SearchModeComponent</text>
</g>
<!-- SearchModeComponent&#45;&gt;HeaderComponentModule -->
<g id="edge4" class="edge">
<title>SearchModeComponent&#45;&gt;HeaderComponentModule</title>
<path fill="none" stroke="black" d="M287.85,-84.81C287.85,-100.85 287.85,-121.8 287.85,-121.8 287.85,-121.8 345.02,-121.8 345.02,-121.8"/>
<polygon fill="black" stroke="black" points="345.02,-125.3 355.02,-121.8 345.02,-118.3 345.02,-125.3"/>
</g>
<!-- SortModeComponent -->
<g id="node5" class="node">
<title>SortModeComponent</title>
<polygon fill="#ffffb3" stroke="black" points="169.83,-84.8 32.17,-84.8 32.17,-48.8 169.83,-48.8 169.83,-84.8"/>
<text text-anchor="middle" x="101" y="-62.6" font-family="Times,serif" font-size="14.00">SortModeComponent</text>
</g>
<!-- SortModeComponent&#45;&gt;HeaderComponentModule -->
<g id="edge5" class="edge">
<title>SortModeComponent&#45;&gt;HeaderComponentModule</title>
<path fill="none" stroke="black" d="M120.39,-85.07C120.39,-103.36 120.39,-128.8 120.39,-128.8 120.39,-128.8 344.97,-128.8 344.97,-128.8"/>
<polygon fill="black" stroke="black" points="344.97,-132.3 354.97,-128.8 344.97,-125.3 344.97,-132.3"/>
</g>
<!-- EditModeComponent  -->
<g id="node7" class="node">
<title>EditModeComponent </title>
<polygon fill="#fb8072" stroke="black" points="822.32,-214.8 681.68,-214.8 681.68,-178.8 822.32,-178.8 822.32,-214.8"/>
<text text-anchor="middle" x="752" y="-192.6" font-family="Times,serif" font-size="14.00">EditModeComponent </text>
</g>
<!-- HeaderComponentModule&#45;&gt;EditModeComponent  -->
<g id="edge6" class="edge">
<title>HeaderComponentModule&#45;&gt;EditModeComponent </title>
<path fill="none" stroke="black" stroke-dasharray="5,2" d="M520.8,-135.8C605.77,-135.8 725.61,-135.8 725.61,-135.8 725.61,-135.8 725.61,-168.5 725.61,-168.5"/>
<polygon fill="black" stroke="black" points="722.11,-168.5 725.61,-178.5 729.11,-168.5 722.11,-168.5"/>
</g>
<!-- HeaderComponent  -->
<g id="node8" class="node">
<title>HeaderComponent </title>
<polygon fill="#fb8072" stroke="black" points="663.75,-214.8 538.25,-214.8 538.25,-178.8 663.75,-178.8 663.75,-214.8"/>
<text text-anchor="middle" x="601" y="-192.6" font-family="Times,serif" font-size="14.00">HeaderComponent </text>
</g>
<!-- HeaderComponentModule&#45;&gt;HeaderComponent  -->
<g id="edge7" class="edge">
<title>HeaderComponentModule&#45;&gt;HeaderComponent </title>
<path fill="none" stroke="black" stroke-dasharray="5,2" d="M520.78,-142.8C551.13,-142.8 578.21,-142.8 578.21,-142.8 578.21,-142.8 578.21,-168.52 578.21,-168.52"/>
<polygon fill="black" stroke="black" points="574.71,-168.52 578.21,-178.52 581.71,-168.52 574.71,-168.52"/>
</g>
<!-- LoadingModeComponent  -->
<g id="node9" class="node">
<title>LoadingModeComponent </title>
<polygon fill="#fb8072" stroke="black" points="520.15,-214.8 355.85,-214.8 355.85,-178.8 520.15,-178.8 520.15,-214.8"/>
<text text-anchor="middle" x="438" y="-192.6" font-family="Times,serif" font-size="14.00">LoadingModeComponent </text>
</g>
<!-- HeaderComponentModule&#45;&gt;LoadingModeComponent  -->
<g id="edge8" class="edge">
<title>HeaderComponentModule&#45;&gt;LoadingModeComponent </title>
<path fill="none" stroke="black" stroke-dasharray="5,2" d="M438,-149.91C438,-149.91 438,-168.79 438,-168.79"/>
<polygon fill="black" stroke="black" points="434.5,-168.79 438,-178.79 441.5,-168.79 434.5,-168.79"/>
</g>
<!-- SearchModeComponent  -->
<g id="node10" class="node">
<title>SearchModeComponent </title>
<polygon fill="#fb8072" stroke="black" points="337.58,-214.8 182.42,-214.8 182.42,-178.8 337.58,-178.8 337.58,-214.8"/>
<text text-anchor="middle" x="260" y="-192.6" font-family="Times,serif" font-size="14.00">SearchModeComponent </text>
</g>
<!-- HeaderComponentModule&#45;&gt;SearchModeComponent  -->
<g id="edge9" class="edge">
<title>HeaderComponentModule&#45;&gt;SearchModeComponent </title>
<path fill="none" stroke="black" stroke-dasharray="5,2" d="M355.17,-142.8C300.12,-142.8 237.9,-142.8 237.9,-142.8 237.9,-142.8 237.9,-168.52 237.9,-168.52"/>
<polygon fill="black" stroke="black" points="234.4,-168.52 237.9,-178.52 241.4,-168.52 234.4,-168.52"/>
</g>
<!-- SortModeComponent  -->
<g id="node11" class="node">
<title>SortModeComponent </title>
<polygon fill="#fb8072" stroke="black" points="164.33,-214.8 23.67,-214.8 23.67,-178.8 164.33,-178.8 164.33,-214.8"/>
<text text-anchor="middle" x="94" y="-192.6" font-family="Times,serif" font-size="14.00">SortModeComponent </text>
</g>
<!-- HeaderComponentModule&#45;&gt;SortModeComponent  -->
<g id="edge10" class="edge">
<title>HeaderComponentModule&#45;&gt;SortModeComponent </title>
<path fill="none" stroke="black" stroke-dasharray="5,2" d="M355.03,-135.8C248.26,-135.8 76.36,-135.8 76.36,-135.8 76.36,-135.8 76.36,-168.5 76.36,-168.5"/>
<polygon fill="black" stroke="black" points="72.86,-168.5 76.36,-178.5 79.86,-168.5 72.86,-168.5"/>
</g>
</g>
</svg>
