<?xml version="1.0" encoding="UTF-8" standalone="no"?>
<!DOCTYPE svg PUBLIC "-//W3C//DTD SVG 1.1//EN"
 "http://www.w3.org/Graphics/SVG/1.1/DTD/svg11.dtd">
<!-- Generated by graphviz version 5.0.0 (20220707.1540)
 -->
<!-- Title: dependencies Pages: 1 -->
<svg width="202pt" height="247pt"
 viewBox="0.00 0.00 202.00 246.80" xmlns="http://www.w3.org/2000/svg" xmlns:xlink="http://www.w3.org/1999/xlink">
<g id="graph0" class="graph" transform="scale(1 1) rotate(0) translate(4 242.8)">
<title>dependencies</title>
<polygon fill="white" stroke="transparent" points="-4,4 -4,-242.8 198,-242.8 198,4 -4,4"/>
<text text-anchor="middle" x="97" y="-8.2" font-family="sans-serif" font-size="14.00">dependencies</text>
<g id="clust1" class="cluster">
<title>cluster_ProfileComponentModule</title>
<polygon fill="none" stroke="black" stroke-dasharray="1,5" points="8,-32.8 8,-230.8 186,-230.8 186,-32.8 8,-32.8"/>
</g>
<g id="clust5" class="cluster">
<title>cluster_ProfileComponentModule_exports</title>
<polygon fill="none" stroke="black" points="28,-170.8 28,-222.8 166,-222.8 166,-170.8 28,-170.8"/>
</g>
<g id="clust2" class="cluster">
<title>cluster_ProfileComponentModule_declarations</title>
<polygon fill="none" stroke="black" points="29,-40.8 29,-92.8 165,-92.8 165,-40.8 29,-40.8"/>
</g>
<!-- ProfileComponent -->
<g id="node1" class="node">
<title>ProfileComponent</title>
<polygon fill="#ffffb3" stroke="black" points="156.94,-84.8 37.06,-84.8 37.06,-48.8 156.94,-48.8 156.94,-84.8"/>
<text text-anchor="middle" x="97" y="-62.6" font-family="Times,serif" font-size="14.00">ProfileComponent</text>
</g>
<!-- ProfileComponentModule -->
<g id="node2" class="node">
<title>ProfileComponentModule</title>
<polygon fill="#8dd3c7" stroke="black" points="178.49,-149.8 175.49,-153.8 154.49,-153.8 151.49,-149.8 15.51,-149.8 15.51,-113.8 178.49,-113.8 178.49,-149.8"/>
<text text-anchor="middle" x="97" y="-127.6" font-family="Times,serif" font-size="14.00">ProfileComponentModule</text>
</g>
<!-- ProfileComponent&#45;&gt;ProfileComponentModule -->
<g id="edge1" class="edge">
<title>ProfileComponent&#45;&gt;ProfileComponentModule</title>
<path fill="none" stroke="black" d="M97,-84.91C97,-84.91 97,-103.79 97,-103.79"/>
<polygon fill="black" stroke="black" points="93.5,-103.79 97,-113.79 100.5,-103.79 93.5,-103.79"/>
</g>
<!-- ProfileComponent  -->
<g id="node3" class="node">
<title>ProfileComponent </title>
<polygon fill="#fb8072" stroke="black" points="158.43,-214.8 35.57,-214.8 35.57,-178.8 158.43,-178.8 158.43,-214.8"/>
<text text-anchor="middle" x="97" y="-192.6" font-family="Times,serif" font-size="14.00">ProfileComponent </text>
</g>
<!-- ProfileComponentModule&#45;&gt;ProfileComponent  -->
<g id="edge2" class="edge">
<title>ProfileComponentModule&#45;&gt;ProfileComponent </title>
<path fill="none" stroke="black" stroke-dasharray="5,2" d="M97,-149.91C97,-149.91 97,-168.79 97,-168.79"/>
<polygon fill="black" stroke="black" points="93.5,-168.79 97,-178.79 100.5,-168.79 93.5,-168.79"/>
</g>
</g>
</svg>
