<?xml version="1.0" encoding="UTF-8" standalone="no"?>
<!DOCTYPE svg PUBLIC "-//W3C//DTD SVG 1.1//EN"
 "http://www.w3.org/Graphics/SVG/1.1/DTD/svg11.dtd">
<!-- Generated by graphviz version 2.47.3 (20210619.1520)
 -->
<!-- Title: dependencies Pages: 1 -->
<svg width="210pt" height="247pt"
 viewBox="0.00 0.00 210.00 246.80" xmlns="http://www.w3.org/2000/svg" xmlns:xlink="http://www.w3.org/1999/xlink">
<g id="graph0" class="graph" transform="scale(1 1) rotate(0) translate(4 242.8)">
<title>dependencies</title>
<polygon fill="white" stroke="transparent" points="-4,4 -4,-242.8 206,-242.8 206,4 -4,4"/>
<text text-anchor="middle" x="101" y="-8.2" font-family="sans-serif" font-size="14.00">dependencies</text>
<g id="clust1" class="cluster">
<title>cluster_ToolbarComponentModule</title>
<polygon fill="none" stroke="black" stroke-dasharray="1,5" points="8,-32.8 8,-230.8 194,-230.8 194,-32.8 8,-32.8"/>
</g>
<g id="clust5" class="cluster">
<title>cluster_ToolbarComponentModule_exports</title>
<polygon fill="none" stroke="black" points="28,-170.8 28,-222.8 174,-222.8 174,-170.8 28,-170.8"/>
</g>
<g id="clust2" class="cluster">
<title>cluster_ToolbarComponentModule_declarations</title>
<polygon fill="none" stroke="black" points="30,-40.8 30,-92.8 172,-92.8 172,-40.8 30,-40.8"/>
</g>
<!-- ToolbarComponent -->
<g id="node1" class="node">
<title>ToolbarComponent</title>
<polygon fill="#ffffb3" stroke="black" points="163.65,-84.8 38.35,-84.8 38.35,-48.8 163.65,-48.8 163.65,-84.8"/>
<text text-anchor="middle" x="101" y="-62.6" font-family="Times,serif" font-size="14.00">ToolbarComponent</text>
</g>
<!-- ToolbarComponentModule -->
<g id="node2" class="node">
<title>ToolbarComponentModule</title>
<polygon fill="#8dd3c7" stroke="black" points="185.7,-149.8 182.7,-153.8 161.7,-153.8 158.7,-149.8 16.3,-149.8 16.3,-113.8 185.7,-113.8 185.7,-149.8"/>
<text text-anchor="middle" x="101" y="-127.6" font-family="Times,serif" font-size="14.00">ToolbarComponentModule</text>
</g>
<!-- ToolbarComponent&#45;&gt;ToolbarComponentModule -->
<g id="edge1" class="edge">
<title>ToolbarComponent&#45;&gt;ToolbarComponentModule</title>
<path fill="none" stroke="black" d="M101,-84.91C101,-84.91 101,-103.79 101,-103.79"/>
<polygon fill="black" stroke="black" points="97.5,-103.79 101,-113.79 104.5,-103.79 97.5,-103.79"/>
</g>
<!-- ToolbarComponent  -->
<g id="node3" class="node">
<title>ToolbarComponent </title>
<polygon fill="#fb8072" stroke="black" points="165.65,-214.8 36.35,-214.8 36.35,-178.8 165.65,-178.8 165.65,-214.8"/>
<text text-anchor="middle" x="101" y="-192.6" font-family="Times,serif" font-size="14.00">ToolbarComponent </text>
</g>
<!-- ToolbarComponentModule&#45;&gt;ToolbarComponent  -->
<g id="edge2" class="edge">
<title>ToolbarComponentModule&#45;&gt;ToolbarComponent </title>
<path fill="none" stroke="black" stroke-dasharray="5,2" d="M101,-149.91C101,-149.91 101,-168.79 101,-168.79"/>
<polygon fill="black" stroke="black" points="97.5,-168.79 101,-178.79 104.5,-168.79 97.5,-168.79"/>
</g>
</g>
</svg>
