<svg x="0" y="0" width="2160" height="1080" viewBox="0 0 2160 1080" xmlns="http://www.w3.org/2000/svg" xmlns:xlink="http://www.w3.org/1999/xlink" xmlns:fi="http://pattern.flaticon.com/"><rect x="0px" y="0px" width="100%" height="100%" opacity="1" fill="#313131"/><defs><path d="M477.418,98.354H262.25l-0.94-6.098c-2.808-18.223-20.093-33.047-38.531-33.047H115.962    c-18.44,0-35.724,14.826-38.529,33.047l-0.941,6.098h-0.669c-19.068,0-34.581,15.513-34.581,34.582v23.139H30.71    c-9.454,0-17.847,3.738-23.629,10.524c-5.783,6.787-8.14,15.665-6.64,24.999l36.69,228.225    c2.922,18.179,20.281,32.968,38.693,32.968h401.594c1.782,0,3.525-0.133,5.222-0.395c16.6-2.525,29.359-16.894,29.359-34.188    V132.935C511.999,113.867,496.486,98.354,477.418,98.354z M488.799,431.834c-2,2.347-4.764,3.905-7.98,4.543    c-0.133,0.025-0.269,0.04-0.403,0.062c-0.399,0.069-0.799,0.134-1.21,0.175c-0.589,0.057-1.185,0.091-1.789,0.091H75.824    c-10.67,0-21.116-8.901-22.811-19.436l-36.69-228.224c-0.74-4.605,0.325-8.87,3.001-12.012c2.677-3.14,6.72-4.87,11.384-4.87    h401.593c10.669,0,21.115,8.901,22.808,19.436l36.691,228.224C492.542,424.427,491.475,428.693,488.799,431.834z M81.921,156.076    v-0.001v-13.032h381.992v29.598c-7.36-9.889-19.244-16.566-31.61-16.566H81.921z M495.912,344.035l-15.912-98.978V134.998    c0-4.442-3.6-8.044-8.044-8.044H73.877c-4.443,0-8.044,3.601-8.044,8.044v21.075h-8.505v-23.139    c0-10.198,8.296-18.495,18.494-18.495h7.57c3.969,0,7.345-2.896,7.949-6.818l1.992-12.918    c1.619-10.521,11.982-19.409,22.629-19.409h106.817c10.647,0,21.01,8.889,22.633,19.41l1.989,12.916    c0.604,3.923,3.98,6.819,7.949,6.819h222.067c10.198,0,18.494,8.297,18.494,18.495V344.035z" transform="matrix(0.1171877309679985 0 0 0.1171877309679985 186 35)" id="L1_101" fill="#474747"/><g transform="matrix(0.11718795448541641 0 0 0.11718795448541641 9.999998092651367 16.999998092651367)" id="L1_102"><path d="M509.672,397.474l-32.875-32.873c-0.011-0.012-0.019-0.023-0.03-0.033l-25.501-25.501     c5.313-25.455-2.598-52.308-21.049-70.759l-43.564-43.564l0.001-0.001c-0.014-0.014-0.028-0.025-0.042-0.04L184.581,22.67     C154.357-7.556,105.176-7.557,74.948,22.669l-52.28,52.281c-30.223,30.225-30.223,79.406,0,109.632l245.637,245.636     c14.706,14.703,34.602,22.69,54.936,22.69c5.273,0,10.576-0.546,15.826-1.644l25.501,25.501v0.001l-0.001,0.001l32.907,32.906     c1.55,1.55,3.584,2.326,5.616,2.326c2.032,0,4.066-0.775,5.616-2.326l100.965-100.967c1.49-1.49,2.327-3.511,2.327-5.617     C511.999,400.984,511.162,398.965,509.672,397.474z M33.901,173.35c-24.03-24.032-24.03-63.136,0-87.168l52.28-52.28     c24.032-24.032,63.137-24.032,87.168,0l168.88,168.881c-23.153-3.105-47.449,4.205-65.205,21.959l-52.28,52.281     c-14.641,14.642-22.704,34.11-22.704,54.817c0,3.491,0.248,6.943,0.7,10.345L33.901,173.35z M235.974,375.422l0.001-0.001     c-11.642-11.64-18.052-27.117-18.052-43.581c0-16.464,6.411-31.942,18.052-43.584l52.278-52.28     c24.021-24.016,63.094-24.029,87.129-0.036l10.408,10.408c-23.153-3.106-47.45,4.205-65.207,21.959l-52.281,52.282     c-17.755,17.757-25.064,42.05-21.959,65.204L235.974,375.422z M279.539,418.987v-0.001l-0.019-0.019     c-24.01-24.033-24.005-63.12,0.018-87.145l52.281-52.281c24.026-24.024,63.113-24.029,87.147-0.021l0.021,0.021v-0.001     c12.025,12.025,18.417,28.541,18.008,45.255l-48.586-48.586c-3.102-3.101-8.131-3.101-11.232,0L276.21,377.174     c-1.49,1.49-2.327,3.51-2.327,5.617c0,2.106,0.837,4.127,2.327,5.617l48.595,48.595     C308.09,437.429,291.611,431.057,279.539,418.987z M293.057,382.789l89.733-89.732l77.128,77.127l-89.733,89.732L293.057,382.789     z M386.638,476.372l-5.222-5.221l89.733-89.732l5.221,5.22L386.638,476.372z M403.091,492.825l-5.22-5.22l89.733-89.733     l5.219,5.219L403.091,492.825z" fill="#474747"/><path d="M230.93,240.137c2.087,0,4.113-0.824,5.616-2.326c1.829-1.829,2.652-4.433,2.208-6.98l-8.637-49.598     c-0.508-2.921-2.602-5.315-5.429-6.209c-2.824-0.894-5.916-0.14-8.013,1.956l-14.863,14.862l-67.354-67.354h34.604     c-2.302,4.273-3.525,9.075-3.526,14.065c0,7.939,3.09,15.403,8.705,21.018c5.614,5.614,13.078,8.705,21.016,8.705     c7.939,0,15.403-3.092,21.017-8.706c11.589-11.589,11.589-30.445,0.001-42.035c-5.613-5.613-13.077-8.704-21.015-8.704     c-5.217,0-10.225,1.343-14.641,3.852l-1.754-1.754c-1.489-1.489-3.51-2.326-5.616-2.326h-53.955     c6.104-11.268,4.407-25.674-5.104-35.186c-5.614-5.614-13.078-8.705-21.017-8.705c-7.939,0-15.403,3.092-21.018,8.706     c-11.588,11.588-11.588,30.445,0,42.035c5.613,5.613,13.077,8.705,21.015,8.705c5.217,0,10.224-1.342,14.64-3.852l9.302,9.304     v54.514c0,2.106,0.837,4.126,2.326,5.616l1.909,1.91l-8.866,8.865c-1.49,1.49-2.327,3.51-2.327,5.617     c0,2.106,0.837,4.126,2.327,5.617l28.964,28.964c1.551,1.55,3.584,2.326,5.616,2.326c2.032,0,4.066-0.775,5.616-2.326     l28.964-28.963c1.49-1.49,2.327-3.51,2.327-5.617c0-2.106-0.837-4.126-2.327-5.617l-28.964-28.965     c-1.489-1.489-3.51-2.326-5.616-2.326s-4.127,0.837-5.616,2.326l-8.449,8.448v-34.504l57.579,57.579L175.71,217.94     c-2.097,2.097-2.851,5.187-1.956,8.013c0.895,2.826,3.288,4.92,6.21,5.429l49.598,8.637     C230.02,240.099,230.476,240.137,230.93,240.137z M185.476,128.771c2.614-2.614,6.088-4.053,9.785-4.053     c3.695,0,7.17,1.438,9.782,4.051c5.395,5.396,5.395,14.175-0.001,19.57c-2.614,2.615-6.088,4.054-9.785,4.054     c-3.696,0-7.171-1.439-9.784-4.053c-2.613-2.613-4.052-6.087-4.052-9.782C181.423,134.86,182.863,131.385,185.476,128.771z      M102.957,104.219c-2.614,2.615-6.089,4.054-9.785,4.054s-7.171-1.439-9.782-4.052c-5.395-5.397-5.396-14.175,0-19.57     c2.614-2.615,6.089-4.054,9.785-4.054s7.171,1.439,9.784,4.053C108.353,90.046,108.352,98.824,102.957,104.219z M147.065,188.401     l17.732,17.732l-17.731,17.73l-17.732-17.731L147.065,188.401z M197.763,218.357l19.327-19.328l4.075,23.404L197.763,218.357z" fill="#474747"/><rect x="338px" y="413px" width="43px" height="15px" transform="matrix(-0.707099974155426 -0.707099974155426 0.707099974155426 -0.707099974155426 317.25909423828125 974.8209228515625)" fill="#474747"/><rect x="413px" y="338px" width="15px" height="43px" transform="matrix(0.707099974155426 -0.707099974155426 0.707099974155426 0.707099974155426 -131.41090393066406 403.80828857421875)" fill="#474747"/></g><g transform="matrix(0.1171875 0 0 0.1171875 86 113)" id="L1_103"><path d="M503.979,219.714h-9.362V82.81h5.323c4.431,0,8.021-3.591,8.021-8.021V37.731c0-4.431-3.59-8.021-8.021-8.021H117.701     c-4.431,0-8.021,3.59-8.021,8.021v37.058c0,4.43,3.59,8.021,8.021,8.021h5.325v136.904H8.021c-4.431,0-8.021,3.59-8.021,8.021     v48.082c0,4.431,3.59,8.021,8.021,8.021h9.294v190.43c0,4.431,3.59,8.021,8.021,8.021h461.328c4.431,0,8.021-3.59,8.021-8.021     v-190.43h9.293c4.431,0,8.021-3.59,8.021-8.021v-48.082C512,223.304,508.41,219.714,503.979,219.714z M351.616,45.751h140.302     v21.016H351.616V45.751z M351.616,82.81h126.958v136.904H351.616V82.81z M125.723,45.751h209.852v21.016H125.723V45.751z      M226.348,199.902v-0.001c4.431,0,8.021-3.59,8.021-8.021v-40.618c0-4.431-3.59-8.021-8.021-8.021h-87.279V82.81h196.506v136.904     H139.068v-19.812H226.348z M139.068,183.858v-24.576h79.258v24.576H139.068z M33.358,466.247v-30.481H148.99     c4.431,0,8.021-3.59,8.021-8.021v-52.703c0-4.431-3.59-8.021-8.021-8.021H33.358v-83.182h259.741v182.408H33.358z      M33.358,419.724v-36.66h107.612v36.66H33.358z M293.1,267.796H16.042v-32.04H293.1V267.796z M478.643,466.247H309.142V283.839     h169.501V466.247z M495.958,267.796H309.142v-32.04h186.815V267.796z" fill="#474747"/><path d="M376.32,342.013h59.629c12.238,0,22.195-9.958,22.195-22.196s-9.957-22.195-22.195-22.195H376.32     c-12.238,0-22.196,9.957-22.196,22.195S364.082,342.013,376.32,342.013z M376.32,313.664h59.629c3.392,0,6.153,2.76,6.153,6.153     c0,3.393-2.76,6.154-6.153,6.154H376.32c-3.393,0-6.154-2.76-6.154-6.154C370.167,316.424,372.927,313.664,376.32,313.664z" fill="#474747"/><path d="M447.509,89.753h-45.956c-10.447,0-18.946,8.498-18.946,18.945c0,10.448,8.499,18.947,18.946,18.947h45.956     c10.447,0,18.946-8.499,18.946-18.947C466.456,98.251,457.955,89.753,447.509,89.753z M447.509,111.603h-45.956     c-1.601,0-2.904-1.304-2.904-2.905c0-1.6,1.303-2.903,2.904-2.903h45.956c1.601,0,2.904,1.303,2.904,2.903     C450.413,110.299,449.11,111.603,447.509,111.603z" fill="#474747"/></g><g transform="matrix(0.1171875 0 0 0.1171875 11 229)" id="L1_104"><rect x="44px" y="391px" width="247px" height="16px" fill="#474747"/><rect x="44px" y="245px" width="247px" height="16px" fill="#474747"/><rect x="44px" y="142px" width="202px" height="16px" fill="#474747"/><rect x="44px" y="318px" width="247px" height="16px" fill="#474747"/><rect x="44px" y="428px" width="292px" height="16px" fill="#474747"/><rect x="44px" y="208px" width="292px" height="16px" fill="#474747"/><path d="M511.981,114.304c0-2.11-0.806-4.185-2.357-5.736L407.636,6.581c-1.551-1.551-3.625-2.356-5.736-2.356V4.205H139.375     c-4.48,0-8.112,3.632-8.112,8.112v36.188H8.112C3.632,48.504,0,52.136,0,56.616v443.068c0,4.48,3.632,8.112,8.112,8.112h364.513     c4.48,0,8.112-3.632,8.112-8.112v-36.188h123.152c4.48,0,8.112-3.632,8.112-8.112v-341.08H511.981z M410.012,31.9l74.292,74.292     h-74.292V31.9z M364.513,491.572H16.223V64.728h246.302v93.876c0,4.48,3.632,8.112,8.112,8.112h93.876V491.572z M278.748,150.492     V76.2l74.292,74.292H278.748z M495.777,447.272h-115.04V158.604h-0.019c-0.001-2.11-0.806-4.185-2.357-5.735L276.372,50.88     c-1.551-1.552-3.625-2.356-5.735-2.356v-0.019h-123.15V20.428h246.302v93.876c0,4.48,3.632,8.112,8.112,8.112h93.876V447.272z" fill="#474747"/><rect x="44px" y="355px" width="292px" height="16px" fill="#474747"/><rect x="44px" y="281px" width="292px" height="16px" fill="#474747"/></g><g transform="matrix(0.1171875 0 0 0.1171875 281 111)" id="L1_105"><circle cx="255" cy="223" r="7" fill="#474747"/><rect x="121px" y="79px" width="246px" height="16px" fill="#474747"/><path d="M404.385,0h-296.77C83.316,0,63.547,19.769,63.547,44.068v459.845c0,4.467,3.621,8.088,8.088,8.088h368.731     c4.468,0,8.088-3.621,8.088-8.088V44.068C448.453,19.769,428.685,0,404.385,0z M79.722,44.068     c0-15.379,12.513-27.893,27.893-27.893h296.77c15.379,0,27.891,12.513,27.891,27.893v59.371h-8.434V55.182     c0-4.467-3.621-8.088-8.088-8.088H96.245c-4.467,0-8.088,3.621-8.088,8.088v48.256h-8.435V44.068z M407.667,63.27v40.169H104.332     V63.27H407.667z M79.722,119.614h168.19v69.115c-16.019,3.683-28.005,18.046-28.005,35.166c0,8.333,2.847,16.009,7.609,22.126     V378.57c0,4.467,3.621,8.088,8.088,8.088c4.466,0,8.088-3.621,8.088-8.088V257.822c1.37,0.498,2.78,0.907,4.221,1.238v200.783     H107.615c-10.575,0-20.29,3.747-27.893,9.979V119.614z M256,203.979c10.982,0,19.916,8.934,19.916,19.916     c0,10.982-8.934,19.916-19.916,19.916c-10.982,0-19.917-8.934-19.917-19.916C236.083,212.913,245.018,203.979,256,203.979z      M80.923,495.825c3.476-11.448,14.125-19.805,26.692-19.805h296.77c12.567,0,23.216,8.357,26.692,19.805H80.923z      M432.278,469.824c-7.602-6.232-17.317-9.979-27.891-9.979H264.088V259.061c16.018-3.683,28.004-18.046,28.004-35.166     s-11.985-31.483-28.004-35.166v-69.115h168.19V469.824z" fill="#474747"/></g><g transform="matrix(0.1171875 0 0 0.1171875 186 220)" id="L1_106"><path d="M437.02,74.981C388.668,26.629,324.38,0,256,0S123.333,26.629,74.981,74.981C26.629,123.332,0,187.62,0,256     s26.629,132.668,74.981,181.019C123.333,485.371,187.62,512,256,512s132.668-26.629,181.02-74.981     C485.371,388.668,512,324.38,512,256S485.371,123.332,437.02,74.981z M425.611,86.39c14.814,14.814,27.436,31.232,37.737,48.85     l-128.717,69.278c-5.933-9.031-13.377-16.984-21.972-23.496l77.78-123.739C402.922,65.767,414.703,75.481,425.611,86.39z      M333.884,256c0,42.945-34.938,77.883-77.884,77.883c-42.945,0-77.883-34.939-77.883-77.883s34.938-77.883,77.883-77.883     C298.946,178.117,333.884,213.055,333.884,256z M16.135,256c0-64.071,24.951-124.307,70.255-169.611     C131.694,41.084,191.93,16.135,256,16.135c43.133,0,84.521,11.323,120.793,32.537l-77.781,123.741     c-12.897-6.663-27.523-10.43-43.012-10.43c-51.842,0-94.018,42.176-94.018,94.018c0,22.795,8.157,43.719,21.702,60.013     l-103.998,102.6C38.639,374.194,16.135,316.831,16.135,256z M91.012,430.106l104.006-102.609c1.824,1.559,3.709,3.047,5.65,4.464     l-75.597,125.092C113.042,449.186,101.641,440.191,91.012,430.106z M138.86,465.429l75.604-125.101     c6.574,3.251,13.58,5.757,20.908,7.404L215.667,492.5C188.568,487.938,162.657,478.786,138.86,465.429z M256,495.865     c-8.185,0-16.306-0.413-24.341-1.218l19.702-144.745c1.537,0.075,3.084,0.116,4.64,0.116c0.86,0,1.718-0.014,2.573-0.037     l16.511,145.13C268.767,495.605,262.403,495.865,256,495.865z M425.611,425.611c-36.916,36.917-83.75,60.315-134.491,67.714     l-16.513-145.158c42.96-8.659,75.413-46.692,75.413-92.167c0-13.241-2.757-25.849-7.718-37.286l128.716-69.278     c16.248,32.709,24.849,68.975,24.849,106.564C495.865,320.071,470.916,380.307,425.611,425.611z" fill="#474747"/><path d="M256,208.834c-26.007,0-47.165,21.159-47.165,47.167c0,26.008,21.158,47.167,47.165,47.167     c26.008,0,47.167-21.159,47.167-47.167C303.167,229.993,282.008,208.834,256,208.834z M256,287.032     c-17.11,0-31.03-13.92-31.03-31.032s13.92-31.032,31.03-31.032c17.111,0,31.032,13.92,31.032,31.032S273.111,287.032,256,287.032     z" fill="#474747"/></g><path d="M480.815,390.403c-3.429-7.75-8.208-14.719-14.204-20.714L191.294,94.373c-0.005-0.005-0.012-0.011-0.017-0.017    l-31.51-31.51l0.001-0.001l-42.773-42.771C104.051,7.128,86.842,0,68.535,0C50.229,0,33.02,7.129,20.076,20.073    C7.131,33.018,0.002,50.227,0.002,68.534c0,18.305,7.129,35.516,20.073,48.46l31.526,31.527l318.086,318.09    c5.994,5.993,12.962,10.771,20.626,14.164c24.128,11.024,89.593,31.215,104.508,31.215c0.079,0,0.158-0.001,0.237-0.003    c0.214,0.009,0.428,0.013,0.642,0.013c4.335,0,8.47-1.69,11.535-4.758c3.219-3.217,4.921-7.604,4.75-12.164    c0.002-0.085,0.004-0.169,0.004-0.254C511.991,479.908,491.8,414.441,480.815,390.403z M179.902,105.731l244.149,244.148    c-1.953-0.165-3.919-0.265-5.902-0.265c-8.416-0.001-16.593,1.523-24.236,4.409L131.512,91.62    c3.679-0.805,7.467-1.233,11.322-1.233C156.835,90.387,169.999,95.836,179.902,105.731z M31.451,105.618    c-9.906-9.907-15.361-23.077-15.361-37.085c0-14.009,5.455-27.179,15.361-37.085c9.906-9.906,23.076-15.361,37.085-15.361    c14.009,0,27.179,5.455,37.085,15.361l0.344,0.344c-1.953-0.165-3.919-0.265-5.902-0.265c-18.305,0-35.516,7.129-48.46,20.073    c-12.945,12.944-20.074,30.154-20.074,48.46c0,1.982,0.1,3.949,0.265,5.901L31.451,105.618z M74.222,148.392l-11.246-11.246    c-9.906-9.906-15.361-23.077-15.361-37.085c0-14.009,5.456-27.178,15.362-37.085c9.905-9.906,23.075-15.361,37.084-15.361    c14.009,0,27.178,5.455,37.085,15.361l11.588,11.588c-1.951-0.165-3.917-0.265-5.899-0.265c-18.305,0-35.516,7.129-48.461,20.073    c-12.945,12.944-20.073,30.154-20.073,48.461c0,1.983,0.1,3.95,0.265,5.903L74.222,148.392z M349.915,424.086L105.749,179.918    c-9.904-9.907-15.359-23.077-15.359-37.086c0-3.856,0.428-7.644,1.233-11.321l262.433,262.433    C350.425,403.606,349.039,413.922,349.915,424.086z M98.178,115.316c2.122-3.43,4.647-6.645,7.572-9.569    c2.924-2.924,6.138-5.448,9.568-7.571l263.704,263.706c-3.299,2.305-6.429,4.899-9.334,7.805c-2.925,2.926-5.51,6.061-7.795,9.344    L98.178,115.316z M453.514,485.968c-20.624-6.135-43.631-13.937-56.6-19.864c-5.931-2.627-11.264-6.284-15.85-10.87    c-20.448-20.449-20.448-53.722,0-74.172c9.906-9.906,23.077-15.361,37.086-15.361c14.01,0,27.18,5.456,37.086,15.362    c4.588,4.587,8.245,9.92,10.907,15.936c5.905,12.922,13.697,35.903,19.826,56.514c-8.223,0.817-16.075,4.4-22.066,10.389    C457.914,469.894,454.332,477.746,453.514,485.968z M495.861,495.868c-0.052,0.051-0.176,0.047-0.226,0.042    c-0.253-0.025-0.506-0.036-0.759-0.036c-0.186,0-0.372,0.006-0.557,0.019c-3.976-0.175-13.301-2.267-24.887-5.396    c-0.264-5.616,1.811-11.18,5.847-15.217c4.037-4.037,9.602-6.112,15.218-5.849c3.119,11.555,5.209,20.862,5.394,24.856    c-0.032,0.446-0.027,0.898,0.017,1.349C495.911,495.664,495.922,495.806,495.861,495.868z" transform="matrix(0.1171877309679985 0 0 0.1171877309679985 90 308)" id="L1_107" fill="#474747"/><g transform="matrix(0.1171875 0 0 0.1171875 267 305)" id="L1_108"><path d="M503.916,65.705h-77.848H248.156c-3.224,0-6.139,1.914-7.419,4.873l-22.781,52.639c-1.081,2.497-0.832,5.373,0.662,7.649    c1.495,2.275,4.035,3.646,6.757,3.646h98.554v25.058H214.72l-24.685-37.58c-1.495-2.275-4.035-3.646-6.757-3.646H99.372H84.26    H8.084c-4.465,0-8.084,3.618-8.084,8.084v22.322c0,4.466,3.62,8.084,8.084,8.084h34.982v281.376c0,4.466,3.62,8.084,8.084,8.084    h75.302h276.836h100.628c4.465,0,8.084-3.618,8.084-8.084V73.789C512,69.324,508.38,65.705,503.916,65.705z M243.838,175.739    h51.931v2.233c0,0.075-0.095,0.171-0.17,0.171h-51.59c-0.074,0-0.17-0.096-0.17-0.171V175.739z M118.368,430.126H59.235V148.751    c0-4.466-3.62-8.084-8.084-8.084H16.168v-6.154H84.26h10.751l23.357,35.56V430.126z M114.354,134.513h64.563l16.459,25.058    h-64.563L114.354,134.513z M134.536,175.74h93.133v2.233c0,9.009,7.33,16.34,16.339,16.34h51.59    c9.009,0,16.339-7.331,16.339-16.34v-2.233h2.143v25.782c0,4.466,3.62,8.084,8.084,8.084h73.039v64.787H134.536V175.74z     M395.204,430.126H134.536v-66.334h260.667V430.126z M395.204,347.624H134.536v-20.448h260.667V347.624z M395.204,311.008H134.536    v-20.448h260.667V311.008z M395.204,193.437h-64.955v-17.698h64.955V193.437z M340.097,159.571v-25.058h55.106v25.058H340.097z     M397.977,118.344H237.681l15.785-36.471h160.295L397.977,118.344z M495.832,430.126h-84.459v-66.334h84.459V430.126z     M495.832,347.624h-84.46v-20.448h0h84.459V347.624z M495.832,311.008h-84.459v-20.448h84.459V311.008z M495.832,274.392h-84.46    V128.104l20.007-46.23h64.453V274.392z" fill="#474747"/><path d="M264.355,91.083 255.599,109.134 310.802,109.134 319.558,91.083z" fill="#474747"/><path d="M349.619,85.937 344.684,97.344 362.713,97.344 367.649,85.937z" fill="#474747"/><path d="M342.29,102.873 337.354,114.279 355.383,114.279 360.32,102.873z" fill="#474747"/><path d="M379.916,85.937 374.979,97.344 393.009,97.344 397.946,85.937z" fill="#474747"/><path d="M372.586,102.873 367.649,114.279 385.679,114.279 390.615,102.873z" fill="#474747"/></g></defs><g fi:class="KUsePattern"><pattern id="pattern_L1_101" width="350" height="350" patternUnits="userSpaceOnUse"><use xlink:href="#L1_101" x="-350" y="-350"/><use xlink:href="#L1_101" x="0" y="-350"/><use xlink:href="#L1_101" x="350" y="-350"/><use xlink:href="#L1_101" x="-350" y="0"/><use xlink:href="#L1_101" x="0" y="0"/><use xlink:href="#L1_101" x="350" y="0"/><use xlink:href="#L1_101" x="-350" y="350"/><use xlink:href="#L1_101" x="0" y="350"/><use xlink:href="#L1_101" x="350" y="350"/></pattern><rect x="0" y="0" width="100%" height="100%" fill="url(#pattern_L1_101)"/></g><g fi:class="KUsePattern"><pattern id="pattern_L1_102" width="350" height="350" patternUnits="userSpaceOnUse"><use xlink:href="#L1_102" x="-350" y="-350"/><use xlink:href="#L1_102" x="0" y="-350"/><use xlink:href="#L1_102" x="350" y="-350"/><use xlink:href="#L1_102" x="-350" y="0"/><use xlink:href="#L1_102" x="0" y="0"/><use xlink:href="#L1_102" x="350" y="0"/><use xlink:href="#L1_102" x="-350" y="350"/><use xlink:href="#L1_102" x="0" y="350"/><use xlink:href="#L1_102" x="350" y="350"/></pattern><rect x="0" y="0" width="100%" height="100%" fill="url(#pattern_L1_102)"/></g><g fi:class="KUsePattern"><pattern id="pattern_L1_103" width="350" height="350" patternUnits="userSpaceOnUse"><use xlink:href="#L1_103" x="-350" y="-350"/><use xlink:href="#L1_103" x="0" y="-350"/><use xlink:href="#L1_103" x="350" y="-350"/><use xlink:href="#L1_103" x="-350" y="0"/><use xlink:href="#L1_103" x="0" y="0"/><use xlink:href="#L1_103" x="350" y="0"/><use xlink:href="#L1_103" x="-350" y="350"/><use xlink:href="#L1_103" x="0" y="350"/><use xlink:href="#L1_103" x="350" y="350"/></pattern><rect x="0" y="0" width="100%" height="100%" fill="url(#pattern_L1_103)"/></g><g fi:class="KUsePattern"><pattern id="pattern_L1_104" width="350" height="350" patternUnits="userSpaceOnUse"><use xlink:href="#L1_104" x="-350" y="-350"/><use xlink:href="#L1_104" x="0" y="-350"/><use xlink:href="#L1_104" x="350" y="-350"/><use xlink:href="#L1_104" x="-350" y="0"/><use xlink:href="#L1_104" x="0" y="0"/><use xlink:href="#L1_104" x="350" y="0"/><use xlink:href="#L1_104" x="-350" y="350"/><use xlink:href="#L1_104" x="0" y="350"/><use xlink:href="#L1_104" x="350" y="350"/></pattern><rect x="0" y="0" width="100%" height="100%" fill="url(#pattern_L1_104)"/></g><g fi:class="KUsePattern"><pattern id="pattern_L1_105" width="350" height="350" patternUnits="userSpaceOnUse"><use xlink:href="#L1_105" x="-350" y="-350"/><use xlink:href="#L1_105" x="0" y="-350"/><use xlink:href="#L1_105" x="350" y="-350"/><use xlink:href="#L1_105" x="-350" y="0"/><use xlink:href="#L1_105" x="0" y="0"/><use xlink:href="#L1_105" x="350" y="0"/><use xlink:href="#L1_105" x="-350" y="350"/><use xlink:href="#L1_105" x="0" y="350"/><use xlink:href="#L1_105" x="350" y="350"/></pattern><rect x="0" y="0" width="100%" height="100%" fill="url(#pattern_L1_105)"/></g><g fi:class="KUsePattern"><pattern id="pattern_L1_106" width="350" height="350" patternUnits="userSpaceOnUse"><use xlink:href="#L1_106" x="-350" y="-350"/><use xlink:href="#L1_106" x="0" y="-350"/><use xlink:href="#L1_106" x="350" y="-350"/><use xlink:href="#L1_106" x="-350" y="0"/><use xlink:href="#L1_106" x="0" y="0"/><use xlink:href="#L1_106" x="350" y="0"/><use xlink:href="#L1_106" x="-350" y="350"/><use xlink:href="#L1_106" x="0" y="350"/><use xlink:href="#L1_106" x="350" y="350"/></pattern><rect x="0" y="0" width="100%" height="100%" fill="url(#pattern_L1_106)"/></g><g fi:class="KUsePattern"><pattern id="pattern_L1_107" width="350" height="350" patternUnits="userSpaceOnUse"><use xlink:href="#L1_107" x="-350" y="-350"/><use xlink:href="#L1_107" x="0" y="-350"/><use xlink:href="#L1_107" x="350" y="-350"/><use xlink:href="#L1_107" x="-350" y="0"/><use xlink:href="#L1_107" x="0" y="0"/><use xlink:href="#L1_107" x="350" y="0"/><use xlink:href="#L1_107" x="-350" y="350"/><use xlink:href="#L1_107" x="0" y="350"/><use xlink:href="#L1_107" x="350" y="350"/></pattern><rect x="0" y="0" width="100%" height="100%" fill="url(#pattern_L1_107)"/></g><g fi:class="KUsePattern"><pattern id="pattern_L1_108" width="350" height="350" patternUnits="userSpaceOnUse"><use xlink:href="#L1_108" x="-350" y="-350"/><use xlink:href="#L1_108" x="0" y="-350"/><use xlink:href="#L1_108" x="350" y="-350"/><use xlink:href="#L1_108" x="-350" y="0"/><use xlink:href="#L1_108" x="0" y="0"/><use xlink:href="#L1_108" x="350" y="0"/><use xlink:href="#L1_108" x="-350" y="350"/><use xlink:href="#L1_108" x="0" y="350"/><use xlink:href="#L1_108" x="350" y="350"/></pattern><rect x="0" y="0" width="100%" height="100%" fill="url(#pattern_L1_108)"/></g></svg>